<?xml version="1.0" standalone="no"?>
<!DOCTYPE svg PUBLIC "-//W3C//DTD SVG 1.1//EN" "http://www.w3.org/Graphics/SVG/1.1/DTD/svg11.dtd" >
<svg xmlns="http://www.w3.org/2000/svg" xmlns:xlink="http://www.w3.org/1999/xlink" version="1.1">
<metadata>
Created by FontForge 20181003 at Tue Oct 16 14:00:08 2018
 By Bhavinder Singh
Copyright (c) 1993 Adobe Systems Incorporated.  All Rights Reserved.ITC Legacy Serif is a trademark of International Typeface Corporation.
</metadata>
<defs>
<font id="LegacySerif-BookItalic" horiz-adv-x="481" >
  <font-face 
    font-family="ITC Legacy Serif Book"
    font-weight="400"
    font-style="italic"
    font-stretch="normal"
    units-per-em="1000"
    panose-1="0 0 0 0 0 0 0 0 0 0"
    ascent="800"
    descent="-200"
    x-height="432"
    cap-height="635"
    bbox="-158 -272 1034 883"
    underline-thickness="50"
    underline-position="-100"
    slope="-12"
    unicode-range="U+000D-FB02"
  />
<missing-glyph horiz-adv-x="200" 
 />
    <glyph glyph-name=".notdef" horiz-adv-x="200" 
 />
    <glyph glyph-name=".null" horiz-adv-x="0" 
 />
    <glyph glyph-name=".null" horiz-adv-x="0" 
 />
    <glyph glyph-name="nonmarkingreturn" unicode="&#xd;" horiz-adv-x="250" 
 />
    <glyph glyph-name="space" unicode=" " horiz-adv-x="200" 
 />
    <glyph glyph-name="exclam" unicode="!" horiz-adv-x="315" 
d="M130 152q5 26 8.5 46t7.5 48.5t9 72.5t14 116q2 16 5.5 44.5t7.5 58t9 55t10 35.5q5 9 14 14t18.5 7t17.5 2.5t11 0.5q12 0 19.5 -5t7.5 -19q0 -4 -2.5 -20t-10 -45.5t-20.5 -74.5t-34 -107q-15 -45 -24 -71.5t-15.5 -48.5t-12.5 -45t-15 -61q0 -3 -7 -3l-17 -2zM121 89
q8 0 17 -5t16 -12t11.5 -15.5t4.5 -16.5q0 -17 -16.5 -34t-34.5 -17q-9 0 -18 5t-15.5 12.5t-11 16t-4.5 15.5q0 17 16.5 34t34.5 17z" />
    <glyph glyph-name="quotedbl" unicode="&#x22;" 
d="M201 469q1 9 3 31t4 46t4.5 45.5t4.5 29.5q4 13 12.5 20t39.5 7q4 0 12.5 -2.5t8.5 -16.5q0 -7 -1.5 -13t-2.5 -9q-3 -13 -6 -22t-6.5 -19t-8.5 -23.5t-14 -36.5q-8 -20 -17 -47t-20 -64q-1 -2 -2.5 -3.5t-10.5 -1.5t-9 5zM350 469q1 9 2.5 31t3.5 46t4.5 45.5t4.5 29.5
q4 13 12.5 20t39.5 7q4 0 12.5 -2.5t8.5 -16.5q0 -7 -1 -13t-2 -9q-4 -13 -6.5 -22t-6 -19t-9 -23.5t-14.5 -36.5q-8 -19 -17 -46.5t-19 -64.5q-1 -2 -3 -3.5t-11 -1.5t-9 5z" />
    <glyph glyph-name="numbersign" unicode="#" horiz-adv-x="519" 
d="M416 447l111 1q11 0 11 -4q0 -2 -5 -18.5t-10 -27.5q-2 -7 -12 -7q-6 0 -22 0.5t-33.5 1t-32.5 1t-21 0.5q-3 -9 -8.5 -29t-11.5 -42.5t-11 -42t-7 -27.5q6 0 22.5 0.5t34.5 0.5t34 0.5t22 0.5q11 0 11 -5q0 -2 -5.5 -18t-9.5 -28q-2 -5 -4.5 -5.5t-8.5 -0.5t-21.5 0.5
t-33 0.5t-33.5 0.5t-23 0.5q-6 -23 -13 -50t-14 -53.5t-12.5 -50t-8.5 -40.5q-2 -5 -7 -7.5t-32 -2.5q-5 0 -5.5 2t-0.5 4t3 11.5t5 17.5q3 8 10 33t15 53l15 52.5t9 30.5h-128q-14 -50 -27.5 -103.5t-20.5 -90.5q-2 -5 -6.5 -7.5t-31.5 -2.5q-7 0 -7 5l2.5 8.5t5.5 19t6 20
t3 11.5q11 37 21 72t19 68h-24t-35 -0.5t-33 -0.5h-19q-8 0 -10 1t-2 3t2 8t4 13t4 13t3 8q5 11 13 11q7 0 23 -0.5t33.5 -1t33 -1t21.5 -0.5l5.5 19t12 43t12.5 47t8 32h-24.5h-32t-31.5 -0.5t-24 -0.5q-9 -1 -11 0.5t-2 3.5t2 8.5t4.5 14t5 13.5l2.5 6q3 7 5.5 8.5
t7.5 1.5q6 0 22 -0.5t34 -0.5t34 -0.5t22 -0.5q12 45 25 95.5t21 86.5q1 7 6 7q5 2 17 3t13 1q7 0 7 -5q0 -1 -7.5 -28t-17 -61t-17.5 -64t-10 -36h127q14 49 25 93t21 90q1 7 6 7q6 2 17.5 3t12.5 1q7 0 7 -6zM327 253q2 8 7.5 27.5t12 42t12 42.5t7.5 29h-128l-2 -8
t-3 -10.5t-5.5 -17.5t-8.5 -30q-10 -37 -13.5 -50.5t-6.5 -24.5h128z" />
    <glyph glyph-name="dollar" unicode="$" 
d="M326 692q1 4 2 5.5t6 2.5h18q5 1 5 -2t-2 -13l-15 -70q9 -2 18.5 -3.5t21.5 -4.5q11 -2 18.5 -5t12.5 -3q3 0 13 3.5t12 3.5q4 0 4 -5q0 -3 -1.5 -11t-3 -18.5t-3.5 -21.5t-3 -19q0 -3 -1 -12t-2 -19t-2 -18t-1 -9q-2 -5 -14 -5q-5 0 -8 1t-3 8q0 20 -1 36.5t-7 29.5
t-19 23t-37 16l-52 -238q26 -24 47.5 -45t37 -42.5t24.5 -44.5t9 -50q0 -32 -19.5 -71.5t-61.5 -64.5q-33 -19 -66.5 -22.5t-50.5 -3.5l-19 -98q-2 -5 -2.5 -6t-5.5 -1l-19 -1q-5 0 -4 8l23 100q-14 2 -27 3.5t-42 7.5l-36 8q-2 0 -9 -2t-10 -2q-5 0 -5 10q0 6 1.5 23
t3.5 38t4.5 42t4.5 34t4 15.5t10 2.5q11 0 13 -2.5t2 -12.5q0 -27 2.5 -49t11.5 -38.5t28 -27.5t52 -16l54 251q-33 30 -54.5 51.5t-34 40t-17.5 36t-5 38.5q0 34 12 64t35.5 52.5t58 35.5t80.5 12zM305 586q-42 -1 -64.5 -17t-33 -35.5t-12 -36.5t-1.5 -19q0 -30 16 -54
t49 -58zM209 34q41 1 64 16t34.5 34t14.5 37.5t3 25.5q0 40 -19 66.5t-46 54.5z" />
    <glyph glyph-name="percent" unicode="%" horiz-adv-x="741" 
d="M602 623q13 16 23 16q8 0 17 -6t9 -16q0 -12 -11 -26.5t-39 -31.5q-37 -45 -80 -101t-86.5 -115t-85 -115.5t-74.5 -103.5q-24 -33 -50.5 -70.5t-43.5 -63.5q-8 -11 -17 -11q-10 0 -19.5 8t-9.5 16q0 6 6 14t11 13q8 8 28.5 33.5t46 58t52 66t45.5 57.5q27 36 51 67.5
t48.5 64.5t51.5 70t60 82q-31 -12 -54.5 -18t-62.5 -6q-20 0 -30.5 2t-21.5 4q2 -40 -8.5 -81.5t-33 -75.5t-55.5 -55.5t-75 -21.5q-50 0 -82 33t-32 95q0 35 11 72t32.5 67.5t54.5 50.5t76 20q24 0 40.5 -6t28.5 -16t20 -21.5t14 -22.5q11 -5 28.5 -11t48.5 -6
q49 0 81.5 15t50.5 26zM144 388q0 -27 6.5 -43t15.5 -24.5t19 -11t17 -2.5q26 0 47 19t36 48.5t23.5 63.5t8.5 64q0 13 -1 21t-2 14q-16 14 -21.5 21t-10.5 21q-6 2 -11.5 3.5t-13.5 1.5q-26 0 -47 -20t-35.5 -49.5t-22.5 -63.5t-8 -63zM413 130q0 32 11 68t33 67t55 51
t77 20q21 0 41.5 -8t36 -23t25 -37.5t9.5 -52.5q0 -39 -12.5 -78.5t-35.5 -70.5t-54 -50.5t-69 -19.5q-24 0 -45.5 9.5t-37 27.5t-25 42.5t-9.5 54.5zM476 108q0 -45 19 -63.5t39 -18.5q33 0 55 25t36 59t20 68.5t6 52.5q0 40 -16 56.5t-42 16.5q-31 0 -53.5 -22.5
t-36.5 -54t-20.5 -65t-6.5 -54.5z" />
    <glyph glyph-name="ampersand" unicode="&#x26;" horiz-adv-x="907" 
d="M728 343q0 -63 -32.5 -126.5t-87.5 -114t-126.5 -82t-149.5 -31.5q-70 0 -121.5 22.5t-85.5 58t-50 80t-16 88.5t15.5 88.5t42.5 79.5t63.5 57t78.5 22q35 0 59 -19t20 -51q31 31 52 54t33.5 39.5t17.5 28.5t5 21q0 11 -4 22t-4 18q0 16 12 26t28 10q18 0 27 -13t9 -30
q0 -23 -13.5 -47t-48.5 -60t-96.5 -89t-156.5 -135q-22 -18 -37 -31.5t-40 -34.5q31 -69 86.5 -102t130.5 -33q74 0 138.5 29t112.5 73t75.5 96t27.5 98q0 26 -7.5 42t-18.5 24.5t-24.5 11.5t-25.5 3q-25 0 -47.5 -8t-39.5 -20t-27.5 -26.5t-10.5 -26.5t8 -15.5t20 -6.5
q13 -2 21 -11t8 -21q0 -14 -10.5 -27t-32.5 -13q-26 0 -39.5 21.5t-13.5 44.5q0 29 14.5 59.5t40.5 55.5t63.5 40.5t83.5 15.5q12 0 29 -1.5t39.5 -8t52 -19.5t66.5 -36q9 -6 23 -13.5t22 -7.5q7 0 12 4.5t5 24.5q0 16 -6 21t-22 12q-14 6 -16.5 15t-2.5 11q0 13 9 22t23 9
q15 0 23.5 -8t12.5 -19t4.5 -23t0.5 -21q0 -60 -8.5 -90.5t-34.5 -30.5q-8 0 -19.5 4.5t-35.5 19.5q-31 20 -63 37t-67 26q8 -11 17 -29.5t9 -53.5zM276 380q0 22 -15.5 32t-32.5 10q-23 0 -44.5 -12t-38 -33t-26 -50t-9.5 -63q0 -10 0.5 -16t3.5 -25q5 5 10.5 8.5t12.5 9.5
q20 17 47.5 40t47.5 40q29 25 36.5 36t7.5 23z" />
    <glyph glyph-name="quotesingle" unicode="'" horiz-adv-x="315" 
d="M192 469q1 9 3 31t4 46t4.5 45.5t4.5 29.5q3 13 12 20t39 7q5 0 13 -2.5t8 -16.5q0 -7 -1 -13t-2 -9q-3 -13 -6 -22t-6.5 -19t-8.5 -23.5t-14 -36.5q-8 -20 -17 -47t-20 -64q-1 -2 -3 -3.5t-10 -1.5q-9 0 -9 5z" />
    <glyph glyph-name="parenleft" unicode="(" horiz-adv-x="370" 
d="M399 684q3 0 9.5 -7t6.5 -9t-6.5 -8.5t-14.5 -14t-15.5 -14.5t-10.5 -10q-33 -33 -62.5 -71t-54.5 -76.5t-44 -76.5t-31 -73q-23 -65 -32 -129t-9 -113q0 -16 1.5 -46.5t8 -69.5t19.5 -82.5t36 -83.5q1 -2 5 -8t8 -13t7 -12t3 -6q0 -4 -7.5 -9t-9.5 -5q-3 0 -8 6
t-11 13.5t-11.5 15t-8.5 11.5q-47 70 -72 149.5t-25 164.5q0 93 24 172t60.5 143t78.5 113t78.5 82t61.5 50t26 17z" />
    <glyph glyph-name="parenright" unicode=")" horiz-adv-x="370" 
d="M-28 -253q-3 0 -9.5 7t-6.5 9t6.5 9t15.5 15.5t17 16t11 10.5q34 34 63.5 72t53.5 76.5t42.5 75.5t29.5 69q23 65 32 129t9 113q0 16 -1.5 46.5t-8 69.5t-19.5 82.5t-36 83.5q-1 2 -5 8t-8 13t-7 12t-3 6q0 4 7.5 9t9.5 5q3 0 8.5 -6t11.5 -13.5t11 -15t8 -11.5
q54 -81 75.5 -160t21.5 -154q0 -93 -24 -172t-60 -143t-78.5 -113t-79 -82t-61.5 -50t-26 -17z" />
    <glyph glyph-name="asterisk" unicode="*" 
d="M348 598q9 19 15 28.5t17 9.5q13 0 27 -12t14 -23q0 -7 -6 -13l-29 -29l-78 -77q9 1 30 3t44 4t43 3.5t27 1.5q8 0 18 -4t10 -25q0 -1 -0.5 -6.5t-2.5 -12t-6.5 -12t-13.5 -5.5q-2 0 -23.5 5.5t-48 13t-50 14t-28.5 7.5l11 -16t25 -35.5t26 -37t15 -21.5q11 -16 11 -24
q0 -14 -15 -22t-27 -8q-9 0 -14 4.5t-9 20.5q-3 11 -5.5 20.5t-6 23t-9 34.5t-14.5 56q-11 -23 -24 -50.5t-27 -59.5q-9 -20 -14.5 -28t-16.5 -8q-13 0 -27 11.5t-14 22.5q0 7 6 13l29 29l33 33l20 20t13.5 13t11.5 11q-10 -1 -31.5 -2.5t-38.5 -3.5q-42 -4 -55.5 -5
t-18.5 -1q-7 0 -17.5 3.5t-10.5 25.5q0 14 5.5 25t17.5 11q2 0 23.5 -5.5t48 -13t50 -13.5t28.5 -8q-5 7 -14.5 20t-20 28.5t-22 32t-21.5 29.5q-10 15 -10 25q0 14 15.5 22t26.5 8q10 0 14.5 -6t8.5 -20q5 -21 11 -43t11 -41t8.5 -33t4.5 -17z" />
    <glyph glyph-name="plus" unicode="+" 
d="M240 515q-1 4 1.5 4.5t11.5 0.5h26q7 0 7 -5l-1 -175h170q7 0 8.5 -0.5t1.5 -5.5v-32.5t-2 -6.5h-25.5h-57h-60h-35.5v-178q0 -2 -5 -2.5t-7 -0.5h-7.5t-11 0.5t-10 1t-4.5 1.5v178h-34h-60h-58h-26q-2 0 -2.5 11.5t-0.5 22.5q1 8 1.5 9.5t4.5 1.5h175v175z" />
    <glyph glyph-name="comma" unicode="," horiz-adv-x="222" 
d="M-81 -166q42 7 71.5 23.5t47.5 36.5t26.5 40.5t8.5 37.5q0 24 -9 33.5t-16 14.5q-23 14 -28.5 19.5t-5.5 16.5q0 8 4.5 16t11.5 14t14 10t13 4q11 0 23 -8t22 -22.5t16.5 -34t6.5 -43.5q0 -32 -11.5 -57.5t-28 -44t-36 -31.5t-36.5 -20q-16 -7 -41 -13.5t-39 -6.5
q-3 0 -5.5 2t-10.5 10z" />
    <glyph glyph-name="hyphen" unicode="-" horiz-adv-x="241" 
d="M23 209l11 55h193l-11 -55h-193z" />
    <glyph glyph-name="period" unicode="." horiz-adv-x="222" 
d="M74 91q8 0 17.5 -4.5t17 -12t12.5 -16.5t5 -17q0 -9 -5 -18t-13 -17t-17 -12.5t-18 -4.5q-18 0 -34.5 16.5t-16.5 34.5q0 9 5.5 18.5t13 16.5t17 11.5t16.5 4.5z" />
    <glyph glyph-name="slash" unicode="/" horiz-adv-x="407" 
d="M445 643q-122 -206 -240 -410.5t-236 -412.5h-41q16 28 28.5 50t32 55.5t50.5 87t84 143.5q71 122 140.5 243t139.5 244h42z" />
    <glyph glyph-name="zero" unicode="0" 
d="M326 643q30 0 57.5 -11.5t48.5 -36.5t33.5 -64t12.5 -95q0 -32 -6.5 -77.5t-20 -95.5t-35 -98.5t-52 -87.5t-70.5 -63t-90 -24q-31 0 -59.5 11.5t-50 36.5t-34 64t-12.5 94q0 38 6.5 85.5t21 97t36.5 97t52.5 85t71 60t90.5 22.5zM321 612q-34 0 -61.5 -27.5t-49 -71
t-37.5 -96t-26.5 -102.5t-15.5 -91.5t-5 -62.5q0 -25 3 -50t11.5 -45t24 -32.5t39.5 -12.5q27 0 48.5 16t37.5 37.5t25.5 42t12.5 29.5q12 29 24.5 70t23 85.5t17.5 90t7 83.5q0 23 -4 47t-13 44t-24 33t-38 13z" />
    <glyph glyph-name="one" unicode="1" 
d="M203 163q5 23 13 57t16 72.5t16.5 78t15.5 73t11 57t4 30.5q0 16 -16 16q-6 0 -16 -1.5t-35 -8.5q-20 -5 -28 -8.5t-13 -3.5q-4 0 -4 11q0 5 1 8t7 5q42 17 83.5 37t76.5 37q12 6 26 14t16 8q3 0 8 -5.5t5 -8.5t-3 -9.5t-5 -12.5q-7 -21 -18 -67.5t-24 -104.5
t-26.5 -120.5t-24 -115.5t-17.5 -89.5t-7 -43.5q0 -23 21.5 -33t61.5 -13q11 -1 15 -1.5t4 -4.5q0 -5 -2 -9q-1 -4 -3.5 -6.5t-7.5 -2.5q-9 0 -34.5 1.5t-89.5 1.5q-19 0 -46 -0.5t-52 -1t-44 -1t-24 -0.5t-9.5 0.5t-4.5 5.5t2 11.5t13 8.5q41 4 63.5 8.5t35.5 17.5
t20.5 39.5t18.5 73.5z" />
    <glyph glyph-name="two" unicode="2" 
d="M296 647q26 0 52.5 -7.5t47.5 -24.5t34.5 -45t13.5 -69q0 -40 -12.5 -74t-30.5 -62t-38.5 -49.5t-36.5 -36.5q-13 -12 -44 -38t-68.5 -57t-75.5 -62t-65 -53h73t74.5 0.5t63 1t36.5 1.5t17 3.5t16.5 9.5t17.5 19.5t20 34.5q5 10 12 8q13 -3 13 -7q0 -1 -2.5 -7t-5.5 -13
t-5.5 -13.5t-3.5 -9.5q-7 -18 -14.5 -42t-15.5 -46q-2 -7 -6.5 -9t-18.5 -2q-41 0 -91 2t-116 2q-57 0 -89.5 -2t-42.5 -2q-8 0 -12.5 8.5t-4.5 13.5t6 11.5t11 11.5q48 47 92 89.5t80.5 79t64.5 65.5t44 49q40 48 58.5 85.5t18.5 77.5q0 28 -9 47t-23 30t-31 16t-34 5
q-20 0 -43.5 -7t-45.5 -21q-25 -17 -38 -35t-23 -35h-12v24q1 11 2.5 15t10.5 18q21 31 44.5 50.5t46.5 31t46 15.5t42 4z" />
    <glyph glyph-name="three" unicode="3" 
d="M135 516v26q2 6 3.5 9l3.5 7q13 17 30.5 32.5t38.5 27.5t44.5 19t48.5 7q31 0 53.5 -10t37.5 -26t22 -36t7 -40q0 -32 -14.5 -57t-37.5 -45t-51.5 -36t-57.5 -30q20 0 46.5 -3.5t52.5 -26.5t34 -53.5t8 -52.5q0 -53 -24.5 -97t-63.5 -75.5t-87.5 -49t-96.5 -17.5
q-49 0 -77 20.5t-28 40.5q0 17 15.5 29t26.5 12q6 0 10 -3t12 -12q17 -20 42 -30.5t54 -10.5q39 0 65 19.5t41.5 47t22 57t6.5 48.5q0 16 -4.5 34.5t-16 35t-32 27.5t-52.5 11q-29 0 -40.5 -6t-19.5 -6q-5 0 -7 7t-2 10q0 5 6 7q41 21 75 40.5t59 40.5t39 45.5t14 55.5
q0 32 -19.5 56t-60.5 24q-26 0 -56.5 -16t-59.5 -57h-10z" />
    <glyph glyph-name="four" unicode="4" 
d="M359 173l-32 -169q0 -5 -7 -5l-69 -5q-5 -1 -4 5l37 175l-189 -1q-18 0 -36.5 -1t-35.5 -1q-8 0 -8 5q0 2 1 8t2.5 12.5t3.5 12.5t4 9q0 1 25 27.5t63 67t83 88.5t86 92t72 77t40 43q2 2 6.5 7t9.5 10.5t9 9.5t5 4q3 0 14 -9q6 -4 11 -8t5 -6t-2 -9t-4 -16
q-20 -85 -39.5 -177t-40.5 -192l89 3q8 0 5 -7l-3 -7l-18 -39q-2 -4 -19 -4h-64zM295 227q3 14 5.5 25t6 26.5t8.5 39t13 62.5t13 62.5t8 39t5.5 27t5.5 25.5q-60 -69 -101.5 -115t-72.5 -79.5t-56.5 -59.5t-52.5 -53h218z" />
    <glyph glyph-name="five" unicode="5" 
d="M180 472q-4 -6 -4 -11t14 -12q17 -8 50 -27t68 -45q33 -26 52 -51t28 -46.5t11 -40t2 -30.5q0 -45 -19 -84.5t-51 -69.5t-74.5 -47.5t-89.5 -17.5q-34 0 -59.5 8.5t-42.5 21t-25 28t-8 29.5q0 20 12.5 30.5t27.5 10.5q14 0 19 -6.5t10 -15.5q14 -28 41.5 -42t59.5 -14
q55 0 89 37.5t34 97.5q0 21 -5 43.5t-22.5 47.5t-51.5 53.5t-93 61.5q-11 5 -24 11.5t-13 9.5t1.5 7t3.5 8l96 204q3 6 6.5 11t8.5 5l160 -1q28 0 39.5 0.5t18.5 4.5q3 2 5.5 4t6.5 2h11q5 0 3 -5t-4 -11l-18 -48q-5 -12 -9 -18.5t-18 -8.5t-31.5 -2.5t-54.5 0.5l-117 2z
" />
    <glyph glyph-name="six" unicode="6" 
d="M432 610q-13 0 -36.5 -8t-51.5 -26t-58.5 -47.5t-56.5 -72.5q-19 -31 -35.5 -67.5t-29 -75.5t-20 -79t-7.5 -79q0 -7 1.5 -29t9 -44.5t23.5 -40.5t46 -18q32 0 58.5 20.5t45.5 52.5t29.5 70.5t10.5 73.5q0 15 -4 33t-14 33.5t-26 26t-39 10.5q-29 0 -50.5 -10t-34.5 -18
h-5l-1 14q0 4 12.5 14t32 20t43.5 18t46 8q51 0 86 -37.5t35 -99.5q0 -46 -16.5 -93t-47.5 -85t-75.5 -61.5t-99.5 -23.5q-40 0 -68 14.5t-45.5 39t-25 56t-7.5 65.5q0 29 6.5 71.5t23.5 92t46.5 101.5t75.5 99q38 39 78 63.5t75.5 38.5t62.5 19t38 5q13 0 17.5 -9.5
t4.5 -20.5q0 -10 -6 -12t-16 -2h-31z" />
    <glyph glyph-name="seven" unicode="7" 
d="M514 632q5 0 10 -0.5t7 -2.5t3 -5q3 -5 3 -9q0 -2 -5 -9.5t-10 -15.5q-3 -4 -27.5 -39.5t-60.5 -87.5t-78 -113t-80.5 -116t-67 -96.5t-37.5 -54.5q-10 -15 -17 -25t-12.5 -19t-12 -19.5t-16.5 -27.5q-4 -7 -7.5 -11t-12.5 -4q-14 0 -24 10t-10 18q0 4 2 8.5t9 13.5
q16 19 26 31t19 23t19 24.5t26 36.5q46 65 92 128.5t93 128.5q30 42 48 67t29 40.5t18 25t14 19.5q-95 1 -149 1t-82 -0.5t-37.5 -2.5t-15.5 -5q-14 -7 -22 -20.5t-21 -41.5q-1 -2 -3 -5t-5 -3q-1 0 -8.5 2.5t-7.5 7.5q0 1 2 8t5 15.5t5.5 17t3.5 11.5q2 5 5.5 18t7 27
t7.5 26.5t5 17.5q2 5 5 6t11 1h354z" />
    <glyph glyph-name="eight" unicode="8" 
d="M307 338l13.5 -13.5l20 -20t20 -19.5t12.5 -13q19 -20 32 -47.5t13 -62.5q0 -30 -12 -61t-37.5 -55.5t-64.5 -40.5t-93 -16q-47 0 -80 12t-54 32t-30.5 46.5t-9.5 54.5q0 47 21.5 80.5t50.5 56t60 36.5t50 21q-20 19 -36.5 36t-28 34t-18 36t-6.5 43q0 34 14 64t39.5 53
t60 36.5t74.5 13.5q36 0 63.5 -10.5t46 -28t28 -41t9.5 -49.5q0 -40 -17 -69t-41.5 -50t-51.5 -35t-48 -23zM289 355q12 7 29.5 19t33.5 31t27 45t11 62q0 18 -4 36t-13.5 32.5t-25 23.5t-37.5 9q-25 0 -44.5 -11.5t-33 -28.5t-21 -38t-7.5 -40q0 -42 23.5 -72t61.5 -68z
M237 309q-14 -6 -31.5 -16t-36.5 -29q-29 -29 -42 -65t-13 -66q0 -47 28 -80t76 -33q26 0 48.5 10t39 27.5t26 40.5t9.5 48q0 18 -4.5 34.5t-16 35.5t-31.5 41.5t-52 51.5z" />
    <glyph glyph-name="nine" unicode="9" 
d="M341 325l1 -13q0 -6 -12 -16t-31 -19.5t-43.5 -17t-49.5 -7.5q-27 0 -49 11t-37.5 29.5t-23.5 43t-8 52.5q0 45 16 90.5t46.5 82t74.5 60t99 23.5q67 0 106.5 -44t39.5 -131q0 -42 -12.5 -100.5t-41.5 -120.5t-76.5 -119.5t-118.5 -97.5q-30 -17 -57 -27t-48.5 -15
t-35 -6.5t-15.5 -1.5q-12 0 -18 9t-6 19q0 11 8 13t13 2q19 0 32 0.5t24 2.5t22 6.5t26 12.5q54 29 96 81t71 113.5t44 124.5t15 114q0 41 -8 67t-20.5 40.5t-26.5 20t-26 5.5q-32 0 -58.5 -21t-45 -52.5t-29 -68t-10.5 -67.5q0 -28 7.5 -48t19 -33t26 -19.5t28.5 -6.5
q8 0 32.5 4.5t55.5 24.5h4z" />
    <glyph glyph-name="colon" unicode=":" horiz-adv-x="222" 
d="M74 91q8 0 17 -4.5t17 -11.5t13 -16.5t5 -18.5t-5 -18t-13 -16.5t-17.5 -12t-17.5 -4.5q-18 0 -34.5 17t-16.5 34q0 9 5.5 18.5t13 16.5t17 11.5t16.5 4.5zM144 420q8 0 17 -4.5t17 -11.5t13 -16.5t5 -18.5t-5 -18t-13 -16.5t-17.5 -12t-17.5 -4.5q-17 0 -34 16.5
t-17 34.5q0 9 5.5 18t13 16.5t17 12t16.5 4.5z" />
    <glyph glyph-name="semicolon" unicode=";" horiz-adv-x="222" 
d="M-81 -166q42 7 71.5 23.5t47.5 36.5t26.5 40.5t8.5 37.5q0 24 -9 33.5t-16 14.5q-23 14 -28.5 19.5t-5.5 16.5q0 8 4.5 16t11.5 14t14 10t13 4q11 0 23 -8t22 -22.5t16.5 -34t6.5 -43.5q0 -32 -11.5 -57.5t-28.5 -44t-36.5 -31.5t-35.5 -20t-41 -13.5t-39 -6.5
q-3 0 -5.5 2t-10.5 10zM135 420q9 0 18 -4.5t16.5 -12t12.5 -16.5t5 -17q0 -9 -5 -18t-13 -16.5t-17 -12.5t-18 -5q-17 0 -34 16.5t-17 34.5q0 9 5.5 18.5t13 16.5t17 11.5t16.5 4.5z" />
    <glyph glyph-name="less" unicode="&#x3c;" 
d="M410 514l-256 -167l256 -171v-77l-335 223v5l335 216v-29z" />
    <glyph glyph-name="equal" unicode="=" 
d="M457 399q8 0 8 -11v-24q0 -11 -8 -11h-390q-8 0 -8 11v24q0 11 8 11h390zM457 281q8 0 8 -11v-24q0 -11 -8 -11h-390q-8 0 -8 11v24q0 11 8 11h390z" />
    <glyph glyph-name="greater" unicode="&#x3e;" 
d="M117 128l256 167l-256 171v77l335 -223v-5l-335 -216v29z" />
    <glyph glyph-name="question" unicode="?" horiz-adv-x="407" 
d="M253 160l-9 -11q-3 -4 -5 -4.5t-4 -0.5q-3 0 -21 3.5t-38 11.5q-21 9 -41 27t-20 47q0 41 35.5 74t99.5 79q21 15 41 30t35.5 30.5t25 31.5t9.5 33q0 28 -27.5 50t-72.5 22q-14 0 -32.5 -3t-39.5 -14q-14 -6 -18 -7.5t-9 -1.5q-15 0 -23 15.5t-8 25.5q0 11 9.5 19.5
t23.5 14.5t30 9t29 3q36 0 69.5 -14t60 -37t42 -52.5t15.5 -59.5q0 -25 -9.5 -46t-27.5 -39.5t-43.5 -37.5t-57.5 -42q-38 -27 -67 -52.5t-29 -48.5q0 -14 9 -23.5t21.5 -15.5t25.5 -9t20 -5zM149 91q9 0 18 -5.5t16 -13t11.5 -16t4.5 -15.5q0 -10 -5 -19t-12.5 -16.5
t-16.5 -12t-17 -4.5q-9 0 -18 5.5t-16.5 13.5t-12 16.5t-4.5 15.5t5 16t12.5 16.5t16.5 13t18 5.5z" />
    <glyph glyph-name="at" unicode="@" horiz-adv-x="778" 
d="M490 644q49 0 97.5 -13.5t87.5 -41t63 -70.5t24 -103q0 -64 -25.5 -114.5t-64 -86t-84 -54t-85.5 -18.5q-28 0 -46 8t-18 33q0 8 4.5 22t10 28t11 26t6.5 15l6 14q-15 -23 -34 -48t-33 -39q-26 -28 -52 -43.5t-52 -15.5q-22 0 -39.5 14.5t-17.5 43.5q0 37 24.5 81t65 85
t93.5 73.5t111 47.5q4 8 10.5 16t23.5 8q9 0 16.5 -3t7.5 -12q0 -3 -7.5 -23t-19 -50t-25 -65t-25 -67t-19 -57t-7.5 -35q0 -5 3 -11.5t22 -6.5q38 0 69.5 20t54.5 52.5t35.5 73.5t12.5 83q0 47 -16 84t-44.5 62t-67 38t-84.5 13q-70 0 -131.5 -28.5t-107.5 -78
t-72.5 -115.5t-26.5 -140q0 -68 24.5 -111.5t61.5 -69t81 -35.5t84 -10q33 0 68 5.5t61 13.5q13 4 26 9t15 5t5 -6t3 -13q0 -2 -14.5 -9.5t-40 -15t-61 -13.5t-78.5 -6q-64 0 -121 15.5t-99.5 47t-67 79.5t-24.5 114q0 87 35.5 160.5t94.5 126t135 82t157 29.5zM489 425
q-26 0 -56.5 -18t-56.5 -46t-43 -61t-17 -63q0 -20 8 -25.5t18 -5.5q19 0 47.5 23.5t55 55.5t45.5 65.5t19 53.5q0 5 -2.5 13t-17.5 8z" />
    <glyph glyph-name="A" unicode="A" horiz-adv-x="630" 
d="M212 231q-9 -15 -23 -41t-27.5 -53.5t-23.5 -51.5t-10 -36q0 -17 18 -20.5t50 -5.5q2 0 4 -1.5t2 -8.5q0 -15 -12 -15q-20 0 -46 1.5t-59 1.5q-35 0 -59 -1.5t-35 -1.5q-5 0 -8.5 1t-3.5 6q0 12 5.5 14.5t15.5 4.5q13 2 23.5 8t22.5 20.5t28 39t40 61.5
q56 89 103.5 165.5t84.5 137.5t62 104.5t35 65.5q3 6 13 9l35 9q5 1 6.5 -5.5t5.5 -35.5q3 -18 9 -62t14.5 -101t17.5 -119.5t18 -117t15.5 -94t10.5 -50.5q4 -13 8.5 -20t10.5 -10.5t14.5 -4.5t21.5 -2q8 -1 8 -12q0 -8 -5 -10t-9 -2q-20 0 -42.5 1.5t-62.5 1.5
q-45 0 -71 -1.5t-43 -1.5q-5 0 -9.5 1t-4.5 6q0 19 14 20q22 2 36.5 3.5t23.5 5.5t13 12.5t4 23.5q0 9 -2 30.5t-5 46.5t-6 48t-5 36h-221zM428 265q-4 29 -8.5 64.5t-9.5 73t-10 73.5t-9 64q-18 -31 -42 -72t-47 -81t-42 -73t-28 -49h196z" />
    <glyph glyph-name="B" unicode="B" horiz-adv-x="574" 
d="M369 343q12 -1 27.5 -3t32 -7.5t33 -15.5t30.5 -27q20 -23 25 -48.5t5 -39.5q0 -35 -13.5 -70.5t-39.5 -63.5q-35 -38 -83.5 -54t-125.5 -16q-8 0 -29.5 0.5t-46 1t-46 1t-29.5 0.5q-7 0 -23.5 -0.5t-34.5 -1t-33 -1t-19 -0.5q-5 0 -9 1t-4 6q0 11 4.5 14t22.5 5
q23 3 36 8t22 18t15.5 36t16.5 63q14 57 29.5 125.5t29 130.5t22.5 108t9 58q0 26 -17 32.5t-52 6.5q-11 0 -11 6q0 5 2 12t9 7q3 0 11.5 -0.5t18 -0.5t18 -0.5t11.5 -0.5q12 0 39.5 1t58.5 2t58 2t37 1q51 0 82.5 -13t49 -32t23.5 -40.5t6 -38.5q0 -8 -2 -23t-10 -33
t-23 -38t-42 -38q-17 -12 -37.5 -20.5t-53.5 -19.5zM225 349q55 0 89 2.5t63 17.5q30 15 54 52t24 90q0 55 -30.5 78t-80.5 23q-21 0 -33 -1t-18 -3.5t-8 -6t-4 -8.5zM219 323q-4 -16 -12.5 -54t-17 -79.5t-15 -77.5t-6.5 -49q0 -19 13 -28t61 -9q46 0 82 13.5t61 37
t38.5 55t13.5 68.5q0 9 -2 24.5t-10 32t-23.5 32t-42.5 24.5t-60 10.5t-80 -0.5z" />
    <glyph glyph-name="C" unicode="C" horiz-adv-x="611" 
d="M624 583q-8 -35 -12.5 -61.5t-6.5 -39.5q0 -9 -3 -11t-7 -2q-10 0 -12.5 2.5t-2.5 9.5q0 22 -1 39.5t-8 31.5q-4 8 -15 18t-29 19t-43.5 15t-57.5 6q-64 0 -115.5 -27.5t-87.5 -74t-55.5 -106t-19.5 -124.5q0 -64 17.5 -112t47 -80.5t68.5 -49t82 -16.5q6 0 27 1.5
t47.5 11.5t53.5 30.5t46 57.5q4 7 6.5 14.5t8.5 7.5q2 0 9 -2.5t7 -6.5q0 -2 -2 -7t-5 -13q-3 -7 -7 -19t-8 -25.5t-7.5 -26t-5.5 -19.5q-2 -6 -5.5 -9t-14.5 -5q-30 -8 -67 -14.5t-85 -6.5q-88 0 -145.5 27.5t-91.5 69.5t-47.5 93t-13.5 99q0 81 28.5 148t78.5 115.5
t118.5 75.5t148.5 27q27 0 56.5 -3t54.5 -6t41.5 -6t19.5 -3q2 0 8 2.5t8 2.5q3 0 7 -1.5t4 -5.5z" />
    <glyph glyph-name="D" unicode="D" horiz-adv-x="704" 
d="M682 376q0 -28 -6.5 -66.5t-23 -80.5t-45.5 -83t-74 -74q-36 -26 -76 -41t-77 -22.5t-69.5 -9t-53.5 -1.5q-27 0 -68 1.5t-96 1.5q-30 0 -54.5 -1.5t-41.5 -1.5q-9 0 -9 7q0 13 5 15t13 2q26 1 41 7t25.5 22.5t19 45.5t20.5 76q6 23 15 59.5t19 79t20 86.5t18 81t13 63
t5 32q0 25 -21 30t-48 6q-11 1 -15 1.5t-4 4.5q0 6 2 10q1 4 3 7t7 3q26 0 52.5 -1.5t58.5 -1.5t65 1.5t62 1.5q42 0 73.5 -3t56.5 -9t46 -16t41 -24q33 -23 52.5 -51t30.5 -56.5t14.5 -54.5t3.5 -46zM365 606q-27 0 -42.5 -4.5t-24.5 -15t-14.5 -27t-11.5 -41.5
q-14 -57 -31 -127.5t-32 -135.5t-25.5 -116t-10.5 -68q0 -24 18 -33t61 -9q100 0 166 35t105.5 86.5t55.5 111.5t16 110q0 44 -11.5 86t-38.5 75t-71 53t-109 20z" />
    <glyph glyph-name="E" unicode="E" horiz-adv-x="574" 
d="M416 265q-4 26 -20 35t-48 11q-14 1 -47 1.5t-73 0.5q-8 -38 -16 -77t-14.5 -73t-10.5 -59t-4 -35q0 -18 12.5 -26.5t50.5 -8.5h69t42 1t26 3.5t22 6.5q23 8 39.5 22t27.5 29.5t17.5 29.5t9.5 22q4 11 6.5 12.5t4.5 1.5q4 0 10.5 -2.5t6.5 -7.5t-8 -29t-18 -51t-20 -49
t-14 -24q-2 0 -3 -0.5t-3 -0.5q-9 0 -31 0.5t-46.5 0.5t-46 0.5t-29.5 0.5l-91 1q-12 0 -41.5 -0.5t-62.5 -1t-61.5 -1t-39.5 -0.5q-13 0 -15.5 1.5t-2.5 6.5q0 11 5 13.5t23 4.5q25 3 39.5 9.5t23 17.5t13.5 26t9 34q7 29 17 72.5t20.5 92t21 97.5t19 89.5t13.5 69t5 34.5
q0 22 -15 31.5t-47 12.5q-19 2 -23 2.5t-4 4.5q0 2 1.5 9.5t9.5 7.5q56 0 110 -1t100 -1q41 0 82.5 0.5t76 0.5t58.5 0.5t29 0.5q11 0 11 -9q0 -2 -3 -11t-6.5 -20t-7 -21t-4.5 -14t-4.5 -15t-6.5 -23t-6 -22t-4 -14q-2 -5 -3 -7t-6 -2q-10 0 -11.5 2.5t-1.5 5.5q0 2 0.5 8
t0.5 13.5t0.5 14.5t0.5 10q0 22 -7 36t-26.5 22.5t-54 12t-90.5 3.5h-12t-18.5 -0.5t-17 -1t-9.5 -1.5q-2 -2 -3.5 -7.5t-6.5 -23.5q-13 -56 -25.5 -112t-24.5 -113q59 0 94 0.5t54.5 3t29 7t18.5 12.5q8 8 12.5 15.5t17.5 32.5q3 6 8 6t9.5 -1t4.5 -6q0 -1 -3 -11.5
t-6.5 -23.5t-6.5 -25t-4 -15q-5 -19 -8 -32t-6 -24.5t-5.5 -24.5t-5.5 -31q-1 -9 -8 -9q-11 0 -13 3t-2 6z" />
    <glyph glyph-name="F" unicode="F" horiz-adv-x="519" 
d="M231 337q66 -1 105.5 0t62.5 7.5t35 20.5t23 40q3 6 5 7t6 1q3 0 8 -2t5 -4q0 -1 -2.5 -10.5t-5.5 -20.5t-5.5 -21t-3.5 -13q-3 -11 -5 -19.5t-5 -21.5t-7 -32t-10 -51q-2 -5 -3.5 -7.5t-6.5 -2.5q-10 0 -11.5 3t-1.5 8q0 32 -3 49t-21 24.5t-56.5 9t-109.5 1.5
q-3 -13 -10 -46t-14 -69.5t-12.5 -68t-5.5 -42.5q0 -31 24 -41.5t71 -13.5q11 -1 13.5 -2t2.5 -5q0 -5 -2 -11t-8 -6q-16 0 -31.5 0.5t-33.5 1t-42 1t-57 0.5q-39 0 -70 -1.5t-49 -1.5q-8 0 -8 7q0 12 4 14.5t16 4.5q27 4 42.5 9.5t25.5 19t18 39t18 68.5q3 14 10.5 46
t17 74t19.5 87.5t18 86t13.5 70t5.5 38.5q0 29 -18.5 36.5t-44.5 11.5q-15 2 -19 3.5t-4 6.5q0 4 1.5 9t8.5 5q71 0 141 -1t141 -1q44 0 86.5 1t86.5 1q5 0 7.5 -1t2.5 -6q0 -1 -3.5 -12.5t-8 -25.5t-8.5 -27t-5 -18q-1 -2 -3 -9t-4 -16.5t-4.5 -19t-4.5 -17.5
q-1 -5 -4 -5.5t-8 -0.5t-7 1.5t-2 9.5v10v15v15v10q0 20 -6 32t-21 18.5t-40 8.5t-64 2h-20t-34 -0.5t-32.5 -2t-17.5 -3.5t-6.5 -12t-6.5 -23t-6 -25t-4 -17q-4 -18 -9 -42.5t-10.5 -49.5t-10.5 -48t-8 -38z" />
    <glyph glyph-name="G" unicode="G" horiz-adv-x="667" 
d="M63 277q0 61 21 126t68 118.5t122 88t183 34.5q21 0 47 -3t49.5 -6.5t40.5 -6.5t20 -3t11 3.5t12 3.5q8 0 8 -6q0 -3 -3 -14.5t-4 -15.5q-8 -42 -11.5 -76t-3.5 -39q0 -11 -8 -11q-12 0 -14.5 2.5t-2.5 8.5q0 25 -2 40.5t-5 24.5t-7 13l-7 7q-8 7 -24 15t-37.5 15
t-46.5 11.5t-51 4.5q-73 0 -125 -34t-84.5 -85t-47.5 -109.5t-15 -106.5q0 -49 15.5 -96t45.5 -83.5t73.5 -58.5t98.5 -22q36 0 57.5 8t33 20.5t16.5 29t9 34.5q2 11 5.5 27.5t6.5 34.5t5.5 34t2.5 25q0 8 -2 14.5t-10.5 11t-25 7.5t-45.5 4q-11 1 -13.5 3t-2.5 6q0 6 2 12
t8 6q38 0 77.5 -1.5t60.5 -1.5q29 0 52 1.5t32 1.5q5 0 6.5 -4t1.5 -8q0 -10 -22 -14q-15 -3 -23 -8.5t-13.5 -15t-8.5 -25t-8 -38.5q-7 -40 -11.5 -64t-7 -40t-3.5 -26.5t-1 -24.5q-1 -10 -6 -12.5t-28 -6.5q-25 -4 -45.5 -7.5t-39 -6t-36 -3.5t-37.5 -1q-90 0 -148.5 27.5
t-93 69.5t-48 93t-13.5 98z" />
    <glyph glyph-name="H" unicode="H" horiz-adv-x="741" 
d="M567 353q3 13 10.5 46t15 69.5t13 67.5t5.5 39q0 24 -16.5 29.5t-53.5 7.5q-10 1 -12 2t-2 4q0 7 2 12t9 5t37 -1.5t87 -1.5q48 0 76.5 1.5t46.5 1.5q7 0 7 -7q0 -11 -5.5 -13.5t-11.5 -2.5q-24 -1 -39.5 -5.5t-25.5 -15.5t-17 -29.5t-13 -47.5q-4 -19 -12.5 -56
t-18 -82.5t-20 -95t-18.5 -93.5t-13.5 -77.5t-5.5 -46.5q0 -19 11.5 -28.5t46.5 -11.5q17 -2 20.5 -2.5t3.5 -4.5q0 -18 -14 -18q-26 0 -55 1.5t-80 1.5q-27 0 -45 -0.5t-30 -1t-20 -1t-15 -0.5q-12 0 -12 6q0 13 6 15t14 3q24 1 40 5t27 16t18.5 34t14.5 58q4 20 7.5 38
t7.5 38t9.5 45t12.5 58h-338q-3 -16 -11.5 -52.5t-16.5 -76t-14.5 -73t-6.5 -43.5q0 -26 16 -35.5t58 -12.5q5 0 8.5 -1t3.5 -6q0 -12 -5 -14t-12 -2t-14 0.5t-19 1t-31 1t-51 0.5q-45 0 -71 -1.5t-50 -1.5q-14 0 -14 6q0 14 5 16t13 2q27 0 42.5 6t25.5 20t16.5 37t14.5 58
q21 94 37 170t26.5 131.5t16 88.5t5.5 40q0 26 -19.5 32t-47.5 8q-8 1 -10.5 1.5t-2.5 5.5q0 11 4.5 13t8.5 2q8 0 23.5 -0.5t34 -1l37 -1t33.5 -0.5q23 0 55 1.5t55 1.5q10 0 10 -7q0 -11 -4.5 -13.5t-12.5 -2.5q-21 0 -35 -4.5t-22.5 -10.5t-12.5 -12.5t-7 -11.5
q-3 -6 -10.5 -37t-15.5 -68t-15 -70.5t-9 -44.5h336z" />
    <glyph glyph-name="I" unicode="I" horiz-adv-x="333" 
d="M262 482q-11 -48 -28 -127t-39 -190q-8 -39 -11.5 -61.5t-3.5 -37.5q0 -24 17.5 -31.5t44.5 -10.5q18 -2 22.5 -3t4.5 -6q0 -3 -1.5 -10t-10.5 -7q-34 0 -67 1.5t-70 1.5q-33 0 -55 -0.5t-36.5 -1t-23 -1t-14.5 -0.5q-3 0 -7 1t-4 6q0 11 6 13.5t30 4.5q26 2 41.5 8
t26 21.5t18.5 45t19 79.5q2 9 8.5 38t14.5 68.5t17.5 84.5t17 85.5t12.5 71.5t5 43q0 26 -15 33.5t-42 10.5q-16 2 -19 2.5t-3 4.5q0 11 3.5 13.5t7.5 2.5q7 0 31 -1.5t78 -1.5q45 0 78 1.5t64 1.5q2 0 5 -1t3 -6q0 -11 -6 -13.5t-29 -4.5t-36.5 -7t-22 -18.5t-15.5 -38
t-16 -64.5z" />
    <glyph glyph-name="J" unicode="J" horiz-adv-x="315" 
d="M-3 -146q13 0 24 5.5t21 20t19 38.5t19 62q6 23 17 73t23.5 112t26 129.5t24 125.5t17.5 99.5t7 51.5q0 14 -6.5 22t-17 11.5t-22.5 5t-24 1.5q-16 1 -20 2t-4 6q0 4 2 10t8 6t36 -1.5t101 -1.5q56 0 83 1.5t38 1.5q9 0 12.5 -0.5t3.5 -5.5q0 -13 -6 -15.5t-10 -2.5
q-27 -2 -44 -7t-27.5 -13.5t-16 -21.5t-9.5 -31q-3 -13 -12 -56.5t-21 -101t-25 -120.5t-22 -114q-9 -48 -17.5 -89.5t-21.5 -77t-33.5 -66.5t-52.5 -58q-37 -32 -72 -43t-60 -11q-32 0 -49 15t-17 29q0 9 5 16.5t12 12.5t15 7.5t13 2.5q8 0 13.5 -2.5t16.5 -9.5
q28 -18 53 -18z" />
    <glyph glyph-name="K" unicode="K" horiz-adv-x="630" 
d="M216 297q-3 -14 -10 -49t-14.5 -73t-13 -69.5t-5.5 -39.5q0 -13 4 -21t13.5 -12.5t25 -7t38.5 -5.5q10 -1 10 -6t-2.5 -10.5t-9.5 -5.5q-16 0 -38 1.5t-54 1.5q-52 0 -93.5 -1.5t-58.5 -1.5q-8 0 -11 0.5t-3 5.5q0 11 5 13.5t33 5.5q18 3 29.5 9t19 18.5t12.5 32t12 48.5
q4 15 12 50.5t18 79.5t19.5 89t16.5 79q2 10 6 31.5t8.5 45t7.5 42.5t3 25q0 25 -18 30t-55 8q-3 0 -6 1.5t-3 4.5q0 4 2 10t7 6q11 0 42 -1t76 -1q14 0 33 0.5t37 0.5t32 0.5t17 0.5q6 0 7 -2t1 -6q0 -10 -6 -12t-29 -4q-30 -2 -40.5 -15.5t-15.5 -24.5q-2 -6 -9.5 -40
t-16.5 -74t-17 -75.5t-11 -46.5q6 5 12 9.5t15.5 12t25 19.5t41.5 32q107 83 158 125.5t51 61.5q0 11 -11.5 13t-32.5 4q-12 1 -15 2t-3 6t2.5 10t8.5 5q10 0 27.5 -1t64.5 -1q14 0 30.5 0.5t32 0.5t29 0.5t19.5 0.5q7 0 7 -8q0 -7 -8 -10t-22 -8q-7 -3 -16.5 -7.5
t-23.5 -13t-33.5 -22t-47.5 -34.5l-220 -165q20 -33 43 -70t47 -74.5t47.5 -73t44.5 -66.5q18 -26 37.5 -42t52.5 -18q7 0 8.5 -2t1.5 -5q0 -12 -4 -14t-9 -2q-29 0 -57.5 1.5t-57.5 1.5q-25 0 -50 -1.5t-50 -1.5q-9 0 -12.5 1t-3.5 6q0 11 4 12.5t13 2.5q22 2 37 5.5
t15 17.5q0 8 -5.5 18.5t-10.5 18.5q-24 36 -38 58t-28.5 45t-34 54.5t-52.5 86.5z" />
    <glyph glyph-name="L" unicode="L" horiz-adv-x="518" 
d="M119 160q3 14 10 47.5t16.5 76.5t19 90t18 87.5t13.5 70t5 36.5q0 20 -13.5 31t-63.5 12q-2 0 -6 1t-4 6q0 4 1.5 10.5t8.5 6.5q8 0 26.5 -0.5t39 -1t39 -1t25.5 -0.5h20t32 0.5t36.5 1t33.5 1.5q2 0 4 -1.5t2 -4.5q0 -11 -6 -14t-23 -5q-24 -3 -37.5 -7.5t-23 -21.5
t-18 -52t-22.5 -100q-4 -17 -10.5 -48.5t-14.5 -69.5t-16 -78t-15 -74t-11 -58.5t-4 -30.5q0 -26 21.5 -30.5t75.5 -4.5q35 0 64.5 2.5t53.5 11.5t43.5 26.5t34.5 47.5q5 11 10.5 27.5t12.5 16.5q5 0 11 -4q4 -3 4 -7q0 -8 -7.5 -31.5t-17 -49t-18 -46t-10.5 -23.5
q-3 -5 -9.5 -6t-14.5 -1q-6 0 -29.5 0.5t-55 1t-66 1t-63.5 0.5q-27 0 -59 -0.5t-61 -1.5t-51.5 -1.5t-32.5 -0.5q-21 0 -21 6q0 12 4 14.5t11 2.5q29 2 45.5 7t27 19.5t18 41t17.5 71.5z" />
    <glyph glyph-name="M" unicode="M" horiz-adv-x="833" 
d="M94 137q31 109 59 217t54 217q-10 27 -31.5 32t-52.5 7q-3 0 -6.5 0.5t-3.5 5.5t2.5 11.5t9.5 6.5q25 0 49.5 -0.5t49.5 -0.5q16 0 32 0.5t32 0.5q8 0 12 -1.5t4 -10.5q0 -19 4 -47.5t9.5 -59.5t11.5 -61.5t11 -53.5q14 -64 22 -103t13.5 -67t10 -51t10.5 -55
q15 22 41 64t57.5 93t64.5 105t60.5 100.5t47 80t23.5 43.5q4 9 6.5 15t4.5 8t15 2q14 0 29.5 -0.5t31.5 -0.5q38 0 57.5 0.5t24.5 0.5t8 -0.5t3 -5.5q0 -12 -5.5 -14.5t-17.5 -3.5q-21 -2 -34.5 -7.5t-23 -16t-15 -27t-9.5 -41.5q-7 -41 -12 -67t-9.5 -50t-10 -51.5
l-14.5 -72.5q-3 -15 -9 -46t-11.5 -64t-10 -62t-4.5 -40q0 -15 6 -23.5t16.5 -13t24 -6t28.5 -1.5q5 0 7.5 -1.5t2.5 -7.5q0 -11 -3 -13t-7 -2q-10 0 -38 1.5t-61 1.5q-23 0 -47.5 -0.5t-45 -1t-35 -1t-19.5 -0.5q-4 0 -8 1t-4 7q0 11 5 14t25 6q23 3 36.5 9t22 19
t14.5 36.5t14 60.5q19 88 38.5 190.5t37.5 201.5q-78 -124 -153 -246t-147 -250q-6 -11 -11.5 -20.5t-7.5 -12.5t-15.5 -6.5t-15.5 -3.5q-3 0 -4 4t-3 20q-10 65 -21 128.5t-25 127.5q-10 46 -16.5 74.5t-12 54t-11.5 54.5t-15 74q-3 -13 -12 -51t-20 -88t-23.5 -105.5
t-22.5 -104t-16.5 -84t-6.5 -44.5q0 -6 1 -13t8.5 -13.5t23 -10.5t44.5 -4q8 0 12.5 -1t4.5 -6q0 -6 -2 -12t-6 -6q-16 0 -50.5 1.5t-69.5 1.5q-34 0 -62 -1.5t-46 -1.5q-11 0 -11 6q0 12 4.5 14.5t9.5 2.5q25 2 40 8t25 19.5t17 35t16 53.5z" />
    <glyph glyph-name="N" unicode="N" horiz-adv-x="722" 
d="M111 150q23 82 47 185.5t52 229.5q-16 25 -30.5 34t-46.5 11q-15 1 -19 1.5t-4 5.5q0 12 6.5 15t11.5 3q8 0 31 -0.5t46 -0.5q17 0 30 0.5t23 0.5q5 0 9 -1t9 -9q1 -1 13.5 -25.5t29 -54.5t32 -58.5t21.5 -39.5q52 -95 83 -151.5t49.5 -90.5t28.5 -53t19 -39
q12 56 26.5 125t26.5 134t20.5 117t8.5 75q0 10 -2 18t-10.5 14.5t-24 10t-42.5 4.5q-8 0 -12.5 1t-4.5 6q0 6 3 11.5t8 5.5q7 0 23.5 -0.5t35 -1t35 -1t22.5 -0.5q17 0 37 0.5t38.5 1t33.5 1t21 0.5q4 0 6.5 -0.5t2.5 -5.5q0 -12 -6.5 -14.5t-32.5 -5.5q-23 -2 -36.5 -8.5
t-23.5 -23t-18 -44.5t-19 -73q-4 -18 -12 -51t-17 -72.5t-18.5 -82t-17.5 -79.5t-14 -64t-7 -36q-4 -23 -7.5 -45t-1.5 -29q1 -8 -16 -12q-18 -5 -24 -5.5t-8 4.5q-9 26 -29 68t-47 92.5t-57.5 104.5t-59 105t-53.5 94.5t-40 71.5q-20 -87 -38.5 -172.5t-37.5 -172.5
q-2 -10 -5 -24.5t-6 -30t-5 -29.5t-2 -22q0 -34 21.5 -41.5t63.5 -10.5q14 -2 16 -2.5t2 -4.5q0 -12 -4 -14t-8 -2q-5 0 -12.5 0.5t-21 1t-35 1t-54.5 0.5q-44 0 -76 -1.5t-50 -1.5q-3 0 -5.5 0.5t-2.5 5.5q0 11 4 14t20 5q29 4 45.5 11t27.5 21t18.5 37t16.5 58z" />
    <glyph glyph-name="O" unicode="O" horiz-adv-x="685" 
d="M422 644q44 0 87 -14.5t77.5 -46t56 -81.5t21.5 -121q0 -78 -27 -149t-74.5 -125t-113.5 -86t-144 -32q-71 0 -118 26t-74.5 65t-39 85.5t-11.5 87.5q0 77 27.5 147.5t75.5 124.5t114 86.5t143 32.5zM410 610q-58 0 -106 -31.5t-82.5 -83t-53.5 -118t-19 -136.5
q0 -64 16.5 -106.5t42 -67t55 -34.5t56.5 -10q60 0 108.5 34t82 87t52 117.5t18.5 126.5q0 24 -5 61.5t-22.5 73t-51.5 61.5t-91 26z" />
    <glyph glyph-name="P" unicode="P" horiz-adv-x="555" 
d="M573 486q0 -12 -2.5 -33.5t-11.5 -46.5t-26 -51t-46.5 -47.5t-72 -35t-103.5 -13.5q-27 0 -51 2.5t-44 5.5q-1 -8 -5 -27.5t-8.5 -41t-8 -40.5t-4.5 -27q-3 -20 -7 -39t-4 -28q0 -27 24 -34t67 -9q5 0 7.5 -1.5t2.5 -7.5q0 -10 -4.5 -12t-9.5 -2q-4 0 -11.5 0.5t-23.5 1
t-41.5 1t-65.5 0.5q-44 0 -73 -1.5t-49 -1.5q-7 0 -8.5 2t-1.5 4q0 12 4 14t8 2q30 2 48 7.5t28 17t15.5 28.5t11.5 42q4 15 12 52.5t18.5 85t22 100t21 98.5t15.5 79t6 42q0 25 -17.5 30t-58.5 9q-8 1 -10 1.5t-2 5.5q0 6 2.5 11t10.5 5h18.5t31 -0.5t35 -0.5h30.5
q16 0 36.5 0.5t42 1.5t40.5 1.5t32 0.5q15 0 45 -2.5t60 -16.5t52.5 -44.5t22.5 -87.5zM220 290q15 -1 28.5 -1.5t30.5 -0.5q64 0 104 15.5t65 47.5q23 32 33 72.5t10 66.5q0 45 -19 70t-45 36t-54.5 13t-46.5 2q-23 0 -28.5 -4t-9.5 -16q-2 -7 -10.5 -43.5t-19 -83t-21 -95
t-17.5 -79.5z" />
    <glyph glyph-name="Q" unicode="Q" horiz-adv-x="685" 
d="M667 377q0 -24 -5 -61t-21 -80t-46.5 -88.5t-82.5 -87.5q-29 -24 -59 -42t-63 -33t-69 -28.5t-78 -28.5q9 -2 15.5 -4t14.5 -4t18.5 -5.5l28.5 -9.5q60 -20 100 -33t67.5 -20.5t47.5 -10.5t39 -3q42 0 66 12t50 30q3 2 7 2q3 0 3 -9q0 -7 -5 -13q-29 -34 -77 -55t-95 -21
q-50 0 -100.5 15.5t-116.5 39.5q-63 23 -97 31.5t-57 10.5q-16 -6 -25 -8.5t-17 -2.5q-9 0 -22.5 3t-13.5 22q0 13 10.5 21.5t25.5 13.5t31 6.5t27 1.5q10 0 19.5 -0.5t18.5 -1.5q71 25 107 44.5t57 32.5q-14 -3 -23.5 -5.5t-19.5 -4.5t-21 -3t-26 -1q-47 0 -86.5 17t-68 49
t-44.5 79t-16 108q0 79 28 150t76 125t113 85.5t139 31.5q51 0 95.5 -16t78 -49t53 -83.5t19.5 -118.5zM410 610q-49 0 -95.5 -27t-83 -76t-58.5 -117t-22 -150q0 -96 42 -154t130 -58q66 0 114.5 35.5t80.5 89.5t48 117t16 118q0 27 -5.5 65t-23.5 73t-52 59.5t-91 24.5z
" />
    <glyph glyph-name="R" unicode="R" horiz-adv-x="611" 
d="M561 496q0 -76 -46.5 -124t-120.5 -68q6 -15 17 -44.5t26.5 -63t34.5 -67t39 -57.5q14 -16 37 -33t58 -17l20 1q4 0 4 -5t-1.5 -10t-6.5 -7q-8 -3 -27 -5t-38 -2q-34 0 -63.5 12.5t-57 45t-56.5 90t-62 147.5q-28 -1 -47 -0.5t-49 3.5q-19 -90 -30.5 -149t-11.5 -77
q0 -29 24.5 -36t61.5 -10q7 -1 9.5 -1.5t2.5 -5.5q0 -10 -3 -12.5t-8 -2.5q-18 0 -56 1.5t-92 1.5q-44 0 -70 -1.5t-48 -1.5q-10 0 -10 8q0 9 3.5 11t11.5 4q27 4 43.5 8t27 13t17 27t14.5 50q7 27 16 69t19.5 89.5t21 96.5t19 90.5t13.5 70.5t5 37q0 20 -14.5 27.5
t-47.5 10.5q-18 2 -22 2.5t-4 5.5t2 11.5t8 6.5q7 0 25 -2t53 -2q9 0 33.5 0.5t52 1.5t52 1.5t34.5 0.5q20 0 51.5 -2t61.5 -15.5t52 -41.5t22 -81zM228 324q10 -2 23.5 -4.5t42.5 -2.5q51 0 82 10.5t51 31.5q26 26 38 63t12 69t-15 62.5t-44 44.5q-10 5 -23 7.5t-25 4
t-22 1.5h-14q-9 0 -19.5 -0.5t-15.5 -3.5q-6 -3 -11 -21t-8 -29q-2 -8 -9 -40t-15.5 -70.5t-16.5 -73.5t-11 -49z" />
    <glyph glyph-name="S" unicode="S" 
d="M422 164q0 -26 -10.5 -56.5t-35 -57t-65.5 -44t-102 -17.5q-32 0 -64 4t-52 9q-21 5 -28.5 6t-12.5 1q-4 0 -7 -0.5t-5 -0.5q-3 0 -4 3.5t-1 6.5q0 12 1.5 31.5l3 39t3.5 36t3 24.5q4 22 6 27t10 5q10 0 13 -2.5t3 -11.5v-33t1 -19.5t2 -13t4 -12.5q6 -17 21.5 -29.5
t34.5 -20.5t38 -11.5t34 -3.5q30 0 54 10t41 27t26.5 39t9.5 45q0 21 -6 37.5t-20.5 35t-39.5 41.5t-64 57q-20 18 -38 35.5t-31 36t-20.5 40t-7.5 47.5q0 17 7.5 45t29.5 56t62 48t105 20q18 0 36 -2t34 -5t28 -5t18 -2q5 0 11.5 0.5t9.5 0.5q5 0 6 -3t1 -5t-1.5 -11.5
t-3.5 -21t-4 -21.5t-3 -13q-1 -4 -2 -13t-2.5 -19t-2.5 -19t-1 -12q-1 -7 -9 -7q-13 0 -15 5t-2 25q0 39 -11 53.5t-28 22.5q-26 13 -48.5 15.5t-30.5 2.5q-29 0 -49.5 -10.5t-34 -27t-20 -36t-6.5 -36.5q0 -18 5 -33.5t18.5 -33.5t36 -40.5t57.5 -52.5q25 -21 46 -40.5
t36 -40t23.5 -43.5t8.5 -52z" />
    <glyph glyph-name="T" unicode="T" horiz-adv-x="574" 
d="M410 595q-5 -21 -14.5 -66t-21.5 -100t-24.5 -115t-22.5 -111.5t-16.5 -89t-6.5 -48.5q0 -26 20.5 -33.5t50.5 -9.5q17 -2 21 -3t4 -5q0 -6 -3 -11t-9 -5q-14 0 -27.5 0.5t-31 1t-40 1t-53.5 0.5q-41 0 -73.5 -1.5t-42.5 -1.5t-10 7q0 11 6 13t36 5q20 2 32.5 6.5
t20.5 15t14 28t12 45.5l12 57t18 85t21 99t21 99t17.5 83.5t11.5 53.5q-67 0 -109 -1.5t-67.5 -8.5t-39.5 -22.5t-26 -43.5q-3 -8 -7.5 -19.5t-8.5 -11.5q-19 0 -19 9q0 7 4 24.5t9.5 37.5t11 39t8.5 29q2 7 4 11.5t7 4.5t16.5 -4t40.5 -4q20 0 52 -0.5t65 -1t62.5 -0.5
h43.5t53.5 0.5t82.5 0.5t78 0.5t40 0.5q4 0 14.5 3.5t13.5 3.5q9 0 9 -7q0 -4 -4.5 -21.5t-10.5 -38.5t-11.5 -39t-7.5 -23q-3 -8 -7 -17.5t-9 -9.5q-4 0 -9.5 2t-5.5 8q0 8 1 18t1 23q0 32 -12 42t-29 12q-15 2 -35 2.5t-41.5 1t-42 0.5h-37.5z" />
    <glyph glyph-name="U" unicode="U" horiz-adv-x="667" 
d="M324 40q60 0 97 18.5t59.5 48t34 66t19.5 72.5q10 42 20 92.5t18.5 96.5t13.5 81t5 46q0 25 -17 34.5t-61 13.5q-7 2 -10 3t-3 6q0 16 16 16q13 0 42.5 -1t67.5 -1q17 0 34 0.5t31.5 0.5t25 0.5t14.5 0.5q6 0 9.5 -1t3.5 -6q0 -8 -4.5 -12t-30.5 -8q-18 -3 -29 -9
t-18.5 -19t-13.5 -34t-14 -54q-8 -36 -17.5 -73.5t-20.5 -93.5q-18 -88 -34.5 -144t-45.5 -95q-41 -55 -101 -75.5t-122 -20.5q-70 0 -111 19.5t-62 46t-27 53t-6 39.5q0 17 5.5 50.5t14.5 75t18.5 87t18.5 86.5t14.5 73.5t5.5 47.5q0 26 -14.5 32t-46.5 11q-14 2 -16 3.5
t-2 3.5q0 5 2 11t9 6q6 0 21 -0.5t32 -0.5t31.5 -0.5t20.5 -0.5q18 0 40.5 0.5t43.5 0.5t37 0.5t20 0.5q10 0 10 -7q0 -11 -4.5 -13.5t-22.5 -5.5q-25 -4 -39.5 -9.5t-23.5 -17t-15 -32t-14 -55.5q-9 -39 -19 -82.5t-18.5 -82t-14.5 -67t-8 -37.5q-3 -17 -5.5 -31.5
t-2.5 -32.5q0 -39 16 -63t40 -36.5t51.5 -17t51.5 -4.5z" />
    <glyph glyph-name="V" unicode="V" horiz-adv-x="574" 
d="M273 113q65 112 112 193.5t77.5 137t45 87t14.5 44.5q0 23 -22.5 28.5t-51.5 7.5q-5 1 -8 1.5t-3 4.5q0 12 4.5 15t9.5 3q6 0 19.5 -0.5t29 -1t29.5 -1t19 -0.5q7 0 23.5 0.5t35 1t34.5 1t22 0.5q9 0 9 -6q0 -13 -6 -15.5t-12 -4.5q-15 -3 -25 -7t-21 -17t-27.5 -38.5
t-45.5 -70.5q-5 -8 -24 -38t-45.5 -72.5t-56.5 -92.5t-58.5 -98t-52.5 -89.5t-36 -66.5q-2 -5 -5.5 -10.5t-6.5 -6.5q-7 -2 -17.5 -6t-15.5 -4t-6 4.5t-3 22.5q-3 21 -9 63.5t-13.5 95.5t-15.5 110.5t-15.5 108t-13.5 88.5t-9 52q-4 19 -7.5 32.5t-10.5 22.5t-19.5 13.5
t-33.5 5.5q-11 0 -11 8q0 12 5 14t8 2q8 0 26 -0.5t38.5 -1t38 -1t24.5 -0.5q11 0 29 0.5t35.5 1t31.5 1t16 0.5q3 0 6.5 -0.5t3.5 -5.5q0 -13 -4.5 -15.5t-8.5 -2.5q-24 -3 -40 -5.5t-26 -7.5t-14.5 -15t-4.5 -27q0 -9 5.5 -55t14 -111t19 -139t20.5 -138z" />
    <glyph glyph-name="W" unicode="W" horiz-adv-x="833" 
d="M389 502q-6 33 -10 51t-6.5 27.5t-4 13t-2.5 5.5q-5 8 -10.5 9.5t-22.5 3.5q-9 1 -9 9q0 11 4.5 12.5t10.5 1.5q49 0 100 -1.5t95 -1.5q14 0 35.5 0.5t43.5 1t40 1t26 0.5q11 0 11 -7q0 -10 -4.5 -12.5t-17.5 -5.5q-8 -2 -16 -7t-17.5 -15.5t-22.5 -28.5t-32 -46
l-91 -146q5 -30 11.5 -65.5t13 -71.5t12.5 -70t11 -61q13 23 41 73.5t62 112t69 125.5t61 113q6 11 14 28.5t8 30.5q0 17 -13 21t-46 7q-10 0 -10 6q0 19 11 19q7 0 23.5 -0.5t34.5 -1t34 -1t22 -0.5q5 0 16.5 0.5t24.5 1t24.5 1t15.5 0.5q10 0 10 -6q0 -14 -6.5 -16.5
t-12.5 -3.5q-18 -2 -30 -8t-25.5 -21t-30 -41t-43.5 -70q-6 -10 -25 -42t-45.5 -76t-56.5 -95.5t-58 -99.5t-51 -88.5t-35 -62.5q-2 -6 -7 -7q-4 -1 -15.5 -3.5t-13.5 -2.5q-3 0 -4 13q-5 35 -11.5 74.5t-13.5 78.5t-13 74t-11 60q-22 -35 -41.5 -68t-39.5 -66.5t-41 -70
t-45 -79.5q-4 -7 -6 -8.5t-9 -3.5t-12.5 -2.5t-10.5 -1.5q-3 0 -4 6t-2 11t-9 50t-21.5 117t-31.5 163t-39 188q-6 26 -9.5 41t-8 23t-11 11t-18.5 5q-20 2 -25 4t-5 7t1.5 11t9.5 6q6 0 21.5 -0.5t32 -1t31 -1t20.5 -0.5t20.5 0.5t30 1t29.5 1t19 0.5q2 0 5.5 -1t3.5 -5
q0 -7 -2.5 -12.5t-8.5 -6.5q-26 -4 -42.5 -10.5t-16.5 -33.5q0 -4 5 -36.5t13.5 -80.5t18 -104t18.5 -107.5t15.5 -91t9.5 -53.5q16 25 37 60t41.5 69.5t38.5 65t27 46.5zM477 410q10 15 25.5 40.5t30.5 52t26 49.5t11 33q0 16 -16.5 20t-41.5 4q-10 0 -21 -0.5t-19.5 -4.5
t-14 -11.5t-5.5 -21.5q0 -5 1.5 -16t4 -26t5 -31.5t5.5 -32.5z" />
    <glyph glyph-name="X" unicode="X" horiz-adv-x="611" 
d="M309 291q-24 -25 -49 -52t-48 -53.5t-43 -50t-34 -41.5q-12 -15 -17 -24.5t-5 -17.5q0 -14 14 -23t60 -9q13 0 13 -8q0 -10 -4 -12t-9 -2q-7 0 -21 0.5t-30.5 1t-34.5 1t-34 0.5q-45 0 -66.5 -1.5t-40.5 -1.5q-9 0 -9 8q0 10 4 12.5t20 6.5q14 3 33 16t38.5 29.5
t38.5 34.5t34 32q9 9 29 29.5t45 46t52 53.5t50 52q-6 16 -21.5 53t-32.5 77.5t-32 75t-20 45.5q-6 13 -12 20.5t-14 12t-19.5 6.5t-28.5 5q-6 0 -6 6q0 12 3 14t9 2q32 0 64 -1.5t64 -1.5q26 0 52.5 1.5t52.5 1.5q3 0 6 -0.5t3 -5.5q0 -13 -5 -15t-10 -3q-33 -2 -53 -7
t-20 -29q0 -10 11.5 -42.5t26 -67.5t27 -64t13.5 -33q33 35 66.5 71.5t79.5 92.5q10 11 20 26.5t10 27.5q0 11 -12.5 19t-52.5 8q-6 0 -10 1t-4 7q0 4 2 9t8 5q32 0 62.5 -1.5t62.5 -1.5q21 0 42 1.5t42 1.5q3 0 6.5 -1t3.5 -8q0 -10 -3.5 -12t-18.5 -7q-14 -3 -28 -12
t-43 -35q-17 -15 -29 -26.5t-32.5 -32t-57 -57.5t-101.5 -104q15 -36 31 -74.5t32 -74t29.5 -66t23.5 -49.5q14 -29 32 -41t47 -14q8 -1 10 -1.5t2 -5.5q0 -12 -4 -14t-8 -2q-20 0 -46 1.5t-61 1.5q-28 0 -66 -1.5t-74 -1.5q-9 0 -13 1t-4 6q0 15 12 15q45 3 65 8t20 28
q0 9 -4.5 23.5t-15.5 46.5q-4 10 -13 33.5t-19.5 50t-20 49.5t-12.5 32z" />
    <glyph glyph-name="Y" unicode="Y" horiz-adv-x="555" 
d="M320 341q5 6 18 20.5t27.5 30t27.5 29.5t18 20q12 14 26 29.5t27 31t24.5 29.5t18.5 24q11 14 14.5 21t3.5 13q0 15 -20.5 18.5t-51.5 5.5q-5 0 -8 1t-3 6q0 4 2 9.5t9 5.5q6 0 21 -0.5t32 -1t31.5 -1t20.5 -0.5t20.5 0.5t30.5 1t30 1t19 0.5q7 0 7 -6q0 -11 -4 -14
t-18 -7q-21 -6 -50.5 -29.5t-67 -60.5t-82 -86t-95.5 -105q-16 -19 -20 -28t-7 -25q-7 -34 -13.5 -66.5t-12 -60.5t-9 -48.5t-3.5 -31.5q0 -31 22.5 -37.5t58.5 -8.5q9 0 11 -1t2 -7q0 -11 -4.5 -13t-8.5 -2q-29 0 -59.5 1t-50.5 1q-15 0 -38 -0.5t-46 -0.5t-42 -0.5
t-26 -0.5q-9 0 -9 9q0 10 4.5 12t20.5 3q28 2 44 6.5t26 18.5t17 40.5t17 71.5q8 36 14 60t9.5 39.5t5 24t1.5 13.5q0 12 -12 44.5t-29.5 72.5t-37 80t-33.5 67q-9 17 -17 27t-17 15t-19.5 7t-24.5 3q-7 0 -7 8q0 15 13 15q6 0 20.5 -0.5t31 -1t31 -1t20.5 -0.5
q17 0 38.5 0.5t41 1t34.5 1t20 0.5q11 0 11 -8q0 -12 -5.5 -14t-11.5 -2q-34 -2 -53.5 -6.5t-19.5 -26.5q0 -10 13 -42.5t29.5 -71l31.5 -73.5t20 -50z" />
    <glyph glyph-name="Z" unicode="Z" horiz-adv-x="574" 
d="M93 28q3 0 24 0.5t52 1t67.5 1.5t71 3.5t62.5 5.5t42 8q15 5 28.5 16.5t25 26.5t21 31.5t15.5 31.5q5 10 7.5 13t5.5 3q18 0 18 -10q0 -8 -7 -29t-16.5 -45.5t-19 -48t-14.5 -35.5q-4 -10 -9 -10q-4 0 -12.5 2.5t-19.5 2.5q-5 0 -14 0.5t-27 1t-48.5 1t-78.5 0.5
q-106 0 -169 -1t-95 -1q-18 0 -18 7q0 13 7 21q3 2 24.5 27t55 64.5t76 89.5t87 102t87.5 103t77.5 91.5t57 67.5t26.5 32q-18 0 -50.5 -1t-68.5 -2.5t-70.5 -3.5t-57.5 -5q-20 -2 -34 -7t-25.5 -15.5t-22.5 -29.5t-25 -50q-5 -9 -6 -10.5t-4 -1.5q-7 0 -13 2.5t-6 8.5
q0 3 5.5 21t12.5 39.5t13.5 41l8.5 25.5t4 11t3 9q4 9 9 9q3 0 5.5 -1.5t7.5 -3.5t14.5 -3.5t25.5 -1.5h81h106.5h101.5h66h27q4 -1 4 -6q0 -12 -8 -23q-84 -95 -166 -190.5t-164 -192.5z" />
    <glyph glyph-name="bracketleft" unicode="[" horiz-adv-x="370" 
d="M191 -246q-16 1 -33.5 1h-33.5q-14 0 -35.5 -0.5t-39.5 -1.5q-3 0 -12.5 -1t-12.5 -1q-2 0 -5 1t-3 3q0 1 1.5 7.5t3.5 15.5t4.5 19l4.5 18q13 59 29 132t32.5 152t33.5 160.5t32.5 157t28.5 142t22 114.5q2 8 4 11t10 3t14 -0.5t14 -1.5t17 -1.5t26 -0.5h42t29 0.5
t22 1.5t22 2q10 0 10 -5q0 -17 -6 -19.5t-14 -2.5q-5 0 -23 -0.5t-39 -2t-38.5 -3.5t-20.5 -4q-10 -6 -17 -44q-3 -14 -9 -43.5t-14 -66t-16.5 -76.5t-16.5 -76t-14 -64.5t-9 -41.5q-13 -64 -28.5 -140t-28.5 -142.5t-22 -112t-9 -48.5q0 -9 6 -11t20 -3q31 -2 52.5 -2h35.5
q13 0 15.5 -0.5t2.5 -4.5q0 -8 -2 -14.5t-9 -6.5z" />
    <glyph glyph-name="backslash" unicode="\" horiz-adv-x="407" 
d="M189 643q7 -51 13 -92.5t13.5 -92.5t18.5 -121.5t28 -180.5q14 -92 23 -147t14 -89t8.5 -55t6.5 -45h-41q-22 159 -46 316.5t-49 316.5l-31 190h42z" />
    <glyph glyph-name="bracketright" unicode="]" horiz-adv-x="370" 
d="M267 574q0 3 2.5 13.5t4.5 22.5t4 22t2 11q0 9 -6 11t-20 3q-52 3 -88 3q-14 0 -16.5 0.5t-2.5 3.5q0 8 2.5 15t9.5 7q5 0 17 -0.5t26.5 -1t28.5 -1t22 -0.5q35 0 61.5 2.5t34.5 2.5q7 0 7 -5l-13 -60q-15 -68 -33 -150t-36 -167.5t-35.5 -169.5t-32 -155.5t-25.5 -126.5
t-16 -83q-2 -14 -4 -17t-10 -3q-7 0 -25.5 2t-46.5 2q-47 0 -75 -1.5t-39 -1.5q-10 0 -10 4q0 17 6 19.5t13 2.5t25.5 0.5t39 2t37.5 3.5t20 4q7 5 10 16.5t6 27.5q3 15 10.5 50t16 74t16 73.5t10.5 47.5q38 177 62 298t40 199z" />
    <glyph glyph-name="asciicircum" unicode="^" horiz-adv-x="556" 
d="M528 273l-197 301l-201 -301h-90l262 394h6l254 -394h-34z" />
    <glyph glyph-name="underscore" unicode="_" horiz-adv-x="500" 
d="M500 -75v-50h-500v50h500z" />
    <glyph glyph-name="grave" unicode="`" horiz-adv-x="500" 
d="M335 522l4 -7q0 -3 -7 -4t-8 -1q-4 0 -10 6l-114 106q-11 9 -14.5 13.5t-3.5 11.5q0 9 7 12t18 6q24 6 34 6q7 0 10.5 -4.5t8.5 -12.5z" />
    <glyph glyph-name="a" unicode="a" horiz-adv-x="463" 
d="M438 185q8 -6 9.5 -8t1.5 -4q0 -6 -14.5 -35.5t-37.5 -62.5t-51.5 -59.5t-57.5 -26.5q-18 0 -28 11t-10 26t5.5 37t13 46t15.5 47t14 38q-45 -70 -79.5 -110.5t-60 -61.5t-45 -27t-34.5 -6q-32 0 -51 21.5t-19 53.5q0 45 27.5 99.5t75 106t111.5 92.5t137 59
q5 12 10.5 21.5t21.5 9.5q11 0 19.5 -2.5t8.5 -12.5q0 -2 -7.5 -26.5t-19 -60t-25 -78t-25 -80.5t-19 -67t-7.5 -37q0 -5 2.5 -11t13.5 -6q17 0 43 26t58 89zM292 350q-30 0 -67 -23t-69 -58t-54 -77.5t-22 -81.5q0 -31 13 -41t27 -10q23 0 57.5 28.5t67 69t55.5 86t23 78.5
q0 11 -3.5 17t-9 8.5t-10.5 3t-8 0.5z" />
    <glyph glyph-name="b" unicode="b" horiz-adv-x="463" 
d="M124 223q31 59 62 98.5t61 64.5t57.5 35.5t52.5 10.5q24 0 40.5 -8t27 -21t15 -29.5t4.5 -34.5q0 -61 -31.5 -123.5t-79 -113t-104.5 -82t-108 -31.5q-38 0 -60 22t-22 58q0 11 1.5 23t5 30t10 44l16.5 66q4 17 13.5 57.5t20.5 86.5t20.5 89t13.5 64q2 8 4.5 21t5 27
t4 26t1.5 19q0 20 -12 26.5t-40 14.5q-5 2 -5.5 3t-0.5 9q0 5 2 6t12 3q24 5 47 8.5t41.5 6.5t30.5 4.5t14 1.5q3 0 6 -1t3 -6q0 -2 -4 -15.5t-8.5 -30t-9 -32t-5.5 -21.5q-6 -20 -17.5 -65t-25 -94.5t-25 -94.5t-17.5 -65q-5 -18 -8 -28.5t-9 -28.5zM323 373
q-33 0 -71 -28.5t-70.5 -71t-54 -90.5t-21.5 -87q0 -20 6 -32t14 -18.5t17.5 -8.5t16.5 -2q37 0 74 32t67 77t48.5 94t18.5 83q0 18 -5.5 28.5t-13 16t-15 6.5t-11.5 1z" />
    <glyph glyph-name="c" unicode="c" horiz-adv-x="352" 
d="M289 137q8 -8 10 -11t2 -5t-12 -23t-33.5 -45t-51.5 -44t-66 -20q-20 0 -39.5 7.5t-35.5 24.5t-25.5 43.5t-9.5 63.5q0 46 16.5 99.5t47.5 99t74.5 75.5t97.5 30q13 0 29.5 -2.5t31.5 -8.5t25 -15.5t10 -23.5q0 -13 -6 -25.5t-28 -12.5q-12 0 -23.5 8.5t-23.5 18.5
t-23 18.5t-22 8.5q-28 0 -52.5 -27.5t-43 -66.5t-29 -81.5t-10.5 -73.5q0 -18 4 -37t16 -35q8 -11 21 -19t31 -8q23 0 55 19.5t61 67.5h2z" />
    <glyph glyph-name="d" unicode="d" horiz-adv-x="463" 
d="M444 162v-19q0 -9 -3.5 -21t-23.5 -41q-30 -45 -58 -69.5t-57 -24.5q-12 0 -22.5 7.5t-10.5 26.5q0 8 5 31t9 41q2 9 7.5 31t11 46t10.5 45.5t7 29.5q-29 -60 -59.5 -112.5t-81.5 -99.5q-26 -24 -46.5 -34.5t-41.5 -10.5q-38 0 -58.5 31t-20.5 78t22 104.5t58.5 107.5
t83 84.5t95.5 34.5q31 0 47 -8.5t25 -16.5q8 37 15 74t12.5 68.5t8.5 53t3 27.5q0 9 -6.5 18.5t-39.5 9.5q-11 0 -15 1t-4 7q0 12 5 15t14 5q5 1 24.5 5.5t41.5 9t40 8t21 3.5q11 0 11 -9q0 -2 -5.5 -24t-12.5 -49t-13.5 -52.5t-8.5 -35.5l-16 -72t-21.5 -96.5t-22.5 -104
t-20.5 -96.5t-15 -73.5t-5.5 -34.5t6 -5q9 0 21.5 10t26.5 25.5t27.5 34t23.5 36.5h7zM269 395q-34 0 -67 -31.5t-59.5 -75.5t-43 -91.5t-16.5 -79.5q0 -10 1.5 -21.5t6 -21.5t12 -16.5t19.5 -6.5q11 0 25.5 8.5t28.5 20t26 24t19 20.5q18 21 36.5 49.5t34 58t25 56.5
t9.5 44q0 20 -5.5 32.5t-14 19t-18.5 9t-19 2.5z" />
    <glyph glyph-name="e" unicode="e" horiz-adv-x="370" 
d="M312 120q5 -8 6.5 -9.5t1.5 -3.5q0 -3 -15 -22t-40 -40t-58.5 -38.5t-71.5 -17.5q-32 0 -52.5 13t-32.5 32.5t-16.5 43t-4.5 45.5q0 54 17 109t47.5 99.5t73.5 72.5t94 28q44 0 71.5 -22t27.5 -58q0 -24 -11 -44.5t-28 -36.5t-38.5 -27t-42.5 -17q-35 -11 -65 -13.5
t-67 -4.5q-3 -17 -5 -29.5t-2 -28.5q0 -6 1 -23t8 -34.5t22.5 -31t43.5 -13.5q9 0 23 2t31 9.5t37 21.5t42 38h3zM112 227q30 3 63 10.5t65 29.5q23 16 38 40.5t15 48.5q0 21 -13.5 33.5t-36.5 12.5q-9 0 -26 -5.5t-36 -23.5t-37.5 -52.5t-31.5 -93.5z" />
    <glyph glyph-name="f" unicode="f" horiz-adv-x="259" 
d="M136 143q-15 -82 -25.5 -136.5t-21.5 -92.5t-25.5 -65t-36.5 -55q-3 -3 -11.5 -13.5t-23 -21.5t-33.5 -19.5t-42 -8.5q-28 0 -43 10t-15 26q0 14 12.5 25t21.5 11q7 0 13 -4.5t13 -9.5t15.5 -9.5t20.5 -4.5q9 0 17.5 4t16.5 15t15.5 30t14.5 50q3 14 9.5 48.5t13 72.5
t12 72t7.5 47l46 255h-48q-7 0 -10.5 1t-1.5 6l3 17q1 3 5.5 5.5t21.5 4.5l38 5q2 6 5.5 19t7.5 27.5t7.5 27t4.5 17.5q18 59 47.5 98.5t62 63t63.5 33t52 9.5q38 0 63.5 -16.5t25.5 -44.5q0 -13 -5.5 -20t-12.5 -10.5t-14 -4t-11 -0.5q-13 0 -18 7t-10 16q-4 8 -13.5 19.5
t-38.5 11.5q-34 0 -57.5 -21.5t-40 -56.5t-27.5 -80t-22 -92h120q5 0 7 -1.5t0 -11.5l-6 -24q-1 -5 -5.5 -5.5t-13.5 -0.5h-110z" />
    <glyph glyph-name="g" unicode="g" horiz-adv-x="389" 
d="M388 -114q0 -29 -25.5 -63.5t-84.5 -58.5q-51 -21 -97 -27t-74 -6q-86 0 -130.5 28t-44.5 69q0 30 22.5 53.5t55.5 41.5t70 30.5t66 20.5q-24 11 -47 28t-23 43q0 17 11.5 32.5t40.5 35.5q-25 5 -40.5 17.5t-24 29t-11.5 35t-3 35.5q0 44 12.5 81t33.5 64.5t47.5 43
t54.5 15.5q23 0 33.5 -3.5t27.5 -4.5q19 -1 41 -2.5t43 -3t39 -3t28 -3.5q11 -2 16.5 -5.5t5.5 -12.5q0 -13 -6.5 -24t-18.5 -9l-90 11q5 -11 9 -24t4 -37q0 -34 -11.5 -68.5t-33 -63t-52.5 -48t-69 -22.5q-8 -5 -20 -14t-12 -25q0 -8 4.5 -14t16.5 -13.5t34 -17.5t58 -26
q31 -14 57.5 -26t45.5 -25.5t30 -29t11 -34.5zM268 344q0 10 -2 20.5t-7.5 19.5t-14 15t-21.5 6q-22 0 -43 -21t-37.5 -52.5t-27 -68t-10.5 -67.5q0 -33 13.5 -45.5t30.5 -12.5q24 0 46 22t38 54t25.5 67.5t9.5 62.5zM319 -133q0 16 -13.5 27t-26.5 18q-6 3 -21 10t-32 15.5
t-33 15.5t-22 10q-13 -5 -41 -17.5t-56 -29t-49.5 -36.5t-21.5 -41q0 -11 8 -23.5t25 -23t42.5 -18t59.5 -7.5q42 0 76 10.5t57 25.5t35.5 32.5t12.5 31.5z" />
    <glyph glyph-name="h" unicode="h" horiz-adv-x="444" 
d="M129 237q10 18 31.5 51t50.5 65.5t64 57t72 24.5q28 0 43.5 -12.5t22.5 -28.5t8 -31.5t1 -21.5q0 -56 -20 -117.5t-50 -113t-66 -85t-69 -33.5q-1 0 -6 0.5t-10 2.5t-9 6t-4 11q0 2 1 10t5.5 16.5t13 15t22.5 6.5q8 0 22.5 -0.5t22.5 4.5q12 7 21 27.5t20 60.5
q11 35 17.5 60.5t10.5 44.5t5.5 33t1.5 27q0 6 -0.5 16t-4.5 19.5t-12.5 16.5t-23.5 7q-28 0 -61 -26t-64.5 -71.5t-58.5 -107t-43 -133.5q-6 -28 -10 -36t-20 -8q-9 0 -22 5.5t-13 21.5q0 2 1.5 8.5t4 15.5t5 19t4.5 17q12 44 25.5 99t27 113.5t26.5 115.5t22.5 103.5
t15.5 79t6 40.5q0 5 -3.5 17t-26.5 17q-12 3 -15 4t-3 6q0 8 4.5 10.5t19.5 5.5q8 2 23 4.5t32 5t32.5 4.5t24.5 2q2 0 7 -1t5 -9q0 -1 -2.5 -8.5l-5.5 -16.5t-6 -17.5t-4 -11.5q-3 -12 -10.5 -37.5t-17 -60t-20 -74.5t-21.5 -82q-8 -34 -13.5 -55.5t-9.5 -37.5t-8 -29.5
t-9 -30.5z" />
    <glyph glyph-name="i" unicode="i" horiz-adv-x="241" 
d="M211 127l-1 -18q0 -11 -11 -23t-22 -23q-27 -27 -46.5 -41.5t-33.5 -22t-23 -9t-16 -1.5q-12 0 -19 5t-10 11t-3.5 11.5t-0.5 7.5q0 9 8.5 37.5t20.5 66t27 79t27 77t20.5 59.5t8.5 27q0 4 -4 4q-7 0 -19 -7t-25 -17t-25.5 -21t-21.5 -19l-5 -1l-1 16q0 7 11.5 19
t19.5 20t21 19.5t29.5 22t34 18.5t32.5 8q21 0 24.5 -10t3.5 -15q0 -12 -6.5 -31t-15.5 -43q-2 -5 -9.5 -26t-18 -50.5t-22.5 -62t-22 -61t-16.5 -48.5t-6.5 -23q0 -11 7 -11q9 0 39.5 19.5t63.5 56.5h6zM203 653q11 0 26 -11.5t15 -29.5q0 -17 -14.5 -29.5t-29.5 -12.5
q-16 0 -28.5 13t-12.5 27t13.5 28.5t30.5 14.5z" />
    <glyph glyph-name="j" unicode="j" horiz-adv-x="241" 
d="M31 284l1 15q0 8 7 16.5t13 15.5q5 6 21 22.5t36.5 34t43 31t40.5 13.5q5 0 15 -3t10 -21q0 -5 -3 -20t-7 -33t-8 -34.5t-6 -24.5q-13 -55 -21.5 -89.5t-15.5 -63t-13.5 -58t-16.5 -76.5t-19 -78.5t-18 -53.5t-18 -37.5t-20 -29.5q-30 -38 -66.5 -58t-62.5 -20
q-20 0 -34.5 9.5t-14.5 23.5t9.5 24t19.5 10q11 0 27.5 -10.5t34.5 -10.5q16 0 27.5 11t20 32t15.5 51t15 67q6 28 17 75t23 99t24 100t19 77q1 3 3 12.5t4.5 19t4.5 18t2 9.5q0 6 -7 6q-3 0 -27 -12t-71 -59h-4zM196 653q16 0 28.5 -13t12.5 -27t-13.5 -28t-29.5 -14
q-14 0 -26.5 12t-12.5 28t13.5 29t27.5 13z" />
    <glyph glyph-name="k" unicode="k" 
d="M140 214q-2 -11 -7.5 -38.5t-11.5 -58t-11.5 -57.5t-7.5 -37t-7 -21.5t-25 -11.5q-4 0 -11 1.5t-13.5 5t-11 9.5t-4.5 14q0 5 1.5 10.5t6.5 21.5q4 13 13 50.5t20 87t23 105t22 105.5q8 35 14 63.5t11.5 54.5t10 51.5t8.5 55.5q2 16 -1.5 23t-16.5 9q-28 4 -33.5 5.5
t-5.5 6.5q0 9 3 11.5t11 4.5q6 1 25 5t40 8t38.5 7t20.5 3t7 -2t4 -7q0 -1 -1.5 -6t-3 -11l-3 -12t-2.5 -8q-7 -26 -14.5 -56t-16.5 -68q-3 -13 -10.5 -44t-15 -65.5t-14 -65t-9.5 -42.5q54 60 101.5 85t89.5 25q46 0 64.5 -27.5t18.5 -67.5q0 -7 -1.5 -20.5t-7.5 -28.5
t-19 -29.5t-36 -23.5q-11 -4 -20.5 -7t-22 -5t-30.5 -3.5t-46 -3.5q12 -57 29 -96t34.5 -63t34 -35t27.5 -11q8 0 17 3.5t9 17.5q0 9 -4 13.5t-4 14.5q0 14 12 22.5t22 8.5q7 0 18.5 -6.5t11.5 -26.5q0 -12 -7 -25.5t-20 -25t-32 -19t-43 -7.5q-27 0 -52 11t-47 38t-40.5 72
t-33.5 113h-45zM143 230q69 7 112 13.5t68 17.5t34 29.5t9 48.5q0 21 -8.5 32.5t-29.5 11.5q-13 0 -31 -4.5t-36.5 -12t-35.5 -18t-29 -22.5q-23 -22 -34.5 -44t-18.5 -52z" />
    <glyph glyph-name="l" unicode="l" horiz-adv-x="241" 
d="M221 139v-14q0 -6 -2.5 -10t-13.5 -17q-18 -19 -37.5 -38.5t-38.5 -35.5t-37 -25.5t-33 -9.5q-14 0 -24.5 9t-10.5 31q0 11 3 28t14 59q27 110 46.5 188.5t33 133.5t21.5 89t12.5 54.5t6 31t1.5 16.5q0 19 -13 24t-37 10q-8 2 -9.5 2.5t-1.5 3.5q0 10 3.5 12t19.5 5
q11 2 29.5 5t37.5 6t34.5 5.5t21.5 2.5q10 0 10 -7l-12 -44.5t-29.5 -111.5t-38 -146t-38 -147.5t-29.5 -117t-12 -54.5q0 -7 3 -9t6 -2q13 0 44 20.5t64 52.5h6z" />
    <glyph glyph-name="m" unicode="m" horiz-adv-x="759" 
d="M41 284v15q0 13 12 30.5t23 32.5q19 25 35.5 39.5t29.5 21.5t22.5 9t14.5 2q16 0 26.5 -9.5t10.5 -26.5q0 -11 -6 -34.5t-14.5 -51.5t-18 -57.5t-17.5 -52.5q25 40 54.5 79t69.5 81q27 28 55.5 50t61.5 22q21 0 34 -14t13 -40q0 -12 -2.5 -25.5t-8 -34.5t-14.5 -52
t-23 -77q8 13 21.5 34t31 46t38.5 51.5t45 50.5q9 9 21.5 19.5t26.5 19.5t28.5 14.5t28.5 5.5q20 0 35.5 -14t15.5 -47q0 -15 -6.5 -42.5t-16.5 -60.5t-21.5 -67t-21.5 -63t-16.5 -48t-6.5 -22q0 -4 3 -4q2 0 7.5 3t11.5 7.5t11 8.5t8 6q23 20 43.5 41t34.5 37h4v-18
q0 -7 -2 -11.5t-13 -18.5q-21 -28 -44.5 -52t-45.5 -41.5t-40.5 -27.5t-30.5 -10q-5 0 -13 4t-8 18q0 7 7 31.5t17.5 59t22.5 73.5t22.5 75t17.5 63.5t7 37.5q0 22 -17 22t-44 -18.5t-59.5 -59.5t-68 -105.5t-68.5 -156.5q-9 -25 -13.5 -33t-18.5 -8q-11 0 -24 7t-13 20
q0 4 7 26.5t17 55t22 70.5t22 73t17 63t7 40q0 7 -2.5 18t-17.5 11q-27 0 -58.5 -26t-61.5 -69.5t-56.5 -100t-45.5 -117.5q-1 -3 -3 -10t-4.5 -15t-4.5 -15.5t-4 -11.5q-6 -16 -22 -16q-3 0 -9.5 1t-13.5 4t-12 8t-5 14q0 5 2.5 15.5t10.5 33.5q2 8 9 30.5t15.5 52t18 62.5
t17.5 61t13 47.5t5 21.5q0 11 -14 11q-15 0 -29 -8.5t-26.5 -20t-23 -24t-16.5 -20.5z" />
    <glyph glyph-name="n" unicode="n" horiz-adv-x="518" 
d="M40 273v19q0 16 9.5 35t19.5 33q5 9 14.5 21.5t22.5 24.5t29 20.5t34 8.5q19 0 28.5 -10.5t9.5 -22.5q0 -15 -9.5 -46t-23.5 -72q-3 -10 -6.5 -19t-7 -20.5t-8.5 -26.5l-12 -36q30 53 63.5 98.5t66.5 79t63 53t53 19.5q32 0 43 -22.5t11 -48.5q0 -15 -4 -37t-9.5 -44.5
t-11 -42.5t-9.5 -32q-3 -9 -9 -29t-12 -41.5t-10.5 -38t-4.5 -18.5q0 -3 2 -3q4 0 34 25t77 88l5 -1v-15q0 -8 -2.5 -17.5t-22.5 -35.5q-12 -16 -29.5 -38t-38 -42.5t-41 -35t-37.5 -14.5t-21 11t-4 16q0 8 2 18t7.5 27.5t13.5 45.5t20 71q14 51 25 96t11 65q0 30 -26 30
q-18 0 -40 -20t-43.5 -49t-40.5 -60.5t-32 -55.5q-11 -19 -22.5 -44t-22 -47.5t-17.5 -40l-9 -22.5q-5 -15 -13 -28t-27 -13q-12 0 -19 6t-7 15q0 6 7 31.5t17.5 60.5l22.5 75t22.5 75.5t17.5 61.5t7 33q0 11 -10 11q-12 0 -24.5 -9.5t-25 -23t-23 -28t-18.5 -25.5z" />
    <glyph glyph-name="o" unicode="o" horiz-adv-x="426" 
d="M273 434q35 0 58 -13.5t37.5 -34.5t20.5 -48t6 -54q0 -46 -16.5 -98t-48 -95.5t-76 -72.5t-101.5 -29q-11 0 -25 2t-28 8t-28 18t-25 32q-12 23 -14.5 47t-2.5 36q0 53 17.5 106.5t49.5 97t76.5 71t99.5 27.5zM259 402q-36 0 -65 -32.5t-49 -78.5t-30.5 -95.5
t-10.5 -83.5q0 -40 15 -66t44 -26q36 0 65.5 30.5t50.5 74.5t32 93t11 85q0 28 -6 47t-15 30.5t-20 16.5t-22 5z" />
    <glyph glyph-name="p" unicode="p" horiz-adv-x="463" 
d="M60 345q-6 -2 -7 1t-1 17q0 4 1 4.5t7 2.5l70 17q1 5 3 16.5t4.5 24.5t4 24t2.5 16q5 19 13.5 31t33.5 12q7 0 18 -2.5t11 -15.5q0 -6 -8.5 -32.5t-13.5 -58.5q24 5 60.5 11.5t73.5 6.5q30 0 51 -7.5t33.5 -20t18 -29t5.5 -33.5q0 -20 -7 -51.5t-21 -67.5t-35 -73
t-48 -66.5t-61 -48t-75 -18.5q-30 0 -48.5 5.5t-26.5 10.5q-3 -15 -9 -47.5t-12.5 -68.5t-11 -67t-4.5 -41q0 -25 15 -32t50 -12q17 -2 20.5 -2.5t3.5 -5.5q0 -2 -1.5 -6.5t-2.5 -6.5q-2 -2 -14 -2q-5 0 -21.5 0.5t-35 0.5t-35.5 0.5t-23 0.5t-20.5 -0.5t-31 -0.5t-31 -0.5
t-20.5 -0.5q-4 0 -6 0.5t-2 5.5q0 9 3 11.5t18 5.5q13 2 22.5 4.5t16.5 9.5t13 19t11 34q11 44 24.5 108t29 137t31.5 149t30 145zM191 371q-16 -72 -26.5 -120.5t-16.5 -80t-8.5 -48.5t-2.5 -26q0 -5 1 -15t6.5 -20.5t17 -18.5t33.5 -8q38 0 69 33t53 78t34.5 91.5
t12.5 73.5q0 22 -8.5 35t-22.5 20t-31.5 9t-35.5 2q-21 0 -39 -1.5t-36 -3.5z" />
    <glyph glyph-name="q" unicode="q" horiz-adv-x="463" 
d="M411 426q1 4 9 1q8 -2 9 -4.5t0 -5.5l-9 -37q-4 -17 -13.5 -63.5t-21 -107t-23.5 -128.5t-22.5 -128t-17 -105.5t-6.5 -60.5t9 -23.5t36 -11.5q9 -1 11.5 -2t2.5 -7q0 -13 -14 -13q-22 0 -44 0.5t-48 0.5q-23 0 -49.5 -0.5t-53.5 -0.5q-13 0 -13 6q0 11 5 13.5t12 4.5
q21 3 33.5 6t20 9t12.5 16.5t10 29.5q11 36 28 119t39 194q-15 -16 -34.5 -37t-43.5 -40t-52 -31.5t-59 -12.5q-27 0 -45 10.5t-29 26.5t-15.5 36t-4.5 39q0 55 23 111t59.5 101t82 73t89.5 28q20 0 36 -5t28 -12t21 -14.5t13 -11.5zM289 391q-30 0 -63.5 -29t-62 -72
t-47 -93.5t-18.5 -92.5q0 -39 13.5 -52t27.5 -13q29 0 65 31t67.5 76t52.5 95t21 87q0 27 -16 45t-40 18z" />
    <glyph glyph-name="r" unicode="r" horiz-adv-x="370" 
d="M28 285v22q0 7 1.5 12t10.5 19q5 9 15.5 24.5t25 31.5t33.5 27.5t40 11.5q14 0 22 -4.5t11.5 -10.5t4 -12.5t0.5 -10.5q0 -8 -2 -21l-4 -26t-4.5 -25t-4.5 -18q-2 -9 -7.5 -31.5t-11.5 -47.5t-11.5 -47l-7.5 -30q4 8 12.5 27t18.5 40.5t18.5 40.5t11.5 26q41 80 73.5 115
t71.5 35q20 0 39 -12t19 -45q0 -24 -12.5 -39t-33.5 -15q-20 0 -24.5 10t-4.5 15q0 14 -1.5 22.5t-10.5 8.5t-27.5 -17t-44.5 -57.5t-58 -107t-67 -164.5q-7 -20 -16 -31t-28 -11q-8 0 -20 5t-12 19q0 8 2.5 19t4.5 17q9 30 23 79.5t27.5 98.5t23 86.5t9.5 42.5q0 2 -1 5
t-6 3q-12 0 -25 -9t-25 -21.5t-22 -26.5t-17 -23h-9z" />
    <glyph glyph-name="s" unicode="s" horiz-adv-x="296" 
d="M228 432q2 0 13 -1t23 -5.5t22 -14t10 -26.5q0 -19 -9 -27t-21 -8q-6 0 -15.5 4t-21 9.5t-24.5 9.5t-27 4q-16 0 -26.5 -4.5t-16.5 -11t-8.5 -13.5t-2.5 -12q0 -20 14 -40.5t47 -62.5q26 -32 37.5 -56t11.5 -43q0 -26 -13 -52t-36 -46.5t-53 -33.5t-65 -13q-25 0 -39 6
t-20.5 14.5t-7.5 17.5t-1 15q0 34 28 34q10 0 22.5 -5t26 -11.5t27.5 -11.5t27 -5q20 0 35 13t15 33q0 18 -12.5 39t-29.5 44q-20 27 -33 44t-20 29t-9.5 22t-2.5 22q0 21 11.5 46t32 46.5t49 36t62.5 14.5z" />
    <glyph glyph-name="t" unicode="t" horiz-adv-x="278" 
d="M46 371q-5 0 -5 2.5t1 7.5l3 13q2 6 3 7t9 2l61 8l26 89q4 13 6.5 18t13.5 7q5 1 19.5 3t21.5 2q10 0 11.5 -3.5t1.5 -6.5q0 -7 -2 -12l-28 -96h121q6 0 7.5 -1t0.5 -6l-6 -30q-1 -4 -9 -4h-126l-23 -83q-15 -52 -25 -88t-16.5 -60t-9.5 -39.5t-3 -26.5q0 -2 1 -6t7 -4
q9 0 39.5 15.5t94.5 61.5h6l1 -16q0 -6 -3 -10t-15 -15q-10 -9 -31 -27.5t-45.5 -36.5t-49.5 -32t-43 -14q-11 0 -17 5t-9 12t-3.5 14.5t-0.5 12.5q0 17 3 38t10 50.5t17 70t25 95.5l21 83h-61z" />
    <glyph glyph-name="u" unicode="u" horiz-adv-x="500" 
d="M473 185v-24q0 -4 -0.5 -7.5t-4 -10t-11.5 -18t-22 -32.5q-40 -56 -73 -79t-56 -23q-14 0 -21.5 5t-11 11.5t-4 13t-0.5 10.5q0 12 4 27.5t14.5 44.5t29 74.5t47.5 117.5q-15 -20 -39 -51.5t-52.5 -66.5t-59.5 -70t-61 -63q-5 -4 -15 -13t-22.5 -18t-26 -15.5t-26.5 -6.5
q-20 0 -27 12.5t-7 29.5t6 41.5t14.5 50.5t18 51t17.5 44q3 8 11 26.5t16.5 38.5t16 36.5t9.5 20.5q5 8 0 8q-2 0 -11.5 -7.5t-23 -19t-29 -26t-29.5 -28.5h-4l-1 3q-2 5 -4 8.5t-2 8.5q0 3 8 13t18.5 21.5t21 22.5t14.5 15q30 31 56 51.5t46 20.5q14 0 18.5 -8t4.5 -13
q0 -6 -9 -31t-22 -59t-28.5 -73.5t-28.5 -74t-22 -60.5t-9 -33q0 -5 2.5 -6.5t4.5 -1.5q20 0 56.5 32t76.5 79t76.5 100.5t57.5 96.5q15 33 22.5 42t17.5 9q11 0 22 -7t11 -18q0 -6 -12 -35q-5 -12 -14 -37.5t-20 -56.5t-22.5 -64t-20.5 -61t-15 -47.5t-6 -23.5q0 -8 4 -10
t7 -2q14 0 45 24t70 91h9z" />
    <glyph glyph-name="v" unicode="v" horiz-adv-x="444" 
d="M34 268l-1 15q0 8 20.5 32t49 50t57.5 46.5t46 20.5q8 0 14.5 -5.5t6.5 -18.5t-7.5 -38.5t-21.5 -66.5q-8 -25 -19.5 -61t-22 -71.5t-17.5 -64t-7 -37.5q0 -14 10 -14q5 0 21 5.5t37.5 18.5t47 34.5t50.5 52.5q23 29 37.5 56t22.5 50t11 40.5t3 27.5q0 9 -3.5 15t-7 11.5
l-7 11t-3.5 12.5q0 14 14.5 28t31.5 14q15 0 27.5 -14t12.5 -41q0 -38 -19.5 -81.5t-50 -86.5t-69.5 -82.5t-77.5 -70t-73 -49t-57.5 -18.5q-17 0 -22.5 11.5t-5.5 28.5q0 15 3 34.5t8 40.5t10.5 41.5t10.5 36.5q3 9 10.5 33.5t16 51t15 47t6.5 21.5q0 4 -4 4
q-5 0 -32 -16.5t-69 -54.5h-3z" />
    <glyph glyph-name="w" unicode="w" horiz-adv-x="667" 
d="M29 273l-1 15q0 5 1 7t7 9q15 16 26.5 28.5t23 23.5t24 21.5t27.5 21.5q4 3 12 8.5t17.5 11t19 9.5t16.5 4q11 0 16 -7t5 -16q0 -6 -8 -34t-18.5 -61t-20 -64t-13.5 -43q-5 -17 -10.5 -36.5t-10 -38.5t-7.5 -35.5t-3 -28.5q0 -6 3 -8.5t5 -2.5q6 0 21 10.5t40 36t60.5 67
t81.5 104.5q4 14 9 32t9.5 35t8.5 30t5 16q8 19 20 31.5t32 12.5q19 0 27 -10.5t8 -22.5q0 -20 -13.5 -40t-21.5 -30q-10 -31 -23.5 -74t-24.5 -83t-19 -70t-8 -35q0 -11 11 -11q6 0 21.5 6t36 19t45 35t49.5 53q30 37 52 82t22 90q0 11 -8 23q-8 11 -10 15t-2 11
q0 18 16 30t30 12q18 0 28.5 -16t10.5 -38q0 -30 -12.5 -62.5t-31 -63.5t-40.5 -58.5t-41 -49t-32.5 -34t-15.5 -14.5q-18 -16 -40 -35t-44.5 -35t-44 -26.5t-38.5 -10.5q-10 0 -16.5 4.5t-10 11t-4.5 13.5t-1 11q0 14 6 40.5t14 55.5t16.5 56t13.5 42q-6 -9 -21.5 -30
t-35.5 -47t-44 -54t-48 -50.5t-47.5 -37.5t-41.5 -15q-15 0 -23.5 13.5t-8.5 33.5q0 21 5 48.5t12 56.5t15 57.5t15 50.5q2 6 6.5 20t9 29.5t8.5 28t4 15.5q0 1 -0.5 3t-3.5 2t-13.5 -7t-25.5 -17.5t-31 -23.5t-30 -26h-4z" />
    <glyph glyph-name="x" unicode="x" 
d="M440 140l1 -19q0 -9 -9.5 -30.5t-26 -44t-38.5 -40t-46 -17.5q-13 0 -23 6t-17.5 14.5t-12 17.5t-7.5 16t-6 14.5t-8 21.5t-12.5 37.5t-20.5 63.5q-34 -46 -54.5 -73t-32.5 -42t-17.5 -21.5t-11.5 -12.5q-20 -21 -37 -32.5t-36 -11.5q-7 0 -16 2.5t-16 9.5t-12 19t-5 30
q0 25 11.5 41t33.5 16q11 0 14 -6.5t4 -11.5q2 -14 4 -20.5t9 -6.5q12 0 36.5 22t49.5 49.5t45 51t22 26.5q-11 35 -21.5 68t-21.5 58q-5 12 -11.5 22.5t-17.5 10.5q-16 0 -30.5 -23t-22.5 -62h-3l-9 10q-3 4 -3 9q0 8 4.5 29t15 43.5t28 40t43.5 17.5q14 0 26 -7.5
t22 -24.5q6 -12 13 -30.5t13.5 -39.5t12 -40.5t9.5 -32.5q9 12 22 28.5t27.5 34.5t29.5 35.5t28 31.5q14 15 33 30t39 15q16 0 24.5 -6t12.5 -14.5t5 -17t1 -13.5q0 -3 -1.5 -19t-7.5 -25q-5 -6 -14.5 -11t-16.5 -5q-6 0 -7.5 4.5t-2.5 11.5q-2 17 -6 20.5t-8 3.5
q-12 0 -33.5 -16.5t-44.5 -38.5t-43 -43.5t-28 -31.5q7 -25 14.5 -48t14.5 -41t12 -29.5t6 -14.5q11 -26 20.5 -35t18.5 -9q10 0 21.5 7.5t23 19.5t22.5 27.5t21 31.5h5z" />
    <glyph glyph-name="y" unicode="y" horiz-adv-x="444" 
d="M258 32q18 34 37.5 70.5t35 73.5t25.5 73t10 69q0 19 -5 31t-10.5 20.5t-10.5 15t-5 14.5q0 16 13 24.5t27 8.5q19 0 33.5 -16t14.5 -45q0 -32 -11.5 -73.5t-30 -85.5t-41.5 -89t-45.5 -85t-43 -72.5t-34.5 -51.5q-16 -23 -41.5 -54.5t-60.5 -60.5t-80.5 -49.5
t-101.5 -20.5q-15 0 -31 2.5t-29.5 8.5t-22 16t-8.5 25q0 19 13 25.5t21 6.5q14 0 20.5 -7.5t9.5 -12.5q5 -9 12.5 -14.5t33.5 -5.5q36 0 79.5 16.5t81.5 48.5t64 78t26 106q0 21 -2.5 51t-7.5 64t-11.5 69t-14.5 66q-13 49 -26 70t-37 21q-19 0 -32.5 -12t-22.5 -28
t-13.5 -32t-5.5 -25q-1 -8 -9 -8q-7 0 -9 1t-2 6q0 20 7 49t21 55t37 44.5t54 18.5q40 0 65 -36t39 -117q8 -42 12.5 -76t7 -63t3.5 -55t2 -53z" />
    <glyph glyph-name="z" unicode="z" horiz-adv-x="444" 
d="M92 106q56 67 106.5 124.5t105.5 120.5q-9 0 -31 2.5t-46.5 4.5t-46.5 4t-30 2q-6 0 -15 -1t-18.5 -7t-19.5 -19t-19 -37q-3 -9 -9 -9q-5 0 -9.5 1.5t-4.5 6.5q0 3 6.5 22.5t14.5 41.5q7 20 12 33t11.5 21t15 11.5t22.5 3.5q12 0 41 -4.5t61 -9.5t60.5 -10t39.5 -6
q19 17 28.5 24t21.5 7q10 0 21 -6.5t11 -23.5t-17 -32t-53 -20q-12 -12 -38 -40.5t-56.5 -64t-62 -72.5t-55.5 -67q44 1 71 -13.5t60 -44.5q41 -37 59.5 -51.5t34.5 -14.5q13 0 16.5 6.5t3.5 8.5q0 8 -7.5 16t-7.5 17q0 8 8 17.5t25 9.5t27 -10.5t10 -24.5t-9 -27t-24 -23
t-34.5 -16t-40.5 -6q-9 0 -22 1.5t-32 9t-45 24t-62 47.5q-17 14 -28 20.5t-24 6.5q-17 0 -25.5 -11t-13.5 -19q-7 -14 -13 -22t-18 -8q-11 0 -22 7.5t-11 25.5q0 10 6.5 23t19.5 25q11 9 22 14t29 11z" />
    <glyph glyph-name="braceleft" unicode="{" horiz-adv-x="389" 
d="M105 216q48 -6 78.5 -32.5t30.5 -75.5q0 -17 -8 -55.5t-18 -82.5q-10 -43 -18 -80.5t-8 -51.5q0 -2 1 -12t7 -21t19 -21t37 -13q14 -2 16.5 -3t2.5 -4q0 -11 -4 -13t-9 -2q-21 0 -44.5 4t-43 15t-32 30.5t-12.5 51.5q0 17 8 55t18 81q9 43 17 81t8 52q0 27 -10.5 43.5
t-25 25t-29.5 11.5t-24 4q-20 2 -23.5 2.5t-3.5 5.5q0 17 6 19.5t27 4.5q40 2 64.5 16t39 33t21 39t9.5 34q3 13 9.5 44.5t13.5 66t13.5 65t9.5 42.5q12 42 38 65t55 33.5t55 12.5t37 2q7 0 7 -4q0 -1 -1.5 -7.5t-2.5 -8.5q-2 -3 -14.5 -3.5t-15.5 -1.5q-42 -7 -65 -32
t-33 -72q-3 -14 -5 -25.5t-5.5 -28.5t-9 -44.5l-14.5 -72.5q-6 -29 -16 -60t-42 -63q-30 -31 -59.5 -39t-51.5 -10z" />
    <glyph glyph-name="bar" unicode="|" horiz-adv-x="482" 
d="M270 750v-1000h-47v1000h47z" />
    <glyph glyph-name="braceright" unicode="}" horiz-adv-x="389" 
d="M286 220q-49 6 -79.5 32.5t-30.5 76.5q0 15 7.5 52.5t17 78.5t17.5 76.5t9 47.5q1 5 1 15q0 2 -1 11.5t-7 21t-19 21.5t-37 13q-14 2 -16.5 2.5t-2.5 3.5q0 12 4.5 14t8.5 2q23 0 46 -4t42.5 -15.5t31.5 -31t12 -50.5q0 -17 -8 -55.5t-17 -81.5q-10 -43 -18 -80.5
t-8 -51.5q0 -28 11 -44.5t26 -25t30 -11t23 -3.5q20 -2 23.5 -3t3.5 -6q0 -17 -6.5 -19.5t-26.5 -3.5q-40 -2 -65 -16t-39 -33t-20.5 -39t-9.5 -34q-3 -13 -9.5 -44.5t-13.5 -66.5t-14 -65.5t-10 -41.5q-12 -42 -38 -65t-54.5 -33.5t-54.5 -12.5t-37 -2q-7 0 -7 4q0 1 1.5 7
t1.5 8q2 3 14.5 3.5t16.5 1.5q42 7 64 31.5t32 67.5q14 70 22.5 112t13.5 65.5t7.5 34t4.5 17.5q8 22 24.5 46t39.5 41q26 20 49 25t44 7z" />
    <glyph glyph-name="asciitilde" unicode="~" horiz-adv-x="630" 
d="M607 690q-7 -14 -20.5 -29.5t-30.5 -29t-37 -22.5t-42 -9q-6 0 -12 1t-17 4t-29.5 8.5t-49.5 15.5q-36 11 -64 11q-30 0 -47.5 -15t-39.5 -40l-13 8q9 15 22.5 31t30 29.5t36.5 22t43 8.5q19 0 40 -6t47 -15q20 -7 38.5 -12t36.5 -5q30 0 53 14.5t42 37.5z" />
    <glyph glyph-name="exclamdown" unicode="&#xa1;" horiz-adv-x="315" 
d="M182 264q-5 -26 -8.5 -47t-7.5 -49.5t-9 -71.5t-14 -115l-5.5 -44t-7.5 -57.5t-9 -55t-10 -35.5q-5 -9 -14 -14.5t-18.5 -7.5t-17.5 -2.5t-11 -0.5q-19 0 -23 8.5t-4 16.5t13.5 66.5t53.5 180.5q15 45 23.5 71.5t15 48t12.5 44.5t15 60q1 4 8 5l17 2zM191 327q-8 0 -17 5
t-16 12t-11.5 16t-4.5 16q0 19 17 35.5t34 16.5q9 0 17.5 -5t15.5 -12.5t11.5 -16t4.5 -15.5q0 -18 -16.5 -35t-34.5 -17z" />
    <glyph glyph-name="cent" unicode="&#xa2;" 
d="M366 253q6 -6 7.5 -8t1.5 -4q0 -7 -11 -26t-29 -40.5t-42 -40.5t-51 -25l-18 -92q-1 -7 -1.5 -8.5t-2.5 -2.5l-20 -1q-5 0 -4 6l22 96q-36 -1 -57.5 14.5t-33.5 37.5t-15.5 45.5t-3.5 37.5q0 15 3.5 41.5t12 58t23 65.5t36.5 63.5t53.5 51t72.5 28.5l13 69q1 6 2 7.5
t6 1.5h18l1 -1q0 -4 -1 -9l-15 -68q15 0 32 -2t31.5 -8t23.5 -15t9 -23q0 -3 -1 -9.5t-4 -12.5t-8.5 -10.5t-15.5 -4.5q-12 0 -21.5 6.5t-20.5 20.5q-14 16 -18.5 20t-12.5 7l-73 -355q21 5 39.5 16.5t32.5 25.5t23.5 27t13.5 20h3zM303 520q-33 -10 -57 -44.5t-39.5 -75.5
t-22.5 -79.5t-7 -58.5q0 -39 12 -64.5t41 -31.5z" />
    <glyph glyph-name="sterling" unicode="&#xa3;" 
d="M320 309q8 0 10 -1t0 -7l-4 -23q-1 -6 -3.5 -7t-7.5 -1h-112q0 -31 -2 -55t-8 -44.5t-16.5 -40t-27.5 -41.5l28 -3.5t28.5 -5.5t41.5 -10.5t67 -18.5q5 -2 21 -6t29 -4q20 0 28.5 11t8.5 21q0 8 -3 12t-7 8t-7 8.5t-3 12.5q0 14 10 24t24 10q19 0 26.5 -17t7.5 -33
q0 -21 -9 -41.5t-26 -37t-41 -26.5t-54 -10q-24 0 -50.5 5.5t-76.5 19.5q-39 12 -55.5 15.5t-30.5 6.5q-8 -8 -24 -22t-39 -14q-15 0 -22.5 8t-7.5 21q0 17 8.5 29.5t22.5 20.5t31 12t34 5q9 12 14 26.5t7 28t2.5 25t0.5 17.5q0 32 -3 52t-5 31h-79q-7 0 -8.5 1t-0.5 6l5 24
q2 6 4 7t7 1h70q0 9 -0.5 32.5t2.5 54.5t11.5 64t24.5 61q16 27 40.5 50t52.5 40t58 26.5t57 9.5q46 0 77.5 -24t31.5 -65q0 -4 -0.5 -13t-5 -18t-13.5 -16t-26 -7q-20 0 -26 10t-6 26q0 10 -1.5 19.5t-7.5 17.5t-19 13t-36 5q-49 0 -76.5 -22.5t-40.5 -61.5t-15.5 -91
t-1.5 -111h117z" />
    <glyph glyph-name="currency" unicode="&#xa4;" 
d="M359 193q-22 -16 -47.5 -25t-52.5 -9t-52.5 9t-47.5 25l-13 -13l-23 -23l-22 -22l-10 -10q-1 0 -5 3.5t-8 7.5t-7 8t-3 5l9.5 10t21.5 22t23 22.5t13 12.5q-8 11 -22.5 36t-14.5 65q0 4 0.5 14t4 23.5t11 30t21.5 32.5l-15 15l-22.5 22.5t-20.5 21l-9 9.5q0 1 3 5t7 8
t8 7.5t5 3.5t4 -3.5t5 -4.5q12 -13 29.5 -30t30.5 -30q23 17 46.5 25.5t52.5 8.5t53 -8.5t47 -25.5q13 13 30.5 30t29.5 30l4 4q4 4 5 4t5 -3t8 -7.5t7 -8t3 -5.5q0 -1 -7.5 -8t-9.5 -9q0 -1 -7 -8l-15.5 -15.5l-16.5 -16.5l-11 -11q17 -20 27 -46t10 -54q0 -27 -10 -53
t-27 -48q2 -2 13 -12.5t23 -22.5l21.5 -21.5t9.5 -10.5t-3.5 -5t-7.5 -8.5t-7.5 -7.5t-4.5 -3t-8.5 7.5l-9.5 9.5zM259 216q20 0 38 8t31.5 21.5t21.5 32t8 39.5q0 20 -7.5 38.5t-21 32.5t-31.5 22t-39 8t-38.5 -8t-31 -22t-21 -32.5t-7.5 -38.5q0 -21 7.5 -39.5t21 -32
t31.5 -21.5t38 -8z" />
    <glyph glyph-name="yen" unicode="&#xa5;" 
d="M438 380q5 0 5 -2l-6 -28q-1 -4 -5 -4h-105l-29 -38q-5 -7 -6.5 -13.5t-6.5 -27.5h132q4 0 3 -5l-5 -24q-1 -4 -5 -4h-131q-2 -12 -7 -36.5t-10 -51t-8.5 -49.5t-3.5 -32q0 -29 17.5 -35.5t49.5 -8.5q8 0 9.5 -0.5t1.5 -5.5q0 -11 -3 -14t-8 -3t-17 0.5t-25.5 0.5
t-25 0.5t-16.5 0.5h-97l-39 -2q-8 0 -8 8q0 11 3.5 13t18.5 3q29 2 44 11t24 37q2 6 7.5 29t11.5 50t11.5 51.5t7.5 33.5h-133q-4 0 -3 5l5 24q1 4 5 4h133q3 12 4 18t1 11q0 11 -3 22t-8 28h-117q-4 0 -3 5l5 24q1 5 5 5h97q-3 11 -14 39.5t-24 61t-26 62t-21 40.5
q-13 18 -26 22.5t-32 6.5q-7 0 -7 8q0 15 12 15q6 0 19 -0.5t27 -0.5q15 -1 27.5 -1.5t17.5 -0.5q23 0 47 0.5t46 1.5l26 1q7 0 7 -8q0 -12 -5 -14t-9 -2q-28 -2 -45 -6.5t-17 -26.5q0 -10 10.5 -43t24 -71.5t26 -73.5t16.5 -49q18 23 40.5 50.5t45.5 56t45 56.5t38 52
q15 22 15 34t-14 16.5t-47 6.5q-2 0 -5.5 0.5t-3.5 5.5q0 2 1 9t9 7q6 0 19.5 -0.5t29 -1t29 -1t18.5 -0.5t18 0.5t27.5 1t27.5 1t18 0.5q6 0 6 -6q0 -11 -3 -14t-17 -7q-16 -5 -36.5 -21.5t-47.5 -44.5t-62 -68t-81 -94h83z" />
    <glyph glyph-name="brokenbar" unicode="&#xa6;" horiz-adv-x="482" 
d="M270 675v-350h-47v350h47zM270 175v-350h-47v350h47z" />
    <glyph glyph-name="section" unicode="&#xa7;" 
d="M256 15l11 -16.5t14 -24.5t12 -32t5 -37q0 -33 -16 -64.5t-43 -55.5t-62 -38.5t-73 -14.5q-20 0 -38.5 5t-32.5 13t-22 18t-8 21q0 17 12 29t29 12q9 0 14.5 -5t16.5 -19q3 -4 19.5 -14.5t47.5 -10.5q17 0 34 4t31.5 13t23.5 24t9 37q0 16 -4.5 32.5t-15.5 37.5
t-29.5 48.5t-46.5 64.5q-22 30 -35 51.5t-20 38t-9 29t-2 24.5q0 38 19 71.5t45 52.5q15 11 31 19.5t36 18.5q-24 34 -36 55.5t-12 50.5q0 33 14.5 66t40 58.5t61 41.5t76.5 16q42 0 68 -15.5t26 -37.5q0 -14 -10 -27.5t-24 -13.5q-5 0 -8.5 2t-10.5 8q-20 20 -42.5 25
t-36.5 5q-18 0 -36 -5t-33 -15t-24.5 -24.5t-9.5 -33.5q0 -26 17 -53t50 -72q34 -45 55.5 -74t34 -50.5t17 -38.5t4.5 -37q0 -39 -16.5 -67.5t-38.5 -48t-44.5 -31t-34.5 -16.5zM227 324q-45 -20 -64.5 -48.5t-19.5 -59.5q0 -19 6 -37t18 -39t30.5 -46.5t42.5 -57.5
q32 16 49 34t24.5 34.5t9 29t1.5 16.5q0 39 -29.5 82.5t-67.5 91.5z" />
    <glyph glyph-name="dieresis" unicode="&#xa8;" horiz-adv-x="500" 
d="M248 609q20 0 30.5 -15.5t10.5 -24.5q0 -15 -14 -28t-27 -13q-11 0 -25 12t-14 26q0 17 14.5 30t24.5 13zM400 609q20 0 30.5 -15.5t10.5 -25.5q0 -14 -14 -27t-28 -13q-11 0 -24.5 12.5t-13.5 25.5q0 16 14 29.5t25 13.5z" />
    <glyph glyph-name="copyright" unicode="&#xa9;" horiz-adv-x="759" 
d="M435 513q6 0 28.5 -1t51.5 -6q3 -1 12 -2.5t12 -1.5q1 0 4.5 1.5t4.5 1.5q3 0 6 -1.5t3 -5.5q0 -5 -2.5 -12t-4.5 -12q-5 -23 -7 -36.5t-4 -21.5q-1 -7 -3 -8.5t-6 -1.5q-11 0 -11 10q0 11 -0.5 21.5t-4.5 17.5t-24 20t-60 13q-38 0 -67.5 -16t-50 -42.5t-31.5 -60.5
t-11 -70q0 -37 10 -64.5t27 -46t38.5 -27.5t45.5 -9q7 0 20.5 1.5t28.5 7.5t29.5 17.5t23.5 30.5q5 9 6.5 11.5t4.5 2.5q2 0 7.5 -1.5t5.5 -6.5l-3 -8.5t-6.5 -18.5t-6.5 -20t-4 -13q-2 -8 -3.5 -9.5t-7.5 -3.5q-23 -7 -48 -10.5t-48 -3.5q-51 0 -85.5 15t-55.5 39t-30 54.5
t-9 61.5q0 47 17 86.5t47 68t71 44.5t90 16zM401 -6q-67 0 -126 25t-103 68t-69.5 102t-25.5 126q0 68 26 126.5t70.5 102t103 68t124.5 24.5t125 -25t103.5 -68.5t70 -102t25.5 -125.5q0 -66 -25.5 -124.5t-69 -102t-102.5 -69t-127 -25.5zM401 25q61 0 113 23t90.5 63
t60.5 92.5t22 111.5t-22 112t-61 92.5t-91 62.5t-112 23q-61 0 -113.5 -23.5t-90.5 -63.5t-60 -92.5t-22 -110.5t21.5 -110.5t60 -92.5t91 -63.5t113.5 -23.5z" />
    <glyph glyph-name="ordfeminine" unicode="&#xaa;" horiz-adv-x="352" 
d="M315 369q9 -8 9 -10q0 -3 -9 -21t-23.5 -38t-33 -36t-38.5 -16q-10 0 -19 5.5t-9 19.5t7 35l12 36q-31 -41 -58.5 -68.5t-62.5 -27.5q-20 0 -33.5 12.5t-13.5 35.5q0 30 19.5 63.5t50 63.5t69 53t77.5 32q2 6 7 12t19 6q6 0 12.5 -2t6.5 -9q0 -1 -4.5 -15.5t-11.5 -35.5
t-15 -46t-15 -48t-11.5 -39.5t-4.5 -21.5q0 -2 1 -4.5t6 -2.5q8 0 23.5 15t34.5 53zM220 461q-18 0 -39.5 -13.5t-40 -34t-31 -44.5t-12.5 -46q0 -9 4.5 -18.5t15.5 -9.5q12 0 32.5 16t39.5 39.5t33 49.5t14 46q0 10 -5 12.5t-11 2.5z" />
    <glyph glyph-name="guillemotleft" unicode="&#xab;" horiz-adv-x="426" 
d="M281 230q3 -6 10 -22t15 -33t15 -32.5t10 -21.5l7.5 -17.5t8.5 -20t7 -16t3 -7.5q0 -4 -8.5 -8.5t-10.5 -4.5q-3 0 -5 2.5t-9 12.5q-5 8 -21.5 30t-36 47t-37 47.5t-25.5 30.5q-8 7 -8 11q0 3 3 6t17 13q11 8 34.5 27.5t51 43t53.5 46.5t40 37q11 11 15 11q2 0 9.5 -6.5
t7.5 -8.5q0 -1 -7 -9.5t-16 -19.5t-17.5 -21t-11.5 -13q-6 -6 -19.5 -21t-28.5 -31.5t-28 -31t-18 -20.5zM114 230q4 -9 13 -29.5t19.5 -43t20 -42.5t12.5 -28q2 -3 6.5 -14t4.5 -13q0 -4 -8.5 -8.5t-9.5 -4.5q-4 0 -15 15q-3 5 -19.5 27t-36.5 48.5t-38.5 49.5t-25.5 30
t-7 11q0 3 3 6t17 13q11 8 34.5 27.5t51 43t53 46.5t40.5 37q11 11 14 11q2 0 10 -6t8 -8q0 -3 -20.5 -26.5t-46.5 -53t-50 -55.5t-30 -33z" />
    <glyph glyph-name="logicalnot" unicode="&#xac;" 
d="M349 362h-305v37h389v-254h-84v217z" />
    <glyph glyph-name="registered" unicode="&#xae;" horiz-adv-x="759" 
d="M268 135l-46 -1q-1 0 -3 1t-2 6q0 7 3 8.5t11 3.5q15 3 23 6t13.5 10.5t9.5 23t10 42.5q3 11 11 46t16.5 74t15.5 72.5t7 40.5q0 11 -9 14.5t-27 5.5q-11 1 -14 1.5t-3 5.5q0 4 2.5 8t7.5 4l41 -1q6 0 20 0.5t29.5 0.5t29 0.5t18.5 0.5q12 0 31 -1.5t37.5 -9t32 -24.5
t13.5 -49q0 -45 -28 -73t-71 -39q13 -33 31 -71t37 -59q11 -14 24.5 -21.5t31.5 -7.5q11 0 13.5 -0.5t2.5 -4.5q0 -3 -0.5 -6.5t-5 -5.5t-14.5 -3.5t-28 -1.5q-26 0 -46 12t-36 34t-30.5 54t-30.5 71q-8 -1 -16 -0.5t-22 2.5q-1 -6 -5 -24.5t-8 -39.5t-7.5 -39.5t-3.5 -24.5
q0 -16 14 -19t35 -5q5 0 7.5 -1.5t2.5 -7.5q0 -9 -10 -9zM363 327l13.5 -3t11.5 -1q38 0 59 14t30.5 31.5t11 33t1.5 18.5q0 10 -2.5 21.5t-10 22t-22.5 17.5t-39 7q-11 0 -13.5 -3t-6.5 -17q-4 -15 -12.5 -52t-20.5 -89zM401 -6q-67 0 -126 25t-103 68t-69.5 102t-25.5 126
q0 68 26 126.5t70.5 102t103 68t124.5 24.5t125 -25t103.5 -68.5t70 -102t25.5 -125.5q0 -66 -25.5 -124.5t-69 -102t-102.5 -69t-127 -25.5zM401 25q61 0 113 23t90.5 63t60.5 92.5t22 111.5t-22 112t-61 92.5t-91 62.5t-112 23q-61 0 -113.5 -23.5t-90.5 -63.5t-60 -92.5
t-22 -110.5t21.5 -110.5t60 -92.5t91 -63.5t113.5 -23.5z" />
    <glyph glyph-name="macron" unicode="&#xaf;" horiz-adv-x="500" 
d="M433 540q-2 -5 -5 -5h-219q-5 0 -4 6l6 28q1 5 5 5h219q5 0 3 -5z" />
    <glyph glyph-name="degree" unicode="&#xb0;" 
d="M305 385q-30 0 -54.5 10.5t-42.5 28t-27.5 41.5t-9.5 51t10 51t27.5 42t42 28t54.5 10t54.5 -10t42 -28t27.5 -42t10 -51t-9.5 -50.5t-27.5 -41.5t-42.5 -28.5t-54.5 -10.5zM305 429q32 0 56 23.5t24 63.5q0 39 -23.5 63.5t-56.5 24.5t-57 -24.5t-24 -63.5t24 -63t57 -24
z" />
    <glyph glyph-name="plusminus" unicode="&#xb1;" 
d="M240 515q-1 5 18 5h12q11 0 13 -1t2 -4v-175h170q3 0 6.5 -0.5t3.5 -5.5q0 -21 -0.5 -30t-4.5 -9h-175v-177q0 -4 -22 -4q-10 0 -16.5 0.5t-6.5 2.5v178h-178q-2 0 -2.5 11.5t-0.5 22.5t6 11h175v175zM457 60q8 0 8 -11v-24q0 -11 -8 -11h-390q-8 0 -8 11v24q0 11 8 11
h390z" />
    <glyph glyph-name="twosuperior" unicode="&#xb2;" horiz-adv-x="333" 
d="M52 253q-6 0 -9 5.5t-3 7.5t2 4t12 10q44 38 86 77.5t70 69.5q26 27 41 53.5t15 55.5q0 28 -17 44.5t-44 16.5q-26 0 -48 -15t-35 -39h-14l2 21q0 7 9 20t25.5 25.5t38.5 21.5t47 9q42 0 72.5 -26t30.5 -70q0 -23 -9 -44.5t-33 -48t-66.5 -62t-110.5 -87.5h28h50t51 1
t30 3t11 6.5t16 23.5q4 7 5.5 9t6.5 2q2 0 7.5 -1.5t5.5 -5.5l-2.5 -7.5t-6 -17t-7 -18.5t-4.5 -12q-8 -24 -10.5 -28t-12.5 -4h-230z" />
    <glyph glyph-name="threesuperior" unicode="&#xb3;" horiz-adv-x="333" 
d="M125 559v17q0 6 9.5 17t25 21.5t36 18t44.5 7.5q23 0 39 -6.5t26 -17t14.5 -23t4.5 -23.5q0 -19 -9 -33.5t-22.5 -25.5t-30 -20t-32.5 -17q41 -1 62.5 -25.5t21.5 -58.5q0 -30 -15 -55.5t-40 -45t-57 -30.5t-67 -11t-54.5 12.5t-19.5 25.5q0 11 11 19t19 8q6 0 12.5 -5
t15 -11.5t20.5 -11.5t31 -5q23 0 38 11t24 26t13 31.5t4 28.5q0 26 -16.5 44.5t-48.5 18.5q-17 0 -24.5 -3.5t-14.5 -3.5q-5 0 -8 5.5t-3 7.5q0 3 3.5 4.5t6.5 3.5q2 1 12.5 5.5t24 11.5t27 14.5t21.5 14.5q20 17 25 32.5t5 23.5q0 13 -10 29t-36 16q-28 0 -47 -16t-28 -26
h-13z" />
    <glyph glyph-name="acute" unicode="&#xb4;" horiz-adv-x="500" 
d="M282 517q-6 -5 -9 -6.5t-5 -0.5l-11 3q-2 1 0.5 3.5l5.5 5.5l122 131q9 10 14 14t12 4q2 0 11 -1t19 -3.5t17.5 -6.5t7.5 -10q0 -8 -4.5 -12t-13.5 -10z" />
    <glyph glyph-name="mu" unicode="&#xb5;" horiz-adv-x="519" 
d="M154 340q0 5 -4 5q-3 0 -14 -8.5t-24.5 -20.5t-27.5 -25.5t-23 -23.5h-3q-2 4 -5 9t-3 7t5.5 9.5t12.5 16t13.5 16.5t9.5 11q12 14 28 30.5t32.5 31t32.5 24.5t29 10q22 0 22 -21q0 -10 -8 -36.5t-20.5 -60.5t-26.5 -71.5t-26.5 -70.5t-20.5 -57t-8 -32q0 -5 3 -6.5
t6 -1.5q21 0 53 25.5t67.5 65t69 87t55.5 90.5q14 26 25 48t14 29q4 8 7.5 10t5.5 2t8.5 -2t14.5 -6t14 -9.5t6 -12.5q0 -5 -8.5 -28t-20.5 -55.5t-27 -69.5t-27 -70.5t-20.5 -58.5t-8.5 -32q0 -10 6 -12.5t8 -2.5q13 0 44 24.5t72 91.5h5v-24q0 -8 -2 -13t-12 -22
q-13 -22 -31 -47t-39 -46t-43.5 -34.5t-42.5 -13.5q-13 0 -20 5t-10.5 11.5t-4 12t-0.5 6.5q0 19 10 48t24 63q4 10 13.5 33.5t21 50t21 50t13.5 32.5q-12 -18 -25 -36.5t-29.5 -41t-38.5 -48.5t-51 -59q-15 -17 -34.5 -38t-39.5 -39.5t-39 -31t-33 -12.5q-9 0 -16.5 2.5
t-15.5 6.5q-14 -72 -22.5 -117t-13.5 -64q-6 -20 -17 -26t-34 -6q-8 0 -14.5 3.5t-6.5 14.5t10 39.5t33 92.5q2 6 10 29t19.5 55t25 69t26 71t22 61t14.5 39q2 4 5.5 14t8 21t8.5 20.5t5 12.5z" />
    <glyph glyph-name="paragraph" unicode="&#xb6;" horiz-adv-x="741" 
d="M578 687q-1 -9 -1.5 -17t-0.5 -19.5t-0.5 -29.5t-0.5 -48q36 0 56 1t29.5 5.5t12 13t3.5 23.5q1 5 5.5 14.5t18.5 9.5q11 0 22.5 -6.5t11.5 -23.5q0 -22 -11 -33.5t-31.5 -17.5t-50 -7t-67.5 -2q0 -28 -0.5 -48t-0.5 -43.5t0.5 -56.5t0.5 -87q0 -33 0.5 -74.5t0.5 -84.5
t0.5 -85t0.5 -75q0 -42 -1 -69t-2.5 -44.5t-4 -28t-4.5 -17.5q-9 -35 -33 -58t-59 -23q-27 0 -44.5 14.5t-17.5 37.5q0 19 13 32t30 13q10 0 24 -7q8 -5 13 -6t10 -1q13 0 20.5 6t12 15t6.5 18.5t2 16.5q2 24 3.5 61.5t1.5 92.5q-24 -1 -47.5 -2t-43 -1.5t-33.5 -1t-19 -0.5
q-70 0 -127.5 19.5t-98.5 55t-63 86.5t-22 114q0 54 17 101.5t52 82.5t89 55.5t128 20.5q17 0 39 -0.5t44.5 -1.5t44.5 -2t39 -2q0 26 -0.5 57t-2.5 57h36zM544 72q0 60 -0.5 103t-0.5 78v65v63.5t0.5 73.5t0.5 95q-21 1 -42.5 1t-36.5 -1q-14 -1 -32 -4.5t-23 -21.5
q-2 -6 -3.5 -35.5t-2 -64.5t-0.5 -67.5v-45.5v-45.5v-52t0.5 -51t1.5 -43.5q1 -11 4.5 -23t17.5 -17q8 -3 23.5 -4.5t32.5 -2t33.5 -0.5h26.5z" />
    <glyph glyph-name="periodcentered" unicode="&#xb7;" horiz-adv-x="222" 
d="M112 271q9 0 18 -4.5t16.5 -12t12.5 -16.5t5 -18t-5 -18t-13 -16.5t-17 -12.5t-18 -5q-18 0 -34.5 17t-16.5 34q0 10 5.5 19t13 16.5t17 12t16.5 4.5z" />
    <glyph glyph-name="cedilla" unicode="&#xb8;" horiz-adv-x="500" 
d="M233 7l-43 -50q-2 -3 -8 -11t-6 -10t3 -4.5t14 -11.5q11 -8 17.5 -18t6.5 -21q0 -16 -9 -31.5t-24 -28t-33.5 -20t-37.5 -7.5q-17 0 -29 7t-12 21q0 8 6 14.5t13 6.5q3 0 6 -0.5t12 -5.5q11 -6 18 -7.5t12 -1.5q17 0 27 9.5t10 23.5t-13 24t-18 12q-11 7 -14 11t-3 9
q0 6 3.5 10t17.5 18q17 15 35.5 33t29.5 29h19z" />
    <glyph glyph-name="onesuperior" unicode="&#xb9;" horiz-adv-x="333" 
d="M172 353q4 17 11.5 50.5t15 68t13 63t5.5 34.5q0 8 -7 8q-4 0 -13.5 -2t-19.5 -5t-18 -5t-9 -2q-5 0 -5 10q0 5 3 7.5t16 7.5q15 6 31.5 13t31.5 13.5t26 11.5t15 7q3 2 8 4.5t9 2.5t8 -4t4 -6q0 -3 -5 -17.5t-8 -25.5q-7 -29 -17.5 -75.5t-20 -92t-16 -80.5t-6.5 -41
q0 -15 15.5 -19.5t27.5 -4.5q17 -2 20.5 -2.5t3.5 -4.5q0 -14 -13 -14q-6 0 -19.5 0.5t-29 0.5t-29.5 0.5t-19 0.5q-6 0 -19.5 -0.5t-29 -0.5t-29 -0.5t-18.5 -0.5q-10 0 -10 6q0 10 5.5 12t24.5 4t29.5 5t17 11t10.5 22.5t10 39.5z" />
    <glyph glyph-name="ordmasculine" unicode="&#xba;" horiz-adv-x="352" 
d="M211 516q42 0 61.5 -27.5t19.5 -65.5q0 -28 -10.5 -59t-30.5 -56.5t-48.5 -42.5t-64.5 -17q-31 0 -56 19.5t-25 68.5q0 33 11.5 65t31.5 57.5t48.5 41.5t62.5 16zM202 491q-19 0 -35 -18t-28 -43.5t-18.5 -54t-6.5 -49.5q0 -5 1 -14.5t4 -18.5t9.5 -15.5t17.5 -6.5
q18 0 34.5 16.5t29 41.5t19.5 53t7 52q0 18 -4 29.5t-9 17.5t-11 8t-10 2z" />
    <glyph glyph-name="guillemotright" unicode="&#xbb;" horiz-adv-x="426" 
d="M150 224q-3 6 -15 32.5t-25.5 56.5t-24.5 55t-11 26q0 4 8.5 8.5t10.5 4.5q3 0 14 -15q2 -3 18.5 -25t37 -48.5t39 -50.5t25.5 -31t7 -10q0 -4 -3 -6.5t-17 -13.5q-14 -10 -38.5 -30.5t-50.5 -43t-50.5 -44t-38.5 -35.5q-8 -8 -10.5 -10t-4.5 -2t-9.5 6.5t-7.5 8.5
q0 1 7.5 10t16.5 20t17.5 20.5t10.5 12.5zM317 224q-3 7 -10 22.5t-15 33t-15 32.5t-10 21q-1 3 -5.5 12.5t-9 20t-8 19t-3.5 9.5q0 4 8 8.5t10 4.5q5 0 15 -15q3 -4 19 -26.5t36.5 -48.5t39 -49.5t25.5 -30.5t7 -10q0 -4 -3 -6.5t-17 -13.5q-13 -9 -36.5 -29t-50 -42.5
t-51.5 -45t-40 -36.5q-9 -9 -11.5 -10.5t-4.5 -1.5t-9.5 6.5t-7.5 8.5t10.5 14t42.5 49q5 6 18.5 21t28.5 31.5t28.5 31t18.5 20.5z" />
    <glyph glyph-name="onequarter" unicode="&#xbc;" horiz-adv-x="778" 
d="M721 141q6 2 6 -3q0 -1 -1 -2.5t-1 -2.5l-13 -27q-1 -2 -4 -3t-5 -1h-45l-18 -97q-2 -5 -9 -6l-46 -3q-5 0 -6.5 1t-0.5 6l22 100q-10 0 -33.5 -0.5t-49.5 -0.5t-49.5 -0.5t-32.5 -0.5q-2 0 -4.5 0.5t-2.5 4.5q0 20 12 31l239 239q6 7 8 8.5t5 1.5q2 0 12.5 -7t10.5 -9
l-8 -33q-3 -13 -9 -42t-13 -60t-12.5 -58t-7.5 -37zM610 140l35 165q-53 -56 -97 -99.5t-69 -65.5h131zM285 640q4 0 8 -4t4 -6q0 -1 -1.5 -7t-4 -13t-4.5 -14t-3 -9q-7 -29 -17.5 -75.5t-20 -92t-16 -80.5t-6.5 -41q0 -15 15.5 -19.5t27.5 -4.5q17 -2 20.5 -2.5t3.5 -4.5
q0 -14 -13 -14q-6 0 -19.5 0.5t-29 0.5t-29.5 0.5t-19 0.5q-6 0 -19.5 -0.5t-29 -0.5t-29 -0.5t-18.5 -0.5q-10 0 -10 6q0 10 5.5 12t24.5 4t29.5 5t17 11t10.5 22.5t10 39.5q4 17 11.5 50.5t15 68t13 63t5.5 34.5q0 8 -7 8q-4 0 -13.5 -2t-19.5 -5t-18 -5t-9 -2q-5 0 -5 10
q0 5 3 7.5t16 7.5q15 6 32.5 13.5t33 14.5t27 12t13.5 6t7.5 3.5t7.5 2.5zM650 649q-99 -167 -194 -332.5t-192 -333.5h-37q97 168 196.5 339.5t187.5 326.5h39z" />
    <glyph glyph-name="onehalf" unicode="&#xbd;" horiz-adv-x="778" 
d="M285 640q4 0 8 -4t4 -6q0 -1 -1.5 -7t-4 -13t-4.5 -14t-3 -9q-7 -29 -17.5 -75.5t-20 -92t-16 -80.5t-6.5 -41q0 -15 15.5 -19.5t27.5 -4.5q17 -2 20.5 -2.5t3.5 -4.5q0 -14 -13 -14q-6 0 -19.5 0.5t-29 0.5t-29.5 0.5t-19 0.5q-6 0 -19.5 -0.5t-29 -0.5t-29 -0.5
t-18.5 -0.5q-10 0 -10 6q0 10 5.5 12t24.5 4t29.5 5t17 11t10.5 22.5t10 39.5q4 17 11.5 50.5t15 68t13 63t5.5 34.5q0 8 -7 8q-4 0 -13.5 -2t-19.5 -5t-18 -5t-9 -2q-5 0 -5 10q0 5 3 7.5t16 7.5q15 6 32.5 13.5t33 14.5t27 12t13.5 6t7.5 3.5t7.5 2.5zM622 649
q-60 -102 -110 -187.5t-95.5 -164t-89.5 -155t-91 -159.5h-37q52 89 99 170t93 160.5t93 162t99 173.5h39zM497 -1l-56 -1q-5 1 -8 6.5t-3 7.5t2.5 4t11.5 10q54 46 95 85.5t62 61.5q28 30 41.5 56.5t13.5 52.5q0 27 -16.5 44t-43.5 17q-28 0 -49 -15t-35 -39l-13 -1l1 22
q0 7 9.5 20t26 25.5t38.5 21.5t47 9q42 0 72 -26t30 -70q0 -37 -21 -66.5t-54 -58.5q-12 -11 -46 -39.5t-97 -77.5h31.5h49.5t48.5 1t28.5 3q8 2 12.5 7.5t15.5 23.5q4 6 5.5 7.5t5.5 1.5q2 0 8 -1t6 -5l-3 -7.5t-6.5 -17t-6.5 -18.5l-4 -12q-7 -21 -9.5 -26.5t-9.5 -5.5
h-180z" />
    <glyph glyph-name="threequarters" unicode="&#xbe;" horiz-adv-x="778" 
d="M714 141q5 1 5 -3q0 -3 -2 -5l-12 -27q-2 -2 -4.5 -3t-4.5 -1h-46l-18 -97q0 -5 -9 -6l-45 -3q-4 0 -6.5 1t-1.5 6l23 100q-10 0 -34 -0.5t-50 -0.5t-49 -0.5t-32 -0.5q-2 0 -4.5 0.5t-2.5 4.5q0 2 2 13t7 16l177 176q15 15 35 36t35 36q5 3 7 3q3 0 13 -7t10 -9
q-2 -8 -3 -15t-2.5 -12t-1.5 -6q-10 -43 -19.5 -87.5t-23.5 -109.5zM603 140q2 9 7 32t10.5 49.5t10.5 50t7 33.5q-42 -45 -86.5 -89t-79.5 -76h131zM126 559v17q0 6 9.5 17t25 21.5t36 18t44.5 7.5q23 0 39 -6.5t26 -17t14.5 -23t4.5 -23.5q0 -19 -9 -33.5t-22.5 -25.5
t-30 -20t-32.5 -17q41 -1 62.5 -25.5t21.5 -58.5q0 -30 -15 -55.5t-40 -45t-57 -30.5t-67 -11t-54.5 12.5t-19.5 25.5q0 11 11 19t19 8q6 0 12.5 -5t15 -11.5t20.5 -11.5t31 -5q23 0 38 11t24 26t13 31.5t4 28.5q0 26 -16.5 44.5t-48.5 18.5q-17 0 -24.5 -3.5t-14.5 -3.5
q-5 0 -8 5.5t-3 7.5q0 3 3.5 4.5t6.5 3.5q2 1 12.5 5.5t24 11.5t27 14.5t21.5 14.5q20 17 25 32.5t5 23.5q0 13 -10 29t-36 16q-28 0 -47 -16t-28 -26h-13zM633 649q-99 -167 -194 -332.5t-192 -333.5h-37q97 168 192.5 333t191.5 333h39z" />
    <glyph glyph-name="questiondown" unicode="&#xbf;" horiz-adv-x="407" 
d="M155 257l9 10q3 5 5 5.5t4 0.5q3 0 20.5 -4t37.5 -12q21 -8 41.5 -26t20.5 -48q0 -40 -34.5 -72.5t-101.5 -79.5q-22 -16 -42 -31t-35.5 -30.5t-24.5 -31t-9 -32.5q0 -28 27.5 -50.5t72.5 -22.5q36 0 73 17q14 7 18 8.5t9 1.5q15 0 23 -16t8 -26q0 -11 -9.5 -19.5
t-23.5 -14.5t-30 -9t-30 -3q-36 0 -70 14.5t-60 37.5t-41.5 52.5t-15.5 59.5q0 25 9.5 45.5t27.5 39t43.5 38t57.5 41.5q42 29 69.5 54t27.5 48q0 12 -7 21t-18.5 15t-25 10t-26.5 6v3zM259 326q-9 0 -18 5t-16.5 12.5t-12 16.5t-4.5 16q0 9 5 18.5t12.5 17t17 12t17.5 4.5
q9 0 17.5 -5.5t16 -13.5t12 -17t4.5 -15q0 -7 -4.5 -16t-12 -17t-16.5 -13t-18 -5z" />
    <glyph glyph-name="Agrave" unicode="&#xc0;" horiz-adv-x="630" 
d="M457 721q1 -2 3.5 -5.5t2.5 -4.5q0 -2 -6.5 -5t-8.5 -3t-3 0.5t-5 3.5l-131 91q-19 12 -19 23q0 9 5.5 12.5t20.5 8.5q8 3 18.5 6.5t13.5 3.5q6 0 16 -13zM212 231q-9 -15 -23 -41t-27.5 -53.5t-23.5 -51.5t-10 -36q0 -17 18 -20.5t50 -5.5q2 0 4 -1.5t2 -8.5
q0 -15 -12 -15q-20 0 -46 1.5t-59 1.5q-35 0 -59 -1.5t-35 -1.5q-5 0 -8.5 1t-3.5 6q0 12 5.5 14.5t15.5 4.5q13 2 23.5 8t22.5 20.5t28 39t40 61.5q56 89 103.5 165.5t84.5 137.5t62 104.5t35 65.5q3 6 13 9l35 9q5 1 6.5 -5.5t5.5 -35.5q3 -18 9 -62t14.5 -101
t17.5 -119.5t18 -117t15.5 -94t10.5 -50.5q4 -13 8.5 -20t10.5 -10.5t14.5 -4.5t21.5 -2q8 -1 8 -12q0 -8 -5 -10t-9 -2q-20 0 -42.5 1.5t-62.5 1.5q-45 0 -71 -1.5t-43 -1.5q-5 0 -9.5 1t-4.5 6q0 19 14 20q22 2 36.5 3.5t23.5 5.5t13 12.5t4 23.5q0 9 -2 30.5t-5 46.5
t-6 48t-5 36h-221zM428 265q-4 29 -8.5 64.5t-9.5 73t-10 73.5t-9 64q-18 -31 -42 -72t-47 -81t-42 -73t-28 -49h196z" />
    <glyph glyph-name="Aacute" unicode="&#xc1;" horiz-adv-x="630" 
d="M424 706q-4 -2 -4.5 -2.5t-2.5 -0.5q-1 0 -7 2t-6 4t0.5 2.5t4.5 3.5l139 120q11 10 15.5 12t8.5 2q2 0 10.5 -1.5t18 -5t17.5 -8.5t8 -11q0 -8 -7 -13t-11 -7zM212 231q-9 -15 -23 -41t-27.5 -53.5t-23.5 -51.5t-10 -36q0 -17 18 -20.5t50 -5.5q2 0 4 -1.5t2 -8.5
q0 -15 -12 -15q-20 0 -46 1.5t-59 1.5q-35 0 -59 -1.5t-35 -1.5q-5 0 -8.5 1t-3.5 6q0 12 5.5 14.5t15.5 4.5q13 2 23.5 8t22.5 20.5t28 39t40 61.5q56 89 103.5 165.5t84.5 137.5t62 104.5t35 65.5q3 6 13 9l35 9q5 1 6.5 -5.5t5.5 -35.5q3 -18 9 -62t14.5 -101
t17.5 -119.5t18 -117t15.5 -94t10.5 -50.5q4 -13 8.5 -20t10.5 -10.5t14.5 -4.5t21.5 -2q8 -1 8 -12q0 -8 -5 -10t-9 -2q-20 0 -42.5 1.5t-62.5 1.5q-45 0 -71 -1.5t-43 -1.5q-5 0 -9.5 1t-4.5 6q0 19 14 20q22 2 36.5 3.5t23.5 5.5t13 12.5t4 23.5q0 9 -2 30.5t-5 46.5
t-6 48t-5 36h-221zM428 265q-4 29 -8.5 64.5t-9.5 73t-10 73.5t-9 64q-18 -31 -42 -72t-47 -81t-42 -73t-28 -49h196z" />
    <glyph glyph-name="Acircumflex" unicode="&#xc2;" horiz-adv-x="630" 
d="M458 808q-18 -13 -42.5 -31.5t-47 -35.5t-39 -28.5t-18.5 -11.5q-3 0 -7 5t-4 7t6.5 9t12.5 12q7 6 22.5 22t32 34t31.5 33.5t20 21.5q22 26 28.5 32t16.5 6q6 0 10 -1.5t7.5 -6.5t8.5 -15.5t12 -27.5q2 -4 10 -19t16.5 -31.5t15.5 -30t8 -15.5q2 -3 7.5 -11.5t5.5 -11.5
t-5 -7.5t-7 -4.5t-4.5 2.5t-12.5 13.5q-5 6 -17 19t-25.5 27.5t-25 27t-16.5 17.5zM212 231q-9 -15 -23 -41t-27.5 -53.5t-23.5 -51.5t-10 -36q0 -17 18 -20.5t50 -5.5q2 0 4 -1.5t2 -8.5q0 -15 -12 -15q-20 0 -46 1.5t-59 1.5q-35 0 -59 -1.5t-35 -1.5q-5 0 -8.5 1t-3.5 6
q0 12 5.5 14.5t15.5 4.5q13 2 23.5 8t22.5 20.5t28 39t40 61.5q56 89 103.5 165.5t84.5 137.5t62 104.5t35 65.5q3 6 13 9l35 9q5 1 6.5 -5.5t5.5 -35.5q3 -18 9 -62t14.5 -101t17.5 -119.5t18 -117t15.5 -94t10.5 -50.5q4 -13 8.5 -20t10.5 -10.5t14.5 -4.5t21.5 -2
q8 -1 8 -12q0 -8 -5 -10t-9 -2q-20 0 -42.5 1.5t-62.5 1.5q-45 0 -71 -1.5t-43 -1.5q-5 0 -9.5 1t-4.5 6q0 19 14 20q22 2 36.5 3.5t23.5 5.5t13 12.5t4 23.5q0 9 -2 30.5t-5 46.5t-6 48t-5 36h-221zM428 265q-4 29 -8.5 64.5t-9.5 73t-10 73.5t-9 64q-18 -31 -42 -72
t-47 -81t-42 -73t-28 -49h196z" />
    <glyph glyph-name="Atilde" unicode="&#xc3;" horiz-adv-x="630" 
d="M615 821q5 -5 6.5 -6t1.5 -3q0 -1 -4.5 -7t-10.5 -13.5t-11.5 -14.5t-7.5 -9q-23 -29 -39.5 -42t-34.5 -13q-17 0 -31.5 8t-40.5 26q-17 11 -28.5 16.5t-25.5 5.5q-23 0 -37.5 -12t-27.5 -27q-1 -1 -7.5 -8.5t-8.5 -7.5q-1 0 -7 5t-6 7q0 3 12.5 19.5t23.5 30.5
q17 22 32.5 36.5t36.5 14.5q12 0 30.5 -9.5t48.5 -29.5q20 -13 29.5 -17t20.5 -4q20 0 34.5 12t28.5 29q5 5 10 11t6 6zM212 231q-9 -15 -23 -41t-27.5 -53.5t-23.5 -51.5t-10 -36q0 -17 18 -20.5t50 -5.5q2 0 4 -1.5t2 -8.5q0 -15 -12 -15q-20 0 -46 1.5t-59 1.5
q-35 0 -59 -1.5t-35 -1.5q-5 0 -8.5 1t-3.5 6q0 12 5.5 14.5t15.5 4.5q13 2 23.5 8t22.5 20.5t28 39t40 61.5q56 89 103.5 165.5t84.5 137.5t62 104.5t35 65.5q3 6 13 9l35 9q5 1 6.5 -5.5t5.5 -35.5q3 -18 9 -62t14.5 -101t17.5 -119.5t18 -117t15.5 -94t10.5 -50.5
q4 -13 8.5 -20t10.5 -10.5t14.5 -4.5t21.5 -2q8 -1 8 -12q0 -8 -5 -10t-9 -2q-20 0 -42.5 1.5t-62.5 1.5q-45 0 -71 -1.5t-43 -1.5q-5 0 -9.5 1t-4.5 6q0 19 14 20q22 2 36.5 3.5t23.5 5.5t13 12.5t4 23.5q0 9 -2 30.5t-5 46.5t-6 48t-5 36h-221zM428 265q-4 29 -8.5 64.5
t-9.5 73t-10 73.5t-9 64q-18 -31 -42 -72t-47 -81t-42 -73t-28 -49h196z" />
    <glyph glyph-name="Adieresis" unicode="&#xc4;" horiz-adv-x="630" 
d="M212 231q-9 -15 -23 -41t-27.5 -53.5t-23.5 -51.5t-10 -36q0 -17 18 -20.5t50 -5.5q2 0 4 -1.5t2 -8.5q0 -15 -12 -15q-20 0 -46 1.5t-59 1.5q-35 0 -59 -1.5t-35 -1.5q-5 0 -8.5 1t-3.5 6q0 12 5.5 14.5t15.5 4.5q13 2 23.5 8t22.5 20.5t28 39t40 61.5
q56 89 103.5 165.5t84.5 137.5t62 104.5t35 65.5q3 6 13 9l35 9q5 1 6.5 -5.5t5.5 -35.5q3 -18 9 -62t14.5 -101t17.5 -119.5t18 -117t15.5 -94t10.5 -50.5q4 -13 8.5 -20t10.5 -10.5t14.5 -4.5t21.5 -2q8 -1 8 -12q0 -8 -5 -10t-9 -2q-20 0 -42.5 1.5t-62.5 1.5
q-45 0 -71 -1.5t-43 -1.5q-5 0 -9.5 1t-4.5 6q0 19 14 20q22 2 36.5 3.5t23.5 5.5t13 12.5t4 23.5q0 9 -2 30.5t-5 46.5t-6 48t-5 36h-221zM428 265q-4 29 -8.5 64.5t-9.5 73t-10 73.5t-9 64q-18 -31 -42 -72t-47 -81t-42 -73t-28 -49h196zM346 802q15 0 30 -14t15 -30
q0 -15 -14 -29.5t-28 -14.5q-5 0 -13 3t-15.5 8.5t-12.5 13.5t-5 18q0 16 13 30.5t30 14.5zM542 802q16 0 30.5 -14t14.5 -30q0 -15 -13.5 -29.5t-28.5 -14.5q-5 0 -12.5 3t-15 8.5t-12.5 13.5t-5 18q0 16 12.5 30.5t29.5 14.5z" />
    <glyph glyph-name="Aring" unicode="&#xc5;" horiz-adv-x="630" 
d="M435 691q-16 0 -33 4.5t-30.5 14t-22 25t-8.5 36.5q0 19 7.5 37t22 31.5t35 21.5t45.5 8q14 0 31 -4t31.5 -13t24.5 -24.5t10 -39.5q0 -39 -29.5 -68t-83.5 -29zM437 715q17 0 28.5 7.5t18.5 18.5t10 24t3 24q0 29 -14 42.5t-33 13.5q-15 0 -26 -7t-18 -17.5t-10.5 -24
t-3.5 -25.5q0 -30 14.5 -43t30.5 -13zM212 231q-9 -15 -23 -41t-27.5 -53.5t-23.5 -51.5t-10 -36q0 -17 18 -20.5t50 -5.5q2 0 4 -1.5t2 -8.5q0 -15 -12 -15q-20 0 -46 1.5t-59 1.5q-35 0 -59 -1.5t-35 -1.5q-5 0 -8.5 1t-3.5 6q0 12 5.5 14.5t15.5 4.5q13 2 23.5 8
t22.5 20.5t28 39t40 61.5q56 89 103.5 165.5t84.5 137.5t62 104.5t35 65.5q3 6 13 9l35 9q5 1 6.5 -5.5t5.5 -35.5q3 -18 9 -62t14.5 -101t17.5 -119.5t18 -117t15.5 -94t10.5 -50.5q4 -13 8.5 -20t10.5 -10.5t14.5 -4.5t21.5 -2q8 -1 8 -12q0 -8 -5 -10t-9 -2
q-20 0 -42.5 1.5t-62.5 1.5q-45 0 -71 -1.5t-43 -1.5q-5 0 -9.5 1t-4.5 6q0 19 14 20q22 2 36.5 3.5t23.5 5.5t13 12.5t4 23.5q0 9 -2 30.5t-5 46.5t-6 48t-5 36h-221zM428 265q-4 29 -8.5 64.5t-9.5 73t-10 73.5t-9 64q-18 -31 -42 -72t-47 -81t-42 -73t-28 -49h196z" />
    <glyph glyph-name="AE" unicode="&#xc6;" horiz-adv-x="870" 
d="M274 274q-13 -16 -29 -36.5t-32 -42t-32 -42t-29 -36.5q-11 -14 -23 -32.5t-12 -32.5q0 -15 10 -20t33 -7q17 -2 21.5 -2.5t4.5 -5.5q0 -19 -13 -19q-26 0 -50 2t-49 2q-28 0 -46.5 -0.5t-30.5 -1.5t-19.5 -1.5t-13.5 -0.5q-5 0 -7.5 1.5t-2.5 8.5q0 10 4.5 12.5
t24.5 6.5q7 2 13.5 5t15 9.5t20 19t29.5 31.5q91 98 178 197t171 203q11 14 27 33.5t27 33.5q9 12 12 18.5t3 12.5q0 14 -13.5 17t-30.5 4q-19 0 -19 7t3.5 12.5t9.5 5.5q36 0 91.5 -1t142.5 -1q61 0 101 0.5t65 0.5t38 0.5t20 0.5q8 0 13.5 -1t5.5 -6t-4.5 -13.5
t-7.5 -17.5q-3 -10 -7.5 -24.5t-9 -29.5t-8.5 -29.5t-6 -23.5q-2 -10 -4.5 -12t-8.5 -2q-8 0 -10 1.5t-2 6.5q0 2 0.5 8t1.5 12.5t1.5 12.5t0.5 8q0 23 -5 37.5t-23.5 23.5t-54 12.5t-95.5 3.5h-12.5t-17.5 -0.5t-16 -1t-9 -2.5q-1 -1 -6 -18.5t-11 -43t-13 -56t-13 -58
t-11 -48.5t-6 -28q9 0 34.5 -1t54.5 0t55.5 4t38.5 10q15 10 24.5 26t12.5 26q3 8 5.5 9.5t5.5 1.5t9 -0.5t6 -5.5q0 -1 -3 -11t-6.5 -22t-7 -23.5t-4.5 -15.5q-2 -7 -5.5 -23.5t-7 -35t-6.5 -34.5t-5 -22q-3 -10 -13 -10q-11 0 -11 8t0.5 17t0.5 15q-2 32 -14.5 41
t-37.5 11q-9 1 -18.5 1.5t-23.5 0.5h-35.5h-54.5q-2 -8 -9 -40t-14.5 -69.5t-13.5 -72t-6 -48.5q0 -15 4 -24t16.5 -14.5t35.5 -7.5t60 -2q32 0 57 2t46.5 10.5t40 26t36.5 48.5q4 7 8 15.5t8 16.5q3 8 5.5 9t10.5 -2q8 -4 8 -9q0 -4 -4 -17.5t-9.5 -29.5t-11 -30.5
t-8.5 -20.5q-15 -37 -19.5 -47t-12.5 -10q-10 0 -26.5 0.5t-43 1.5t-66 1.5t-95.5 0.5q-39 0 -69.5 -0.5t-54.5 -1.5t-44 -1.5t-39 -0.5q-13 0 -17 1t-4 5q0 13 4.5 15t21.5 4q6 1 16 2.5t20.5 5.5t20 11t14.5 18q4 7 7 16.5t8.5 31.5t13.5 61t22 105h-186zM468 306
q2 10 7.5 38t13 63t15.5 72t14 65q2 9 4 17t7 24q-4 -5 -20.5 -24.5t-39 -47t-48.5 -59.5t-50 -61.5t-43 -53t-27 -33.5h167z" />
    <glyph glyph-name="Ccedilla" unicode="&#xc7;" horiz-adv-x="611" 
d="M331 -10q-20 2 -46 5.5t-57 15.5q-35 14 -65 37.5t-52.5 57t-35 76.5t-12.5 96q0 83 29 150.5t80 115.5t119 74t146 26q29 0 65.5 -3.5t65.5 -8.5q2 0 8 -1t13 -2t13 -2t7 -1q2 0 8 2.5t8 2.5q3 0 7 -1.5t4 -5.5l-12 -41q-8 -35 -12.5 -61.5t-6.5 -39.5q0 -9 -3 -11
t-7 -2q-10 0 -12.5 2.5t-2.5 9.5q0 22 -1 39.5t-8 31.5q-4 8 -15 18t-29 19t-43.5 15t-57.5 6q-64 0 -115.5 -27.5t-87.5 -74t-55.5 -106t-19.5 -124.5q0 -64 17.5 -112t47 -80.5t68.5 -49t82 -16.5q6 0 27 1.5t47.5 11.5t53.5 30.5t46 57.5q1 2 4 9.5t5 9.5q3 3 6 3
q2 0 9 -2.5t7 -6.5q0 -2 -3 -10t-4 -10q-3 -7 -7 -19t-8 -25.5t-7.5 -26t-5.5 -19.5t-5 -8.5t-15 -5.5q-50 -13 -84.5 -17t-73.5 -4q-3 -3 -10 -11.5t-14.5 -17.5t-13 -17t-5.5 -9q0 -2 3 -5t14 -12q7 -5 17.5 -16t10.5 -28q0 -18 -10 -35.5t-26.5 -31t-37.5 -21.5t-42 -8
q-18 0 -31 8t-13 22q0 9 6.5 16t14.5 7q5 0 7.5 -1.5t12.5 -6.5q18 -8 32 -8q20 0 31.5 11.5t11.5 25.5t-11.5 24.5t-23.5 18.5q-13 8 -16 12t-3 8q0 6 4.5 11t27.5 26z" />
    <glyph glyph-name="Egrave" unicode="&#xc8;" horiz-adv-x="574" 
d="M431 721q1 -2 4 -5.5t3 -4.5q0 -2 -7 -5t-9 -3t-3 0.5t-5 3.5l-131 91q-19 12 -19 23q0 9 5.5 12.5t21.5 8.5q8 3 18.5 6.5t12.5 3.5q7 0 17 -13zM416 265q-4 26 -20 35t-48 11q-14 1 -47 1.5t-73 0.5q-8 -38 -16 -77t-14.5 -73t-10.5 -59t-4 -35q0 -18 12.5 -26.5
t50.5 -8.5h69t42 1t26 3.5t22 6.5q23 8 39.5 22t27.5 29.5t17.5 29.5t9.5 22q4 11 6.5 12.5t4.5 1.5q4 0 10.5 -2.5t6.5 -7.5t-8 -29t-18 -51t-20 -49t-14 -24q-2 0 -3 -0.5t-3 -0.5q-9 0 -31 0.5t-46.5 0.5t-46 0.5t-29.5 0.5l-91 1q-12 0 -41.5 -0.5t-62.5 -1t-61.5 -1
t-39.5 -0.5q-13 0 -15.5 1.5t-2.5 6.5q0 11 5 13.5t23 4.5q25 3 39.5 9.5t23 17.5t13.5 26t9 34q7 29 17 72.5t20.5 92t21 97.5t19 89.5t13.5 69t5 34.5q0 22 -15 31.5t-47 12.5q-19 2 -23 2.5t-4 4.5q0 2 1.5 9.5t9.5 7.5q56 0 110 -1t100 -1q41 0 82.5 0.5t76 0.5
t58.5 0.5t29 0.5q11 0 11 -9q0 -2 -3 -11t-6.5 -20t-7 -21t-4.5 -14t-4.5 -15t-6.5 -23t-6 -22t-4 -14q-2 -5 -3 -7t-6 -2q-10 0 -11.5 2.5t-1.5 5.5q0 2 0.5 8t0.5 13.5t0.5 14.5t0.5 10q0 22 -7 36t-26.5 22.5t-54 12t-90.5 3.5h-12t-18.5 -0.5t-17 -1t-9.5 -1.5
q-2 -2 -3.5 -7.5t-6.5 -23.5q-13 -56 -25.5 -112t-24.5 -113q59 0 94 0.5t54.5 3t29 7t18.5 12.5q8 8 12.5 15.5t17.5 32.5q3 6 8 6t9.5 -1t4.5 -6q0 -1 -3 -11.5t-6.5 -23.5t-6.5 -25t-4 -15q-5 -19 -8 -32t-6 -24.5t-5.5 -24.5t-5.5 -31q-1 -9 -8 -9q-11 0 -13 3t-2 6z
" />
    <glyph glyph-name="Eacute" unicode="&#xc9;" horiz-adv-x="574" 
d="M348 706q-4 -2 -4.5 -2.5t-2.5 -0.5q-1 0 -7 2t-6 4t0.5 2.5t4.5 3.5l139 120q11 10 15.5 12t8.5 2q1 0 9.5 -1.5t18 -5t17.5 -8.5t8 -11q0 -8 -6.5 -13t-10.5 -7zM416 265q-4 26 -20 35t-48 11q-14 1 -47 1.5t-73 0.5q-8 -38 -16 -77t-14.5 -73t-10.5 -59t-4 -35
q0 -18 12.5 -26.5t50.5 -8.5h69t42 1t26 3.5t22 6.5q23 8 39.5 22t27.5 29.5t17.5 29.5t9.5 22q4 11 6.5 12.5t4.5 1.5q4 0 10.5 -2.5t6.5 -7.5t-8 -29t-18 -51t-20 -49t-14 -24q-2 0 -3 -0.5t-3 -0.5q-9 0 -31 0.5t-46.5 0.5t-46 0.5t-29.5 0.5l-91 1q-12 0 -41.5 -0.5
t-62.5 -1t-61.5 -1t-39.5 -0.5q-13 0 -15.5 1.5t-2.5 6.5q0 11 5 13.5t23 4.5q25 3 39.5 9.5t23 17.5t13.5 26t9 34q7 29 17 72.5t20.5 92t21 97.5t19 89.5t13.5 69t5 34.5q0 22 -15 31.5t-47 12.5q-19 2 -23 2.5t-4 4.5q0 2 1.5 9.5t9.5 7.5q56 0 110 -1t100 -1
q41 0 82.5 0.5t76 0.5t58.5 0.5t29 0.5q11 0 11 -9q0 -2 -3 -11t-6.5 -20t-7 -21t-4.5 -14t-4.5 -15t-6.5 -23t-6 -22t-4 -14q-2 -5 -3 -7t-6 -2q-10 0 -11.5 2.5t-1.5 5.5q0 2 0.5 8t0.5 13.5t0.5 14.5t0.5 10q0 22 -7 36t-26.5 22.5t-54 12t-90.5 3.5h-12t-18.5 -0.5
t-17 -1t-9.5 -1.5q-2 -2 -3.5 -7.5t-6.5 -23.5q-13 -56 -25.5 -112t-24.5 -113q59 0 94 0.5t54.5 3t29 7t18.5 12.5q8 8 12.5 15.5t17.5 32.5q3 6 8 6t9.5 -1t4.5 -6q0 -1 -3 -11.5t-6.5 -23.5t-6.5 -25t-4 -15q-5 -19 -8 -32t-6 -24.5t-5.5 -24.5t-5.5 -31q-1 -9 -8 -9
q-11 0 -13 3t-2 6z" />
    <glyph glyph-name="Ecircumflex" unicode="&#xca;" horiz-adv-x="574" 
d="M410 808q-13 -10 -37 -28t-48 -35.5t-42 -30.5t-20 -13q-3 0 -7 5t-4 6q0 3 2 6t16 16l21.5 21.5t33 33.5t32.5 34t20 22q22 26 28.5 32t15.5 6q6 0 10 -1.5t8 -6.5t9 -15.5t12 -27.5q3 -7 13.5 -26.5t21.5 -40t19.5 -36.5l8.5 -16q0 -3 -5 -7.5t-7 -4.5t-4.5 2.5
t-12.5 13.5zM416 265q-4 26 -20 35t-48 11q-14 1 -47 1.5t-73 0.5q-8 -38 -16 -77t-14.5 -73t-10.5 -59t-4 -35q0 -18 12.5 -26.5t50.5 -8.5h69t42 1t26 3.5t22 6.5q23 8 39.5 22t27.5 29.5t17.5 29.5t9.5 22q4 11 6.5 12.5t4.5 1.5q4 0 10.5 -2.5t6.5 -7.5t-8 -29t-18 -51
t-20 -49t-14 -24q-2 0 -3 -0.5t-3 -0.5q-9 0 -31 0.5t-46.5 0.5t-46 0.5t-29.5 0.5l-91 1q-12 0 -41.5 -0.5t-62.5 -1t-61.5 -1t-39.5 -0.5q-13 0 -15.5 1.5t-2.5 6.5q0 11 5 13.5t23 4.5q25 3 39.5 9.5t23 17.5t13.5 26t9 34q7 29 17 72.5t20.5 92t21 97.5t19 89.5t13.5 69
t5 34.5q0 22 -15 31.5t-47 12.5q-19 2 -23 2.5t-4 4.5q0 2 1.5 9.5t9.5 7.5q56 0 110 -1t100 -1q41 0 82.5 0.5t76 0.5t58.5 0.5t29 0.5q11 0 11 -9q0 -2 -3 -11t-6.5 -20t-7 -21t-4.5 -14t-4.5 -15t-6.5 -23t-6 -22t-4 -14q-2 -5 -3 -7t-6 -2q-10 0 -11.5 2.5t-1.5 5.5
q0 2 0.5 8t0.5 13.5t0.5 14.5t0.5 10q0 22 -7 36t-26.5 22.5t-54 12t-90.5 3.5h-12t-18.5 -0.5t-17 -1t-9.5 -1.5q-2 -2 -3.5 -7.5t-6.5 -23.5q-13 -56 -25.5 -112t-24.5 -113q59 0 94 0.5t54.5 3t29 7t18.5 12.5q8 8 12.5 15.5t17.5 32.5q3 6 8 6t9.5 -1t4.5 -6
q0 -1 -3 -11.5t-6.5 -23.5t-6.5 -25t-4 -15q-5 -19 -8 -32t-6 -24.5t-5.5 -24.5t-5.5 -31q-1 -9 -8 -9q-11 0 -13 3t-2 6z" />
    <glyph glyph-name="Edieresis" unicode="&#xcb;" horiz-adv-x="574" 
d="M292 802q16 0 30.5 -14t14.5 -30q0 -15 -14 -29.5t-28 -14.5q-5 0 -12.5 3t-15 8.5t-13 13.5t-5.5 18q0 16 13 30.5t30 14.5zM489 802q15 0 29.5 -14t14.5 -30q0 -15 -14 -29.5t-28 -14.5q-5 0 -12.5 3t-15 8.5t-12.5 13.5t-5 18q0 16 13 30.5t30 14.5zM416 265
q-4 26 -20 35t-48 11q-14 1 -47 1.5t-73 0.5q-8 -38 -16 -77t-14.5 -73t-10.5 -59t-4 -35q0 -18 12.5 -26.5t50.5 -8.5h69t42 1t26 3.5t22 6.5q23 8 39.5 22t27.5 29.5t17.5 29.5t9.5 22q4 11 6.5 12.5t4.5 1.5q4 0 10.5 -2.5t6.5 -7.5t-8 -29t-18 -51t-20 -49t-14 -24
q-2 0 -3 -0.5t-3 -0.5q-9 0 -31 0.5t-46.5 0.5t-46 0.5t-29.5 0.5l-91 1q-12 0 -41.5 -0.5t-62.5 -1t-61.5 -1t-39.5 -0.5q-13 0 -15.5 1.5t-2.5 6.5q0 11 5 13.5t23 4.5q25 3 39.5 9.5t23 17.5t13.5 26t9 34q7 29 17 72.5t20.5 92t21 97.5t19 89.5t13.5 69t5 34.5
q0 22 -15 31.5t-47 12.5q-19 2 -23 2.5t-4 4.5q0 2 1.5 9.5t9.5 7.5q56 0 110 -1t100 -1q41 0 82.5 0.5t76 0.5t58.5 0.5t29 0.5q11 0 11 -9q0 -2 -3 -11t-6.5 -20t-7 -21t-4.5 -14t-4.5 -15t-6.5 -23t-6 -22t-4 -14q-2 -5 -3 -7t-6 -2q-10 0 -11.5 2.5t-1.5 5.5q0 2 0.5 8
t0.5 13.5t0.5 14.5t0.5 10q0 22 -7 36t-26.5 22.5t-54 12t-90.5 3.5h-12t-18.5 -0.5t-17 -1t-9.5 -1.5q-2 -2 -3.5 -7.5t-6.5 -23.5q-13 -56 -25.5 -112t-24.5 -113q59 0 94 0.5t54.5 3t29 7t18.5 12.5q8 8 12.5 15.5t17.5 32.5q3 6 8 6t9.5 -1t4.5 -6q0 -1 -3 -11.5
t-6.5 -23.5t-6.5 -25t-4 -15q-5 -19 -8 -32t-6 -24.5t-5.5 -24.5t-5.5 -31q-1 -9 -8 -9q-11 0 -13 3t-2 6z" />
    <glyph glyph-name="Igrave" unicode="&#xcc;" horiz-adv-x="333" 
d="M299 721q1 -2 4 -5.5t3 -4.5q0 -2 -6.5 -5t-8.5 -3t-3 0.5t-6 3.5l-131 91q-10 7 -14 11.5t-4 11.5q0 9 5 12.5t21 8.5q8 3 18.5 6.5t13.5 3.5q6 0 16 -13zM262 482q-11 -48 -28 -127t-39 -190q-8 -39 -11.5 -61.5t-3.5 -37.5q0 -24 17.5 -31.5t44.5 -10.5q18 -2 22.5 -3
t4.5 -6q0 -3 -1.5 -10t-10.5 -7q-34 0 -67 1.5t-70 1.5q-33 0 -55 -0.5t-36.5 -1t-23 -1t-14.5 -0.5q-3 0 -7 1t-4 6q0 11 6 13.5t30 4.5q26 2 41.5 8t26 21.5t18.5 45t19 79.5q2 9 8.5 38t14.5 68.5t17.5 84.5t17 85.5t12.5 71.5t5 43q0 26 -15 33.5t-42 10.5
q-16 2 -19 2.5t-3 4.5q0 11 3.5 13.5t7.5 2.5q7 0 31 -1.5t78 -1.5q45 0 78 1.5t64 1.5q2 0 5 -1t3 -6q0 -11 -6 -13.5t-29 -4.5t-36.5 -7t-22 -18.5t-15.5 -38t-16 -64.5z" />
    <glyph glyph-name="Iacute" unicode="&#xcd;" horiz-adv-x="333" 
d="M256 706q-5 -2 -5.5 -2.5t-1.5 -0.5q-2 0 -8 2t-6 4t5 6l140 120q11 10 15 12t8 2q2 0 10.5 -1.5t18 -5t17.5 -8.5t8 -11q0 -8 -6.5 -12.5t-11.5 -7.5zM262 482q-11 -48 -28 -127t-39 -190q-8 -39 -11.5 -61.5t-3.5 -37.5q0 -24 17.5 -31.5t44.5 -10.5q18 -2 22.5 -3
t4.5 -6q0 -3 -1.5 -10t-10.5 -7q-34 0 -67 1.5t-70 1.5q-33 0 -55 -0.5t-36.5 -1t-23 -1t-14.5 -0.5q-3 0 -7 1t-4 6q0 11 6 13.5t30 4.5q26 2 41.5 8t26 21.5t18.5 45t19 79.5q2 9 8.5 38t14.5 68.5t17.5 84.5t17 85.5t12.5 71.5t5 43q0 26 -15 33.5t-42 10.5
q-16 2 -19 2.5t-3 4.5q0 11 3.5 13.5t7.5 2.5q7 0 31 -1.5t78 -1.5q45 0 78 1.5t64 1.5q2 0 5 -1t3 -6q0 -11 -6 -13.5t-29 -4.5t-36.5 -7t-22 -18.5t-15.5 -38t-16 -64.5z" />
    <glyph glyph-name="Icircumflex" unicode="&#xce;" horiz-adv-x="333" 
d="M295 808q-18 -13 -42.5 -31.5t-47 -35.5t-39 -28.5t-18.5 -11.5q-3 0 -7 5t-4 7t6.5 9t12.5 12q7 6 22 21.5t31.5 33t31.5 33.5t21 23q22 26 28.5 32t16.5 6q6 0 10 -1.5t7.5 -6.5t8.5 -15.5t13 -27.5q2 -5 8.5 -18.5t15 -29t16 -29.5t10.5 -20q2 -2 7 -11t5 -11
q0 -3 -5 -7.5t-7 -4.5t-4.5 2.5t-12.5 13.5q-5 6 -17 19t-25.5 27.5t-25 27t-16.5 17.5zM262 482q-11 -48 -28 -127t-39 -190q-8 -39 -11.5 -61.5t-3.5 -37.5q0 -24 17.5 -31.5t44.5 -10.5q18 -2 22.5 -3t4.5 -6q0 -3 -1.5 -10t-10.5 -7q-34 0 -67 1.5t-70 1.5
q-33 0 -55 -0.5t-36.5 -1t-23 -1t-14.5 -0.5q-3 0 -7 1t-4 6q0 11 6 13.5t30 4.5q26 2 41.5 8t26 21.5t18.5 45t19 79.5q2 9 8.5 38t14.5 68.5t17.5 84.5t17 85.5t12.5 71.5t5 43q0 26 -15 33.5t-42 10.5q-16 2 -19 2.5t-3 4.5q0 11 3.5 13.5t7.5 2.5q7 0 31 -1.5t78 -1.5
q45 0 78 1.5t64 1.5q2 0 5 -1t3 -6q0 -11 -6 -13.5t-29 -4.5t-36.5 -7t-22 -18.5t-15.5 -38t-16 -64.5z" />
    <glyph glyph-name="Idieresis" unicode="&#xcf;" horiz-adv-x="333" 
d="M183 802q16 0 30.5 -14t14.5 -30q0 -15 -14 -29.5t-28 -14.5q-5 0 -13 3t-15.5 8.5t-12.5 13.5t-5 18q0 17 13 31t30 14zM379 802q16 0 30.5 -14t14.5 -30q0 -15 -14 -29.5t-28 -14.5q-5 0 -12.5 3t-15 8.5t-12.5 13.5t-5 18q0 16 12.5 30.5t29.5 14.5zM262 482
q-11 -48 -28 -127t-39 -190q-8 -39 -11.5 -61.5t-3.5 -37.5q0 -24 17.5 -31.5t44.5 -10.5q18 -2 22.5 -3t4.5 -6q0 -3 -1.5 -10t-10.5 -7q-34 0 -67 1.5t-70 1.5q-33 0 -55 -0.5t-36.5 -1t-23 -1t-14.5 -0.5q-3 0 -7 1t-4 6q0 11 6 13.5t30 4.5q26 2 41.5 8t26 21.5t18.5 45
t19 79.5q2 9 8.5 38t14.5 68.5t17.5 84.5t17 85.5t12.5 71.5t5 43q0 26 -15 33.5t-42 10.5q-16 2 -19 2.5t-3 4.5q0 11 3.5 13.5t7.5 2.5q7 0 31 -1.5t78 -1.5q45 0 78 1.5t64 1.5q2 0 5 -1t3 -6q0 -11 -6 -13.5t-29 -4.5t-36.5 -7t-22 -18.5t-15.5 -38t-16 -64.5z" />
    <glyph glyph-name="Eth" unicode="&#xd0;" horiz-adv-x="704" 
d="M69 314q-5 0 -4 5l6 26q1 4 5 4h78q3 12 11 46t16 71.5t14.5 69t6.5 38.5q0 25 -21 30t-48 6q-11 1 -15 1t-4 5q0 6 2 10q1 4 3 7t7 3q9 0 40.5 -1.5t70.5 -1.5q15 0 34.5 0.5t39.5 1t37.5 1t27.5 0.5q77 0 122.5 -13t82.5 -39q33 -24 53 -52t30.5 -56.5t14 -54.5
t3.5 -45q0 -28 -6.5 -66.5t-23 -80.5t-45.5 -83t-74 -74q-36 -26 -76 -41t-77 -22.5t-69.5 -9t-53.5 -1.5q-7 0 -29.5 0.5t-49.5 1.5q-26 0 -50.5 0.5t-34.5 0.5q-5 0 -19 -0.5t-29 -0.5q-16 -1 -29.5 -1.5t-18.5 -0.5q-9 0 -9 7q0 13 5 15t13 2q38 2 52 14t19 22
q7 12 17 46t20 74t19 78t13 58h-77zM223 314q-4 -19 -12.5 -54.5t-17 -72.5t-14.5 -69.5t-6 -46.5q0 -24 17.5 -33t61.5 -9q100 0 166 35t105.5 86.5t55.5 111.5t16 110q0 46 -12 88t-39.5 74.5t-71.5 52t-107 19.5q-24 0 -38.5 -4t-23 -10.5t-13 -15t-7.5 -18.5
t-10.5 -38.5t-15.5 -61.5t-15.5 -64t-10.5 -45h170q5 0 4 -6l-6 -25q-1 -4 -5 -4h-171z" />
    <glyph glyph-name="Ntilde" unicode="&#xd1;" horiz-adv-x="722" 
d="M635 821q5 -5 6.5 -6t1.5 -3q0 -1 -4.5 -7t-10.5 -13.5t-11.5 -14.5t-7.5 -9q-23 -29 -39.5 -42t-34.5 -13q-16 0 -31 8t-41 26q-16 11 -28 16.5t-26 5.5q-21 0 -36.5 -11.5t-35.5 -36.5q-1 0 -4 -3.5t-4 -3.5t-7.5 5t-6.5 7t4.5 8.5t10.5 15t12 16t9 10.5q19 23 34 37
t35 14q16 0 38 -13t41 -26q20 -13 30 -17t21 -4q20 0 34 12t29 29q4 5 9 11t7 6q1 0 6 -4zM111 150q23 82 47 185.5t52 229.5q-16 25 -30.5 34t-46.5 11q-15 1 -19 1.5t-4 5.5q0 12 6.5 15t11.5 3q8 0 31 -0.5t46 -0.5q17 0 30 0.5t23 0.5q5 0 9 -1t9 -9q1 -1 13.5 -25.5
t29 -54.5t32 -58.5t21.5 -39.5q52 -95 83 -151.5t49.5 -90.5t28.5 -53t19 -39q12 56 26.5 125t26.5 134t20.5 117t8.5 75q0 10 -2 18t-10.5 14.5t-24 10t-42.5 4.5q-8 0 -12.5 1t-4.5 6q0 6 3 11.5t8 5.5q7 0 23.5 -0.5t35 -1t35 -1t22.5 -0.5q17 0 37 0.5t38.5 1t33.5 1
t21 0.5q4 0 6.5 -0.5t2.5 -5.5q0 -12 -6.5 -14.5t-32.5 -5.5q-23 -2 -36.5 -8.5t-23.5 -23t-18 -44.5t-19 -73q-4 -18 -12 -51t-17 -72.5t-18.5 -82t-17.5 -79.5t-14 -64t-7 -36q-4 -23 -7.5 -45t-1.5 -29q1 -8 -16 -12q-18 -5 -24 -5.5t-8 4.5q-9 26 -29 68t-47 92.5
t-57.5 104.5t-59 105t-53.5 94.5t-40 71.5q-20 -87 -38.5 -172.5t-37.5 -172.5q-2 -10 -5 -24.5t-6 -30t-5 -29.5t-2 -22q0 -34 21.5 -41.5t63.5 -10.5q14 -2 16 -2.5t2 -4.5q0 -12 -4 -14t-8 -2q-5 0 -12.5 0.5t-21 1t-35 1t-54.5 0.5q-44 0 -76 -1.5t-50 -1.5
q-3 0 -5.5 0.5t-2.5 5.5q0 11 4 14t20 5q29 4 45.5 11t27.5 21t18.5 37t16.5 58z" />
    <glyph glyph-name="Ograve" unicode="&#xd2;" horiz-adv-x="685" 
d="M422 644q44 0 87 -14.5t77.5 -46t56 -81.5t21.5 -121q0 -78 -27 -149t-74.5 -125t-113.5 -86t-144 -32q-71 0 -118 26t-74.5 65t-39 85.5t-11.5 87.5q0 77 27.5 147.5t75.5 124.5t114 86.5t143 32.5zM410 610q-58 0 -106 -31.5t-82.5 -83t-53.5 -118t-19 -136.5
q0 -64 16.5 -106.5t42 -67t55 -34.5t56.5 -10q60 0 108.5 34t82 87t52 117.5t18.5 126.5q0 24 -5 61.5t-22.5 73t-51.5 61.5t-91 26zM475 721q1 -1 4 -5t3 -5q0 -2 -7 -5t-8 -3q-2 0 -3.5 0.5t-5.5 3.5l-131 91q-10 7 -14 11.5t-4 12.5t5 11.5t21 8.5q10 4 19.5 7t11.5 3
q7 0 17 -13z" />
    <glyph glyph-name="Oacute" unicode="&#xd3;" horiz-adv-x="685" 
d="M422 644q44 0 87 -14.5t77.5 -46t56 -81.5t21.5 -121q0 -78 -27 -149t-74.5 -125t-113.5 -86t-144 -32q-71 0 -118 26t-74.5 65t-39 85.5t-11.5 87.5q0 77 27.5 147.5t75.5 124.5t114 86.5t143 32.5zM410 610q-58 0 -106 -31.5t-82.5 -83t-53.5 -118t-19 -136.5
q0 -64 16.5 -106.5t42 -67t55 -34.5t56.5 -10q60 0 108.5 34t82 87t52 117.5t18.5 126.5q0 24 -5 61.5t-22.5 73t-51.5 61.5t-91 26zM415 706l-5 -2.5t-2 -0.5q-2 0 -8 2t-6 4q0 1 5 6l140 120q11 10 15 12t8 2q2 0 10.5 -1.5t18.5 -5t17.5 -8.5t7.5 -11q0 -8 -6.5 -13
t-11.5 -7z" />
    <glyph glyph-name="Ocircumflex" unicode="&#xd4;" horiz-adv-x="685" 
d="M422 644q44 0 87 -14.5t77.5 -46t56 -81.5t21.5 -121q0 -78 -27 -149t-74.5 -125t-113.5 -86t-144 -32q-71 0 -118 26t-74.5 65t-39 85.5t-11.5 87.5q0 77 27.5 147.5t75.5 124.5t114 86.5t143 32.5zM410 610q-58 0 -106 -31.5t-82.5 -83t-53.5 -118t-19 -136.5
q0 -64 16.5 -106.5t42 -67t55 -34.5t56.5 -10q60 0 108.5 34t82 87t52 117.5t18.5 126.5q0 24 -5 61.5t-22.5 73t-51.5 61.5t-91 26zM454 808q-7 -6 -30.5 -23t-48.5 -36t-45.5 -33.5t-22.5 -14.5q-3 0 -7 5t-4 6q0 3 2.5 6t16.5 16l20 20t31.5 32.5t32 34t22.5 24.5
q22 26 28.5 32t16.5 6q6 0 9.5 -1t7.5 -5.5t8.5 -15t13.5 -29.5q3 -7 13 -26.5t21 -40t19.5 -36.5l8.5 -16q0 -3 -5 -7.5t-7 -4.5t-4.5 2.5t-12.5 13.5q-16 18 -39.5 43t-44.5 48z" />
    <glyph glyph-name="Otilde" unicode="&#xd5;" horiz-adv-x="685" 
d="M422 644q44 0 87 -14.5t77.5 -46t56 -81.5t21.5 -121q0 -78 -27 -149t-74.5 -125t-113.5 -86t-144 -32q-71 0 -118 26t-74.5 65t-39 85.5t-11.5 87.5q0 77 27.5 147.5t75.5 124.5t114 86.5t143 32.5zM410 610q-58 0 -106 -31.5t-82.5 -83t-53.5 -118t-19 -136.5
q0 -64 16.5 -106.5t42 -67t55 -34.5t56.5 -10q60 0 108.5 34t82 87t52 117.5t18.5 126.5q0 24 -5 61.5t-22.5 73t-51.5 61.5t-91 26zM617 821l6 -6t1 -3q0 -1 -4.5 -7t-10 -13.5t-11 -14.5t-7.5 -9q-23 -29 -39.5 -42t-35.5 -13q-16 0 -31 8.5t-41 25.5q-15 11 -27 16.5
t-26 5.5q-22 0 -37.5 -11.5t-35.5 -36.5l-3 -3q-4 -4 -5 -4t-7.5 5t-6.5 7t4.5 8.5t11 15t12.5 16t9 10.5q18 23 33.5 37t35.5 14q15 0 37.5 -13t41.5 -26q20 -13 29.5 -17t20.5 -4q20 0 35 13t35 36q2 2 4.5 5.5t4.5 3.5z" />
    <glyph glyph-name="Odieresis" unicode="&#xd6;" horiz-adv-x="685" 
d="M422 644q44 0 87 -14.5t77.5 -46t56 -81.5t21.5 -121q0 -78 -27 -149t-74.5 -125t-113.5 -86t-144 -32q-71 0 -118 26t-74.5 65t-39 85.5t-11.5 87.5q0 77 27.5 147.5t75.5 124.5t114 86.5t143 32.5zM410 610q-58 0 -106 -31.5t-82.5 -83t-53.5 -118t-19 -136.5
q0 -64 16.5 -106.5t42 -67t55 -34.5t56.5 -10q60 0 108.5 34t82 87t52 117.5t18.5 126.5q0 24 -5 61.5t-22.5 73t-51.5 61.5t-91 26zM359 802q15 0 30 -14t15 -30q0 -15 -14 -29.5t-28 -14.5q-5 0 -13 3t-15.5 8.5t-12.5 13.5t-5 18q0 16 13 30.5t30 14.5zM555 802
q16 0 30.5 -14t14.5 -30q0 -15 -14 -29.5t-28 -14.5q-4 0 -12 3t-15 8t-12.5 13.5t-5.5 18.5q0 16 12.5 30.5t29.5 14.5z" />
    <glyph glyph-name="multiply" unicode="&#xd7;" 
d="M396 483l9 9t6 5t6 -4.5t10.5 -10.5t10 -11t4.5 -6t-6 -7l-8 -8l-133 -133l133 -133l9 -9t5 -6t-4.5 -6t-10 -10.5t-10.5 -10t-6 -4.5t-7 5.5t-13 13t-14 14.5l-9 9q-6 6 -21.5 21t-32 32t-31 31.5l-20.5 20.5l-31.5 -31.5l-35.5 -35.5t-35.5 -35t-31.5 -31l-14 -14
q-1 0 -6 4.5t-11 10t-10.5 10.5t-4.5 6t20 21l45.5 45.5t49.5 49t33 32.5q-8 8 -29.5 29t-45.5 45l-44.5 44.5l-27.5 27.5q-2 2 1 6t8 8q2 3 6.5 6.5t10.5 9.5q5 5 8 1.5t11 -11.5q34 -34 71 -70.5t63 -63.5z" />
    <glyph glyph-name="Oslash" unicode="&#xd8;" horiz-adv-x="685" 
d="M608 676q5 7 7 8.5t9 1.5h21h8.5t1.5 -2t-3 -5l-67 -93q8 -7 21 -21.5t26 -39t22.5 -60t9.5 -84.5q0 -78 -27 -149t-75 -125t-113.5 -86t-143.5 -32q-55 0 -85.5 12t-43.5 20l-44 -61q-5 -8 -7 -10t-7 -2l-26 -1q-8 0 -8 3q0 1 0.5 2t4.5 6l60 83q-45 40 -66 95.5
t-21 115.5q0 82 29 153.5t78 124.5t113.5 83.5t134.5 30.5q38 0 73 -8.5t67 -28.5zM526 563q-23 24 -52.5 35.5t-63.5 11.5q-59 0 -107 -32t-82.5 -84t-53 -118t-18.5 -135q0 -40 8 -78.5t31 -71.5zM209 66q23 -21 51.5 -32t58.5 -11q60 0 108 33.5t82 86.5t52.5 118
t18.5 127q0 23 -5.5 64t-28.5 83z" />
    <glyph glyph-name="Ugrave" unicode="&#xd9;" horiz-adv-x="667" 
d="M466 721q1 -2 4 -5.5t3 -4.5q0 -3 -7 -5.5t-9 -2.5t-3 0.5t-5 3.5l-131 91q-10 7 -14.5 11.5t-4.5 12.5t6.5 11.5t20.5 8.5q5 2 17 6t14 4q5 0 8 -3t9 -10zM324 40q60 0 97 18.5t59.5 48t34 66t19.5 72.5q10 42 20 92.5t18.5 96.5t13.5 81t5 46q0 25 -17 34.5t-61 13.5
q-7 2 -10 3t-3 6q0 16 16 16q13 0 42.5 -1t67.5 -1q17 0 34 0.5t31.5 0.5t25 0.5t14.5 0.5q6 0 9.5 -1t3.5 -6q0 -8 -4.5 -12t-30.5 -8q-18 -3 -29 -9t-18.5 -19t-13.5 -34t-14 -54q-8 -36 -17.5 -73.5t-20.5 -93.5q-18 -88 -34.5 -144t-45.5 -95q-41 -55 -101 -75.5
t-122 -20.5q-70 0 -111 19.5t-62 46t-27 53t-6 39.5q0 17 5.5 50.5t14.5 75t18.5 87t18.5 86.5t14.5 73.5t5.5 47.5q0 26 -14.5 32t-46.5 11q-14 2 -16 3.5t-2 3.5q0 5 2 11t9 6q6 0 21 -0.5t32 -0.5t31.5 -0.5t20.5 -0.5q18 0 40.5 0.5t43.5 0.5t37 0.5t20 0.5q10 0 10 -7
q0 -11 -4.5 -13.5t-22.5 -5.5q-25 -4 -39.5 -9.5t-23.5 -17t-15 -32t-14 -55.5q-9 -39 -19 -82.5t-18.5 -82t-14.5 -67t-8 -37.5q-3 -17 -5.5 -31.5t-2.5 -32.5q0 -39 16 -63t40 -36.5t51.5 -17t51.5 -4.5z" />
    <glyph glyph-name="Uacute" unicode="&#xda;" horiz-adv-x="667" 
d="M417 706l-5 -2.5t-2 -0.5t-7.5 2t-6.5 4q0 1 5 6l140 120q11 10 15.5 12t7.5 2q2 0 10.5 -1.5t18 -5t17.5 -8.5t8 -11q0 -8 -6.5 -13t-11.5 -7zM324 40q60 0 97 18.5t59.5 48t34 66t19.5 72.5q10 42 20 92.5t18.5 96.5t13.5 81t5 46q0 25 -17 34.5t-61 13.5q-7 2 -10 3
t-3 6q0 16 16 16q13 0 42.5 -1t67.5 -1q17 0 34 0.5t31.5 0.5t25 0.5t14.5 0.5q6 0 9.5 -1t3.5 -6q0 -8 -4.5 -12t-30.5 -8q-18 -3 -29 -9t-18.5 -19t-13.5 -34t-14 -54q-8 -36 -17.5 -73.5t-20.5 -93.5q-18 -88 -34.5 -144t-45.5 -95q-41 -55 -101 -75.5t-122 -20.5
q-70 0 -111 19.5t-62 46t-27 53t-6 39.5q0 17 5.5 50.5t14.5 75t18.5 87t18.5 86.5t14.5 73.5t5.5 47.5q0 26 -14.5 32t-46.5 11q-14 2 -16 3.5t-2 3.5q0 5 2 11t9 6q6 0 21 -0.5t32 -0.5t31.5 -0.5t20.5 -0.5q18 0 40.5 0.5t43.5 0.5t37 0.5t20 0.5q10 0 10 -7
q0 -11 -4.5 -13.5t-22.5 -5.5q-25 -4 -39.5 -9.5t-23.5 -17t-15 -32t-14 -55.5q-9 -39 -19 -82.5t-18.5 -82t-14.5 -67t-8 -37.5q-3 -17 -5.5 -31.5t-2.5 -32.5q0 -39 16 -63t40 -36.5t51.5 -17t51.5 -4.5z" />
    <glyph glyph-name="Ucircumflex" unicode="&#xdb;" horiz-adv-x="667" 
d="M462 808q-6 -4 -29 -21.5t-48.5 -36.5t-46.5 -34t-24 -15q-2 0 -6 5t-4 6q0 3 2 6t16 16q7 6 22 21.5t32 33t32 33.5t21 23q22 26 28.5 32t15.5 6q6 0 9.5 -1t7.5 -5.5t8.5 -15t13.5 -29.5q3 -7 13.5 -26.5t21.5 -40t19.5 -36.5l8.5 -16q0 -3 -5 -7.5t-7 -4.5t-5 2.5
t-12 13.5q-5 6 -17 19t-25.5 27.5t-25 27t-16.5 17.5zM324 40q60 0 97 18.5t59.5 48t34 66t19.5 72.5q10 42 20 92.5t18.5 96.5t13.5 81t5 46q0 25 -17 34.5t-61 13.5q-7 2 -10 3t-3 6q0 16 16 16q13 0 42.5 -1t67.5 -1q17 0 34 0.5t31.5 0.5t25 0.5t14.5 0.5q6 0 9.5 -1
t3.5 -6q0 -8 -4.5 -12t-30.5 -8q-18 -3 -29 -9t-18.5 -19t-13.5 -34t-14 -54q-8 -36 -17.5 -73.5t-20.5 -93.5q-18 -88 -34.5 -144t-45.5 -95q-41 -55 -101 -75.5t-122 -20.5q-70 0 -111 19.5t-62 46t-27 53t-6 39.5q0 17 5.5 50.5t14.5 75t18.5 87t18.5 86.5t14.5 73.5
t5.5 47.5q0 26 -14.5 32t-46.5 11q-14 2 -16 3.5t-2 3.5q0 5 2 11t9 6q6 0 21 -0.5t32 -0.5t31.5 -0.5t20.5 -0.5q18 0 40.5 0.5t43.5 0.5t37 0.5t20 0.5q10 0 10 -7q0 -11 -4.5 -13.5t-22.5 -5.5q-25 -4 -39.5 -9.5t-23.5 -17t-15 -32t-14 -55.5q-9 -39 -19 -82.5
t-18.5 -82t-14.5 -67t-8 -37.5q-3 -17 -5.5 -31.5t-2.5 -32.5q0 -39 16 -63t40 -36.5t51.5 -17t51.5 -4.5z" />
    <glyph glyph-name="Udieresis" unicode="&#xdc;" horiz-adv-x="667" 
d="M350 802q15 0 30 -14t15 -30q0 -15 -14 -29.5t-29 -14.5q-4 0 -12 3t-15 8t-12.5 13.5t-5.5 18.5q0 17 13 31t30 14zM546 802q16 0 30.5 -14t14.5 -30q0 -15 -14 -29.5t-28 -14.5q-5 0 -13 3t-15.5 8.5t-12.5 13.5t-5 18q0 16 13 30.5t30 14.5zM324 40q60 0 97 18.5
t59.5 48t34 66t19.5 72.5q10 42 20 92.5t18.5 96.5t13.5 81t5 46q0 25 -17 34.5t-61 13.5q-7 2 -10 3t-3 6q0 16 16 16q13 0 42.5 -1t67.5 -1q17 0 34 0.5t31.5 0.5t25 0.5t14.5 0.5q6 0 9.5 -1t3.5 -6q0 -8 -4.5 -12t-30.5 -8q-18 -3 -29 -9t-18.5 -19t-13.5 -34t-14 -54
q-8 -36 -17.5 -73.5t-20.5 -93.5q-18 -88 -34.5 -144t-45.5 -95q-41 -55 -101 -75.5t-122 -20.5q-70 0 -111 19.5t-62 46t-27 53t-6 39.5q0 17 5.5 50.5t14.5 75t18.5 87t18.5 86.5t14.5 73.5t5.5 47.5q0 26 -14.5 32t-46.5 11q-14 2 -16 3.5t-2 3.5q0 5 2 11t9 6
q6 0 21 -0.5t32 -0.5t31.5 -0.5t20.5 -0.5q18 0 40.5 0.5t43.5 0.5t37 0.5t20 0.5q10 0 10 -7q0 -11 -4.5 -13.5t-22.5 -5.5q-25 -4 -39.5 -9.5t-23.5 -17t-15 -32t-14 -55.5q-9 -39 -19 -82.5t-18.5 -82t-14.5 -67t-8 -37.5q-3 -17 -5.5 -31.5t-2.5 -32.5q0 -39 16 -63
t40 -36.5t51.5 -17t51.5 -4.5z" />
    <glyph glyph-name="Yacute" unicode="&#xdd;" horiz-adv-x="555" 
d="M361 706q-4 -2 -4.5 -2.5t-2.5 -0.5q-1 0 -7 2t-6 4t5 6l139 120q11 10 15 12t9 2q2 0 10 -1.5t18 -5t17.5 -8.5t7.5 -11q0 -8 -6 -12.5t-11 -7.5zM320 341q5 6 18 20.5t27.5 30t27.5 29.5t18 20q12 14 26 29.5t27 31t24.5 29.5t18.5 24q11 14 14.5 21t3.5 13
q0 15 -20.5 18.5t-51.5 5.5q-5 0 -8 1t-3 6q0 4 2 9.5t9 5.5q6 0 21 -0.5t32 -1t31.5 -1t20.5 -0.5t20.5 0.5t30.5 1t30 1t19 0.5q7 0 7 -6q0 -11 -4 -14t-18 -7q-21 -6 -50.5 -29.5t-67 -60.5t-82 -86t-95.5 -105q-16 -19 -20 -28t-7 -25q-7 -34 -13.5 -66.5t-12 -60.5
t-9 -48.5t-3.5 -31.5q0 -31 22.5 -37.5t58.5 -8.5q9 0 11 -1t2 -7q0 -11 -4.5 -13t-8.5 -2q-29 0 -59.5 1t-50.5 1q-15 0 -38 -0.5t-46 -0.5t-42 -0.5t-26 -0.5q-9 0 -9 9q0 10 4.5 12t20.5 3q28 2 44 6.5t26 18.5t17 40.5t17 71.5q8 36 14 60t9.5 39.5t5 24t1.5 13.5
q0 12 -12 44.5t-29.5 72.5t-37 80t-33.5 67q-9 17 -17 27t-17 15t-19.5 7t-24.5 3q-7 0 -7 8q0 15 13 15q6 0 20.5 -0.5t31 -1t31 -1t20.5 -0.5q17 0 38.5 0.5t41 1t34.5 1t20 0.5q11 0 11 -8q0 -12 -5.5 -14t-11.5 -2q-34 -2 -53.5 -6.5t-19.5 -26.5q0 -10 13 -42.5
t29.5 -71l31.5 -73.5t20 -50z" />
    <glyph glyph-name="Thorn" unicode="&#xde;" horiz-adv-x="555" 
d="M194 159q-1 -7 -4 -20t-5 -26.5t-4 -26.5t-2 -21q0 -24 19 -33t61 -11q10 0 10 -8q0 -11 -5 -13t-13 -2q-4 0 -11 0.5t-21 1t-36.5 1t-58.5 0.5q-15 0 -34.5 -0.5t-37 -1t-31.5 -1t-19 -0.5q-10 0 -10 6q0 12 4 14t8 2q30 2 48 7.5t28 17t15.5 28.5t11.5 42q4 15 12 52.5
t18.5 85t22 100t21 98.5t15.5 79t6 42q0 25 -17.5 30t-58.5 9q-8 1 -10 1.5t-2 5.5q0 6 2.5 11.5t7.5 5.5t25.5 -0.5t48 -0.5h57.5h53q21 0 41 0.5t42 0.5q6 0 7.5 -2.5t1.5 -5.5q0 -8 -7 -10.5t-15 -3.5q-30 -2 -48.5 -7t-29 -15.5t-16.5 -28.5t-11 -45q30 3 68 3
q19 0 52.5 -2.5t66 -16.5t56.5 -44.5t24 -86.5q0 -39 -15.5 -79t-45.5 -69q-39 -39 -91 -53.5t-108 -14.5q-20 0 -42.5 1.5t-43.5 3.5zM199 183q15 -1 27 -1.5t28 -0.5q59 0 98.5 16t63.5 48q22 29 31.5 66t9.5 63q0 45 -19 69t-44.5 35t-52 13t-41.5 2q-22 0 -28 -4t-9 -15
q-2 -7 -10 -42t-18 -80t-20 -91.5t-16 -77.5z" />
    <glyph glyph-name="germandbls" unicode="&#xdf;" horiz-adv-x="444" 
d="M488 611q0 -35 -9.5 -62.5t-25 -49t-35.5 -39.5t-41 -35q-39 -32 -53.5 -51t-14.5 -37q0 -19 8 -36t24 -41q28 -42 42.5 -68.5t14.5 -53.5q0 -30 -13.5 -57.5t-35.5 -47.5t-49 -32t-54 -12q-9 0 -20 2t-20.5 7t-16 14t-6.5 22q0 22 9 32t19 10t19.5 -5t20 -11t23 -11
t27.5 -5q21 0 32 15t11 32q0 12 -8.5 33.5t-37.5 67.5q-16 26 -26 42.5t-16 28.5t-8 22t-2 23q0 21 7 37.5t19 30.5t28.5 27t35.5 27q22 16 36 28.5t22 22t12 18t7 17.5q14 42 14 73q0 22 -9 35.5t-22.5 20.5t-28 9.5t-26.5 2.5q-56 0 -90 -37.5t-51 -99.5q-5 -18 -12.5 -55
t-17 -83.5t-19 -97t-18.5 -96.5t-16 -82t-10 -52q-12 -58 -23 -100.5t-23 -75t-26 -55.5t-31 -42q-30 -34 -54.5 -41.5t-39.5 -7.5q-25 0 -40 10t-15 24q0 16 12.5 27t21.5 11q7 0 13 -4t12.5 -8.5t14.5 -8.5t18 -4q17 0 27.5 14.5t18.5 48.5q9 39 15.5 65t11.5 51.5
t11.5 58t15.5 84.5q16 90 33.5 182.5t37.5 171.5q24 89 64.5 140t81.5 76t74 31t41 6q48 0 78.5 -26t30.5 -71z" />
    <glyph glyph-name="agrave" unicode="&#xe0;" horiz-adv-x="463" 
d="M398 522q2 -4 2.5 -4.5t0.5 -2.5q0 -3 -6.5 -4t-7.5 -1q-4 0 -10 6l-115 106q-10 9 -13.5 13.5t-3.5 11.5q0 9 7 12t17 6q13 2 21.5 4t13.5 2q7 0 10.5 -4.5t8.5 -12.5zM438 185q8 -6 9.5 -8t1.5 -4q0 -6 -14.5 -35.5t-37.5 -62.5t-51.5 -59.5t-57.5 -26.5q-18 0 -28 11
t-10 26t5.5 37t13 46t15.5 47t14 38q-45 -70 -79.5 -110.5t-60 -61.5t-45 -27t-34.5 -6q-32 0 -51 21.5t-19 53.5q0 45 27.5 99.5t75 106t111.5 92.5t137 59q5 12 10.5 21.5t21.5 9.5q11 0 19.5 -2.5t8.5 -12.5q0 -2 -7.5 -26.5t-19 -60t-25 -78t-25 -80.5t-19 -67t-7.5 -37
q0 -5 2.5 -11t13.5 -6q17 0 43 26t58 89zM292 350q-30 0 -67 -23t-69 -58t-54 -77.5t-22 -81.5q0 -31 13 -41t27 -10q23 0 57.5 28.5t67 69t55.5 86t23 78.5q0 11 -3.5 17t-9 8.5t-10.5 3t-8 0.5z" />
    <glyph glyph-name="aacute" unicode="&#xe1;" horiz-adv-x="463" 
d="M328 517q-6 -5 -9 -6.5t-5 -0.5l-11 3q-2 1 0.5 3.5l5.5 5.5l122 131q9 10 14 14t12 4q2 0 11 -1t19 -3.5t17.5 -6.5t7.5 -10q0 -8 -4.5 -12t-13.5 -10zM438 185q8 -6 9.5 -8t1.5 -4q0 -6 -14.5 -35.5t-37.5 -62.5t-51.5 -59.5t-57.5 -26.5q-18 0 -28 11t-10 26t5.5 37
t13 46t15.5 47t14 38q-45 -70 -79.5 -110.5t-60 -61.5t-45 -27t-34.5 -6q-32 0 -51 21.5t-19 53.5q0 45 27.5 99.5t75 106t111.5 92.5t137 59q5 12 10.5 21.5t21.5 9.5q11 0 19.5 -2.5t8.5 -12.5q0 -2 -7.5 -26.5t-19 -60t-25 -78t-25 -80.5t-19 -67t-7.5 -37q0 -5 2.5 -11
t13.5 -6q17 0 43 26t58 89zM292 350q-30 0 -67 -23t-69 -58t-54 -77.5t-22 -81.5q0 -31 13 -41t27 -10q23 0 57.5 28.5t67 69t55.5 86t23 78.5q0 11 -3.5 17t-9 8.5t-10.5 3t-8 0.5z" />
    <glyph glyph-name="acircumflex" unicode="&#xe2;" horiz-adv-x="463" 
d="M373 601q-20 -15 -44 -30.5t-45 -29t-35 -22l-14 -8.5q-2 0 -7.5 3.5t-5.5 7.5q0 2 2.5 4t10.5 9q6 5 20 17t32.5 28.5t39.5 36t40 39.5q5 5 11 8.5t14 3.5q10 0 14.5 -8t17.5 -43q7 -18 16.5 -40.5t12.5 -29.5q1 -3 5 -12t4 -11q0 -3 -5.5 -7.5t-7.5 -4.5q-3 0 -13.5 12
t-23 27.5t-24 30t-15.5 19.5zM438 185q8 -6 9.5 -8t1.5 -4q0 -6 -14.5 -35.5t-37.5 -62.5t-51.5 -59.5t-57.5 -26.5q-18 0 -28 11t-10 26t5.5 37t13 46t15.5 47t14 38q-45 -70 -79.5 -110.5t-60 -61.5t-45 -27t-34.5 -6q-32 0 -51 21.5t-19 53.5q0 45 27.5 99.5t75 106
t111.5 92.5t137 59q5 12 10.5 21.5t21.5 9.5q11 0 19.5 -2.5t8.5 -12.5q0 -2 -7.5 -26.5t-19 -60t-25 -78t-25 -80.5t-19 -67t-7.5 -37q0 -5 2.5 -11t13.5 -6q17 0 43 26t58 89zM292 350q-30 0 -67 -23t-69 -58t-54 -77.5t-22 -81.5q0 -31 13 -41t27 -10q23 0 57.5 28.5
t67 69t55.5 86t23 78.5q0 11 -3.5 17t-9 8.5t-10.5 3t-8 0.5z" />
    <glyph glyph-name="atilde" unicode="&#xe3;" horiz-adv-x="463" 
d="M499 618q3 -2 6.5 -5t3.5 -5q0 -1 -4 -6t-9 -11t-10.5 -12t-7.5 -8q-23 -26 -39 -36.5t-30 -10.5q-6 0 -11 1t-11.5 4t-16 8.5t-24.5 14.5q-11 7 -22 12.5t-25 5.5q-6 0 -21 -4.5t-38 -31.5q0 -1 -3.5 -5t-5.5 -4t-7 5.5t-5 7.5q0 1 3 5.5t7.5 10t8.5 10t6 6.5
q27 32 43.5 42t28.5 10q10 0 19 -2.5t23 -11.5q27 -19 39.5 -25.5t29.5 -6.5q11 0 21 4.5t18 11t14 13t9 10.5q5 6 10 3zM438 185q8 -6 9.5 -8t1.5 -4q0 -6 -14.5 -35.5t-37.5 -62.5t-51.5 -59.5t-57.5 -26.5q-18 0 -28 11t-10 26t5.5 37t13 46t15.5 47t14 38
q-45 -70 -79.5 -110.5t-60 -61.5t-45 -27t-34.5 -6q-32 0 -51 21.5t-19 53.5q0 45 27.5 99.5t75 106t111.5 92.5t137 59q5 12 10.5 21.5t21.5 9.5q11 0 19.5 -2.5t8.5 -12.5q0 -2 -7.5 -26.5t-19 -60t-25 -78t-25 -80.5t-19 -67t-7.5 -37q0 -5 2.5 -11t13.5 -6q17 0 43 26
t58 89zM292 350q-30 0 -67 -23t-69 -58t-54 -77.5t-22 -81.5q0 -31 13 -41t27 -10q23 0 57.5 28.5t67 69t55.5 86t23 78.5q0 11 -3.5 17t-9 8.5t-10.5 3t-8 0.5z" />
    <glyph glyph-name="adieresis" unicode="&#xe4;" horiz-adv-x="463" 
d="M438 185q8 -6 9.5 -8t1.5 -4q0 -6 -14.5 -35.5t-37.5 -62.5t-51.5 -59.5t-57.5 -26.5q-18 0 -28 11t-10 26t5.5 37t13 46t15.5 47t14 38q-45 -70 -79.5 -110.5t-60 -61.5t-45 -27t-34.5 -6q-32 0 -51 21.5t-19 53.5q0 45 27.5 99.5t75 106t111.5 92.5t137 59
q5 12 10.5 21.5t21.5 9.5q11 0 19.5 -2.5t8.5 -12.5q0 -2 -7.5 -26.5t-19 -60t-25 -78t-25 -80.5t-19 -67t-7.5 -37q0 -5 2.5 -11t13.5 -6q17 0 43 26t58 89zM292 350q-30 0 -67 -23t-69 -58t-54 -77.5t-22 -81.5q0 -31 13 -41t27 -10q23 0 57.5 28.5t67 69t55.5 86t23 78.5
q0 11 -3.5 17t-9 8.5t-10.5 3t-8 0.5zM266 609q20 0 30.5 -15.5t10.5 -24.5q0 -15 -14 -28t-27 -13q-11 0 -25 12t-14 26q0 17 14.5 30t24.5 13zM418 609q20 0 30.5 -15.5t10.5 -25.5q0 -14 -14 -27t-28 -13q-11 0 -24.5 12.5t-13.5 25.5q0 16 14 29.5t25 13.5z" />
    <glyph glyph-name="aring" unicode="&#xe5;" horiz-adv-x="463" 
d="M347 504q-15 0 -31 4.5t-28.5 13.5t-20.5 23t-8 34q0 39 29 64.5t74 25.5q16 0 32 -4t28.5 -13t20.5 -23.5t8 -34.5q0 -35 -26 -62.5t-78 -27.5zM349 529q15 0 25 7t15.5 17.5t7.5 22t2 19.5q0 16 -8 32t-31 16q-25 0 -36.5 -21.5t-11.5 -42.5q0 -23 9.5 -36.5
t27.5 -13.5zM438 185q8 -6 9.5 -8t1.5 -4q0 -6 -14.5 -35.5t-37.5 -62.5t-51.5 -59.5t-57.5 -26.5q-18 0 -28 11t-10 26t5.5 37t13 46t15.5 47t14 38q-45 -70 -79.5 -110.5t-60 -61.5t-45 -27t-34.5 -6q-32 0 -51 21.5t-19 53.5q0 45 27.5 99.5t75 106t111.5 92.5t137 59
q5 12 10.5 21.5t21.5 9.5q11 0 19.5 -2.5t8.5 -12.5q0 -2 -7.5 -26.5t-19 -60t-25 -78t-25 -80.5t-19 -67t-7.5 -37q0 -5 2.5 -11t13.5 -6q17 0 43 26t58 89zM292 350q-30 0 -67 -23t-69 -58t-54 -77.5t-22 -81.5q0 -31 13 -41t27 -10q23 0 57.5 28.5t67 69t55.5 86t23 78.5
q0 11 -3.5 17t-9 8.5t-10.5 3t-8 0.5z" />
    <glyph glyph-name="ae" unicode="&#xe6;" horiz-adv-x="593" 
d="M534 121q9 -7 9 -14q0 -2 -14.5 -21t-38.5 -40.5t-55.5 -39t-64.5 -17.5q-25 0 -43 10t-30 27.5t-18 40.5t-6 49q0 11 0.5 21.5t1.5 21.5q-10 -16 -30.5 -45t-47.5 -56.5t-57.5 -48t-60.5 -20.5q-27 0 -48.5 18t-21.5 54q0 52 32 111t82 111t113 90.5t124 48.5
q8 16 13 23.5t18 7.5q8 0 16 -2.5t8 -10.5t-2.5 -16t-6.5 -19q13 8 34.5 17.5t50.5 9.5q6 0 22 -2t32.5 -9.5t29.5 -23.5t13 -43q0 -25 -14 -51t-42.5 -46.5t-73 -33t-106.5 -11.5q-3 -17 -5.5 -33t-2.5 -34q0 -48 19 -72t45 -24q21 0 39.5 8.5t34.5 20t28.5 23.5t19.5 20h4
zM356 229q54 3 86 20t49.5 38t23 41.5t5.5 30.5q0 20 -13 31t-33 11q-35 0 -68 -41.5t-50 -130.5zM309 354q-40 0 -81 -24.5t-74 -61.5t-54 -80.5t-21 -81.5q0 -24 13 -35t26 -11q23 0 61.5 26.5t80.5 92.5q12 18 23.5 42t21.5 46.5t16 41.5t6 27q0 14 -8 16t-10 2z" />
    <glyph glyph-name="ccedilla" unicode="&#xe7;" horiz-adv-x="352" 
d="M139 -11q-46 1 -78.5 34.5t-32.5 104.5q0 47 17 100t47.5 98.5t74 75.5t97.5 30q12 0 28.5 -2.5t31.5 -8t25.5 -15t10.5 -24.5q0 -1 -0.5 -7t-3.5 -13t-9.5 -12.5t-18.5 -5.5q-14 0 -27 9.5t-32 26.5q-8 8 -16 13t-19 5q-27 0 -51.5 -27t-43 -66t-29.5 -81.5t-11 -73.5
q0 -18 4 -37.5t16 -35.5q8 -11 21 -19t32 -8q23 0 55 21t60 66h2q8 -8 10 -10.5t2 -5.5l-9 -17t-26 -39t-43 -43.5t-61 -30.5q-2 -3 -9 -11t-14.5 -17t-13.5 -17t-6 -10t2.5 -4.5t14.5 -11.5q11 -8 17.5 -18t6.5 -21q0 -16 -9 -31.5t-24 -28t-33.5 -20t-37.5 -7.5
q-17 0 -29 7t-12 21q0 8 6 14.5t13 6.5q3 0 6 -0.5t12 -5.5q11 -6 17.5 -7.5t11.5 -1.5q17 0 27.5 9.5t10.5 23.5q0 7 -4 13t-9.5 11t-10.5 8t-7 4q-11 7 -14 11t-3 9q0 3 2 8t13 15z" />
    <glyph glyph-name="egrave" unicode="&#xe8;" horiz-adv-x="370" 
d="M302 522l3 -7q0 -3 -7 -4t-8 -1q-4 0 -10 6l-114 106q-11 9 -14.5 13.5t-3.5 11.5q0 9 7 12t18 6q12 2 21 4t13 2q7 0 10.5 -4.5t8.5 -12.5zM312 120q5 -8 6.5 -9.5t1.5 -3.5q0 -3 -15 -22t-40 -40t-58.5 -38.5t-71.5 -17.5q-32 0 -52.5 13t-32.5 32.5t-16.5 43
t-4.5 45.5q0 54 17 109t47.5 99.5t73.5 72.5t94 28q44 0 71.5 -22t27.5 -58q0 -24 -11 -44.5t-28 -36.5t-38.5 -27t-42.5 -17q-35 -11 -65 -13.5t-67 -4.5q-3 -17 -5 -29.5t-2 -28.5q0 -6 1 -23t8 -34.5t22.5 -31t43.5 -13.5q9 0 23 2t31 9.5t37 21.5t42 38h3zM112 227
q30 3 63 10.5t65 29.5q23 16 38 40.5t15 48.5q0 21 -13.5 33.5t-36.5 12.5q-9 0 -26 -5.5t-36 -23.5t-37.5 -52.5t-31.5 -93.5z" />
    <glyph glyph-name="eacute" unicode="&#xe9;" horiz-adv-x="370" 
d="M242 517q-6 -5 -9 -6.5t-5 -0.5l-11 3q-2 1 0.5 3.5l5.5 5.5l122 131q9 10 14 14t12 4q2 0 11 -1t19 -3.5t17.5 -6.5t7.5 -10q0 -8 -4.5 -12t-13.5 -10zM312 120q5 -8 6.5 -9.5t1.5 -3.5q0 -3 -15 -22t-40 -40t-58.5 -38.5t-71.5 -17.5q-32 0 -52.5 13t-32.5 32.5
t-16.5 43t-4.5 45.5q0 54 17 109t47.5 99.5t73.5 72.5t94 28q44 0 71.5 -22t27.5 -58q0 -24 -11 -44.5t-28 -36.5t-38.5 -27t-42.5 -17q-35 -11 -65 -13.5t-67 -4.5q-3 -17 -5 -29.5t-2 -28.5q0 -6 1 -23t8 -34.5t22.5 -31t43.5 -13.5q9 0 23 2t31 9.5t37 21.5t42 38h3z
M112 227q30 3 63 10.5t65 29.5q23 16 38 40.5t15 48.5q0 21 -13.5 33.5t-36.5 12.5q-9 0 -26 -5.5t-36 -23.5t-37.5 -52.5t-31.5 -93.5z" />
    <glyph glyph-name="ecircumflex" unicode="&#xea;" horiz-adv-x="370" 
d="M291 601q-20 -14 -44 -30t-45 -29.5t-35.5 -22l-14.5 -8.5q-2 0 -7 3.5t-5 7.5q0 2 2 4t10 9q2 2 15 12.5t32 27.5t41.5 38t43.5 43q5 5 11 8.5t14 3.5q10 0 15 -8t18 -43q7 -18 16 -40.5t12 -29.5q2 -3 5.5 -12t3.5 -11q0 -3 -5.5 -7.5t-7.5 -4.5t-13 12.5t-23.5 28
t-24 30t-14.5 18.5zM312 120q5 -8 6.5 -9.5t1.5 -3.5q0 -3 -15 -22t-40 -40t-58.5 -38.5t-71.5 -17.5q-32 0 -52.5 13t-32.5 32.5t-16.5 43t-4.5 45.5q0 54 17 109t47.5 99.5t73.5 72.5t94 28q44 0 71.5 -22t27.5 -58q0 -24 -11 -44.5t-28 -36.5t-38.5 -27t-42.5 -17
q-35 -11 -65 -13.5t-67 -4.5q-3 -17 -5 -29.5t-2 -28.5q0 -6 1 -23t8 -34.5t22.5 -31t43.5 -13.5q9 0 23 2t31 9.5t37 21.5t42 38h3zM112 227q30 3 63 10.5t65 29.5q23 16 38 40.5t15 48.5q0 21 -13.5 33.5t-36.5 12.5q-9 0 -26 -5.5t-36 -23.5t-37.5 -52.5t-31.5 -93.5z
" />
    <glyph glyph-name="edieresis" unicode="&#xeb;" horiz-adv-x="370" 
d="M312 120q5 -8 6.5 -9.5t1.5 -3.5q0 -3 -15 -22t-40 -40t-58.5 -38.5t-71.5 -17.5q-32 0 -52.5 13t-32.5 32.5t-16.5 43t-4.5 45.5q0 54 17 109t47.5 99.5t73.5 72.5t94 28q44 0 71.5 -22t27.5 -58q0 -24 -11 -44.5t-28 -36.5t-38.5 -27t-42.5 -17q-35 -11 -65 -13.5
t-67 -4.5q-3 -17 -5 -29.5t-2 -28.5q0 -6 1 -23t8 -34.5t22.5 -31t43.5 -13.5q9 0 23 2t31 9.5t37 21.5t42 38h3zM112 227q30 3 63 10.5t65 29.5q23 16 38 40.5t15 48.5q0 21 -13.5 33.5t-36.5 12.5q-9 0 -26 -5.5t-36 -23.5t-37.5 -52.5t-31.5 -93.5zM189 609
q20 0 30.5 -15.5t10.5 -24.5q0 -15 -14 -28t-27 -13q-12 0 -25.5 12t-13.5 26q0 17 14.5 30t24.5 13zM340 609q20 0 31 -15.5t11 -25.5q0 -14 -14 -27t-28 -13q-11 0 -24.5 12t-13.5 26q0 17 14 30t24 13z" />
    <glyph glyph-name="igrave" unicode="&#xec;" horiz-adv-x="241" 
d="M232 522l2.5 -5t0.5 -2q0 -3 -7 -4t-8 -1q-3 0 -4 1l-5 5l-115 106q-10 9 -13.5 13.5t-3.5 11.5q0 9 6.5 12t17.5 6q12 2 21 4t13 2q7 0 10.5 -4.5t8.5 -12.5zM211 127l-1 -18q0 -11 -11 -23t-22 -23q-27 -27 -46.5 -41.5t-33.5 -22t-23 -9t-16 -1.5q-12 0 -19 5t-10 11
t-3.5 11.5t-0.5 7.5q0 9 8.5 37.5t20.5 66t27 79t27 77t20.5 59.5t8.5 27q0 4 -4 4q-7 0 -19 -7t-25 -17t-25.5 -21t-21.5 -19l-5 -1l-1 16q0 7 11.5 19t19.5 20t21 19.5t29.5 22t34 18.5t32.5 8q21 0 24.5 -10t3.5 -15q0 -12 -6.5 -31t-15.5 -43q-2 -5 -9.5 -26t-18 -50.5
t-22.5 -62t-22 -61t-16.5 -48.5t-6.5 -23q0 -11 7 -11q9 0 39.5 19.5t63.5 56.5h6z" />
    <glyph glyph-name="iacute" unicode="&#xed;" horiz-adv-x="241" 
d="M189 517q-6 -5 -9 -6.5t-5 -0.5l-11 3q-2 1 0.5 3.5l5.5 5.5l122 131q9 10 14 14t12 4q2 0 11 -1t19 -3.5t17.5 -6.5t7.5 -10q0 -8 -4.5 -12t-13.5 -10zM211 127l-1 -18q0 -11 -11 -23t-22 -23q-27 -27 -46.5 -41.5t-33.5 -22t-23 -9t-16 -1.5q-12 0 -19 5t-10 11
t-3.5 11.5t-0.5 7.5q0 9 8.5 37.5t20.5 66t27 79t27 77t20.5 59.5t8.5 27q0 4 -4 4q-7 0 -19 -7t-25 -17t-25.5 -21t-21.5 -19l-5 -1l-1 16q0 7 11.5 19t19.5 20t21 19.5t29.5 22t34 18.5t32.5 8q21 0 24.5 -10t3.5 -15q0 -12 -6.5 -31t-15.5 -43q-2 -5 -9.5 -26t-18 -50.5
t-22.5 -62t-22 -61t-16.5 -48.5t-6.5 -23q0 -11 7 -11q9 0 39.5 19.5t63.5 56.5h6z" />
    <glyph glyph-name="icircumflex" unicode="&#xee;" horiz-adv-x="241" 
d="M219 601q-20 -14 -44 -30t-45 -29.5t-35 -22t-15 -8.5q-2 0 -7 3.5t-5 7.5q0 2 2 4t10 9q2 2 15 12.5t32 27.5t41.5 38t43.5 43q5 5 11 8.5t14 3.5q10 0 15 -8t18 -43q7 -18 16 -40.5t12 -29.5q2 -3 5.5 -12t3.5 -11q0 -3 -5 -7.5t-7 -4.5q-3 0 -14 12.5t-23.5 28t-24 30
t-14.5 18.5zM211 127l-1 -18q0 -11 -11 -23t-22 -23q-27 -27 -46.5 -41.5t-33.5 -22t-23 -9t-16 -1.5q-12 0 -19 5t-10 11t-3.5 11.5t-0.5 7.5q0 9 8.5 37.5t20.5 66t27 79t27 77t20.5 59.5t8.5 27q0 4 -4 4q-7 0 -19 -7t-25 -17t-25.5 -21t-21.5 -19l-5 -1l-1 16
q0 7 11.5 19t19.5 20t21 19.5t29.5 22t34 18.5t32.5 8q21 0 24.5 -10t3.5 -15q0 -12 -6.5 -31t-15.5 -43q-2 -5 -9.5 -26t-18 -50.5t-22.5 -62t-22 -61t-16.5 -48.5t-6.5 -23q0 -11 7 -11q9 0 39.5 19.5t63.5 56.5h6z" />
    <glyph glyph-name="idieresis" unicode="&#xef;" horiz-adv-x="241" 
d="M125 609q20 0 30.5 -15.5t10.5 -25.5q0 -14 -14 -27t-28 -13q-11 0 -24.5 12.5t-13.5 25.5q0 16 14 29.5t25 13.5zM254 609q20 0 30.5 -15.5t10.5 -24.5q0 -15 -14.5 -28t-26.5 -13t-25.5 12t-13.5 26q0 17 14.5 30t24.5 13zM211 127l-1 -18q0 -11 -11 -23t-22 -23
q-27 -27 -46.5 -41.5t-33.5 -22t-23 -9t-16 -1.5q-12 0 -19 5t-10 11t-3.5 11.5t-0.5 7.5q0 9 8.5 37.5t20.5 66t27 79t27 77t20.5 59.5t8.5 27q0 4 -4 4q-7 0 -19 -7t-25 -17t-25.5 -21t-21.5 -19l-5 -1l-1 16q0 7 11.5 19t19.5 20t21 19.5t29.5 22t34 18.5t32.5 8
q21 0 24.5 -10t3.5 -15q0 -12 -6.5 -31t-15.5 -43q-2 -5 -9.5 -26t-18 -50.5t-22.5 -62t-22 -61t-16.5 -48.5t-6.5 -23q0 -11 7 -11q9 0 39.5 19.5t63.5 56.5h6z" />
    <glyph glyph-name="eth" unicode="&#xf0;" horiz-adv-x="426" 
d="M238 547q-1 -1 -6.5 -3t-11 -4.5t-10.5 -4.5l-5 -2q-2 4 -6.5 15.5t-3.5 12.5q4 2 17 6t16 6q3 1 14.5 5.5t24.5 9.5t24.5 9.5t15.5 5.5q-5 20 -14.5 46t-19.5 47l-8 17q0 3 10 3q14 0 22 -1.5t13 -9.5q6 -8 17.5 -32t22.5 -54q6 3 22.5 9.5t34 13.5t31 13t14.5 6l1.5 -4
t3 -9t3 -9t1.5 -5t-7 -3.5t-13 -4.5q-3 -1 -7 -2.5t-12.5 -4.5t-23.5 -9t-40 -15q11 -37 26 -97.5t15 -144.5q0 -105 -25 -175t-62.5 -112t-80 -59.5t-78.5 -17.5q-54 0 -88.5 34t-34.5 109q0 56 18.5 110t51 97t76 69t94.5 26q20 0 32.5 -4t25.5 -9q-1 49 -5 89t-10 67z
M259 402q-36 0 -65 -32.5t-49 -78.5t-30.5 -95.5t-10.5 -83.5q0 -40 15 -66t44 -26q36 0 65.5 30.5t50.5 74.5t32 93t11 85q0 28 -6 47t-15 30.5t-20 16.5t-22 5z" />
    <glyph glyph-name="ntilde" unicode="&#xf1;" horiz-adv-x="519" 
d="M40 273v19q0 16 9.5 35t19.5 33q5 9 14.5 21.5t22.5 24.5t29 20.5t34 8.5q19 0 28.5 -10.5t9.5 -22.5q0 -15 -10 -46.5t-23 -71.5q-4 -11 -7.5 -20.5t-7 -20t-7.5 -24t-10 -32.5q30 51 63.5 95.5t66 78t62 52.5t52.5 19q32 0 43 -22.5t11 -48.5q0 -15 -4 -37t-9.5 -45
t-11.5 -44t-10 -34q-1 -4 -6.5 -23.5t-12 -41t-11.5 -39.5t-5 -20t2 -2q4 0 34 25t77 88l5 -1v-15q0 -5 -0.5 -9t-2.5 -9t-7.5 -13t-14.5 -22q-12 -16 -29.5 -38t-38 -42.5t-41 -35t-37.5 -14.5t-21 11t-4 16q0 9 2.5 19.5t5.5 19.5q7 22 19 62.5t23.5 84t20 82t8.5 55.5
q0 30 -26 30q-18 0 -40 -20t-43 -48.5t-39.5 -60t-31.5 -54.5q-19 -35 -39.5 -81t-38.5 -89q-4 -8 -11 -17.5t-24 -9.5q-15 0 -20.5 8t-5.5 13q0 6 7 31.5t17.5 60.5l22.5 75t22.5 75.5t17.5 61.5t7 33q0 11 -10 11q-12 0 -24.5 -9.5t-25 -23t-23 -28t-18.5 -25.5zM470 618
q7 -5 8.5 -6.5t1.5 -3.5q0 -1 -4 -6.5t-9.5 -11.5t-10 -11.5t-6.5 -7.5q-20 -21 -37 -34t-33 -13q-6 0 -11 1t-11 4t-15.5 8.5t-25.5 15.5q-11 6 -21.5 11.5t-24.5 5.5q-8 0 -22 -4.5t-38 -32.5l-4 -4q-3 -4 -4 -4q-2 0 -7.5 5.5t-5.5 7.5q0 1 3 5.5t7.5 10t8.5 10t6 6.5
q27 31 43 41.5t29 10.5q10 0 18.5 -1.5t23.5 -12.5q27 -19 39.5 -25.5t29.5 -6.5q11 0 21 4.5t18 11t14 13t9 10.5q5 6 10 3z" />
    <glyph glyph-name="ograve" unicode="&#xf2;" horiz-adv-x="426" 
d="M273 434q35 0 58 -13.5t37.5 -34.5t20.5 -48t6 -54q0 -46 -16.5 -98t-48 -95.5t-76 -72.5t-101.5 -29q-11 0 -25 2t-28 8t-28 18t-25 32q-12 23 -14.5 47t-2.5 36q0 53 17.5 106.5t49.5 97t76.5 71t99.5 27.5zM259 402q-36 0 -65 -32.5t-49 -78.5t-30.5 -95.5
t-10.5 -83.5q0 -40 15 -66t44 -26q36 0 65.5 30.5t50.5 74.5t32 93t11 85q0 28 -6 47t-15 30.5t-20 16.5t-22 5zM312 522l4 -7q0 -3 -7 -4t-8 -1q-4 0 -10 6l-114 106q-11 9 -14.5 13.5t-3.5 11.5q0 9 7 12t18 6q24 6 34 6q7 0 10.5 -4.5t8.5 -12.5z" />
    <glyph glyph-name="oacute" unicode="&#xf3;" horiz-adv-x="426" 
d="M245 517q-6 -5 -9 -6.5t-5 -0.5l-11 3q-2 1 0.5 3.5l5.5 5.5l122 131q9 10 14 14t12 4q2 0 11 -1t19 -3.5t17.5 -6.5t7.5 -10q0 -8 -4.5 -12t-13.5 -10zM273 434q35 0 58 -13.5t37.5 -34.5t20.5 -48t6 -54q0 -46 -16.5 -98t-48 -95.5t-76 -72.5t-101.5 -29q-11 0 -25 2
t-28 8t-28 18t-25 32q-12 23 -14.5 47t-2.5 36q0 53 17.5 106.5t49.5 97t76.5 71t99.5 27.5zM259 402q-36 0 -65 -32.5t-49 -78.5t-30.5 -95.5t-10.5 -83.5q0 -40 15 -66t44 -26q36 0 65.5 30.5t50.5 74.5t32 93t11 85q0 28 -6 47t-15 30.5t-20 16.5t-22 5z" />
    <glyph glyph-name="ocircumflex" unicode="&#xf4;" horiz-adv-x="426" 
d="M273 434q35 0 58 -13.5t37.5 -34.5t20.5 -48t6 -54q0 -46 -16.5 -98t-48 -95.5t-76 -72.5t-101.5 -29q-11 0 -25 2t-28 8t-28 18t-25 32q-12 23 -14.5 47t-2.5 36q0 53 17.5 106.5t49.5 97t76.5 71t99.5 27.5zM259 402q-36 0 -65 -32.5t-49 -78.5t-30.5 -95.5
t-10.5 -83.5q0 -40 15 -66t44 -26q36 0 65.5 30.5t50.5 74.5t32 93t11 85q0 28 -6 47t-15 30.5t-20 16.5t-22 5zM299 601q-20 -14 -44 -30t-45 -29.5t-35.5 -22l-14.5 -8.5q-2 0 -7 3.5t-5 7.5q0 2 2 4t10 9q35 29 68 59t64 62q5 5 11 8.5t14 3.5q10 0 14.5 -7.5t17.5 -41.5
q9 -23 15.5 -39t13.5 -33q1 -3 5 -12t4 -11q0 -3 -5 -7.5t-8 -4.5q-2 0 -11 10.5l-21 24.5t-24 29.5t-19 24.5z" />
    <glyph glyph-name="otilde" unicode="&#xf5;" horiz-adv-x="426" 
d="M273 434q35 0 58 -13.5t37.5 -34.5t20.5 -48t6 -54q0 -46 -16.5 -98t-48 -95.5t-76 -72.5t-101.5 -29q-11 0 -25 2t-28 8t-28 18t-25 32q-12 23 -14.5 47t-2.5 36q0 53 17.5 106.5t49.5 97t76.5 71t99.5 27.5zM259 402q-36 0 -65 -32.5t-49 -78.5t-30.5 -95.5
t-10.5 -83.5q0 -40 15 -66t44 -26q36 0 65.5 30.5t50.5 74.5t32 93t11 85q0 28 -6 47t-15 30.5t-20 16.5t-22 5zM427 618q3 -2 6.5 -5t3.5 -5q0 -1 -4 -6t-9 -11t-10.5 -12t-7.5 -8q-23 -25 -39 -36t-30 -11q-6 0 -10.5 1t-12 4.5t-19 10.5t-31.5 19q-12 7 -21 9t-15 2
q-7 0 -21.5 -4.5t-37.5 -31.5q-1 -1 -4.5 -5t-4.5 -4q-2 0 -7.5 5.5t-5.5 7.5q0 1 3 5.5t7.5 10t8.5 10t6 6.5q27 32 43.5 42t28.5 10q11 0 23 -4.5t19 -9.5q27 -19 39.5 -25.5t29.5 -6.5q11 0 21 4.5t18 11t14 13t9 10.5q5 6 10 3z" />
    <glyph glyph-name="odieresis" unicode="&#xf6;" horiz-adv-x="426" 
d="M273 434q35 0 58 -13.5t37.5 -34.5t20.5 -48t6 -54q0 -46 -16.5 -98t-48 -95.5t-76 -72.5t-101.5 -29q-11 0 -25 2t-28 8t-28 18t-25 32q-12 23 -14.5 47t-2.5 36q0 53 17.5 106.5t49.5 97t76.5 71t99.5 27.5zM259 402q-36 0 -65 -32.5t-49 -78.5t-30.5 -95.5
t-10.5 -83.5q0 -40 15 -66t44 -26q36 0 65.5 30.5t50.5 74.5t32 93t11 85q0 28 -6 47t-15 30.5t-20 16.5t-22 5zM211 609q20 0 30.5 -15.5t10.5 -24.5q0 -15 -14 -28t-27 -13q-12 0 -25.5 12t-13.5 26q0 17 14.5 30t24.5 13zM363 609q20 0 30.5 -15.5t10.5 -25.5
q0 -14 -14 -27t-28 -13q-11 0 -24.5 12t-13.5 26q0 17 14 30t25 13z" />
    <glyph glyph-name="divide" unicode="&#xf7;" 
d="M220 456q0 15 14 29.5t30 14.5q17 0 31 -14.5t14 -28.5t-14 -29t-30 -15q-15 0 -30 14t-15 29zM457 339q8 0 8 -11v-24q0 -11 -8 -11h-390q-8 0 -8 11v24q0 11 8 11h390zM220 176q0 15 14 29.5t30 14.5q17 0 31 -15t14 -29t-14 -29t-30 -15q-15 0 -30 14t-15 30z" />
    <glyph glyph-name="oslash" unicode="&#xf8;" horiz-adv-x="426" 
d="M384 445q5 5 6 6.5t5 1.5h15q8 -1 8 -3q0 -1 -2.5 -4t-3.5 -4l-44 -55q15 -23 21 -49t6 -53q0 -48 -17 -100t-48.5 -95.5t-76 -72t-99.5 -28.5q-38 0 -57 11.5t-27 17.5l-41 -51q-3 -4 -4.5 -4.5t-4.5 -0.5h-21l-2 1q0 1 1.5 3t2.5 3l54 67q-7 11 -16 31.5t-9 64.5
q0 55 18 109t50.5 97t76.5 69.5t96 26.5q36 0 54.5 -11t26.5 -18zM314 358q-11 24 -25 34t-31 10q-36 0 -65.5 -33t-50 -80.5t-30.5 -101t-7 -94.5zM111 65q6 -17 14 -26t15.5 -13.5t14 -5t8.5 -0.5q38 0 67.5 31t50 75t31.5 91t11 79q0 11 -0.5 19.5t-2.5 17.5z" />
    <glyph glyph-name="ugrave" unicode="&#xf9;" horiz-adv-x="500" 
d="M344 522l2.5 -5t0.5 -2q0 -3 -6.5 -4t-8.5 -1q-3 0 -9 6l-115 106q-10 9 -13.5 13.5t-3.5 11.5q0 9 6.5 12t17.5 6q26 6 35 6q7 0 10.5 -4.5t8.5 -12.5zM473 185v-24q0 -4 -0.5 -7.5t-4 -10t-11.5 -18t-22 -32.5q-40 -56 -73 -79t-56 -23q-14 0 -21.5 5t-11 11.5t-4 13
t-0.5 10.5q0 12 4 27.5t14.5 44.5t29 74.5t47.5 117.5q-15 -20 -39 -51.5t-52.5 -66.5t-59.5 -70t-61 -63q-5 -4 -15 -13t-22.5 -18t-26 -15.5t-26.5 -6.5q-20 0 -27 12.5t-7 29.5t6 41.5t14.5 50.5t18 51t17.5 44q3 8 11 26.5t16.5 38.5t16 36.5t9.5 20.5q5 8 0 8
q-2 0 -11.5 -7.5t-23 -19t-29 -26t-29.5 -28.5h-4l-1 3q-2 5 -4 8.5t-2 8.5q0 3 8 13t18.5 21.5t21 22.5t14.5 15q30 31 56 51.5t46 20.5q14 0 18.5 -8t4.5 -13q0 -6 -9 -31t-22 -59t-28.5 -73.5t-28.5 -74t-22 -60.5t-9 -33q0 -5 2.5 -6.5t4.5 -1.5q20 0 56.5 32t76.5 79
t76.5 100.5t57.5 96.5q15 33 22.5 42t17.5 9q11 0 22 -7t11 -18q0 -6 -12 -35q-5 -12 -14 -37.5t-20 -56.5t-22.5 -64t-20.5 -61t-15 -47.5t-6 -23.5q0 -8 4 -10t7 -2q14 0 45 24t70 91h9z" />
    <glyph glyph-name="uacute" unicode="&#xfa;" horiz-adv-x="500" 
d="M307 517q-6 -5 -9 -6.5t-5 -0.5l-11 3q-2 1 0.5 3.5l5.5 5.5l122 131q9 10 14 14t12 4q2 0 11 -1t19 -3.5t17.5 -6.5t7.5 -10q0 -8 -4.5 -12t-13.5 -10zM473 185v-24q0 -4 -0.5 -7.5t-4 -10t-11.5 -18t-22 -32.5q-40 -56 -73 -79t-56 -23q-14 0 -21.5 5t-11 11.5t-4 13
t-0.5 10.5q0 12 4 27.5t14.5 44.5t29 74.5t47.5 117.5q-15 -20 -39 -51.5t-52.5 -66.5t-59.5 -70t-61 -63q-5 -4 -15 -13t-22.5 -18t-26 -15.5t-26.5 -6.5q-20 0 -27 12.5t-7 29.5t6 41.5t14.5 50.5t18 51t17.5 44q3 8 11 26.5t16.5 38.5t16 36.5t9.5 20.5q5 8 0 8
q-2 0 -11.5 -7.5t-23 -19t-29 -26t-29.5 -28.5h-4l-1 3q-2 5 -4 8.5t-2 8.5q0 3 8 13t18.5 21.5t21 22.5t14.5 15q30 31 56 51.5t46 20.5q14 0 18.5 -8t4.5 -13q0 -6 -9 -31t-22 -59t-28.5 -73.5t-28.5 -74t-22 -60.5t-9 -33q0 -5 2.5 -6.5t4.5 -1.5q20 0 56.5 32t76.5 79
t76.5 100.5t57.5 96.5q15 33 22.5 42t17.5 9q11 0 22 -7t11 -18q0 -6 -12 -35q-5 -12 -14 -37.5t-20 -56.5t-22.5 -64t-20.5 -61t-15 -47.5t-6 -23.5q0 -8 4 -10t7 -2q14 0 45 24t70 91h9z" />
    <glyph glyph-name="ucircumflex" unicode="&#xfb;" horiz-adv-x="500" 
d="M344 601q-20 -15 -44 -30.5t-45 -29t-35 -22l-14 -8.5q-2 0 -7.5 3.5t-5.5 7.5q0 2 2.5 4t10.5 9q6 5 20 17t32.5 28.5t39.5 36t40 39.5q5 5 11 8.5t13 3.5q10 0 15 -8t18 -43q7 -18 16 -40.5t12 -29.5q2 -3 5.5 -12t3.5 -11q0 -3 -5 -7.5t-7 -4.5q-3 0 -13.5 12
t-23 27.5t-24 30t-15.5 19.5zM473 185v-24q0 -4 -0.5 -7.5t-4 -10t-11.5 -18t-22 -32.5q-40 -56 -73 -79t-56 -23q-14 0 -21.5 5t-11 11.5t-4 13t-0.5 10.5q0 12 4 27.5t14.5 44.5t29 74.5t47.5 117.5q-15 -20 -39 -51.5t-52.5 -66.5t-59.5 -70t-61 -63q-5 -4 -15 -13
t-22.5 -18t-26 -15.5t-26.5 -6.5q-20 0 -27 12.5t-7 29.5t6 41.5t14.5 50.5t18 51t17.5 44q3 8 11 26.5t16.5 38.5t16 36.5t9.5 20.5q5 8 0 8q-2 0 -11.5 -7.5t-23 -19t-29 -26t-29.5 -28.5h-4l-1 3q-2 5 -4 8.5t-2 8.5q0 3 8 13t18.5 21.5t21 22.5t14.5 15q30 31 56 51.5
t46 20.5q14 0 18.5 -8t4.5 -13q0 -6 -9 -31t-22 -59t-28.5 -73.5t-28.5 -74t-22 -60.5t-9 -33q0 -5 2.5 -6.5t4.5 -1.5q20 0 56.5 32t76.5 79t76.5 100.5t57.5 96.5q15 33 22.5 42t17.5 9q11 0 22 -7t11 -18q0 -6 -12 -35q-5 -12 -14 -37.5t-20 -56.5t-22.5 -64t-20.5 -61
t-15 -47.5t-6 -23.5q0 -8 4 -10t7 -2q14 0 45 24t70 91h9z" />
    <glyph glyph-name="udieresis" unicode="&#xfc;" horiz-adv-x="500" 
d="M473 185v-24q0 -4 -0.5 -7.5t-4 -10t-11.5 -18t-22 -32.5q-40 -56 -73 -79t-56 -23q-14 0 -21.5 5t-11 11.5t-4 13t-0.5 10.5q0 12 4 27.5t14.5 44.5t29 74.5t47.5 117.5q-15 -20 -39 -51.5t-52.5 -66.5t-59.5 -70t-61 -63q-5 -4 -15 -13t-22.5 -18t-26 -15.5t-26.5 -6.5
q-20 0 -27 12.5t-7 29.5t6 41.5t14.5 50.5t18 51t17.5 44q3 8 11 26.5t16.5 38.5t16 36.5t9.5 20.5q5 8 0 8q-2 0 -11.5 -7.5t-23 -19t-29 -26t-29.5 -28.5h-4l-1 3q-2 5 -4 8.5t-2 8.5q0 3 8 13t18.5 21.5t21 22.5t14.5 15q30 31 56 51.5t46 20.5q14 0 18.5 -8t4.5 -13
q0 -6 -9 -31t-22 -59t-28.5 -73.5t-28.5 -74t-22 -60.5t-9 -33q0 -5 2.5 -6.5t4.5 -1.5q20 0 56.5 32t76.5 79t76.5 100.5t57.5 96.5q15 33 22.5 42t17.5 9q11 0 22 -7t11 -18q0 -6 -12 -35q-5 -12 -14 -37.5t-20 -56.5t-22.5 -64t-20.5 -61t-15 -47.5t-6 -23.5q0 -8 4 -10
t7 -2q14 0 45 24t70 91h9zM248 609q20 0 30.5 -15.5t10.5 -24.5q0 -15 -14 -28t-27 -13q-11 0 -25 12t-14 26q0 17 14.5 30t24.5 13zM400 609q20 0 30.5 -15.5t10.5 -25.5q0 -14 -14 -27t-28 -13q-11 0 -24.5 12.5t-13.5 25.5q0 16 14 29.5t25 13.5z" />
    <glyph glyph-name="yacute" unicode="&#xfd;" horiz-adv-x="444" 
d="M279 517q-6 -5 -9 -6.5t-5 -0.5l-11 3q-2 1 0.5 3.5l5.5 5.5l122 131q9 10 14 14t12 4q2 0 11 -1t19 -3.5t17.5 -6.5t7.5 -10q0 -8 -4.5 -12t-13.5 -10zM258 32q18 34 37.5 70.5t35 73.5t25.5 73t10 69q0 19 -5 31t-10.5 20.5t-10.5 15t-5 14.5q0 16 13 24.5t27 8.5
q19 0 33.5 -16t14.5 -45q0 -32 -11.5 -73.5t-30 -85.5t-41.5 -89t-45.5 -85t-43 -72.5t-34.5 -51.5q-16 -23 -41.5 -54.5t-60.5 -60.5t-80.5 -49.5t-101.5 -20.5q-15 0 -31 2.5t-29.5 8.5t-22 16t-8.5 25q0 19 13 25.5t21 6.5q14 0 20.5 -7.5t9.5 -12.5q5 -9 12.5 -14.5
t33.5 -5.5q36 0 79.5 16.5t81.5 48.5t64 78t26 106q0 21 -2.5 51t-7.5 64t-11.5 69t-14.5 66q-13 49 -26 70t-37 21q-19 0 -32.5 -12t-22.5 -28t-13.5 -32t-5.5 -25q-1 -8 -9 -8q-7 0 -9 1t-2 6q0 20 7 49t21 55t37 44.5t54 18.5q40 0 65 -36t39 -117q8 -42 12.5 -76t7 -63
t3.5 -55t2 -53z" />
    <glyph glyph-name="thorn" unicode="&#xfe;" horiz-adv-x="444" 
d="M61 346q-6 -2 -7 1t-1 17q0 4 1.5 5t7.5 2l65 16q2 5 8.5 38t13.5 73t13 76.5t6 48.5q0 18 -8 26t-35 16q-7 2 -8.5 4t-1.5 6q0 8 5.5 10.5t28.5 6.5q10 2 26 4l32 4t29.5 3.5t18.5 1.5q2 0 6.5 -1t4.5 -7q0 -8 -4.5 -19t-6.5 -19q-10 -39 -20 -80t-18 -76.5t-14 -62.5
t-8 -38q24 5 41 8.5t30.5 5.5t25 3t24.5 1q30 0 50.5 -7.5t33 -20.5t18.5 -29t6 -33q0 -21 -7.5 -53t-21.5 -68.5t-35.5 -72.5t-48.5 -65.5t-60.5 -47.5t-72.5 -18q-26 0 -41 5.5t-22 10.5q-3 -15 -9 -47.5t-12 -68.5t-11 -67t-5 -41q0 -25 15 -32t50 -12q17 -2 20.5 -2.5
t3.5 -5.5q0 -2 -1.5 -6.5t-2.5 -6.5q-2 -2 -4.5 -2h-3.5q-7 0 -24.5 0.5t-37 0.5t-36.5 0.5t-23 0.5t-20.5 -0.5t-31 -0.5t-31 -0.5t-20.5 -0.5q-3 0 -5.5 0.5t-2.5 5.5q0 9 3 11.5t18 5.5q13 2 22.5 4.5t16.5 9.5t13 19t11 34q11 44 25 108t29.5 137t31 149t29.5 145z
M188 371q-8 -38 -13.5 -62t-9 -41t-7 -32t-7.5 -36q-5 -26 -11 -57t-6 -47q0 -7 1.5 -17.5t6.5 -20.5t15.5 -17t28.5 -7q30 0 59 31t51.5 74.5t36.5 91t14 79.5q0 20 -7.5 33t-20.5 20.5t-30 10t-35 2.5t-33.5 -1.5t-32.5 -3.5z" />
    <glyph glyph-name="ydieresis" unicode="&#xff;" horiz-adv-x="444" 
d="M206 609q10 0 17.5 -4.5t13 -11t8 -13.5t2.5 -11q0 -14 -13.5 -27.5t-27.5 -13.5q-12 0 -25 12.5t-13 25.5q0 17 14 30t24 13zM358 609q20 0 30.5 -15.5t10.5 -25.5q0 -14 -14 -27t-27 -13q-11 0 -25 12t-14 26q0 17 14.5 30t24.5 13zM258 32q18 34 37.5 70.5t35 73.5
t25.5 73t10 69q0 19 -5 31t-10.5 20.5t-10.5 15t-5 14.5q0 16 13 24.5t27 8.5q19 0 33.5 -16t14.5 -45q0 -32 -11.5 -73.5t-30 -85.5t-41.5 -89t-45.5 -85t-43 -72.5t-34.5 -51.5q-16 -23 -41.5 -54.5t-60.5 -60.5t-80.5 -49.5t-101.5 -20.5q-15 0 -31 2.5t-29.5 8.5t-22 16
t-8.5 25q0 19 13 25.5t21 6.5q14 0 20.5 -7.5t9.5 -12.5q5 -9 12.5 -14.5t33.5 -5.5q36 0 79.5 16.5t81.5 48.5t64 78t26 106q0 21 -2.5 51t-7.5 64t-11.5 69t-14.5 66q-13 49 -26 70t-37 21q-19 0 -32.5 -12t-22.5 -28t-13.5 -32t-5.5 -25q-1 -8 -9 -8q-7 0 -9 1t-2 6
q0 20 7 49t21 55t37 44.5t54 18.5q40 0 65 -36t39 -117q8 -42 12.5 -76t7 -63t3.5 -55t2 -53z" />
    <glyph glyph-name="dotlessi" unicode="&#x131;" horiz-adv-x="241" 
d="M211 127l-1 -18q0 -11 -11 -23t-22 -23q-27 -27 -46.5 -41.5t-33.5 -22t-23 -9t-16 -1.5q-12 0 -19 5t-10 11t-3.5 11.5t-0.5 7.5q0 9 8.5 37.5t20.5 66t27 79t27 77t20.5 59.5t8.5 27q0 4 -4 4q-7 0 -19 -7t-25 -17t-25.5 -21t-21.5 -19l-5 -1l-1 16q0 7 11.5 19
t19.5 20t21 19.5t29.5 22t34 18.5t32.5 8q21 0 24.5 -10t3.5 -15q0 -12 -6.5 -31t-15.5 -43q-2 -5 -9.5 -26t-18 -50.5t-22.5 -62t-22 -61t-16.5 -48.5t-6.5 -23q0 -11 7 -11q9 0 39.5 19.5t63.5 56.5h6z" />
    <glyph glyph-name="Lslash" unicode="&#x141;" horiz-adv-x="519" 
d="M155 328q24 112 35 167.5t11 72.5q0 20 -13 31t-60 12q-5 0 -9.5 1t-4.5 6q0 4 1.5 10.5t8.5 6.5q8 0 26.5 -0.5t39 -1t39 -1t25.5 -0.5t24.5 0.5t37 1t36.5 1t23 0.5q7 0 7 -6q0 -11 -5.5 -14t-23.5 -5q-31 -5 -45 -12.5t-22 -30.5q-4 -12 -10.5 -38.5t-13.5 -57
t-13.5 -59t-10.5 -45.5l151 101h5l-6 -23q-4 -14 -9.5 -20.5t-25.5 -20.5l-125 -87q-7 -37 -15.5 -76t-15 -73t-11 -60t-4.5 -38q0 -26 21 -30.5t75 -4.5q36 0 66 3t54 12.5t43.5 28t34.5 49.5q7 14 11 26.5t11 12.5q19 0 13 -24q-15 -54 -31 -88.5t-19 -42.5
q-2 -5 -6.5 -9.5t-10.5 -4.5h-28.5t-57 0.5t-71.5 0.5t-72 0.5t-59 0.5h-32q-44 0 -78.5 -1t-42.5 -1q-7 0 -7 6q0 12 4 14.5t11 2.5q42 3 58 13.5t24 31.5q8 20 19.5 70.5t31.5 141.5l-98 -66h-5l5 20q3 10 6 16.5t12 14.5z" />
    <glyph glyph-name="lslash" unicode="&#x142;" horiz-adv-x="241" 
d="M9 260h-4l5 17q4 14 9 20t8 8t6.5 5t11 8.5t21.5 15.5t37 26q12 48 20 81.5t13.5 56t9 37t5.5 24.5q3 14 7.5 36t4.5 33q0 18 -12 24t-38 11q-11 2 -11 6q0 10 4 12t18 5q37 6 59 10t35 6t19 2.5t11 0.5q10 0 10 -7l-20 -74l-60 -229l87 57h4l-4 -16q-4 -14 -8 -20
t-10 -11q-4 -3 -16 -11t-24.5 -17t-24 -17t-16.5 -11q-2 -11 -8 -34t-13.5 -51.5t-15.5 -59.5t-14.5 -58t-11 -46t-4.5 -23q0 -7 3 -9t6 -2q13 0 44.5 21t64.5 52h5v-14q0 -6 -2.5 -10t-13.5 -17q-18 -19 -37.5 -38.5t-38.5 -35t-37 -25.5t-33 -10q-13 0 -24 8.5t-11 31.5
q0 12 2 23t4 19q3 14 12 49t18.5 74t18 73.5t11.5 47.5z" />
    <glyph glyph-name="OE" unicode="&#x152;" horiz-adv-x="870" 
d="M603 314q-23 0 -33.5 -0.5t-22.5 -1.5q-3 -13 -5 -24t-5 -27t-7.5 -40.5t-12.5 -65.5l-6.5 -32.5t-3.5 -20t-1 -12v-9.5q0 -11 3 -19.5t14 -14.5t32 -9t56 -3q42 0 70.5 3.5t49.5 14t38 30t36 51.5q2 2 6.5 11.5t6.5 14.5q2 3 6 3t9 -2q7 -3 7 -9q0 -4 -6 -21t-14 -38.5
t-16.5 -43t-14.5 -35.5q-2 -5 -5 -10.5t-9 -5.5q-5 0 -11 0.5t-14 1.5t-20 1h-29h-128.5h-79t-51.5 -0.5t-46 -0.5q-23 -5 -45 -8t-46 -3q-55 0 -99.5 18t-76.5 52t-49.5 83t-17.5 111q0 74 26 144.5t73 125.5t113.5 88t147.5 33q21 0 40 -2.5t31 -3.5q28 -2 65.5 -4
t86.5 -2q22 0 57.5 0.5t73.5 1.5t70 1.5t46 0.5q10 0 12 -5.5t2 -9.5q0 -1 -3.5 -11t-9 -25t-11 -32.5t-10.5 -34.5l-9 -36q-2 -7 -13 -4q-9 2 -9 6q0 10 1.5 23.5t1.5 23.5q0 20 -6.5 33.5t-22 21.5t-42.5 11.5t-69 3.5q-6 0 -20 -0.5t-29 -1.5t-28 -3.5t-16 -6.5
q-3 -3 -5.5 -9.5t-6.5 -26.5q-4 -18 -9.5 -44t-11.5 -54.5t-12.5 -57t-12.5 -52.5q25 -1 54 -1t55.5 2t48 6.5t32.5 13.5q8 7 17 19.5t12 23.5q4 11 6.5 13t6.5 2q3 0 8 -1t5 -7q-5 -18 -9 -33q-4 -13 -7 -24t-3 -13q-6 -21 -10.5 -41t-8 -36.5t-5.5 -27.5t-2 -14
q-1 -8 -11 -8q-8 0 -9.5 3t-1.5 8q0 29 -2 46t-14 25.5t-38 10.5t-74 2zM446 188q4 15 10.5 45.5t14.5 68t16.5 77.5t15 75t11 60t4.5 32q0 23 -13 35.5t-31 18.5t-36.5 7t-29.5 1q-54 0 -101.5 -28.5t-83 -78t-56 -115.5t-20.5 -141q0 -67 17 -111.5t49 -71.5
q23 -20 52 -29.5t58 -9.5q31 0 49 6t28.5 15.5t15 22.5t7.5 27z" />
    <glyph glyph-name="oe" unicode="&#x153;" horiz-adv-x="611" 
d="M551 119q1 -1 4 -5t3 -6q0 -4 -15 -23t-39 -40.5t-54.5 -38.5t-62.5 -17q-23 0 -38.5 9t-24.5 21t-14 25t-7 21q-29 -34 -66.5 -55t-82.5 -21q-19 0 -40.5 6t-40 22.5t-30.5 45t-12 73.5q0 71 22.5 126.5t56 93t73.5 57t74 19.5q29 0 48.5 -9.5t31.5 -22t18 -25.5t9 -21
q6 8 19 21t31.5 25.5t42.5 22t53 9.5q45 0 70 -23.5t25 -54.5q0 -30 -20.5 -61t-63.5 -52q-42 -20 -81.5 -25t-73.5 -6q-6 -34 -6 -68q0 -35 9 -54t20.5 -27.5t22 -10t13.5 -1.5q18 0 36 7.5t34.5 18.5t30.5 23t22 21h3zM370 228q48 3 80.5 18t52 34.5t28 40.5t8.5 35
q0 19 -13 32t-36 13q-15 0 -27 -5.5t-21.5 -14t-16 -18t-11.5 -17.5q-20 -35 -29.5 -67t-14.5 -51zM237 398q-30 0 -54.5 -25.5t-42 -64.5t-27 -87t-9.5 -93q0 -31 6 -52t15.5 -33.5t20.5 -17.5t21 -5q38 0 65.5 33.5t45 79.5t26 93t8.5 74q0 7 -1.5 23.5t-9 33t-22.5 29
t-42 12.5z" />
    <glyph glyph-name="Scaron" unicode="&#x160;" 
d="M352 773q13 11 29.5 23.5t34 25t34.5 25.5t30 23q2 2 9 7t9 5q3 0 7.5 -5t4.5 -7t-21.5 -24t-59.5 -62q-4 -4 -14 -14.5t-20.5 -22t-20 -22t-13.5 -14.5q-8 -8 -13 -9.5t-9 -1.5q-11 0 -17 9t-17 33q-3 6 -13.5 26t-22 42.5t-21 41t-9.5 19.5q0 3 4.5 6.5t6.5 3.5t13 -11
t26.5 -27t32.5 -35t30 -35zM422 164q0 -26 -10.5 -56.5t-35 -57t-65.5 -44t-102 -17.5q-32 0 -64 4t-52 9q-21 5 -28.5 6t-12.5 1q-4 0 -7 -0.5t-5 -0.5q-3 0 -4 3.5t-1 6.5q0 12 1.5 31.5l3 39t3.5 36t3 24.5q4 22 6 27t10 5q10 0 13 -2.5t3 -11.5v-33t1 -19.5t2 -13
t4 -12.5q6 -17 21.5 -29.5t34.5 -20.5t38 -11.5t34 -3.5q30 0 54 10t41 27t26.5 39t9.5 45q0 21 -6 37.5t-20.5 35t-39.5 41.5t-64 57q-20 18 -38 35.5t-31 36t-20.5 40t-7.5 47.5q0 17 7.5 45t29.5 56t62 48t105 20q18 0 36 -2t34 -5t28 -5t18 -2q5 0 11.5 0.5t9.5 0.5
q5 0 6 -3t1 -5t-1.5 -11.5t-3.5 -21t-4 -21.5t-3 -13q-1 -4 -2 -13t-2.5 -19t-2.5 -19t-1 -12q-1 -7 -9 -7q-13 0 -15 5t-2 25q0 39 -11 53.5t-28 22.5q-26 13 -48.5 15.5t-30.5 2.5q-29 0 -49.5 -10.5t-34 -27t-20 -36t-6.5 -36.5q0 -18 5 -33.5t18.5 -33.5t36 -40.5
t57.5 -52.5q25 -21 46 -40.5t36 -40t23.5 -43.5t8.5 -52z" />
    <glyph glyph-name="scaron" unicode="&#x161;" horiz-adv-x="296" 
d="M228 432q2 0 13 -1t23 -5.5t22 -14t10 -26.5q0 -19 -9 -27t-21 -8q-6 0 -11.5 2.5t-25.5 11.5q-15 6 -26.5 9.5t-24.5 3.5q-16 0 -26.5 -4.5t-16.5 -11t-8.5 -13.5t-2.5 -12q0 -20 14 -40.5t47 -62.5q26 -32 37.5 -56t11.5 -43q0 -26 -13 -52t-36 -46.5t-53 -33.5
t-65 -13q-25 0 -39 6t-20.5 14.5t-7.5 17.5t-1 15q0 34 28 34q8 0 16.5 -3t38.5 -17q13 -6 26.5 -9.5t21.5 -3.5q20 0 35 13t15 33q0 18 -12.5 39t-29.5 44q-20 27 -33 44t-20 29t-9.5 22t-2.5 22q0 21 11.5 46t32 46.5t49 36t62.5 14.5zM244 571q7 5 22.5 15.5t33 22.5
t32.5 22.5t21 14.5q8 5 19.5 12.5t13.5 7.5q5 0 8.5 -4t3.5 -7q0 -2 -5.5 -6.5t-6.5 -5.5q-34 -31 -54.5 -49.5t-33.5 -30t-21 -19.5l-18 -18q-7 -7 -13.5 -12t-15.5 -5q-11 0 -15 5.5t-7 13.5q-7 21 -14.5 40.5t-13.5 35.5t-10.5 26t-6.5 13q-4 6 -4 11t5 8.5t8 3.5
q2 0 3.5 -2t8.5 -10q4 -5 12.5 -17t18 -25t18 -24.5t11.5 -16.5z" />
    <glyph glyph-name="Ydieresis" unicode="&#x178;" horiz-adv-x="555" 
d="M294 802q15 0 30 -14t15 -30q0 -15 -14 -29.5t-28 -14.5q-5 0 -13 3t-15.5 8.5t-12.5 13.5t-5 18q0 16 13 30.5t30 14.5zM490 802q16 0 30.5 -14t14.5 -30q0 -15 -13.5 -29.5t-28.5 -14.5q-5 0 -12.5 3t-15 8.5t-12.5 13.5t-5 18q0 16 12.5 30.5t29.5 14.5zM320 341
q5 6 18 20.5t27.5 30t27.5 29.5t18 20q12 14 26 29.5t27 31t24.5 29.5t18.5 24q11 14 14.5 21t3.5 13q0 15 -20.5 18.5t-51.5 5.5q-5 0 -8 1t-3 6q0 4 2 9.5t9 5.5q6 0 21 -0.5t32 -1t31.5 -1t20.5 -0.5t20.5 0.5t30.5 1t30 1t19 0.5q7 0 7 -6q0 -11 -4 -14t-18 -7
q-21 -6 -50.5 -29.5t-67 -60.5t-82 -86t-95.5 -105q-16 -19 -20 -28t-7 -25q-7 -34 -13.5 -66.5t-12 -60.5t-9 -48.5t-3.5 -31.5q0 -31 22.5 -37.5t58.5 -8.5q9 0 11 -1t2 -7q0 -11 -4.5 -13t-8.5 -2q-29 0 -59.5 1t-50.5 1q-15 0 -38 -0.5t-46 -0.5t-42 -0.5t-26 -0.5
q-9 0 -9 9q0 10 4.5 12t20.5 3q28 2 44 6.5t26 18.5t17 40.5t17 71.5q8 36 14 60t9.5 39.5t5 24t1.5 13.5q0 12 -12 44.5t-29.5 72.5t-37 80t-33.5 67q-9 17 -17 27t-17 15t-19.5 7t-24.5 3q-7 0 -7 8q0 15 13 15q6 0 20.5 -0.5t31 -1t31 -1t20.5 -0.5q17 0 38.5 0.5t41 1
t34.5 1t20 0.5q11 0 11 -8q0 -12 -5.5 -14t-11.5 -2q-34 -2 -53.5 -6.5t-19.5 -26.5q0 -10 13 -42.5t29.5 -71l31.5 -73.5t20 -50z" />
    <glyph glyph-name="Zcaron" unicode="&#x17d;" horiz-adv-x="574" 
d="M381 773q13 11 30 23.5l34 25t34 25.5t30 23q3 2 9.5 7t8.5 5q4 0 8 -5t4 -7q0 -1 -17 -19t-39 -41t-42.5 -45t-27.5 -30q-20 -23 -28 -29t-16 -6q-11 0 -17 9t-17 33q-3 6 -13.5 26.5t-22 43t-21 40.5t-9.5 19q0 3 4 6.5t6 3.5t13.5 -11t27 -27.5t32.5 -35.5t29 -34z
M93 28q3 0 24 0.5t52 1t67.5 1.5t71 3.5t62.5 5.5t42 8q15 5 28.5 16.5t25 26.5t21 31.5t15.5 31.5q5 10 7.5 13t5.5 3q18 0 18 -10q0 -8 -7 -29t-16.5 -45.5t-19 -48t-14.5 -35.5q-4 -10 -9 -10q-4 0 -12.5 2.5t-19.5 2.5q-5 0 -14 0.5t-27 1t-48.5 1t-78.5 0.5
q-106 0 -169 -1t-95 -1q-18 0 -18 7q0 13 7 21q3 2 24.5 27t55 64.5t76 89.5t87 102t87.5 103t77.5 91.5t57 67.5t26.5 32q-18 0 -50.5 -1t-68.5 -2.5t-70.5 -3.5t-57.5 -5q-20 -2 -34 -7t-25.5 -15.5t-22.5 -29.5t-25 -50q-5 -9 -6 -10.5t-4 -1.5q-7 0 -13 2.5t-6 8.5
q0 3 5.5 21t12.5 39.5t13.5 41l8.5 25.5t4 11t3 9q4 9 9 9q3 0 5.5 -1.5t7.5 -3.5t14.5 -3.5t25.5 -1.5h81h106.5h101.5h66h27q4 -1 4 -6q0 -12 -8 -23q-84 -95 -166 -190.5t-164 -192.5z" />
    <glyph glyph-name="zcaron" unicode="&#x17e;" horiz-adv-x="444" 
d="M92 106q56 67 106.5 124.5t105.5 120.5q-9 0 -31 2.5t-46.5 4.5t-46.5 4t-30 2q-6 0 -15 -1t-18.5 -7t-19.5 -19t-19 -37q-3 -9 -9 -9q-4 1 -7 2q-7 2 -7 6q0 3 6.5 22.5t14.5 41.5q7 20 12 33t11.5 21t15 11.5t22.5 3.5q12 0 41 -4.5t61 -9.5t60.5 -10t39.5 -6
q19 17 28.5 24t21.5 7q10 0 21 -6.5t11 -23.5t-17 -32t-53 -20q-12 -12 -38 -40.5t-56.5 -64t-62 -72.5t-55.5 -67q44 1 71 -13.5t60 -44.5q41 -37 59.5 -51.5t34.5 -14.5q13 0 16.5 6.5t3.5 8.5t-1 5t-5 9q-9 12 -9 19q0 8 8 17.5t25 9.5t27 -10.5t10 -24.5t-9 -27t-24 -23
t-34.5 -16t-40.5 -6q-9 0 -22 1.5t-32 9t-45 24t-62 47.5q-17 14 -28 20.5t-24 6.5q-17 0 -25.5 -11t-13.5 -19q-7 -14 -13 -22t-18 -8q-11 0 -22 7.5t-11 25.5q0 10 6.5 23t19.5 25q11 9 22 14t29 11zM285 571q14 10 22.5 16t16 11l15 10l19.5 13q27 20 46 32.5t23 12.5
t7.5 -4t3.5 -7q0 -1 -14 -14t-32 -29t-35 -31t-23 -21l-9 -9l-13 -13t-13.5 -13t-8.5 -8q-5 -3 -9.5 -5.5t-10.5 -2.5q-10 0 -14.5 5.5t-7.5 13.5q-7 22 -15 42t-14 36t-10.5 26t-5.5 11q-1 2 -2.5 5.5t-1.5 5.5q0 5 5.5 8.5t7.5 3.5t3.5 -2t8.5 -10q4 -5 12.5 -17t18.5 -25
t18.5 -24.5t11.5 -16.5z" />
    <glyph glyph-name="florin" unicode="&#x192;" 
d="M404 348q4 0 4 -2t-1.5 -11.5t-3.5 -13.5q-2 -7 -5 -7h-110l-21 -120q-15 -82 -25.5 -136.5t-21.5 -92.5t-25 -65t-35 -55q-7 -10 -18 -21t-24.5 -20.5t-30 -15.5t-36.5 -6q-30 0 -43.5 11t-13.5 24q0 15 12.5 26t20.5 11q7 0 13 -4.5t12.5 -9.5t14.5 -9.5t19 -4.5
q7 0 15.5 2.5t18 17.5t20 48t21.5 93q2 10 6 36t8.5 54.5t8.5 53.5t6 34l29 149h-62q-3 0 -3 2q0 1 2 11t3 12q2 2 7 2l61 12q17 69 34.5 121.5t53.5 95.5q35 41 73 57.5t70 16.5q35 0 59.5 -16.5t24.5 -44.5q0 -13 -5 -20t-11.5 -10.5t-13 -4.5t-10.5 -1q-13 0 -18 6.5
t-10 16.5q-3 8 -12.5 19.5t-35.5 11.5q-29 0 -49 -21.5t-35 -56.5t-26 -81t-22 -94h110z" />
    <glyph glyph-name="circumflex" unicode="&#x2c6;" horiz-adv-x="500" 
d="M336 601q-20 -14 -44 -30t-45 -29.5t-35 -22t-15 -8.5q-2 0 -7 3.5t-5 7.5q0 2 2 4t10 9q2 2 15 12.5t32 27.5t41.5 38t43.5 43q5 5 11 8.5t14 3.5q10 0 15 -8t18 -43q7 -18 16 -40.5t12 -29.5q2 -3 5.5 -12t3.5 -11q0 -3 -5 -7.5t-7 -4.5q-3 0 -14 12.5t-23.5 28t-24 30
t-14.5 18.5z" />
    <glyph glyph-name="caron" unicode="&#x2c7;" horiz-adv-x="500" 
d="M449 659q7 5 9.5 6t4.5 1q4 0 7.5 -4t3.5 -7q0 -1 -14 -14t-32 -29t-35 -31t-23 -21l-9 -9l-13 -13l-13 -13t-9 -8q-5 -3 -9 -5.5t-11 -2.5q-10 0 -14.5 5.5t-6.5 13.5q-16 45 -29.5 77.5t-15.5 37.5q-2 2 -3.5 5.5t-1.5 5.5q0 5 5.5 8.5t7.5 3.5t4 -2t8 -10
q4 -5 12.5 -17t18.5 -25t18.5 -24.5t11.5 -16.5z" />
    <glyph glyph-name="breve" unicode="&#x2d8;" horiz-adv-x="500" 
d="M430 634q5 1 11 1h7q2 -2 2 -3t-2 -9t-6 -19.5t-10.5 -24t-14.5 -22.5q-35 -47 -100 -47q-52 0 -72.5 27t-20.5 62q0 8 0.5 17.5t2.5 14.5q2 4 6 4q11 0 16 -1t5 -6q0 -20 0.5 -26t5.5 -14t19 -18t43 -10q39 0 63 17t34 46q3 8 4.5 9.5t6.5 1.5z" />
    <glyph glyph-name="dotaccent" unicode="&#x2d9;" horiz-adv-x="500" 
d="M324 612q10 0 18 -5t14 -12t9 -14.5t3 -12.5q0 -15 -15 -29t-29 -14q-13 0 -27.5 13t-14.5 28q0 9 4.5 17.5t11 14.5t14 10t12.5 4z" />
    <glyph glyph-name="ring" unicode="&#x2da;" horiz-adv-x="500" 
d="M320 504q-14 0 -29.5 4t-28 13t-21 23t-8.5 35q0 40 29.5 65t73.5 25q16 0 32 -4t28.5 -13t20.5 -23.5t8 -34.5q0 -35 -26 -62.5t-79 -27.5zM323 529q15 0 24.5 7t15.5 17.5t8 22t2 19.5q0 16 -8 32t-32 16q-25 0 -36.5 -21.5t-11.5 -42.5q0 -23 10 -36.5t28 -13.5z" />
    <glyph glyph-name="ogonek" unicode="&#x2db;" horiz-adv-x="500" 
d="M265 10q-28 -18 -44.5 -35.5t-25.5 -32.5t-11.5 -27t-2.5 -20q0 -17 5 -26t12 -14t14.5 -6t12.5 -1q15 0 26.5 4.5t17.5 8.5h6q-1 -11 -2 -13.5t-3 -5.5q-4 -5 -25 -15t-51 -10q-35 0 -54 17.5t-19 43.5q0 22 13 42t31.5 37t39.5 30.5t36 22.5h24z" />
    <glyph glyph-name="tilde" unicode="&#x2dc;" horiz-adv-x="500" 
d="M461 618q3 -2 6.5 -5t3.5 -5q0 -1 -4 -6.5t-9.5 -11.5t-10 -11.5t-6.5 -7.5q-42 -47 -70 -47q-6 0 -10.5 1t-12 4.5t-19 10.5t-31.5 19q-12 7 -21 9t-15 2q-7 0 -21.5 -4.5t-37.5 -31.5q-1 -1 -4 -5t-5 -4t-7.5 5.5t-5.5 7.5q0 1 3.5 5.5t7.5 10t8.5 10t5.5 6.5
q28 32 44 42t28 10q10 0 20 -3t22 -11q27 -19 39.5 -25.5t29.5 -6.5q12 0 23 5.5t19.5 12.5t13.5 13.5t6 7.5q5 7 10 3z" />
    <glyph glyph-name="hungarumlaut" unicode="&#x2dd;" horiz-adv-x="500" 
d="M262 518q-7 -7 -10 -7q-4 0 -8 0.5t-4 2.5q0 1 2 3.5t3 3.5l99 127q8 9 12.5 13.5t11.5 4.5q5 0 13 -0.5t16 -2t14 -4.5t6 -8q0 -6 -3 -9.5t-12 -10.5zM392 518q-5 -5 -7 -6t-4 -1q-3 0 -5 1q-6 1 -6 2t1.5 3.5t2.5 3.5l99 127q8 10 12.5 14t11.5 4q5 0 13 -0.5t16 -2
t14 -4.5t6 -8q0 -6 -3.5 -9.5t-11.5 -10.5z" />
    <glyph glyph-name="endash" unicode="&#x2013;" horiz-adv-x="500" 
d="M20 218l7 35h462l-7 -35h-462z" />
    <glyph glyph-name="emdash" unicode="&#x2014;" horiz-adv-x="722" 
d="M20 218l8 35h683l-7 -35h-684z" />
    <glyph glyph-name="quoteleft" unicode="&#x2018;" horiz-adv-x="259" 
d="M317 676q-51 -10 -79 -28.5t-41 -37.5t-15 -34.5t-2 -18.5q0 -20 9.5 -29.5t17.5 -13.5q14 -8 22.5 -15t8.5 -20t-12 -26t-26 -13q-11 0 -24 7t-24 19.5t-18 30t-7 39.5q0 38 19.5 67t46.5 48.5t56.5 29.5t49.5 10q4 0 7 -2t11 -11v-2z" />
    <glyph glyph-name="quoteright" unicode="&#x2019;" horiz-adv-x="259" 
d="M90 449q51 11 79 29.5t41 37t15 34t2 18.5q0 20 -9 29.5t-18 14.5q-16 8 -23.5 14.5t-7.5 19.5q0 14 12 26.5t26 12.5q11 0 23.5 -6.5t23.5 -19t18.5 -30t7.5 -40.5q0 -38 -19.5 -67t-46.5 -48.5t-56.5 -29.5t-49.5 -10q-4 0 -7 2t-11 11v2z" />
    <glyph glyph-name="quotesinglbase" unicode="&#x201a;" horiz-adv-x="259" 
d="M-35 -138q51 10 79 28.5t41 37.5t15 34.5t2 18.5q0 20 -9 29t-18 14q-16 9 -23.5 15.5t-7.5 19.5t12 26t26 13q11 0 23.5 -6.5t23.5 -19t18.5 -30t7.5 -40.5q0 -38 -19.5 -67t-46.5 -48.5t-56.5 -29.5t-49.5 -10q-4 0 -7 2t-11 11v2z" />
    <glyph glyph-name="quotedblleft" unicode="&#x201c;" horiz-adv-x="444" 
d="M317 676q-51 -10 -79 -28.5t-41 -37.5t-15 -34.5t-2 -18.5q0 -20 9.5 -29.5t17.5 -13.5q14 -8 22.5 -15t8.5 -20t-12 -26t-26 -13q-11 0 -24 7t-24 19.5t-18 30t-7 39.5q0 38 19.5 67t46.5 48.5t56.5 29.5t49.5 10q4 0 7 -2t11 -11v-2zM502 676q-51 -10 -79 -28.5
t-41 -37.5t-15 -34.5t-2 -18.5q0 -20 9 -29t18 -14q14 -8 23 -15t9 -20t-12.5 -26t-26.5 -13q-11 0 -23.5 7t-23.5 19.5t-18 30t-7 39.5q0 39 19.5 68t46.5 48.5t56.5 29t48.5 9.5q5 0 7.5 -2t10.5 -11v-2z" />
    <glyph glyph-name="quotedblright" unicode="&#x201d;" horiz-adv-x="444" 
d="M90 449q51 11 79 29.5t41 37t15 34t2 18.5q0 20 -9 29.5t-18 14.5q-16 8 -23.5 14.5t-7.5 19.5q0 14 12 26.5t26 12.5q11 0 23.5 -6.5t23.5 -19t18.5 -30t7.5 -40.5q0 -38 -19.5 -67t-46.5 -48.5t-56.5 -29.5t-49.5 -10q-4 0 -7 2t-11 11v2zM275 449q52 11 80 29.5t41 37
t15 34t2 18.5q0 20 -9.5 29.5t-18.5 14.5q-15 8 -23 14.5t-8 19.5q0 14 12.5 26.5t25.5 12.5q11 0 23.5 -6.5t23.5 -19t18.5 -30.5t7.5 -40q0 -38 -19.5 -67t-46.5 -48.5t-56 -29.5t-49 -10q-5 0 -7.5 2t-11.5 11v2z" />
    <glyph glyph-name="quotedblbase" unicode="&#x201e;" horiz-adv-x="444" 
d="M-36 -138q51 10 79 28.5t41 37.5t15 34.5t2 18.5q0 20 -9 29t-18 14q-16 9 -23.5 15.5t-7.5 19.5t12 26t26 13q11 0 23.5 -6.5t23.5 -19t18.5 -30t7.5 -40.5q0 -38 -19.5 -67t-46.5 -48.5t-56.5 -29.5t-49.5 -10q-4 0 -7 2t-11 11v2zM149 -138q52 10 80 28.5t41 37.5
t15 34.5t2 18.5q0 20 -9.5 29t-18.5 14q-16 9 -23.5 15.5t-7.5 19.5t12 26t26 13q11 0 23.5 -6.5t23.5 -19t18.5 -30.5t7.5 -40q0 -38 -19.5 -67t-46.5 -48.5t-56.5 -29.5t-49.5 -10q-4 0 -6.5 2t-11.5 11v2z" />
    <glyph glyph-name="dagger" unicode="&#x2020;" 
d="M281 160q0 -3 -8 -15l-10 -15q-17 -31 -32.5 -79t-29 -98.5t-24 -97t-16.5 -76.5q0 -3 -1.5 -10t-3.5 -15t-3.5 -14.5t-2.5 -7.5q-2 -3 -7 -3.5t-7 -0.5q-6 0 -10.5 2t-4.5 8q0 3 5 28.5t11.5 58l12.5 62.5t8 42q25 132 25 190q0 7 -0.5 15.5t-2.5 16.5q-1 2 -1 3
q-1 4 -1 6q0 3 4 9t9 12.5t10 12t6 7.5q7 13 12 24.5t10 26t10.5 33.5t13.5 47q-42 2 -74 -2t-52 -10q-3 -1 -9 -3.5t-13 -5.5t-13 -5.5t-9 -2.5q-5 0 -13 4t-15.5 10t-12.5 13.5t-5 13.5q0 9 9.5 17.5t21 15t21.5 10.5t11 4q3 0 8.5 -2.5t11.5 -5.5t11.5 -6t7.5 -4
q28 -10 61.5 -11.5t58.5 -1.5q11 44 14.5 84t3.5 55q0 13 -2 28.5t-7 29.5q-1 2 -2 5.5t-1 6.5t7.5 14t18 23.5t22 22t20.5 9.5q10 0 17 -10t12 -22t7.5 -22.5t2.5 -12.5q0 -3 -4 -9t-9 -12.5t-9.5 -12.5t-5.5 -8q-9 -13 -17 -33.5t-15.5 -44t-13.5 -47.5t-10 -44
q29 1 62.5 3t55.5 9q3 1 10.5 4l15 6t13.5 5.5l6 2.5q2 0 9.5 -4t16 -10.5t15.5 -14.5t7 -15q0 -12 -8.5 -18t-16.5 -11q-6 -3 -20.5 -10t-19.5 -7q-2 0 -7.5 2.5t-11 5.5t-10.5 5.5l-7 3.5q-23 8 -54.5 11t-62.5 4q-5 -23 -9 -49.5t-4 -52.5q0 -17 2.5 -29.5t4.5 -20.5z
" />
    <glyph glyph-name="daggerdbl" unicode="&#x2021;" 
d="M282 348q-5 -27 -7.5 -43.5t-2.5 -34.5q0 -24 2.5 -39t4.5 -25q1 -3 3.5 -11t2.5 -10q0 -3 -6.5 -12t-8.5 -11q-23 -37 -34 -69.5t-20 -64.5q29 0 57 1.5t72 13.5q3 1 9.5 3.5t14 5.5t13.5 5t8 2q4 0 10.5 -4.5t13 -11t11.5 -14.5t5 -15q0 -10 -7.5 -18.5t-17 -15
t-19 -10t-14.5 -3.5t-8.5 1.5t-14.5 8.5q-14 10 -33 15t-38 7.5t-37 3t-30 0.5q-15 -73 -17.5 -112.5t-2.5 -47.5q0 -10 0.5 -18.5t2.5 -19.5q1 -3 3 -12.5t2 -12.5q0 -5 -5.5 -13.5t-14 -16.5t-18.5 -14t-19 -6q-11 0 -18.5 7.5t-12.5 16.5t-7 17.5t-2 10.5q0 4 2 8.5
t10 18.5q17 28 29.5 59.5t20.5 59.5t12.5 48.5t5.5 26.5q-54 1 -83 -2t-52 -12q-3 -1 -9 -4t-12.5 -6t-12.5 -5.5t-9 -2.5q-5 0 -11.5 5t-12.5 11.5t-10.5 14.5t-4.5 14q0 10 7.5 19t17 16t18 11t10.5 4q3 0 9.5 -3t13.5 -6.5t13 -7t8 -4.5q17 -8 44 -12.5t81 -4.5
q4 21 6.5 42t2.5 42q0 22 -6 53q-1 2 -3 9.5t-2 9.5q0 1 4.5 7.5t9.5 14.5t10.5 15.5t6.5 10.5q2 3 15.5 34t24.5 82q-90 0 -143 -19q-2 -1 -7.5 -3.5t-12 -5.5t-12 -5.5t-7.5 -2.5q-4 0 -10 5t-12 12t-10.5 14.5t-4.5 13.5q0 9 7 17t15.5 15t16.5 11t10 4q4 0 17 -6t17 -8
q41 -14 76.5 -17t64.5 -4q6 29 11 63t5 66q0 5 -0.5 25t-5.5 36q-1 3 -2.5 9.5t-1.5 9.5q0 5 6.5 14.5t16.5 19.5t20.5 17.5t18.5 7.5t15.5 -7t13.5 -16t9.5 -17.5t3.5 -11.5q0 -2 -4 -9t-9.5 -15.5t-10 -16.5t-6.5 -11q-10 -19 -19 -41t-15.5 -44t-11.5 -42.5t-8 -35.5
q10 0 25.5 0.5t34 2t37.5 4t37 7.5q3 1 9 3.5t12.5 5.5t12.5 5t8 2q6 0 12.5 -5t12 -11.5t9 -14t3.5 -13.5q0 -10 -7.5 -18.5t-17.5 -14.5t-19.5 -9t-13.5 -3q-5 0 -16 6.5t-15 8.5q-11 5 -41.5 13t-87.5 9z" />
    <glyph glyph-name="bullet" unicode="&#x2022;" horiz-adv-x="222" 
d="M134 381q9 0 19 -5t18.5 -13t14 -18t5.5 -19q0 -10 -5.5 -20t-13.5 -18t-18.5 -13.5t-19.5 -5.5q-10 0 -20 5t-18 13t-13.5 18t-5.5 20q0 11 6 21t14.5 17.5t18.5 12.5t18 5z" />
    <glyph glyph-name="ellipsis" unicode="&#x2026;" horiz-adv-x="667" 
d="M74 91q8 0 17.5 -4.5t17 -12t12.5 -16.5t5 -17q0 -9 -5 -18t-13 -17t-17 -12.5t-18 -4.5q-18 0 -34.5 16.5t-16.5 34.5q0 9 5.5 18.5t13 16.5t17 11.5t16.5 4.5zM296 91q8 0 17.5 -4.5t17 -12t12.5 -16.5t5 -17q0 -9 -5 -18t-13 -17t-17 -12.5t-18 -4.5q-17 0 -34 16.5
t-17 34.5q0 9 5.5 18.5t13 16.5t17 11.5t16.5 4.5zM518 91q9 0 18 -4.5t16.5 -12t12.5 -16.5t5 -17q0 -9 -5 -18t-12.5 -17t-17 -12.5t-18.5 -4.5q-17 0 -34 16.5t-17 34.5q0 10 5.5 19t13.5 16t17 11.5t16 4.5z" />
    <glyph glyph-name="perthousand" unicode="&#x2030;" horiz-adv-x="1074" 
d="M602 623q13 16 23 16q8 0 17 -6t9 -16q0 -12 -11 -26.5t-39 -31.5q-37 -45 -80 -101t-86.5 -115t-85 -115.5t-74.5 -103.5q-24 -33 -50.5 -70.5t-43.5 -63.5q-8 -11 -17 -11q-10 0 -19.5 8t-9.5 16q0 6 6 14t11 13q8 8 28.5 33.5t46 58t52 66t45.5 57.5q27 36 51 67.5
t48.5 64.5t51.5 70t60 82q-31 -12 -54.5 -18t-62.5 -6q-20 0 -30.5 2t-21.5 4q2 -40 -8.5 -81.5t-33 -75.5t-55.5 -55.5t-75 -21.5q-50 0 -82 33t-32 95q0 35 11 72t32.5 67.5t54.5 50.5t76 20q24 0 40.5 -6t28.5 -16t20 -21.5t14 -22.5q11 -5 28.5 -11t48.5 -6
q49 0 81.5 15t50.5 26zM144 388q0 -27 6.5 -43t15.5 -24.5t19 -11t17 -2.5q26 0 47 19t36 48.5t23.5 63.5t8.5 64q0 13 -1 21t-2 14q-16 14 -21.5 21t-10.5 21q-6 2 -11.5 3.5t-13.5 1.5q-26 0 -47 -20t-35.5 -49.5t-22.5 -63.5t-8 -63zM589 336q21 0 41.5 -8t36 -23
t25 -37.5t9.5 -52.5q0 -39 -12.5 -78.5t-35.5 -70.5t-54 -50.5t-69 -19.5q-24 0 -45.5 9.5t-37 27.5t-25 42.5t-9.5 54.5q0 32 11 68t33 67t55 51t77 20zM476 108q0 -45 19 -63.5t39 -18.5q33 0 55 25t36 59t20 68.5t6 52.5q0 32 -13 52.5t-45 20.5q-31 0 -53.5 -22.5
t-36.5 -54t-20.5 -65t-6.5 -54.5zM923 336q21 0 41 -8t35.5 -23t25 -37.5t9.5 -52.5q0 -39 -12.5 -78.5t-35.5 -70.5t-54 -50.5t-69 -19.5q-24 0 -45.5 9.5t-37 27.5t-25 42.5t-9.5 54.5q0 32 11 68t33 67t55.5 51t77.5 20zM810 108q0 -45 18.5 -63.5t38.5 -18.5
q33 0 55.5 25t36.5 58.5t20 68t6 53.5q0 73 -59 73q-31 0 -53 -22.5t-36 -54t-20.5 -65t-6.5 -54.5z" />
    <glyph glyph-name="guilsinglleft" unicode="&#x2039;" horiz-adv-x="259" 
d="M114 230q4 -9 13 -29.5t19.5 -43t20 -42.5t12.5 -28q2 -3 6.5 -14t4.5 -13q0 -4 -8.5 -8.5t-9.5 -4.5q-4 0 -15 15q-3 5 -19.5 27t-36.5 48.5t-38.5 49.5t-25.5 30t-7 11q0 3 3 6t17 13q11 8 34.5 27.5t51 43t53 46.5t40.5 37q11 11 14 11q2 0 10 -6t8 -8
q0 -3 -20.5 -26.5t-46.5 -53t-50 -55.5t-30 -33z" />
    <glyph glyph-name="guilsinglright" unicode="&#x203a;" horiz-adv-x="259" 
d="M150 224q-3 6 -15 32.5t-25.5 56.5t-24.5 55t-11 26q0 4 8.5 8.5t10.5 4.5q3 0 14 -15q2 -3 18.5 -25t37 -48.5t39 -50.5t25.5 -31t7 -10q0 -4 -3 -6.5t-17 -13.5q-14 -10 -38.5 -30.5t-50.5 -43t-50.5 -44t-38.5 -35.5q-8 -8 -10.5 -10t-4.5 -2t-9.5 6.5t-7.5 8.5
q0 1 7.5 10t16.5 20t17.5 20.5t10.5 12.5z" />
    <glyph glyph-name="fraction" unicode="&#x2044;" horiz-adv-x="111" 
d="M289 649q-99 -167 -194.5 -332.5t-191.5 -333.5h-37q97 168 192.5 333t190.5 333h40z" />
    <glyph glyph-name="trademark" unicode="&#x2122;" horiz-adv-x="796" 
d="M168 316l-44 -1q-7 0 -7 5q0 8 4.5 9t21.5 3q13 2 20.5 7t12.5 28q6 25 12.5 57t13.5 65t13.5 64.5t12.5 56.5h-22.5t-27 -1t-25.5 -2t-18 -4q-8 -4 -15 -14.5t-11 -21.5q-2 -5 -3.5 -7.5t-6.5 -2.5q-12 0 -12 7q0 3 2.5 12t5.5 19.5l6 21t4 14.5t2.5 6t7.5 2q2 0 5 -2
q5 -2 11 -2.5t22 -0.5h235q2 0 10.5 2t10.5 2q7 0 7 -4q0 -2 -1.5 -9.5t-4 -16.5t-5.5 -18.5t-6 -17.5q-5 -16 -11 -16q-5 0 -9 1.5t-4 5.5q0 3 1 12.5t0 12.5q-1 7 -2.5 11.5t-10.5 7t-27.5 3.5t-52.5 0q-3 -16 -11.5 -55.5t-17.5 -82t-16 -78t-7 -43.5q0 -12 10 -15t30 -5
q3 0 6.5 -1t3.5 -4q0 -11 -11 -11zM827 634q19 0 19 -4q0 -8 -4 -9.5t-17 -3.5q-19 -3 -23.5 -12t-9.5 -35q-20 -103 -29.5 -156.5t-9.5 -62.5q0 -13 8 -15.5t27 -3.5q8 -2 8 -7q0 -7 -3.5 -8.5t-6.5 -1.5l-74 1l-60 -1q-2 0 -4.5 1t-2.5 5q0 7 4 8.5t21 4.5q9 2 14 4.5
t8.5 9.5t6.5 19t7 32q4 19 9 41t9.5 45t8 44.5t6.5 39.5q-12 -19 -27 -42.5t-31 -48.5t-31 -48.5t-26 -43.5q-2 -3 -8 -13t-12 -21.5t-11.5 -20l-5.5 -8.5q-2 -1 -11.5 -3t-11.5 -2q-6 0 -7 13q-1 9 -3 17.5t-4 21.5t-6 32t-10 49q-1 7 -5 24t-8.5 36t-8.5 35.5t-5 22.5
q-3 -14 -11 -47.5t-15.5 -69.5t-13.5 -66t-6 -36q0 -11 9 -14t29 -4q5 0 8 -0.5t3 -5.5q0 -4 -2.5 -7.5t-7.5 -3.5l-97 1q-19 -1 -23.5 -0.5t-4.5 4.5q0 8 3 9t15 3q8 1 13.5 3t9.5 7.5t7.5 15.5t8.5 27q6 23 14 53t16 60.5t15 58t11 43.5q-4 12 -13.5 14t-26.5 3q-2 0 -5 1
t-3 5q0 12 11 12q7 0 25.5 -0.5t34.5 -0.5h29q10 0 10 -7q0 -14 6.5 -48.5t15 -72t16 -71t9.5 -46.5l31.5 49t46 73t42.5 69.5t21 36.5q5 11 7 14t9 3h73z" />
    <glyph glyph-name="minus" unicode="&#x2212;" 
d="M457 340q8 0 8 -11v-24q0 -11 -8 -11h-390q-8 0 -8 11v24q0 11 8 11h390z" />
    <glyph glyph-name="fi" unicode="&#xfb01;" horiz-adv-x="485" 
d="M136 143q-15 -83 -25.5 -137.5t-21.5 -92t-25 -64.5t-36 -55q-3 -3 -12 -13.5t-23 -21.5t-33.5 -19.5t-41.5 -8.5q-26 0 -42.5 9.5t-16.5 26.5q0 14 12.5 25t21.5 11q5 0 11.5 -4.5t14 -9.5t17 -9.5t20.5 -4.5q20 0 35 20t29 79q3 14 9 48.5t12.5 72.5t12 72t7.5 47
l45 251l-51 -1q-4 0 -6.5 0.5t-2.5 5.5q0 25 14 26l54 8q2 11 7 33t13.5 48.5t19 53t23.5 45.5q16 24 37.5 46.5t46.5 39t52 26.5t55 10t46.5 -7.5t29.5 -18t15.5 -22t4.5 -19.5q0 -18 -15 -28t-29 -10t-20.5 10t-12.5 25q-4 9 -15 17.5t-36 8.5q-33 0 -57 -18t-41.5 -52
t-30 -82t-24.5 -107h115q28 0 47 2t32 4.5t21 4.5t14 2q7 0 9 -5t2 -13q0 -3 -6 -27.5t-14.5 -60t-19 -76t-19 -76t-14.5 -61.5t-6 -32t3 -7.5t6 -1.5q6 0 17.5 8t25 20t27.5 27t24 29h5v-21q0 -8 -5 -15.5t-20 -26.5q-12 -16 -27 -31.5t-30 -28t-29 -20t-24 -7.5
q-20 0 -29.5 11t-9.5 27q0 13 5 40t13 60.5t16.5 70t16.5 68t13 55t5 31.5t-1.5 12.5t-7.5 4.5q-4 0 -9.5 -1t-14.5 -1.5t-24.5 -1.5t-41.5 -1h-72z" />
    <glyph glyph-name="fl" unicode="&#xfb02;" horiz-adv-x="514" 
d="M145 143q-15 -82 -25.5 -136.5t-21.5 -92.5t-25 -65t-36 -55q-3 -4 -12 -14t-23 -21t-33 -19.5t-42 -8.5q-29 0 -43.5 10.5t-14.5 25.5q0 14 12.5 25t21.5 11q7 0 13 -4.5t12.5 -9.5t15.5 -9.5t21 -4.5q20 0 30.5 15t18.5 34q6 15 11.5 35t11.5 53t14 81.5t20 120.5
l42 255h-47q-7 0 -7 4q0 2 2 11t3 11q1 5 8 5l49 6q9 38 18 72.5t22 65.5t32 58t47 50q32 25 72.5 39.5t82.5 14.5q31 0 52.5 -6.5t34.5 -11.5q11 5 24 12t18 7q2 0 4 -1t2 -5q0 -1 -1.5 -7t-3.5 -12.5l-4 -13t-3 -9.5q-36 -130 -64.5 -236.5t-48 -183.5t-29.5 -120.5
t-10 -46.5q0 -9 8 -9q7 0 20 7.5t28 18.5t31 25t28 27l6 -1l-1 -15q-1 -10 -5.5 -15.5t-22.5 -24.5q-13 -14 -30.5 -30.5t-35.5 -31t-35.5 -24t-32.5 -9.5q-11 0 -20 8.5t-9 28.5q0 14 10.5 65t28 124.5t39.5 161.5t46 176q10 37 12.5 48.5t2.5 19.5q0 12 -7.5 20t-19 12.5
t-24.5 6.5t-24 2q-34 0 -59.5 -12t-44.5 -41.5t-34 -78t-29 -122.5h111q9 0 7 -8l-6 -24q-1 -8 -10 -8h-108z" />
    </font>
</defs>
</svg>
