<?xml version="1.0" standalone="no"?>
<!DOCTYPE svg PUBLIC "-//W3C//DTD SVG 1.1//EN" "http://www.w3.org/Graphics/SVG/1.1/DTD/svg11.dtd" >
<svg xmlns="http://www.w3.org/2000/svg" xmlns:xlink="http://www.w3.org/1999/xlink" version="1.1">
<metadata>
Created by FontForge 20181003 at Tue Oct 16 14:00:59 2018
 By Bhavinder Singh
Copyright (c) 1993 Adobe Systems Incorporated.  All Rights Reserved.ITC Legacy Serif is a trademark of International Typeface Corporation.
</metadata>
<defs>
<font id="LegacySerif-Medium" horiz-adv-x="519" >
  <font-face 
    font-family="ITC Legacy Serif Medium"
    font-weight="500"
    font-stretch="normal"
    units-per-em="1000"
    panose-1="0 0 0 0 0 0 0 0 0 0"
    ascent="800"
    descent="-200"
    x-height="422"
    cap-height="636"
    bbox="-133 -271 1012 887"
    underline-thickness="50"
    underline-position="-100"
    unicode-range="U+000D-FB02"
  />
<missing-glyph horiz-adv-x="225" 
 />
    <glyph glyph-name=".notdef" horiz-adv-x="225" 
 />
    <glyph glyph-name=".null" horiz-adv-x="0" 
 />
    <glyph glyph-name=".null" horiz-adv-x="0" 
 />
    <glyph glyph-name="nonmarkingreturn" unicode="&#xd;" horiz-adv-x="250" 
 />
    <glyph glyph-name="space" unicode=" " horiz-adv-x="225" 
 />
    <glyph glyph-name="exclam" unicode="!" horiz-adv-x="352" 
d="M245 603q0 -9 -0.5 -17.5t-2.5 -22t-5 -34.5t-9 -57q-9 -54 -15 -94.5t-10.5 -74.5t-7 -64t-4.5 -63q0 -6 -10 -9q-10 -2 -16 -2q-5 0 -6 3.5t-2 19.5q-3 48 -5.5 81t-5 61.5t-6 58.5t-8.5 72q-4 32 -7 53.5t-4.5 37t-2 26t-0.5 19.5q0 29 8.5 38t22.5 12q18 3 36 5.5
t26 2.5q12 0 19 -5t10.5 -12.5t4 -17t0.5 -17.5zM110 54q0 12 6 24t16 21.5t21.5 15.5t22.5 6t22.5 -6t20.5 -16t15 -21.5t6 -22.5q0 -12 -6 -23.5t-15.5 -21t-21 -15.5t-22.5 -6t-22.5 6t-21 15t-15.5 20.5t-6 23.5z" />
    <glyph glyph-name="quotedbl" unicode="&#x22;" horiz-adv-x="352" 
d="M124 376q-2 -4 -9.5 -4.5t-12.5 -0.5q-6 0 -7 4t-3 21q-1 20 -5.5 57.5t-10.5 70.5q-3 20 -5 32t-3 20.5t-1.5 14t-0.5 12.5q0 11 1 19.5t6.5 14t16.5 8t32 2.5q23 0 28.5 -11.5t5.5 -29.5q0 -10 -3.5 -33.5t-8 -49.5t-8.5 -49t-5 -32zM285 606q0 -20 -4 -43t-12 -68
q-7 -35 -9.5 -57.5t-5.5 -54.5q0 -8 -3 -10t-20 -2q-5 0 -6 4t-3 21q0 4 -1.5 16.5t-3.5 30t-4.5 39t-6.5 42.5q-3 20 -5 32t-3 20.5t-1.5 14.5t-0.5 12q0 11 1 19.5t6.5 14t16.5 8t32 2.5q23 0 28 -11.5t5 -29.5z" />
    <glyph glyph-name="numbersign" unicode="#" horiz-adv-x="500" 
d="M433 640q11 0 11 -6l-7 -26.5t-15.5 -58.5t-16 -59.5t-8.5 -31.5l105 1q8 0 10.5 -1t2.5 -3t-2 -9.5t-5 -16.5t-6 -17.5t-4 -11.5q-3 -9 -5.5 -10.5t-12.5 -1.5h-20.5t-30.5 0.5t-30.5 1t-19.5 0.5q-8 -29 -17 -63t-18 -66h50.5t50.5 1q14 1 17 -0.5t3 -3.5t-2 -9.5
t-5 -16.5t-6 -17t-4 -11q-3 -9 -5.5 -10.5t-10.5 -1.5h-20.5t-30.5 0.5t-31.5 1t-23.5 0.5q-14 -56 -24.5 -97t-21.5 -86q-2 -10 -6.5 -12t-21.5 -2h-17q-7 0 -7 5q0 1 7 27t16.5 58.5t18 63.5t11.5 43q-35 1 -72.5 0.5t-63.5 -0.5q-11 -43 -22.5 -87t-23.5 -95
q-2 -11 -6.5 -13t-21.5 -2h-17q-7 0 -7 5q14 50 25 91q7 25 11 39.5t7.5 27.5t6 22.5t3.5 11.5q-7 0 -23 -0.5t-34 -0.5t-33.5 -0.5t-21.5 -0.5q-9 0 -9 5q0 2 2.5 9.5t5.5 16t5.5 16l3.5 10.5q4 10 6 11.5t8 1.5h21.5t32.5 -0.5t32 -1t21 -0.5q11 36 19 66.5t16 63.5
q-6 0 -22 -0.5t-33.5 -0.5t-33 -0.5t-21.5 -0.5q-11 0 -11 5q0 2 2.5 9.5l5.5 16.5t5.5 17t3.5 10q4 9 6.5 11.5t7.5 2.5q6 0 22 -0.5t33 -0.5t32 -0.5t21 -0.5q7 27 12 45t9.5 35t9.5 38t12 54q2 6 4 7t8 2l27 1q11 0 11 -6q0 -1 -1.5 -5.5t-3 -10t-3 -10t-1.5 -6.5
q-10 -36 -19 -70t-20 -74h136q12 43 22.5 86t21.5 86q1 6 3 7t8 2zM299 260q2 7 7 25.5t10.5 39t10.5 39t7 26.5h-137q-2 -7 -7 -25t-10 -39t-10 -39.5t-7 -26.5h136z" />
    <glyph glyph-name="dollar" unicode="$" 
d="M276 373q30 -12 50.5 -21t35.5 -16t26 -13.5t23 -15.5q8 -6 18.5 -16t20.5 -25t17 -35.5t7 -47.5q0 -16 -4 -36t-14.5 -40.5t-30 -39.5t-49.5 -33q-18 -8 -39.5 -13t-59.5 -9l1 -110q0 -8 -5 -8h-20q-14 0 -14 5q0 7 0.5 23t0.5 34t0.5 33.5t0.5 21.5q-10 0 -28 0.5
t-50 4.5q-4 0 -13.5 1.5t-20 3t-19 2.5t-11.5 1q-9 0 -14 -5t-13 -5q-6 0 -8 2.5t-4 15.5q-4 27 -7.5 52t-5.5 45t-3 33.5t-1 16.5q0 13 9.5 16.5t15.5 3.5q5 0 7 -5.5t4 -13.5q5 -15 12.5 -35t25 -39t47.5 -33t78 -16v46v43t0.5 54t0.5 80q-32 14 -67.5 29.5t-53.5 29.5
q-29 22 -45.5 50t-16.5 69q0 24 7.5 50.5t27.5 50t55 41t90 23.5q0 6 -0.5 18.5t-1 26t-1 25.5t-0.5 18q0 5 2.5 5.5t13.5 0.5h17q6 0 7.5 -1.5t1.5 -4.5q0 -5 -0.5 -17.5t-0.5 -26t-0.5 -25.5t-0.5 -17q26 0 49 -2t32 -3q5 0 20 -2t20 -2q2 0 10 2t10 2q5 0 6 -3t1 -5
v-27.5v-18t0.5 -14t1.5 -16.5q0 -3 1 -12t2 -18.5t2 -17t1 -9.5q0 -8 -9 -10.5t-14 -2.5t-6.5 3.5t-6.5 17.5q-6 17 -13.5 33t-20.5 28.5t-33.5 21.5t-52.5 12zM276 266v-40.5v-62.5t0.5 -62.5t0.5 -41.5q27 4 45.5 15t29 25t15 30t4.5 30q0 23 -8 39.5t-21 28.5t-30 21
t-36 18zM242 582q-30 -4 -47 -16.5t-26 -27t-11 -28t-2 -21.5q0 -23 8 -39.5t21 -28.5t28 -20t30 -15z" />
    <glyph glyph-name="percent" unicode="%" horiz-adv-x="685" 
d="M24 478q0 43 14 74.5t36 52t50.5 30.5t56.5 10q36 0 62 -14t43 -36.5t25 -51t8 -56.5q0 -39 -13 -70t-35 -52.5t-50.5 -33t-59.5 -11.5q-61 0 -99 43t-38 115zM99 506q0 -78 25.5 -115.5t57.5 -37.5q17 0 29 9t19.5 24t10.5 34t3 40q0 25 -4.5 52t-14.5 49t-25.5 36
t-38.5 14q-32 0 -47 -30.5t-15 -74.5zM366 152q0 43 13.5 74.5t36 52t51 30.5t57.5 10q36 0 62 -14t43 -36.5t25 -51t8 -56.5q0 -39 -13.5 -70t-35.5 -52.5t-50.5 -33t-59.5 -11.5q-60 0 -98.5 42.5t-38.5 115.5zM441 180q0 -78 25.5 -115t57.5 -37q17 0 29 9t19.5 23.5
t10.5 33.5t3 40q0 28 -5 55t-15 48.5t-26 34.5t-37 13q-30 0 -46 -29t-16 -76zM141 0q9 14 36 61.5t63.5 112t77 138t76.5 138.5t61.5 113t32.5 62l5 9h51q-17 -26 -39.5 -66t-42.5 -75q-22 -39 -48.5 -87t-53.5 -96.5t-52 -94t-45 -80.5q-19 -34 -30.5 -55t-19 -35.5
t-11.5 -24t-9 -20.5h-52z" />
    <glyph glyph-name="ampersand" unicode="&#x26;" horiz-adv-x="759" 
d="M285 626q27 0 51 -8t42 -23t28.5 -36t10.5 -48q0 -26 -9.5 -46t-24 -34.5t-32.5 -25.5t-36 -19q33 -15 56 -32.5t40 -37.5t30.5 -43t28.5 -51q7 10 20.5 29t26.5 40t23 41t10 32q0 11 -11.5 17.5t-47.5 8.5q-12 0 -15 2t-3 13t2 13t10 2q26 0 47 -1t56 -1q12 0 27.5 0.5
t29.5 0.5t25.5 0.5t16.5 0.5t7.5 -1.5t2.5 -10.5q0 -11 -1.5 -13t-12.5 -4q-11 -3 -20 -6t-18 -10t-19.5 -18t-24.5 -29l-110 -145q15 -25 27.5 -46t26.5 -36t30.5 -23t37.5 -8q10 0 22.5 3t24.5 10.5t22.5 21.5t16.5 35q3 9 5.5 14.5t7.5 5.5t13 -1t8 -9q0 -12 -6.5 -38.5
t-24 -54t-47 -48t-76.5 -20.5q-36 0 -62 13t-44 31.5t-29.5 38t-18.5 32.5q-19 -22 -40.5 -42.5t-47.5 -37t-57 -26.5t-69 -10q-43 0 -77.5 14t-59 38t-37.5 57.5t-13 72.5q0 29 9 60.5t39 63.5q26 29 51 43.5t43 22.5q-7 5 -17.5 13t-20 20.5t-16.5 29.5t-7 40q0 30 14 59
t38 52.5t57 37.5t71 14zM337 479q0 20 -7.5 36.5t-20 29.5t-28.5 20t-34 7q-26 0 -48 -18t-22 -55q0 -16 4.5 -27.5t10.5 -20t12 -13l10 -7.5q15 -10 36 -18.5t29 -8.5q4 0 13.5 4.5t19.5 13.5t17.5 23.5t7.5 33.5zM119 201q0 -30 10.5 -54.5t28.5 -42.5t42.5 -28t52.5 -10
q30 0 53.5 8.5t42 20.5t32 25t22.5 23q-16 32 -29 56.5t-26.5 44t-29 34t-38.5 25.5q-28 14 -48.5 23.5t-31.5 9.5q-6 0 -19.5 -8.5t-27 -25t-24 -42t-10.5 -59.5z" />
    <glyph glyph-name="quotesingle" unicode="'" horiz-adv-x="352" 
d="M189 376q-2 -4 -10 -4.5t-13 -0.5t-6 4t-3 21q-2 20 -6 57.5t-10 70.5q-3 20 -5 32t-3 20.5t-1.5 14t-0.5 12.5q0 11 1 19.5t6.5 14t16.5 8t32 2.5q23 0 28.5 -11.5t5.5 -29.5q0 -10 -3.5 -33.5t-8 -49.5t-8.5 -49t-5 -32z" />
    <glyph glyph-name="parenleft" unicode="(" horiz-adv-x="333" 
d="M152 236q0 -86 18.5 -158.5t43.5 -128t49 -92t36 -49.5q5 -5 11 -12t6 -9q0 -1 -3 -4.5t-7 -7.5t-7.5 -7t-5.5 -3q-3 0 -22 14.5t-45.5 42t-56 68t-54.5 93t-41.5 116t-16.5 137.5q0 77 17 142t42.5 117t55.5 91.5t56 66t43.5 40t18.5 13.5q2 0 5.5 -3t8 -7t7.5 -7.5
t3 -5.5l-2.5 -3.5t-6 -7.5t-6.5 -8t-4 -5q-21 -25 -50 -71.5t-52 -110.5q-27 -74 -34 -138.5t-7 -102.5z" />
    <glyph glyph-name="parenright" unicode=")" horiz-adv-x="333" 
d="M181 236q0 128 -39 236t-121 207l-1 2q-2 1 -2 2q0 2 3 5.5t7.5 7.5t8.5 7t6 3q1 0 18.5 -13.5t43.5 -40t55.5 -66t55 -91.5t42.5 -117t17 -142q0 -74 -16.5 -138t-41.5 -116t-54.5 -92.5t-56 -68t-45.5 -42t-22 -14.5q-1 0 -5 3t-7.5 7t-6.5 7.5t-3 4.5l5.5 7.5t13 17
t14 18t8.5 11.5q23 32 40 65.5t29.5 64t21 58t13.5 47.5q11 39 15 79t4 81z" />
    <glyph glyph-name="asterisk" unicode="*" 
d="M259 449q-9 -28 -21 -66.5t-21 -66.5q-4 -10 -9.5 -19.5t-19.5 -9.5q-15 0 -32 12t-17 25q0 3 0.5 6t4 8t11.5 14.5t22 25.5q17 20 35.5 41.5t32.5 38.5q-6 -1 -30 -6.5t-50 -11t-48.5 -10t-25.5 -4.5q-10 0 -15.5 5t-8.5 11t-3.5 12.5t-0.5 9.5q0 13 5 25.5t21 12.5
q4 0 11 -1t33 -6l112 -21q-15 17 -23.5 26.5t-15.5 17.5t-15 16.5t-20 21.5q-20 22 -27.5 31t-7.5 18q0 8 5.5 15t13 12.5t16.5 8.5t16 3q12 0 17 -9.5t17 -44.5q2 -4 6 -16t9.5 -27.5t11.5 -32.5t11 -31q10 30 18 55q7 23 13 41.5t7 22.5q7 21 13 32t20 11q8 0 16.5 -3.5
t16 -8.5t12.5 -12t5 -13q0 -8 -5.5 -15t-26.5 -32q-17 -19 -36.5 -42t-37.5 -45q40 8 62 13.5t45 10.5q21 5 30.5 6.5t15.5 1.5q19 0 24 -13.5t5 -24.5q0 -9 -4 -23.5t-22 -14.5q-40 7 -72 13q-31 5 -54.5 9.5t-29.5 5.5q5 -6 17 -19t25.5 -28t25.5 -28t16 -18
q12 -14 18 -21.5t6 -16.5q0 -8 -5 -15t-12.5 -12.5t-16.5 -8.5t-16 -3q-12 0 -17.5 10t-16.5 44z" />
    <glyph glyph-name="plus" unicode="+" 
d="M230 523q0 4 1 5t6 1h42q7 0 8.5 -1t1.5 -8l-1 -173h162q9 0 15 -1t6 -7v-42q0 -6 -0.5 -7.5t-5.5 -1.5h-177l1 -177q0 -6 -8 -6q-9 0 -21.5 0.5t-21.5 -0.5q-6 0 -7 1.5t-1 7.5v174h-181q-2 0 -2 2.5v4.5v44q0 6 1.5 7t6.5 1h175v176z" />
    <glyph glyph-name="comma" unicode="," horiz-adv-x="241" 
d="M20 -164q42 11 66.5 29t36.5 36t15.5 34t3.5 22q0 26 -14.5 36.5t-42.5 24.5q-17 8 -20 21t-3 16q0 20 15.5 37t41.5 17q18 0 34.5 -10t28.5 -26.5t19 -38.5t7 -45q0 -46 -21 -79t-48.5 -54t-54 -31t-38.5 -10q-5 0 -10.5 4t-17.5 12z" />
    <glyph glyph-name="hyphen" unicode="-" horiz-adv-x="296" 
d="M35 186v77h226v-77h-226z" />
    <glyph glyph-name="period" unicode="." horiz-adv-x="241" 
d="M55 53q0 12 6 24t15.5 21t21.5 15t23 6q12 0 23.5 -6t21 -16t15 -21t5.5 -22q0 -12 -6 -23.5t-15.5 -20.5t-21 -15t-22.5 -6t-23 6t-21.5 15t-15.5 20.5t-6 22.5z" />
    <glyph glyph-name="slash" unicode="/" horiz-adv-x="407" 
d="M-25 -233q10 25 36 93t59 159t70.5 194.5t71 199.5t60 175t38.5 120h67q-19 -46 -49 -125.5t-64.5 -174t-70 -196t-66.5 -190.5t-53.5 -157t-30.5 -97z" />
    <glyph glyph-name="zero" unicode="0" 
d="M43 315q0 30 2.5 62.5t9.5 65.5t19 64.5t31 58.5q25 35 64.5 57t91.5 22q54 0 90.5 -20t60.5 -51.5t37 -69t19 -73t7 -64.5t1 -42q0 -45 -7 -103t-30 -109.5t-66 -87.5t-116 -36q-49 0 -84.5 19t-59 49t-37.5 67t-21.5 73t-9.5 67.5t-2 50.5zM154 335q0 -44 2.5 -97
t13 -99t32 -77t59.5 -31q30 0 50 20.5t32 58t16.5 90t4.5 117.5q0 49 -3 85.5t-7.5 63.5t-10 45.5t-10.5 31.5q-13 33 -31.5 46.5t-41.5 13.5q-36 0 -57 -27.5t-32 -68t-14 -87.5t-3 -85z" />
    <glyph glyph-name="one" unicode="1" 
d="M228 310v76t-0.5 50t-1 32t-0.5 21q-1 26 -7.5 34.5t-20.5 8.5q-11 0 -25 -3.5t-33 -9.5q-2 0 -11.5 -3t-10.5 -3q-5 0 -5.5 3.5t-0.5 11.5q0 12 3 15.5t17 8.5q30 13 70.5 33.5t81.5 48.5q14 10 17 12t4 2t5 -1.5t9 -3.5t9 -5t4 -6l-0.5 -5.5t-1 -12l-1 -13t-0.5 -9.5
q-1 -31 -2 -68.5t-1.5 -77t-0.5 -78v-70.5v-49t0.5 -61.5t1.5 -60t2 -43.5q2 -13 6 -22.5t14 -16.5t28 -10.5t48 -3.5q15 -1 17.5 -3.5t2.5 -10.5q0 -19 -11 -19q-23 0 -62.5 1.5t-99.5 1.5q-64 0 -97.5 -1.5t-57.5 -1.5q-5 0 -8.5 2.5t-3.5 12.5q0 12 3 14.5t18 3.5
q51 3 70 15t24 44q3 18 4.5 47t2.5 60.5t1 61.5v51z" />
    <glyph glyph-name="two" unicode="2" 
d="M126 92q99 -1 153 -0.5t80.5 5t35 14t15.5 27.5q2 5 4.5 12t4.5 14t4.5 12t5.5 5q6 0 14.5 -2t8.5 -9q0 -3 -3.5 -19.5t-8.5 -39t-10 -46t-9 -39.5q-5 -20 -10 -23.5t-19 -3.5q-21 0 -46.5 0.5t-52.5 0.5t-53 0.5t-47 0.5q-10 0 -34 -0.5t-50.5 -0.5t-50 -0.5t-32.5 -0.5
q-8 0 -9.5 3t-1.5 19q0 4 1.5 6t8.5 10q17 17 41 44t50 57.5t52 62t45 56.5q33 43 51.5 75.5t28 57t12 42.5t2.5 31q0 32 -10.5 53t-26 33.5t-33.5 17.5t-33 5q-5 0 -21 -2t-34.5 -9t-36 -21.5t-24.5 -40.5q-4 -14 -6.5 -19.5t-9.5 -5.5q-5 0 -17 5t-12 15q0 9 12 33.5
t37.5 51t65 46.5t94.5 20q37 0 67 -12.5t51.5 -34t33.5 -51t12 -64.5q0 -31 -7.5 -59t-23.5 -55.5t-39.5 -57t-56.5 -63.5q-9 -10 -32.5 -32.5t-49.5 -47t-49 -46.5t-32 -30z" />
    <glyph glyph-name="three" unicode="3" 
d="M291 378q20 -1 49.5 -4t57.5 -23q9 -6 19.5 -16.5t20.5 -27t16.5 -39t6.5 -51.5q0 -50 -21 -92t-58 -72t-85.5 -47t-104.5 -17q-46 0 -75 10.5t-45.5 25t-23 29.5t-6.5 24q0 11 5.5 20t14 15t18 9.5t16.5 3.5q15 0 21.5 -7.5t15.5 -27.5q2 -5 7.5 -14.5t16 -19t28 -16.5
t42.5 -7q33 0 55.5 13.5t36.5 34.5t20 47t6 51q0 26 -6 50t-19.5 43.5t-34.5 31t-51 11.5q-19 0 -33 -3.5t-24 -8t-15.5 -8.5t-7.5 -4q-3 0 -5.5 3t-4.5 7q-2 5 -2.5 9.5t-2.5 6.5q-2 5 2 7l18 9q51 23 80.5 44.5t43.5 41t17.5 36.5t3.5 31q0 24 -7.5 41.5t-19.5 28.5
t-26.5 16t-28.5 5q-12 0 -27.5 -3.5t-30.5 -10t-27 -16t-17 -22.5q-5 -12 -7.5 -16t-9.5 -4q-6 0 -16 7t-10 12t13 24t38.5 40.5t63 38.5t86.5 17q37 0 62.5 -11.5t42 -29t24 -37.5t7.5 -38q0 -30 -13.5 -54.5t-33 -43t-40.5 -32t-36 -21.5z" />
    <glyph glyph-name="four" unicode="4" 
d="M496 240q9 0 9 -4t-0.5 -12t-1 -16.5t-1.5 -16t-1 -10.5q-1 -5 -1.5 -7t-4.5 -2h-44t-40 1q0 -10 0.5 -33.5t1 -49.5t1 -49t0.5 -32q0 -8 -1.5 -9.5t-8.5 -1.5q-12 0 -22.5 1t-19.5 1q-15 0 -25 -1t-18 -1t-8 11q0 6 0.5 28.5t1 49.5t1 52t0.5 34l-270 -1q-8 0 -9.5 1
t-1.5 9v37q0 4 2 7.5t13 15.5q36 45 59.5 74t45.5 56t48 60t67 85q21 27 33.5 43.5t22.5 29l20 25t25 30.5l39 -5q6 -1 6 -7q0 -5 -0.5 -17t-0.5 -26t-0.5 -26t-0.5 -17q0 -28 -0.5 -67t-0.5 -81v-84v-76zM314 306v41v63.5v64v42.5q-54 -70 -109.5 -143.5t-106.5 -134.5
q21 0 50 -0.5t59 -0.5t58.5 0.5t48.5 0.5v67z" />
    <glyph glyph-name="five" unicode="5" 
d="M199 535q-2 -4 -7 -16.5t-10.5 -26t-10 -25t-4.5 -14.5q0 -5 5.5 -9t21.5 -10q61 -22 101 -39.5t74 -45.5q29 -24 49.5 -63t20.5 -84q0 -40 -18 -78.5t-50 -68.5t-77 -48t-99 -18q-39 0 -68 10t-48.5 25t-29.5 33t-10 34q0 12 6 21.5t14.5 16t18 9.5t15.5 3q14 0 20 -7.5
t16 -27.5q3 -6 9.5 -17t18.5 -22.5t30 -19.5t45 -8t48 10.5t35.5 28t21.5 40.5t7 48q0 39 -16 66.5t-44.5 48.5t-69 38t-89.5 35q-21 8 -21 17q0 2 4.5 17t10 33.5t11 35.5t6.5 22q5 15 10 33.5t11 38t11.5 37.5t9.5 33q2 9 5 11.5t10 2.5h39.5h58h57.5h37q28 0 35 4.5
t10 9.5q3 4 5.5 4.5t5.5 0.5q9 0 10.5 -1t1.5 -3q0 -1 -4 -16t-9 -33.5t-11 -35t-10 -20.5q-5 -5 -15 -7t-28 -2h-35.5h-54t-53.5 -0.5t-34 -0.5z" />
    <glyph glyph-name="six" unicode="6" 
d="M50 240q0 76 19.5 136t51 106t72 78.5t83 53.5t84 30.5t73.5 9.5q6 0 12.5 -0.5t12.5 -4t10 -10.5t4 -20q0 -5 -3 -15t-17 -10q-10 0 -24.5 5t-36.5 5q-17 0 -49 -16.5t-63 -45.5q-65 -63 -91 -138.5t-26 -163.5q0 -41 7 -78t21 -65.5t34 -45.5t47 -17q40 0 67.5 38
t27.5 100q0 72 -30 114t-74 42q-18 0 -35 -8.5t-25 -19.5q-6 -8 -10 -8q-5 0 -5 9t2 17.5t7 16.5q4 6 14.5 15t26 18t36 15.5t44.5 6.5q36 0 65.5 -14t50 -38.5t32 -59.5t11.5 -77q0 -56 -19 -96t-50 -66t-69.5 -38t-77.5 -12q-54 0 -93.5 19t-65.5 52.5t-38.5 79.5
t-12.5 100z" />
    <glyph glyph-name="seven" unicode="7" 
d="M409 536q-93 1 -149 1t-86.5 -1t-42.5 -3t-18 -6q-11 -8 -16.5 -25.5t-11.5 -44.5q-2 -12 -13 -12q-21 0 -21 12q0 3 1.5 13t3 22.5t3.5 24t2 15.5q4 29 5 48.5t2 42.5q1 9 3 11t12 2q15 0 50 -0.5t74.5 -1t74 -1t47.5 -0.5q10 0 33.5 0.5t49.5 1t49 1t32 0.5
q7 0 11.5 -8.5t4.5 -10.5q0 -1 -10.5 -19.5t-23 -42t-24 -44t-14.5 -25.5l-30 -54t-44.5 -81.5t-52 -95.5t-52.5 -97t-45.5 -86.5t-30.5 -62.5q-10 -20 -14.5 -26.5t-17.5 -6.5q-6 0 -14 2.5t-15.5 7t-12.5 10t-5 11.5q0 5 3.5 11.5t18.5 29.5q8 11 19 29t28.5 48t43 74.5
t62.5 108.5t59 102t35 61t21 36.5t16 28.5z" />
    <glyph glyph-name="eight" unicode="8" 
d="M317 352q30 -15 58.5 -30.5t51 -35.5t36 -47t13.5 -65q0 -45 -22 -83t-54 -60q-41 -27 -85.5 -34.5t-75.5 -7.5q-58 0 -96 15.5t-60 38.5t-31 51t-9 52q0 35 12 61t32 46.5t46 36t55 28.5q-19 10 -40.5 23t-39.5 31t-29.5 43t-11.5 60q0 39 15.5 70.5t42.5 53.5t64.5 34
t81.5 12q25 0 56.5 -5.5t59 -21t46 -42.5t18.5 -70q0 -35 -12.5 -59.5t-32 -42t-43 -30t-46.5 -22.5zM289 368q9 6 20 15t20.5 22.5t16.5 33.5t7 47q0 24 -6.5 45t-19.5 37t-31 25.5t-42 9.5q-42 0 -65.5 -28t-23.5 -69q0 -28 10.5 -49t28 -37t39.5 -28.5t46 -23.5zM217 299
q-11 -8 -23.5 -18t-23 -24t-17.5 -34t-7 -49q0 -25 7 -51t21.5 -46t36.5 -33t53 -13q48 0 78.5 32t30.5 81q0 20 -5 38t-21.5 36t-47.5 38t-82 43z" />
    <glyph glyph-name="nine" unicode="9" 
d="M265 645q43 0 80.5 -15t65 -46.5t43.5 -79.5t16 -113q0 -76 -19 -136.5t-50 -106.5t-71.5 -78t-83 -52t-84.5 -29.5t-77 -9.5q-3 0 -9 0.5t-11.5 4t-9.5 11t-4 21.5q0 4 2.5 13.5t19.5 9.5q11 0 22.5 -3.5t31.5 -3.5q27 0 66.5 20t76 63.5t63 113t26.5 167.5
q0 105 -32.5 155.5t-79.5 50.5q-16 0 -33 -7t-30 -23.5t-21.5 -42.5t-8.5 -65q0 -31 6.5 -58.5t20 -48t33 -32t44.5 -11.5q14 0 30 5t26 18q5 6 6.5 7.5t4.5 1.5q5 0 5 -5t-1.5 -18.5t-3.5 -18.5q-8 -13 -22.5 -23t-31.5 -16.5t-35 -10t-34 -3.5q-36 0 -65 14t-49.5 38
t-31 56.5t-10.5 69.5q0 44 15.5 83t44.5 68.5t69.5 47t89.5 17.5z" />
    <glyph glyph-name="colon" unicode=":" horiz-adv-x="241" 
d="M55 365q0 12 6 24t16 21.5t21.5 15.5t23.5 6t23.5 -6t20.5 -16t14.5 -21.5t5.5 -22.5t-6 -22.5t-15.5 -21t-21 -15.5t-22.5 -6t-23 6t-21.5 15t-15.5 20.5t-6 22.5zM55 53q0 12 6 24t16 21t21.5 15t23.5 6t23.5 -6t20.5 -16t14.5 -21t5.5 -22q0 -12 -6 -23.5t-15.5 -20.5
t-21 -15t-22.5 -6t-23 6t-21.5 15t-15.5 20.5t-6 22.5z" />
    <glyph glyph-name="semicolon" unicode=";" horiz-adv-x="241" 
d="M61 365q0 12 6 24t15.5 21.5t21 15.5t23.5 6t23.5 -6t20.5 -16t14.5 -21.5t5.5 -22.5q0 -12 -6 -23.5t-15.5 -20.5t-21 -15t-22.5 -6t-22.5 6t-21 15t-15.5 20.5t-6 22.5zM20 -164q42 11 66.5 29t36.5 36t15.5 34t3.5 22q0 26 -14.5 36.5t-42.5 24.5q-17 8 -20 21t-3 16
q0 20 15.5 37t41.5 17q18 0 34.5 -10t28.5 -26.5t19 -38.5t7 -45q0 -46 -21 -79t-48.5 -54t-54 -31t-38.5 -10q-5 0 -10.5 4t-17.5 12z" />
    <glyph glyph-name="less" unicode="&#x3c;" 
d="M438 511l-240 -155l240 -161v-116l-358 242v7l358 226v-43z" />
    <glyph glyph-name="equal" unicode="=" 
d="M68 348q-14 0 -17.5 1t-3.5 7v44q0 6 3.5 7t17.5 1h382q14 0 17.5 -1t3.5 -7v-44q0 -6 -3.5 -7t-17.5 -1h-382zM68 228q-14 0 -17.5 1t-3.5 7v44q0 6 3.5 7t17.5 1h382q14 0 17.5 -1t3.5 -7v-44q0 -6 -3.5 -7t-17.5 -1h-382z" />
    <glyph glyph-name="greater" unicode="&#x3e;" 
d="M80 123l241 154l-241 162v115l358 -242v-6l-358 -227v44z" />
    <glyph glyph-name="question" unicode="?" horiz-adv-x="407" 
d="M146 645q62 0 105.5 -29.5t71 -68t40.5 -76.5t13 -55q0 -30 -12 -51t-30.5 -36t-41.5 -26t-44 -20q-38 -16 -57 -25t-28 -17q-7 -5 -8 -12.5t-1 -17.5q0 -3 0.5 -10.5t0.5 -15v-14v-8.5q-1 -3 -9 -3.5t-13 -0.5q-4 0 -4.5 1.5t-2.5 8.5q-8 31 -14.5 63t-6.5 50
q0 15 5.5 26t17.5 20.5t32 20t49 24.5q23 11 41 20.5t30.5 20.5t19 25t6.5 33q0 10 -4.5 25.5t-16.5 29.5t-33 24.5t-55 10.5q-20 0 -34.5 -3.5t-21.5 -6.5q-24 -10 -31.5 -12t-15.5 -2q-10 0 -17 6t-11 14t-6 17.5t-2 16.5q0 53 88 53zM84 53q0 12 6 24t16 21t21.5 15
t23.5 6q11 0 22.5 -6t20.5 -15.5t15 -21t6 -22.5q0 -12 -6 -23.5t-16 -21t-21 -15t-22 -5.5t-23 6t-21.5 15t-15.5 20.5t-6 22.5z" />
    <glyph glyph-name="at" unicode="@" horiz-adv-x="759" 
d="M434 272q-11 -22 -24 -44.5t-29 -41t-35 -30t-41 -11.5q-32 0 -51.5 24t-19.5 59q0 39 20 80.5t53.5 78.5t76.5 64.5t89 38.5q2 5 6.5 13t20.5 8q2 0 7 -0.5t11 -2.5t10.5 -7.5t4.5 -14.5q0 -2 -3.5 -20.5t-8 -45.5t-10.5 -59.5t-10.5 -62.5t-8 -54.5t-3.5 -35.5
q0 -6 3 -14.5t20 -8.5q25 0 48 15.5t40.5 42.5t28 63t10.5 78q0 49 -15.5 89.5t-43.5 69t-68 44t-89 15.5q-61 0 -114 -24t-91.5 -67t-60.5 -102t-22 -128t22 -117t58 -79t82.5 -45t95.5 -14q38 0 73 6.5t55 14.5q7 3 16 6.5t11 3.5q6 0 9.5 -10t3.5 -12q0 -3 -13 -10.5
t-37.5 -15.5t-58.5 -14t-76 -6q-67 0 -127.5 18t-106.5 54t-73 90.5t-27 127.5q0 82 30.5 149.5t83 115.5t122.5 74.5t149 26.5q62 0 116.5 -18t94.5 -51t63 -80t23 -104q0 -60 -22 -106t-57 -77.5t-77.5 -47.5t-83.5 -16q-6 0 -16.5 1t-21 5.5t-18 14.5t-7.5 29q0 22 13 77
zM433 419q-21 0 -42.5 -13.5t-39.5 -36t-29.5 -51t-11.5 -58.5q0 -22 8 -32.5t20 -10.5q13 0 32 18t36.5 45.5t30 59.5t12.5 60q0 4 -2.5 11.5t-13.5 7.5z" />
    <glyph glyph-name="A" unicode="A" horiz-adv-x="667" 
d="M189 225q-22 -58 -36.5 -99t-14.5 -58q0 -13 7 -20t17.5 -11t23 -5t23.5 -2q8 -1 9 -4.5t1 -14.5q0 -6 -1.5 -9.5t-9.5 -3.5q-12 0 -42 1t-62 1q-38 0 -59 -1t-32 -1q-8 0 -10 3t-2 10q0 11 1 13.5t9 4.5q27 6 47.5 41t51.5 104q6 13 18 39.5t27.5 59.5t32 69.5t31 69
t26.5 58t17 37.5q12 28 23 56.5t21 60.5q3 7 16 8q12 1 31 4.5t25 3.5q5 0 6.5 -4.5t6.5 -21.5q4 -14 19 -57.5t37 -101.5t47.5 -123t49 -122t42 -99.5t26.5 -54.5q11 -16 21 -20.5t25 -6.5q5 -2 6 -4t1 -11q0 -10 -1.5 -13t-8.5 -3q-6 0 -22 0.5t-34 0.5t-33.5 0.5
t-21.5 0.5q-31 0 -52.5 -0.5t-35 -0.5t-21 -0.5t-12.5 -0.5q-10 0 -12 3t-2 10q0 13 3 15t17 4q19 2 35 7.5t16 25.5q0 7 -6.5 29t-15.5 48t-17.5 50t-12.5 35h-239zM314 526q-29 -67 -58 -136.5t-52 -126.5q11 0 39 -0.5t61 -0.5h63.5t46.5 1q-5 14 -19.5 51t-30.5 79
t-30 79.5t-20 53.5z" />
    <glyph glyph-name="B" unicode="B" horiz-adv-x="630" 
d="M581 189q0 -21 -6.5 -44t-20 -45t-34.5 -41.5t-50 -33.5q-36 -17 -84 -21t-108 -4h-49.5t-50.5 1q-7 0 -25.5 -0.5t-38.5 -1t-37.5 -1t-24.5 -0.5q-14 0 -16 3t-2 14q0 10 3 11.5t15 3.5q16 2 27.5 5t20 10.5t13 21.5t6.5 37q3 45 3.5 106t0.5 118q0 93 -1 144t-3.5 76.5
t-6.5 32.5t-10 12q-8 7 -23 9t-29 3q-7 0 -9 2t-2 10q0 13 2 16t16 3h15h21.5h22h14.5q11 0 39.5 0.5t59.5 1t57.5 1t33.5 0.5q36 0 72.5 -4t68.5 -22q31 -18 49.5 -49t18.5 -67q0 -40 -16.5 -66t-40 -42t-47.5 -24t-39 -12q67 -6 106 -26.5t58.5 -46t25 -51t5.5 -40.5z
M227 356q27 0 46 0.5t32.5 2t24 4t20.5 6.5q32 14 47 45t15 69q0 45 -16 69.5t-38.5 35.5t-46.5 13t-41 2q-27 0 -33.5 -3t-6.5 -16q-1 -33 -1.5 -69t-1 -68.5t-0.5 -57v-33.5zM227 321v-53.5v-73t1 -70t3 -44.5q4 -23 19 -33.5t53 -10.5q11 0 37.5 2.5t52.5 15.5
q35 17 52.5 52.5t17.5 75.5q0 54 -22.5 82.5t-57 41.5t-76 14.5t-80.5 0.5z" />
    <glyph glyph-name="C" unicode="C" horiz-adv-x="685" 
d="M49 313q0 64 21.5 124t67 106.5t117 74.5t171.5 28q45 0 88 -4.5t87 -9.5q5 -1 11.5 2.5t11.5 3.5q6 0 10.5 -1.5t4.5 -4.5q0 -4 -1.5 -14t-3.5 -21t-4 -21t-2 -15q-4 -31 -5 -50t-3 -44q0 -11 -15 -11q-12 0 -16.5 4.5t-6.5 22.5q-5 46 -17 63.5t-25 25.5
q-12 8 -28 13.5t-34 9t-36.5 5t-34.5 1.5q-50 0 -93.5 -17t-75.5 -51t-50 -86t-18 -121q0 -75 19.5 -130.5t53.5 -92.5t78.5 -55t94.5 -18q44 0 74.5 10.5t52 26t35.5 35t26 37.5q5 7 10 7q3 0 13.5 -2t10.5 -9l-3.5 -12t-7.5 -26.5t-7.5 -28t-4.5 -17.5q-7 -23 -9.5 -29.5
t-8.5 -8.5q-13 -5 -33.5 -9.5t-46 -8t-54 -5.5t-55.5 -2q-29 0 -61 3t-64 11t-63 22t-59 36q-36 28 -58 62.5t-34 69t-16 66t-4 55.5z" />
    <glyph glyph-name="D" unicode="D" horiz-adv-x="778" 
d="M729 333q0 -22 -5 -60.5t-24 -82t-57 -85.5t-104 -72q-30 -13 -77.5 -24t-131.5 -11q-10 0 -44.5 1t-105.5 1q-30 0 -63 -1t-65 -1q-13 1 -15 2.5t-2 14.5q0 10 3.5 12t17.5 4q18 3 29.5 8t19 14t11.5 24t5 38t1.5 57.5t1 72.5t0.5 74.5v62.5v41v45.5t-0.5 41t-1.5 28.5
q-1 20 -4 32.5t-10 19.5t-18.5 10t-31.5 4q-14 1 -16 3t-2 14q0 11 3 12.5t13 1.5h73t66 1q11 0 36.5 0.5t54.5 1.5t54.5 1.5t35.5 0.5q102 0 170 -29t108.5 -73.5t57.5 -99t17 -105.5zM341 601q-38 0 -59.5 -4t-32 -11.5t-13 -18.5t-4.5 -25q-1 -10 -1.5 -40.5t-1 -69
t-0.5 -80.5v-77v-82.5t0.5 -50.5t1 -28.5t1.5 -15.5q2 -15 6.5 -26t15.5 -19t31.5 -12t53.5 -4q58 0 107.5 19t86 55.5t57 90t20.5 122.5q0 17 -2.5 45t-12 60t-28 64.5t-50.5 57.5q-29 23 -69.5 36.5t-106.5 13.5z" />
    <glyph glyph-name="E" unicode="E" horiz-adv-x="593" 
d="M123 333v52t-0.5 65t-1 63t-1.5 46q-2 27 -16 35.5t-43 9.5q-11 0 -14 2t-3 13q0 12 5 14.5t11 2.5q38 0 68.5 -1.5t75.5 -1.5q43 0 89 0.5t89.5 1t81 1t63.5 0.5q8 0 14 -1.5t6 -6.5q0 -1 -1 -9.5t-2 -19t-2.5 -20t-1.5 -13.5q-1 -8 -1.5 -14.5t-1 -14.5t-1 -20
t-1.5 -32q0 -5 -3 -7t-14 -2q-12 0 -14 3.5t-4 18.5q-3 27 -7.5 45t-20 29t-47 15.5t-88.5 4.5h-21.5t-32.5 -1t-31 -3t-17 -6q-2 -2 -3 -9t-1.5 -17t-0.5 -20.5v-19.5v-33.5v-49.5v-49v-32q80 0 124 1.5t65 8t26 21t9 39.5q2 7 4 9.5t13 2.5q10 0 12 -2t2 -7
q0 -26 -1 -51.5t-1 -58.5q0 -32 1 -52.5t1 -28.5q0 -7 -2 -9.5t-11 -2.5q-13 0 -15 3t-3 14q-2 19 -9.5 37t-33.5 25q-12 3 -24.5 5t-32.5 2.5t-49.5 1t-75.5 0.5v-49.5t0.5 -74.5t1.5 -71.5t3 -40.5q4 -16 20.5 -22t65.5 -6t82.5 3.5t56.5 14t38 29.5t28 50q8 21 11 27t7 6
t14.5 -2.5t10.5 -10.5q0 -5 -3 -21t-7.5 -36.5t-10 -42t-10.5 -37.5q-5 -19 -7.5 -23.5t-13.5 -4.5q-6 0 -18 0.5t-41 1t-80 1t-136 0.5t-126.5 -1.5t-61.5 -1.5q-13 0 -15 2t-2 13t2.5 12.5t19.5 3.5q31 3 44 14t17 49q2 19 2.5 52t1 68.5t0.5 68.5v52z" />
    <glyph glyph-name="F" unicode="F" horiz-adv-x="556" 
d="M230 128q2 -30 5.5 -48.5t12 -29.5t23.5 -15t39 -4q15 0 18 -2t3 -14t-2 -14t-13 -2q-7 0 -25.5 0.5t-39 0.5t-38.5 0.5t-25 0.5q-8 0 -28.5 -0.5t-43.5 -0.5t-43 -0.5t-28 -0.5q-11 0 -13 3t-2 11q0 11 3 13.5t15 4.5q20 3 32 8.5t19 15t10 25t5 37.5q2 23 3 56
t1.5 69.5t0.5 75v72.5v60t-0.5 43.5t-1.5 32.5t-2 26q-2 19 -12.5 35.5t-45.5 18.5q-15 2 -19 3.5t-4 10.5q0 10 4 13.5t16 3.5q17 0 51 -2t76 -2q153 0 237 2t113 2q7 0 8.5 -2.5t1.5 -6.5q0 -2 -1.5 -16.5t-3.5 -35t-4 -42.5t-3 -40q-1 -15 -4.5 -18.5t-14.5 -3.5
t-14.5 2.5t-5.5 14.5q-3 23 -5 38t-5.5 25t-9 15.5t-14.5 9.5q-13 5 -32 8.5t-39.5 5.5t-40.5 2.5t-35 0.5h-17.5t-23.5 -1t-22 -2t-13 -4q-6 -5 -7 -14.5t-1 -42.5l-1 -186q80 0 123 1.5t64 9t26.5 22.5t8.5 41q1 11 13 11q10 0 14 -1.5t4 -9.5q0 -5 -0.5 -18t-0.5 -28
t-0.5 -28t-0.5 -19t0.5 -19.5t0.5 -28.5t0.5 -28.5t0.5 -18.5q0 -7 -2.5 -9.5t-11.5 -2.5q-13 0 -15 2t-3 10q-5 33 -10.5 47t-29.5 20q-24 5 -70.5 6t-106.5 1z" />
    <glyph glyph-name="G" unicode="G" horiz-adv-x="741" 
d="M49 301q0 92 40 166.5t110 114.5q59 33 123.5 48.5t132.5 15.5q27 0 50 -2t42 -4q20 -3 34.5 -5t23.5 -2q5 0 11 4q3 1 5.5 2t5.5 1q9 0 11 -3.5t2 -10.5v-44t1 -41q0 -4 1 -13.5t2 -20t1.5 -18.5t0.5 -10q0 -5 -3 -8.5t-21 -3.5q-7 0 -8.5 3.5t-5.5 17.5
q-9 38 -16.5 51.5t-15.5 20.5q-21 17 -63.5 27t-86.5 10q-70 0 -119.5 -23t-80.5 -61t-45 -88t-14 -103q0 -77 23.5 -139.5t77.5 -100.5q38 -27 80 -38t85 -11q11 0 28 1t34 4t31.5 8.5t19.5 15.5q5 11 7.5 33.5t2.5 73.5q0 43 -2 66t-12 34.5t-31.5 14t-59.5 4.5
q-5 1 -7 3.5t-2 11.5q0 19 10 19q18 0 51.5 -1t86.5 -1q30 0 59.5 1t59.5 1q3 0 5.5 -1t2.5 -6q0 -11 -1.5 -16t-9.5 -7q-29 -6 -35 -20t-8 -28q0 -6 -0.5 -20t-1 -30t-1 -30.5t-0.5 -22.5q0 -36 1 -57t2.5 -33t2.5 -17.5t1 -9.5q0 -3 -3 -5.5t-20 -5.5q-57 -10 -108 -17.5
t-116 -7.5q-87 0 -142 16t-95 39q-46 27 -72.5 64t-40 73.5t-17.5 69t-4 51.5z" />
    <glyph glyph-name="H" unicode="H" horiz-adv-x="796" 
d="M230 307v-86.5t0.5 -58.5t1.5 -40.5t2 -32.5q3 -37 18.5 -48t53.5 -13q13 0 16 -1.5t3 -12.5t-4 -13.5t-11 -2.5q-4 0 -11.5 0.5t-23 0.5t-42 0.5t-70.5 0.5q-38 0 -71 -1t-47 -1q-6 0 -9 3.5t-3 16.5q0 7 3.5 8.5t18.5 3.5q23 2 35.5 10.5t19 23t8.5 34t3 44.5
q1 20 1.5 52.5t0.5 68.5v70.5v58.5v38.5t-0.5 48t-1 46t-2.5 33.5q-4 25 -16.5 34t-44.5 13q-14 2 -17.5 3.5t-3.5 9.5q0 14 2 16t10 2t27 -0.5t40 -0.5t40 -0.5t26 -0.5q8 0 25.5 0.5t37.5 0.5t37.5 0.5t24.5 0.5q9 0 11.5 -1.5t2.5 -12.5t-2.5 -13.5t-17.5 -4.5
q-29 -2 -45 -12.5t-21 -39.5q-4 -28 -4.5 -72.5t-0.5 -126.5h87.5h96h88.5h65v83.5t-0.5 53.5t-1 34.5t-1.5 27.5q-2 28 -15 39.5t-50 13.5q-14 1 -16.5 3t-2.5 13q0 10 2 12.5t11 2.5q8 0 28 -0.5t42 -0.5t41.5 -0.5t26.5 -0.5q8 0 26 0.5t38.5 0.5t38 0.5t24.5 0.5
q8 0 9.5 -2.5t1.5 -11.5q-1 -11 -6 -14t-27 -6q-23 -3 -35.5 -11t-18.5 -30t-7.5 -60.5t-1.5 -103.5v-143t0.5 -93.5t2 -56.5t4.5 -32q3 -15 8 -23t14 -12t22.5 -5.5t33.5 -3.5q10 0 12 -2t2 -13q0 -10 -3 -12.5t-8 -2.5q-7 0 -30 1t-82 1q-42 0 -70.5 -0.5t-47.5 -0.5
t-29.5 -0.5t-15.5 -0.5t-8 2.5t-3 13.5q0 10 2.5 12t16.5 3q37 4 49 17.5t17 36.5q2 11 3.5 25.5t2 39t1 62.5t0.5 97h-337z" />
    <glyph glyph-name="I" unicode="I" horiz-adv-x="352" 
d="M228 336q0 -110 1 -170.5t6.5 -89.5t16 -35.5t29.5 -9.5q3 0 9.5 -0.5t14 -1t14 -1t8.5 -1.5q3 -1 3.5 -5.5t0.5 -10.5q0 -8 -2 -10t-7 -2q-8 0 -28.5 0.5t-43 0.5t-42 0.5t-27.5 0.5q-9 0 -30 -0.5t-44.5 -0.5t-44.5 -0.5t-29 -0.5t-10.5 2.5t-2.5 11.5q0 12 4 14t21 4
q25 2 39 9t21 19t9.5 28t3.5 35q2 24 3 65.5t1.5 86.5t0.5 88v70q0 62 -2 96.5t-9.5 51t-23.5 20t-45 4.5q-15 1 -17.5 3t-2.5 14q0 11 3 13t12 2q8 0 28 -0.5t42 -0.5t42 -0.5t27 -0.5q8 0 28.5 0.5t43 0.5t43 0.5t27.5 0.5t10 -2t3 -11q0 -14 -3 -16.5t-18 -3.5
q-22 -1 -36 -4.5t-22.5 -11.5t-13 -22t-6.5 -35q-1 -10 -2 -24t-1.5 -36t-1 -54.5t-0.5 -79.5z" />
    <glyph glyph-name="J" unicode="J" horiz-adv-x="315" 
d="M-102 -154q0 9 5.5 18t14 15.5t18 11t17.5 4.5t16.5 -4t18 -8.5t21 -8.5t26.5 -4q24 0 38 10t21.5 23.5t10.5 28.5t4 24q3 24 4.5 70t2.5 98t1 101.5v78.5v52t-0.5 65.5t-1 63.5t-1.5 46q-1 19 -3.5 32.5t-10.5 22.5t-23 13.5t-41 5.5q-13 0 -16 2t-3 14q0 11 2.5 13
t11.5 2q8 0 28.5 -0.5t43 -0.5t43 -0.5t27.5 -0.5q8 0 25.5 0.5t37.5 0.5t38 0.5t25 0.5q9 0 12 -2t3 -10q0 -11 -3 -14.5t-17 -5.5q-25 -2 -39 -9t-21 -29t-8.5 -65t-2.5 -118v-58v-86.5t-0.5 -86t-1.5 -55.5q-1 -35 -5 -64t-12.5 -54t-23 -48t-37.5 -47
q-10 -11 -26.5 -25.5t-38 -28t-47 -22.5t-55.5 -9q-12 0 -26 2t-25.5 7.5t-19 14.5t-7.5 23z" />
    <glyph glyph-name="K" unicode="K" horiz-adv-x="685" 
d="M229 280q0 -91 1 -140t6.5 -72.5t17.5 -28.5t34 -8q3 -1 12.5 -1.5t12.5 -1.5q2 -1 2.5 -3t0.5 -10q0 -11 -2.5 -14t-13.5 -3q-8 0 -33 1t-79 1q-56 0 -93.5 -1t-46.5 -1q-7 0 -7 14q0 11 3.5 13.5t17.5 5.5q18 4 29 9t17 17t8.5 33.5t3.5 58.5q1 10 2 79t1 200
q0 54 -1.5 85t-3.5 47t-5.5 21.5t-7.5 9.5q-7 8 -16 10t-38 6q-5 1 -6 3t-1 10q0 11 2 13.5t8 2.5q8 0 26.5 -0.5t39 -1t38.5 -1t25 -0.5t24 0.5t36 1t36 1t23 0.5q8 0 9.5 -3t1.5 -9q0 -13 -2.5 -15.5t-17.5 -4.5q-19 -2 -30.5 -6.5t-17.5 -12.5t-8 -20.5t-4 -30.5
q-1 -18 -2 -45.5t-2 -57.5t-1 -58v-46q72 64 123.5 111t75.5 71q19 19 29.5 31t16 19.5t6.5 11.5t1 8q0 16 -13 19.5t-39 5.5q-14 1 -16.5 2.5t-2.5 12.5t2.5 14t10.5 3q20 0 47.5 -1.5t47.5 -1.5q71 0 141 3q6 0 8.5 -2.5t2.5 -11.5q0 -11 -3 -13.5t-17 -5.5l-13.5 -4.5
t-18.5 -8t-26.5 -15.5t-36.5 -26q-13 -10 -44 -36t-64.5 -54t-61.5 -51.5t-34 -28.5q17 -21 43 -51t49 -56q66 -73 107 -119t66.5 -72.5t38 -36.5t21.5 -12q17 -4 21.5 -6t4.5 -11q0 -11 -3.5 -13.5t-13.5 -2.5q-12 0 -47.5 0.5t-97.5 0.5q-28 0 -56.5 -0.5t-46.5 -0.5
q-8 0 -8 16q0 10 2 12t16 3q4 0 11 1t13.5 3t11.5 6t5 11q0 8 -7 17.5t-17 20.5q-18 22 -32.5 39t-34 39.5t-48.5 56.5t-78 90z" />
    <glyph glyph-name="L" unicode="L" horiz-adv-x="556" 
d="M228 269v-43t1 -62.5t3 -60t5 -35.5q5 -13 20 -15.5t45 -2.5q19 0 43.5 0.5t48.5 2.5t45.5 7.5t33.5 14.5q19 14 31.5 42t17.5 48q3 15 11 15q17 0 21 -4t4 -10q0 -19 -7.5 -57t-19.5 -81q-5 -20 -7.5 -25t-9.5 -5q-8 0 -19 0.5t-35.5 1.5t-68 1.5t-116.5 0.5
q-78 0 -122.5 -0.5t-67.5 -1.5t-31 -1.5t-11 -0.5q-11 0 -11 14q0 12 3 14t17 4q22 2 34.5 9.5t19 19t9 26t3.5 31.5q2 24 3 58t1.5 69.5t0.5 67.5v53q0 78 -0.5 132t-5.5 75q-5 22 -20.5 27t-42.5 8q-8 1 -10 3t-2 11q0 11 2.5 13.5t11.5 2.5q35 0 61 -1.5t60 -1.5
q45 0 76 1.5t57 1.5q6 0 9 -2.5t3 -10.5q0 -12 -3 -15t-17 -4q-29 -2 -46.5 -11.5t-21.5 -42.5q-2 -18 -3.5 -51t-2 -72t-0.5 -80.5v-77.5z" />
    <glyph glyph-name="M" unicode="M" horiz-adv-x="926" 
d="M847 599q-30 -6 -36.5 -29t-6.5 -74q0 -16 0.5 -50t1.5 -76t1.5 -87.5t1.5 -85.5t2 -70t2 -41q2 -29 16 -41.5t50 -14.5q14 -1 16.5 -2.5t2.5 -11.5q0 -18 -9 -18q-16 0 -43 1t-84 1q-54 0 -92.5 -1t-54.5 -1q-5 0 -8.5 2.5t-3.5 12.5q0 11 4.5 13t22.5 4q26 2 40.5 7
t22 21.5t9.5 48t2 87.5v314q-7 -16 -14.5 -33t-23.5 -48.5t-43 -84t-72 -140.5l-23 -46t-23 -47t-20.5 -44.5t-14.5 -37.5q-2 -7 -4.5 -9t-7.5 -4q-7 -2 -20.5 -6t-18.5 -4q-4 0 -6 4.5t-9 21.5q-9 24 -25.5 61t-36.5 78.5l-40 83t-36 72.5q-23 48 -37.5 77t-23 48t-13 32.5
t-9.5 30.5q1 -17 0.5 -58t-1 -86t-1 -85.5t-0.5 -55.5q0 -70 2 -109t10 -58.5t25.5 -24t47.5 -5.5q14 -1 17.5 -3t3.5 -13q0 -9 -1.5 -13t-8.5 -4q-11 0 -38.5 1.5t-72.5 1.5q-9 0 -29 -0.5t-42 -1t-41.5 -1t-27.5 -0.5t-10.5 2t-2.5 15q0 10 3 12t19 4q24 3 39 9.5t23 18.5
t11.5 30t6.5 45q2 18 4 51.5t4.5 74.5t4.5 84t4 80.5t3 64t1 32.5q0 35 -13 56t-60 25q-17 2 -21.5 4t-4.5 13t3.5 13.5t14.5 2.5q14 0 37.5 -0.5t55.5 -0.5q20 0 45.5 0.5t36.5 0.5q5 0 8.5 -9.5t5.5 -14.5q6 -18 16.5 -43.5t24 -55t29.5 -62t32 -64.5q7 -15 25 -50
t37.5 -73.5t37 -73t23.5 -47.5q2 4 17 32.5t36 69.5t45.5 89t47 92t39.5 78.5t23 47.5q12 27 17.5 43.5t10.5 32.5q2 6 4 7t7 1q25 0 50.5 -0.5t51.5 -0.5q28 0 43.5 0.5t25.5 0.5q5 0 5 -13q0 -6 -1.5 -11.5t-6.5 -6.5z" />
    <glyph glyph-name="N" unicode="N" horiz-adv-x="778" 
d="M666 200v-26v-36.5t0.5 -38.5t1.5 -33q2 -21 3.5 -37.5t1.5 -21.5q0 -2 -0.5 -4.5t-5.5 -4.5q-7 -3 -16 -8t-13 -5t-7.5 4.5t-16.5 23.5q-14 20 -32 42t-45 52t-66.5 72t-96.5 102q-22 23 -50 53l-56 60t-52 57.5t-38 44.5q0 -18 -0.5 -51t0 -73.5t0.5 -84t0.5 -81.5
t1.5 -67t2 -40q2 -18 6.5 -30.5t13.5 -20.5t25 -12.5t42 -5.5q17 -1 20.5 -3t3.5 -13q0 -12 -3 -14t-11 -2q-6 0 -22.5 0.5t-36 0.5t-39.5 0.5t-34 0.5q-18 0 -37.5 -0.5t-36 -0.5t-29 -0.5t-17.5 -0.5q-6 0 -9.5 2.5t-3.5 13.5t3.5 13.5t20.5 4.5q23 3 36.5 10.5t21 20.5
t11 30.5t5.5 39.5t4 55.5t3 70.5t2 74.5t1.5 68t0.5 50.5v23q0 21 -1.5 42.5t-9.5 39.5t-24 30t-46 15q-16 2 -19.5 3.5t-3.5 11.5q0 14 2.5 16.5t10.5 2.5q24 0 46 -1t38 -1q19 0 37 1t41 1q5 0 16.5 -17.5t28.5 -38.5q14 -17 43.5 -49.5t67 -72.5t78 -83.5t77.5 -83
t66 -71t42 -46.5v40v58v66v63.5t-0.5 51.5t-0.5 29q-1 36 -4 59t-12 36.5t-25 19.5t-43 8q-17 1 -20.5 3t-3.5 13q0 8 2 11.5t11 3.5q10 0 45 -1t92 -1q28 0 46.5 0.5t31 0.5t20.5 0.5t15 0.5q5 0 7 -2.5t2 -12.5q0 -9 -1 -12t-7 -4q-25 -4 -41 -8.5t-26.5 -14.5t-16 -28
t-8.5 -49q-2 -19 -3.5 -63t-3 -92t-2.5 -90.5t-1 -59.5z" />
    <glyph glyph-name="O" unicode="O" horiz-adv-x="796" 
d="M49 311q0 94 36 158t89.5 103.5t116 56.5t115.5 17q74 0 136.5 -23.5t108 -66t71 -102.5t25.5 -132q0 -69 -25.5 -130t-72 -106.5t-113 -71.5t-149.5 -26q-82 0 -145 26.5t-106 71t-65 103t-22 122.5zM167 340q0 -71 19.5 -128t53 -96.5t78.5 -60.5t96 -21q36 0 74 12.5
t69.5 42t51.5 79t20 123.5q0 71 -19 128.5t-52.5 97.5t-79 61.5t-97.5 21.5q-58 0 -99 -22t-66.5 -58.5t-37 -83t-11.5 -96.5z" />
    <glyph glyph-name="P" unicode="P" horiz-adv-x="574" 
d="M556 451q0 -41 -16.5 -78t-50 -64.5t-84.5 -44t-119 -16.5q-41 0 -65 3q0 -21 0.5 -50t2 -57.5t3.5 -52t6 -34.5q7 -19 24.5 -22.5t49.5 -5.5q9 0 11.5 -1.5t2.5 -12.5t-2 -14t-8 -3t-37 1t-105 1q-40 0 -64.5 -0.5t-38.5 -0.5t-20.5 -0.5t-10.5 -0.5q-6 0 -7 4.5t-1 9.5
q0 11 3 13.5t17 4.5q24 3 37 11.5t20 29t9 57t3 95.5q0 10 0.5 37.5t0.5 64v77.5t-1 77t-2 62.5t-3 34.5q-5 18 -20.5 22.5t-47.5 6.5q-8 1 -9.5 3t-1.5 14q0 10 2.5 12t12.5 2q19 0 47.5 -0.5t54.5 -0.5q54 0 89.5 2t73.5 2t65.5 -3.5t48 -10t36 -15t27.5 -17.5
q29 -23 48 -59t19 -83zM222 287q9 -1 21.5 -2t26.5 -1q84 0 125.5 45t41.5 115q0 26 -8 60t-35 61q-24 24 -57 31t-56 7q-20 0 -31.5 -1.5t-16.5 -4t-6.5 -5.5t-1.5 -7q-1 -7 -2 -26t-1.5 -44.5t-0.5 -55v-58.5q0 -44 0.5 -77t0.5 -37z" />
    <glyph glyph-name="Q" unicode="Q" horiz-adv-x="796" 
d="M379 -12q-83 2 -145 30t-103 73.5t-61.5 103.5t-20.5 120q0 84 32 146t83 103t114.5 61.5t126.5 20.5q74 0 136.5 -23.5t108.5 -66t71.5 -102t25.5 -132.5q0 -48 -14 -97t-44 -92.5t-77.5 -78t-113.5 -52.5q32 -34 65.5 -63t67 -50t66 -32.5t62.5 -11.5q23 0 32 4.5
t12 4.5q4 0 7.5 -6.5t3.5 -13.5q0 -4 -10.5 -9.5t-27 -10.5t-37.5 -8.5t-43 -3.5q-54 0 -102.5 19.5t-92.5 49.5q-22 16 -41.5 33t-35 33t-27 29.5t-18.5 21.5zM167 340q0 -72 19.5 -128.5t53.5 -96t78.5 -60.5t95.5 -21q36 0 74 12.5t69.5 42t51.5 79t20 122.5
q0 72 -19.5 129.5t-53 97.5t-78.5 61.5t-97 21.5q-57 0 -98 -22t-66.5 -58t-37.5 -83t-12 -97z" />
    <glyph glyph-name="R" unicode="R" horiz-adv-x="667" 
d="M555 471q0 -64 -33.5 -106t-93.5 -65q5 -9 22.5 -42t44 -73.5t59 -79.5t65.5 -58q25 -14 41.5 -16.5t32.5 -3.5q7 0 7 -13q0 -8 -1.5 -11t-7.5 -5q-16 -5 -32 -6.5t-27 -1.5q-43 0 -82 13.5t-75.5 46t-73 87.5t-75.5 138q-31 -3 -58 -2.5t-41 1.5v-42v-60.5t1 -59
t3 -37.5q3 -14 7.5 -22.5t13.5 -13.5t24 -7t38 -4q9 0 9 -13q0 -17 -11 -17q-6 0 -14.5 0.5t-23 0.5t-37 0.5t-55.5 0.5q-13 0 -34.5 -0.5t-42.5 -0.5t-38.5 -0.5t-23.5 -0.5q-8 0 -8 16q0 11 4 13t20 4q21 3 32.5 10.5t17.5 18t8 23t2 23.5q2 27 2.5 62.5t1 73.5t0.5 77v74
v41t-1 55.5t-3 53t-5 34.5q-6 18 -20.5 22t-43.5 6q-7 1 -8.5 3t-1.5 11q0 11 2 13.5t13 2.5h20.5h31h31h19.5q11 0 38 1t56.5 2t55.5 2t36 1q7 0 25.5 -1t42 -5.5t49 -14.5t47 -29t35 -48t13.5 -72zM227 318q12 -2 24.5 -3.5t32.5 -1.5q26 0 52.5 4t49 18t36.5 41.5
t14 74.5q0 22 -4 45.5t-17 46.5q-16 29 -45 44.5t-76 15.5q-24 0 -36.5 -1.5t-18.5 -6.5t-7.5 -13.5t-1.5 -23.5q0 -12 -0.5 -46t-1 -72t-1 -73t-0.5 -49z" />
    <glyph glyph-name="S" unicode="S" horiz-adv-x="556" 
d="M467 567q0 -8 1 -20l2 -24t2 -21.5t1 -11.5q0 -10 -8 -13.5t-18 -3.5q-8 0 -10 11q-11 31 -20 52t-31 38q-23 17 -50 23.5t-50 6.5q-56 0 -85.5 -29.5t-29.5 -73.5q0 -27 9.5 -45.5t28.5 -33t46.5 -27.5t63.5 -29q36 -15 70 -31.5t60.5 -39t42.5 -52.5t16 -72
q0 -47 -20 -82.5t-48 -55.5q-23 -16 -62 -30.5t-110 -14.5q-30 0 -58.5 2.5t-52 6t-39 6t-20.5 2.5q-11 0 -14 -4.5t-12 -4.5q-8 0 -10 2.5t-4 9.5q-4 25 -7 51.5t-5 50t-3 40t-1 20.5q0 5 3.5 14.5t25.5 9.5q5 0 7 -6t4 -17q10 -37 24 -59.5t31 -36.5q29 -22 65.5 -31.5
t67.5 -9.5q57 0 91.5 31.5t34.5 80.5q0 27 -9.5 46t-28.5 34t-47 28.5t-65 29.5q-35 15 -67 31t-56 37t-38.5 49t-14.5 68q0 35 13 67t40.5 56.5t70.5 39t104 14.5q21 0 44.5 -2t44.5 -4q20 -3 35 -5t17 -2q5 0 11 3q10 2 11 2q6 0 6 -8v-63z" />
    <glyph glyph-name="T" unicode="T" horiz-adv-x="648" 
d="M270 579q-64 -1 -104.5 -2.5t-64.5 -9t-36 -23.5t-20 -45q-5 -16 -7 -19.5t-12 -3.5q-20 0 -20 11q0 5 3 23t6.5 41t8 46t7.5 37q2 6 3.5 8.5t7.5 2.5q8 0 16 -4t39.5 -6.5t69 -3.5t72.5 -1h50h71t97.5 1t93.5 2.5t59 4.5q4 1 15 4t14 3q11 0 11 -7q0 -2 -3 -16.5
t-7.5 -35.5t-10 -45.5t-11.5 -47.5q-2 -11 -5 -14t-12 -3q-10 0 -15.5 1.5t-5.5 10.5q0 24 -0.5 39.5t-5 25t-13 14.5t-25.5 7q-19 3 -56.5 4t-100.5 1q-1 -54 -1.5 -109.5t-0.5 -109.5v-120.5t0.5 -73t1.5 -43t2 -31.5q1 -12 3.5 -22.5t11 -19t25 -14t45.5 -6.5
q15 -1 18.5 -3t3.5 -13q0 -12 -2.5 -14t-11.5 -2q-13 0 -46.5 1.5t-99.5 1.5q-60 0 -93 -1.5t-60 -1.5q-10 0 -11.5 2.5t-1.5 13.5t2.5 13t16.5 4q27 3 43.5 8t25.5 14t12.5 23t4.5 34q1 17 2 56.5t1.5 83t0.5 81.5v52v31.5v51t-0.5 59t-0.5 54.5z" />
    <glyph glyph-name="U" unicode="U" horiz-adv-x="722" 
d="M380 54q53 0 100.5 18.5t73.5 63.5q17 31 20 77t3 112v53.5t-1 70.5t-3.5 68t-6.5 46q-8 26 -29.5 32.5t-52.5 9.5q-9 1 -11.5 3t-2.5 11q0 12 3 14.5t9 2.5q7 0 24.5 -0.5t36.5 -1t36 -1t23 -0.5t21.5 0.5t32.5 1t31.5 1t20.5 0.5q8 0 9.5 -3t1.5 -11q0 -11 -3.5 -13.5
t-18.5 -5.5q-22 -4 -34 -13.5t-18 -36.5t-7.5 -78t-2.5 -138q-1 -52 -2.5 -92.5t-8 -73.5t-20.5 -60.5t-39 -52.5q-12 -11 -29.5 -23.5t-43 -23t-60 -17.5t-78.5 -7q-25 0 -53.5 3t-56.5 11t-54 22t-46 37q-18 20 -27.5 42t-14 47.5t-5.5 56.5t-1 68v119.5t-0.5 82.5
t-1.5 52.5t-3 29.5q-1 6 -3 13.5t-7.5 14.5t-16 12.5t-27.5 6.5q-14 1 -17.5 3t-3.5 12q0 9 1.5 12.5t9.5 3.5q7 0 22.5 -0.5t35 -1t40.5 -1t38 -0.5q26 0 63.5 1.5t64.5 1.5q14 0 14 -14q0 -13 -3 -15t-20 -4q-35 -2 -53 -12t-22 -48q-2 -21 -3 -56.5t-2 -71.5t-1 -64v-33
q0 -21 0.5 -47t3 -52t7.5 -50.5t14 -42.5q12 -23 31 -37.5t41 -22t43.5 -10t38.5 -2.5z" />
    <glyph glyph-name="V" unicode="V" horiz-adv-x="648" 
d="M295 -6q-7 -2 -9.5 1t-5.5 14q-4 17 -12 40t-20.5 56.5t-30.5 79.5t-42 109q-11 29 -27.5 71.5t-34 84.5t-33 76.5t-25.5 49.5q-13 19 -24 23.5t-18 6.5q-6 1 -7.5 3.5t-1.5 8.5q0 11 2.5 14.5t15.5 3.5q28 0 62 -1t69 -1h39.5t55.5 2q7 0 9 -2.5t2 -11.5q0 -14 -2.5 -16
t-14.5 -3q-18 -1 -36 -5t-18 -25q0 -9 6 -30.5t14.5 -46t17 -47.5t13.5 -37l71 -184q5 -15 13.5 -37t25.5 -72q3 6 17 37.5t34.5 77t43.5 98.5t42 101t32 85t13 51q0 23 -20 28t-49 7q-14 1 -17.5 2.5t-3.5 11.5q0 14 2.5 16t7.5 2q13 0 36 -1t77 -1q35 0 57.5 1t31.5 1
q8 0 9.5 -2t1.5 -13q0 -9 -2 -11.5t-13 -6.5q-9 -3 -16.5 -8t-14.5 -15t-15.5 -25.5t-20.5 -40.5q-3 -6 -16.5 -34t-32.5 -67.5t-41.5 -86.5t-43.5 -92.5l-39 -84.5t-28 -63q-17 -41 -30 -79q-1 -6 -17 -7z" />
    <glyph glyph-name="W" unicode="W" horiz-adv-x="944" 
d="M360 116q6 12 20 39.5t29.5 58.5t29 58.5t18.5 37.5q-3 9 -12 32.5t-21.5 53.5t-26.5 63t-27 61.5t-24 49.5t-17 26q-4 4 -10.5 6.5t-11.5 4.5q-5 1 -5 20q0 6 4 7.5t10 1.5q16 0 31 -0.5t36.5 -1t52.5 -1t78 -0.5q73 0 116.5 1.5t55.5 1.5q7 0 10 -2t3 -11
q0 -11 -2.5 -14t-13.5 -7q-12 -5 -22 -16.5t-23 -34.5q-2 -3 -12 -21t-24 -44t-31 -57.5t-32 -60.5q10 -26 23.5 -59t27.5 -67t27 -66.5t22 -59.5q2 4 14 30t29 63.5t36.5 80t36.5 80t28.5 63.5t13.5 29q20 47 26.5 67.5t6.5 32.5q0 25 -17 32.5t-34 9.5q-17 1 -21 2.5
t-4 12.5t2 14t10 3q6 0 19 -0.5t28 -0.5t28 -0.5t18 -0.5q6 0 19.5 0.5t28.5 0.5t28.5 0.5t18.5 0.5t7.5 -2.5t2.5 -11.5q0 -11 -2 -13.5t-8 -4.5q-7 -1 -13 -4t-12.5 -10t-15 -19t-21.5 -33q-16 -26 -39 -70.5t-49.5 -97t-53 -109t-49.5 -107t-39 -89.5t-21 -58
q-2 -5 -10 -6.5t-19 -3.5q-7 -1 -15.5 -2.5t-15.5 -1.5q-5 0 -6.5 3.5t-6.5 19.5q-15 49 -38 112t-52 135q-36 -67 -67.5 -132t-51.5 -121q-2 -7 -8 -9.5t-12 -2.5q-11 -1 -19.5 -3t-17.5 -2q-5 0 -7.5 4t-7.5 21q-9 29 -16.5 51t-18.5 52.5t-29.5 77.5t-50.5 126
q-6 16 -19 47t-27.5 65.5t-29 67t-25.5 51.5q-12 23 -21 34.5t-27 16.5q-5 2 -6.5 4t-1.5 12t1.5 11.5t9.5 1.5q31 0 54.5 -1t60.5 -1q30 0 55 1t49 1q7 0 9.5 -1.5t2.5 -12.5t-2 -14t-14 -5q-29 -3 -41 -7t-12 -23q0 -9 7.5 -32.5t17 -50.5t19.5 -52.5t16 -40.5
q7 -16 23 -56.5t34 -85t33.5 -84.5t21.5 -55zM520 417q7 13 17.5 35.5t20.5 46t17.5 44.5t7.5 31q0 18 -16.5 23.5t-47.5 5.5q-19 0 -37.5 -3t-18.5 -22q0 -7 7 -29t17 -47.5t19.5 -49.5t13.5 -35z" />
    <glyph glyph-name="X" unicode="X" horiz-adv-x="685" 
d="M370 381q13 15 37 42.5t47 57.5t40.5 56t17.5 37q0 9 -5.5 15t-13.5 9t-17.5 4t-17.5 1q-11 1 -13.5 3t-2.5 15q0 11 2.5 13t13.5 2q5 0 16.5 -0.5t26 -0.5t29.5 -0.5t27 -0.5q40 0 65 1t30 1q8 0 10.5 -3.5t2.5 -14.5q0 -9 -3.5 -11.5t-14.5 -6.5l-10 -4t-12 -7
t-17.5 -14t-25.5 -25q-29 -29 -71.5 -76t-113.5 -127q20 -27 44.5 -62t50 -71t50 -70.5t45.5 -61.5q20 -26 32 -36.5t30 -14.5q13 -3 15 -6t2 -13q0 -9 -2 -11.5t-11 -2.5h-20t-34 0.5t-39.5 0.5h-36.5q-37 0 -66.5 -0.5t-58.5 -0.5q-7 0 -7 15q0 11 2.5 12.5t13.5 2.5
q20 2 37 6.5t17 20.5q0 12 -12 33.5t-34 53.5t-45 66t-46 67q-16 -19 -35 -43t-35.5 -45.5t-28.5 -37t-13 -16.5q-9 -13 -20 -30.5t-11 -35.5q0 -20 19 -27t37 -9q14 -1 18 -2.5t4 -11.5q0 -14 -2.5 -16t-14.5 -2q-7 0 -20.5 0.5t-28.5 0.5t-29.5 0.5t-23.5 0.5
q-33 0 -57.5 -0.5t-51.5 -1.5q-14 0 -16.5 2t-2.5 14q0 11 3 13.5t15 5.5q7 2 13.5 4.5t14.5 9t19.5 17.5t28.5 29q10 11 38 42t59 66t58.5 66.5t36.5 41.5q-50 71 -83.5 118.5t-55.5 78t-35.5 47.5t-23.5 27l-8 8t-7.5 5.5t-12 5l-19.5 6.5q-5 2 -6 5t-1 11q0 10 2 12t13 2
h21q17 0 41.5 -1t55.5 -1q8 0 25.5 0.5t37 0.5t37 0.5t24.5 0.5q6 0 9.5 -2t3.5 -13t-3 -13t-19 -4q-17 -2 -31 -7t-14 -19q0 -6 3 -15t15.5 -29t36.5 -56t66 -97z" />
    <glyph glyph-name="Y" unicode="Y" horiz-adv-x="611" 
d="M353 218q0 -53 0.5 -83t2 -46t3.5 -21.5t4 -10.5q8 -15 25 -20t49 -8q6 0 8 -2.5t2 -10.5q0 -12 -2 -15t-9 -3q-13 0 -43 1.5t-98 1.5q-8 0 -26.5 -0.5t-39 -1t-38.5 -1t-25 -0.5q-8 0 -10 2.5t-2 15.5q0 9 3.5 11t19.5 4q25 3 38.5 10t20.5 17.5t8.5 23.5t1.5 29
q0 15 0.5 29t1 30t1 35t0.5 44q0 6 -1 10t-3.5 9.5t-7.5 14t-13 22.5q-13 21 -37 59.5t-50.5 80t-51.5 78t-40 54.5q-14 17 -22 21.5t-23 9.5q-5 1 -5 15q0 9 1.5 11t6.5 2q14 0 43.5 -1t86.5 -1q37 0 61.5 1t35.5 1t12.5 -4.5t1.5 -8.5q0 -11 -2.5 -14.5t-15.5 -3.5
q-3 0 -10.5 -0.5t-14.5 -2.5t-12.5 -6.5t-5.5 -12.5t11 -30t27.5 -50.5t35.5 -59.5t35.5 -57t28 -43t12.5 -18q11 16 26 40t30.5 48.5t28.5 45.5t19 31q14 24 22 38.5t11.5 23.5t4 13t0.5 7q0 19 -17 25t-40 8q-9 2 -12 3.5t-3 9.5q0 13 3 15t11 2q16 0 39 -0.5t63 -0.5
q43 0 61.5 0.5t29.5 0.5q6 0 8.5 -2t2.5 -10q0 -11 -2.5 -13t-13.5 -7q-10 -3 -22 -11t-36 -36t-64.5 -84t-107.5 -157q-1 -2 -4.5 -7t-7 -10.5t-6.5 -10t-3 -6.5q0 -1 -0.5 -8t-0.5 -16.5v-20v-18.5z" />
    <glyph glyph-name="Z" unicode="Z" horiz-adv-x="630" 
d="M181 44q26 0 70.5 0.5t91 3t87.5 7.5t60 13q20 9 39 31.5t38 74.5q2 7 5 10t12 3q14 0 17 -2.5t3 -7.5q0 -7 -6.5 -44.5t-28.5 -111.5q-5 -17 -9 -20t-12 -3q-19 0 -41 0.5t-52.5 1.5t-71.5 1.5t-98 0.5q-88 0 -144.5 -2t-99.5 -2q-11 0 -13 3t-2 11q0 10 1.5 13.5
t9.5 12.5q112 138 214.5 279.5t195.5 272.5q-70 0 -115 -1.5t-73 -3t-43 -3.5t-27 -4q-30 -7 -51 -27.5t-41 -75.5q-2 -7 -5.5 -10.5t-12.5 -3.5q-19 0 -19 11q0 3 6 42.5t26 108.5q3 11 4.5 13.5t7.5 2.5q9 0 19 -0.5t31 -2.5q17 -1 39 -1.5t45 -1t44.5 -0.5h37.5t54.5 0.5
t81 1t80.5 1t53 0.5q8 0 10.5 -1.5t2.5 -10.5t-4.5 -16.5t-23.5 -30.5q-103 -130 -198 -259.5t-195 -273.5z" />
    <glyph glyph-name="bracketleft" unicode="[" horiz-adv-x="333" 
d="M96 187q0 98 -0.5 199.5t-1.5 199.5q0 6 -0.5 22t-1 33.5t-1 33t-0.5 21.5q0 9 2 11t7 2q2 0 10 -0.5t17.5 -1.5t18 -1.5t11.5 -0.5q18 -1 37 -1.5t39 -0.5q5 0 16 0.5t23 0.5t23 0.5t15 0.5q5 0 6 -2t1 -13q0 -13 -1.5 -15t-10.5 -2q-6 0 -23 -1t-36 -1.5t-34.5 -1.5
t-18.5 -3q-5 -2 -6 -13l-2 -22q0 -27 -0.5 -68t-0.5 -85.5v-87v-72.5v-56v-94t0.5 -111.5t1 -108.5t1 -84.5t1.5 -40.5q2 -7 7.5 -10.5t37.5 -4.5q5 0 18 -0.5t26.5 -1.5t24.5 -1.5t12 -0.5q2 0 2.5 -2.5t0.5 -13.5q0 -12 -3 -14t-8 -2t-18 0.5t-27 1t-26 1t-17 0.5
q-7 0 -24 -1t-36 -1.5t-36 -1.5t-23 -1q-5 0 -6 2t-1 11q0 12 0.5 42t1 63.5t1 63t0.5 40.5z" />
    <glyph glyph-name="backslash" unicode="\" horiz-adv-x="407" 
d="M80 708q12 -42 39 -121.5t60.5 -175.5t70.5 -199t70.5 -193t58.5 -158t36 -94l-68 1q-5 20 -9.5 35t-11 35.5t-17 50t-27.5 79.5q-24 68 -40.5 115.5t-33 94t-35.5 100.5t-48 134q-26 73 -43 118.5t-29 76.5t-20.5 53.5t-19.5 47.5h67z" />
    <glyph glyph-name="bracketright" unicode="]" horiz-adv-x="333" 
d="M238 -8q0 -11 0.5 -40.5t1 -63t1 -63.5t0.5 -42q0 -9 -1 -11t-6 -2q-6 0 -23 1t-36 1.5t-36 1.5t-24 1q-4 0 -16.5 -0.5t-26.5 -1t-27 -1t-18 -0.5t-8 2t-3 14q0 11 0.5 13.5t2.5 2.5q1 0 12 0.5t24.5 1.5t26.5 1.5t18 0.5q32 1 38 4.5t7 10.5q1 6 1.5 40.5t1 84.5
t1 108.5t0.5 111.5v94v56v72.5v87t-0.5 85.5t-0.5 68l-2 22t-6 13q-3 2 -18.5 3t-34.5 1.5t-36 1.5t-23 1q-9 0 -10.5 2t-1.5 15q0 11 1 13t6 2q4 0 15 -0.5t23 -0.5t23.5 -0.5t15.5 -0.5q20 0 39 0.5t37 1.5q3 0 11.5 0.5t18 1.5t17.5 1.5t10 0.5q5 0 7 -2t2 -11
q0 -6 -0.5 -21.5t-1 -33t-1 -33.5t-0.5 -22q-1 -98 -1.5 -199.5t-0.5 -199.5z" />
    <glyph glyph-name="asciicircum" unicode="^" horiz-adv-x="444" 
d="M453 268l-171 267l-180 -267h-128l269 398h7l252 -398h-49z" />
    <glyph glyph-name="underscore" unicode="_" horiz-adv-x="500" 
d="M500 -75v-50h-500v50h500z" />
    <glyph glyph-name="grave" unicode="`" horiz-adv-x="500" 
d="M314 495q0 -3 -6 -4t-8 -1q-11 0 -18 4t-27 18l-129 91q-20 14 -20 26q0 5 3.5 9t17.5 8q18 4 34 6.5t21 2.5t8 -1t7.5 -5t11 -12t16.5 -22z" />
    <glyph glyph-name="a" unicode="a" horiz-adv-x="481" 
d="M484 78l-1 -22q0 -11 -1.5 -14.5t-9.5 -8.5q-43 -23 -79.5 -33.5t-56.5 -10.5q-17 0 -27 5.5t-16 13t-8 15t-3 11.5q-11 -5 -28.5 -12.5t-38.5 -14.5t-44.5 -12t-46.5 -5q-30 0 -48 10t-28 25t-13.5 33t-3.5 33q0 24 4.5 39.5t14.5 25.5t24.5 16.5t35.5 13.5
q33 11 78 19.5t95 13.5v52.5t-0.5 33.5t-2.5 20t-5 13q-8 20 -27 25.5t-37 5.5q-8 0 -24 -1.5t-33 -7.5q-8 -3 -9.5 -6.5t-1.5 -7.5q0 -2 1 -11t1 -12q0 -13 -16 -18q-4 -1 -13 -3.5t-19 -4.5t-19.5 -3.5t-15.5 -1.5t-10.5 3.5t-4.5 10.5q0 13 15.5 34.5t44 41.5t69 35
t89.5 15q22 0 38 -4.5t27 -10.5t18 -12.5t11 -10.5q14 -17 17.5 -37.5t3.5 -37.5q0 -12 -1 -42.5t-1.5 -63.5t-1.5 -62.5t-1 -40.5q0 -27 7 -40t27 -13q16 0 36 7.5t34 15.5zM132 117q0 -41 14.5 -54.5t43.5 -13.5q10 0 24 2t27.5 5.5t24 9.5t12.5 14q1 4 1.5 13.5t1 21
t0.5 23v17.5q0 30 -27 30q-19 0 -38.5 -5.5t-34.5 -11.5q-18 -7 -28 -13.5t-14.5 -12.5t-5.5 -12t-1 -13z" />
    <glyph glyph-name="b" unicode="b" horiz-adv-x="556" 
d="M514 242q0 -45 -16 -90t-51 -81t-90 -58.5t-133 -22.5q-24 0 -49.5 2t-47 5t-36 5.5t-17.5 2.5q-6 3 -6 8q0 9 2 21.5t2 20.5q5 84 6.5 166t1.5 166v70v49t-0.5 34t-0.5 25q-2 37 -11 53.5t-38 18.5q-14 2 -17 3.5t-3 11.5q0 9 3.5 11.5t18.5 6.5q10 3 32 9t46 12.5
t44.5 11t26.5 4.5q10 0 10 -8q-2 -10 -2.5 -19.5t-2.5 -19.5q-3 -30 -5 -71.5t-3 -81.5t-2 -72.5t-1 -44.5q27 12 68.5 27t95.5 15q36 0 67.5 -12t55.5 -36t38 -59.5t14 -82.5zM174 357q0 -23 -0.5 -55t-0.5 -65t0.5 -62.5t1.5 -46.5q1 -12 3.5 -27.5t12 -29t29 -23
t54.5 -9.5q40 0 67 14.5t43 37.5t22.5 52t6.5 58q0 28 -6.5 59.5t-23 57.5t-44 43.5t-69.5 17.5q-29 0 -52.5 -7t-43.5 -15z" />
    <glyph glyph-name="c" unicode="c" horiz-adv-x="444" 
d="M395 96l8 -19q2 -5 3 -5.5t1 -2.5q0 -4 -15 -17t-40 -27t-58 -25t-70 -11q-48 0 -82.5 16.5t-57 44t-33 62.5t-10.5 71q0 50 18.5 95.5t52 79.5t79.5 54t100 20q24 0 45.5 -4t38 -11t26 -17.5t9.5 -23.5q0 -9 -6 -18t-14.5 -16t-17.5 -11.5t-15 -4.5q-5 0 -9.5 2t-14.5 9
q-26 20 -53.5 25.5t-45.5 5.5q-33 0 -51.5 -17t-27 -40t-10.5 -46t-2 -35q0 -21 5 -50.5t19 -56.5t40 -46.5t69 -19.5q4 0 15.5 0.5t27 4.5t33.5 11.5t36 22.5h7z" />
    <glyph glyph-name="d" unicode="d" horiz-adv-x="574" 
d="M571 31q0 -11 -2.5 -14t-16.5 -8q-12 -4 -32.5 -10t-43 -12t-42.5 -10t-29 -4q-6 0 -12 2.5t-9 9.5q-3 6 -3.5 16.5t-2.5 36.5q-29 -14 -71 -31t-89 -17q-37 0 -69.5 14.5t-56.5 40t-37.5 62t-13.5 79.5q0 52 19.5 96.5t54 77t82 51t103.5 18.5q27 0 46.5 -3.5t36.5 -7.5
q1 71 -0.5 110.5t-6 59t-12.5 24.5t-21 5q-16 1 -19.5 2.5t-3.5 11.5t3 13t16 9q12 6 28.5 13t33.5 14.5t32.5 14.5t26.5 11q8 3 11 3.5t5 0.5q9 0 10.5 -3t1.5 -5t-1 -9t-1.5 -15.5t-1.5 -16.5t-1 -11q-3 -41 -5 -98.5t-3 -118t-1 -119v-101.5v-26t0.5 -43.5t1.5 -45.5
t2 -32q2 -15 8.5 -23t21.5 -8q11 0 21.5 2t14.5 3q13 5 17 5.5t10 0.5v-15zM378 71v14t0.5 14t0.5 20v32q0 8 0.5 32t0.5 50.5v48t-1 25.5q-2 21 -14.5 35t-29.5 22t-36 11.5t-34 3.5q-59 0 -91 -36.5t-32 -107.5q0 -55 15.5 -91t38 -57t48 -29t46.5 -8q48 0 88 21z" />
    <glyph glyph-name="e" unicode="e" horiz-adv-x="444" 
d="M403 94l4 -15q2 -6 2 -7v-3q0 -4 -15 -17.5t-41 -27t-61 -24.5t-74 -11q-54 0 -88.5 20t-54 50t-27 65t-7.5 65q0 58 18.5 103.5t48 76.5t67 47t75.5 16q30 0 55.5 -9t45 -24t32.5 -34.5t18 -40.5q4 -16 5.5 -19.5t6.5 -5.5t6 -6.5t1 -16.5t-4 -15t-23 -6
q-36 -6 -66.5 -11t-59.5 -10t-59 -11t-66 -13q1 -12 5.5 -38t18.5 -52.5t40.5 -46t71.5 -19.5q4 0 15.5 0.5t28 4.5t36 12t39.5 23h6zM140 244q38 7 65.5 13t64.5 16q24 6 29.5 12.5t5.5 14.5q0 13 -6 29t-16.5 29.5t-26 22.5t-33.5 9q-15 0 -30 -8t-26.5 -25t-19 -45
t-7.5 -68z" />
    <glyph glyph-name="f" unicode="f" horiz-adv-x="352" 
d="M196 366v-73.5v-74.5t0.5 -67.5t1.5 -53.5q0 -22 5 -35t15 -20t26.5 -9t40.5 -2q12 0 14 -2.5t2 -12.5q0 -12 -4 -15t-20 -3q-6 0 -22.5 0.5t-37.5 0.5t-44 0.5t-42 0.5q-13 0 -28 -0.5t-28 -0.5t-23 -0.5t-13 -0.5q-8 0 -8 14q0 11 1 13.5t8 3.5q18 3 28.5 6t16.5 11
t8.5 23t3.5 40q1 23 1.5 56t0.5 68.5v70.5v62h-52q-5 0 -6.5 1.5t-1.5 9.5q0 11 0.5 13.5t4.5 4.5l56 24q1 30 2.5 55t6.5 47t16 43t31 45q41 48 94 73t107 25q53 0 86 -20t33 -46q0 -10 -8 -19t-18.5 -16t-20.5 -11t-13 -4q-6 0 -11 4t-14 12q-8 8 -26.5 19.5t-60.5 11.5
q-39 0 -60.5 -12.5t-32 -39t-13 -67.5t-2.5 -98q8 0 28 0.5t42 0.5h41.5h26.5q8 -1 9.5 -5t1.5 -22t-1.5 -23.5t-12.5 -5.5h-135z" />
    <glyph glyph-name="g" unicode="g" 
d="M174 -32q-25 4 -40.5 12.5t-24 18.5t-11.5 20t-3 18q0 13 1.5 20.5t10.5 14t28.5 14.5t55.5 22q-17 4 -37 9.5t-40 20.5q-22 15 -40 44t-18 74q0 40 16 72.5t44 55.5t64.5 35.5t77.5 12.5q19 0 42.5 -3.5t51.5 -15.5q30 4 60.5 6t60.5 2q26 0 30.5 -3.5t4.5 -25.5
t-2.5 -27.5t-16.5 -5.5h-44.5t-35.5 -1q8 -10 18 -28t10 -53q0 -52 -40.5 -98.5t-134.5 -74.5q-10 -3 -22.5 -6.5t-24.5 -7.5t-21 -6.5t-11 -4.5q-6 -3 -6 -12q0 -24 35 -29.5t103 -9.5q26 -1 58 -4.5t60 -14t47 -32t19 -58.5q0 -39 -25.5 -73t-67 -59.5t-94.5 -40.5
t-109 -15q-20 0 -45.5 3t-49.5 10.5t-43 19t-25 28.5q-2 5 -4 15t-2 39q0 25 3.5 38t24.5 27q30 20 61 34t51 23zM278 144q8 4 20 10.5t23 18.5t18.5 29.5t7.5 43.5q0 28 -8.5 54t-24.5 46.5t-38 33t-49 12.5q-13 0 -27.5 -4.5t-26 -16t-19 -30t-7.5 -45.5q0 -35 13 -64
t35 -49q22 -21 44 -28t39 -11zM220 -42q-54 -23 -79.5 -45.5t-25.5 -52.5q0 -23 14 -37t34 -22.5t43.5 -11.5t42.5 -3q38 0 69 8t53.5 21.5t35 32.5t12.5 41q0 18 -8 28.5t-19.5 16.5t-24 8.5t-21.5 4.5q-7 1 -24.5 2.5t-37.5 3t-38 3t-26 2.5z" />
    <glyph glyph-name="h" unicode="h" horiz-adv-x="593" 
d="M100 377v49t-0.5 66.5t-1 64.5t-2.5 42q-4 26 -17 31.5t-36 7.5q-7 0 -9 1.5t-2 9.5q0 11 3 13.5t15 7.5q16 5 37.5 12t42 13t36.5 10t21 4q14 0 16 -3t2 -6q0 -2 -1 -14.5t-2 -28t-2.5 -29.5t-1.5 -20q-1 -22 -1.5 -51t-1 -60.5t-0.5 -63.5v-62q52 25 97.5 42t90.5 17
q26 0 46.5 -8.5t35 -22t23 -30.5t11.5 -34q2 -9 2.5 -18.5t1 -26.5t0.5 -46v-77v-71q0 -22 2.5 -34.5t8.5 -18.5t15.5 -8t23.5 -4q12 -1 15 -3t3 -13q0 -10 -3 -13t-14 -3q-23 0 -56 1t-56 1q-6 0 -19 -0.5t-27.5 -0.5t-27.5 -0.5t-18 -0.5q-8 0 -10 3t-2 12q0 11 3 13.5
t17 4.5q20 4 28.5 12t12.5 25q2 8 3.5 27t2 40.5t1 42t0.5 30.5q0 29 -1.5 57t-11 50t-29.5 35t-58 13q-31 0 -61 -9t-50 -17q0 -78 0.5 -127.5t1.5 -79.5t2 -45t2 -23q4 -18 15 -24t35 -8q11 0 13.5 -3t2.5 -13q0 -11 -3 -13.5t-12 -2.5q-7 0 -23.5 0.5t-34.5 0.5t-34 0.5
t-22 0.5t-20 -0.5t-29 -0.5t-28.5 -0.5t-18.5 -0.5q-8 0 -10.5 3t-2.5 10q0 13 3 15.5t16 4.5q31 5 38.5 28t9.5 55q1 21 1.5 41t1 48t1 69t0.5 104z" />
    <glyph glyph-name="i" unicode="i" horiz-adv-x="296" 
d="M101 232q0 38 -1 60t-5.5 34.5t-15 17.5t-29.5 8q-9 2 -12 3.5t-3 11.5t2.5 12t13.5 7q28 12 56 23.5t57 22.5q18 7 30 7q10 0 10 -10q-2 -17 -2.5 -35t-2.5 -35q0 -8 -0.5 -18t-1 -25.5t-0.5 -39.5v-60v-34t0.5 -47.5t1.5 -45.5t3 -29q5 -20 20 -23.5t42 -5.5
q11 -1 14 -3.5t3 -11.5q0 -12 -2.5 -14.5t-10.5 -2.5q-12 0 -41 1t-71 1q-49 0 -77 -1t-45 -1q-10 0 -10 14q0 11 2.5 13.5t15.5 4.5q22 3 34 10t17.5 27.5t6.5 59t1 104.5zM100 614q0 12 6 23t15 19t19.5 13t19.5 5t19.5 -5t18.5 -13t13.5 -18t5.5 -21q0 -22 -19 -40.5
t-41 -18.5q-20 0 -38.5 17.5t-18.5 38.5z" />
    <glyph glyph-name="j" unicode="j" horiz-adv-x="278" 
d="M202 -13q0 -19 -2 -46.5t-11 -58t-27.5 -61t-51.5 -54.5q-6 -4 -15.5 -10.5t-22.5 -12.5t-27 -10t-29 -4q-19 0 -38.5 8t-19.5 31q0 17 16 32t32 15q9 0 16 -3.5t13.5 -7t13.5 -7t15 -3.5q24 0 30.5 22.5t8.5 51.5q1 18 1.5 51.5t1 69.5t0.5 69v52v44t-0.5 62t-1.5 59.5
t-3 35.5q-5 17 -16.5 20.5t-39.5 5.5q-7 0 -9 2t-2 11t3 12t17 9q22 11 52.5 26.5t53.5 26.5q10 5 21.5 10t17.5 5q8 0 9 -3t1 -6q0 -6 -0.5 -21t-1.5 -32t-1.5 -31.5t-0.5 -20.5q0 -13 -0.5 -40t-1 -60.5t-0.5 -70.5v-70t-0.5 -59.5t-0.5 -38.5zM109 619q0 10 5.5 20.5
t13.5 18.5t18.5 13.5t20.5 5.5q20 0 39 -17.5t19 -39.5t-18.5 -40.5t-39.5 -18.5q-23 0 -40.5 18.5t-17.5 39.5z" />
    <glyph glyph-name="k" unicode="k" horiz-adv-x="556" 
d="M195 195v-30.5t0.5 -40.5t1.5 -38.5t2 -25.5q4 -19 15.5 -23.5t34.5 -7.5q9 -1 11.5 -4.5t2.5 -10.5q0 -9 -3.5 -12t-11.5 -3q-7 0 -23 0.5t-33.5 0.5t-33 0.5t-21.5 0.5t-19.5 -0.5t-29 -0.5t-29 -0.5t-18.5 -0.5q-11 0 -12.5 5t-1.5 13q0 5 3.5 9t18.5 6
q31 6 38.5 24.5t8.5 62.5q1 20 2 51t1.5 65.5t0.5 68.5v60v54t-0.5 78.5t-2 74.5t-3.5 41q-5 17 -18.5 20.5t-30.5 4.5q-6 0 -8.5 2.5t-2.5 10.5q0 12 6.5 16t33.5 12q49 15 76 23t41 8q4 0 9.5 -1t5.5 -7l-7 -76q-1 -16 -1.5 -54t-1 -91.5t-1 -118t-0.5 -134.5
q19 15 39 31.5t37.5 31t30 25.5t15.5 14q23 21 32 30t9 17q0 11 -10.5 12.5t-30.5 3.5q-14 1 -16 2.5t-2 10.5q0 11 4 14.5t14 3.5q13 0 28 -1t55 -1q42 0 69.5 1t41.5 1q10 0 10 -13q0 -9 -2.5 -11.5t-10.5 -4.5q-22 -6 -38.5 -14t-37.5 -22q-7 -4 -25.5 -17t-39.5 -27
t-40 -27.5t-27 -19.5q0 -1 20.5 -23.5t49 -54t59.5 -65.5t54 -58q21 -22 32 -28.5t25 -9.5q8 -1 8 -15t-13 -14q-6 0 -29 1t-61 1q-10 0 -23 -0.5t-25.5 -0.5t-24 -0.5t-17.5 -0.5q-11 0 -14.5 1.5t-3.5 11.5q0 11 2 13.5t13 3.5q6 1 14.5 2.5t8.5 7.5q0 2 -0.5 4t-4.5 6.5
t-12 13t-22 23.5q-20 22 -47.5 52t-67.5 76z" />
    <glyph glyph-name="l" unicode="l" horiz-adv-x="296" 
d="M100 378v93t-1 66t-2 43.5t-4 25.5q-5 18 -16.5 22t-40.5 8q-6 1 -8 2.5t-2 9.5q0 10 3 12.5t17 6.5q61 20 97 30.5t53 10.5q10 0 10 -11q0 -8 -1.5 -19t-2.5 -19q-3 -38 -4 -74t-1 -89v-22.5t-0.5 -39.5t-0.5 -50.5v-54.5q0 -98 0.5 -152t2 -81t3.5 -34.5t5 -11.5
q7 -12 23 -15t46 -6q8 0 10 -2.5t2 -10.5q0 -12 -3 -14.5t-12 -2.5q-22 0 -54.5 0.5t-73.5 0.5q-35 0 -65.5 -0.5t-45.5 -0.5q-7 0 -9.5 3t-2.5 13t3 11.5t15 3.5q31 5 42 19t13 46q3 51 4 119t1 164z" />
    <glyph glyph-name="m" unicode="m" horiz-adv-x="870" 
d="M656 430q26 0 50.5 -9.5t41.5 -27.5q10 -11 16.5 -22.5t10 -27.5t5 -36.5t1.5 -49.5v-180q1 -27 11.5 -36t47.5 -10q11 0 13.5 -2.5t2.5 -12.5q0 -11 -2 -14t-12 -3q-17 0 -41.5 1t-59.5 1t-63.5 -1t-45.5 -1q-8 0 -10.5 2t-2.5 13q0 9 2.5 11t16.5 6t23 9.5t14 20t7 42
t2 76.5q0 40 -1.5 73.5t-10.5 57.5t-29 37.5t-56 13.5q-15 0 -38.5 -4.5t-51.5 -20.5q-7 -3 -7.5 -13t-0.5 -27q0 -35 -0.5 -64t0.5 -52q0 -51 1 -80t4.5 -43.5t11 -18.5t20.5 -6q8 -1 14.5 -1.5t12.5 -1.5q8 -1 8 -14q0 -12 -3 -14t-9 -2t-21.5 0.5t-32 0.5t-31 0.5
t-20.5 0.5t-21.5 -0.5t-32.5 -0.5t-32 -0.5t-21 -0.5q-5 0 -7.5 2.5t-2.5 12.5q0 11 2.5 13.5t13.5 4.5q14 2 25.5 7t16.5 22q3 10 4 25.5t2 32.5t1 33.5v27.5q0 42 -1.5 75.5t-9 56.5t-24.5 35t-49 12q-16 0 -35 -4.5t-35 -11t-27 -13t-12 -10.5q0 -1 -0.5 -14t-1 -32.5
t-0.5 -44v-49.5q0 -48 1 -76.5t4 -43.5t8.5 -20t13.5 -6q11 -1 19.5 -1.5t16.5 -2.5q6 -2 7.5 -4.5t1.5 -10.5q0 -11 -2.5 -13.5t-14.5 -2.5q-6 0 -20 0.5t-29.5 0.5t-29.5 0.5t-19 0.5q-6 0 -22 -0.5t-33 -0.5t-32.5 -0.5t-21.5 -0.5q-7 0 -8.5 3t-1.5 11q0 12 2.5 14.5
t15.5 4.5q10 2 18.5 5.5t15 11t10 20.5t3.5 34v161q0 27 -1.5 42.5t-6.5 24t-13.5 11t-22.5 2.5q-15 0 -18 1.5t-3 11.5t2 13t13 8q11 6 19 10t19.5 9.5t28 13t43.5 20.5q10 5 15 6t13 1q15 0 15 -9q0 -3 -1 -13t-1.5 -21.5t-1.5 -22t-1 -14.5q48 29 89.5 50.5t86.5 21.5
q35 0 63.5 -16.5t40.5 -50.5q11 7 31 18t44 22t51 19t52 8z" />
    <glyph glyph-name="n" unicode="n" horiz-adv-x="593" 
d="M388 430q43 0 66.5 -17.5t34 -43.5t12.5 -55t2 -53q0 -58 -0.5 -102t0.5 -61q1 -24 5 -37.5t11.5 -20t18 -8.5t24.5 -2t17.5 -2t3.5 -13q0 -10 -2.5 -13t-12.5 -3q-15 0 -42 1t-64 1q-12 0 -29 -0.5t-33.5 -0.5t-30.5 -0.5t-21 -0.5q-8 0 -8 12q0 11 2 13.5t13 4.5
q16 3 27 8.5t16 22.5q3 11 4 31t2 43t1 45v35q0 33 -3 67.5t-22 54.5q-14 14 -32 19t-34 5q-18 0 -38 -3.5t-37 -8.5t-28 -10t-13 -8q-1 -2 -2 -16.5t-1.5 -36t-0.5 -47.5v-52v-27.5t0.5 -36t2 -34.5t3.5 -23q5 -17 19 -20.5t42 -6.5q8 -1 9.5 -3.5t1.5 -10.5
q0 -12 -3 -14.5t-8 -2.5q-6 0 -20 0.5t-31.5 0.5t-36.5 0.5t-35 0.5q-44 0 -63.5 -1t-33.5 -1q-8 0 -9.5 3.5t-1.5 10.5q0 11 2.5 13.5t15.5 4.5q20 3 32.5 14.5t15.5 37.5q1 8 1.5 23.5t1 35.5t1 42.5t0.5 44.5q0 41 -1 64.5t-5.5 35.5t-15 15t-29.5 4q-13 0 -15 1.5
t-2 12.5q0 9 2.5 12t15.5 8q3 2 21.5 9.5t39.5 16.5t40 17t24 9q5 2 10 2h7q9 0 9 -7q0 -6 -1 -15.5t-1.5 -19t-1.5 -18t-1 -12.5q66 32 112 49t80 17z" />
    <glyph glyph-name="o" unicode="o" horiz-adv-x="556" 
d="M41 208q0 53 20 94.5t54 70t80 44t98 15.5q56 0 97 -18.5t69 -49t41.5 -69t13.5 -77.5q0 -53 -20.5 -95.5t-55 -72t-80.5 -45.5t-96 -16q-45 0 -85 14t-70 41.5t-48 68.5t-18 95zM148 244q0 -52 12.5 -92t33.5 -66.5t47 -40t53 -13.5q47 0 80 36.5t33 111.5q0 44 -11 82
t-30.5 66.5t-46.5 44.5t-58 16q-22 0 -42.5 -9t-36.5 -27.5t-25 -45.5t-9 -63z" />
    <glyph glyph-name="p" unicode="p" horiz-adv-x="574" 
d="M533 230q0 -54 -21 -98t-56.5 -75t-82 -47.5t-97.5 -16.5q-27 0 -47.5 3.5t-36.5 7.5v-121q0 -39 2 -62.5t9 -36t19.5 -16.5t33.5 -4q17 0 20 -3.5t3 -14.5t-2.5 -13.5t-11.5 -2.5q-20 0 -46.5 1t-56.5 1q-15 0 -33 -0.5t-35.5 -0.5t-32 -0.5t-22.5 -0.5t-10 3.5t-2 11.5
q0 10 2 12t16 4q16 3 25 8.5t13.5 12t6 13.5t2.5 12q2 10 3 35t1.5 58t1 70.5t0.5 73v64.5v45q0 139 -3 155q-5 23 -16.5 27t-37.5 5q-8 1 -10 2t-2 9q0 10 2.5 13t13.5 10q6 3 22 11.5t33 18.5t32 18.5t21 11.5l14 7t19 5q14 0 14 -7q0 -3 -0.5 -10t-1.5 -15t-1.5 -14.5
t-0.5 -9.5q45 19 83 30.5t76 11.5q37 0 69.5 -15t56.5 -42t38 -64t14 -81zM191 84q14 -8 44 -19.5t81 -11.5q23 0 43.5 5.5t37.5 21.5q25 24 32 55.5t7 55.5q0 29 -8.5 61t-27 58.5t-47.5 44t-71 17.5q-32 0 -54.5 -6t-33.5 -10q-2 -60 -2.5 -131.5t-0.5 -140.5z" />
    <glyph glyph-name="q" unicode="q" horiz-adv-x="556" 
d="M41 186q0 56 21.5 101.5t57.5 77.5t83.5 49.5t99.5 17.5q44 0 76 -8.5t49 -14.5q3 2 14.5 8.5t14.5 8.5q8 4 14 4q10 0 12 -2t2 -5q0 -11 -1 -24.5l-3 -40.5q-1 -15 -1.5 -49t-1 -69.5t-0.5 -64v-33.5v-37.5v-61t0.5 -72t1 -70t1 -57t1.5 -31.5q3 -29 13.5 -37t35.5 -13
q6 -1 8 -3.5t2 -12.5q0 -9 -3 -13t-14 -4q-17 0 -42 1.5t-52 1.5q-32 0 -60.5 -1.5t-57.5 -1.5q-8 0 -10 2t-2 12q0 11 3 13t16 4q34 6 46 19.5t14 47.5q0 10 1 42.5t1.5 68.5t1.5 66t1 34q-49 -26 -86 -37.5t-74 -11.5q-46 0 -80 16t-57 43t-34.5 62.5t-11.5 74.5zM384 74
q0 10 0.5 27.5t1 38.5t0.5 44v42q0 26 -1.5 53.5t-12 50.5t-33 38t-64.5 15q-63 0 -96 -43t-33 -116q0 -37 9.5 -69.5t28 -55.5t46 -36.5t64.5 -13.5q31 0 52 8.5t38 16.5z" />
    <glyph glyph-name="r" unicode="r" horiz-adv-x="389" 
d="M196 346q22 16 45.5 32.5t46.5 30.5q14 8 28.5 16.5t25.5 8.5q10 0 19.5 -6.5t16.5 -16t11.5 -20t4.5 -18.5q0 -13 -7.5 -26t-17 -23t-18.5 -16t-12 -6q-2 0 -5 2t-9 12q-9 14 -18.5 22.5t-26.5 8.5q-14 0 -28.5 -5t-26 -11.5t-19 -12.5t-8.5 -8q-1 -3 -2 -14t-1.5 -24
t-0.5 -25v-17q0 -72 1.5 -111t7.5 -57.5t19.5 -22.5t37.5 -6q5 -1 11.5 -1.5t13.5 -0.5t8.5 -3.5t1.5 -11.5q0 -11 -3 -14t-11 -3q-22 0 -56 1t-69 1q-26 0 -56.5 -1t-46.5 -1q-9 0 -12 1.5t-3 12.5t2.5 13.5t14.5 5.5q21 5 29 15t11 34q2 12 3.5 39t1.5 88v38.5t-1 37
t-3 30.5t-6 19q-5 8 -19.5 11t-22.5 3q-4 0 -5.5 2t-1.5 13q0 8 3 10.5t17 9.5q6 3 17 8t24 11.5t25 13t19 10.5q20 12 26.5 15t15.5 3q10 0 11.5 -2.5t1.5 -7.5q0 -3 -1 -15t-1.5 -26t-1.5 -27.5t-1 -18.5z" />
    <glyph glyph-name="s" unicode="s" horiz-adv-x="407" 
d="M371 116q0 -32 -14 -56t-38.5 -39.5t-57 -23.5t-70.5 -8q-20 0 -38.5 2t-34.5 4t-28 4t-18 2q-5 0 -8.5 -0.5t-8.5 -0.5q-3 0 -4 2t-2 8.5t-1 20.5v38q0 18 -2 32t-2 24q0 8 8 10t15 2q5 0 7 -3.5t6 -14.5q10 -34 28 -52.5t36.5 -27.5t35 -10.5t23.5 -1.5q25 0 39.5 7.5
t22 18t9.5 21t2 16.5q0 29 -25.5 48t-84.5 47q-17 8 -36.5 18.5t-35.5 24.5t-26.5 33.5t-10.5 46.5q0 17 7 38.5t26 40.5t52 32t84 13q13 0 28 -1t28 -2.5t22 -3t11 -1.5t7 1t9 1q5 0 6 -3.5t3 -17.5q1 -5 2 -17t2.5 -25.5t2.5 -25.5t1 -18t-3.5 -9t-20.5 -3q-4 0 -6 2
t-7 11q-16 35 -39.5 54.5t-61.5 19.5q-22 0 -35 -7t-20 -16t-9 -18.5t-2 -15.5q0 -24 19.5 -41.5t70.5 -40.5q25 -11 49.5 -23.5t44 -28t31.5 -37t12 -50.5z" />
    <glyph glyph-name="t" unicode="t" horiz-adv-x="352" 
d="M346 74v-19q0 -10 -2 -13t-16 -10q-7 -4 -22.5 -11t-35 -14t-42 -12t-45.5 -5q-38 0 -58.5 14t-30 33.5t-11 40.5t-1.5 34q0 5 0.5 23.5t1 44.5t1 55.5t1.5 56.5t1.5 47.5t0.5 27.5h-48q-2 1 -3 3.5t-1 10.5q0 7 2 9.5t12 10.5q27 20 53 41.5t46 44.5q12 14 16.5 17
t13.5 3q12 0 12 -8l-1 -10.5t-1.5 -24t-1.5 -26t-1 -17.5h31h52.5h50h25.5q5 0 5.5 -4t0.5 -21v-15t-2 -13t-7.5 -2h-9.5h-148q0 -1 -0.5 -14.5t-1 -30t-1 -32t-0.5 -19.5q0 -15 -0.5 -26t-0.5 -22v-24.5v-34.5q0 -22 1 -42t8.5 -35t23 -23.5t44.5 -8.5q28 0 47 7t32 13h10z
" />
    <glyph glyph-name="u" unicode="u" horiz-adv-x="593" 
d="M396 51q-46 -23 -93 -42t-92 -19q-25 0 -51.5 10.5t-44.5 32.5q-17 20 -21.5 42t-4.5 57q0 11 0.5 37t0.5 55.5v55v35.5q-1 19 -4.5 29.5t-9.5 15.5t-15 6t-21 1q-8 1 -10 2.5t-2 12.5q0 10 3 12t16 6q1 0 20.5 5.5t43.5 11.5t46 11t28 5q7 0 8 -3.5t1 -7.5
q0 -8 -1 -26.5t-3 -34.5q-1 -13 -1.5 -30t-1 -35t-0.5 -36v-33q0 -33 1.5 -64.5t10 -55.5t27.5 -39t54 -15q20 0 39 3.5t35 8.5t27 10t13 8t3.5 29.5t2 61t0.5 70v55.5q0 24 -1 40t-6 26t-16 14t-32 4q-17 0 -22.5 2.5t-5.5 10.5q0 13 3.5 15t20.5 3q2 0 12.5 1t26 2.5
t32.5 3.5t31 4q3 0 10 1.5t14.5 2.5t14.5 2t10 1q10 0 10 -11q0 -5 -0.5 -17t-1.5 -25t-1.5 -24.5t-0.5 -16.5q0 -12 -1 -39t-2 -58.5t-1.5 -62t-0.5 -48.5q0 -39 4 -56.5t27 -17.5q13 0 31 3q2 0 10.5 1.5t10.5 1.5q4 0 5.5 -2.5t1.5 -17.5q0 -6 -4 -8t-28 -9
q-13 -4 -34.5 -10t-43 -11t-40 -9t-25.5 -4q-11 0 -13 6.5t-2 11.5t1.5 21t1.5 21z" />
    <glyph glyph-name="v" unicode="v" horiz-adv-x="463" 
d="M255 98q36 80 57.5 128t33 76t15.5 40.5t4 20.5q0 17 -13 21.5t-34 6.5q-8 1 -10.5 3t-2.5 10q0 11 1.5 14.5t9.5 3.5q3 0 13.5 -0.5t24 -0.5t28.5 -0.5t27 -0.5q26 0 37.5 1t17.5 1q7 0 8 -5t1 -9q0 -8 -2 -11.5t-13 -9.5q-4 -2 -12 -10.5t-28 -42t-55.5 -102.5
t-95.5 -192q-11 -21 -14.5 -30.5t-6.5 -9.5l-9 -1l-36 -6q-3 -1 -5 1.5t-5 11.5q-2 8 -13 35t-27 64.5t-34 80.5t-35 81t-31 67t-21 38q-5 8 -10.5 11.5t-16.5 9.5q-2 2 -3.5 4.5t-1.5 11.5q0 8 3 10.5t8 2.5q8 0 15 -0.5t17 -0.5t24 -0.5t36 -0.5q34 0 59.5 1t39.5 1
q9 0 9 -17q0 -9 -2.5 -11.5t-10.5 -3.5q-23 -3 -32.5 -6.5t-9.5 -19.5q0 -9 4 -23.5t10 -31t12.5 -32t10.5 -25.5z" />
    <glyph glyph-name="w" unicode="w" horiz-adv-x="704" 
d="M258 102q10 20 22 44.5t24 50t23.5 50t20.5 43.5q-10 26 -16.5 42t-11 26t-8 15.5t-6.5 8.5q-6 6 -12 7.5t-17 3.5q-7 1 -7 14q0 10 3 12.5t11 2.5q6 0 20 -0.5t30 -0.5t30 -0.5t19 -0.5q6 0 19 0.5t28 0.5t28 0.5t18 0.5q8 0 10.5 -2.5t2.5 -13.5q0 -9 -2.5 -11.5
t-13.5 -3.5q-19 -1 -32.5 -4.5t-13.5 -21.5q0 -6 10 -40.5t23.5 -77t27 -83t20.5 -60.5q48 107 76 171.5t28 87.5q0 20 -14 24t-28 5q-12 2 -14.5 3.5t-2.5 12.5t2.5 12.5t10.5 1.5q11 0 32 -1t36 -1q28 0 42.5 1t27.5 1q8 0 12 -2.5t4 -10.5q0 -10 -1.5 -12.5t-6.5 -4.5
q-15 -5 -26.5 -18.5t-31.5 -49.5q-32 -57 -62 -121.5t-58 -127.5q-2 -4 -7 -15t-10 -22.5t-9 -21t-5 -11.5t-8.5 -4t-16 -3.5t-16 -2.5t-10.5 -1q-5 0 -7.5 4.5t-8.5 23.5q-14 49 -32 103.5t-39 115.5q-22 -43 -38.5 -75.5t-29 -58t-22 -47t-18.5 -42.5q-5 -11 -7.5 -14
t-7.5 -4q-2 0 -8 -1t-13 -2t-13 -2t-9 -1q-5 0 -6.5 2.5t-4.5 11.5q-16 48 -33.5 96t-34.5 92.5t-32.5 82.5t-27.5 66q-13 28 -20.5 35t-15.5 11t-10 6t-2 12q0 8 2.5 10.5t10.5 2.5q5 0 18 -0.5t27 -0.5t26.5 -0.5t17.5 -0.5q25 0 50 1t50 1q4 0 5.5 -3t1.5 -12
q0 -11 -3 -13t-15 -3q-27 -1 -31.5 -11.5t-4.5 -16.5q0 -8 5 -25t15.5 -47.5t28 -76.5t42.5 -112z" />
    <glyph glyph-name="x" unicode="x" horiz-adv-x="481" 
d="M264 261q9 9 23.5 25t29 32.5t25 32t10.5 22.5q0 12 -10.5 14.5t-29.5 3.5q-11 0 -11 14q0 9 2 12.5t10 3.5q16 0 36 -1t41 -1q19 0 35.5 1t31.5 1q6 0 9 -1.5t3 -12.5q0 -8 -4.5 -11.5t-12.5 -7.5q-12 -6 -33.5 -24.5t-46.5 -42.5t-48.5 -48t-39.5 -41q12 -17 32 -47
t41.5 -60t40.5 -54.5t28 -30.5q8 -5 16 -6.5t21 -3.5q6 -1 7.5 -4t1.5 -11q0 -11 -3 -13.5t-11 -2.5q-11 0 -33 1t-57 1q-50 0 -75.5 -1t-37.5 -1q-10 0 -10 12t2 14.5t11 2.5q17 2 26.5 3.5t9.5 12.5q0 5 -10 22.5t-23 38t-25.5 39.5t-17.5 26q-23 -26 -36 -40.5t-20 -23
t-10.5 -13t-8.5 -10.5q-2 -3 -10 -14t-8 -21q0 -11 7.5 -13.5t37.5 -5.5q7 -1 8.5 -3.5t1.5 -10.5q0 -11 -2.5 -13.5t-10.5 -2.5q-19 0 -35.5 1t-35.5 1q-17 0 -39 -1t-39 -1q-10 0 -13.5 1.5t-3.5 10.5q0 11 3 14t16 8q14 5 27.5 16.5t29.5 27.5q12 12 29 29.5t34.5 35.5
t32.5 34t24 25q-57 83 -87 125.5t-44 53.5q-6 5 -10.5 7t-21.5 7q-7 2 -7 12q0 11 2.5 13.5t11.5 2.5q24 0 47.5 -1.5t47.5 -1.5q23 0 45.5 1.5t45.5 1.5q7 0 9 -2t2 -13q0 -9 -1.5 -11t-8.5 -3q-18 -3 -25 -5.5t-7 -12.5q0 -7 3.5 -14t8.5 -15q3 -4 9 -14t14.5 -22t17 -25
t15.5 -24z" />
    <glyph glyph-name="y" unicode="y" horiz-adv-x="444" 
d="M245 95q26 55 41.5 88.5t26 55.5t17.5 37.5t15 34.5q5 11 10.5 27.5t5.5 26.5q0 15 -8.5 18.5t-37.5 7.5q-6 1 -8 3.5t-2 10.5q0 11 2 14t9 3q11 0 30 -1t48 -1q21 0 39.5 1t28.5 1q5 0 7.5 -2.5t2.5 -12.5q0 -8 -3 -11t-15 -11q-4 -3 -9 -7t-12 -14t-17.5 -27t-25.5 -44
q-43 -77 -74 -135t-57 -111t-51.5 -108t-58.5 -127q-11 -24 -19.5 -40t-19 -25.5t-24.5 -13.5t-37 -4q-12 0 -24 3.5t-12 20.5t6.5 23t25.5 16q25 13 50 44t45 63.5t32.5 57.5t12.5 26q0 2 -9 28t-23.5 65t-32 85.5t-34.5 88.5t-30.5 73.5t-20.5 42.5q-8 13 -13.5 17
t-19.5 9q-5 2 -5.5 5.5t-0.5 7.5q0 12 2.5 14.5t10.5 2.5q17 0 38 -1t53 -1q6 0 19.5 0.5t29 0.5t29 0.5t18.5 0.5q8 0 10 -2.5t2 -11.5q0 -11 -2 -13.5t-10 -3.5q-17 -2 -29.5 -6t-12.5 -20q0 -12 11.5 -48.5t26.5 -79.5t30 -83t23 -59z" />
    <glyph glyph-name="z" unicode="z" horiz-adv-x="444" 
d="M150 35q59 1 99 3.5t67 10t43.5 22t28.5 41.5q9 20 12 24.5t8 4.5t14.5 -2t9.5 -9q0 -5 -8.5 -38t-28.5 -83q-5 -14 -10 -14q-4 0 -9.5 1.5t-11.5 2.5q-13 2 -31.5 2.5t-62.5 0.5h-32h-38.5t-37.5 -0.5t-30 -0.5q-6 0 -21 -0.5t-31.5 -1t-31 -1t-20.5 -0.5t-8 1.5t-2 9.5
q0 10 1 13.5t8 11.5q47 53 95 114.5t88 114.5t65.5 88.5l25.5 35.5q-47 -2 -93 -3.5t-71 -9.5q-24 -8 -36 -27t-24 -46q-4 -8 -5.5 -10t-5.5 -2q-3 0 -14 2t-11 8q0 7 3 15t5 15q7 30 10 49.5t6 39.5q1 8 2.5 9.5t6.5 1.5q3 0 10 -2.5t13 -3.5q9 -1 24 -2t32.5 -1.5
t35.5 -0.5h33h50t52 1q6 0 19.5 0.5t28.5 0.5t28.5 0.5t18.5 0.5q3 0 5.5 -2t2.5 -10t-1.5 -11t-10.5 -14q-25 -30 -50 -60.5t-55 -69.5t-68.5 -92t-91.5 -128z" />
    <glyph glyph-name="braceleft" unicode="{" horiz-adv-x="333" 
d="M131 107q-2 56 -24.5 82.5t-82.5 30.5q-8 1 -9.5 3t-1.5 12q0 14 3 16t15 3q22 1 42.5 7t34.5 23q9 10 13.5 22t6.5 30t2.5 45.5t0.5 69.5l-1 115q0 44 12 72t35 44t56 22t76 6q7 0 8 -2.5t1 -12.5t-3 -11.5t-14 -2.5q-28 -2 -44 -9t-24 -20.5t-10.5 -33t-2.5 -45.5
v-130.5t-1.5 -71.5t-3.5 -36t-7 -24q-8 -21 -21 -34.5t-27 -21.5t-26.5 -12t-19.5 -6q38 -9 59.5 -26t32 -39t13 -47.5t2.5 -51.5q0 -11 -0.5 -38.5t-0.5 -58v-57.5t1 -37q3 -49 21.5 -66.5t63.5 -20.5q11 -1 12.5 -3t1.5 -13t-2.5 -12.5t-14.5 -1.5q-64 0 -99.5 15
t-51.5 41.5t-19 63t-3 78.5z" />
    <glyph glyph-name="bar" unicode="|" horiz-adv-x="476" 
d="M275 750v-1000h-74v1000h74z" />
    <glyph glyph-name="braceright" unicode="}" horiz-adv-x="333" 
d="M113 573q0 29 -2.5 49t-12 32.5t-27.5 19t-48 7.5q-6 1 -7 3t-1 11q0 10 1 12.5t6 2.5q53 0 87.5 -8t55.5 -26.5t29.5 -48t8.5 -72.5l-1 -169q0 -22 2 -45t11.5 -42t29 -31.5t55.5 -13.5q14 -1 17 -3t3 -14q0 -11 -1.5 -13.5t-9.5 -3.5q-40 -3 -61.5 -15t-31.5 -31.5
t-12 -45t-2 -54.5l1 -147q-1 -30 -5 -59t-20.5 -52t-51 -37t-97.5 -14q-11 0 -13.5 1.5t-2.5 12.5t1.5 13t12.5 3q28 2 45 9t26 22t12 39t3 61l-1 148q0 26 2.5 51t13 47t32 39t59.5 26q-35 9 -56 25t-32.5 38.5t-15 51.5t-3.5 65z" />
    <glyph glyph-name="asciitilde" unicode="~" horiz-adv-x="634" 
d="M510 687q-7 -13 -19 -30.5t-28.5 -32.5t-36.5 -25.5t-44 -10.5q-6 0 -11.5 0.5t-13.5 2.5t-21 6t-34 11q-29 10 -45 14.5t-36 4.5q-27 0 -42 -12t-38 -37l-17 11q8 14 20 31.5t28 32.5t36 25t45 10q17 0 37.5 -5.5t43.5 -13.5q27 -10 43.5 -14t30.5 -4q23 0 44 11t41 36z
" />
    <glyph glyph-name="exclamdown" unicode="&#xa1;" horiz-adv-x="352" 
d="M105 -182q0 10 0.5 18t2.5 21.5t5 35.5t9 58q8 50 14 90t10.5 74.5t7.5 66t5 63.5q0 5 2 6t8 3q10 2 15 2t6 -4t3 -21q2 -39 4 -68.5t4 -54t4 -45.5t5 -44q4 -34 8 -66t7 -58.5t5 -45t2 -26.5q0 -27 -8 -36.5t-24 -12.5q-17 -3 -35 -5.5t-27 -2.5q-12 0 -19 5t-10 12.5
t-3.5 17t-0.5 17.5zM240 367q0 -12 -6 -24t-16 -21.5t-21.5 -15.5t-22.5 -6q-12 0 -23.5 6t-20.5 16t-15 21.5t-6 22.5q0 12 6 24t16 21t21.5 15t21.5 6q11 0 23 -6t21.5 -15t15.5 -20.5t6 -23.5z" />
    <glyph glyph-name="cent" unicode="&#xa2;" 
d="M437 208l8 -19q3 -5 3.5 -6t0.5 -3q0 -3 -9.5 -12.5t-27.5 -21.5t-43.5 -23.5t-58.5 -17.5l1 -103q0 -4 -2 -4.5t-13 -0.5h-16q-5 0 -5 4q0 6 0.5 20.5t0.5 30.5t0.5 30t0.5 19q-48 -2 -84 13t-60.5 42t-37 63t-12.5 76t13 78.5t37.5 71t60.5 57t82 35.5v44t-1 48
q0 5 2 5.5t10 0.5l18 -1q4 0 5 -0.5t1 -5.5t-0.5 -17.5t-0.5 -26t-0.5 -25.5t-0.5 -17q75 5 109 -14t34 -40q0 -10 -6 -19t-14.5 -16t-17 -11.5t-13.5 -4.5q-6 0 -11.5 3t-22.5 14t-32.5 16t-26.5 7v-87.5v-71.5t0.5 -69t0.5 -80q33 -2 64.5 7t57.5 32h6zM277 174v153
t-1 152q-10 0 -24 -2.5t-28 -13.5q-23 -19 -32.5 -54.5t-9.5 -67.5q0 -5 1.5 -27t10.5 -49t28 -53t55 -38z" />
    <glyph glyph-name="sterling" unicode="&#xa3;" 
d="M124 313q-5 18 -12.5 46.5t-7.5 60.5q0 50 21 92t54 72.5t74 47.5t81 17q30 0 53 -8t38.5 -21.5t23.5 -30t8 -34.5q0 -15 -6 -24.5t-15 -15t-19.5 -8t-19.5 -2.5q-17 0 -23 9.5t-12 30.5q-4 13 -19.5 27t-51.5 14q-47 0 -71 -27.5t-24 -73.5q0 -12 1 -21t4.5 -25.5
t11.5 -45t23 -80.5q8 0 23 0.5t32 1t31.5 0.5h20.5q8 0 8 -5v-36q0 -5 -1.5 -5.5t-6.5 -0.5h-20h-30h-29h-18q3 -10 6 -23t3 -34q0 -42 -14.5 -68t-23.5 -38q14 -2 24.5 -4t21.5 -5.5t26 -9t39 -15.5q20 -8 44 -16.5t41 -8.5q23 0 31.5 10.5t8.5 19.5q0 8 -4 14t-9 12
t-9 11.5t-4 11.5q0 14 12.5 25t27.5 11q19 0 29.5 -15.5t10.5 -35.5q0 -22 -10 -46t-29 -43t-46.5 -31.5t-62.5 -12.5q-25 0 -52.5 6t-75.5 24q-8 3 -19 7.5t-21 8t-17.5 6.5t-9.5 3q-7 -8 -23.5 -21t-41.5 -13q-23 0 -30 13t-7 21q0 9 4.5 20.5t16 22t32.5 19t54 11.5
q3 8 5.5 17.5t2.5 21.5q0 19 -8.5 47.5t-27.5 76.5h-21.5h-32h-30h-13.5q-2 0 -2 8v11v14t2 12h80z" />
    <glyph glyph-name="currency" unicode="&#xa4;" horiz-adv-x="634" 
d="M317 475q29 0 52.5 -8.5t43.5 -23.5l20 20t21 20.5t17.5 17l9.5 9.5t6 -2l9 -9q11 -9 13.5 -13t-1.5 -8q-3 -3 -11 -11.5t-18 -18.5l-19.5 -19.5l-15.5 -15.5q17 -20 25.5 -45t8.5 -51q0 -40 -14 -65t-21 -34l15.5 -15.5l19.5 -19.5t18 -18.5t11 -11.5q6 -6 -16 -24
q-5 -5 -7.5 -6.5t-5.5 1.5l-9 9l-16.5 16.5t-20.5 20t-20 20.5q-18 -14 -43 -22.5t-52 -8.5t-52 8.5t-43 22.5q-9 -10 -20 -20.5t-20.5 -20l-16.5 -16.5l-9 -9q-4 -4 -13 5q-22 18 -16 24q3 3 11 11.5t18 18.5l19.5 19.5l15.5 15.5q-7 9 -21 34t-14 65q0 26 8.5 51t25.5 45
l-15.5 15.5l-19.5 19.5t-18 18.5t-11 11.5q-4 4 -1.5 8t13.5 13l9 9t6 2l9.5 -9.5t17.5 -17t21 -20.5l20 -20q20 15 43.5 23.5t52.5 8.5zM317 216q20 0 38 8t31.5 21.5t21.5 32t8 39.5q0 20 -7.5 38.5t-21 32.5t-31.5 22t-39 8t-38.5 -8t-31 -22t-21 -32.5t-7.5 -38.5
q0 -21 7.5 -39.5t21 -32t31.5 -21.5t38 -8z" />
    <glyph glyph-name="yen" unicode="&#xa5;" 
d="M348 359l-41 -72h161q5 0 5 -9v-24q0 -7 -5 -7h-165q-1 -77 0 -119t6.5 -62.5t17 -25.5t30.5 -8q9 -2 19.5 -2.5t12.5 -2.5t2 -17q0 -11 -8 -11t-26.5 0.5t-39 0.5t-38.5 0.5t-25 0.5t-25 -0.5t-37.5 -1t-37 -1t-24.5 -0.5q-8 0 -9.5 2.5t-1.5 14.5q0 11 3.5 12.5
t17.5 3.5q21 3 34 8.5t19.5 14t9 18.5t3.5 22q1 20 1.5 45t1 48t0.5 40v20h-167q-4 0 -4 16t1 20t5 4h152l-38 72h-118q-2 2 -2 22q0 10 0.5 14t5.5 4h95q-36 71 -58 111t-37 60.5t-25.5 27t-23.5 10.5q-3 1 -3.5 5t-0.5 9q0 11 3 12.5t10 1.5q4 0 15.5 -0.5t26 -0.5
t29.5 -0.5t26 -0.5q42 0 70 1t38 1q6 0 9.5 -2.5t3.5 -10.5q0 -11 -2.5 -14.5t-13.5 -3.5q-5 0 -12 -0.5t-13 -2.5t-10.5 -6.5t-4.5 -12.5t12 -37.5t29.5 -68t38 -79.5t38.5 -73q12 21 30.5 56t36 71.5t30.5 69.5t13 49q0 13 -8.5 22.5t-39.5 11.5q-14 1 -16.5 2.5
t-2.5 10.5q0 11 3 14.5t12 3.5q24 0 49 -1t51 -1q5 0 17.5 0.5t25.5 0.5t24.5 0.5t14.5 0.5q10 0 10 -13q0 -11 -2 -13t-14 -7q-17 -6 -37.5 -30t-41 -55t-38.5 -63.5t-30 -55.5h96q5 0 5.5 -5t0.5 -25q0 -10 -5 -10h-120z" />
    <glyph glyph-name="brokenbar" unicode="&#xa6;" horiz-adv-x="476" 
d="M275 675v-350h-74v350h74zM275 175v-350h-74v350h74z" />
    <glyph glyph-name="section" unicode="&#xa7;" 
d="M379 49q23 -20 36.5 -47.5t13.5 -58.5q0 -35 -17 -71t-47.5 -65.5t-73 -48.5t-93.5 -19q-57 0 -88.5 20.5t-31.5 43.5q0 10 6 20t14 17t16.5 11.5t14.5 4.5q7 0 12.5 -3t25.5 -17q9 -6 29.5 -13t50.5 -7q44 0 74.5 19.5t30.5 60.5q0 22 -8 38.5t-24 31t-41 30t-59 34.5
q-31 18 -58.5 35t-48 37t-32 44t-11.5 54q0 25 8.5 46t21 39t27 32t25.5 24q-4 4 -12 12.5t-16 20.5t-13.5 28.5t-5.5 37.5q0 38 16.5 75t46 66t69 47t84.5 18q24 0 45 -5.5t36.5 -14.5t25 -22t9.5 -28q0 -9 -6 -17.5t-14.5 -15t-17.5 -10.5t-14 -4q-6 0 -10.5 2.5
t-18.5 15.5q-21 18 -44 21t-31 3q-12 0 -29.5 -2t-34 -10t-28.5 -23.5t-12 -42.5q0 -21 8.5 -38t26.5 -33t46.5 -33.5t68.5 -40.5q23 -13 46 -27.5t41.5 -33.5t30.5 -43t12 -55q0 -26 -7 -46.5t-18.5 -37t-25 -30.5t-27.5 -26zM182 316q-15 -16 -24.5 -31.5t-9.5 -38.5
q0 -19 7 -34t17 -26.5t21.5 -19.5t20.5 -14q7 -4 25.5 -15.5t40 -24t41 -23.5t27.5 -16q7 7 19 23.5t12 45.5q0 34 -19.5 55.5t-37.5 35.5q-7 5 -26.5 17t-42 24.5t-43 24.5t-28.5 17z" />
    <glyph glyph-name="dieresis" unicode="&#xa8;" horiz-adv-x="500" 
d="M209 550q0 -21 -16.5 -36t-33.5 -15q-18 0 -35 15t-17 36q0 22 17.5 36t34.5 14q19 0 34.5 -15t15.5 -35zM393 550q0 -22 -16.5 -36.5t-33.5 -14.5q-20 0 -36 15.5t-16 35.5q0 22 17.5 36t34.5 14q19 0 34.5 -15t15.5 -35z" />
    <glyph glyph-name="copyright" unicode="&#xa9;" horiz-adv-x="750" 
d="M180 316q0 31 11.5 64t38 60t70.5 44t109 17q41 0 66 -4t30 -4q7 0 11.5 1.5t6.5 1.5q13 0 13 -6q0 -2 -1 -8t-2 -12.5t-2 -12.5t-1 -8q0 -3 -1 -11t-1.5 -16.5t-1.5 -16t-2 -9.5q-2 -5 -12 -5q-11 0 -13 2.5t-4 14.5q-1 11 -4 22t-12.5 19.5t-29 14t-52.5 5.5
q-64 0 -98 -40t-34 -106q0 -39 11 -68.5t29.5 -49t43.5 -29.5t53 -10q41 0 64 14.5t36 32.5q6 8 9 11.5t7 3.5q5 0 11.5 -2t6.5 -8q-4 -12 -7 -23q-3 -10 -5.5 -18.5t-3.5 -11.5q-3 -11 -5 -13t-12 -5q-17 -5 -47 -8.5t-58 -3.5q-42 0 -79.5 9t-69.5 31q-24 16 -37.5 36.5
t-20.5 40.5t-9 37t-2 27zM375 -11q-68 0 -128.5 25.5t-105.5 69.5t-71.5 104t-26.5 129t26.5 129t72 104t106 69.5t127.5 25.5q68 0 128.5 -26t105.5 -70.5t71.5 -104t26.5 -127.5t-26 -127.5t-71 -104t-105.5 -70.5t-129.5 -26zM375 34q56 0 106.5 21.5t89 59.5t61 90
t22.5 112q0 59 -22 110.5t-60 89.5t-88.5 60.5t-108.5 22.5t-109 -22.5t-88.5 -61t-59.5 -90t-22 -109.5q0 -60 22.5 -111.5t61 -90t89 -60t106.5 -21.5z" />
    <glyph glyph-name="ordfeminine" unicode="&#xaa;" horiz-adv-x="407" 
d="M398 396v-18q0 -9 -3 -14t-23 -14q-16 -8 -39.5 -15t-42.5 -7q-3 0 -9.5 1t-13.5 4t-13 9t-9 16q-18 -9 -51 -19.5t-62 -10.5q-32 0 -54 16.5t-22 58.5q0 17 4 30.5t22.5 25t56.5 20.5t106 17q0 30 -1 48.5t-5.5 29t-14.5 14.5t-28 4q-5 0 -12.5 -0.5t-15 -2t-13 -3.5
t-5.5 -5q0 -2 1 -11.5t0 -11.5q-2 -5 -11 -8.5t-19.5 -6t-20.5 -4t-14 -1.5q-10 0 -13.5 4.5t-3.5 9.5q0 12 14 28.5t36.5 30.5t51.5 24t59 10q38 0 58 -11.5t29.5 -27t11 -32t1.5 -26.5q0 -5 -0.5 -23t-1 -38.5t-1 -38.5t-0.5 -23q0 -22 3 -32t16 -10q11 0 22.5 5.5
t21.5 11.5zM244 448q0 10 -3.5 13t-11.5 3q-12 0 -25 -3t-25 -7q-26 -10 -30.5 -17t-4.5 -15q0 -26 9 -35t28 -9q20 0 37.5 5.5t20.5 9.5q1 2 2 3.5t1.5 7t1 16t0.5 28.5z" />
    <glyph glyph-name="guillemotleft" unicode="&#xab;" 
d="M43 221q0 5 3 8.5t16 14.5q57 47 96.5 82t72.5 65q9 8 11.5 10t5.5 2q4 0 13.5 -5t9.5 -10q0 -3 -15.5 -26t-34.5 -49t-35.5 -48t-17.5 -23q-10 -11 -12 -16t-2 -8q0 -2 2 -6.5t9 -12.5q6 -8 24 -30t36.5 -47t33 -46t14.5 -26t-10 -10.5t-14 -5.5q-2 0 -8.5 6.5
l-11.5 11.5q-7 6 -22 20.5t-36.5 34t-47.5 42t-54 44.5q-18 14 -22 18.5t-4 9.5zM246 221q0 5 3 8.5t19 16.5q43 35 84.5 71t82.5 74q8 8 11 10t6 2q4 0 13.5 -5t9.5 -10q0 -3 -16 -26t-35 -49t-35 -48t-17 -23q-10 -12 -12 -16.5t-2 -7.5q0 -5 4.5 -11t24.5 -31
q5 -6 19.5 -25t30.5 -40t28 -38.5t12 -22.5t-10 -10.5t-14 -5.5t-7 5q-5 5 -21.5 21t-40 37.5t-52.5 46.5t-59 49q-18 14 -22.5 18.5t-4.5 9.5z" />
    <glyph glyph-name="logicalnot" unicode="&#xac;" 
d="M344 354h-291v53h413v-254h-122v201z" />
    <glyph glyph-name="registered" unicode="&#xae;" horiz-adv-x="750" 
d="M281 142q-2 0 -14.5 -0.5t-27 -0.5h-26.5h-14q-8 0 -8 11q0 8 3 9.5t14 3.5q20 2 24.5 11.5t6.5 15.5q2 11 2.5 34.5t0.5 61.5v38v38.5t-0.5 39.5t-1.5 34t-3 20q-3 9 -10 10.5t-24 3.5q-5 1 -7 2t-2 9q0 7 2 9t10 2h60q6 0 22 1t34 1.5t33.5 1t21.5 0.5q67 0 97.5 -28
t30.5 -68q0 -35 -21 -59.5t-53 -35.5q11 -20 25.5 -44.5t31 -46.5t34.5 -37t36 -16q8 -1 11 -1.5t3 -5.5q0 -9 -6 -14.5t-29 -5.5q-33 0 -58.5 13.5t-46 35.5t-37.5 50t-33 57q-20 -1 -27.5 -1.5t-22.5 0.5v-26t0.5 -34.5t1.5 -32.5t3 -20q3 -8 11.5 -10t31.5 -4q8 -1 8 -11
q0 -12 -8 -12zM312 320q6 -1 11 -1.5t16 -0.5q15 0 30.5 2t28 9.5t20.5 21.5t8 39q0 35 -17.5 58t-59.5 23q-25 0 -29.5 -2.5t-5.5 -10.5q0 -7 -0.5 -26.5t-0.5 -41.5t-0.5 -42t-0.5 -28zM375 -11q-68 0 -128.5 25.5t-105.5 69.5t-71.5 104t-26.5 129t26.5 129t72 104
t106 69.5t127.5 25.5q68 0 128.5 -26t105.5 -70.5t71.5 -104t26.5 -127.5t-26 -127.5t-71 -104t-105.5 -70.5t-129.5 -26zM375 34q56 0 106.5 21.5t89 59.5t61 89.5t22.5 112.5q0 59 -22 110.5t-60 90t-89 60.5t-108 22q-58 0 -108.5 -22.5t-88.5 -60.5t-60 -89.5
t-22 -110.5q0 -60 22.5 -112t61 -90t89 -59.5t106.5 -21.5z" />
    <glyph glyph-name="macron" unicode="&#xaf;" horiz-adv-x="500" 
d="M109 520q-6 0 -7.5 1t-1.5 6v43q0 7 1 8.5t8 1.5h141h27.5h41h40.5h26q10 1 12.5 0t2.5 -6v-9.5v-14v-14v-8.5q0 -6 -1.5 -7t-7.5 -1h-41h-61.5h-61h-39.5h-79z" />
    <glyph glyph-name="degree" unicode="&#xb0;" 
d="M259 376q-30 0 -55.5 10.5t-44 28.5t-28.5 42.5t-10 52.5t10 52.5t28 42.5t43.5 28.5t56.5 10.5t56.5 -10.5t43.5 -29t28 -43t10 -51.5q0 -28 -10 -52.5t-28 -42.5t-43.5 -28.5t-56.5 -10.5zM259 426q32 0 55 23t23 61q0 39 -23.5 61.5t-54.5 22.5q-30 0 -54 -22.5
t-24 -61.5q0 -38 23 -61t55 -23z" />
    <glyph glyph-name="plusminus" unicode="&#xb1;" 
d="M230 528q0 4 1 5t6 1h42q7 0 8.5 -1t1.5 -8l-1 -173h162q9 0 15 -1t6 -7v-42q0 -6 -0.5 -7.5t-5.5 -1.5h-177l1 -177q0 -6 -8 -6q-9 0 -21.5 0.5t-21.5 -0.5q-6 0 -7 1.5t-1 7.5v174h-181q-2 0 -2 2.5v4.5v44q0 6 1.5 7t6.5 1h175v176zM68 10q-14 0 -17.5 1t-3.5 7v44
q0 6 3.5 7t17.5 1h382q14 0 17.5 -1t3.5 -7v-44q0 -6 -3.5 -7t-17.5 -1h-382z" />
    <glyph glyph-name="twosuperior" unicode="&#xb2;" horiz-adv-x="352" 
d="M112 316q16 0 41 -0.5t49.5 0t44 2t24.5 5.5t9 12.5t7 16.5t6 14.5t6 6.5q8 0 14 -2.5t6 -7.5q0 -1 -3 -14t-7 -29t-7.5 -31t-5.5 -21q-2 -9 -6 -11.5t-15 -2.5q-12 0 -40 0.5t-61 0.5q-34 0 -68.5 -0.5t-67.5 -0.5q-8 0 -9.5 3.5t-1.5 12.5q0 3 21 24q63 63 96.5 104
t49.5 67t18.5 40.5t2.5 24.5q0 21 -8 33t-18.5 18t-20.5 7.5t-15 1.5q-3 0 -13 -1t-21 -5.5t-21.5 -12t-15.5 -21.5q-3 -9 -5.5 -13t-8.5 -4q-3 0 -13 3.5t-10 11.5q0 6 8 21t24.5 30.5t42.5 28t63 12.5q54 0 84.5 -28.5t30.5 -70.5q0 -40 -21.5 -69t-47.5 -55
q-6 -6 -23 -21t-35.5 -31t-35.5 -30t-23 -19z" />
    <glyph glyph-name="threesuperior" unicode="&#xb3;" horiz-adv-x="352" 
d="M205 481q36 1 57 -10t32.5 -26t15 -32t3.5 -28q0 -32 -15 -57.5t-40 -43t-57.5 -27t-66.5 -9.5q-36 0 -56.5 8t-30.5 18t-12.5 19t-2.5 10q0 16 14.5 24t24.5 8q11 0 16 -5.5t11 -16.5q12 -23 29.5 -27.5t28.5 -4.5q21 0 35 9t21.5 21.5t10.5 27t3 25.5q0 32 -16.5 54
t-48.5 22q-12 0 -22.5 -2.5t-16.5 -5.5q-8 -4 -10.5 -5t-4.5 -1q-8 0 -11 9t-3 10q0 4 2.5 5.5t13.5 6.5q30 13 48 24.5t27.5 22.5t12.5 21t3 20q0 22 -13 35.5t-35 13.5q-19 0 -38.5 -8.5t-24.5 -20.5q-5 -14 -13 -14q-5 0 -13.5 5t-8.5 10t9 17t26.5 24.5t42.5 22.5t57 10
q25 0 42.5 -7t29 -17.5t17 -23t5.5 -24.5q0 -21 -19.5 -46.5t-58.5 -40.5z" />
    <glyph glyph-name="acute" unicode="&#xb4;" horiz-adv-x="500" 
d="M295 642q7 8 12 10.5t10 2.5q8 0 27 -3.5t28 -5.5q14 -3 18 -7.5t4 -9.5q0 -9 -9 -17t-29 -22q-37 -26 -59 -41t-34.5 -24t-18 -13t-10.5 -8t-12.5 -9t-14.5 -5q-2 0 -12 0.5t-10 4.5z" />
    <glyph glyph-name="mu" unicode="&#xb5;" horiz-adv-x="593" 
d="M90 295q0 20 -1 33.5t-5 22t-13 12.5t-25 4q-13 0 -15.5 2t-2.5 13q0 10 3 12t16 6q1 0 20.5 5.5t43.5 11.5t46 11t28 5q7 0 8 -3.5t1 -5.5q0 -1 -0.5 -8t-1 -16.5t-1 -20t-1.5 -18.5q-1 -13 -1.5 -30t-1 -35t-0.5 -36v-33q0 -33 1.5 -64.5t10 -55.5t27.5 -39t54 -15
q20 0 39 3.5t35 8.5t27 10t13 8t3.5 29t2 57.5t0.5 59v34.5q0 41 -0.5 64t-5 34.5t-14 15.5t-26.5 6q-5 0 -18 0.5t-15 2.5q-4 3 -4 10q0 13 3.5 15t20.5 3q2 0 12.5 1t26 2.5t32.5 3.5t31 4q3 0 10 1.5t14.5 2.5t14.5 2t10 1q10 0 10 -11q0 -5 -0.5 -17t-1.5 -25
t-1.5 -24.5t-0.5 -16.5q0 -12 -1 -39t-2 -58.5t-1.5 -62t-0.5 -48.5q0 -39 4 -56.5t27 -17.5q13 0 31 3q2 0 10.5 1.5t10.5 1.5q4 0 5.5 -2.5t1.5 -17.5q0 -6 -4 -8t-28 -9q-13 -4 -34.5 -10t-43 -11t-40 -9t-25.5 -4q-11 0 -13 6.5t-2 11.5t1.5 21t1.5 21
q-21 -10 -44 -20.5t-47 -19.5t-47.5 -15t-45.5 -6q-32 0 -44.5 8.5t-22.5 20.5q0 -1 4 -32t8 -70.5t7.5 -77t3.5 -53.5q0 -28 -7 -36.5t-18 -11.5q-8 -3 -22 -6t-22 -3q-16 0 -20 14t-4 33q0 9 1.5 30t3 44.5t3.5 44t2 28.5q4 59 4.5 91.5t0.5 55.5v225z" />
    <glyph glyph-name="paragraph" unicode="&#xb6;" horiz-adv-x="704" 
d="M557 687q0 -9 -0.5 -17t-1 -19.5t-1 -29.5t-0.5 -48h19t24.5 1t23.5 2t16 4q6 3 7.5 10t3.5 23q1 5 6 16t22 11q12 0 24.5 -7.5t12.5 -26.5q0 -22 -12.5 -34t-34 -18t-50.5 -7t-62 -1q0 -47 -0.5 -85t-0.5 -72v-67v-70q0 -15 0.5 -52.5t1 -78.5t1 -77.5t0.5 -50.5
q0 -39 -1 -65.5t-3 -44t-4 -28t-4 -17.5q-8 -33 -32.5 -58.5t-64.5 -25.5q-26 0 -47 14t-21 43q0 22 15 36t35 14q14 0 27 -8q9 -5 13 -7t9 -2q11 0 17.5 5.5t10 13.5t5 17.5t2.5 17.5q2 18 2.5 38.5t1.5 41t1 38.5v30q-3 0 -22 -1t-42 -1.5t-44 -1t-29 -0.5
q-79 0 -138.5 21.5t-99 59t-59.5 87.5t-20 107q0 59 19 107.5t55.5 83t90.5 53t123 18.5q5 0 27.5 -1t50 -1.5t52.5 -1.5t35 -1q0 29 -0.5 46t-1 28t-1 19.5t-1.5 19.5h44zM516 75q0 78 -0.5 133.5t-0.5 106t0.5 104t0.5 127.5h-34.5t-39.5 -1q-16 -1 -32 -4t-21 -19
q-2 -6 -3 -35.5t-1.5 -64.5t-0.5 -67.5v-44.5v-34.5v-50.5t0.5 -53t0.5 -41q1 -20 2.5 -30.5t12.5 -17.5q6 -4 21 -5.5t32.5 -2.5t34.5 -0.5t28 0.5z" />
    <glyph glyph-name="periodcentered" unicode="&#xb7;" horiz-adv-x="241" 
d="M55 209q0 12 6 24t16 21.5t21.5 15.5t23.5 6t23.5 -6.5t20.5 -16t14.5 -21t5.5 -22.5t-6 -22.5t-15.5 -21t-21 -15.5t-22.5 -6t-22.5 5.5t-21.5 14.5t-16 20.5t-6 23.5z" />
    <glyph glyph-name="cedilla" unicode="&#xb8;" horiz-adv-x="500" 
d="M323 12q-36 -53 -36 -58q0 -7 18 -17q19 -11 32.5 -26t13.5 -39q0 -15 -8 -31.5t-22.5 -31t-34 -24t-42.5 -9.5q-29 0 -42 12.5t-13 23.5q0 9 7.5 21.5t18.5 12.5q6 0 11 -2.5t22 -12.5q10 -5 15.5 -6.5t10.5 -1.5q17 0 20.5 9.5t3.5 11.5q0 14 -10.5 24.5t-31.5 21.5
q-22 12 -27.5 16t-5.5 9t2.5 9.5t14.5 19.5l55 68h28z" />
    <glyph glyph-name="onesuperior" unicode="&#xb9;" horiz-adv-x="352" 
d="M149 440v30.5v34t-0.5 29.5t-1.5 18q-1 8 -3 11.5t-10 3.5q-3 0 -11 -1.5t-17 -4t-16 -4l-7 -1.5q-5 0 -6 3.5t-1 8.5q0 8 2.5 10.5t12.5 6.5q26 11 47.5 22t51.5 28q9 5 13 6.5t10 -0.5q16 -6 16 -12q0 -16 -1.5 -33.5t-1.5 -24.5t-0.5 -30t-1 -48.5t-0.5 -47v-24.5
q0 -49 0.5 -76.5t3.5 -41t9 -17t18 -4.5q15 -2 22 -2.5t11 -0.5q8 -1 10 -2.5t2 -8.5q0 -11 -2 -13t-14 -2q-11 0 -52.5 0.5t-110.5 0.5q23 0 20.5 0t-15 -0.5t-27.5 -0.5h-18q-9 0 -9 11t2.5 12.5t14.5 2.5q16 2 26 3.5t16.5 5.5t10 12.5t4.5 23.5q1 9 1.5 24.5t1 32.5
t0.5 33v26z" />
    <glyph glyph-name="ordmasculine" unicode="&#xba;" horiz-adv-x="407" 
d="M31 485q0 38 15 67.5t41 50t60.5 31.5t73.5 11q43 0 74.5 -13.5t52.5 -35t31 -49t10 -55.5q0 -39 -16 -69.5t-42 -51.5t-60.5 -32t-72.5 -11q-34 0 -64.5 10t-53 30t-36 49.5t-13.5 67.5zM125 510q0 -37 9 -64t23 -45t31 -26.5t34 -8.5q30 0 51.5 24t21.5 76q0 31 -8 57
t-21 44.5t-30.5 29t-37.5 10.5q-28 0 -50.5 -23t-22.5 -74z" />
    <glyph glyph-name="guillemotright" unicode="&#xbb;" 
d="M272 221q0 -5 -4 -9.5t-22 -18.5q-30 -24 -59 -49t-53 -46.5t-40 -37.5l-21 -21l-3.5 -3.5t-3.5 -1.5q-4 0 -14.5 5.5t-10.5 10.5q0 3 9.5 17.5t24 34t30 40t27.5 34.5q20 24 24 30.5t4 11.5q0 3 -2 8t-11 16q-1 2 -17.5 23.5t-35.5 47.5t-34.5 49t-15.5 26q0 5 9 10
t14 5q3 0 14 -9.5t16 -14.5q25 -23 53 -47.5t52 -45t41 -34t19 -15.5q7 -5 8.5 -8.5t1.5 -7.5zM476 221q0 -5 -4.5 -9.5t-21.5 -18.5q-28 -22 -54.5 -44.5t-48 -42t-36.5 -34t-22 -21.5q-5 -5 -11.5 -11t-8.5 -6q-3 0 -13.5 5.5t-10.5 10.5t13.5 24.5t31 42.5t33.5 43.5
t21 26.5q14 17 17 21.5t3 9.5q0 4 -2 8.5t-11 15.5q-4 6 -15.5 21t-25 34t-27.5 38t-24 33q-7 10 -9 13.5t-2 6.5q0 5 9 10t13 5t15 -9.5t16 -14.5q23 -21 48.5 -44t48 -42t38.5 -32t18 -15q16 -13 19 -16.5t3 -8.5z" />
    <glyph glyph-name="onequarter" unicode="&#xbc;" horiz-adv-x="796" 
d="M700 102v-22.5v-34v-31v-14.5q-1 0 -11 -0.5t-23 -0.5h-24h-13q-5 0 -6 2t-1 10v15t0.5 28.5t1 29.5t0.5 18l-155 -1h-14t-13 2q-3 2 -3 17q0 11 1 14.5t7 9.5q22 24 52.5 59.5t61 70.5t57 66t39.5 46q29 -2 36.5 -3.5t7.5 -7.5q0 -13 -0.5 -46t-0.5 -69t-0.5 -68.5
t-0.5 -44.5h27t27 1q5 0 5.5 -1t0.5 -3t-1 -14.5t-1 -16.5q-1 -8 -2.5 -10t-4.5 -2zM624 147v153q-14 -16 -30.5 -36t-34 -40.5t-34 -40.5t-30.5 -36h129zM146 440v30.5v34t-0.5 29.5t-1.5 18q-1 8 -3 11.5t-10 3.5q-3 0 -11 -1.5t-17 -4t-16 -4l-7 -1.5q-5 0 -6 3.5t-1 8.5
q0 8 2.5 10.5t12.5 6.5q26 11 47.5 22t51.5 28q9 5 13 6.5t10 -0.5q16 -6 16 -12q0 -16 -1.5 -33.5t-1.5 -24.5t-0.5 -30t-1 -48.5t-0.5 -47v-24.5q0 -49 0.5 -76.5t3.5 -41t9 -17t18 -4.5q15 -2 22 -2.5t11 -0.5q8 -1 10 -2.5t2 -8.5q0 -11 -2 -13t-14 -2q-11 0 -52.5 0.5
t-110.5 0.5q23 0 20.5 0t-15 -0.5t-27.5 -0.5h-18q-9 0 -9 11t2.5 12.5t14.5 2.5q16 2 26 3.5t16.5 5.5t10 12.5t4.5 23.5q1 9 1.5 24.5t1 32.5t0.5 33v26zM227 0q7 13 31 60.5t56 112t68 138.5t67.5 140.5t55 116t29.5 66.5h52q-15 -26 -35 -66t-37 -75
q-19 -39 -42.5 -86.5t-47 -96t-45.5 -94t-39 -81.5q-17 -34 -27 -55t-16 -35t-10 -24t-8 -21h-52z" />
    <glyph glyph-name="onehalf" unicode="&#xbd;" horiz-adv-x="796" 
d="M132 440v30.5v34t-0.5 29.5t-1.5 18q-1 8 -3 11.5t-10 3.5q-3 0 -11 -1.5t-17 -4t-16 -4l-7 -1.5q-5 0 -6 3.5t-1 8.5q0 8 2.5 10.5t12.5 6.5q26 11 47.5 22t51.5 28q9 5 13 6.5t10 -0.5q16 -6 16 -12q0 -16 -1.5 -33.5t-1.5 -24.5t-0.5 -30t-1 -48.5t-0.5 -47v-24.5
q0 -49 0.5 -76.5t3.5 -41t9 -17t18 -4.5q15 -2 22 -2.5t11 -0.5q8 -1 10 -2.5t2 -8.5q0 -11 -2 -13t-14 -2q-11 0 -52.5 0.5t-110.5 0.5q23 0 20.5 0t-15 -0.5t-27.5 -0.5h-18q-9 0 -9 11t2.5 12.5t14.5 2.5q16 2 26 3.5t16.5 5.5t10 12.5t4.5 23.5q1 9 1.5 24.5t1 32.5
t0.5 33v26zM216 0q5 9 13.5 25.5t29 58t57.5 117t99 203.5q35 71 54 110.5t29.5 61.5t15 33.5t9.5 24.5h52q-7 -12 -16 -29t-18.5 -36t-19 -38.5t-18.5 -37.5q-19 -37 -42 -85t-47 -97t-46 -95t-39 -81q-17 -34 -27 -55t-16 -35t-10 -24t-8 -21h-52zM551 61q16 0 41 -0.5
t49.5 0t44 2t24.5 5.5t9 12.5t7 16.5t6 14.5t6 6.5q8 0 14 -2.5t6 -7.5q0 -1 -3 -14t-7 -29t-7.5 -31t-5.5 -21q-2 -9 -6 -11.5t-15 -2.5q-12 0 -40 0.5t-61 0.5q-34 0 -68.5 -0.5t-67.5 -0.5q-8 0 -9.5 3.5t-1.5 12.5q0 3 21 24q63 63 96.5 104t49.5 67t18.5 40.5t2.5 24.5
q0 21 -8 33t-18.5 18t-20.5 7.5t-15 1.5q-3 0 -13 -1t-21 -5.5t-21.5 -12t-15.5 -21.5q-3 -9 -5.5 -13t-8.5 -4q-3 0 -13 3.5t-10 11.5q0 6 8 21t24.5 30.5t42.5 28t63 12.5q54 0 84.5 -28.5t30.5 -70.5q0 -40 -21.5 -69t-47.5 -55q-6 -6 -23 -21t-35.5 -31t-35.5 -30
t-23 -19z" />
    <glyph glyph-name="threequarters" unicode="&#xbe;" horiz-adv-x="796" 
d="M711 102v-44.5t1 -41.5q0 -11 -0.5 -13.5t-2.5 -2.5q-1 0 -10.5 -0.5t-21.5 -0.5h-23h-13q-6 0 -7 2t0 13l1 88l-155 -1h-14t-13 2t-2.5 5t-0.5 16q0 8 1 11t7 9q5 5 20.5 23t36.5 42t45 51.5t45.5 52.5t38.5 45t24 28q32 -2 38 -3.5t6 -8.5v-28t-0.5 -42t-1 -41.5
t-0.5 -27.5v-88h16h11t11 0.5t16 0.5q5 0 5.5 -1t0.5 -3q0 -3 -1 -15t-1 -16q-1 -8 -2 -10t-5 -2zM635 147v153q-13 -16 -30 -36t-34 -40.5t-34 -40.5t-31 -36h129zM216 481q36 1 57 -10t32.5 -26t15 -32t3.5 -28q0 -32 -15 -57.5t-40 -43t-57.5 -27t-66.5 -9.5q-36 0 -56 8
t-30.5 18t-13 19t-2.5 10q0 16 14.5 24t24.5 8q11 0 16 -5.5t11 -16.5q13 -23 30 -27.5t28 -4.5q21 0 35 9t21.5 21.5t10.5 27t3 25.5q0 32 -16.5 54t-48.5 22q-12 0 -22.5 -2.5t-16.5 -5.5q-8 -4 -10.5 -5t-4.5 -1q-7 0 -10.5 9t-3.5 10q0 4 2.5 5.5t13.5 6.5
q30 13 48 24.5t27.5 22.5t12.5 21t3 20q0 22 -13 35.5t-35 13.5q-19 0 -38 -8.5t-24 -20.5q-3 -6 -6 -10t-8 -4t-13.5 5t-8.5 10t9 17t26.5 24.5t42.5 22.5t57 10q25 0 43 -7t29.5 -17.5t17 -23t5.5 -24.5q0 -21 -20 -46.5t-59 -40.5zM241 0q7 13 31 60.5t56 112t68 138.5
t67.5 140.5t55 116t29.5 66.5h52q-14 -25 -34.5 -65.5t-37.5 -75.5q-19 -39 -42.5 -86.5t-47 -96t-45.5 -94t-39 -81.5q-17 -34 -27 -55t-16 -35t-10 -24t-8 -21h-52z" />
    <glyph glyph-name="questiondown" unicode="&#xbf;" horiz-adv-x="407" 
d="M262 -225q-62 0 -105.5 29.5t-71.5 68.5t-40.5 77t-12.5 55q0 30 12 51t30.5 36t41 26t43.5 20q38 15 57 24t28 17q7 6 8 13.5t1 17.5v10.5v15v14.5v8q1 3 8.5 3.5t12.5 0.5t5.5 -1.5t2.5 -8.5q7 -31 13.5 -63t6.5 -50q0 -15 -5.5 -26t-17.5 -21t-32 -20t-49 -24
q-22 -11 -40 -20.5t-30.5 -20.5t-19.5 -25t-7 -33q0 -10 4.5 -25.5t16.5 -29.5t33 -24.5t55 -10.5q21 0 35 3t22 6q24 11 31 13t15 2q10 0 17 -6t11 -14t6 -17.5t2 -16.5q0 -25 -18.5 -39.5t-68.5 -14.5zM323 368q0 -12 -6 -24t-15.5 -21.5t-21.5 -15.5t-23 -6
q-12 0 -23.5 6t-20.5 16t-14.5 21.5t-5.5 22.5q0 12 6 23.5t15.5 20.5t21 15t22.5 6t22.5 -6t21 -15t15.5 -20.5t6 -22.5z" />
    <glyph glyph-name="Agrave" unicode="&#xc0;" horiz-adv-x="667" 
d="M245 862q8 0 14.5 -3.5t23.5 -22.5l23 -23l19 -19l22.5 -22.5l32.5 -32.5q2 -1 6.5 -6t9.5 -10l9 -9t4 -5q0 -4 -9.5 -5t-12.5 -1q-8 0 -18 5t-17 9q-41 23 -66 36.5t-41 22.5t-26 14.5t-20 11.5q-11 5 -22 13.5t-11 16.5q0 7 11 12.5t25 9.5t26.5 6t16.5 2zM189 225
q-22 -58 -36.5 -99t-14.5 -58q0 -13 7 -20t17.5 -11t23 -5t23.5 -2q8 -1 9 -4.5t1 -14.5q0 -6 -1.5 -9.5t-9.5 -3.5q-12 0 -42 1t-62 1q-38 0 -59 -1t-32 -1q-8 0 -10 3t-2 10q0 11 1 13.5t9 4.5q27 6 47.5 41t51.5 104q6 13 18 39.5t27.5 59.5t32 69.5t31 69t26.5 58
t17 37.5q12 28 23 56.5t21 60.5q1 3 4 5.5t12 2.5q2 0 9.5 1.5t17 3t18 2.5t11.5 1q5 0 6.5 -4.5t6.5 -21.5q4 -14 19 -57.5t37 -101.5t47.5 -123t49 -122t42 -99.5t26.5 -54.5q11 -16 21 -20.5t25 -6.5q5 -2 6 -4t1 -11q0 -10 -1.5 -13t-8.5 -3q-6 0 -22 0.5t-34 0.5
t-33.5 0.5t-21.5 0.5q-31 0 -52.5 -0.5t-35 -0.5t-21 -0.5t-12.5 -0.5q-10 0 -12 3t-2 10q0 13 3 15t17 4q19 2 35 7.5t16 25.5q0 7 -6.5 29t-15.5 48t-17.5 50t-12.5 35h-239zM314 526q-29 -67 -58 -136.5t-52 -126.5q11 0 39 -0.5t61 -0.5h63.5t46.5 1q-5 14 -19.5 51
t-30.5 79t-30 79.5t-20 53.5z" />
    <glyph glyph-name="Aacute" unicode="&#xc1;" horiz-adv-x="667" 
d="M446 862q4 0 16.5 -2t26 -6t24.5 -9.5t11 -11.5q0 -10 -12.5 -18t-47.5 -28q-14 -8 -32 -18.5t-36.5 -21t-37 -20t-33.5 -17.5q-10 -5 -14 -6t-8 -1q-2 0 -12 1t-10 4q0 2 12 14t27.5 27t30 29t19.5 19q19 20 30 31.5t17 17.5l8.5 8.5t5.5 3.5q2 2 5.5 3t9.5 1zM189 225
q-22 -58 -36.5 -99t-14.5 -58q0 -13 7 -20t17.5 -11t23 -5t23.5 -2q8 -1 9 -4.5t1 -14.5q0 -6 -1.5 -9.5t-9.5 -3.5q-12 0 -42 1t-62 1q-38 0 -59 -1t-32 -1q-8 0 -10 3t-2 10q0 11 1 13.5t9 4.5q27 6 47.5 41t51.5 104q6 13 18 39.5t27.5 59.5t32 69.5t31 69t26.5 58
t17 37.5q12 28 23 56.5t21 60.5q1 3 4 5.5t12 2.5q2 0 9.5 1.5t17 3t18 2.5t11.5 1q5 0 6.5 -4.5t6.5 -21.5q4 -14 19 -57.5t37 -101.5t47.5 -123t49 -122t42 -99.5t26.5 -54.5q11 -16 21 -20.5t25 -6.5q5 -2 6 -4t1 -11q0 -10 -1.5 -13t-8.5 -3q-6 0 -22 0.5t-34 0.5
t-33.5 0.5t-21.5 0.5q-31 0 -52.5 -0.5t-35 -0.5t-21 -0.5t-12.5 -0.5q-10 0 -12 3t-2 10q0 13 3 15t17 4q19 2 35 7.5t16 25.5q0 7 -6.5 29t-15.5 48t-17.5 50t-12.5 35h-239zM314 526q-29 -67 -58 -136.5t-52 -126.5q11 0 39 -0.5t61 -0.5h63.5t46.5 1q-5 14 -19.5 51
t-30.5 79t-30 79.5t-20 53.5z" />
    <glyph glyph-name="Acircumflex" unicode="&#xc2;" horiz-adv-x="667" 
d="M341 876q14 0 21.5 -6.5t22.5 -25.5q25 -31 47.5 -54.5t55.5 -56.5q9 -10 11.5 -12.5t2.5 -4.5q0 -4 -7 -11.5t-11 -7.5t-26 15t-47 32.5t-46.5 32.5t-24.5 15t-24 -15t-46.5 -33.5t-47.5 -33.5t-26 -15q-5 0 -12.5 6.5t-7.5 10.5q0 2 3.5 6t8 8.5l8.5 8.5l6 6
q9 9 22.5 23t27 29t26 29.5t21.5 24.5q14 18 22 23.5t20 5.5zM189 225q-22 -58 -36.5 -99t-14.5 -58q0 -13 7 -20t17.5 -11t23 -5t23.5 -2q8 -1 9 -4.5t1 -14.5q0 -6 -1.5 -9.5t-9.5 -3.5q-12 0 -42 1t-62 1q-38 0 -59 -1t-32 -1q-8 0 -10 3t-2 10q0 11 1 13.5t9 4.5
q27 6 47.5 41t51.5 104q6 13 18 39.5t27.5 59.5t32 69.5t31 69t26.5 58t17 37.5q12 28 23 56.5t21 60.5q1 3 4 5.5t12 2.5q2 0 9.5 1.5t17 3t18 2.5t11.5 1q5 0 6.5 -4.5t6.5 -21.5q4 -14 19 -57.5t37 -101.5t47.5 -123t49 -122t42 -99.5t26.5 -54.5q11 -16 21 -20.5
t25 -6.5q5 -2 6 -4t1 -11q0 -10 -1.5 -13t-8.5 -3q-6 0 -22 0.5t-34 0.5t-33.5 0.5t-21.5 0.5q-31 0 -52.5 -0.5t-35 -0.5t-21 -0.5t-12.5 -0.5q-10 0 -12 3t-2 10q0 13 3 15t17 4q19 2 35 7.5t16 25.5q0 7 -6.5 29t-15.5 48t-17.5 50t-12.5 35h-239zM314 526
q-29 -67 -58 -136.5t-52 -126.5q11 0 39 -0.5t61 -0.5h63.5t46.5 1q-5 14 -19.5 51t-30.5 79t-30 79.5t-20 53.5z" />
    <glyph glyph-name="Atilde" unicode="&#xc3;" horiz-adv-x="667" 
d="M282 837q21 0 38 -6.5t47 -20.5t44 -18.5t32 -4.5q23 0 39 9t33 31q2 2 5 2.5t9 -2.5q5 -2 8 -4t2 -4q0 -2 -3 -7.5t-7 -11.5l-8 -12l-6 -9q-29 -40 -53 -50.5t-44 -10.5q-22 0 -41 7.5t-56 24.5q-14 6 -30 12t-37 6q-20 0 -31.5 -5.5t-19.5 -13.5q-3 -3 -12 -13.5
t-11 -10.5q-6 2 -10 5l-7 3.5t-3 3.5q0 1 8 15t17 26q20 26 44 42.5t53 16.5zM189 225q-22 -58 -36.5 -99t-14.5 -58q0 -13 7 -20t17.5 -11t23 -5t23.5 -2q8 -1 9 -4.5t1 -14.5q0 -6 -1.5 -9.5t-9.5 -3.5q-12 0 -42 1t-62 1q-38 0 -59 -1t-32 -1q-8 0 -10 3t-2 10
q0 11 1 13.5t9 4.5q27 6 47.5 41t51.5 104q6 13 18 39.5t27.5 59.5t32 69.5t31 69t26.5 58t17 37.5q12 28 23 56.5t21 60.5q1 3 4 5.5t12 2.5q2 0 9.5 1.5t17 3t18 2.5t11.5 1q5 0 6.5 -4.5t6.5 -21.5q4 -14 19 -57.5t37 -101.5t47.5 -123t49 -122t42 -99.5t26.5 -54.5
q11 -16 21 -20.5t25 -6.5q5 -2 6 -4t1 -11q0 -10 -1.5 -13t-8.5 -3q-6 0 -22 0.5t-34 0.5t-33.5 0.5t-21.5 0.5q-31 0 -52.5 -0.5t-35 -0.5t-21 -0.5t-12.5 -0.5q-10 0 -12 3t-2 10q0 13 3 15t17 4q19 2 35 7.5t16 25.5q0 7 -6.5 29t-15.5 48t-17.5 50t-12.5 35h-239z
M314 526q-29 -67 -58 -136.5t-52 -126.5q11 0 39 -0.5t61 -0.5h63.5t46.5 1q-5 14 -19.5 51t-30.5 79t-30 79.5t-20 53.5z" />
    <glyph glyph-name="Adieresis" unicode="&#xc4;" horiz-adv-x="667" 
d="M189 225q-22 -58 -36.5 -99t-14.5 -58q0 -13 7 -20t17.5 -11t23 -5t23.5 -2q8 -1 9 -4.5t1 -14.5q0 -6 -1.5 -9.5t-9.5 -3.5q-12 0 -42 1t-62 1q-38 0 -59 -1t-32 -1q-8 0 -10 3t-2 10q0 11 1 13.5t9 4.5q27 6 47.5 41t51.5 104q6 13 18 39.5t27.5 59.5t32 69.5t31 69
t26.5 58t17 37.5q12 28 23 56.5t21 60.5q1 3 4 5.5t12 2.5q2 0 9.5 1.5t17 3t18 2.5t11.5 1q5 0 6.5 -4.5t6.5 -21.5q4 -14 19 -57.5t37 -101.5t47.5 -123t49 -122t42 -99.5t26.5 -54.5q11 -16 21 -20.5t25 -6.5q5 -2 6 -4t1 -11q0 -10 -1.5 -13t-8.5 -3q-6 0 -22 0.5
t-34 0.5t-33.5 0.5t-21.5 0.5q-31 0 -52.5 -0.5t-35 -0.5t-21 -0.5t-12.5 -0.5q-10 0 -12 3t-2 10q0 13 3 15t17 4q19 2 35 7.5t16 25.5q0 7 -6.5 29t-15.5 48t-17.5 50t-12.5 35h-239zM314 526q-29 -67 -58 -136.5t-52 -126.5q11 0 39 -0.5t61 -0.5h63.5t46.5 1
q-5 14 -19.5 51t-30.5 79t-30 79.5t-20 53.5zM442 824q20 0 36.5 -16t16.5 -36q0 -22 -17 -37.5t-36 -15.5t-36.5 15t-17.5 38q0 22 17.5 37t36.5 15zM231 824q20 0 36.5 -16t16.5 -36q0 -22 -17 -37.5t-36 -15.5t-36.5 15t-17.5 38q0 22 17.5 37t36.5 15z" />
    <glyph glyph-name="Aring" unicode="&#xc5;" horiz-adv-x="667" 
d="M339 688q-22 0 -42 6.5t-35 18.5t-24 29.5t-9 39.5q0 21 9 38.5t24 29.5t35 18.5t42 6.5t42 -6.5t35 -18.5t24 -29.5t9 -38.5q0 -22 -9 -39.5t-24 -29.5t-35 -18.5t-42 -6.5zM339 718q28 0 40 21t12 43q0 21 -12.5 42.5t-39.5 21.5t-39.5 -21t-12.5 -43q0 -21 12 -42.5
t40 -21.5zM189 225q-22 -58 -36.5 -99t-14.5 -58q0 -13 7 -20t17.5 -11t23 -5t23.5 -2q8 -1 9 -4.5t1 -14.5q0 -6 -1.5 -9.5t-9.5 -3.5q-12 0 -42 1t-62 1q-38 0 -59 -1t-32 -1q-8 0 -10 3t-2 10q0 11 1 13.5t9 4.5q27 6 47.5 41t51.5 104q6 13 18 39.5t27.5 59.5t32 69.5
t31 69t26.5 58t17 37.5q12 28 23 56.5t21 60.5q1 3 4 5.5t12 2.5q2 0 9.5 1.5t17 3t18 2.5t11.5 1q5 0 6.5 -4.5t6.5 -21.5q4 -14 19 -57.5t37 -101.5t47.5 -123t49 -122t42 -99.5t26.5 -54.5q11 -16 21 -20.5t25 -6.5q5 -2 6 -4t1 -11q0 -10 -1.5 -13t-8.5 -3q-6 0 -22 0.5
t-34 0.5t-33.5 0.5t-21.5 0.5q-31 0 -52.5 -0.5t-35 -0.5t-21 -0.5t-12.5 -0.5q-10 0 -12 3t-2 10q0 13 3 15t17 4q19 2 35 7.5t16 25.5q0 7 -6.5 29t-15.5 48t-17.5 50t-12.5 35h-239zM314 526q-29 -67 -58 -136.5t-52 -126.5q11 0 39 -0.5t61 -0.5h63.5t46.5 1
q-5 14 -19.5 51t-30.5 79t-30 79.5t-20 53.5z" />
    <glyph glyph-name="AE" unicode="&#xc6;" horiz-adv-x="963" 
d="M588 352h42.5t57 0.5t55.5 2t37 4.5q26 7 32.5 20t11.5 42q1 8 3.5 10.5t13.5 2.5t13 -2t2 -7q0 -6 -0.5 -22t-1 -33.5t-1 -32.5t-0.5 -21q0 -5 0.5 -16.5t1 -24.5t1 -24.5t0.5 -16.5q0 -8 -2 -10t-12 -2q-13 0 -15 2t-4 15q-2 20 -9.5 37.5t-33.5 24.5q-12 3 -25.5 5
t-34.5 3t-52.5 1h-79.5v-119.5t0.5 -67.5t1.5 -33t3 -16q4 -18 23 -23t70 -5q50 0 84 3.5t57.5 14t39 29.5t28.5 51q9 23 11.5 27.5t6.5 4.5t14.5 -2.5t10.5 -10.5q0 -5 -3 -21t-7.5 -36.5t-10 -42t-10.5 -37.5q-5 -19 -8.5 -23.5t-12.5 -4.5q-14 0 -39 0.5t-54.5 1t-60.5 1
t-58 0.5q-58 0 -101 -0.5t-74.5 -1t-52 -1t-34.5 -0.5q-13 0 -15 2t-2 13t2.5 13t17.5 4q19 2 30.5 6.5t18 16t9.5 31t5 51.5q1 7 1.5 24t1 35.5t1 34.5t0.5 22h-218q-32 -49 -54.5 -84t-36.5 -61q-10 -17 -13.5 -27t-3.5 -18q0 -16 13 -21.5t42 -7.5q15 -2 18.5 -4t3.5 -15
q0 -11 -3 -13t-12 -2q-3 0 -13 0.5t-24.5 1t-32 1t-35.5 0.5q-45 0 -65 -1.5t-33 -1.5q-6 0 -9 3t-3 12q0 10 2.5 12.5t13.5 5.5q8 3 14.5 6t16 13t24.5 28.5t40 52.5l62.5 85t91.5 126q12 17 34 47.5t44.5 63t42.5 60t27 38.5q5 9 11 19t6 18q0 16 -35 17q-11 0 -14 2
t-3 13q0 12 4.5 14t21.5 2q8 0 21.5 -0.5t39.5 -1t68 -1t107 -0.5q50 0 95 0.5t80.5 1t59 1t29.5 0.5q4 0 7 -1.5t3 -7.5q0 -3 -1 -11.5t-2 -18t-2 -17.5t-1 -11q-3 -26 -4 -44.5t-2 -39.5q0 -5 -2.5 -7t-14.5 -2t-14.5 3t-4.5 17q-3 28 -7.5 46t-20 29t-48 15.5t-91.5 4.5
h-24.5t-34 -1t-32 -3t-17.5 -5q-4 -4 -5 -26.5t-1 -39.5v-164zM482 576q-13 -17 -39 -55t-55 -81.5t-56 -84.5t-42 -63q18 0 42.5 -0.5t51 -0.5t52.5 0.5t46 0.5v284z" />
    <glyph glyph-name="Ccedilla" unicode="&#xc7;" horiz-adv-x="685" 
d="M601 632q3 0 12 3t11 3q9 0 12 -1.5t3 -4.5q0 -1 -1.5 -10.5t-3.5 -21.5t-4 -23t-2 -16q-4 -31 -5 -50t-3 -44q0 -11 -15 -11q-14 0 -17.5 4.5t-5.5 22.5q-5 46 -17 63.5t-25 25.5q-12 8 -28 13.5t-34 9t-36.5 5t-34.5 1.5q-50 0 -93.5 -17t-75.5 -51t-50 -86t-18 -121
q0 -75 19.5 -130.5t53.5 -92.5t78.5 -55t94.5 -18q44 0 74.5 10.5t52 26t35.5 35t26 37.5q5 7 10 7q3 0 13.5 -2t10.5 -9l-3.5 -12t-7.5 -26.5t-7.5 -28t-4.5 -17.5q-7 -23 -9.5 -29.5t-8.5 -8.5q-23 -9 -70 -16t-98 -8l-6 -9t-8 -12.5t-7 -12t-3 -7.5q0 -7 19 -18
q17 -10 33.5 -25t16.5 -44q0 -15 -8.5 -33t-23.5 -33t-36 -25.5t-46 -10.5q-32 0 -45.5 13.5t-13.5 24.5q0 9 8 22.5t20 13.5q6 0 11.5 -2t23.5 -13q11 -6 17 -7.5t10 -1.5q18 0 22 10t4 12q0 14 -11 25t-34 24q-24 14 -29.5 18t-5.5 9q0 6 3 10.5t15 20.5q19 25 41 50
q-48 2 -94.5 10.5t-88.5 28.5q-45 22 -76.5 54.5t-51 70.5t-28 79t-8.5 80q0 47 9.5 85.5t24.5 69.5t33.5 53.5t36.5 38.5q47 42 113.5 65t159.5 23q15 0 28.5 -0.5t30.5 -2t40 -3.5t57 -6z" />
    <glyph glyph-name="Egrave" unicode="&#xc8;" horiz-adv-x="593" 
d="M213 862q8 0 14.5 -3.5t24.5 -22.5l23 -23t18.5 -19t22 -22.5t33.5 -32.5q2 -1 6.5 -6t9.5 -10l9 -9t4 -5q0 -4 -10 -5t-12 -1q-8 0 -18 5l-18 9q-40 23 -65.5 36.5t-41 22.5t-25.5 14.5t-20 11.5q-11 5 -22 13.5t-11 16.5q0 7 11 12.5t24.5 9.5t26.5 6t16 2zM123 333v52
t-0.5 65t-1 63t-1.5 46q-2 27 -16 35.5t-43 9.5q-11 0 -14 2t-3 13q0 12 5 14.5t11 2.5q38 0 68.5 -1.5t75.5 -1.5q43 0 89 0.5t89.5 1t81 1t63.5 0.5q8 0 14 -1.5t6 -6.5q0 -1 -1 -9.5t-2 -19t-2.5 -20t-1.5 -13.5q-1 -8 -1.5 -14.5t-1 -14.5t-1 -20t-1.5 -32q0 -5 -3 -7
t-14 -2q-12 0 -14 3.5t-4 18.5q-3 27 -7.5 45t-20 29t-47 15.5t-88.5 4.5h-21.5t-32.5 -1t-31 -3t-17 -6q-2 -2 -3 -9t-1.5 -17t-0.5 -20.5v-19.5v-33.5v-49.5v-49v-32q80 0 124 1.5t65 8t26 21t9 39.5q2 7 4 9.5t13 2.5q10 0 12 -2t2 -7q0 -26 -1 -51.5t-1 -58.5
q0 -32 1 -52.5t1 -28.5q0 -7 -2 -9.5t-11 -2.5q-13 0 -15 3t-3 14q-2 19 -9.5 37t-33.5 25q-12 3 -24.5 5t-32.5 2.5t-49.5 1t-75.5 0.5v-49.5t0.5 -74.5t1.5 -71.5t3 -40.5q4 -16 20.5 -22t65.5 -6t82.5 3.5t56.5 14t38 29.5t28 50q8 21 11 27t7 6t14.5 -2.5t10.5 -10.5
q0 -5 -3 -21t-7.5 -36.5t-10 -42t-10.5 -37.5q-5 -19 -7.5 -23.5t-13.5 -4.5q-6 0 -18 0.5t-41 1t-80 1t-136 0.5t-126.5 -1.5t-61.5 -1.5q-13 0 -15 2t-2 13t2.5 12.5t19.5 3.5q31 3 44 14t17 49q2 19 2.5 52t1 68.5t0.5 68.5v52z" />
    <glyph glyph-name="Eacute" unicode="&#xc9;" horiz-adv-x="593" 
d="M409 862q4 0 16.5 -2t26 -6t24.5 -9.5t11 -11.5q0 -5 -1.5 -8.5t-7 -8t-16.5 -10.5t-29 -16q-15 -8 -33.5 -19t-38 -22t-38.5 -21t-35 -18q-10 -5 -14 -6t-8 -1q-2 0 -12 1t-10 4q0 2 12 14l27.5 27.5t30.5 29.5t20 20q18 19 29 30l17 17l8.5 8.5t5.5 3.5q2 2 5.5 3
t9.5 1zM123 333v52t-0.5 65t-1 63t-1.5 46q-2 27 -16 35.5t-43 9.5q-11 0 -14 2t-3 13q0 12 5 14.5t11 2.5q38 0 68.5 -1.5t75.5 -1.5q43 0 89 0.5t89.5 1t81 1t63.5 0.5q8 0 14 -1.5t6 -6.5q0 -1 -1 -9.5t-2 -19t-2.5 -20t-1.5 -13.5q-1 -8 -1.5 -14.5t-1 -14.5t-1 -20
t-1.5 -32q0 -5 -3 -7t-14 -2q-12 0 -14 3.5t-4 18.5q-3 27 -7.5 45t-20 29t-47 15.5t-88.5 4.5h-21.5t-32.5 -1t-31 -3t-17 -6q-2 -2 -3 -9t-1.5 -17t-0.5 -20.5v-19.5v-33.5v-49.5v-49v-32q80 0 124 1.5t65 8t26 21t9 39.5q2 7 4 9.5t13 2.5q10 0 12 -2t2 -7
q0 -26 -1 -51.5t-1 -58.5q0 -32 1 -52.5t1 -28.5q0 -7 -2 -9.5t-11 -2.5q-13 0 -15 3t-3 14q-2 19 -9.5 37t-33.5 25q-12 3 -24.5 5t-32.5 2.5t-49.5 1t-75.5 0.5v-49.5t0.5 -74.5t1.5 -71.5t3 -40.5q4 -16 20.5 -22t65.5 -6t82.5 3.5t56.5 14t38 29.5t28 50q8 21 11 27t7 6
t14.5 -2.5t10.5 -10.5q0 -5 -3 -21t-7.5 -36.5t-10 -42t-10.5 -37.5q-5 -19 -7.5 -23.5t-13.5 -4.5q-6 0 -18 0.5t-41 1t-80 1t-136 0.5t-126.5 -1.5t-61.5 -1.5q-13 0 -15 2t-2 13t2.5 12.5t19.5 3.5q31 3 44 14t17 49q2 19 2.5 52t1 68.5t0.5 68.5v52z" />
    <glyph glyph-name="Ecircumflex" unicode="&#xca;" horiz-adv-x="593" 
d="M310 876q13 0 20.5 -6.5t23.5 -25.5q25 -31 47 -54.5t56 -56.5q9 -10 11 -12.5t2 -4.5q0 -4 -6.5 -11.5t-11.5 -7.5q-4 0 -26 15t-47 32.5t-46.5 32.5t-24.5 15q-2 0 -23 -15t-46.5 -33.5t-47.5 -33.5t-26 -15q-5 0 -12.5 6.5t-7.5 10.5q0 2 3 6t7.5 8.5l8.5 8.5l6 6
q9 9 22.5 23t27 29t26.5 29.5t21 24.5q14 18 22 23.5t21 5.5zM123 333v52t-0.5 65t-1 63t-1.5 46q-2 27 -16 35.5t-43 9.5q-11 0 -14 2t-3 13q0 12 5 14.5t11 2.5q38 0 68.5 -1.5t75.5 -1.5q43 0 89 0.5t89.5 1t81 1t63.5 0.5q8 0 14 -1.5t6 -6.5q0 -1 -1 -9.5t-2 -19
t-2.5 -20t-1.5 -13.5q-1 -8 -1.5 -14.5t-1 -14.5t-1 -20t-1.5 -32q0 -5 -3 -7t-14 -2q-12 0 -14 3.5t-4 18.5q-3 27 -7.5 45t-20 29t-47 15.5t-88.5 4.5h-21.5t-32.5 -1t-31 -3t-17 -6q-2 -2 -3 -9t-1.5 -17t-0.5 -20.5v-19.5v-33.5v-49.5v-49v-32q80 0 124 1.5t65 8t26 21
t9 39.5q2 7 4 9.5t13 2.5q10 0 12 -2t2 -7q0 -26 -1 -51.5t-1 -58.5q0 -32 1 -52.5t1 -28.5q0 -7 -2 -9.5t-11 -2.5q-13 0 -15 3t-3 14q-2 19 -9.5 37t-33.5 25q-12 3 -24.5 5t-32.5 2.5t-49.5 1t-75.5 0.5v-49.5t0.5 -74.5t1.5 -71.5t3 -40.5q4 -16 20.5 -22t65.5 -6
t82.5 3.5t56.5 14t38 29.5t28 50q8 21 11 27t7 6t14.5 -2.5t10.5 -10.5q0 -5 -3 -21t-7.5 -36.5t-10 -42t-10.5 -37.5q-5 -19 -7.5 -23.5t-13.5 -4.5q-6 0 -18 0.5t-41 1t-80 1t-136 0.5t-126.5 -1.5t-61.5 -1.5q-13 0 -15 2t-2 13t2.5 12.5t19.5 3.5q31 3 44 14t17 49
q2 19 2.5 52t1 68.5t0.5 68.5v52z" />
    <glyph glyph-name="Edieresis" unicode="&#xcb;" horiz-adv-x="593" 
d="M416 824q20 0 36.5 -16t16.5 -36q0 -22 -17 -37.5t-36 -15.5t-36.5 15t-17.5 38q0 22 17.5 37t36.5 15zM200 824q20 0 36.5 -16t16.5 -36q0 -22 -17 -37.5t-37 -15.5q-18 0 -35.5 15t-17.5 38q0 22 17.5 37t36.5 15zM123 333v52t-0.5 65t-1 63t-1.5 46q-2 27 -16 35.5
t-43 9.5q-11 0 -14 2t-3 13q0 12 5 14.5t11 2.5q38 0 68.5 -1.5t75.5 -1.5q43 0 89 0.5t89.5 1t81 1t63.5 0.5q8 0 14 -1.5t6 -6.5q0 -1 -1 -9.5t-2 -19t-2.5 -20t-1.5 -13.5q-1 -8 -1.5 -14.5t-1 -14.5t-1 -20t-1.5 -32q0 -5 -3 -7t-14 -2q-12 0 -14 3.5t-4 18.5
q-3 27 -7.5 45t-20 29t-47 15.5t-88.5 4.5h-21.5t-32.5 -1t-31 -3t-17 -6q-2 -2 -3 -9t-1.5 -17t-0.5 -20.5v-19.5v-33.5v-49.5v-49v-32q80 0 124 1.5t65 8t26 21t9 39.5q2 7 4 9.5t13 2.5q10 0 12 -2t2 -7q0 -26 -1 -51.5t-1 -58.5q0 -32 1 -52.5t1 -28.5q0 -7 -2 -9.5
t-11 -2.5q-13 0 -15 3t-3 14q-2 19 -9.5 37t-33.5 25q-12 3 -24.5 5t-32.5 2.5t-49.5 1t-75.5 0.5v-49.5t0.5 -74.5t1.5 -71.5t3 -40.5q4 -16 20.5 -22t65.5 -6t82.5 3.5t56.5 14t38 29.5t28 50q8 21 11 27t7 6t14.5 -2.5t10.5 -10.5q0 -5 -3 -21t-7.5 -36.5t-10 -42
t-10.5 -37.5q-5 -19 -7.5 -23.5t-13.5 -4.5q-6 0 -18 0.5t-41 1t-80 1t-136 0.5t-126.5 -1.5t-61.5 -1.5q-13 0 -15 2t-2 13t2.5 12.5t19.5 3.5q31 3 44 14t17 49q2 19 2.5 52t1 68.5t0.5 68.5v52z" />
    <glyph glyph-name="Igrave" unicode="&#xcc;" horiz-adv-x="352" 
d="M104 862q8 0 14.5 -3.5t24.5 -22.5l23 -23t18.5 -19t22 -22.5t33.5 -32.5q1 -1 5.5 -6t9.5 -10l9 -9t4 -5q0 -4 -9.5 -5t-11.5 -1q-8 0 -18 5l-18 9q-40 23 -65.5 36.5t-41 22.5t-25.5 14.5t-20 11.5q-11 5 -22 13.5t-11 16.5q0 7 11 12.5t24.5 9.5t26.5 6t16 2zM228 336
q0 -110 1 -170.5t6.5 -89.5t16 -35.5t29.5 -9.5q3 0 9.5 -0.5t14 -1t14 -1t8.5 -1.5q3 -1 3.5 -5.5t0.5 -10.5q0 -8 -2 -10t-7 -2q-8 0 -28.5 0.5t-43 0.5t-42 0.5t-27.5 0.5q-9 0 -30 -0.5t-44.5 -0.5t-44.5 -0.5t-29 -0.5t-10.5 2.5t-2.5 11.5q0 12 4 14t21 4q25 2 39 9
t21 19t9.5 28t3.5 35q2 24 3 65.5t1.5 86.5t0.5 88v70q0 62 -2 96.5t-9.5 51t-23.5 20t-45 4.5q-15 1 -17.5 3t-2.5 14q0 11 3 13t12 2q8 0 28 -0.5t42 -0.5t42 -0.5t27 -0.5q8 0 28.5 0.5t43 0.5t43 0.5t27.5 0.5t10 -2t3 -11q0 -14 -3 -16.5t-18 -3.5q-22 -1 -36 -4.5
t-22.5 -11.5t-13 -22t-6.5 -35q-1 -10 -2 -24t-1.5 -36t-1 -54.5t-0.5 -79.5z" />
    <glyph glyph-name="Iacute" unicode="&#xcd;" horiz-adv-x="352" 
d="M260 862q4 0 17 -2t26.5 -6t24.5 -9.5t11 -11.5q0 -5 -1.5 -8.5t-7.5 -8t-16.5 -10.5t-28.5 -16q-15 -8 -34 -19t-38.5 -22t-38.5 -21t-34 -18q-10 -5 -14 -6t-9 -1q-2 0 -11.5 1t-9.5 4q0 2 12 14l27.5 27.5t30 29.5t19.5 20l30 30l17 17l8.5 8.5t4.5 3.5q3 2 6.5 3
t8.5 1zM228 336q0 -110 1 -170.5t6.5 -89.5t16 -35.5t29.5 -9.5q3 0 9.5 -0.5t14 -1t14 -1t8.5 -1.5q3 -1 3.5 -5.5t0.5 -10.5q0 -8 -2 -10t-7 -2q-8 0 -28.5 0.5t-43 0.5t-42 0.5t-27.5 0.5q-9 0 -30 -0.5t-44.5 -0.5t-44.5 -0.5t-29 -0.5t-10.5 2.5t-2.5 11.5q0 12 4 14
t21 4q25 2 39 9t21 19t9.5 28t3.5 35q2 24 3 65.5t1.5 86.5t0.5 88v70q0 62 -2 96.5t-9.5 51t-23.5 20t-45 4.5q-15 1 -17.5 3t-2.5 14q0 11 3 13t12 2q8 0 28 -0.5t42 -0.5t42 -0.5t27 -0.5q8 0 28.5 0.5t43 0.5t43 0.5t27.5 0.5t10 -2t3 -11q0 -14 -3 -16.5t-18 -3.5
q-22 -1 -36 -4.5t-22.5 -11.5t-13 -22t-6.5 -35q-1 -10 -2 -24t-1.5 -36t-1 -54.5t-0.5 -79.5z" />
    <glyph glyph-name="Icircumflex" unicode="&#xce;" horiz-adv-x="352" 
d="M178 876q14 0 21.5 -6.5t22.5 -25.5q24 -29 50.5 -57t52.5 -55l11.5 -11.5t2.5 -4.5q0 -4 -7 -11.5t-12 -7.5q-4 0 -25.5 15t-46.5 32.5t-46.5 32.5t-24.5 15t-24 -15t-46.5 -33.5t-47.5 -33.5t-26 -15q-5 0 -12.5 6.5t-7.5 10.5q0 2 3.5 6t8 8.5l8.5 8.5l6 6
q11 11 24 25l26 28t25.5 28t21.5 25q15 18 22.5 23.5t19.5 5.5zM228 336q0 -110 1 -170.5t6.5 -89.5t16 -35.5t29.5 -9.5q3 0 9.5 -0.5t14 -1t14 -1t8.5 -1.5q3 -1 3.5 -5.5t0.5 -10.5q0 -8 -2 -10t-7 -2q-8 0 -28.5 0.5t-43 0.5t-42 0.5t-27.5 0.5q-9 0 -30 -0.5
t-44.5 -0.5t-44.5 -0.5t-29 -0.5t-10.5 2.5t-2.5 11.5q0 12 4 14t21 4q25 2 39 9t21 19t9.5 28t3.5 35q2 24 3 65.5t1.5 86.5t0.5 88v70q0 62 -2 96.5t-9.5 51t-23.5 20t-45 4.5q-15 1 -17.5 3t-2.5 14q0 11 3 13t12 2q8 0 28 -0.5t42 -0.5t42 -0.5t27 -0.5q8 0 28.5 0.5
t43 0.5t43 0.5t27.5 0.5t10 -2t3 -11q0 -14 -3 -16.5t-18 -3.5q-22 -1 -36 -4.5t-22.5 -11.5t-13 -22t-6.5 -35q-1 -10 -2 -24t-1.5 -36t-1 -54.5t-0.5 -79.5z" />
    <glyph glyph-name="Idieresis" unicode="&#xcf;" horiz-adv-x="352" 
d="M273 824q20 0 36.5 -16t16.5 -36q0 -21 -16.5 -37t-36.5 -16q-19 0 -36.5 15t-17.5 38q0 22 18 37t36 15zM79 824q20 0 36.5 -16t16.5 -36q0 -22 -17 -37.5t-36 -15.5q-18 0 -36 15t-18 38q0 22 18 37t36 15zM228 336q0 -110 1 -170.5t6.5 -89.5t16 -35.5t29.5 -9.5
q3 0 9.5 -0.5t14 -1t14 -1t8.5 -1.5q3 -1 3.5 -5.5t0.5 -10.5q0 -8 -2 -10t-7 -2q-8 0 -28.5 0.5t-43 0.5t-42 0.5t-27.5 0.5q-9 0 -30 -0.5t-44.5 -0.5t-44.5 -0.5t-29 -0.5t-10.5 2.5t-2.5 11.5q0 12 4 14t21 4q25 2 39 9t21 19t9.5 28t3.5 35q2 24 3 65.5t1.5 86.5
t0.5 88v70q0 62 -2 96.5t-9.5 51t-23.5 20t-45 4.5q-15 1 -17.5 3t-2.5 14q0 11 3 13t12 2q8 0 28 -0.5t42 -0.5t42 -0.5t27 -0.5q8 0 28.5 0.5t43 0.5t43 0.5t27.5 0.5t10 -2t3 -11q0 -14 -3 -16.5t-18 -3.5q-22 -1 -36 -4.5t-22.5 -11.5t-13 -22t-6.5 -35q-1 -10 -2 -24
t-1.5 -36t-1 -54.5t-0.5 -79.5z" />
    <glyph glyph-name="Eth" unicode="&#xd0;" horiz-adv-x="778" 
d="M35 341q0 5 0.5 6t5.5 1t16.5 -0.5t24.5 -0.5t25 -0.5t16 -0.5q0 91 -0.5 141.5t-5 75t-14.5 31t-28 8.5l-17 2q-14 1 -16 3t-2 14q0 11 3 12.5t13 1.5h73t66 1q11 0 36.5 0.5t54.5 1.5t54.5 1.5t35.5 0.5q102 0 170 -29t108.5 -73.5t57.5 -99t17 -105.5q0 -22 -5 -60.5
t-24 -82t-57 -85.5t-104 -72q-30 -13 -77.5 -24t-131.5 -11q-10 0 -44.5 1t-105.5 1q-30 0 -63 -1t-65 -1q-13 1 -15 2.5t-2 14.5q0 10 3 12t17 4q33 5 45.5 18.5t17.5 43.5q3 25 4 79.5t1 129.5q-5 0 -18.5 -0.5t-27.5 -0.5h-25.5h-13.5q-3 0 -3 5v35zM370 302
q-9 0 -30.5 0.5t-44 0.5h-41.5h-24v-45.5t0.5 -59t1 -58t1.5 -42.5q2 -15 6 -26t15.5 -19t31.5 -12t53 -4q59 0 108.5 19t85.5 55.5t56.5 90t20.5 122.5q0 66 -21 126.5t-72 100.5q-28 23 -69 36.5t-107 13.5q-38 0 -59 -4t-31.5 -11.5t-13 -18.5t-4.5 -25q-1 -7 -1.5 -13.5
t-0.5 -25t-0.5 -55t-0.5 -103.5h106.5t65.5 1h8t6 -1t1 -14.5v-23.5q0 -6 -5 -6z" />
    <glyph glyph-name="Ntilde" unicode="&#xd1;" horiz-adv-x="778" 
d="M337 837q21 0 38 -6.5t47 -20.5t44 -18.5t32 -4.5q23 0 39 9t33 31q2 2 5 2.5t9 -2.5q5 -2 8 -4t2 -4q0 -2 -3 -7.5t-7 -11.5l-8 -12l-6 -9q-29 -40 -53 -50.5t-44 -10.5q-22 0 -41 7.5t-56 24.5q-14 6 -30 12t-37 6q-20 0 -31.5 -5.5t-19.5 -13.5q-3 -3 -12 -13.5
t-11 -10.5q-6 2 -10 5l-7 3.5t-3 3.5q0 1 8 15t17 26q20 26 44 42.5t53 16.5zM666 200v-26v-36.5t0.5 -38.5t1.5 -33q2 -21 3.5 -37.5t1.5 -21.5q0 -2 -0.5 -4.5t-5.5 -4.5q-7 -3 -16 -8t-13 -5t-7.5 4.5t-16.5 23.5q-14 20 -32 42t-45 52t-66.5 72t-96.5 102q-22 23 -50 53
l-56 60t-52 57.5t-38 44.5q0 -18 -0.5 -51t0 -73.5t0.5 -84t0.5 -81.5t1.5 -67t2 -40q2 -18 6.5 -30.5t13.5 -20.5t25 -12.5t42 -5.5q17 -1 20.5 -3t3.5 -13q0 -12 -3 -14t-11 -2q-6 0 -22.5 0.5t-36 0.5t-39.5 0.5t-34 0.5q-18 0 -37.5 -0.5t-36 -0.5t-29 -0.5t-17.5 -0.5
q-6 0 -9.5 2.5t-3.5 13.5t3.5 13.5t20.5 4.5q23 3 36.5 10.5t21 20.5t11 30.5t5.5 39.5t4 55.5t3 70.5t2 74.5t1.5 68t0.5 50.5v23q0 21 -1.5 42.5t-9.5 39.5t-24 30t-46 15q-16 2 -19.5 3.5t-3.5 11.5q0 14 2.5 16.5t10.5 2.5q24 0 46 -1t38 -1q19 0 37 1t41 1
q5 0 16.5 -17.5t28.5 -38.5q14 -17 43.5 -49.5t67 -72.5t78 -83.5t77.5 -83t66 -71t42 -46.5v40v58v66v63.5t-0.5 51.5t-0.5 29q-1 36 -4 59t-12 36.5t-25 19.5t-43 8q-17 1 -20.5 3t-3.5 13q0 8 2 11.5t11 3.5q10 0 45 -1t92 -1q28 0 46.5 0.5t31 0.5t20.5 0.5t15 0.5
q5 0 7 -2.5t2 -12.5q0 -9 -1 -12t-7 -4q-25 -4 -41 -8.5t-26.5 -14.5t-16 -28t-8.5 -49q-2 -19 -3.5 -63t-3 -92t-2.5 -90.5t-1 -59.5z" />
    <glyph glyph-name="Ograve" unicode="&#xd2;" horiz-adv-x="796" 
d="M49 311q0 94 36 158t89.5 103.5t116 56.5t115.5 17q74 0 136.5 -23.5t108 -66t71 -102.5t25.5 -132q0 -69 -25.5 -130t-72 -106.5t-113 -71.5t-149.5 -26q-82 0 -145 26.5t-106 71t-65 103t-22 122.5zM167 340q0 -71 19.5 -128t53 -96.5t78.5 -60.5t96 -21q36 0 74 12.5
t69.5 42t51.5 79t20 123.5q0 71 -19 128.5t-52.5 97.5t-79 61.5t-97.5 21.5q-58 0 -99 -22t-66.5 -58.5t-37 -83t-11.5 -96.5zM321 862q8 0 14.5 -3.5t23.5 -22.5l23 -23l19 -19l22.5 -22.5l32.5 -32.5q2 -1 6.5 -6t9.5 -10l9 -9t4 -5q0 -4 -9.5 -5t-12.5 -1q-8 0 -18 5
t-17 9q-41 23 -66 36.5t-41 22.5t-26 14.5t-20 11.5q-11 5 -22 13.5t-11 16.5q0 7 11 12.5t25 9.5t26.5 6t16.5 2z" />
    <glyph glyph-name="Oacute" unicode="&#xd3;" horiz-adv-x="796" 
d="M49 311q0 94 36 158t89.5 103.5t116 56.5t115.5 17q74 0 136.5 -23.5t108 -66t71 -102.5t25.5 -132q0 -69 -25.5 -130t-72 -106.5t-113 -71.5t-149.5 -26q-82 0 -145 26.5t-106 71t-65 103t-22 122.5zM167 340q0 -71 19.5 -128t53 -96.5t78.5 -60.5t96 -21q36 0 74 12.5
t69.5 42t51.5 79t20 123.5q0 71 -19 128.5t-52.5 97.5t-79 61.5t-97.5 21.5q-58 0 -99 -22t-66.5 -58.5t-37 -83t-11.5 -96.5zM483 862q4 0 16.5 -2t26 -6t24.5 -9.5t11 -11.5q0 -5 -1.5 -8.5t-7 -8t-16.5 -10.5t-29 -16q-15 -8 -34 -19t-38.5 -22t-38.5 -21t-34 -18
q-10 -5 -14 -6t-8 -1q-2 0 -12 1t-10 4q0 2 12 14l27.5 27.5t30.5 29.5t20 20q18 19 29 30l17 17l8.5 8.5t4.5 3.5q3 2 6.5 3t9.5 1z" />
    <glyph glyph-name="Ocircumflex" unicode="&#xd4;" horiz-adv-x="796" 
d="M49 311q0 94 36 158t89.5 103.5t116 56.5t115.5 17q74 0 136.5 -23.5t108 -66t71 -102.5t25.5 -132q0 -69 -25.5 -130t-72 -106.5t-113 -71.5t-149.5 -26q-82 0 -145 26.5t-106 71t-65 103t-22 122.5zM167 340q0 -71 19.5 -128t53 -96.5t78.5 -60.5t96 -21q36 0 74 12.5
t69.5 42t51.5 79t20 123.5q0 71 -19 128.5t-52.5 97.5t-79 61.5t-97.5 21.5q-58 0 -99 -22t-66.5 -58.5t-37 -83t-11.5 -96.5zM400 876q14 0 21.5 -6.5t23.5 -25.5q25 -31 52 -59.5t51 -52.5q9 -9 11 -11.5t2 -4.5q0 -3 -6.5 -11t-11.5 -8q-4 0 -26 15t-47 32.5t-46.5 32.5
t-24.5 15q-2 0 -23.5 -15t-47 -33.5t-47.5 -33.5t-26 -15q-5 0 -12.5 7t-7.5 10q0 1 3.5 5t8 9t8.5 9.5t6 5.5q21 21 49 51.5t48 54.5q14 18 22 23.5t20 5.5z" />
    <glyph glyph-name="Otilde" unicode="&#xd5;" horiz-adv-x="796" 
d="M49 311q0 94 36 158t89.5 103.5t116 56.5t115.5 17q74 0 136.5 -23.5t108 -66t71 -102.5t25.5 -132q0 -69 -25.5 -130t-72 -106.5t-113 -71.5t-149.5 -26q-82 0 -145 26.5t-106 71t-65 103t-22 122.5zM167 340q0 -71 19.5 -128t53 -96.5t78.5 -60.5t96 -21q36 0 74 12.5
t69.5 42t51.5 79t20 123.5q0 71 -19 128.5t-52.5 97.5t-79 61.5t-97.5 21.5q-58 0 -99 -22t-66.5 -58.5t-37 -83t-11.5 -96.5zM329 837q21 0 38 -6.5t47 -20.5t44 -18.5t32 -4.5q23 0 39 9t33 31q2 2 5 2.5t9 -2.5q5 -2 8 -4t2 -4q0 -2 -3 -7.5t-7 -11.5l-8 -12l-6 -9
q-29 -40 -53 -50.5t-44 -10.5q-22 0 -41 7.5t-56 24.5q-14 6 -30 12t-37 6q-20 0 -31.5 -5.5t-19.5 -13.5q-3 -3 -12 -13.5t-11 -10.5q-6 2 -10 5l-7 3.5t-3 3.5q0 1 8 15t17 26q20 26 44 42.5t53 16.5z" />
    <glyph glyph-name="Odieresis" unicode="&#xd6;" horiz-adv-x="796" 
d="M49 311q0 94 36 158t89.5 103.5t116 56.5t115.5 17q74 0 136.5 -23.5t108 -66t71 -102.5t25.5 -132q0 -69 -25.5 -130t-72 -106.5t-113 -71.5t-149.5 -26q-82 0 -145 26.5t-106 71t-65 103t-22 122.5zM167 340q0 -71 19.5 -128t53 -96.5t78.5 -60.5t96 -21q36 0 74 12.5
t69.5 42t51.5 79t20 123.5q0 71 -19 128.5t-52.5 97.5t-79 61.5t-97.5 21.5q-58 0 -99 -22t-66.5 -58.5t-37 -83t-11.5 -96.5zM507 824q20 0 36.5 -16t16.5 -36q0 -21 -17 -37t-37 -16q-19 0 -36 15t-17 38q0 22 17.5 37t36.5 15zM290 824q20 0 36.5 -15.5t16.5 -36.5
q0 -22 -17 -37.5t-36 -15.5t-36.5 15t-17.5 38q0 22 17.5 37t36.5 15z" />
    <glyph glyph-name="multiply" unicode="&#xd7;" 
d="M87 448l-8 8t-6 7t6 7.5t13 14t13.5 13.5t7.5 6q2 0 7.5 -6t7.5 -8l75.5 -75.5l55.5 -55.5q20 20 45.5 45t47.5 47.5t37.5 37.5l15.5 15q1 0 7.5 -6t14 -13.5t13.5 -14t6 -7.5l-8.5 -8.5l-19 -19l-20 -20l-12.5 -12.5q-5 -5 -17 -17.5t-25.5 -26l-25.5 -25.5l-17 -17
l38.5 -38.5l48 -48t41 -41.5l17.5 -18q0 -1 -6 -7.5t-13.5 -13.5t-14 -13t-7.5 -6t-3.5 2t-11.5 12q-13 14 -30 31t-35 34.5t-35 35t-31 30.5q-13 -13 -30.5 -30t-35 -35t-34.5 -35l-31 -31q-2 -2 -7.5 -8t-7.5 -6q-1 0 -7.5 6t-13.5 13t-13 13.5t-6 7.5q0 2 6 7.5t8 7.5
l131 131z" />
    <glyph glyph-name="Oslash" unicode="&#xd8;" horiz-adv-x="796" 
d="M134 -50q-2 -2 -15 -2h-17h-16q-2 0 -6.5 0.5t-4.5 2.5q0 1 7.5 10t9.5 11q21 26 39.5 49t31.5 40q-34 28 -56 60.5t-35 66.5t-18 67t-5 61q0 81 31 142.5t81.5 103.5t115 63t131.5 21q51 0 99 -11.5t92 -37.5q4 5 13.5 17.5t20 26t18.5 24t9 11.5q2 2 14 2h17h14.5
t13.5 -1q1 0 1 -1q1 -1 1 -2q0 -2 -11.5 -15.5t-20.5 -23.5q-14 -17 -25 -30t-28 -33q39 -33 61 -70.5t33.5 -72t14 -63t2.5 -43.5q0 -70 -25.5 -131.5t-73 -106.5t-114 -71t-147.5 -26q-51 0 -97.5 11t-90.5 37zM226 130q15 18 43 53t61 77.5t68.5 87.5t66 84t52 67
t27.5 36q-7 6 -20.5 17.5t-33.5 22.5t-47.5 19t-62.5 8q-55 0 -96 -20.5t-67.5 -56.5t-39.5 -84t-13 -102q0 -56 15 -109.5t47 -99.5zM572 501q-16 -20 -27.5 -33.5t-26.5 -33.5q-67 -85 -132.5 -168t-131.5 -168q7 -7 20.5 -18t33 -21.5t46 -18t60.5 -7.5q38 0 76.5 13.5
t70 43.5t51.5 79t20 121q0 56 -13.5 110.5t-46.5 100.5z" />
    <glyph glyph-name="Ugrave" unicode="&#xd9;" horiz-adv-x="722" 
d="M283 862q9 0 15.5 -3.5t23.5 -22.5q15 -15 25.5 -26t22.5 -23t29 -28t44 -43q5 -5 5 -7q0 -4 -9.5 -5t-12.5 -1q-4 0 -13 4t-20 9.5t-21 11t-16 8.5q-9 5 -27 15.5t-37 21t-34.5 19t-19.5 10.5q-11 5 -22 13.5t-11 16.5q0 7 11 12.5t24.5 9.5t26.5 6t16 2zM380 54
q53 0 100.5 18.5t73.5 63.5q17 31 20 77t3 112v53.5t-1 70.5t-3.5 68t-6.5 46q-8 26 -29.5 32.5t-52.5 9.5q-9 1 -11.5 3t-2.5 11q0 12 3 14.5t9 2.5q7 0 24.5 -0.5t36.5 -1t36 -1t23 -0.5t21.5 0.5t32.5 1t31.5 1t20.5 0.5q8 0 9.5 -3t1.5 -11q0 -11 -3.5 -13.5t-18.5 -5.5
q-22 -4 -34 -13.5t-18 -36.5t-7.5 -78t-2.5 -138q-1 -52 -2.5 -92.5t-8 -73.5t-20.5 -60.5t-39 -52.5q-12 -11 -29.5 -23.5t-43 -23t-60 -17.5t-78.5 -7q-25 0 -53.5 3t-56.5 11t-54 22t-46 37q-18 20 -27.5 42t-14 47.5t-5.5 56.5t-1 68v119.5t-0.5 82.5t-1.5 52.5t-3 29.5
q-1 6 -3 13.5t-7.5 14.5t-16 12.5t-27.5 6.5q-14 1 -17.5 3t-3.5 12q0 9 1.5 12.5t9.5 3.5q7 0 22.5 -0.5t35 -1t40.5 -1t38 -0.5q26 0 63.5 1.5t64.5 1.5q14 0 14 -14q0 -13 -3 -15t-20 -4q-35 -2 -53 -12t-22 -48q-2 -21 -3 -56.5t-2 -71.5t-1 -64v-33q0 -21 0.5 -47
t3 -52t7.5 -50.5t14 -42.5q12 -23 31 -37.5t41 -22t43.5 -10t38.5 -2.5z" />
    <glyph glyph-name="Uacute" unicode="&#xda;" horiz-adv-x="722" 
d="M474 862q4 0 16.5 -2t26 -6t24.5 -9.5t11 -11.5q0 -10 -12.5 -18.5t-50.5 -29.5l-31.5 -18t-36 -20.5t-36 -20t-32.5 -16.5q-10 -5 -14 -6t-8 -1q-2 0 -12 1t-10 4q0 2 12 14l27.5 27.5t30.5 29.5t20 20q18 19 29 30l17 17l8.5 8.5t4.5 3.5q3 2 6.5 3t9.5 1zM380 54
q53 0 100.5 18.5t73.5 63.5q17 31 20 77t3 112v53.5t-1 70.5t-3.5 68t-6.5 46q-8 26 -29.5 32.5t-52.5 9.5q-9 1 -11.5 3t-2.5 11q0 12 3 14.5t9 2.5q7 0 24.5 -0.5t36.5 -1t36 -1t23 -0.5t21.5 0.5t32.5 1t31.5 1t20.5 0.5q8 0 9.5 -3t1.5 -11q0 -11 -3.5 -13.5t-18.5 -5.5
q-22 -4 -34 -13.5t-18 -36.5t-7.5 -78t-2.5 -138q-1 -52 -2.5 -92.5t-8 -73.5t-20.5 -60.5t-39 -52.5q-12 -11 -29.5 -23.5t-43 -23t-60 -17.5t-78.5 -7q-25 0 -53.5 3t-56.5 11t-54 22t-46 37q-18 20 -27.5 42t-14 47.5t-5.5 56.5t-1 68v119.5t-0.5 82.5t-1.5 52.5t-3 29.5
q-1 6 -3 13.5t-7.5 14.5t-16 12.5t-27.5 6.5q-14 1 -17.5 3t-3.5 12q0 9 1.5 12.5t9.5 3.5q7 0 22.5 -0.5t35 -1t40.5 -1t38 -0.5q26 0 63.5 1.5t64.5 1.5q14 0 14 -14q0 -13 -3 -15t-20 -4q-35 -2 -53 -12t-22 -48q-2 -21 -3 -56.5t-2 -71.5t-1 -64v-33q0 -21 0.5 -47
t3 -52t7.5 -50.5t14 -42.5q12 -23 31 -37.5t41 -22t43.5 -10t38.5 -2.5z" />
    <glyph glyph-name="Ucircumflex" unicode="&#xdb;" horiz-adv-x="722" 
d="M374 876q14 0 21.5 -6.5t23.5 -25.5q23 -29 48.5 -55.5t54.5 -55.5q9 -10 11 -12.5t2 -4.5q0 -3 -6.5 -11t-11.5 -8q-4 0 -26 15t-47 32.5t-46.5 32.5t-24.5 15q-2 0 -23 -15t-46.5 -33.5t-47.5 -33.5t-26 -15q-5 0 -13 7t-8 10q0 1 3.5 5t8 9t8.5 9.5t6 5.5
q21 21 49 51.5t48 54.5q15 18 22.5 23.5t19.5 5.5zM380 54q53 0 100.5 18.5t73.5 63.5q17 31 20 77t3 112v53.5t-1 70.5t-3.5 68t-6.5 46q-8 26 -29.5 32.5t-52.5 9.5q-9 1 -11.5 3t-2.5 11q0 12 3 14.5t9 2.5q7 0 24.5 -0.5t36.5 -1t36 -1t23 -0.5t21.5 0.5t32.5 1t31.5 1
t20.5 0.5q8 0 9.5 -3t1.5 -11q0 -11 -3.5 -13.5t-18.5 -5.5q-22 -4 -34 -13.5t-18 -36.5t-7.5 -78t-2.5 -138q-1 -52 -2.5 -92.5t-8 -73.5t-20.5 -60.5t-39 -52.5q-12 -11 -29.5 -23.5t-43 -23t-60 -17.5t-78.5 -7q-25 0 -53.5 3t-56.5 11t-54 22t-46 37q-18 20 -27.5 42
t-14 47.5t-5.5 56.5t-1 68v119.5t-0.5 82.5t-1.5 52.5t-3 29.5q-1 6 -3 13.5t-7.5 14.5t-16 12.5t-27.5 6.5q-14 1 -17.5 3t-3.5 12q0 9 1.5 12.5t9.5 3.5q7 0 22.5 -0.5t35 -1t40.5 -1t38 -0.5q26 0 63.5 1.5t64.5 1.5q14 0 14 -14q0 -13 -3 -15t-20 -4q-35 -2 -53 -12
t-22 -48q-2 -21 -3 -56.5t-2 -71.5t-1 -64v-33q0 -21 0.5 -47t3 -52t7.5 -50.5t14 -42.5q12 -23 31 -37.5t41 -22t43.5 -10t38.5 -2.5z" />
    <glyph glyph-name="Udieresis" unicode="&#xdc;" horiz-adv-x="722" 
d="M486 824q20 0 37 -16t17 -36q0 -22 -17.5 -37.5t-36.5 -15.5t-36 15t-17 38q0 22 17 37t36 15zM270 824q20 0 36.5 -15.5t16.5 -36.5q0 -22 -17 -37.5t-36 -15.5t-36.5 15t-17.5 38q0 22 17.5 37t36.5 15zM380 54q53 0 100.5 18.5t73.5 63.5q17 31 20 77t3 112v53.5
t-1 70.5t-3.5 68t-6.5 46q-8 26 -29.5 32.5t-52.5 9.5q-9 1 -11.5 3t-2.5 11q0 12 3 14.5t9 2.5q7 0 24.5 -0.5t36.5 -1t36 -1t23 -0.5t21.5 0.5t32.5 1t31.5 1t20.5 0.5q8 0 9.5 -3t1.5 -11q0 -11 -3.5 -13.5t-18.5 -5.5q-22 -4 -34 -13.5t-18 -36.5t-7.5 -78t-2.5 -138
q-1 -52 -2.5 -92.5t-8 -73.5t-20.5 -60.5t-39 -52.5q-12 -11 -29.5 -23.5t-43 -23t-60 -17.5t-78.5 -7q-25 0 -53.5 3t-56.5 11t-54 22t-46 37q-18 20 -27.5 42t-14 47.5t-5.5 56.5t-1 68v119.5t-0.5 82.5t-1.5 52.5t-3 29.5q-1 6 -3 13.5t-7.5 14.5t-16 12.5t-27.5 6.5
q-14 1 -17.5 3t-3.5 12q0 9 1.5 12.5t9.5 3.5q7 0 22.5 -0.5t35 -1t40.5 -1t38 -0.5q26 0 63.5 1.5t64.5 1.5q14 0 14 -14q0 -13 -3 -15t-20 -4q-35 -2 -53 -12t-22 -48q-2 -21 -3 -56.5t-2 -71.5t-1 -64v-33q0 -21 0.5 -47t3 -52t7.5 -50.5t14 -42.5q12 -23 31 -37.5
t41 -22t43.5 -10t38.5 -2.5z" />
    <glyph glyph-name="Yacute" unicode="&#xdd;" horiz-adv-x="611" 
d="M418 862q4 0 16.5 -2t26 -6t24.5 -9.5t11 -11.5q0 -10 -12 -18t-47 -28q-15 -8 -33 -18t-36.5 -20.5t-37 -20.5t-33.5 -18q-10 -5 -14 -6t-8 -1q-2 0 -12 1t-10 4q0 2 12 14l27.5 27.5t30.5 29.5t20 20q18 19 29 30l17 17l8.5 8.5t5.5 3.5q2 2 5.5 3t9.5 1zM353 218
q0 -53 0.5 -83t2 -46t3.5 -21.5t4 -10.5q8 -15 25 -20t49 -8q6 0 8 -2.5t2 -10.5q0 -12 -2 -15t-9 -3q-13 0 -43 1.5t-98 1.5q-8 0 -26.5 -0.5t-39 -1t-38.5 -1t-25 -0.5q-8 0 -10 2.5t-2 15.5q0 9 3.5 11t19.5 4q25 3 38.5 10t20.5 17.5t8.5 23.5t1.5 29q0 15 0.5 29t1 30
t1 35t0.5 44q0 6 -1 10t-3.5 9.5t-7.5 14t-13 22.5q-13 21 -37 59.5t-50.5 80t-51.5 78t-40 54.5q-14 17 -22 21.5t-23 9.5q-5 1 -5 15q0 9 1.5 11t6.5 2q14 0 43.5 -1t86.5 -1q37 0 61.5 1t35.5 1t12.5 -4.5t1.5 -8.5q0 -11 -2.5 -14.5t-15.5 -3.5q-3 0 -10.5 -0.5
t-14.5 -2.5t-12.5 -6.5t-5.5 -12.5t11 -30t27.5 -50.5t35.5 -59.5t35.5 -57t28 -43t12.5 -18q11 16 26 40t30.5 48.5t28.5 45.5t19 31q14 24 22 38.5t11.5 23.5t4 13t0.5 7q0 19 -17 25t-40 8q-9 2 -12 3.5t-3 9.5q0 13 3 15t11 2q16 0 39 -0.5t63 -0.5q43 0 61.5 0.5
t29.5 0.5q6 0 8.5 -2t2.5 -10q0 -11 -2.5 -13t-13.5 -7q-10 -3 -22 -11t-36 -36t-64.5 -84t-107.5 -157q-1 -2 -4.5 -7t-7 -10.5t-6.5 -10t-3 -6.5q0 -1 -0.5 -8t-0.5 -16.5v-20v-18.5z" />
    <glyph glyph-name="Thorn" unicode="&#xde;" horiz-adv-x="574" 
d="M546 348q0 -44 -19 -79.5t-52.5 -60.5t-80.5 -38.5t-103 -13.5q-18 0 -35.5 1t-33.5 2q0 -45 3.5 -71t12 -38.5t23 -16t37.5 -3.5q17 -1 20 -2.5t3 -11.5q0 -13 -2 -15.5t-13 -2.5t-27 0.5t-33.5 0.5t-34.5 0.5t-30 0.5q-37 0 -61.5 -0.5t-40 -0.5t-24.5 -0.5t-16 -0.5
q-9 0 -10.5 5t-1.5 9q0 11 3 13.5t17 4.5q36 5 48.5 23t15.5 50q5 52 5.5 125t0.5 179v37t-0.5 52t-2 49.5t-3.5 30.5q-5 18 -20.5 22.5t-47.5 6.5q-8 1 -9.5 3t-1.5 14q0 9 2.5 12t10.5 3q6 0 18 -0.5t26.5 -1t30 -1t27.5 -0.5q20 0 45 0.5t49 1t43.5 1t28.5 0.5
q5 0 8 -1.5t3 -12.5q0 -12 -3.5 -14t-18.5 -2q-24 0 -38.5 -4.5t-23 -14.5t-11.5 -26t-4 -40q19 2 41 3t48 1q60 0 111.5 -14.5t87.5 -61.5q14 -19 23.5 -44.5t9.5 -57.5zM222 196q17 -3 46 -3q42 0 72 11.5t49.5 31.5t28.5 47t9 59q0 23 -5.5 49t-21 48t-44 36.5
t-74.5 14.5q-21 0 -32.5 -1t-17 -4t-6.5 -8t-2 -13q-1 -9 -1.5 -44.5t-0.5 -78.5v-84v-61z" />
    <glyph glyph-name="germandbls" unicode="&#xdf;" horiz-adv-x="593" 
d="M364 708q27 0 53.5 -7t46.5 -22.5t32.5 -39.5t12.5 -57q0 -25 -7.5 -45t-19.5 -35.5t-26 -27.5t-28 -22q-32 -25 -50 -44t-18 -44q0 -13 5 -23.5t16.5 -21t31 -23.5t48.5 -31q21 -13 39.5 -26t32 -28.5t21 -35t7.5 -45.5q0 -35 -15 -61.5t-40.5 -44t-57.5 -26t-67 -8.5
q-4 0 -21 1t-35.5 5t-33 13.5t-14.5 25.5q0 13 10.5 28.5t25.5 15.5q10 0 18 -7t18 -16t23 -16t32 -7q25 0 43 14.5t18 49.5q0 18 -4 30.5t-14.5 23.5t-28.5 23t-45 29q-45 29 -73 55.5t-28 69.5q0 37 18.5 60t52.5 49q32 26 54 50.5t22 64.5q0 52 -29.5 72t-70.5 20
q-38 0 -60.5 -12t-34.5 -28.5t-16 -34t-6 -27.5q-2 -15 -3.5 -44t-2 -61.5t-0.5 -63.5v-50v-57.5t0.5 -79t1.5 -75.5t2 -46q3 -20 13 -25t24 -8q9 -2 10.5 -4.5t1.5 -13.5t-2 -13t-12 -2q-20 0 -42.5 1t-61.5 1q-29 0 -51 -1t-36 -1q-12 0 -12 14t3.5 16t14.5 3
q30 2 38.5 18t9.5 58q1 21 1 58v76v73.5v50.5h-11.5h-17.5h-16.5h-10.5q-5 1 -5.5 4t-0.5 11q0 9 2 11t11 7q3 1 10.5 4.5t15.5 7t15.5 7t10.5 4.5q0 17 0.5 40t6.5 49t19 54t37 55q17 18 39.5 34t48.5 28t54.5 19t56.5 7z" />
    <glyph glyph-name="agrave" unicode="&#xe0;" horiz-adv-x="481" 
d="M484 78l-1 -22q0 -11 -1.5 -14.5t-9.5 -8.5q-43 -23 -79.5 -33.5t-56.5 -10.5q-17 0 -27 5.5t-16 13t-8 15t-3 11.5q-11 -5 -28.5 -12.5t-38.5 -14.5t-44.5 -12t-46.5 -5q-30 0 -48 10t-28 25t-13.5 33t-3.5 33q0 24 4.5 39.5t14.5 25.5t24.5 16.5t35.5 13.5
q33 11 78 19.5t95 13.5v52.5t-0.5 33.5t-2.5 20t-5 13q-8 20 -27 25.5t-37 5.5q-8 0 -24 -1.5t-33 -7.5q-8 -3 -9.5 -6.5t-1.5 -7.5q0 -2 1 -11t1 -12q0 -13 -16 -18q-4 -1 -13 -3.5t-19 -4.5t-19.5 -3.5t-15.5 -1.5t-10.5 3.5t-4.5 10.5q0 13 15.5 34.5t44 41.5t69 35
t89.5 15q22 0 38 -4.5t27 -10.5t18 -12.5t11 -10.5q14 -17 17.5 -37.5t3.5 -37.5q0 -12 -1 -42.5t-1.5 -63.5t-1.5 -62.5t-1 -40.5q0 -27 7 -40t27 -13q16 0 36 7.5t34 15.5zM281 155q0 30 -27 30q-19 0 -38.5 -5.5t-34.5 -11.5q-18 -7 -28 -13.5t-14.5 -12.5t-5.5 -12
t-1 -13q0 -41 14.5 -54.5t43.5 -13.5q10 0 24 2t27.5 5.5t24 9.5t12.5 14q1 4 1.5 13.5t1 21t0.5 23v17.5zM295 495q0 -3 -6 -4t-9 -1q-11 0 -17.5 4t-26.5 18l-130 91q-20 14 -20 26q0 5 3.5 9t18.5 8q18 4 34 6.5t21 2.5t8 -1t7.5 -5t10.5 -12t16 -22z" />
    <glyph glyph-name="aacute" unicode="&#xe1;" horiz-adv-x="481" 
d="M484 78l-1 -22q0 -11 -1.5 -14.5t-9.5 -8.5q-43 -23 -79.5 -33.5t-56.5 -10.5q-17 0 -27 5.5t-16 13t-8 15t-3 11.5q-11 -5 -28.5 -12.5t-38.5 -14.5t-44.5 -12t-46.5 -5q-30 0 -48 10t-28 25t-13.5 33t-3.5 33q0 24 4.5 39.5t14.5 25.5t24.5 16.5t35.5 13.5
q33 11 78 19.5t95 13.5v52.5t-0.5 33.5t-2.5 20t-5 13q-8 20 -27 25.5t-37 5.5q-8 0 -24 -1.5t-33 -7.5q-8 -3 -9.5 -6.5t-1.5 -7.5q0 -2 1 -11t1 -12q0 -13 -16 -18q-4 -1 -13 -3.5t-19 -4.5t-19.5 -3.5t-15.5 -1.5t-10.5 3.5t-4.5 10.5q0 13 15.5 34.5t44 41.5t69 35
t89.5 15q22 0 38 -4.5t27 -10.5t18 -12.5t11 -10.5q14 -17 17.5 -37.5t3.5 -37.5q0 -12 -1 -42.5t-1.5 -63.5t-1.5 -62.5t-1 -40.5q0 -27 7 -40t27 -13q16 0 36 7.5t34 15.5zM281 155q0 30 -27 30q-19 0 -38.5 -5.5t-34.5 -11.5q-18 -7 -28 -13.5t-14.5 -12.5t-5.5 -12
t-1 -13q0 -41 14.5 -54.5t43.5 -13.5q10 0 24 2t27.5 5.5t24 9.5t12.5 14q1 4 1.5 13.5t1 21t0.5 23v17.5zM298 655q8 0 26.5 -3.5t28.5 -5.5q14 -3 18 -7.5t4 -9.5q0 -9 -9 -17t-29 -22q-37 -25 -59 -40.5t-34.5 -24.5t-18 -13t-10.5 -8t-13 -9t-14 -5q-2 0 -12 0.5
t-10 4.5q30 41 55 74q15 20 24 31.5t16.5 22t13.5 18t7 8.5q6 6 16 6z" />
    <glyph glyph-name="acircumflex" unicode="&#xe2;" horiz-adv-x="481" 
d="M484 78l-1 -22q0 -11 -1.5 -14.5t-9.5 -8.5q-43 -23 -79.5 -33.5t-56.5 -10.5q-17 0 -27 5.5t-16 13t-8 15t-3 11.5q-11 -5 -28.5 -12.5t-38.5 -14.5t-44.5 -12t-46.5 -5q-30 0 -48 10t-28 25t-13.5 33t-3.5 33q0 24 4.5 39.5t14.5 25.5t24.5 16.5t35.5 13.5
q33 11 78 19.5t95 13.5v52.5t-0.5 33.5t-2.5 20t-5 13q-8 20 -27 25.5t-37 5.5q-8 0 -24 -1.5t-33 -7.5q-8 -3 -9.5 -6.5t-1.5 -7.5q0 -2 1 -11t1 -12q0 -13 -16 -18q-4 -1 -13 -3.5t-19 -4.5t-19.5 -3.5t-15.5 -1.5t-10.5 3.5t-4.5 10.5q0 13 15.5 34.5t44 41.5t69 35
t89.5 15q22 0 38 -4.5t27 -10.5t18 -12.5t11 -10.5q14 -17 17.5 -37.5t3.5 -37.5q0 -12 -1 -42.5t-1.5 -63.5t-1.5 -62.5t-1 -40.5q0 -27 7 -40t27 -13q16 0 36 7.5t34 15.5zM281 155q0 30 -27 30q-19 0 -38.5 -5.5t-34.5 -11.5q-18 -7 -28 -13.5t-14.5 -12.5t-5.5 -12
t-1 -13q0 -41 14.5 -54.5t43.5 -13.5q10 0 24 2t27.5 5.5t24 9.5t12.5 14q1 4 1.5 13.5t1 21t0.5 23v17.5zM227 655q11 0 18 -8t22 -31q21 -30 40 -56t33 -44q2 -2 8 -10.5t6 -10.5q0 -5 -6 -10.5t-9 -5.5q-4 0 -21.5 13.5t-37 29t-35.5 29t-18 13.5q-3 0 -19.5 -13.5
t-36.5 -29t-37.5 -29t-21.5 -13.5q-5 0 -10.5 6.5t-5.5 9.5q0 1 5 8t11.5 15l13 16t8.5 11q4 6 14 19.5t21 28.5t20.5 28.5t12.5 18.5q8 10 14 12.5t11 2.5z" />
    <glyph glyph-name="atilde" unicode="&#xe3;" horiz-adv-x="481" 
d="M484 78l-1 -22q0 -11 -1.5 -14.5t-9.5 -8.5q-43 -23 -79.5 -33.5t-56.5 -10.5q-17 0 -27 5.5t-16 13t-8 15t-3 11.5q-11 -5 -28.5 -12.5t-38.5 -14.5t-44.5 -12t-46.5 -5q-30 0 -48 10t-28 25t-13.5 33t-3.5 33q0 24 4.5 39.5t14.5 25.5t24.5 16.5t35.5 13.5
q33 11 78 19.5t95 13.5v52.5t-0.5 33.5t-2.5 20t-5 13q-8 20 -27 25.5t-37 5.5q-8 0 -24 -1.5t-33 -7.5q-8 -3 -9.5 -6.5t-1.5 -7.5q0 -2 1 -11t1 -12q0 -13 -16 -18q-4 -1 -13 -3.5t-19 -4.5t-19.5 -3.5t-15.5 -1.5t-10.5 3.5t-4.5 10.5q0 13 15.5 34.5t44 41.5t69 35
t89.5 15q22 0 38 -4.5t27 -10.5t18 -12.5t11 -10.5q14 -17 17.5 -37.5t3.5 -37.5q0 -12 -1 -42.5t-1.5 -63.5t-1.5 -62.5t-1 -40.5q0 -27 7 -40t27 -13q16 0 36 7.5t34 15.5zM281 155q0 30 -27 30q-19 0 -38.5 -5.5t-34.5 -11.5q-18 -7 -28 -13.5t-14.5 -12.5t-5.5 -12
t-1 -13q0 -41 14.5 -54.5t43.5 -13.5q10 0 24 2t27.5 5.5t24 9.5t12.5 14q1 4 1.5 13.5t1 21t0.5 23v17.5zM286 507q-19 0 -36 8.5t-47 28.5q-14 9 -24.5 14.5t-21.5 5.5q-29 0 -54 -39q-2 -2 -5.5 -7.5t-5.5 -5.5t-11.5 6t-9.5 8q0 3 8 17t14 24q14 22 34.5 42.5t49.5 20.5
q18 0 34 -9t33 -20q23 -15 35.5 -20.5t24.5 -5.5q14 0 27.5 7t30.5 32q5 7 6.5 8.5t2.5 1.5t10.5 -6t9.5 -9q0 -2 -6 -13t-13 -22q-17 -26 -37 -46.5t-49 -20.5z" />
    <glyph glyph-name="adieresis" unicode="&#xe4;" horiz-adv-x="481" 
d="M484 78l-1 -22q0 -11 -1.5 -14.5t-9.5 -8.5q-43 -23 -79.5 -33.5t-56.5 -10.5q-17 0 -27 5.5t-16 13t-8 15t-3 11.5q-11 -5 -28.5 -12.5t-38.5 -14.5t-44.5 -12t-46.5 -5q-30 0 -48 10t-28 25t-13.5 33t-3.5 33q0 24 4.5 39.5t14.5 25.5t24.5 16.5t35.5 13.5
q33 11 78 19.5t95 13.5v52.5t-0.5 33.5t-2.5 20t-5 13q-8 20 -27 25.5t-37 5.5q-8 0 -24 -1.5t-33 -7.5q-8 -3 -9.5 -6.5t-1.5 -7.5q0 -2 1 -11t1 -12q0 -13 -16 -18q-4 -1 -13 -3.5t-19 -4.5t-19.5 -3.5t-15.5 -1.5t-10.5 3.5t-4.5 10.5q0 13 15.5 34.5t44 41.5t69 35
t89.5 15q22 0 38 -4.5t27 -10.5t18 -12.5t11 -10.5q14 -17 17.5 -37.5t3.5 -37.5q0 -12 -1 -42.5t-1.5 -63.5t-1.5 -62.5t-1 -40.5q0 -27 7 -40t27 -13q16 0 36 7.5t34 15.5zM281 155q0 30 -27 30q-19 0 -38.5 -5.5t-34.5 -11.5q-18 -7 -28 -13.5t-14.5 -12.5t-5.5 -12
t-1 -13q0 -41 14.5 -54.5t43.5 -13.5q10 0 24 2t27.5 5.5t24 9.5t12.5 14q1 4 1.5 13.5t1 21t0.5 23v17.5zM190 550q0 -21 -16.5 -36t-33.5 -15q-18 0 -35 15t-17 36q0 22 17.5 36t34.5 14q20 0 35 -15.5t15 -34.5zM374 550q0 -21 -16.5 -36t-34.5 -15t-35 15t-17 36
q0 23 18 36.5t35 13.5q19 0 34.5 -15t15.5 -35z" />
    <glyph glyph-name="aring" unicode="&#xe5;" horiz-adv-x="481" 
d="M484 78l-1 -22q0 -11 -1.5 -14.5t-9.5 -8.5q-43 -23 -79.5 -33.5t-56.5 -10.5q-17 0 -27 5.5t-16 13t-8 15t-3 11.5q-11 -5 -28.5 -12.5t-38.5 -14.5t-44.5 -12t-46.5 -5q-30 0 -48 10t-28 25t-13.5 33t-3.5 33q0 24 4.5 39.5t14.5 25.5t24.5 16.5t35.5 13.5
q33 11 78 19.5t95 13.5v52.5t-0.5 33.5t-2.5 20t-5 13q-8 20 -27 25.5t-37 5.5q-8 0 -24 -1.5t-33 -7.5q-8 -3 -9.5 -6.5t-1.5 -7.5q0 -2 1 -11t1 -12q0 -13 -16 -18q-4 -1 -13 -3.5t-19 -4.5t-19.5 -3.5t-15.5 -1.5t-10.5 3.5t-4.5 10.5q0 13 15.5 34.5t44 41.5t69 35
t89.5 15q22 0 38 -4.5t27 -10.5t18 -12.5t11 -10.5q14 -17 17.5 -37.5t3.5 -37.5q0 -12 -1 -42.5t-1.5 -63.5t-1.5 -62.5t-1 -40.5q0 -27 7 -40t27 -13q16 0 36 7.5t34 15.5zM281 155q0 30 -27 30q-19 0 -38.5 -5.5t-34.5 -11.5q-18 -7 -28 -13.5t-14.5 -12.5t-5.5 -12
t-1 -13q0 -41 14.5 -54.5t43.5 -13.5q10 0 24 2t27.5 5.5t24 9.5t12.5 14q1 4 1.5 13.5t1 21t0.5 23v17.5zM234 482q-41 0 -72.5 23.5t-31.5 63.5q0 41 31 64.5t73 23.5t73 -23.5t31 -64.5q0 -40 -31.5 -63.5t-72.5 -23.5zM234 511q24 0 35 19t11 39q0 21 -11 40t-35 19
t-35 -19.5t-11 -39.5t10.5 -39t35.5 -19z" />
    <glyph glyph-name="ae" unicode="&#xe6;" horiz-adv-x="685" 
d="M648 91l3 -13l2.5 -7.5t0.5 -3.5q0 -3 -14.5 -15.5t-40 -26.5t-60.5 -25t-77 -11q-12 0 -27.5 1.5t-33 7.5t-36.5 18t-37 33q-50 -28 -100.5 -43.5t-93.5 -15.5q-30 0 -48.5 9.5t-28.5 24t-13 33t-3 36.5q0 42 16.5 62.5t63.5 36.5q17 5 61.5 16.5t110.5 22.5
q2 46 1.5 67t-5.5 38q-4 14 -13 21.5t-19.5 12t-21 5.5t-17.5 1q-16 0 -31 -2.5t-22 -5.5q-6 -4 -6 -14q0 -4 1 -16.5t1 -16.5q0 -8 -4.5 -11t-12.5 -6q-1 0 -10 -2.5t-20.5 -5.5t-21.5 -5t-14 -2q-6 0 -12 3.5t-6 11.5q0 16 16.5 38t44.5 42t64.5 34t76.5 14q31 0 60 -11.5
t46 -37.5q7 6 17.5 14t26 16t35.5 13.5t45 5.5q43 0 71 -14t45.5 -34t25.5 -41.5t12 -36.5q1 -6 2.5 -7t5.5 -2t5.5 -5t1.5 -17q0 -11 -2.5 -13.5t-18.5 -5.5q-88 -14 -147.5 -25.5t-106.5 -20.5q1 -21 5.5 -48.5t17.5 -51.5t38 -40.5t68 -16.5q68 0 126 38h7zM295 126
q0 34 -4 50.5t-22 16.5q-6 0 -26.5 -3t-44.5 -12q-30 -11 -42.5 -24.5t-12.5 -38.5q0 -22 5 -35.5t13 -20.5t18 -9.5t19 -2.5q3 0 24.5 1.5t45.5 11.5q10 4 15.5 8.5t8 11.5t3 18t0.5 28zM385 245q11 2 29 6t37.5 8.5t36 8t23.5 5.5q26 7 31 12t5 11q0 13 -5.5 29t-16 30.5
t-25.5 24.5t-34 10q-23 0 -38.5 -13t-24.5 -33.5t-13.5 -46.5t-4.5 -52z" />
    <glyph glyph-name="ccedilla" unicode="&#xe7;" horiz-adv-x="444" 
d="M401 96l8 -19q2 -5 2.5 -6t0.5 -3q0 -3 -9.5 -12t-26.5 -20t-40.5 -22t-51.5 -18q-1 -2 -5 -7.5t-8.5 -12.5t-8 -13t-3.5 -9q0 -7 18 -17q20 -11 33 -26t13 -39q0 -15 -8 -31.5t-22.5 -31t-33.5 -24t-42 -9.5q-30 0 -42.5 12.5t-12.5 23.5q0 9 7.5 21.5t17.5 12.5
q6 0 11 -2.5t22 -12.5q10 -5 15.5 -6.5t10.5 -1.5q17 0 20.5 9.5t3.5 11.5q0 14 -10 24t-32 22q-23 13 -27.5 16.5t-4.5 9.5q0 5 2.5 9.5t13.5 18.5q5 5 15.5 18.5t21.5 27.5q-52 -4 -91 10.5t-65 41.5t-39 64t-13 77q0 51 19.5 96t53.5 79t80.5 54t101.5 20q50 0 85 -15
t35 -41q0 -9 -6 -18t-15 -16t-18 -11.5t-15 -4.5q-5 0 -9.5 2t-13.5 9q-22 17 -49 24t-51 7q-29 0 -48.5 -12t-32.5 -42q-11 -26 -13 -51t-2 -33q0 -23 5.5 -53t20.5 -56.5t42 -45t70 -18.5q4 0 15.5 0.5t27.5 4.5t34 11.5t36 22.5h7z" />
    <glyph glyph-name="egrave" unicode="&#xe8;" horiz-adv-x="444" 
d="M403 94l4 -15q2 -6 2 -7v-3q0 -4 -15 -17.5t-41 -27t-61 -24.5t-74 -11q-54 0 -88.5 20t-54 50t-27 65t-7.5 65q0 58 18.5 103.5t48 76.5t67 47t75.5 16q30 0 55.5 -9t45 -24t32.5 -34.5t18 -40.5q4 -16 5.5 -19.5t6.5 -5.5t6 -6.5t1 -16.5t-4 -15t-23 -6
q-36 -6 -66.5 -11t-59.5 -10t-59 -11t-66 -13q1 -12 5.5 -38t18.5 -52.5t40.5 -46t71.5 -19.5q4 0 15.5 0.5t28 4.5t36 12t39.5 23h6zM140 244q38 7 65.5 13t64.5 16q24 6 29.5 12.5t5.5 14.5q0 13 -6 29t-16.5 29.5t-26 22.5t-33.5 9q-15 0 -30 -8t-26.5 -25t-19 -45
t-7.5 -68zM154 655q5 0 8 -1t7.5 -5t11 -12t16.5 -22q8 -10 18.5 -24.5t21.5 -29.5t22 -29.5t19 -24.5q1 -1 4.5 -6t3.5 -6q0 -3 -6 -4t-9 -1q-11 0 -17.5 4t-26.5 18q-7 6 -26 19t-39.5 27.5t-38.5 27t-25 17.5q-11 8 -15.5 14t-4.5 12q0 5 3.5 9.5t17.5 7.5q18 4 34 6.5
t21 2.5z" />
    <glyph glyph-name="eacute" unicode="&#xe9;" horiz-adv-x="444" 
d="M403 94l4 -15q2 -6 2 -7v-3q0 -4 -15 -17.5t-41 -27t-61 -24.5t-74 -11q-54 0 -88.5 20t-54 50t-27 65t-7.5 65q0 58 18.5 103.5t48 76.5t67 47t75.5 16q30 0 55.5 -9t45 -24t32.5 -34.5t18 -40.5q4 -16 5.5 -19.5t6.5 -5.5t6 -6.5t1 -16.5t-4 -15t-23 -6
q-36 -6 -66.5 -11t-59.5 -10t-59 -11t-66 -13q1 -12 5.5 -38t18.5 -52.5t40.5 -46t71.5 -19.5q4 0 15.5 0.5t28 4.5t36 12t39.5 23h6zM140 244q38 7 65.5 13t64.5 16q24 6 29.5 12.5t5.5 14.5q0 13 -6 29t-16.5 29.5t-26 22.5t-33.5 9q-15 0 -30 -8t-26.5 -25t-19 -45
t-7.5 -68zM289 655q8 0 27 -3.5t29 -5.5q14 -3 17.5 -7.5t3.5 -9.5q0 -9 -8.5 -17t-29.5 -22q-36 -25 -58 -40t-34.5 -24t-18.5 -13.5t-11 -8.5t-12.5 -9t-14.5 -5q-2 0 -11.5 0.5t-9.5 4.5q30 41 55 74q15 20 24 31.5t16.5 22t13.5 18t7 8.5q6 6 15 6z" />
    <glyph glyph-name="ecircumflex" unicode="&#xea;" horiz-adv-x="444" 
d="M403 94l4 -15q2 -6 2 -7v-3q0 -4 -15 -17.5t-41 -27t-61 -24.5t-74 -11q-54 0 -88.5 20t-54 50t-27 65t-7.5 65q0 58 18.5 103.5t48 76.5t67 47t75.5 16q30 0 55.5 -9t45 -24t32.5 -34.5t18 -40.5q4 -16 5.5 -19.5t6.5 -5.5t6 -6.5t1 -16.5t-4 -15t-23 -6
q-36 -6 -66.5 -11t-59.5 -10t-59 -11t-66 -13q1 -12 5.5 -38t18.5 -52.5t40.5 -46t71.5 -19.5q4 0 15.5 0.5t28 4.5t36 12t39.5 23h6zM140 244q38 7 65.5 13t64.5 16q24 6 29.5 12.5t5.5 14.5q0 13 -6 29t-16.5 29.5t-26 22.5t-33.5 9q-15 0 -30 -8t-26.5 -25t-19 -45
t-7.5 -68zM236 655q10 0 17 -8t23 -31q10 -14 29 -41.5t42 -56.5q2 -3 9 -12t7 -11q0 -5 -6.5 -10.5t-9.5 -5.5q-4 0 -21.5 13.5t-37 29t-35.5 29t-18 13.5q-3 0 -19.5 -13.5t-36.5 -29t-37.5 -29t-21.5 -13.5t-10 6t-6 10q0 1 3 5t7 9t7.5 9.5t4.5 6.5q8 9 13 15.5t12.5 17
t19.5 27t32 44.5q10 14 16 20t17 6z" />
    <glyph glyph-name="edieresis" unicode="&#xeb;" horiz-adv-x="444" 
d="M403 94l4 -15q2 -6 2 -7v-3q0 -4 -15 -17.5t-41 -27t-61 -24.5t-74 -11q-54 0 -88.5 20t-54 50t-27 65t-7.5 65q0 58 18.5 103.5t48 76.5t67 47t75.5 16q30 0 55.5 -9t45 -24t32.5 -34.5t18 -40.5q4 -16 5.5 -19.5t6.5 -5.5t6 -6.5t1 -16.5t-4 -15t-23 -6
q-36 -6 -66.5 -11t-59.5 -10t-59 -11t-66 -13q1 -12 5.5 -38t18.5 -52.5t40.5 -46t71.5 -19.5q4 0 15.5 0.5t28 4.5t36 12t39.5 23h6zM140 244q38 7 65.5 13t64.5 16q24 6 29.5 12.5t5.5 14.5q0 13 -6 29t-16.5 29.5t-26 22.5t-33.5 9q-15 0 -30 -8t-26.5 -25t-19 -45
t-7.5 -68zM181 550q0 -23 -16.5 -37t-32.5 -14q-20 0 -36.5 15.5t-16.5 35.5q0 22 17.5 36t35.5 14q19 0 34 -15t15 -35zM365 550q0 -23 -17 -37t-33 -14q-20 0 -36 15.5t-16 35.5q0 22 17.5 36t34.5 14q19 0 34.5 -15t15.5 -35z" />
    <glyph glyph-name="igrave" unicode="&#xec;" horiz-adv-x="296" 
d="M212 495q0 -3 -6 -4t-8 -1q-11 0 -17.5 4t-26.5 18q-8 5 -26.5 18t-39.5 27.5t-39 27.5t-25 18q-20 14 -20 26q0 5 3.5 9t17.5 8q18 4 34.5 6.5t20.5 2.5q5 0 8 -1t7.5 -5t11 -12t16.5 -22zM101 232q0 38 -1 60t-5.5 34.5t-15 17.5t-29.5 8q-9 2 -12 3.5t-3 11.5t2.5 12
t13.5 7q28 12 56 23.5t57 22.5q18 7 30 7q10 0 10 -10q-2 -17 -2.5 -35t-2.5 -35q0 -8 -0.5 -18t-1 -25.5t-0.5 -39.5v-60v-34t0.5 -47.5t1.5 -45.5t3 -29q5 -20 20 -23.5t42 -5.5q11 -1 14 -3.5t3 -11.5q0 -12 -2.5 -14.5t-10.5 -2.5q-12 0 -41 1t-71 1q-49 0 -77 -1
t-45 -1q-10 0 -10 14q0 11 2.5 13.5t15.5 4.5q22 3 34 10t17.5 27.5t6.5 59t1 104.5z" />
    <glyph glyph-name="iacute" unicode="&#xed;" horiz-adv-x="296" 
d="M215 655q9 0 27.5 -3.5t28.5 -5.5q14 -3 17.5 -7.5t3.5 -9.5q0 -8 -6.5 -14.5t-13.5 -11.5q-53 -37 -84.5 -59.5t-45.5 -31.5q-20 -15 -26 -18.5t-11 -3.5q-2 0 -11.5 0.5t-9.5 4.5q30 41 55 74l24 32l16.5 22t13.5 17.5t7 8.5q6 6 15 6zM101 232q0 38 -1 60t-5.5 34.5
t-15 17.5t-29.5 8q-9 2 -12 3.5t-3 11.5t2.5 12t13.5 7q28 12 56 23.5t57 22.5q18 7 30 7q10 0 10 -10q-2 -17 -2.5 -35t-2.5 -35q0 -8 -0.5 -18t-1 -25.5t-0.5 -39.5v-60v-34t0.5 -47.5t1.5 -45.5t3 -29q5 -20 20 -23.5t42 -5.5q11 -1 14 -3.5t3 -11.5q0 -12 -2.5 -14.5
t-10.5 -2.5q-12 0 -41 1t-71 1q-49 0 -77 -1t-45 -1q-10 0 -10 14q0 11 2.5 13.5t15.5 4.5q22 3 34 10t17.5 27.5t6.5 59t1 104.5z" />
    <glyph glyph-name="icircumflex" unicode="&#xee;" horiz-adv-x="296" 
d="M136 655q9 0 16 -8t21 -31q8 -13 26.5 -41.5t39.5 -56.5l8 -12t6 -11q0 -5 -6.5 -10.5t-9.5 -5.5q-4 0 -19.5 13.5t-33.5 29t-32.5 29t-16.5 13.5t-17 -13.5t-33.5 -29t-34.5 -29t-20 -13.5q-5 0 -10.5 6.5t-5.5 9.5q0 1 2.5 5.5t6 9.5t7 9.5t4.5 5.5q8 11 14 19
t13.5 18.5t17.5 26t27 40.5q8 14 13.5 20t16.5 6zM101 232q0 38 -1 60t-5.5 34.5t-15 17.5t-29.5 8q-9 2 -12 3.5t-3 11.5t2.5 12t13.5 7q28 12 56 23.5t57 22.5q18 7 30 7q10 0 10 -10q-2 -17 -2.5 -35t-2.5 -35q0 -8 -0.5 -18t-1 -25.5t-0.5 -39.5v-60v-34t0.5 -47.5
t1.5 -45.5t3 -29q5 -20 20 -23.5t42 -5.5q11 -1 14 -3.5t3 -11.5q0 -12 -2.5 -14.5t-10.5 -2.5q-12 0 -41 1t-71 1q-49 0 -77 -1t-45 -1q-10 0 -10 14q0 11 2.5 13.5t15.5 4.5q22 3 34 10t17.5 27.5t6.5 59t1 104.5z" />
    <glyph glyph-name="idieresis" unicode="&#xef;" horiz-adv-x="296" 
d="M107 550q0 -21 -16 -36t-34 -15t-35 15t-17 36q0 22 18 36t35 14q19 0 34 -15t15 -35zM280 550q0 -22 -17 -36.5t-34 -14.5q-18 0 -34.5 15t-16.5 36q0 23 17.5 36.5t34.5 13.5q19 0 34.5 -15t15.5 -35zM101 232q0 38 -1 60t-5.5 34.5t-15 17.5t-29.5 8q-9 2 -12 3.5
t-3 11.5t2.5 12t13.5 7q28 12 56 23.5t57 22.5q18 7 30 7q10 0 10 -10q-2 -17 -2.5 -35t-2.5 -35q0 -8 -0.5 -18t-1 -25.5t-0.5 -39.5v-60v-34t0.5 -47.5t1.5 -45.5t3 -29q5 -20 20 -23.5t42 -5.5q11 -1 14 -3.5t3 -11.5q0 -12 -2.5 -14.5t-10.5 -2.5q-12 0 -41 1t-71 1
q-49 0 -77 -1t-45 -1q-10 0 -10 14q0 11 2.5 13.5t15.5 4.5q22 3 34 10t17.5 27.5t6.5 59t1 104.5z" />
    <glyph glyph-name="eth" unicode="&#xf0;" horiz-adv-x="556" 
d="M244 590q-7 9 -13 15.5t-13 15t-18 20.5t-29 31q-9 10 -11 12.5t-2 4.5t4 5t8.5 5t9.5 3.5t6 1.5q5 0 16 -7t24.5 -18t29 -24.5t28.5 -27.5q20 18 32 29t20.5 19t16 15t17.5 17q4 2 8 -2q14 -16 18 -19.5t2 -5.5q-14 -11 -23 -18.5t-18 -15.5t-19.5 -17.5t-28.5 -25.5
q44 -44 80.5 -91t64.5 -93q27 -46 43.5 -96t16.5 -104t-20.5 -96.5t-55 -72t-80.5 -45.5t-96 -16q-49 0 -89.5 15.5t-69.5 44t-45.5 68.5t-16.5 88q0 63 25 106.5t60.5 70.5t75 38.5t68.5 11.5q42 0 66 -13t37 -23q-11 22 -21.5 40.5t-22.5 37t-27.5 40t-36.5 49.5
q-4 -4 -16 -15.5t-26 -25t-27 -25.5t-18 -17q-1 -1 -5 3t-21 22q-1 3 2 6zM148 244q0 -52 12.5 -92t33.5 -66.5t47 -40t53 -13.5q47 0 80.5 36.5t33.5 112.5q0 44 -11.5 81.5t-31 66t-46.5 44.5t-58 16q-46 0 -79.5 -37t-33.5 -108z" />
    <glyph glyph-name="ntilde" unicode="&#xf1;" horiz-adv-x="593" 
d="M360 507q-19 0 -35 8.5t-47 28.5q-14 9 -25 14.5t-22 5.5q-13 0 -27 -9t-27 -30q-2 -2 -5.5 -7.5t-5.5 -5.5t-11.5 6t-9.5 8t2.5 7t6.5 12t7.5 13t5.5 9q6 10 14 21t18.5 20.5t23 15.5t27.5 6q19 0 35 -8.5t33 -20.5q23 -16 35.5 -21t24.5 -5q19 0 31.5 9.5t26.5 29.5
q5 7 6.5 8.5t2.5 1.5t10.5 -6t9.5 -9q0 -2 -6 -13t-13 -22q-16 -24 -36.5 -45.5t-49.5 -21.5zM388 430q43 0 66.5 -17.5t34 -43.5t12.5 -55t2 -53q0 -58 -0.5 -102t0.5 -61q1 -24 5 -37.5t11.5 -20t18 -8.5t24.5 -2t17.5 -2t3.5 -13q0 -10 -2.5 -13t-12.5 -3q-15 0 -42 1
t-64 1q-12 0 -29 -0.5t-33.5 -0.5t-30.5 -0.5t-21 -0.5q-8 0 -8 12q0 11 2 13.5t13 4.5q16 3 27 8.5t16 22.5q3 11 4 31t2 43t1 45v35q0 33 -3 67.5t-22 54.5q-14 14 -32 19t-34 5q-18 0 -38 -3.5t-37 -8.5t-28 -10t-13 -8q-1 -2 -2 -16.5t-1.5 -36t-0.5 -47.5v-52v-27.5
t0.5 -36t2 -34.5t3.5 -23q5 -17 19 -20.5t42 -6.5q8 -1 9.5 -3.5t1.5 -10.5q0 -12 -3 -14.5t-8 -2.5q-6 0 -20 0.5t-31.5 0.5t-36.5 0.5t-35 0.5q-44 0 -63.5 -1t-33.5 -1q-8 0 -9.5 3.5t-1.5 10.5q0 11 2.5 13.5t15.5 4.5q20 3 32.5 14.5t15.5 37.5q1 8 1.5 23.5t1 35.5
t1 42.5t0.5 44.5q0 41 -1 64.5t-5.5 35.5t-15 15t-29.5 4q-13 0 -15 1.5t-2 12.5q0 9 2.5 12t15.5 8q3 2 21.5 9.5t39.5 16.5t40 17t24 9q5 2 10 2h7q9 0 9 -7q0 -6 -1 -15.5t-1.5 -19t-1.5 -18t-1 -12.5q66 32 112 49t80 17z" />
    <glyph glyph-name="ograve" unicode="&#xf2;" horiz-adv-x="556" 
d="M41 208q0 53 20 94.5t54 70t80 44t98 15.5q56 0 97 -18.5t69 -49t41.5 -69t13.5 -77.5q0 -53 -20.5 -95.5t-55 -72t-80.5 -45.5t-96 -16q-45 0 -85 14t-70 41.5t-48 68.5t-18 95zM148 244q0 -52 12.5 -92t33.5 -66.5t47 -40t53 -13.5q47 0 80 36.5t33 111.5q0 44 -11 82
t-30.5 66.5t-46.5 44.5t-58 16q-22 0 -42.5 -9t-36.5 -27.5t-25 -45.5t-9 -63zM342 495q0 -3 -6 -4t-9 -1q-11 0 -17.5 4t-26.5 18l-130 91q-20 15 -20 26q0 5 3.5 9t18.5 8q18 4 34 6.5t21 2.5t8 -1t7.5 -5t10.5 -12t16 -22z" />
    <glyph glyph-name="oacute" unicode="&#xf3;" horiz-adv-x="556" 
d="M41 208q0 53 20 94.5t54 70t80 44t98 15.5q56 0 97 -18.5t69 -49t41.5 -69t13.5 -77.5q0 -53 -20.5 -95.5t-55 -72t-80.5 -45.5t-96 -16q-45 0 -85 14t-70 41.5t-48 68.5t-18 95zM148 244q0 -52 12.5 -92t33.5 -66.5t47 -40t53 -13.5q47 0 80 36.5t33 111.5q0 44 -11 82
t-30.5 66.5t-46.5 44.5t-58 16q-22 0 -42.5 -9t-36.5 -27.5t-25 -45.5t-9 -63zM345 655q8 0 27 -3.5t28 -5.5q14 -3 18 -7.5t4 -9.5q0 -9 -9 -17t-29 -22q-37 -25 -59 -40.5t-34.5 -24.5t-18 -13t-10.5 -8t-12.5 -9t-14.5 -5q-2 0 -12 0.5t-10 4.5q30 41 55 74
q15 20 24 31.5t17 22t13.5 18t7.5 8.5q5 6 15 6z" />
    <glyph glyph-name="ocircumflex" unicode="&#xf4;" horiz-adv-x="556" 
d="M41 208q0 53 20 94.5t54 70t80 44t98 15.5q56 0 97 -18.5t69 -49t41.5 -69t13.5 -77.5q0 -53 -20.5 -95.5t-55 -72t-80.5 -45.5t-96 -16q-45 0 -85 14t-70 41.5t-48 68.5t-18 95zM148 244q0 -52 12.5 -92t33.5 -66.5t47 -40t53 -13.5q47 0 80 36.5t33 111.5q0 44 -11 82
t-30.5 66.5t-46.5 44.5t-58 16q-22 0 -42.5 -9t-36.5 -27.5t-25 -45.5t-9 -63zM280 655q10 0 17 -8t23 -31q10 -14 29.5 -41.5t42.5 -56.5q2 -3 8.5 -12t6.5 -11q0 -5 -6.5 -10.5t-9.5 -5.5q-4 0 -21 13.5t-36.5 29t-36 29t-18.5 13.5t-18.5 -13.5t-36.5 -29t-37.5 -29
t-21.5 -13.5q-5 0 -11 6.5t-6 9.5q0 1 3 5.5t7 9.5t8 9.5t5 5.5q8 9 13.5 16t13 17.5t19 26.5t31.5 44q9 14 15 20t17 6z" />
    <glyph glyph-name="otilde" unicode="&#xf5;" horiz-adv-x="556" 
d="M41 208q0 53 20 94.5t54 70t80 44t98 15.5q56 0 97 -18.5t69 -49t41.5 -69t13.5 -77.5q0 -53 -20.5 -95.5t-55 -72t-80.5 -45.5t-96 -16q-45 0 -85 14t-70 41.5t-48 68.5t-18 95zM148 244q0 -52 12.5 -92t33.5 -66.5t47 -40t53 -13.5q47 0 80 36.5t33 111.5q0 44 -11 82
t-30.5 66.5t-46.5 44.5t-58 16q-22 0 -42.5 -9t-36.5 -27.5t-25 -45.5t-9 -63zM333 507q-19 0 -36 8.5t-47 28.5q-14 9 -24.5 14.5t-21.5 5.5q-29 0 -54 -39q-2 -2 -5.5 -7.5t-5.5 -5.5t-11.5 6t-9.5 8q0 3 8 17t14 24q14 22 34.5 42.5t49.5 20.5q18 0 34 -9t33 -20
q23 -15 35.5 -20.5t24.5 -5.5q14 0 27.5 7t30.5 32q5 7 6.5 8.5t2.5 1.5t10.5 -6t9.5 -9q0 -2 -5.5 -12t-13.5 -23q-15 -23 -36 -45t-50 -22z" />
    <glyph glyph-name="odieresis" unicode="&#xf6;" horiz-adv-x="556" 
d="M41 208q0 53 20 94.5t54 70t80 44t98 15.5q56 0 97 -18.5t69 -49t41.5 -69t13.5 -77.5q0 -53 -20.5 -95.5t-55 -72t-80.5 -45.5t-96 -16q-45 0 -85 14t-70 41.5t-48 68.5t-18 95zM148 244q0 -52 12.5 -92t33.5 -66.5t47 -40t53 -13.5q47 0 80 36.5t33 111.5q0 44 -11 82
t-30.5 66.5t-46.5 44.5t-58 16q-22 0 -42.5 -9t-36.5 -27.5t-25 -45.5t-9 -63zM237 550q0 -22 -16.5 -36.5t-33.5 -14.5q-18 0 -35 15t-17 36q0 22 17.5 36t34.5 14q19 0 34.5 -15t15.5 -35zM421 550q0 -21 -16.5 -36t-34.5 -15t-34.5 15t-16.5 36q0 23 17.5 36.5t34.5 13.5
q19 0 34.5 -15t15.5 -35z" />
    <glyph glyph-name="divide" unicode="&#xf7;" 
d="M207 461q0 19 17.5 36t35.5 17t35 -17t17 -35q0 -9 -5 -18.5t-12.5 -17t-17 -12t-17.5 -4.5q-9 0 -18 4.5t-17 12t-13 16.5t-5 18zM68 288q-9 -1 -15 0.5t-6 7.5v44q0 6 6.5 7t14.5 1h382q8 0 14.5 -1t6.5 -7v-44q0 -8 -21 -8h-382zM207 173q0 10 5 19.5t13 17t17 12
t18 4.5q18 0 35 -17t17 -35q0 -10 -5 -19t-13 -16.5t-17 -12t-17 -4.5q-17 0 -35 16t-18 35z" />
    <glyph glyph-name="oslash" unicode="&#xf8;" horiz-adv-x="556" 
d="M499 462h5.5t3.5 -2t-4 -7.5t-6 -7.5l-55 -66q71 -64 71 -161q0 -54 -20.5 -96.5t-55.5 -72t-80.5 -45t-95.5 -15.5q-48 0 -76.5 11t-40.5 18q-11 -15 -22.5 -30t-23.5 -29q-5 -6 -9 -7t-21 -1q-14 0 -17.5 0.5t-3.5 2.5q9 12 17 21q7 9 12 16t6 9q6 7 16 19.5t15 19.5
q-7 6 -19 18t-24 32t-21 48.5t-9 67.5q0 57 21 99.5t56 71t80.5 42.5t93.5 14q50 0 78 -11t44 -20q16 19 26 31.5t19 25.5q2 3 6 3.5t20 1.5zM177 106q24 30 45.5 57.5t42.5 55t43.5 57.5l49.5 66q-16 18 -31.5 28t-28.5 14.5t-23 5.5t-14 1q-25 0 -46 -10t-35 -27
q-20 -23 -27.5 -53.5t-7.5 -61.5q0 -35 7.5 -69t24.5 -64zM379 311q-9 -12 -32.5 -42.5t-51.5 -66.5t-54.5 -70.5t-41.5 -55.5q5 -6 13.5 -13.5t20 -15t26.5 -12.5t34 -5q24 0 45 9t37.5 27.5t26 47t9.5 67.5q0 54 -12 85t-20 45z" />
    <glyph glyph-name="ugrave" unicode="&#xf9;" horiz-adv-x="593" 
d="M228 655q4 0 7 -0.5t7.5 -4.5t11 -12t17.5 -23q19 -26 39.5 -53.5t41.5 -55.5q1 -1 4.5 -5.5t3.5 -5.5q0 -3 -6 -4t-9 -1q-11 0 -17 4t-26 18q-8 5 -26.5 18t-39.5 27.5t-39 27.5t-25 18q-20 14 -20 26q0 5 3.5 9t17.5 8q18 4 34 6.5t21 2.5zM396 51q-46 -23 -93 -42
t-92 -19q-25 0 -51.5 10.5t-44.5 32.5q-17 20 -21.5 42t-4.5 57q0 11 0.5 37t0.5 55.5v55v35.5q-1 19 -4.5 29.5t-9.5 15.5t-15 6t-21 1q-8 1 -10 2.5t-2 12.5q0 10 3 12t16 6q1 0 20.5 5.5t43.5 11.5t46 11t28 5q7 0 8 -3.5t1 -7.5q0 -8 -1 -26.5t-3 -34.5q-1 -13 -1.5 -30
t-1 -35t-0.5 -36v-33q0 -33 1.5 -64.5t10 -55.5t27.5 -39t54 -15q20 0 39 3.5t35 8.5t27 10t13 8t3.5 29.5t2 61t0.5 70v55.5q0 24 -1 40t-6 26t-16 14t-32 4q-17 0 -22.5 2.5t-5.5 10.5q0 13 3.5 15t20.5 3q2 0 12.5 1t26 2.5t32.5 3.5t31 4q3 0 10 1.5t14.5 2.5t14.5 2
t10 1q10 0 10 -11q0 -5 -0.5 -17t-1.5 -25t-1.5 -24.5t-0.5 -16.5q0 -12 -1 -39t-2 -58.5t-1.5 -62t-0.5 -48.5q0 -39 4 -56.5t27 -17.5q13 0 31 3q2 0 10.5 1.5t10.5 1.5q4 0 5.5 -2.5t1.5 -17.5q0 -6 -4 -8t-28 -9q-13 -4 -34.5 -10t-43 -11t-40 -9t-25.5 -4
q-11 0 -13 6.5t-2 11.5t1.5 21t1.5 21z" />
    <glyph glyph-name="uacute" unicode="&#xfa;" horiz-adv-x="593" 
d="M364 655q8 0 26.5 -3.5t28.5 -5.5q14 -3 17.5 -7.5t3.5 -9.5q0 -8 -6.5 -14.5t-13.5 -11.5q-53 -37 -84.5 -59.5t-44.5 -31.5q-20 -15 -26 -18.5t-12 -3.5q-2 0 -11.5 0.5t-9.5 4.5q30 41 55 74l24 32l16.5 22t13.5 17.5t7 8.5q6 6 16 6zM396 51q-46 -23 -93 -42t-92 -19
q-25 0 -51.5 10.5t-44.5 32.5q-17 20 -21.5 42t-4.5 57q0 11 0.5 37t0.5 55.5v55v35.5q-1 19 -4.5 29.5t-9.5 15.5t-15 6t-21 1q-8 1 -10 2.5t-2 12.5q0 10 3 12t16 6q1 0 20.5 5.5t43.5 11.5t46 11t28 5q7 0 8 -3.5t1 -7.5q0 -8 -1 -26.5t-3 -34.5q-1 -13 -1.5 -30t-1 -35
t-0.5 -36v-33q0 -33 1.5 -64.5t10 -55.5t27.5 -39t54 -15q20 0 39 3.5t35 8.5t27 10t13 8t3.5 29.5t2 61t0.5 70v55.5q0 24 -1 40t-6 26t-16 14t-32 4q-17 0 -22.5 2.5t-5.5 10.5q0 13 3.5 15t20.5 3q2 0 12.5 1t26 2.5t32.5 3.5t31 4q3 0 10 1.5t14.5 2.5t14.5 2t10 1
q10 0 10 -11q0 -5 -0.5 -17t-1.5 -25t-1.5 -24.5t-0.5 -16.5q0 -12 -1 -39t-2 -58.5t-1.5 -62t-0.5 -48.5q0 -39 4 -56.5t27 -17.5q13 0 31 3q2 0 10.5 1.5t10.5 1.5q4 0 5.5 -2.5t1.5 -17.5q0 -6 -4 -8t-28 -9q-13 -4 -34.5 -10t-43 -11t-40 -9t-25.5 -4q-11 0 -13 6.5
t-2 11.5t1.5 21t1.5 21z" />
    <glyph glyph-name="ucircumflex" unicode="&#xfb;" horiz-adv-x="593" 
d="M293 655q10 0 17.5 -8t22.5 -31q11 -17 30.5 -44t42.5 -56q2 -2 8 -10.5t6 -10.5q0 -5 -6.5 -10.5t-9.5 -5.5q-4 0 -21 13.5t-36.5 29t-36 29t-18.5 13.5t-18.5 -13.5t-36.5 -29t-37.5 -29t-21.5 -13.5q-5 0 -11 6.5t-6 9.5q0 1 3 5.5t7 9.5t8 9.5t5 5.5q7 9 12.5 15.5
t13 17t19 27t32.5 44.5q9 14 15 20t17 6zM396 51q-46 -23 -93 -42t-92 -19q-25 0 -51.5 10.5t-44.5 32.5q-17 20 -21.5 42t-4.5 57q0 11 0.5 37t0.5 55.5v55v35.5q-1 19 -4.5 29.5t-9.5 15.5t-15 6t-21 1q-8 1 -10 2.5t-2 12.5q0 10 3 12t16 6q1 0 20.5 5.5t43.5 11.5t46 11
t28 5q7 0 8 -3.5t1 -7.5q0 -8 -1 -26.5t-3 -34.5q-1 -13 -1.5 -30t-1 -35t-0.5 -36v-33q0 -33 1.5 -64.5t10 -55.5t27.5 -39t54 -15q20 0 39 3.5t35 8.5t27 10t13 8t3.5 29.5t2 61t0.5 70v55.5q0 24 -1 40t-6 26t-16 14t-32 4q-17 0 -22.5 2.5t-5.5 10.5q0 13 3.5 15t20.5 3
q2 0 12.5 1t26 2.5t32.5 3.5t31 4q3 0 10 1.5t14.5 2.5t14.5 2t10 1q10 0 10 -11q0 -5 -0.5 -17t-1.5 -25t-1.5 -24.5t-0.5 -16.5q0 -12 -1 -39t-2 -58.5t-1.5 -62t-0.5 -48.5q0 -39 4 -56.5t27 -17.5q13 0 31 3q2 0 10.5 1.5t10.5 1.5q4 0 5.5 -2.5t1.5 -17.5q0 -6 -4 -8
t-28 -9q-13 -4 -34.5 -10t-43 -11t-40 -9t-25.5 -4q-11 0 -13 6.5t-2 11.5t1.5 21t1.5 21z" />
    <glyph glyph-name="udieresis" unicode="&#xfc;" horiz-adv-x="593" 
d="M255 550q0 -23 -16.5 -37t-32.5 -14q-20 0 -36 15.5t-16 35.5q0 22 17.5 36t34.5 14q19 0 34 -15t15 -35zM439 550q0 -22 -16.5 -36.5t-33.5 -14.5q-19 0 -35.5 15t-16.5 36q0 23 17.5 36.5t34.5 13.5q19 0 34.5 -15t15.5 -35zM396 51q-46 -23 -93 -42t-92 -19
q-25 0 -51.5 10.5t-44.5 32.5q-17 20 -21.5 42t-4.5 57q0 11 0.5 37t0.5 55.5v55v35.5q-1 19 -4.5 29.5t-9.5 15.5t-15 6t-21 1q-8 1 -10 2.5t-2 12.5q0 10 3 12t16 6q1 0 20.5 5.5t43.5 11.5t46 11t28 5q7 0 8 -3.5t1 -7.5q0 -8 -1 -26.5t-3 -34.5q-1 -13 -1.5 -30t-1 -35
t-0.5 -36v-33q0 -33 1.5 -64.5t10 -55.5t27.5 -39t54 -15q20 0 39 3.5t35 8.5t27 10t13 8t3.5 29.5t2 61t0.5 70v55.5q0 24 -1 40t-6 26t-16 14t-32 4q-17 0 -22.5 2.5t-5.5 10.5q0 13 3.5 15t20.5 3q2 0 12.5 1t26 2.5t32.5 3.5t31 4q3 0 10 1.5t14.5 2.5t14.5 2t10 1
q10 0 10 -11q0 -5 -0.5 -17t-1.5 -25t-1.5 -24.5t-0.5 -16.5q0 -12 -1 -39t-2 -58.5t-1.5 -62t-0.5 -48.5q0 -39 4 -56.5t27 -17.5q13 0 31 3q2 0 10.5 1.5t10.5 1.5q4 0 5.5 -2.5t1.5 -17.5q0 -6 -4 -8t-28 -9q-13 -4 -34.5 -10t-43 -11t-40 -9t-25.5 -4q-11 0 -13 6.5
t-2 11.5t1.5 21t1.5 21z" />
    <glyph glyph-name="yacute" unicode="&#xfd;" horiz-adv-x="444" 
d="M290 655q8 0 26.5 -3.5t28.5 -5.5q14 -3 17.5 -7.5t3.5 -9.5q0 -9 -8.5 -16.5t-28.5 -21.5q-34 -24 -56 -39.5t-35 -24.5t-20 -14t-12 -9t-12.5 -9t-14.5 -5q-2 0 -11.5 0.5t-9.5 4.5q28 38 51 69q14 19 22.5 30t16 21t13 17.5t7.5 9.5q7 8 11.5 10.5t10.5 2.5zM245 95
q26 55 41.5 88.5t26 55.5t17.5 37.5t15 34.5q5 11 10.5 27.5t5.5 26.5q0 15 -8.5 18.5t-37.5 7.5q-6 1 -8 3.5t-2 10.5q0 11 2 14t9 3q11 0 30 -1t48 -1q21 0 39.5 1t28.5 1q5 0 7.5 -2.5t2.5 -12.5q0 -8 -3 -11t-15 -11q-4 -3 -9 -7t-12 -14t-17.5 -27t-25.5 -44
q-43 -77 -74 -135t-57 -111t-51.5 -108t-58.5 -127q-11 -24 -19.5 -40t-19 -25.5t-24.5 -13.5t-37 -4q-12 0 -24 3.5t-12 20.5t6.5 23t25.5 16q25 13 50 44t45 63.5t32.5 57.5t12.5 26q0 2 -9 28t-23.5 65t-32 85.5t-34.5 88.5t-30.5 73.5t-20.5 42.5q-8 13 -13.5 17
t-19.5 9q-5 2 -5.5 5.5t-0.5 7.5q0 12 2.5 14.5t10.5 2.5q17 0 38 -1t53 -1q6 0 19.5 0.5t29 0.5t29 0.5t18.5 0.5q8 0 10 -2.5t2 -11.5q0 -11 -2 -13.5t-10 -3.5q-17 -2 -29.5 -6t-12.5 -20q0 -12 11.5 -48.5t26.5 -79.5t30 -83t23 -59z" />
    <glyph glyph-name="thorn" unicode="&#xfe;" horiz-adv-x="574" 
d="M355 432q38 0 70.5 -15.5t56.5 -42.5t37.5 -63.5t13.5 -79.5q0 -54 -20.5 -97.5t-56 -75t-82 -48.5t-98.5 -17q-29 0 -49 3.5t-36 7.5q0 -12 -0.5 -43t0 -65.5t2.5 -64.5t5 -41q6 -17 20.5 -21t48.5 -7q8 -1 9.5 -3.5t1.5 -11.5q0 -11 -4 -14t-12 -3q-14 0 -44 1t-56 1
q-32 0 -63 -0.5t-63 -1.5q-5 0 -7 2.5t-2 13.5q0 9 2 11t16 4q18 3 28 9.5t14.5 17.5t5.5 27t2 37q2 36 2.5 92.5t1 119t0.5 122v101.5v37.5v57t-0.5 65t-1 63.5t-1 52t-1.5 29q-2 15 -5.5 23t-10 12.5t-17 6t-26.5 3.5q-7 1 -8.5 2.5t-1.5 8.5q0 11 3 13.5t16 6.5
q12 4 33.5 11t44 13.5t42.5 11.5t27 5q11 0 11 -11q0 -3 -1 -12t-2 -18.5t-2 -18.5t-1 -12q-1 -27 -2 -83t-2 -163q51 20 88.5 31t73.5 11zM190 84q19 -10 48.5 -20.5t77.5 -10.5q23 0 43.5 5t37.5 22q24 24 31.5 55t7.5 55q0 27 -8 59t-26 59.5t-47.5 45.5t-73.5 18
q-29 0 -50.5 -5.5t-38.5 -10.5q0 -23 -0.5 -54t-1 -67t-0.5 -74.5v-76.5z" />
    <glyph glyph-name="ydieresis" unicode="&#xff;" horiz-adv-x="444" 
d="M198 550q0 -21 -16 -36t-34 -15t-35 15t-17 36q0 22 18 36t35 14q19 0 34 -15t15 -35zM382 550q0 -22 -16.5 -36.5t-33.5 -14.5q-20 0 -36 15.5t-16 35.5q0 22 17.5 36t34.5 14q19 0 34.5 -15t15.5 -35zM245 95q26 55 41.5 88.5t26 55.5t17.5 37.5t15 34.5
q5 11 10.5 27.5t5.5 26.5q0 15 -8.5 18.5t-37.5 7.5q-6 1 -8 3.5t-2 10.5q0 11 2 14t9 3q11 0 30 -1t48 -1q21 0 39.5 1t28.5 1q5 0 7.5 -2.5t2.5 -12.5q0 -8 -3 -11t-15 -11q-4 -3 -9 -7t-12 -14t-17.5 -27t-25.5 -44q-43 -77 -74 -135t-57 -111t-51.5 -108t-58.5 -127
q-11 -24 -19.5 -40t-19 -25.5t-24.5 -13.5t-37 -4q-12 0 -24 3.5t-12 20.5t6.5 23t25.5 16q25 13 50 44t45 63.5t32.5 57.5t12.5 26q0 2 -9 28t-23.5 65t-32 85.5t-34.5 88.5t-30.5 73.5t-20.5 42.5q-8 13 -13.5 17t-19.5 9q-5 2 -5.5 5.5t-0.5 7.5q0 12 2.5 14.5t10.5 2.5
q17 0 38 -1t53 -1q6 0 19.5 0.5t29 0.5t29 0.5t18.5 0.5q8 0 10 -2.5t2 -11.5q0 -11 -2 -13.5t-10 -3.5q-17 -2 -29.5 -6t-12.5 -20q0 -12 11.5 -48.5t26.5 -79.5t30 -83t23 -59z" />
    <glyph glyph-name="dotlessi" unicode="&#x131;" horiz-adv-x="296" 
d="M101 232q0 38 -1 60t-5.5 34.5t-15 17.5t-29.5 8q-9 2 -12 3.5t-3 11.5t2.5 12t13.5 7q28 12 56 23.5t57 22.5q18 7 30 7q10 0 10 -10q-2 -17 -2.5 -35t-2.5 -35q0 -8 -0.5 -18t-1 -25.5t-0.5 -39.5v-60v-34t0.5 -47.5t1.5 -45.5t3 -29q5 -20 20 -23.5t42 -5.5
q11 -1 14 -3.5t3 -11.5q0 -12 -2.5 -14.5t-10.5 -2.5q-12 0 -41 1t-71 1q-49 0 -77 -1t-45 -1q-10 0 -10 14q0 11 2.5 13.5t15.5 4.5q22 3 34 10t17.5 27.5t6.5 59t1 104.5z" />
    <glyph glyph-name="Lslash" unicode="&#x141;" horiz-adv-x="556" 
d="M228 377q34 24 57.5 40.5t41.5 29.5t33 24t32 24q2 2 4.5 -0.5t2.5 -21.5t-0.5 -24.5t-2.5 -7.5q-37 -23 -82.5 -54.5t-85.5 -59.5v-94.5t1 -69t2 -48t2 -31.5q3 -25 18 -29.5t51 -4.5q22 0 47 0.5t48.5 2.5t43.5 7.5t32 14.5q19 14 31.5 42t17.5 48q3 15 11 15
q16 0 20.5 -3.5t4.5 -11.5q0 -9 -2.5 -25t-6.5 -35.5t-8.5 -39.5t-9.5 -37q-5 -20 -7.5 -25t-9.5 -5q-8 0 -19 0.5t-35.5 1.5t-68 1.5t-116.5 0.5q-78 0 -122.5 -0.5t-67.5 -1.5t-31 -1.5t-11 -0.5q-11 0 -11 14q0 12 3 14t17 4q35 4 46 18.5t15 30.5q3 12 4.5 31.5t2.5 44
t1.5 52.5t1.5 57q-15 -11 -24.5 -17.5t-16.5 -11.5t-12.5 -9.5t-13.5 -10.5q-1 -1 -5.5 -4.5t-9.5 -7t-9.5 -6.5t-5.5 -3q-2 1 -2 7v9v7.5v12.5t0.5 12.5l0.5 5.5l13.5 9.5t31 21.5t33.5 22.5t20 13.5q0 19 0.5 56.5t0 77t-2 74.5t-4.5 48q-5 22 -20.5 27t-42.5 8
q-8 1 -10 3t-2 11q0 11 2.5 13.5t11.5 2.5q7 0 24.5 -0.5t37 -1t36.5 -1t23 -0.5q28 0 66.5 1.5t66.5 1.5q6 0 9 -2.5t3 -10.5q0 -11 -3 -14.5t-17 -4.5q-34 -2 -47 -11.5t-18 -26.5q-3 -8 -4.5 -20.5t-2 -34t-1 -54t-1.5 -80.5z" />
    <glyph glyph-name="lslash" unicode="&#x142;" horiz-adv-x="296" 
d="M100 357v21v93t-1 66t-2 43.5t-4 25.5q-5 18 -16.5 22t-40.5 8q-6 1 -8 2.5t-2 9.5q0 10 3 12.5t17 6.5q61 20 97 30.5t53 10.5q10 0 10 -11q0 -8 -1.5 -21t-3.5 -32q-2 -25 -3 -61.5t-1.5 -71.5t-0.5 -63v-37l81 60q5 3 6 -1t1 -19q-1 -14 -1.5 -20t-3.5 -8l-83 -56
q0 -120 0.5 -185.5t3.5 -96.5t8.5 -38t15.5 -10q9 -3 24 -4.5t28 -3.5q8 0 10 -3t2 -10q0 -8 -2 -12.5t-13 -4.5q-22 0 -54.5 0.5t-73.5 0.5q-35 0 -65.5 -0.5t-45.5 -0.5q-7 0 -9.5 3t-2.5 13q0 9 3.5 11t14.5 4q30 5 40 16.5t13 31.5q4 22 5 80t2 154l-80 -58q-3 -2 -3 21
q0 26 2 27z" />
    <glyph glyph-name="OE" unicode="&#x152;" horiz-adv-x="1037" 
d="M661 352h85.5t49 0.5t25.5 1.5l16 2q38 4 47.5 19.5t12.5 38.5q2 14 4 17t15 3q14 0 14 -7q0 -21 -1.5 -45t-1.5 -61q0 -41 1.5 -58.5t1.5 -28.5q0 -7 -2 -9.5t-13 -2.5t-13.5 2t-4.5 15q-3 38 -19.5 50t-44.5 16q-13 2 -35.5 3t-48 1.5t-49.5 0.5h-39v-117.5t1 -72
t3 -38.5t5 -18q7 -11 26 -15t64 -4q54 0 89 4t58 16.5t38.5 34.5t28.5 58q5 11 6.5 14.5t6.5 3.5t15 -2.5t10 -10.5q0 -4 -3 -20t-7.5 -36.5t-10 -42.5t-10.5 -39q-5 -18 -8 -22.5t-13 -4.5l-65 1q-24 0 -51 0.5t-51.5 1t-45.5 0.5h-34q-24 0 -52 -0.5t-54.5 -1t-47 -1
t-29.5 -1.5q-36 -3 -72.5 -6t-53.5 -3q-104 0 -172.5 31.5t-109 79.5t-57 105t-16.5 108q0 53 18.5 111.5t62 108t116 82t180.5 32.5q27 0 46 -1.5t50 -5.5q26 -3 48.5 -5t57.5 -2h29.5t42.5 0.5t51.5 1t55.5 0.5t55.5 0.5t50.5 1t41 0.5h27q4 0 7 -1.5t3 -7.5
q0 -3 -1 -11.5t-2 -18t-2 -17.5t-1 -11q-3 -26 -4 -44.5t-2 -39.5q0 -5 -2.5 -7t-14.5 -2t-14.5 3t-4.5 17q-3 28 -7.5 46t-20 29t-48 15.5t-91.5 4.5q-43 0 -66 -1t-34 -4t-13 -8.5t-2 -13.5v-212zM167 341q0 -87 23.5 -146t61 -95t85 -52t96.5 -16q44 0 67.5 8t35 22
t13.5 33.5t3 42.5q2 85 2.5 159t0.5 156q0 48 -1.5 68t-7.5 33q-3 8 -11.5 16t-24 15.5t-39.5 12t-58 4.5q-60 0 -97 -14t-62 -34q-30 -24 -47.5 -55.5t-26 -61.5t-11 -56t-2.5 -40z" />
    <glyph glyph-name="oe" unicode="&#x153;" horiz-adv-x="815" 
d="M773 94l5 -16l1.5 -6t0.5 -4t-15 -14.5t-41 -27t-59.5 -26t-71.5 -11.5q-13 0 -32.5 2.5t-40 10.5t-40 23t-33.5 39l-20.5 -20.5t-32.5 -23.5q-38 -20 -75.5 -25.5t-57.5 -5.5q-54 0 -95 18t-68.5 48.5t-42 70t-14.5 82.5q0 56 21.5 97.5t56 70t77.5 42.5t87 14
q42 0 71.5 -8t49.5 -19t32 -23.5t19 -20.5q6 7 17 19t29.5 23.5t45 20t63.5 8.5q41 0 70 -12t48.5 -30t30.5 -39.5t16 -41.5q2 -7 3.5 -8t6.5 -3q5 -1 5.5 -6.5t0.5 -10.5q0 -17 -4 -20.5t-20 -5.5q-65 -11 -128.5 -21.5t-127.5 -23.5q2 -15 7 -41.5t18.5 -52.5t39 -45
t68.5 -19q33 0 64 11t58 31h7zM148 236q0 -53 14.5 -91.5t36 -63.5t47.5 -37t50 -12q50 0 83.5 41.5t33.5 114.5q0 39 -10 75.5t-28.5 64.5t-45.5 44.5t-62 16.5q-28 0 -50.5 -12t-37.5 -33t-23 -48.5t-8 -59.5zM510 245q47 9 83 17.5t43 10.5q24 6 30.5 10.5t6.5 15.5
q0 9 -5 24.5t-15 31t-26 26.5t-37 11q-29 0 -45 -17t-23.5 -40.5t-9.5 -48.5t-2 -41z" />
    <glyph glyph-name="Scaron" unicode="&#x160;" horiz-adv-x="556" 
d="M280 706q-13 0 -21 6t-22 23q-9 11 -21.5 25.5t-26 29t-26.5 28.5t-22 23l-6 6l-8.5 8.5t-8 9t-3.5 5.5q0 3 7.5 10t12.5 7q4 0 26 -15t47.5 -33.5t46.5 -33.5t23 -15q3 0 24.5 15t46.5 32.5t47 32.5t26 15q5 0 11.5 -7.5t6.5 -11.5q0 -1 -3.5 -5.5t-8 -9.5t-9.5 -9.5
t-7 -6.5q-30 -30 -53.5 -57t-43.5 -51q-8 -10 -15.5 -15.5t-19.5 -5.5zM467 567q0 -8 1 -20l2 -24t2 -21.5t1 -11.5q0 -10 -8 -13.5t-18 -3.5q-8 0 -10 11q-11 31 -20 52t-31 38q-23 17 -50 23.5t-50 6.5q-56 0 -85.5 -29.5t-29.5 -73.5q0 -27 9.5 -45.5t28.5 -33
t46.5 -27.5t63.5 -29q36 -15 70 -31.5t60.5 -39t42.5 -52.5t16 -72q0 -47 -20 -82.5t-48 -55.5q-23 -16 -62 -30.5t-110 -14.5q-30 0 -58.5 2.5t-52 6t-39 6t-20.5 2.5q-11 0 -14 -4.5t-12 -4.5q-8 0 -10 2.5t-4 9.5q-4 25 -7 51.5t-5 50t-3 40t-1 20.5q0 5 3.5 14.5
t25.5 9.5q5 0 7 -6t4 -17q10 -37 24 -59.5t31 -36.5q29 -22 65.5 -31.5t67.5 -9.5q57 0 91.5 31.5t34.5 80.5q0 27 -9.5 46t-28.5 34t-47 28.5t-65 29.5q-35 15 -67 31t-56 37t-38.5 49t-14.5 68q0 35 13 67t40.5 56.5t70.5 39t104 14.5q21 0 44.5 -2t44.5 -4q20 -3 35 -5
t17 -2q5 0 11 3q10 2 11 2q6 0 6 -8v-63z" />
    <glyph glyph-name="scaron" unicode="&#x161;" horiz-adv-x="407" 
d="M206 491q-11 0 -18.5 8t-24.5 32q-12 18 -22 32t-19.5 26t-18.5 23.5t-20 24.5q-6 8 -7.5 9.5t-1.5 3.5q0 4 6 10.5t11 6.5q4 0 21.5 -13.5t37.5 -29t36.5 -29t18.5 -13.5t18 13.5t35.5 29t37 29t21.5 13.5q3 0 9.5 -5.5t6.5 -10.5q0 -2 -6 -10.5t-8 -10.5
q-6 -7 -16.5 -21.5t-22.5 -31l-24 -33t-20 -28.5t-14 -18.5t-16 -6.5zM371 116q0 -32 -14 -56t-38.5 -39.5t-57 -23.5t-70.5 -8q-20 0 -38.5 2t-34.5 4t-28 4t-18 2q-5 0 -8.5 -0.5t-8.5 -0.5q-3 0 -4 2t-2 8.5t-1 20.5v38q0 18 -2 32t-2 24q0 8 8 10t15 2q5 0 7 -3.5
t6 -14.5q10 -34 28 -52.5t36.5 -27.5t35 -10.5t23.5 -1.5q25 0 39.5 7.5t22 18t9.5 21t2 16.5q0 29 -25.5 48t-84.5 47q-17 8 -36.5 18.5t-35.5 24.5t-26.5 33.5t-10.5 46.5q0 17 7 38.5t26 40.5t52 32t84 13q13 0 28 -1t28 -2.5t22 -3t11 -1.5t7 1t9 1q5 0 6 -3.5t3 -17.5
q1 -5 2 -17t2.5 -25.5t2.5 -25.5t1 -18t-3.5 -9t-20.5 -3q-4 0 -6 2t-7 11q-16 35 -39.5 54.5t-61.5 19.5q-22 0 -35 -7t-20 -16t-9 -18.5t-2 -15.5q0 -24 19.5 -41.5t70.5 -40.5q25 -11 49.5 -23.5t44 -28t31.5 -37t12 -50.5z" />
    <glyph glyph-name="Ydieresis" unicode="&#x178;" horiz-adv-x="611" 
d="M420 824q20 0 36.5 -16t16.5 -36q0 -22 -17 -37.5t-37 -15.5q-18 0 -35.5 15t-17.5 38q0 22 17.5 37t36.5 15zM203 824q20 0 36.5 -16t16.5 -36q0 -22 -17 -37.5t-36 -15.5q-18 0 -36 15t-18 38q0 22 17.5 37t36.5 15zM353 218q0 -53 0.5 -83t2 -46t3.5 -21.5t4 -10.5
q8 -15 25 -20t49 -8q6 0 8 -2.5t2 -10.5q0 -12 -2 -15t-9 -3q-13 0 -43 1.5t-98 1.5q-8 0 -26.5 -0.5t-39 -1t-38.5 -1t-25 -0.5q-8 0 -10 2.5t-2 15.5q0 9 3.5 11t19.5 4q25 3 38.5 10t20.5 17.5t8.5 23.5t1.5 29q0 15 0.5 29t1 30t1 35t0.5 44q0 6 -1 10t-3.5 9.5t-7.5 14
t-13 22.5q-13 21 -37 59.5t-50.5 80t-51.5 78t-40 54.5q-14 17 -22 21.5t-23 9.5q-5 1 -5 15q0 9 1.5 11t6.5 2q14 0 43.5 -1t86.5 -1q37 0 61.5 1t35.5 1t12.5 -4.5t1.5 -8.5q0 -11 -2.5 -14.5t-15.5 -3.5q-3 0 -10.5 -0.5t-14.5 -2.5t-12.5 -6.5t-5.5 -12.5t11 -30
t27.5 -50.5t35.5 -59.5t35.5 -57t28 -43t12.5 -18q11 16 26 40t30.5 48.5t28.5 45.5t19 31q14 24 22 38.5t11.5 23.5t4 13t0.5 7q0 19 -17 25t-40 8q-9 2 -12 3.5t-3 9.5q0 13 3 15t11 2q16 0 39 -0.5t63 -0.5q43 0 61.5 0.5t29.5 0.5q6 0 8.5 -2t2.5 -10q0 -11 -2.5 -13
t-13.5 -7q-10 -3 -22 -11t-36 -36t-64.5 -84t-107.5 -157q-1 -2 -4.5 -7t-7 -10.5t-6.5 -10t-3 -6.5q0 -1 -0.5 -8t-0.5 -16.5v-20v-18.5z" />
    <glyph glyph-name="Zcaron" unicode="&#x17d;" horiz-adv-x="630" 
d="M339 706q-12 0 -20 6t-22 23q-10 13 -21 25t-23.5 25.5t-28.5 30t-37 38.5q-8 9 -10.5 11.5t-2.5 4.5q0 3 7.5 10t12.5 7t27 -15t47.5 -33.5t46.5 -33.5t23 -15q3 0 24.5 15t46.5 32.5t47 32.5t26 15t11 -7.5t7 -11.5q0 -1 -3.5 -5.5t-8.5 -9.5l-9.5 -9.5l-6.5 -6.5
q-31 -30 -54 -57t-43 -51q-9 -10 -16 -15.5t-20 -5.5zM181 44q26 0 70.5 0.5t91 3t87.5 7.5t60 13q20 9 39 31.5t38 74.5q2 7 5 10t12 3q14 0 17 -2.5t3 -7.5q0 -7 -6.5 -44.5t-28.5 -111.5q-5 -17 -9 -20t-12 -3q-19 0 -41 0.5t-52.5 1.5t-71.5 1.5t-98 0.5
q-88 0 -144.5 -2t-99.5 -2q-11 0 -13 3t-2 11q0 10 1.5 13.5t9.5 12.5q112 138 214.5 279.5t195.5 272.5q-70 0 -115 -1.5t-73 -3t-43 -3.5t-27 -4q-30 -7 -51 -27.5t-41 -75.5q-2 -7 -5.5 -10.5t-12.5 -3.5q-19 0 -19 11q0 3 6 42.5t26 108.5q3 11 4.5 13.5t7.5 2.5
q9 0 19 -0.5t31 -2.5q17 -1 39 -1.5t45 -1t44.5 -0.5h37.5t54.5 0.5t81 1t80.5 1t53 0.5q8 0 10.5 -1.5t2.5 -10.5t-4.5 -16.5t-23.5 -30.5q-103 -130 -198 -259.5t-195 -273.5z" />
    <glyph glyph-name="zcaron" unicode="&#x17e;" horiz-adv-x="444" 
d="M247 491q-11 0 -18.5 8t-24.5 32q-12 18 -22 32t-19.5 26t-18.5 23.5t-20 24.5q-6 8 -7.5 9.5t-1.5 3.5q0 4 6 10.5t11 6.5q4 0 21.5 -13.5t37.5 -29t36.5 -29t18.5 -13.5t18 13.5t35.5 29t37 29t21.5 13.5q3 0 9.5 -5.5t6.5 -10.5q0 -2 -6 -10.5t-8 -10.5
q-23 -29 -41.5 -55.5t-31.5 -45.5q-16 -23 -23 -30.5t-17 -7.5zM150 35q59 1 99 3.5t67 10t43.5 22t28.5 41.5q9 20 12 24.5t8 4.5t14.5 -2t9.5 -9q0 -5 -8.5 -38t-28.5 -83q-5 -14 -10 -14q-4 0 -9.5 1.5t-11.5 2.5q-13 2 -31.5 2.5t-62.5 0.5h-32h-38.5t-37.5 -0.5
t-30 -0.5q-6 0 -21 -0.5t-31.5 -1t-31 -1t-20.5 -0.5t-8 1.5t-2 9.5q0 10 1 13.5t8 11.5q47 53 95 114.5t88 114.5t65.5 88.5l25.5 35.5q-47 -2 -93 -3.5t-71 -9.5q-24 -8 -36 -27t-24 -46q-4 -8 -5.5 -10t-5.5 -2q-3 0 -14 2t-11 8q0 7 3 15t5 15q7 30 10 49.5t6 39.5
q1 8 2.5 9.5t6.5 1.5q3 0 9.5 -2.5t13.5 -3.5q9 -1 24 -2t32.5 -1.5t35.5 -0.5h33h50t52 1q6 0 19.5 0.5t28.5 0.5t28.5 0.5t18.5 0.5q3 0 5.5 -2t2.5 -10t-1.5 -11t-10.5 -14q-25 -30 -50 -60.5t-55 -69.5t-68.5 -92t-91.5 -128z" />
    <glyph glyph-name="florin" unicode="&#x192;" 
d="M383 343q7 0 7 -3q0 -2 -2 -13t-3 -16q-2 -7 -2.5 -8.5t-4.5 -1.5h-91q-17 -96 -29 -159t-23 -105t-23 -69t-30 -51q-25 -33 -62.5 -59.5t-81.5 -26.5q-29 0 -44.5 12t-15.5 25q0 11 11.5 27t28.5 16q8 0 12.5 -3t16.5 -14q5 -4 11 -8t16 -4q23 0 33 21t16 47
q3 12 8.5 39t11.5 61.5t13 72.5t13 73.5t11 63.5t8 42l-66 -1q-8 0 -8 3l0.5 4.5t1.5 9.5t3 9.5t4 5.5t11.5 2t21.5 2.5t23.5 3t15.5 1.5q14 74 35.5 133t70.5 103q24 23 63.5 45t88.5 22q26 0 44 -7t29.5 -17.5t17 -22t5.5 -21.5q0 -20 -15.5 -31t-38.5 -11
q-11 0 -16.5 7.5t-10.5 18.5t-15.5 21.5t-32.5 10.5q-32 0 -57 -26.5t-38 -70.5q-8 -27 -14.5 -61t-16.5 -92h89z" />
    <glyph glyph-name="circumflex" unicode="&#x2c6;" horiz-adv-x="500" 
d="M252 655q11 0 18 -8t22 -31q12 -17 31 -44t42 -56q2 -2 8 -10.5t6 -10.5q0 -5 -6 -10.5t-9 -5.5q-4 0 -21.5 13.5t-37 29t-35.5 29t-18 13.5q-3 0 -19.5 -13.5t-36.5 -29t-37.5 -29t-21.5 -13.5q-5 0 -10.5 6.5t-5.5 9.5q0 1 3 5.5t6.5 9.5t7.5 9.5t5 5.5q8 9 13 15.5
t12.5 17t19.5 27t32 44.5q10 14 15.5 20t16.5 6z" />
    <glyph glyph-name="caron" unicode="&#x2c7;" horiz-adv-x="500" 
d="M252 491q-11 0 -18 8t-24 32q-13 18 -23 32t-19.5 26t-18.5 23.5t-20 24.5q-6 8 -7 9.5t-1 3.5q0 4 5.5 10.5t10.5 6.5q4 0 21.5 -13.5t37.5 -29t36.5 -29t19.5 -13.5q1 0 17.5 13.5t36 29t37 29t21.5 13.5q3 0 9 -5.5t6 -10.5q0 -2 -6 -10.5t-8 -10.5q-6 -7 -16 -21.5
t-22 -31l-24 -33t-20 -28.5t-14.5 -18.5t-16.5 -6.5z" />
    <glyph glyph-name="breve" unicode="&#x2d8;" horiz-adv-x="500" 
d="M250 491q-33 0 -57.5 13.5t-40.5 34t-24 45t-8 45.5q0 5 3 5.5t11 0.5t12.5 -0.5t5.5 -5.5q3 -19 13.5 -33t25 -23t30.5 -13t29 -4q42 0 67.5 22.5t30.5 50.5q1 5 5.5 5.5t12.5 0.5t11 -0.5t3 -5.5q0 -21 -8 -45.5t-24 -45t-40.5 -34t-57.5 -13.5z" />
    <glyph glyph-name="dotaccent" unicode="&#x2d9;" horiz-adv-x="500" 
d="M307 550q0 -24 -18 -40.5t-38 -16.5q-21 0 -39.5 17t-18.5 40q0 24 19 40t39 16q23 0 39.5 -17.5t16.5 -38.5z" />
    <glyph glyph-name="ring" unicode="&#x2da;" horiz-adv-x="500" 
d="M253 482q-20 0 -39 6t-33.5 17.5t-23 27.5t-8.5 36q0 41 31.5 64.5t72.5 23.5q42 0 73 -23.5t31 -64.5q0 -40 -31.5 -63.5t-72.5 -23.5zM253 511q24 0 35 19t11 39q0 21 -11 40t-35 19t-35 -19.5t-11 -39.5t11 -39t35 -19z" />
    <glyph glyph-name="ogonek" unicode="&#x2db;" horiz-adv-x="500" 
d="M343 8q-9 -6 -20.5 -15.5t-21.5 -22t-17 -28.5t-7 -37q0 -26 14 -40.5t37 -14.5q13 0 21.5 3.5t16.5 8.5h8q0 -14 -0.5 -17.5t-4.5 -6.5q-2 -2 -22 -12.5t-52 -10.5q-38 0 -61.5 19t-23.5 50q0 24 11 43t26.5 34.5t33.5 27t31 19.5h31z" />
    <glyph glyph-name="tilde" unicode="&#x2dc;" horiz-adv-x="500" 
d="M306 507q-19 0 -35.5 8.5t-47.5 28.5q-14 9 -25 14.5t-22 5.5q-29 0 -54 -39q-2 -2 -5.5 -7.5t-5.5 -5.5t-11.5 6t-9.5 9q0 2 8.5 17t13.5 23q14 21 34 42t50 21q18 0 34 -9t33 -20q24 -16 36.5 -21t23.5 -5q19 0 32 9.5t27 29.5q5 7 6 8.5t2 1.5t10.5 -6t9.5 -9
q0 -2 -6 -13t-13 -22q-15 -24 -35.5 -45.5t-49.5 -21.5z" />
    <glyph glyph-name="hungarumlaut" unicode="&#x2dd;" horiz-adv-x="500" 
d="M249 646q6 0 22.5 -2.5t25.5 -4.5q19 -3 19 -15q0 -7 -4.5 -13t-9.5 -10q-16 -14 -33.5 -29t-33 -28.5t-27.5 -23.5t-17 -15q-11 -11 -15.5 -13t-9.5 -2q-4 0 -10 0.5t-6 2.5l12.5 21.5t27.5 47t28 47.5t14 24q5 8 8.5 10.5t8.5 2.5zM324 505q-12 -11 -16 -13t-9 -2
q-4 0 -10 0.5t-6 2.5l12 21.5t27 47t28 47.5t14 24q9 13 18 13q6 0 21.5 -2.5t26.5 -4.5q19 -3 19 -15q0 -8 -6.5 -15.5t-23.5 -21.5z" />
    <glyph glyph-name="endash" unicode="&#x2013;" horiz-adv-x="481" 
d="M39 199v51h404v-51h-404z" />
    <glyph glyph-name="emdash" unicode="&#x2014;" horiz-adv-x="759" 
d="M41 199v51h677v-51h-677z" />
    <glyph glyph-name="quoteleft" unicode="&#x2018;" horiz-adv-x="241" 
d="M219 654q-19 -7 -32 -13t-29 -17q-27 -19 -42 -43t-15 -48q0 -25 15 -36t35 -22q15 -8 20.5 -17t5.5 -20q0 -21 -16.5 -34.5t-36.5 -13.5q-13 0 -28.5 7.5t-29 21.5t-22.5 35t-9 48q0 47 22 79t50.5 52t55 29t34.5 9q4 0 8 -2.5t15 -9.5z" />
    <glyph glyph-name="quoteright" unicode="&#x2019;" horiz-adv-x="241" 
d="M21 403q22 8 34 13t27 16q29 21 43 45t14 47q0 25 -14.5 36t-34.5 22q-17 8 -22 17.5t-5 19.5q0 22 16.5 35t36.5 13q13 0 29 -7t29.5 -21.5t22.5 -35.5t9 -49q0 -47 -22 -79t-50.5 -52t-55 -28.5t-35.5 -8.5q-4 0 -8 2t-15 10z" />
    <glyph glyph-name="quotesinglbase" unicode="&#x201a;" horiz-adv-x="241" 
d="M21 -157q22 8 34 13t27 16q30 22 43.5 46t13.5 46q0 25 -14 36t-35 22q-16 8 -21.5 17t-5.5 20q0 20 16 34t37 14q14 0 29.5 -7.5t29 -21.5t22.5 -35.5t9 -48.5q0 -47 -22 -79t-50.5 -52t-55 -28.5t-35.5 -8.5q-3 0 -6.5 2t-16.5 10z" />
    <glyph glyph-name="quotedblleft" unicode="&#x201c;" horiz-adv-x="444" 
d="M423 654q-22 -8 -34 -13.5t-27 -16.5q-29 -20 -43 -44t-14 -47q0 -25 14.5 -36t34.5 -22q17 -8 22 -18t5 -19q0 -22 -16.5 -35t-36.5 -13q-13 0 -29 7.5t-29 21.5t-22 35.5t-9 48.5q0 47 22 79t50.5 51.5t54.5 28.5t35 9q4 0 8 -2.5t15 -9.5zM219 654q-19 -7 -32 -13
t-29 -17q-27 -19 -42 -43t-15 -48q0 -25 15 -36t35 -22q15 -8 20.5 -17t5.5 -20q0 -21 -16.5 -34.5t-36.5 -13.5q-13 0 -28.5 7.5t-29 21.5t-22.5 35t-9 48q0 47 22 79t50.5 52t55 29t34.5 9q4 0 8 -2.5t15 -9.5z" />
    <glyph glyph-name="quotedblright" unicode="&#x201d;" horiz-adv-x="444" 
d="M21 403q22 8 34 13t27 16q29 21 43 45t14 47q0 25 -14.5 36t-34.5 22q-17 8 -22 17.5t-5 19.5q0 22 16.5 35t36.5 13q13 0 29 -7t29.5 -21.5t22.5 -35.5t9 -49q0 -47 -22 -79t-50.5 -52t-55 -28.5t-35.5 -8.5q-4 0 -8 2t-15 10zM225 403q19 7 32 12.5t29 16.5
q29 20 43 44.5t14 47.5q0 25 -14.5 36t-34.5 22q-17 8 -22 18t-5 19q0 22 16.5 35t36.5 13q14 0 29.5 -7.5t28.5 -21.5t22 -35.5t9 -48.5q0 -46 -22 -78.5t-50.5 -52t-54.5 -28.5t-35 -9q-4 0 -8 2.5t-15 9.5z" />
    <glyph glyph-name="quotedblbase" unicode="&#x201e;" horiz-adv-x="444" 
d="M21 -157q22 8 34 13t27 16q30 22 43.5 46t13.5 46q0 25 -14 36t-35 22q-16 8 -21.5 17t-5.5 20q0 20 16 34t37 14q14 0 29.5 -7.5t29 -21.5t22.5 -35.5t9 -48.5q0 -47 -22 -79t-50.5 -52t-55 -28.5t-35.5 -8.5q-3 0 -6.5 2t-16.5 10zM225 -157q19 7 32 12.5t29 16.5
q29 21 43 45.5t14 46.5q0 25 -14.5 36t-34.5 22q-17 8 -22 17t-5 20q0 20 16 34t37 14q14 0 29.5 -7.5t28.5 -22t22 -35.5t9 -48q0 -47 -22 -79t-50.5 -51.5t-54.5 -28.5t-35 -9q-4 0 -7.5 2t-15.5 10z" />
    <glyph glyph-name="dagger" unicode="&#x2020;" 
d="M276 372q43 0 69.5 8.5t39.5 15.5q10 5 23.5 12.5t17.5 7.5q5 0 14.5 -6t20 -14.5t18 -18.5t7.5 -19q0 -10 -7 -21t-17 -20.5t-20 -15.5t-15 -6q-1 0 -6 2.5l-11 5.5l-11 5.5l-7 3.5q-30 17 -56.5 22.5t-59.5 6.5q0 -27 4 -63.5t16 -60.5l6 -9t9 -13t8.5 -13.5t3.5 -9.5
q0 -2 -2 -8t-4.5 -12l-5 -12t-3.5 -8q-7 -22 -12 -50t-8.5 -68t-5.5 -94.5t-3 -129.5q0 -19 -0.5 -29.5t-2.5 -15.5t-6 -6t-12 -1q-16 0 -18.5 7.5t-3.5 40.5q0 31 -1 75t-3.5 90t-6.5 88.5t-12 72.5q-1 3 -4 12.5t-6.5 19.5t-6 18.5t-2.5 9.5q0 3 3.5 9t8.5 13t9.5 12.5
t5.5 8.5q16 31 18.5 66.5t2.5 59.5q-33 -2 -56.5 -8t-37.5 -11q-3 -1 -11 -5.5t-17 -9t-17 -8t-11 -3.5q-5 0 -15 6.5t-20 15.5t-17.5 19.5t-7.5 18.5q0 11 8 21.5t18 19.5t20 14.5t14 5.5t19 -8t26 -13q14 -8 40 -15.5t65 -8.5q-2 62 -6 99.5t-15 60.5q-1 3 -5.5 10
t-9 14.5t-8 14t-3.5 9.5q0 6 6.5 17t16.5 22t21.5 19t21.5 8q11 0 22 -9t20 -20.5t15 -22t6 -14.5q0 -7 -8.5 -18.5t-18.5 -31.5q-7 -15 -11 -37t-6.5 -45t-3 -43.5t-0.5 -32.5z" />
    <glyph glyph-name="daggerdbl" unicode="&#x2021;" 
d="M243 349q-46 -1 -72 -8t-34 -9q-3 -1 -11 -5.5t-17 -9t-17.5 -8t-11.5 -3.5q-5 0 -14.5 6t-18.5 14.5t-15.5 18t-6.5 16.5q0 11 7 21.5t16.5 19.5t18.5 14.5t13 5.5q3 0 11 -3t16 -7l15 -7.5t10 -4.5q8 -3 35.5 -11t75.5 -9q0 14 -1 34.5t-4 43t-7 43t-10 33.5
q-1 3 -5 9.5t-8 14t-7.5 14t-3.5 9.5q0 6 6 16.5t15.5 21.5t21 19t21.5 8q11 0 22 -8.5t20 -20t15 -22t6 -13.5q0 -7 -9.5 -20t-18.5 -31q-14 -28 -17 -70.5t-3 -80.5q33 1 62.5 5t55.5 16q3 1 9 4.5t13 7t13.5 6.5t8.5 3q5 0 14 -6t18 -14.5t16 -18t7 -17.5
q0 -10 -7.5 -20.5t-17 -19.5t-18.5 -15t-13 -6q-1 0 -7.5 3t-14.5 7.5t-15 8.5t-10 5q-31 13 -56.5 16t-57.5 4q2 -49 9 -73.5t14 -38.5q1 -3 5 -9t8 -12.5t7 -12t3 -7.5q0 -4 -9 -15t-11 -15q-11 -20 -19 -54t-9 -68q39 1 73 8.5t55 16.5q5 2 18.5 9.5t18.5 7.5q6 0 15 -6
t17.5 -14.5t15 -18t6.5 -17.5q0 -11 -7 -21.5t-16.5 -19t-18.5 -13.5t-13 -5t-8.5 2t-6.5 4q-15 8 -53.5 21.5t-95.5 14.5q0 -17 1.5 -39t4 -44.5t6.5 -43.5t10 -36q2 -3 6 -10t8 -15l7.5 -15t3.5 -10q0 -5 -6.5 -15t-16 -20.5t-20.5 -18.5t-20 -8q-10 0 -21 8.5t-20 19.5
t-15 21t-6 14q0 3 3.5 10.5t7.5 15.5t8 14.5t5 9.5q8 18 13 41t7 45.5t2.5 42.5t0.5 32q-19 0 -52.5 -2.5t-69.5 -18.5l-8 -4t-12.5 -6.5t-12.5 -6t-8 -2.5q-4 0 -13.5 5.5t-18.5 13.5t-16 17.5t-7 18.5q0 11 7 21.5t16 19.5t18 14.5t13 5.5q2 0 9.5 -3.5t15.5 -7.5t15.5 -8
t10.5 -6q31 -14 63 -16.5t49 -2.5q-1 21 -5.5 54.5t-16.5 57.5q-1 3 -5 8.5t-8.5 11.5t-8 11.5t-3.5 8.5t3.5 9t7.5 12.5t8.5 12.5t5.5 8q15 29 19 61t4 50z" />
    <glyph glyph-name="bullet" unicode="&#x2022;" horiz-adv-x="146" 
d="M0 322q0 13 6.5 26.5t17 24t24 17t26.5 6.5t26 -7t23 -17.5t16.5 -23.5t6.5 -25q0 -13 -7 -26t-17.5 -23.5t-23.5 -17t-25 -6.5t-25 6.5t-23.5 17t-17.5 23t-7 25.5z" />
    <glyph glyph-name="ellipsis" unicode="&#x2026;" horiz-adv-x="722" 
d="M55 53q0 12 6 24t15.5 21t21.5 15t23 6q12 0 23.5 -6t20.5 -16t14.5 -21t5.5 -22q0 -12 -6 -23.5t-15 -20.5t-20.5 -15t-22.5 -6t-23 6t-21.5 15t-15.5 20.5t-6 22.5zM296 53q0 12 6 23.5t15.5 21t21 15.5t23.5 6t23.5 -6t20.5 -16t14.5 -21t5.5 -22q0 -12 -6 -23.5
t-15.5 -20.5t-21 -15t-22.5 -6t-22.5 6t-21 15t-15.5 20.5t-6 22.5zM537 53q0 12 6 24t15.5 21t21 15t23.5 6t23.5 -6t20.5 -16t14.5 -21t5.5 -22q0 -12 -6 -23.5t-15.5 -20.5t-21 -15t-22.5 -6t-22.5 6t-21 15t-15.5 20.5t-6 22.5z" />
    <glyph glyph-name="perthousand" unicode="&#x2030;" horiz-adv-x="1037" 
d="M28 478q0 43 14 74.5t36.5 52t50.5 30.5t57 10q36 0 62 -14t43 -36.5t25 -51t8 -56.5q0 -39 -13 -70t-35 -52.5t-50.5 -33t-59.5 -11.5q-61 0 -99.5 43t-38.5 115zM103 506q0 -78 25.5 -115.5t57.5 -37.5q17 0 29 9t19.5 24t11 34t3.5 40q0 25 -4.5 52t-15 49t-26 36
t-38.5 14q-32 0 -47 -30.5t-15 -74.5zM370 152q0 43 13.5 74.5t36 52t51 30.5t57.5 10q36 0 62 -14t43 -36.5t25 -51t8 -56.5q0 -39 -13.5 -70t-35.5 -52.5t-50.5 -33t-59.5 -11.5q-60 0 -98.5 42.5t-38.5 115.5zM445 180q0 -78 25.5 -115t57.5 -37q18 0 30 9t19.5 23.5
t10.5 33.5t3 40q0 28 -5 55t-15.5 48.5t-26.5 34.5t-37 13q-30 0 -46 -29t-16 -76zM713 152q0 43 13.5 74.5t36 52t51 30.5t57.5 10q36 0 62 -14t43 -36.5t25 -51t8 -56.5q0 -39 -13.5 -70t-35.5 -52.5t-50.5 -33t-58.5 -11.5q-61 0 -99.5 43t-38.5 115zM788 180
q0 -78 25.5 -115t57.5 -37q18 0 30 9t19.5 23.5t10.5 34t3 40.5q0 27 -5 54t-15.5 48.5t-26 34.5t-36.5 13q-31 0 -47 -29.5t-16 -75.5zM145 0q9 14 36.5 61.5t64 112t77 138t76.5 138.5t62 113t32 62q2 6 4 9h52q-17 -26 -40 -66t-43 -75q-22 -39 -48.5 -87t-53.5 -96.5
t-52 -94t-44 -80.5q-19 -34 -31 -55t-19 -35.5t-11 -24t-9 -20.5h-53z" />
    <glyph glyph-name="guilsinglleft" unicode="&#x2039;" horiz-adv-x="296" 
d="M33 221q0 5 3 8.5t16 14.5q58 47 97.5 82t72.5 65q9 8 11.5 10t5.5 2q4 0 13.5 -5t9.5 -10q0 -3 -16 -26t-35 -49t-35 -48t-17 -23q-10 -11 -12 -16t-2 -8q0 -2 1.5 -6.5t8.5 -12.5t25 -30t36.5 -47t33 -46t14.5 -26t-10 -10.5t-14 -5.5q-2 0 -8.5 6.5l-11.5 11.5
q-7 6 -22 20.5t-36.5 34t-47.5 42t-54 44.5q-18 14 -22.5 18.5t-4.5 9.5z" />
    <glyph glyph-name="guilsinglright" unicode="&#x203a;" horiz-adv-x="296" 
d="M263 221q0 -5 -4.5 -9.5t-21.5 -18.5q-30 -24 -59 -49t-53 -46.5t-40 -37.5l-21 -21q-2 -2 -4 -3.5t-4 -1.5q-3 0 -13.5 5t-10.5 11q0 5 13.5 24.5t31 43t34 44t22.5 27.5q12 15 15 19.5t3 9.5q0 4 -2 8.5t-11 15.5q-2 2 -18.5 24t-35 48t-34 48.5t-15.5 25.5q0 5 9 10
t14 5q3 0 14 -9.5t16 -14.5q25 -23 53 -47.5t52 -45t41 -34t19 -15.5q7 -5 8.5 -8.5t1.5 -7.5z" />
    <glyph glyph-name="fraction" unicode="&#x2044;" horiz-adv-x="93" 
d="M-133 0q8 14 32.5 63t56.5 114.5t68 139t67 138t52.5 111t25.5 56.5q2 3 2.5 6t2.5 6h52q-9 -15 -27 -50.5t-41.5 -82.5t-49 -100t-50 -103t-45 -93.5t-33.5 -69.5q-17 -34 -27 -55t-16 -35t-10 -24t-8 -21h-52z" />
    <glyph glyph-name="trademark" unicode="&#x2122;" horiz-adv-x="815" 
d="M138 602q-33 0 -51 -1.5t-27.5 -6t-13 -12.5t-7.5 -20q-2 -8 -11 -8q-3 0 -8.5 1t-5.5 6q0 3 1.5 12.5t3.5 20t4 20.5t3 14q2 7 3.5 9.5t7.5 2.5q2 0 8.5 -2t8.5 -3q7 0 20.5 -0.5t29 -1t31 -0.5h25.5h32t41.5 0.5t41 1t29.5 1.5q2 0 10 2t10 2q9 0 9 -6q0 -2 -1.5 -9
t-3.5 -16t-4.5 -18.5t-4.5 -16.5q-4 -14 -5.5 -17t-9.5 -3t-10.5 1t-2.5 7q0 14 -0.5 21t-5.5 12q-6 5 -22.5 6t-57.5 2q0 -9 -0.5 -45t-0.5 -77t1 -76t4 -43q4 -13 37 -14q10 0 12 -1t2 -8q0 -8 -1 -10t-6 -2t-16.5 0.5t-24 0.5t-23.5 0.5t-15 0.5q-5 0 -17 -0.5
t-25.5 -0.5t-25 -0.5t-14.5 -0.5q-6 1 -7 2.5t-1 7.5q0 8 2.5 9t14.5 3q14 2 21 4.5t10.5 9.5t4.5 19t1 33q0 27 0.5 46.5t0.5 39v43t-1 58.5zM435 431q0 -44 3 -58t9 -19q7 -4 17.5 -4t18.5 -2q6 -1 6 -8q0 -8 -2.5 -10t-7.5 -2h-20h-30h-30h-19q-8 0 -19 -0.5t-14 0.5
q-5 1 -5 10q0 7 3.5 8t12.5 3q18 2 25 9.5t11 40.5q1 12 3 38.5t3.5 54.5t2.5 50.5t1 28.5q0 5 -0.5 11.5t-4 13t-11 12t-20.5 6.5q-10 2 -12 3.5t-2 7.5q0 8 3 9t7 1h91q9 0 11.5 -3t7.5 -14q6 -13 19.5 -43t29 -63t29 -62t18.5 -39q12 26 30.5 60t30.5 60q7 14 20 42.5
t21 54.5q2 5 4 6t7 1h88q7 1 9 -0.5t2 -9.5t-2.5 -9t-12.5 -2q-20 -2 -25 -10.5t-5 -37.5q0 -9 0.5 -40t1 -66t2 -64.5t3.5 -34.5q4 -8 10.5 -10t23.5 -3q5 -1 6 -2.5t1 -7.5q0 -8 -2 -9t-5 -1h-139q-11 -1 -13 0t-2 9t3 9t14 2q12 1 19 3t10 9.5t4 22t1 40.5l-1 135
q-6 -13 -20.5 -44t-31 -65t-30.5 -64t-19 -42q-3 -7 -14.5 -10t-15.5 -3q-5 0 -6.5 3t-6.5 16t-19.5 45t-30 66.5t-29 63t-15.5 34.5z" />
    <glyph glyph-name="minus" unicode="&#x2212;" 
d="M68 288q-14 0 -17.5 1t-3.5 7v44q0 6 3.5 7t17.5 1h382q14 0 17.5 -1t3.5 -7v-44q0 -6 -3.5 -7t-17.5 -1h-382z" />
    <glyph glyph-name="fi" unicode="&#xfb01;" horiz-adv-x="593" 
d="M356 706q63 0 97.5 -23.5t34.5 -52.5q0 -12 -6 -21.5t-15 -16.5t-19 -11t-18 -4q-14 0 -21.5 7.5t-18.5 23.5q-8 11 -26 23t-56 12q-30 0 -49.5 -8t-31.5 -21t-18 -28.5t-8 -29.5q-2 -13 -3.5 -25.5t-2 -28t-0.5 -35v-46.5q68 0 110.5 0.5t69 1.5t42 2.5t29.5 3.5
q11 2 25 6t19 4q11 0 11 -10q0 -6 -1 -16t-1.5 -20t-1.5 -18.5t-1 -12.5q-2 -38 -2.5 -75.5t-0.5 -75.5v-33t0.5 -45.5t1.5 -44t3 -28.5q5 -20 21 -23.5t42 -5.5q11 -1 13.5 -3.5t2.5 -12.5t-2.5 -13t-10.5 -3q-14 0 -46.5 1t-73.5 1q-13 0 -29.5 -0.5t-31.5 -0.5t-27 -0.5
t-18 -0.5q-8 0 -10 1.5t-2 12.5t2.5 13t13.5 5q28 5 37.5 16.5t12.5 28.5q2 9 3.5 30.5t2 45.5t0.5 46.5v33.5q0 44 -0.5 69.5t-4 39t-10.5 18t-20 7.5q-6 1 -29 1.5t-50.5 1t-52.5 0.5h-36v-21v-50v-66t0.5 -68t1.5 -57t2 -33q3 -14 7.5 -22t13 -12t22.5 -5.5t35 -3.5
q8 0 9.5 -2.5t1.5 -12.5q0 -13 -2.5 -15t-16.5 -2q-27 0 -53 1t-73 1q-16 0 -33 -0.5t-31.5 -0.5t-25 -0.5t-14.5 -0.5q-8 0 -8 13q0 8 1 12t7 5q18 3 29 6t17 11t8.5 23t3.5 40q1 23 1.5 55t0.5 67.5v71v65.5h-53q-5 0 -6 1.5t-1 8.5q0 10 1 12.5t4 4.5l56 24
q0 27 0.5 49.5t4.5 44t13 42.5t25 43q40 54 97 81t116 27z" />
    <glyph glyph-name="fl" unicode="&#xfb02;" horiz-adv-x="593" 
d="M46 368q-5 0 -6 1.5t-1 8.5q0 10 1 12.5t4 4.5l56 24q1 30 2.5 55t6.5 47t16 43t31 45q44 53 98 75.5t99 22.5q29 0 51 -6.5t36 -12.5l6.5 3.5t15 7.5t17 7t13.5 3q3 0 7 -1.5t4 -8.5q0 -11 -2.5 -28t-4.5 -40q-2 -19 -2.5 -47t-1.5 -82v-147v-59t1 -85.5t2 -83t4 -51.5
q3 -15 7 -23t12.5 -12.5t21 -6.5t31.5 -4q13 -1 13 -15q0 -11 -4 -13.5t-15 -2.5q-14 0 -47.5 1t-74.5 1q-13 0 -28.5 -0.5t-31 -0.5t-29.5 -0.5t-23 -0.5t-9 16q0 10 2 12t16 5q18 3 28.5 9.5t15.5 17.5t6 26.5t2 36.5q2 31 2.5 67.5t1 74.5t0.5 75.5v69.5v36.5t-0.5 50.5
t-1 49.5t-1.5 32.5q-3 22 -15 34.5t-27.5 19t-30 8t-21.5 1.5q-39 0 -59.5 -14.5t-30.5 -42.5t-12 -69t-2 -94q8 0 27 0.5t40 0.5h39h25q8 -1 9.5 -5t1.5 -22t-1.5 -22.5t-12.5 -4.5l-128 1v-21v-50v-66t0.5 -68t1.5 -57t2 -33q3 -14 7.5 -22t13 -12t22.5 -5.5t35 -3.5
q8 0 9.5 -4t1.5 -11q0 -11 -3 -14t-11 -3q-12 0 -42.5 1t-82.5 1q-37 0 -69.5 -1t-40.5 -1t-8 13q0 8 1 12t7 5q18 3 29 6t17 11t8.5 23t3.5 40q1 23 1.5 55t0.5 67.5v71v65.5h-53z" />
    </font>
</defs>
</svg>
