<?xml version="1.0" standalone="no"?>
<!DOCTYPE svg PUBLIC "-//W3C//DTD SVG 1.1//EN" "http://www.w3.org/Graphics/SVG/1.1/DTD/svg11.dtd" >
<svg xmlns="http://www.w3.org/2000/svg" xmlns:xlink="http://www.w3.org/1999/xlink" version="1.1">
<metadata>
Created by FontForge 20181003 at Tue Oct 16 14:00:08 2018
 By Bhavinder Singh
Copyright (c) 1993 Adobe Systems Incorporated.  All Rights Reserved.ITC Legacy Serif is a trademark of International Typeface Corporation.
</metadata>
<defs>
<font id="LegacySerif-Book" horiz-adv-x="519" >
  <font-face 
    font-family="ITC Legacy Serif Book"
    font-weight="400"
    font-stretch="normal"
    units-per-em="1000"
    panose-1="0 0 0 0 0 0 0 0 0 0"
    ascent="800"
    descent="-200"
    x-height="422"
    cap-height="635"
    bbox="-131 -270 986 880"
    underline-thickness="50"
    underline-position="-100"
    unicode-range="U+000D-FB02"
  />
<missing-glyph horiz-adv-x="225" 
 />
    <glyph glyph-name=".notdef" horiz-adv-x="225" 
 />
    <glyph glyph-name=".null" horiz-adv-x="0" 
 />
    <glyph glyph-name=".null" horiz-adv-x="0" 
 />
    <glyph glyph-name="nonmarkingreturn" unicode="&#xd;" horiz-adv-x="250" 
 />
    <glyph glyph-name="space" unicode=" " horiz-adv-x="225" 
 />
    <glyph glyph-name="exclam" unicode="!" horiz-adv-x="333" 
d="M217 597q0 -15 -1 -29.5t-3.5 -41.5t-7.5 -72.5t-14 -122.5q-5 -41 -7 -81t-3 -82q-1 -8 -8.5 -10.5t-15.5 -2.5q-5 0 -5.5 4.5t-1.5 22.5q-3 81 -7 132t-7 79q-5 51 -8 84.5t-5 55.5t-3 35.5t-1 24.5q0 27 4.5 37.5t18.5 14.5q13 4 27 5.5t18 1.5q11 0 17 -5t9 -13.5
t3.5 -18t0.5 -18.5zM112 44q0 20 18 37.5t36 17.5q20 0 37.5 -18t17.5 -36q0 -9 -4.5 -19t-12 -18t-17.5 -13.5t-20 -5.5q-9 0 -19 5t-18 13t-13 18t-5 19z" />
    <glyph glyph-name="quotedbl" unicode="&#x22;" horiz-adv-x="481" 
d="M127 469q1 9 3 31t4 46t4.5 45.5t4.5 29.5q4 13 12.5 20t39.5 7q4 0 12.5 -2.5t8.5 -16.5q0 -7 -1.5 -13t-2.5 -9q-3 -13 -6 -22t-6.5 -19t-8.5 -23.5t-14 -36.5q-8 -20 -17 -47t-20 -64q-1 -2 -2.5 -3.5t-10.5 -1.5t-9 5zM276 469q1 9 2.5 31t3.5 46t4.5 45.5t4.5 29.5
q4 13 12.5 20t39.5 7q4 0 12.5 -2.5t8.5 -16.5q0 -7 -1 -13t-2 -9q-4 -13 -6.5 -22t-6 -19t-9 -23.5t-14.5 -36.5q-8 -19 -17 -46.5t-19 -64.5q-1 -2 -3 -3.5t-11 -1.5t-9 5z" />
    <glyph glyph-name="numbersign" unicode="#" 
d="M399 447q6 0 22 0.5t34 0.5t33.5 0.5t21.5 0.5q11 0 11 -5q0 -4 -1.5 -9.5t-9.5 -25.5q-5 -12 -7 -15t-10 -3q-6 0 -22 0.5t-33 1t-32.5 1t-21.5 0.5q-9 -35 -18.5 -70.5t-19.5 -70.5q7 0 23.5 0.5t34.5 0.5t34 0.5t22 0.5q11 0 11 -5q0 -3 -3 -10t-10 -27
q-3 -10 -5.5 -12.5t-10.5 -2.5q-5 0 -20 0.5t-33 0.5t-34 0.5t-23 0.5q-6 -24 -13.5 -51t-14 -53.5t-12.5 -49.5t-9 -40q-1 -5 -6 -7.5t-32 -2.5q-5 0 -6 2t-1 4t2.5 11t6 20t7 21.5t4.5 14.5q2 8 7.5 26.5t11.5 39.5t11.5 39.5t7.5 25.5h-145q-14 -50 -27.5 -103.5
t-20.5 -90.5q-2 -5 -7 -7.5t-31 -2.5q-7 0 -7 5l2.5 8.5t5.5 19t6 20t3 11.5q11 37 21 72t19 68l-117 -1q-6 0 -6 4q0 2 1.5 8t4 13t4.5 13t3 8q5 11 13 11q3 0 18.5 -0.5t34 -1t35.5 -1t23 -0.5q3 12 8.5 32t11.5 41t11 39.5t7 28.5q-6 0 -22.5 -0.5t-34.5 -0.5t-34.5 -0.5
t-23.5 -0.5t-8.5 1.5t-1.5 3.5t2 8t4.5 13t4.5 13t3 7q3 8 5.5 9.5t7.5 1.5q6 0 22 -0.5t34 -0.5t34 -0.5t22 -0.5q12 45 24.5 95.5t20.5 86.5q2 7 9 8q5 2 12.5 2.5t15.5 0.5q7 0 7 -5q0 -1 -4.5 -17.5t-12 -43t-17 -60t-18.5 -68.5h144q6 23 12.5 48.5t12.5 50t11.5 46.5
t8.5 38q2 7 9 8q5 2 14 2.5t14 0.5q7 0 7 -5zM310 253q2 8 7.5 27.5t11.5 42t11.5 42.5t7.5 29h-144l-2 -8t-3 -10.5t-5.5 -17.5t-8.5 -30q-5 -21 -8.5 -33t-5.5 -19.5t-3 -12.5t-3 -10h145z" />
    <glyph glyph-name="dollar" unicode="$" 
d="M274 363q33 -13 53.5 -22t34 -16t23.5 -13t20 -15q27 -22 43 -51.5t16 -69.5q0 -42 -20.5 -80t-72.5 -61q-21 -10 -43.5 -15t-52.5 -7l1 -107q0 -4 -1.5 -4.5t-9.5 -0.5h-21q-2 0 -2 10v17t0.5 31t1 32t0.5 20h-29.5t-54.5 5q-13 2 -29.5 4.5t-29.5 2.5q-11 0 -13 -4
t-9 -4q-8 0 -9.5 3t-3.5 17q-6 35 -11 71t-5 67q0 7 6 10.5t13 3.5q5 0 7 -7q5 -29 21.5 -56.5t41.5 -42.5q29 -18 59.5 -23.5t45.5 -6.5l1 238q-45 19 -75.5 33.5t-45.5 26.5q-19 15 -29.5 31t-16 30.5t-7 27t-1.5 22.5q0 77 48.5 116.5t124.5 47.5q0 5 -0.5 16t-1 23.5
t-1 23t-0.5 13.5q0 7 1.5 8.5t5.5 1.5h16q5 0 9 -0.5t4 -5.5l-1 -79q34 -1 60.5 -3t34.5 -4q12 -2 19 -2t11 1t6.5 2.5t5.5 1.5q2 0 3.5 -1.5t2 -7t0.5 -17v-32.5q0 -25 4 -47.5t4 -28.5q0 -8 -7 -9t-11 -1t-12 22q-6 15 -13 30t-20.5 27.5t-34 21.5t-53.5 13zM274 52
q29 4 49.5 14.5t33.5 25.5t19 32.5t6 35.5q0 25 -8 42t-22.5 30t-34 23t-43.5 21v-224zM245 375v47.5v63.5t-0.5 62.5t-1.5 42.5q-48 -5 -72.5 -33.5t-24.5 -69.5q0 -46 27 -69.5t72 -43.5z" />
    <glyph glyph-name="percent" unicode="%" horiz-adv-x="648" 
d="M85 502q0 -41 9 -70t23 -47t30.5 -26.5t31.5 -8.5q21 0 35 11t22.5 27.5t12 37t3.5 39.5q0 29 -6.5 55.5t-18.5 47.5t-29.5 33.5t-39.5 12.5q-36 0 -54.5 -33.5t-18.5 -78.5zM29 477q0 45 13.5 76.5t35.5 52t48.5 30t51.5 9.5q33 0 57.5 -13.5t40.5 -36t24 -50.5t8 -57
q0 -37 -11.5 -68t-31.5 -53.5t-47 -35t-59 -12.5q-31 0 -55 12.5t-40.5 33.5t-25.5 50t-9 62zM125 0q8 13 35 60t63.5 111.5t78 138.5t78 140.5t63 116.5t34.5 67h46q-17 -26 -39.5 -66t-42.5 -75q-22 -39 -48.5 -87t-53.5 -96.5t-52.5 -94t-44.5 -80.5q-19 -34 -30.5 -55
t-19 -35.5t-11.5 -24t-9 -20.5h-47zM340 152q0 45 14 76.5t35.5 52t48 30t51.5 9.5q34 0 59 -14t41 -36.5t23.5 -50.5t7.5 -56q0 -36 -11.5 -67t-31.5 -53.5t-47.5 -35.5t-59.5 -13q-30 0 -54 12t-41 33t-26 50t-9 63zM397 177q0 -42 9.5 -71t23.5 -47t30.5 -26t30.5 -8
q21 0 34.5 11t22 27.5t12 37t3.5 39.5q0 29 -6.5 56t-18.5 47.5t-29.5 33t-39.5 12.5q-35 0 -53.5 -33.5t-18.5 -78.5z" />
    <glyph glyph-name="ampersand" unicode="&#x26;" horiz-adv-x="741" 
d="M408 517q0 -41 -24 -68.5t-74 -55.5q32 -13 53.5 -28t39 -35.5t33.5 -48t35 -65.5q18 26 33 48.5t29 46.5l6 12l8.5 17t7.5 17.5t3 13.5q0 11 -14 17.5t-54 8.5q-10 1 -11.5 3.5t-1.5 10.5q0 11 7 11q8 0 33 -2t67 -2q43 0 68 2t31 2q7 0 8 -2t1 -7q0 -7 -1 -9.5t-8 -3.5
q-15 -3 -25 -7t-20 -12t-21 -21t-26 -33q-9 -12 -23 -31t-29 -39t-29 -39.5t-23 -33.5q15 -27 28.5 -50t28.5 -40t33 -26.5t42 -9.5q34 0 59 20t35 53q4 11 5.5 12.5t6.5 1.5q8 0 9 -1.5t1 -6.5q0 -7 -6 -30.5t-22.5 -49.5t-45.5 -46.5t-74 -20.5q-52 0 -86 32t-66 96
q-55 -69 -106.5 -99t-109.5 -30q-38 0 -71.5 12.5t-58 36.5t-39 59t-14.5 79q0 31 8.5 60.5t33.5 58.5q28 33 55.5 49.5t47.5 26.5q-28 17 -44 41.5t-16 57.5q0 27 13.5 55t36.5 50.5t53 36.5t63 14q23 0 44.5 -7.5t38.5 -21.5t27.5 -34t10.5 -46zM346 484q0 18 -7.5 34.5
t-20.5 29t-30.5 20t-37.5 7.5q-35 0 -56 -21t-21 -55q0 -17 4.5 -29t11.5 -20.5t14 -13.5t11 -8q20 -11 37.5 -16.5t28.5 -5.5q5 0 16 4.5t22 14t19.5 24.5t8.5 35zM105 200q0 -31 11.5 -58t31.5 -46t46.5 -30t56.5 -11q32 0 58 10t46.5 24.5t36.5 31t27 29.5
q-29 60 -51 98.5t-45 58.5q-15 13 -32 21.5t-32.5 14t-27.5 7.5t-18 2q-9 0 -27 -9t-36 -27.5t-31.5 -47t-13.5 -68.5z" />
    <glyph glyph-name="quotesingle" unicode="'" horiz-adv-x="315" 
d="M118 469q1 9 3 31t4 46t4.5 45.5t4.5 29.5q3 13 12 20t39 7q5 0 13 -2.5t8 -16.5q0 -7 -1 -13t-2 -9q-3 -13 -6 -22t-6.5 -19t-8.5 -23.5t-14 -36.5q-8 -20 -17 -47t-20 -64q-1 -2 -3 -3.5t-10 -1.5q-9 0 -9 5z" />
    <glyph glyph-name="parenleft" unicode="(" horiz-adv-x="315" 
d="M135 237q0 -21 2 -59.5t12.5 -89.5t33 -113t64.5 -129q8 -13 18.5 -28t21.5 -29l1 -2q1 -1 1 -2t-8.5 -9t-10.5 -8l-9 8.5t-23.5 24t-32 38t-35.5 49.5q-54 81 -79.5 167t-25.5 184q0 24 2.5 62t14.5 87t36.5 105.5t67.5 116.5q32 43 58 70t27 27l3.5 -2.5t7 -5.5t6.5 -6
t3 -4q-2 -3 -5 -6l-4 -6t-4 -5q-45 -63 -73 -122.5t-43.5 -114t-21 -104.5t-5.5 -94z" />
    <glyph glyph-name="parenright" unicode=")" horiz-adv-x="315" 
d="M24 689q0 1 3 4t6.5 6t7 5.5l3.5 2.5q1 0 12.5 -11.5t29.5 -32t39 -48.5t41 -62q30 -51 46.5 -98t25 -88t10.5 -74t2 -55q0 -38 -4.5 -80t-16.5 -86.5t-32 -90.5t-52 -93q-18 -26 -35.5 -48t-31.5 -38t-23.5 -25t-10.5 -9q-2 0 -10.5 8t-8.5 9t1.5 3l7.5 10q9 10 23 31
t30.5 50.5t33.5 68t30 83.5q18 60 23.5 108t5.5 98q0 26 -2.5 63t-11.5 83t-27.5 99t-51.5 111q-16 29 -30.5 50t-25.5 36z" />
    <glyph glyph-name="asterisk" unicode="*" 
d="M339 496q10 2 22.5 5t24 5t20.5 3.5t12 1.5q9 0 14.5 -4t7.5 -9.5t2.5 -11t0.5 -7.5q0 -12 -4.5 -22.5t-17.5 -10.5q-3 0 -25.5 3.5t-48.5 8t-49 8t-28 4.5q20 -22 40.5 -45.5t37.5 -43.5q14 -15 19 -22t5 -15q0 -13 -14.5 -23t-27.5 -10q-14 0 -22 23q-4 11 -7.5 20
t-8 22t-12.5 33.5t-21 54.5q-6 -18 -10.5 -30.5t-8 -23l-7 -21l-8.5 -25.5q-11 -34 -16.5 -44t-17.5 -10q-14 0 -28 10t-14 21q0 7 6.5 16t20.5 25q16 18 36.5 44t35.5 44l-69 -13l-22.5 -4.5t-24 -5t-20.5 -4t-12 -1.5q-9 0 -14 4t-7.5 9.5t-3 11t-0.5 8.5q0 12 4.5 22
t18.5 10q2 0 22 -3t45.5 -7.5t49.5 -8t33 -5.5q-1 2 -16 19t-32 36.5t-31.5 36.5t-16.5 19q-12 18 3 33q5 6 15 10.5t19 4.5t13.5 -6.5t8.5 -16.5q4 -11 7 -20t8 -22t12.5 -33.5t20.5 -54.5q10 27 18 52t16 48q12 35 17.5 45t17.5 10q14 0 28 -11t14 -23q0 -3 -3.5 -8.5
t-8 -12t-9.5 -12.5t-8 -9q-4 -4 -14.5 -16.5t-22 -26.5t-21.5 -26.5t-13 -15.5z" />
    <glyph glyph-name="plus" unicode="+" 
d="M237 340v175q0 5 12 5h27q6 0 6 -5v-175h175q3 0 4 -2.5t1 -11.5v-17v-9.5t-5 -4.5h-175v-176q0 -4 -6.5 -4.5t-32.5 -0.5q-6 0 -6 11v170h-177q-4 0 -4 21q0 14 1 19t4 5h176z" />
    <glyph glyph-name="comma" unicode="," horiz-adv-x="222" 
d="M24 -165q30 6 52 20t35.5 31.5t20 35.5t6.5 31q0 30 -19 43.5t-43 24.5q-16 6 -16 28q0 20 15.5 33t32.5 13q14 0 27.5 -9t24 -24.5t17.5 -35.5t7 -43q0 -43 -19 -74t-43 -51.5t-46.5 -30t-29.5 -9.5q-4 0 -9.5 4t-12.5 9v4z" />
    <glyph glyph-name="hyphen" unicode="-" horiz-adv-x="296" 
d="M39 192v64h219v-64h-219z" />
    <glyph glyph-name="period" unicode="." horiz-adv-x="222" 
d="M57 43q0 20 18 37t35 17q21 0 38 -18t17 -35q0 -9 -4.5 -18.5t-12 -17.5t-17.5 -13.5t-20 -5.5q-9 0 -18.5 5t-17.5 12.5t-13 17t-5 19.5z" />
    <glyph glyph-name="slash" unicode="/" horiz-adv-x="389" 
d="M-14 -230q7 17 13 31.5t14.5 37t22 59t35.5 97.5q51 139 96.5 263.5t90.5 250.5q19 50 38 104.5t30 95.5h52q-9 -21 -26.5 -66t-40 -105t-48.5 -131.5t-53.5 -146.5t-54 -149.5t-50.5 -140.5q-19 -50 -30 -81.5t-18 -52.5t-11 -35.5t-8 -30.5h-52z" />
    <glyph glyph-name="zero" unicode="0" 
d="M258 645q100 0 158.5 -75t58.5 -236q0 -27 -2 -67.5t-11 -83t-28 -83t-54 -68.5q-30 -25 -62.5 -34t-60.5 -9q-47 0 -86 19.5t-67.5 59.5t-44 101.5t-15.5 145.5q0 16 1 46.5t7 67t19 75t36.5 70t60.5 51.5t90 20zM130 350q0 -25 0.5 -59t4 -70.5t11.5 -72t22 -63.5
t36 -45.5t54 -17.5q46 0 72 33t39 79.5t16 97.5t3 87q0 45 -4 96.5t-17.5 95t-39 72.5t-67.5 29q-31 0 -53 -15.5t-36.5 -39.5t-22.5 -54t-12 -59t-5 -54.5t-1 -39.5z" />
    <glyph glyph-name="one" unicode="1" 
d="M238 383v30.5t-0.5 43t-1 42.5t-1.5 27q-3 21 -26 21q-5 0 -17.5 -3.5t-25.5 -7t-23.5 -7t-12.5 -3.5q-4 0 -4 12q0 13 7 16q15 6 28.5 12t29 14t34 19t43.5 27q8 5 20 14t14 9q5 0 15 -5q3 -2 5.5 -3t2.5 -4q0 -2 -1.5 -9t-2.5 -15q-2 -20 -3.5 -61t-2 -86.5t-0.5 -87
v-62.5v-53t0.5 -68t1.5 -66t2 -47q4 -31 24 -43t74 -14q12 0 15 -2t3 -7q0 -11 -1 -14t-8 -3q-56 0 -104 0.5t-71 0.5q-51 0 -81.5 -0.5t-42.5 -0.5q-8 0 -9 2t-1 9q0 11 3 12.5t17 2.5q32 2 50.5 7.5t28.5 16t13 25.5t5 37q2 19 2.5 48t1 65t0.5 76.5v82.5z" />
    <glyph glyph-name="two" unicode="2" 
d="M123 75q23 0 54 -0.5t69 -0.5q14 0 38.5 0.5t50 2t47.5 5t31 10.5q5 4 9.5 12t8.5 16t6.5 16t3.5 12q5 20 12 20q5 0 10.5 -2t5.5 -8q0 -3 -4.5 -22.5t-10 -42.5t-10.5 -44t-7 -28q-4 -15 -9 -18.5t-16 -3.5q-20 0 -44.5 0.5t-50 0.5t-49 0.5t-42.5 0.5q-10 0 -36 -0.5
t-54.5 -0.5t-53 -0.5t-32.5 -0.5q-13 0 -17.5 1t-4.5 6q0 7 0.5 10.5t4.5 7.5q21 21 46 47.5t51 56.5t52.5 61.5t50.5 62.5q39 50 60.5 86t31 61t11.5 41.5t2 26.5q0 34 -11 56.5t-28 35.5t-37 18.5t-38 5.5q-40 0 -76 -18.5t-50 -58.5q-4 -11 -5.5 -14.5t-6.5 -3.5
q-4 0 -13 5t-9 11t12.5 29t38 47.5t63.5 44.5t90 20q34 0 63 -12t50.5 -33.5t33.5 -51.5t12 -65q0 -43 -15.5 -81.5t-51 -83.5t-93.5 -103t-144 -140z" />
    <glyph glyph-name="three" unicode="3" 
d="M284 381q23 0 50.5 -3.5t56.5 -21.5q35 -23 51.5 -60t16.5 -78q0 -52 -23.5 -94.5t-62 -72.5t-87 -46t-98.5 -16q-44 0 -72 11t-44 25.5t-22 30t-6 24.5q0 10 5 17t12 12t14.5 7.5t12.5 2.5q12 0 17 -6.5t11 -19.5q9 -19 22.5 -31.5t29.5 -20t32 -10.5t30 -3
q40 0 67 16.5t43 41.5t22.5 53t6.5 50q0 29 -8.5 54.5t-25 44.5t-40.5 30.5t-56 11.5q-19 0 -33 -4t-24.5 -8.5t-17.5 -8.5t-10 -4q-5 0 -8.5 8t-3.5 11q0 4 3 6t15 7q56 25 87.5 46.5t48 40t20.5 35t4 32.5q0 29 -10.5 47.5t-25 29t-30.5 14t-27 3.5q-19 0 -38 -5.5
t-35 -13.5t-28 -18t-16 -19q-4 -10 -6 -12.5t-7 -2.5q-4 0 -12 5t-8 10q0 2 13.5 20t39 39.5t62 39t83.5 17.5q33 0 57.5 -10t41 -26t25 -37t8.5 -42q0 -29 -12 -51.5t-30.5 -40.5t-40 -32t-40.5 -25z" />
    <glyph glyph-name="four" unicode="4" 
d="M402 183q0 -10 0.5 -35.5t1 -53.5t1 -53t0.5 -34q0 -5 -1 -7t-7 -2q-4 0 -13.5 0.5t-17.5 0.5q-15 0 -24.5 -0.5t-12.5 -0.5t-4.5 1.5t-1.5 9.5q0 12 0.5 38t1 53.5t1.5 51.5t1 31q-17 0 -57.5 -0.5t-86 -0.5t-85.5 -0.5t-56 -0.5q-8 0 -8 9q0 20 0.5 28t4.5 13
q14 18 35 43t36 43q37 45 81 99.5t83 103t67 83.5t33 42l9 -2q13 -3 17 -4.5t4 -4.5l-1 -100q0 -35 -0.5 -63.5t-0.5 -60.5v-73v-101h24q34 0 51 0.5t21 0.5q3 0 3.5 -3t0.5 -6q0 -8 -1.5 -17.5t-3.5 -24.5q0 -2 -3.5 -2.5t-8.5 -0.5h-83zM327 537q-27 -36 -65.5 -84.5
t-75 -94.5t-65 -80.5t-35.5 -42.5h46h61h68h66v302z" />
    <glyph glyph-name="five" unicode="5" 
d="M192 549q-3 -6 -8.5 -21t-11.5 -30.5t-10.5 -28t-4.5 -15.5q0 -7 8 -12t29 -13q42 -17 86.5 -36t74.5 -40q32 -23 56 -63t24 -89q0 -45 -20 -83.5t-54 -67t-78.5 -45t-93.5 -16.5q-38 0 -67 10.5t-48 26.5t-28.5 33.5t-9.5 31.5q0 10 5.5 18t13 13t15.5 8t12 3
q13 0 17.5 -7.5t7.5 -16.5q9 -26 26 -41.5t35.5 -23.5t35.5 -10t26 -2q59 0 93.5 38t34.5 100q0 41 -15 69t-44.5 49.5t-72 40t-97.5 40.5q-13 5 -17.5 7.5t-4.5 10.5q0 3 9.5 34.5t21.5 71t23.5 76t15.5 50.5q3 10 6 12t11 2h36.5h54h53.5h35q27 0 40.5 1.5t19.5 9.5
q2 3 5.5 6t5.5 3q8 0 10 -1.5t2 -3.5q0 -1 -3.5 -13.5t-8.5 -28.5t-11 -30t-11 -18q-5 -5 -15 -6t-22 -1q-20 0 -45.5 -0.5t-51.5 -0.5t-51 -0.5t-45 -0.5z" />
    <glyph glyph-name="six" unicode="6" 
d="M58 239q0 86 22 150t56.5 110t77.5 76t85.5 48t80 25t61.5 7q15 0 19.5 -3t6.5 -8q7 -16 7 -26q0 -5 -3.5 -10.5t-14.5 -5.5q-12 0 -27.5 6t-33.5 6q-10 0 -33 -6.5t-50.5 -22.5t-57 -42.5t-53.5 -67t-39.5 -96.5t-15.5 -130q0 -63 11.5 -106t30 -69t41.5 -37.5t46 -11.5
q21 0 40.5 8.5t35 26t24.5 45t9 64.5t-8.5 67.5t-24.5 53t-37.5 35t-48.5 12.5q-12 0 -33.5 -5.5t-38.5 -24.5q-7 -9 -11 -9t-4 10q0 15 7 23q5 8 17 17.5t29 18t38 14.5t45 6q37 0 65.5 -16t48.5 -42t30.5 -60.5t10.5 -72.5q0 -55 -19.5 -94.5t-49.5 -64.5t-66.5 -36.5
t-70.5 -11.5q-35 0 -71.5 12t-66 41t-48.5 77t-19 120z" />
    <glyph glyph-name="seven" unicode="7" 
d="M421 556q-66 1 -109 1h-54q-55 0 -86.5 -1t-48 -7.5t-23 -20t-12.5 -39.5q-4 -17 -6 -21t-8 -4q-15 0 -15 11q2 17 3.5 34t3.5 34q0 4 1 13t1.5 19.5t1 21.5t0.5 19q0 14 1.5 16.5t11.5 2.5q15 0 43.5 -0.5t61.5 -0.5t65.5 -0.5t55.5 -0.5q25 0 53.5 0.5t54.5 0.5t46 0.5
t27 0.5t10.5 -5.5t0.5 -11.5q-1 -3 -15.5 -28.5t-37 -67t-52.5 -96t-63.5 -115t-68 -124t-67.5 -122.5q-14 -25 -19.5 -38t-13.5 -30q-2 -5 -6 -11t-15 -6q-4 0 -10.5 2t-12.5 5t-10.5 7.5t-4.5 10.5q0 5 3 9.5t12 17.5q5 7 14 21.5t27 46t47.5 84t76.5 135.5
q36 63 58 100.5t35.5 61.5l22.5 40t20 35z" />
    <glyph glyph-name="eight" unicode="8" 
d="M310 347q37 -18 67 -34t51.5 -35t33 -44t11.5 -61q0 -37 -15 -70t-44 -58.5t-72.5 -40.5t-100.5 -15q-40 0 -76 10t-62.5 29.5t-42 49t-15.5 67.5q0 37 13 64t35 47.5t49.5 36t55.5 28.5q-27 14 -50.5 28t-41 32t-27.5 41.5t-10 56.5q0 42 17 73t44.5 51.5t63.5 31
t74 10.5q11 0 40.5 -3t60.5 -16.5t55 -41.5t24 -78q0 -35 -12.5 -60t-32 -43t-44.5 -31t-49 -25zM284 360q14 8 29 18t28 25t21.5 37t8.5 53q0 51 -30.5 84.5t-83.5 33.5q-48 0 -79.5 -28.5t-31.5 -80.5q0 -30 11.5 -51.5t30.5 -37.5t44 -28.5t52 -24.5zM225 307
q-14 -7 -31 -18t-32 -27t-25 -38.5t-10 -54.5q0 -27 8 -53t25.5 -47t43.5 -33.5t62 -12.5q28 0 51.5 9.5t40 26.5t25.5 40t9 50q0 28 -9.5 49t-30 39t-52 34.5t-75.5 35.5z" />
    <glyph glyph-name="nine" unicode="9" 
d="M54 438q0 30 9.5 66t33.5 67.5t64 52.5t101 21q92 0 146.5 -62.5t54.5 -187.5q0 -85 -22 -149t-57 -110.5t-78.5 -76.5t-86 -47.5t-79.5 -24.5t-59 -7q-13 0 -21.5 12t-8.5 25q0 9 6.5 12t12.5 3q9 0 26 -3.5t31 -3.5q17 0 35 6t46 23t58 43.5t54.5 66.5t40.5 96t16 134
q0 71 -12.5 108.5t-26.5 58.5q-15 22 -39.5 35.5t-51.5 13.5q-46 0 -77.5 -37.5t-31.5 -110.5q0 -26 6.5 -53t20.5 -49.5t37 -37t57 -14.5q23 0 42.5 7.5t25.5 15.5q4 5 5.5 6.5t5.5 1.5q5 0 5 -5q0 -4 -1.5 -14t-4.5 -14q-7 -8 -20.5 -16.5t-30.5 -15.5t-36.5 -11.5
t-39.5 -4.5q-37 0 -66.5 15t-49 40t-30 57.5t-10.5 67.5z" />
    <glyph glyph-name="colon" unicode=":" horiz-adv-x="222" 
d="M57 377q0 20 17.5 37.5t36.5 17.5q10 0 19.5 -5t17 -13t12.5 -17t5 -18t-4.5 -18.5t-12 -17.5t-17 -13.5t-20.5 -5.5q-9 0 -19 5t-17.5 12.5t-12.5 17t-5 18.5zM57 43q0 20 17.5 37t36.5 17q20 0 37.5 -17.5t17.5 -35.5q0 -9 -5 -18.5t-12.5 -18t-17 -13.5t-19.5 -5
q-19 0 -37 17t-18 37z" />
    <glyph glyph-name="semicolon" unicode=";" horiz-adv-x="222" 
d="M64 377q0 20 17.5 37.5t36.5 17.5q10 0 19.5 -5t17.5 -13t13 -17t5 -18t-4.5 -18.5t-12.5 -17.5t-17.5 -13.5t-20.5 -5.5q-9 0 -19 5t-17.5 12.5t-12.5 17t-5 18.5zM24 -165q30 6 52 20t35.5 31.5t20 35.5t6.5 31q0 30 -19 43.5t-43 24.5q-16 6 -16 28q0 20 15.5 33
t32.5 13q14 0 27.5 -9t24 -24.5t17.5 -35.5t7 -43q0 -43 -19 -74t-43 -51.5t-46.5 -30t-29.5 -9.5q-4 0 -9.5 4t-12.5 9v4z" />
    <glyph glyph-name="less" unicode="&#x3c;" 
d="M427 507l-249 -162l249 -166v-84l-335 224v5l335 215v-32z" />
    <glyph glyph-name="equal" unicode="=" 
d="M451 399q3 0 7 -0.5t4 -5.5q0 -28 -0.5 -34t-4.5 -6h-398q-3 1 -3 32q0 10 2 12t5 2h388zM449 281q3 0 7 -0.5t6 -5.5q0 -28 -1 -34t-6 -6h-396q-3 1 -3 32q0 10 1.5 12t3.5 2h388z" />
    <glyph glyph-name="greater" unicode="&#x3e;" 
d="M92 126l249 162l-249 167v84l335 -224v-5l-335 -215v31z" />
    <glyph glyph-name="question" unicode="?" horiz-adv-x="389" 
d="M361 419q0 -30 -12 -51t-32.5 -37t-46.5 -28.5t-53 -24.5q-32 -14 -44 -21t-19 -12q-9 -7 -12 -13t-3 -16q0 -4 0.5 -14t1 -21t1 -20.5t0.5 -13.5q0 -3 -2 -4.5t-15 -1.5q-3 0 -4 2t-3 10q-8 36 -14 69.5t-6 47.5t5 23.5t17 18.5t31.5 18.5t47.5 22.5q18 9 36 18.5
t32.5 22.5t23.5 30.5t9 41.5q0 5 -3 22.5t-16.5 36.5t-41 34t-76.5 15q-32 0 -50 -7.5t-30 -7.5q-17 0 -22.5 14.5t-5.5 28.5q0 7 2 14.5t9.5 13.5t23 9.5t42.5 3.5q44 0 85 -17t83 -69q11 -13 21.5 -30.5t19.5 -35.5t14.5 -36.5t5.5 -35.5zM86 43q0 20 18 37t36 17
q10 0 20 -5t17.5 -13t12.5 -17t5 -18t-4.5 -18.5t-12 -17.5t-17.5 -13.5t-20 -5.5q-19 0 -37 17t-18 37z" />
    <glyph glyph-name="at" unicode="@" horiz-adv-x="759" 
d="M445 289q-12 -28 -27 -54.5t-32 -46.5t-36 -32.5t-41 -12.5q-26 0 -46 19.5t-20 56.5q0 41 20 83.5t52 79.5t73.5 65.5t83.5 40.5q2 8 7 16t22 8q4 0 15 -2t11 -16q0 -1 -3.5 -19.5t-8.5 -46.5t-10.5 -61t-10.5 -63.5t-8.5 -55.5t-3.5 -36q0 -15 5 -22.5t20 -7.5
q28 0 52.5 16t42.5 43.5t28.5 64.5t10.5 79q0 47 -14.5 88t-42 71t-68.5 47t-94 17q-62 0 -114.5 -24.5t-91 -68t-60 -104t-21.5 -131.5q0 -78 25 -128t63 -79.5t83 -41t85 -11.5q35 0 68.5 6t62.5 17q3 1 13 5.5t12 4.5q4 0 6.5 -9.5t2.5 -10.5q0 -2 -13 -9t-36 -14.5
t-56 -13.5t-74 -6q-64 0 -122 17.5t-102 53.5t-69.5 90.5t-25.5 128.5q0 86 31 153.5t83 114.5t118.5 71.5t136.5 24.5q56 0 106.5 -16.5t89 -49t61.5 -79.5t23 -108q0 -63 -22.5 -110t-55.5 -77.5t-71 -45.5t-68 -15q-4 0 -14.5 1t-21 5.5t-18.5 14.5t-8 28q0 14 4.5 36
t12.5 61zM434 425q-21 0 -44 -15.5t-42.5 -40t-32 -55.5t-12.5 -61q0 -23 9 -35t22 -12q15 0 35.5 19t39 48t32 62.5t13.5 61.5t-20 28z" />
    <glyph glyph-name="A" unicode="A" horiz-adv-x="630" 
d="M176 230q-24 -60 -39 -102.5t-15 -64.5t18.5 -30t38.5 -9q14 -1 17.5 -2.5t3.5 -12.5q0 -5 -1 -8t-8 -3q-17 0 -38.5 1.5t-50.5 1.5q-6 0 -19.5 -0.5t-29 -1t-29.5 -1t-19 -0.5q-6 0 -7.5 2.5t-1.5 6.5q0 10 1.5 11.5t8.5 3.5q12 2 22.5 11.5t19.5 23t17 30t15 32.5
q3 7 17.5 38.5t34.5 76t43.5 96.5t44.5 100t37.5 87t23.5 57q5 12 8.5 24t7.5 25q4 11 22 11q12 0 20.5 2t14.5 2q5 0 7 -4.5t6 -22.5q2 -10 16 -50.5t34 -96.5t44.5 -120.5t47 -123t41.5 -103.5t28 -62q12 -23 22 -28t26 -7q5 -1 5 -9q0 -10 -1.5 -12t-6.5 -2
q-24 0 -48.5 1t-48.5 1q-29 0 -56.5 -0.5t-56.5 -1.5q-6 1 -7.5 4t-1.5 8q0 9 3 10.5t15 2.5q8 1 17.5 2t17.5 4.5t13.5 10t5.5 16.5q0 8 -7 32t-16.5 51.5t-18.5 53.5t-14 38h-244zM410 263q-6 15 -20.5 54.5t-31 83.5t-32 84.5t-21.5 56.5q-20 -47 -33 -77t-24.5 -57.5
t-24.5 -60t-34 -84.5h221z" />
    <glyph glyph-name="B" unicode="B" horiz-adv-x="611" 
d="M512 496q0 -39 -16.5 -64.5t-40 -42t-49.5 -25.5t-45 -15q23 -2 57.5 -7t71.5 -26q25 -15 39.5 -33t22.5 -36t10.5 -34t2.5 -26q0 -43 -23 -82.5t-59 -62.5q-38 -25 -79.5 -34t-107.5 -9q-7 0 -22 0.5t-33 0.5t-38.5 0.5t-38.5 0.5q-49 0 -73 -1t-33 -1q-12 0 -16 1.5
t-4 11.5q0 8 3.5 9t18.5 3q29 2 43 13t18 47q2 23 3.5 55.5t2 68t0.5 69v58.5v46v20.5t-0.5 24.5t-1 34t-0.5 48q0 34 -3 54t-10.5 31t-20 14.5t-33.5 3.5q-10 0 -13 1.5t-3 9.5q0 10 2 12t7 2q7 0 19.5 -0.5t27.5 -0.5t31 -0.5t29 -0.5q12 0 31 0.5t39.5 0.5t39 0.5
t29.5 0.5q51 0 81 -4t52 -14q11 -4 25 -13.5t26.5 -24t21.5 -35.5t9 -49zM289 354q21 0 44 5.5t41.5 19.5t30.5 39.5t12 64.5q0 47 -18 72.5t-43 37.5t-52 14t-46 2q-13 0 -28.5 -1t-19.5 -9q-3 -7 -3.5 -68.5t-0.5 -176.5h83zM472 180q0 55 -24 85t-62.5 43.5t-85.5 15
t-94 1.5q0 -18 -0.5 -54.5t-0.5 -75.5t1 -72.5t3 -45.5q4 -28 20 -38t58 -10q18 0 49 3t61 17.5t52.5 45t22.5 85.5z" />
    <glyph glyph-name="C" unicode="C" horiz-adv-x="667" 
d="M51 314q0 48 15 105.5t55 107.5t110 84t180 34q17 0 30.5 -0.5t28 -1.5t32 -3.5t43.5 -5.5q4 -1 12 -2l16 -2t14.5 -1.5t7.5 -0.5q3 0 9.5 2.5t13.5 2.5q2 0 5.5 -1.5t3.5 -3.5q0 -5 -5 -27t-8 -45t-5 -47.5t-2 -30.5q0 -8 -1 -11t-9 -3q-13 0 -15.5 4.5t-4.5 23.5
q-1 5 -2.5 16t-5 24.5t-10 26t-17.5 20.5q-14 11 -34.5 17.5t-41.5 10t-39 5t-27 1.5q-47 0 -92.5 -16.5t-81 -51.5t-57.5 -90t-22 -132q0 -69 19 -125t53 -95.5t81.5 -60.5t104.5 -21q23 0 48 4t48.5 12t44.5 21.5t37 32.5q8 10 14.5 20t11.5 10q4 0 10 -1.5t6 -6.5
q0 -2 -3.5 -12t-8.5 -23t-9.5 -26.5l-7.5 -22.5q-4 -13 -9.5 -18t-33.5 -11q-19 -4 -42.5 -6t-45 -3t-38.5 -1.5t-23 -0.5q-89 0 -143.5 18.5t-87.5 41.5q-40 29 -64.5 65.5t-37 73.5t-16.5 70.5t-4 55.5z" />
    <glyph glyph-name="D" unicode="D" horiz-adv-x="778" 
d="M727 330q0 -21 -6 -61t-27.5 -85t-64 -88.5t-115.5 -70.5q-35 -13 -78 -20.5t-105 -7.5q-21 0 -42 0.5t-42 1.5q-22 1 -43 1.5t-42 0.5q-6 0 -21.5 -0.5t-32.5 -0.5t-31.5 -0.5t-20.5 -0.5q-11 0 -13 1.5t-2 12.5q0 7 3 8.5t17 3.5q19 3 30.5 9t17.5 14t9 17.5t4 19.5
q2 14 3 45t1.5 71t0.5 84.5v84.5v95.5t-1 59t-3 35t-5 22.5q-5 14 -17 19.5t-40 7.5q-12 1 -14 4t-2 11q0 5 1.5 7.5t9.5 2.5q140 0 213.5 3.5t93.5 3.5q46 0 98.5 -8.5t104.5 -32.5q45 -20 75.5 -53t49.5 -70.5t27.5 -76t8.5 -70.5zM634 321q0 14 -2.5 41.5t-12.5 60.5
t-30 67.5t-54 61.5q-36 29 -81.5 43t-115.5 14q-7 0 -21 -0.5t-30 -2t-31 -4.5t-25 -9q-7 -4 -13.5 -15.5t-7.5 -52.5q-2 -45 -2 -111v-138v-89.5t0.5 -50.5t1 -26.5t1.5 -16.5q2 -16 7.5 -28.5t18 -20t35.5 -11.5t59 -4q63 0 118 19t96.5 56.5t65 92t23.5 124.5z" />
    <glyph glyph-name="E" unicode="E" horiz-adv-x="593" 
d="M208 350h97.5t54.5 0.5t26.5 1t14.5 1.5q33 5 42.5 21.5t11.5 43.5q2 9 3.5 12t9.5 3t9.5 -4t1.5 -12q0 -16 -1.5 -44.5t-1.5 -48.5q0 -16 0.5 -39t2.5 -40v-9q0 -6 -3 -7.5t-9 -1.5q-8 0 -10.5 2.5t-3.5 13.5q-2 42 -26.5 55t-62.5 15q-11 1 -23 1.5t-29.5 0.5t-42 0.5
t-61.5 0.5q0 -98 0.5 -151t2 -78.5t5 -31.5t9.5 -9q10 -5 28 -6.5t63 -1.5q51 0 85 4.5t56.5 14t36.5 25.5t26 40q2 5 5 12t5.5 14.5t5 12.5t4.5 5q13 0 16.5 -2.5t3.5 -7.5q0 -6 -3.5 -25.5t-8.5 -42t-10 -42.5t-8 -29q-3 -10 -5 -15t-9 -5q-10 0 -45 1t-80 2t-93.5 2
t-84.5 1q-16 0 -40 -1t-47.5 -2t-43 -2t-27.5 -1q-10 0 -12.5 2t-2.5 10q0 9 2.5 10.5t11.5 2.5q18 2 30 4t20 8t12.5 17t6.5 31q2 16 2.5 49t1 70t0.5 72v56v55.5t-0.5 79.5t-2 75t-3.5 43q-4 18 -17.5 22.5t-41.5 6.5q-6 0 -9 1.5t-3 10.5q0 8 3 10t7 2q8 0 28 -0.5
t42.5 -1t42 -1t26.5 -0.5h24t48 0.5t60.5 0.5t61.5 0.5t50.5 1t28.5 0.5l38 1q15 0 21 -0.5t6 -8.5q0 -3 -1 -10t-2 -14.5t-2.5 -14t-1.5 -9.5q-2 -26 -3 -46t-1 -43q0 -9 -13 -9q-11 0 -12.5 3.5t-3.5 17.5q-2 28 -6 46.5t-20.5 30t-50 16t-94.5 4.5h-23.5t-36.5 -1t-35 -3
t-19 -6q-3 -3 -3.5 -11.5t-0.5 -13.5v-214z" />
    <glyph glyph-name="F" unicode="F" horiz-adv-x="556" 
d="M205 342q90 -1 139 0t72 7.5t28.5 21t8.5 41.5q1 8 2 10.5t9 2.5q14 0 14 -11q0 -19 -1 -40t-1 -49q0 -23 1 -47t1 -46q0 -6 -3.5 -7.5t-8.5 -1.5q-9 0 -11 4.5t-4 23.5q-3 24 -12.5 37t-34.5 16q-13 2 -39 3t-56 1.5t-58 0.5h-45v-109.5t1 -64.5t2 -36t4 -24
q7 -31 26 -40.5t61 -10.5q9 0 11.5 -2.5t2.5 -11.5q0 -6 -2.5 -9t-10.5 -3q-22 0 -49 1.5t-82 1.5q-37 0 -63.5 -1.5t-56.5 -1.5q-10 0 -11.5 3t-1.5 8q0 9 2 11t10 3q29 3 45.5 12.5t22.5 35.5q3 17 5 51t3 78t1.5 96t0.5 104q0 75 -1.5 116t-7 61.5t-15.5 26t-27 8.5
q-5 1 -11.5 2t-12.5 1q-3 0 -5.5 3.5t-2.5 8.5q0 9 8 9q5 0 12.5 -0.5t30.5 -0.5q23 -1 67 -1.5t120 -0.5q69 0 111.5 0.5t68.5 1.5l39 1.5t21 0.5q7 0 8.5 -2.5t1.5 -6.5q0 -5 -1.5 -20t-3 -33.5l-3 -37t-1.5 -30.5q0 -18 -2 -22t-13 -4q-6 0 -9.5 1.5t-4.5 9.5
q-2 23 -4 38.5t-5 26t-8 17t-14 10.5q-13 6 -33 10t-42.5 6t-44 2.5t-36.5 0.5h-21.5t-29.5 -1t-28 -3.5t-16 -6.5q-4 -4 -4.5 -15t-0.5 -43z" />
    <glyph glyph-name="G" unicode="G" horiz-adv-x="741" 
d="M51 301q0 75 21 129.5t55 93t77.5 62t88.5 37t87.5 18t74.5 4.5q24 0 48.5 -2t45 -4.5t34.5 -4.5t18 -2q5 0 9 3.5t10 3.5q7 0 8 -5t1 -19q0 -36 1 -58t1.5 -35.5t1.5 -21t1 -13.5q0 -10 -17 -10q-5 0 -7 3.5t-6 20.5q-8 38 -16 50.5t-14 17.5q-4 3 -15 9t-30 12.5
t-46 11t-63 4.5q-67 0 -118.5 -20t-86.5 -57.5t-53 -90.5t-18 -119q0 -93 30.5 -150.5t75 -89.5t93 -43.5t84.5 -11.5q14 0 32.5 1.5t36 5t32 8.5t21.5 11q4 4 7.5 8.5t6.5 17t4.5 35t1.5 62.5q0 36 -1.5 58t-10 35t-27.5 18.5t-54 7.5q-19 1 -23.5 2.5t-4.5 9.5q0 9 1.5 12
t9.5 3h82t58 1q31 1 57 2.5t37 1.5q5 0 6 -3.5t1 -7.5q0 -7 -1 -9t-8 -4q-9 -2 -21.5 -8.5t-15.5 -24.5q-2 -9 -3 -26.5t-2 -37.5t-1 -38.5v-27.5q0 -25 0.5 -40t0.5 -26q0 -19 3 -28t3 -14t-4.5 -7t-18.5 -5q-55 -13 -108.5 -20.5t-112.5 -7.5q-101 0 -170 27.5t-111 72
t-60.5 100t-18.5 112.5z" />
    <glyph glyph-name="H" unicode="H" horiz-adv-x="778" 
d="M570 350v90.5v56.5t-0.5 34.5t-1.5 25.5q-2 28 -15.5 40.5t-55.5 14.5q-8 1 -11.5 3t-3.5 9q0 5 1 8t9 3t26.5 -0.5t39 -0.5t38.5 -0.5t25 -0.5t24.5 0.5t36.5 0.5t36 0.5t23 0.5q8 0 8 -10t-3 -11.5t-16 -2.5q-39 -3 -53.5 -15t-18.5 -41q-5 -41 -6 -99.5t-1 -149.5v-61
t0.5 -69t1.5 -62t3 -40q3 -18 8.5 -27.5t14.5 -15t22 -7t30 -2.5q14 -2 17 -3.5t3 -9.5t-2.5 -9t-10.5 -1q-4 0 -11 0.5t-20 0.5t-34.5 0.5t-55.5 0.5q-66 0 -93.5 -1t-35.5 -1q-5 -1 -6.5 0.5t-1.5 9.5t3 9.5t17 3.5q29 4 42.5 12.5t19.5 31.5q6 24 7 81.5t1 162.5
q-65 0 -105.5 0.5t-75.5 0.5t-75.5 -0.5t-105.5 -0.5v-103t0.5 -65t1.5 -40t2 -28q2 -18 8 -27.5t16 -15t24.5 -7t33.5 -3.5q6 -1 8 -2.5t2 -9.5t-3 -9t-11 -1q-7 0 -23.5 0.5t-34.5 0.5t-34 0.5t-22 0.5q-7 0 -25.5 -0.5t-39 -0.5t-38.5 -0.5t-25 -0.5q-8 0 -9 2t-1 13
q0 5 3 5.5t16 2.5q38 5 48.5 20.5t14.5 34.5q3 16 4 42t2 58t1 67v68v137t-1 74q-1 29 -4 45.5t-10.5 25t-20 12t-32.5 6.5q-13 2 -16 3.5t-3 7.5q0 9 2.5 10.5t7.5 1.5q26 0 52.5 -1t52.5 -1q35 0 70.5 1t70.5 1q5 0 6 -2t1 -7q0 -8 -2.5 -10.5t-16.5 -3.5
q-38 -3 -53 -15.5t-18 -39.5q-2 -19 -3 -44.5t-1.5 -53.5t-0.5 -56v-53h362z" />
    <glyph glyph-name="I" unicode="I" horiz-adv-x="333" 
d="M206 378v-61v-78.5t1 -77.5t3 -58q2 -24 4.5 -39.5t11 -24.5t25.5 -13t46 -4q10 -1 11.5 -3.5t1.5 -10.5q0 -5 -2 -7t-10 -2q-33 0 -66.5 1t-66.5 1q-8 0 -26.5 -0.5t-39.5 -0.5t-39.5 -0.5t-25.5 -0.5q-6 0 -8.5 1.5t-2.5 9.5q0 10 3.5 11.5t17.5 2.5q26 2 41 9
t22.5 19.5t10.5 29.5t4 38q2 24 3 65t1.5 89t0.5 98v92q0 46 -1.5 75t-8.5 45t-21 21.5t-38 5.5q-20 0 -25 2.5t-5 10.5q0 11 9 11q8 0 27 -0.5t40 -0.5t39.5 -0.5t25.5 -0.5q8 0 27 0.5t40 1t39.5 0.5h25.5q9 0 9 -11q0 -10 -3 -12t-17 -2q-29 0 -46 -6.5t-25 -29.5
t-10.5 -69.5t-2.5 -126.5z" />
    <glyph glyph-name="J" unicode="J" horiz-adv-x="315" 
d="M-86 -156q0 11 14 24.5t28 13.5q11 0 30 -9.5t47 -9.5q29 0 46 11t25.5 27t11.5 34t4 32q2 26 3.5 71t2.5 95t1 97.5v77.5q0 63 -0.5 101t-1 62t-1.5 39.5t-2 33.5q-2 40 -22.5 54.5t-62.5 14.5q-3 0 -6 1.5t-3 9.5q0 7 1 10t9 3q18 0 46 -2t85 -2q30 0 50.5 0.5t34 1.5
t21.5 1.5t14 0.5q9 0 11 -2.5t2 -9.5q0 -8 -3.5 -9.5t-17.5 -3.5q-35 -3 -49.5 -16t-18.5 -46q-2 -20 -3.5 -50.5t-2 -64t-1 -65.5t-0.5 -54q0 -118 -1 -187.5t-5.5 -110.5t-14.5 -64t-29 -48q-13 -18 -31 -37t-39.5 -34.5t-46 -25.5t-52.5 -10q-32 0 -52.5 11t-20.5 34z
" />
    <glyph glyph-name="K" unicode="K" horiz-adv-x="667" 
d="M206 283v-69t1 -72.5t4.5 -61.5t10.5 -37q6 -8 18.5 -12.5t38.5 -6.5q11 -1 14 -2.5t3 -9.5t-3.5 -11t-22.5 -3q-16 0 -47 1t-54 1q-16 0 -44.5 -1t-68.5 -1q-8 0 -10 1.5t-2 8.5q0 9 3 11.5t15 4.5q18 4 29 8.5t17 13t8.5 22t4.5 34.5q2 23 3.5 63.5t2 87.5t0.5 96v90
q0 56 -2 89t-6.5 50t-11.5 23t-17 8l-21 3t-13 3q-6 1 -7.5 4t-1.5 9q0 5 2 6t6 1q6 0 22.5 -0.5t35 -1t35 -1t22.5 -0.5q7 0 23 0.5t34 1t34 1t22 0.5t7 -2t1 -7q0 -8 -2 -10t-15 -4q-20 -3 -32 -7.5t-18.5 -12.5t-8.5 -21.5t-4 -34.5q-1 -24 -2 -54l-2 -60t-1 -56.5v-43.5
q19 16 47.5 41.5t58.5 52t56.5 51t40.5 38.5q9 9 19 19.5t19 21t14.5 19.5t5.5 16q0 18 -15 22.5t-42 6.5q-10 2 -12.5 3t-2.5 7q0 15 10 15q14 0 41.5 -1.5t87.5 -1.5q26 0 42.5 1.5t33.5 1.5h20q10 0 10 -9q0 -8 -2.5 -10t-13.5 -6q-6 -2 -13 -4.5t-17 -7.5t-24 -14.5
t-35 -24.5q-12 -9 -41 -33.5t-63.5 -54t-67.5 -58t-54 -46.5q6 -6 30 -32.5t58 -62.5t73.5 -77t75 -76.5t63.5 -61t39 -30.5t19 -6t8 -9q0 -10 -3.5 -12t-11.5 -2q-7 0 -25 0.5t-37.5 0.5t-36.5 0.5t-23 0.5t-19.5 -0.5t-28.5 -0.5t-28.5 -0.5t-18.5 -0.5q-6 0 -7 4t-1 9
q0 7 3.5 8.5t12.5 2.5q11 1 26.5 4.5t15.5 17.5q0 3 -4.5 10t-11 14.5l-13 15t-10.5 12.5q-25 27 -47.5 51.5t-47 50t-53 54t-64.5 62.5z" />
    <glyph glyph-name="L" unicode="L" horiz-adv-x="556" 
d="M127 371v94q0 42 -1.5 68.5t-6 42.5t-13.5 23t-24 10q-25 4 -30.5 5.5t-5.5 6.5q0 11 2 13t8 2q7 0 23.5 -0.5t34.5 -1.5t34 -1.5t22 -0.5q7 0 24.5 0.5t36.5 1.5t36 1.5t23 0.5q10 0 10 -10q0 -9 -2.5 -11t-14.5 -3q-36 -3 -49 -13t-19 -27q-3 -11 -5 -45.5t-3 -74.5
t-1.5 -76.5t-0.5 -51.5q0 -103 0.5 -163.5t5.5 -86.5q3 -23 17.5 -27t53.5 -4q53 0 91.5 1.5t65.5 10.5t45 29t30 57q5 13 7 21t7 8q12 0 15.5 -2.5t3.5 -7.5t-4.5 -36t-23.5 -100q-3 -13 -5.5 -20t-9.5 -7t-17.5 1t-33.5 2t-63 2t-108 1q-110 0 -164.5 -3t-66.5 -3
q-14 0 -14 11q0 10 2.5 11.5t12.5 2.5q22 2 34.5 8.5t19.5 15.5t9.5 19.5t3.5 20.5q3 22 4.5 54.5t2 71t1 79.5t0.5 80z" />
    <glyph glyph-name="M" unicode="M" horiz-adv-x="907" 
d="M455 120q15 30 44 85t62 118.5t65 126.5t53 109q14 30 17.5 49t7.5 24q2 3 9 3q4 0 16.5 -0.5t27.5 -0.5t28.5 -0.5t19.5 -0.5q8 0 24.5 1t24.5 1q5 0 8.5 -1t3.5 -9q0 -10 -3 -12t-15 -3q-21 -1 -35 -4.5t-22 -14t-11 -29t-3 -48.5q0 -9 0.5 -42.5t1 -79.5t2 -98.5
t3 -99t3 -80.5t3.5 -44q6 -31 24.5 -37.5t46.5 -9.5q7 -1 9 -2t2 -9q0 -10 -3 -12t-10 -2h-9q-17 0 -45 1t-62 1q-60 0 -89 -1t-44 -1q-7 0 -8 3.5t-1 6.5q0 10 3.5 11.5t18.5 2.5q29 2 45.5 6.5t24.5 21.5t9.5 51.5t1.5 94.5q0 20 -1 66.5t-2 98.5t-2 98t-1 64
q-6 -15 -12.5 -29.5t-15 -32.5t-20.5 -41.5t-30 -57.5q-8 -16 -22.5 -44t-31.5 -61.5t-34.5 -69t-32.5 -67t-25 -55t-12 -32.5q-3 -14 -8.5 -17.5t-19.5 -5.5l-11 -2q-5 -1 -8.5 2.5t-8.5 17.5q-6 18 -12.5 34.5t-23 50.5t-46 95t-82.5 167q-12 25 -22 43.5t-18.5 35
t-15 32.5t-12.5 35q-1 -14 0.5 -26.5t0.5 -26.5q-2 -70 -3 -146t-1 -134t2.5 -90.5t11.5 -48t26 -19.5t45 -6q11 -1 16 -2t5 -9q0 -9 -2 -12t-13 -3q-6 0 -21 0.5t-32.5 1t-33 1t-21.5 0.5q-7 0 -25.5 -0.5t-39 -1t-38.5 -1t-25 -0.5q-5 0 -8 2t-3 10q0 9 3 10.5t16 3.5
q26 2 40.5 8.5t22.5 18.5t11 29t6 38q2 18 4.5 54t5.5 79.5t5.5 90t4.5 86t3.5 67.5t1.5 34q0 27 -7.5 43t-19.5 24t-27.5 10.5t-31.5 2.5q-9 0 -12 2.5t-3 10.5q0 7 2 10t13 3q8 0 30.5 -0.5t46.5 -0.5q20 0 36.5 0.5t23.5 0.5q11 0 17.5 -3t8.5 -14q4 -18 21 -56.5
t40.5 -87.5t51.5 -103t53 -103.5t45 -89t28 -58.5z" />
    <glyph glyph-name="N" unicode="N" horiz-adv-x="778" 
d="M131 441q0 37 -1.5 67t-9 51.5t-24 34t-47.5 15.5q-17 2 -20.5 3.5t-3.5 8.5q0 8 2 10.5t10 2.5h10t19 -0.5t22.5 -0.5h20.5q18 0 32 0.5t24 0.5h7q6 0 9.5 -4t8.5 -10q15 -20 48.5 -58t75.5 -84.5t89 -97t89 -96t75 -81.5t48 -53v128.5t-0.5 111t-1 84.5t-1.5 49
q-2 24 -5.5 40.5t-13.5 26.5t-28.5 15t-49.5 7q-9 0 -11 2t-2 9q0 8 2 10t9 2q26 0 58 -0.5t59 -0.5q26 0 59 0.5t68 0.5q10 0 10 -10t-3.5 -12t-17.5 -5q-24 -5 -38 -11.5t-22 -18.5t-12 -31t-7 -48q-5 -58 -7.5 -135.5t-2.5 -188.5q0 -44 1.5 -81.5t3.5 -57.5q1 -7 4 -19
t3 -16q0 -5 -10 -10t-14 -5t-9 6.5t-12 17.5q-22 32 -45.5 61t-60.5 70t-93 101t-144 153q-19 20 -33 35.5t-25.5 28.5t-22 25.5t-23.5 27.5v-40.5v-74.5t0.5 -91.5t1 -92t1.5 -76t3 -42.5q2 -12 5.5 -24.5t12.5 -22t26.5 -16t47.5 -8.5q15 -1 18.5 -3t3.5 -10t-2.5 -10.5
t-8.5 -2.5q-10 0 -33.5 0.5t-49.5 0.5t-49 0.5t-32 0.5q-5 0 -18 -0.5t-27.5 -0.5t-26.5 -0.5t-16 -0.5q-6 0 -9 2t-3 12q0 8 3.5 10t17.5 4q22 4 36 10.5t22.5 17.5t13 28.5t6.5 42.5q3 34 5 76t3 85.5t1.5 84t0.5 70.5z" />
    <glyph glyph-name="O" unicode="O" horiz-adv-x="778" 
d="M51 306q0 90 32 154t82.5 105t112 60.5t119.5 19.5q76 0 137 -25.5t104 -69.5t66 -103.5t23 -127.5q0 -77 -28.5 -138.5t-76.5 -104t-110.5 -65t-130.5 -22.5q-78 0 -139.5 27t-103.5 71.5t-64.5 101.5t-22.5 117zM144 337q0 -75 22 -132.5t58.5 -97t83.5 -60t98 -20.5
q25 0 63.5 8.5t75 36t63 80.5t26.5 141q0 80 -23 139t-60.5 98t-85 58t-97.5 19q-58 0 -100.5 -22t-70 -59.5t-40.5 -86t-13 -102.5z" />
    <glyph glyph-name="P" unicode="P" horiz-adv-x="556" 
d="M127 434v33t-0.5 46t-1 44t-2.5 27q-2 10 -13 17.5t-51 10.5q-9 1 -12 2.5t-3 9.5t2 9.5t13 1.5q41 0 71.5 1t57 1.5t51 1.5t54.5 1q69 0 109 -13t66 -32q31 -23 52.5 -59.5t21.5 -85.5q0 -42 -18 -79t-54 -64.5t-89 -44t-123 -16.5q-17 0 -30 1t-23 2v-27t0.5 -44.5
t1.5 -48.5t3 -41q3 -21 7 -33.5t12 -19t21 -8.5t34 -3q11 -1 16 -2t5 -9q0 -10 -3 -12.5t-9 -2.5q-5 0 -14 0.5t-25 1t-40 1t-59 0.5q-6 0 -22 -0.5t-33.5 -1t-32.5 -1t-21 -0.5t-9 1.5t-3 7.5q0 10 3 11.5t16 3.5q22 3 35 10.5t19.5 18.5t9.5 24.5t4 29.5q4 44 5 122t1 207
zM205 278q10 -2 22.5 -3t28.5 -1q43 0 78.5 11.5t61 33.5t39.5 52.5t14 69.5q0 37 -11.5 68.5t-34 54t-55 35.5t-74.5 13q-5 0 -15 -0.5t-20.5 -2t-19 -4t-9.5 -7.5q-1 -7 -2.5 -44t-2 -86.5t-0.5 -101.5v-88z" />
    <glyph glyph-name="Q" unicode="Q" horiz-adv-x="778" 
d="M397 645q76 0 137 -25.5t104 -69.5t66 -103.5t23 -127.5q0 -51 -14.5 -101t-46 -92.5t-79.5 -75.5t-116 -51q22 -24 58.5 -59t89.5 -64q7 -4 20.5 -10.5t31 -12.5t38 -10.5t41.5 -4.5q23 0 27.5 3t12.5 3q4 0 5.5 -5t1.5 -7q0 -3 -8.5 -7.5t-23.5 -9t-34.5 -7.5t-40.5 -3
q-19 0 -52 5.5t-75 24t-91 55t-99 99.5q-73 1 -132.5 27t-101.5 70t-65 102.5t-23 125.5q0 75 28 136t75.5 104.5t110 67t132.5 23.5zM144 337q0 -75 22 -132.5t58.5 -97t83.5 -60t98 -20.5q25 0 63.5 8.5t75 36t63 80.5t26.5 141q0 80 -23 139t-60.5 98t-85 58t-97.5 19
q-58 0 -100.5 -22t-70 -59.5t-40.5 -86t-13 -102.5z" />
    <glyph glyph-name="R" unicode="R" horiz-adv-x="648" 
d="M127 315v62t-0.5 74.5t-2 70.5t-3.5 49q-3 18 -14.5 28.5t-49.5 12.5q-11 1 -11 9t1.5 10.5t9.5 2.5q73 0 119.5 1t75 2t42.5 2t23 1q102 0 156.5 -45t54.5 -126q0 -51 -27.5 -96.5t-96.5 -72.5q5 -10 23.5 -46t45.5 -78t61 -81t70 -56q19 -9 35 -12.5t39 -4.5q5 0 5 -13
q0 -5 -8.5 -10t-42.5 -5q-58 0 -102.5 21t-81 58.5t-68 89.5t-63.5 114q-11 -2 -42 -3t-69 1v-42.5t0.5 -64t1.5 -63t3 -40.5q2 -9 5 -16t10.5 -12t21 -8.5t35.5 -5.5q14 -2 17 -3t3 -9q0 -5 -1.5 -9t-7.5 -4q-14 0 -31.5 0.5t-35.5 0.5t-34.5 0.5t-28.5 0.5t-29 -0.5
t-34 -0.5t-31 -0.5t-19 -0.5q-7 0 -9.5 1.5t-2.5 10.5q0 8 3 10t17 4q23 3 35.5 10t18.5 17.5t8 25.5t3 34q1 17 1.5 43.5t1 55.5t0.5 57v48zM206 312q14 -3 28 -5.5t37 -2.5q80 0 122 36t42 112q0 30 -7 58t-24.5 50.5t-46 36t-71.5 13.5q-28 0 -43 -2t-22.5 -8t-9 -17.5
t-2.5 -29.5q0 -13 -0.5 -47t-1 -72t-1 -73t-0.5 -49z" />
    <glyph glyph-name="S" unicode="S" horiz-adv-x="537" 
d="M269 27q27 0 51 8.5t42 24t28.5 38t10.5 49.5q0 26 -8 45t-26 34.5t-46 30t-68 32.5q-37 17 -59 27.5t-36 18t-22.5 14.5t-19.5 17q-16 15 -24.5 30.5t-13 29.5t-5.5 25.5t-1 19.5q0 41 15 73t43 54.5t66.5 34.5t86.5 12q19 0 42.5 -1.5t44.5 -3.5t36 -4t17 -2q5 0 8 3
q2 1 4 1.5t6 0.5q5 0 6 -3t1 -8q0 -8 -1.5 -36t3.5 -62q2 -14 3 -22t1 -13t-6.5 -7t-11.5 -2t-7 4t-7 20q-4 12 -12.5 30t-25 34t-43.5 27.5t-70 11.5q-22 0 -44 -7t-38.5 -21t-27 -35.5t-10.5 -50.5q0 -28 9 -47.5t29 -35.5t54 -32t83 -38q26 -11 54.5 -25.5t52.5 -35.5
t40 -51t16 -72q0 -45 -19 -77.5t-42 -49.5t-63.5 -31.5t-113.5 -14.5q-62 0 -103.5 7.5t-55.5 7.5q-8 0 -10.5 -4.5t-10.5 -4.5t-9.5 3.5t-3.5 18.5q-1 9 -3.5 27t-4.5 39.5l-4 43t-2 36.5q0 8 6 12t14 4q7 0 9 -10q3 -24 14.5 -49t34.5 -45.5t59 -34t88 -13.5z" />
    <glyph glyph-name="T" unicode="T" horiz-adv-x="630" 
d="M353 266q0 -85 1 -131.5t8 -69t21 -28.5t40 -11q5 -1 19.5 -2t18.5 -3q2 -2 2.5 -5.5t0.5 -7.5q0 -5 -2.5 -7.5t-12.5 -2.5q-11 0 -22 0.5t-25.5 1t-34 1t-47.5 0.5q-9 0 -29.5 -0.5t-43.5 -1t-43.5 -1t-29.5 -0.5q-11 0 -11 12q0 9 4 10.5t19 3.5q31 3 47.5 9t24.5 21
t10 41.5t3 71.5q2 105 3 209t-1 210q-80 0 -124.5 -2.5t-67.5 -12t-31.5 -27.5t-17.5 -48q-2 -6 -15 -6q-12 0 -12 10q0 6 2.5 20.5t6 32.5t7.5 36.5t7 32.5q3 11 5 16t7 5t6.5 -0.5t8.5 -4.5q6 -3 12.5 -4t20.5 -3q14 -1 41 -2t57 -1.5t57.5 -0.5h40.5h40.5t59.5 0.5
t68.5 1t66 1t52.5 1.5t28 3q9 2 14.5 5t8.5 3q9 0 9 -5q0 -6 -4 -24.5t-9 -39t-10 -39t-7 -25.5q-3 -13 -6 -15.5t-10 -2.5q-6 0 -10.5 1t-4.5 9q0 11 1.5 20.5t-0.5 18.5q-4 30 -26 37t-67 9h-121q-1 -27 -2 -72.5t-1.5 -93t-0.5 -90v-64.5z" />
    <glyph glyph-name="U" unicode="U" horiz-adv-x="722" 
d="M373 40q59 0 96 16t59 38t31 45t11 37q3 18 5 50.5t2.5 72t0 82t-2.5 80.5t-5 67t-7 41q-9 26 -31.5 32.5t-51.5 10.5q-5 1 -8.5 3t-2.5 10q1 7 2 9t9 2q7 0 24 -0.5t36 -0.5t35.5 -0.5t22.5 -0.5t20 0.5t29.5 0.5t29.5 0.5t19 0.5q8 0 9.5 -2t1.5 -7q0 -10 -3 -12
t-17 -4q-22 -4 -35 -13t-19 -35.5t-8 -77t-3 -137.5q0 -64 -1.5 -109t-8.5 -78.5t-21.5 -59t-40.5 -49.5q-42 -38 -91.5 -52t-104.5 -14q-93 0 -144 27t-74.5 64.5t-27.5 78.5t-4 68v44.5v66v65v42.5q-1 57 -2 89.5t-6 49.5t-15 22.5t-29 7.5t-23 4t-4 8q0 10 2 11.5t6 1.5
q32 0 64.5 -1.5t64.5 -1.5q7 0 23.5 0.5t35 1t34.5 1t22 0.5q7 0 9.5 -1.5t2.5 -8.5q0 -11 -4.5 -12.5t-21.5 -3.5q-21 -2 -34 -4.5t-21.5 -11.5t-12.5 -26t-6 -48q-2 -26 -3 -57t-2 -63t-1 -63.5v-59.5q0 -39 3 -81t21 -76.5t56.5 -57t109.5 -22.5z" />
    <glyph glyph-name="V" unicode="V" horiz-adv-x="611" 
d="M322 97q3 7 13 30t24 55.5t30.5 70t32 73.5t28.5 67.5t21 50.5q5 12 12 30t13.5 36.5t11 35.5t4.5 27q0 24 -21 29.5t-49 7.5q-13 1 -17.5 3t-4.5 9q0 13 8 13h21.5t30 -0.5t34.5 -0.5h34q25 0 40.5 0.5t27.5 0.5q11 1 12.5 -3t1.5 -9q0 -6 -4.5 -9t-9.5 -5
q-6 -2 -11.5 -6t-12 -12t-14 -21.5t-18.5 -34.5q-4 -8 -17.5 -35.5t-32.5 -67.5t-42 -89t-46 -100t-44.5 -100t-37.5 -89q-5 -11 -9.5 -26t-6.5 -21q-1 -4 -4 -4.5t-12 -2.5q-8 -2 -18.5 -3.5t-15.5 -1.5q-3 0 -6 14q-4 16 -10 35.5t-16 47.5t-24.5 66t-35.5 91
q-33 87 -57 146.5t-41 99t-28 62t-20 34t-16 15.5t-16 7q-7 3 -7 14q0 6 5.5 7t11.5 1q7 0 23 -0.5t35.5 -0.5t39 -0.5t33.5 -0.5q23 0 39 1t28 1q8 0 8 -10q0 -11 -1.5 -13t-12.5 -3q-19 0 -37.5 -4.5t-18.5 -27.5q0 -14 11 -49.5t26 -76.5t30 -79t23 -58q21 -54 44 -112.5
t38 -104.5z" />
    <glyph glyph-name="W" unicode="W" horiz-adv-x="907" 
d="M460 281q-5 -9 -22.5 -42.5t-38 -76t-39 -85t-24.5 -68.5q-1 -8 -7 -9q-11 -2 -21.5 -4t-18.5 -2q-5 0 -6.5 3t-4.5 17q-2 9 -8 30t-22.5 68.5t-47.5 129t-84 213.5q-7 17 -17 40.5t-20.5 46t-21.5 40.5t-20 25q-2 1 -11.5 5t-10.5 4q-4 1 -4 10q0 6 1.5 8.5t8.5 2.5
q22 0 43.5 -1.5t43.5 -1.5q7 0 23 0.5t33.5 1t33 1t21.5 0.5q8 0 10 -3t2 -11q0 -6 -2 -9t-10 -3q-27 -2 -42 -6t-15 -25q0 -16 10 -50t24 -73t28.5 -75.5t23.5 -57.5q20 -50 33 -83.5t22.5 -58.5t17 -44.5t14.5 -40.5q2 3 16.5 33t32.5 67t34.5 73t23.5 51q-28 72 -53 131
q-15 36 -25 57.5t-19.5 41t-18.5 34.5t-16 20q-4 5 -21 10q-4 2 -4 10q0 6 1.5 9t9.5 3q5 0 18.5 -0.5t36.5 -1.5t55 -1.5t74 -0.5h35t50 1q5 0 17.5 0.5t26.5 1t25.5 1t14.5 0.5q12 0 12 -9q0 -6 -2.5 -9t-12.5 -9q-14 -8 -24 -23t-17 -26q-6 -12 -20 -39t-29 -57.5
t-29.5 -59.5l-22.5 -45q5 -12 17.5 -41t26 -60.5t25 -59t14.5 -36.5q6 -14 9.5 -23t5.5 -15.5t4 -12t4 -13.5q7 16 21 46.5t31 68.5t35.5 79.5t35 78t29 65t17.5 40.5q14 34 19 53t5 35q0 14 -5.5 23t-14 14.5t-17.5 7.5t-15 2q-12 1 -15.5 2t-3.5 9q0 14 9 14
q5 0 17.5 -0.5t26.5 -1t26 -1t17 -0.5t18.5 0.5t28 1t27.5 1t18 0.5q8 0 8 -10q0 -8 -1.5 -10t-12.5 -6q-5 -2 -13 -9t-26 -35t-48.5 -86t-80.5 -163q-4 -8 -15 -31.5t-25.5 -54.5t-30.5 -66.5t-29.5 -67.5t-23 -57t-11.5 -35q-1 -5 -3.5 -5.5t-10.5 -2.5q-7 -1 -15.5 -3
t-15.5 -2q-4 0 -5 2.5t-3 12.5q-6 23 -17 57t-24.5 71.5t-28.5 75.5t-28 69zM489 400q6 15 18 41.5t23.5 54t20 51.5t8.5 33q0 17 -16 23t-58 6q-10 0 -21.5 -0.5t-20.5 -3t-15 -7.5t-6 -15q0 -5 9 -30t20 -55t22.5 -58.5t15.5 -39.5z" />
    <glyph glyph-name="X" unicode="X" horiz-adv-x="667" 
d="M320 284q-7 -10 -15.5 -20t-18.5 -22.5t-23 -29.5t-31 -41q-31 -42 -42 -62.5t-11 -38.5q0 -14 7.5 -22.5t18 -13.5t21 -7t15.5 -2q13 -2 16 -3.5t3 -9.5q0 -14 -11 -14q-6 0 -14 0.5t-21.5 0.5t-34 0.5t-53.5 0.5q-10 0 -25.5 -0.5t-30.5 -0.5t-27 -0.5t-17 -0.5
q-8 0 -10.5 2t-2.5 10q0 9 2 11.5t13 4.5q9 2 20 9t21.5 17t21 21t18.5 20q17 19 44.5 50t56 63.5t53 61.5t36.5 43q-40 59 -81 118t-82 112q-6 8 -14.5 18.5t-18 21t-20 18.5t-19.5 11q-11 4 -13.5 5.5t-2.5 8.5q0 6 1.5 9t9.5 3q6 0 19.5 -0.5t29 -0.5t29.5 -0.5t19 -0.5
q7 0 24.5 0.5t36.5 0.5t36 0.5t23 0.5t9 -1.5t3 -8.5q0 -8 -2 -10.5t-16 -3.5q-49 -4 -49 -29q0 -9 5 -20t19 -32q22 -34 51.5 -77.5t58.5 -87.5q15 18 39.5 47.5t48.5 60.5t41 58.5t17 40.5q0 20 -16 27.5t-33 9.5t-21 3.5t-4 10.5q0 8 2 9.5t10 1.5q28 0 56 -1t56 -1
q24 0 39 0.5t24.5 0.5t15 0.5t11.5 0.5q5 0 5.5 -4t0.5 -9q0 -7 -4.5 -10t-15.5 -7q-14 -5 -29 -19.5t-29 -28.5q-7 -7 -27.5 -30t-48 -54t-58.5 -66t-59 -67q11 -14 35.5 -49t52 -73t52 -72t33.5 -47q15 -20 32.5 -41.5t31.5 -28.5q3 -2 13.5 -5.5l13.5 -4.5q4 -3 4 -10
q0 -9 -3.5 -10.5t-14.5 -1.5h-21.5t-26 0.5t-26 0.5h-19.5q-10 0 -38 -1t-86 -1q-10 0 -11.5 3t-1.5 9q0 8 2.5 10.5t10.5 2.5q24 2 40 6.5t16 22.5q0 7 -3.5 17t-17.5 33q-7 12 -21.5 34t-32 47.5t-36 52.5t-34.5 50z" />
    <glyph glyph-name="Y" unicode="Y" horiz-adv-x="574" 
d="M305 318q14 20 37.5 56t47 75t40.5 73.5t17 50.5q0 20 -15.5 28t-53.5 13q-5 1 -6.5 3t-1.5 10q0 6 4 7t9 1q23 0 51 -0.5t52 -0.5q15 0 38.5 0.5t45.5 0.5q9 0 12.5 -1t3.5 -8t-2 -8.5t-12 -5.5q-12 -4 -27 -15.5t-40 -42t-63.5 -86t-96.5 -148.5q-9 -15 -17 -27t-8 -16
v-42v-50.5t0.5 -48.5t1.5 -36q1 -22 4 -35t10.5 -20.5t21.5 -11.5t37 -8q14 -2 17.5 -4t3.5 -9q0 -10 -3 -12t-9 -2q-10 0 -45.5 1.5t-102.5 1.5q-12 0 -27 -0.5t-28.5 -1t-24.5 -1t-16 -0.5q-7 0 -9.5 2t-2.5 13q0 6 2.5 8t13.5 3q38 5 53 16.5t19 28.5q2 10 3 38.5t2 59.5
t1 57.5v32.5q0 8 -3 13.5t-8 13.5q-47 78 -80.5 132t-57 89.5t-39 56t-25.5 31t-17 14.5t-14 7q-3 2 -4 3.5t-1 8.5q0 6 2 7.5t7 1.5q26 0 55 -0.5t49 -0.5h25.5t28.5 0.5t26 0.5h19t8 -3t1 -8q0 -6 -2 -9t-14 -3q-4 0 -12.5 -0.5t-17 -3t-15 -7t-6.5 -13.5q0 -8 9.5 -28
t24.5 -46.5t33.5 -56t36 -57t32 -49.5t22.5 -33z" />
    <glyph glyph-name="Z" unicode="Z" horiz-adv-x="611" 
d="M459 598q-111 -1 -175 -3t-100 -11t-52 -26.5t-30 -49.5q-5 -12 -9 -22.5t-6 -14.5q-3 -4 -10 -4q-10 0 -12.5 2.5t-2.5 6.5q0 8 7.5 47.5t25.5 101.5q4 11 5 13.5t5 2.5q5 0 7.5 -1t6.5 -3q5 -2 27.5 -3.5t49.5 -2t52.5 -0.5h35.5q74 0 147.5 1.5t147.5 1.5q8 0 8 -7
q0 -5 -4.5 -11.5t-21.5 -29.5q-46 -59 -86.5 -110.5t-78 -101t-74.5 -99t-77 -105.5l-95 -134q36 0 83 1t92.5 3.5t83 7t55.5 10.5q21 8 36 22t26 30t18.5 33t13.5 30q2 5 6 5.5t9 0.5t8.5 -1t3.5 -8q0 -12 -3.5 -29.5t-9.5 -37.5t-12.5 -41.5t-12.5 -39.5q-5 -15 -8 -20.5
t-8 -5.5t-14.5 2t-23.5 3q-45 1 -88.5 1h-73.5q-88 0 -140.5 -0.5t-82.5 -1.5t-44 -1.5t-25 -0.5q-10 0 -11.5 3t-1.5 11q0 7 3 11l9 12q6 9 16.5 22t34.5 43t65.5 83.5t109.5 143.5q21 28 36.5 49t35 48t48 67.5t75.5 106.5z" />
    <glyph glyph-name="bracketleft" unicode="[" horiz-adv-x="315" 
d="M198 704q15 0 43 1t51 1q5 0 6 -3t1 -8q0 -9 -1 -12t-4 -3q-54 -4 -86.5 -4.5t-34.5 -2.5q-4 -2 -5 -22q0 -24 -0.5 -72t0 -110.5t0.5 -134.5t0.5 -143.5t1 -138t1 -118t1 -83t0.5 -33.5q2 -8 16 -10q5 -1 16.5 -2t24.5 -1.5l26 -1t21 -0.5q17 0 21 -1.5t4 -12.5
t-3 -12.5t-8 -1.5q-6 0 -19.5 0.5t-29 1t-29.5 1t-19 0.5t-17 -0.5t-26 -1t-26 -1t-17 -0.5q-8 0 -8 10q0 6 0.5 43t1.5 85.5t1.5 98.5t0.5 82v104t-0.5 131t-1 133t-0.5 110q0 8 -0.5 26t-1 38.5t-1 38t-0.5 24.5t2 8.5t6 1.5q12 0 31 -2.5t61 -2.5z" />
    <glyph glyph-name="backslash" unicode="\" horiz-adv-x="389" 
d="M64 709q5 -15 7.5 -25.5t9.5 -30.5q16 -46 44 -124t61 -169.5t67.5 -186.5t63.5 -174t49 -132.5t24 -62.5q6 -16 14 -34h-52q-5 19 -9 33.5t-11 34.5t-17.5 50.5t-28.5 81.5q-27 76 -51 142t-47 129l-46 126t-49 133q-22 62 -40.5 111.5t-39.5 97.5h51z" />
    <glyph glyph-name="bracketright" unicode="]" horiz-adv-x="315" 
d="M117 -222q-15 0 -43 -1t-51 -1q-5 0 -6 3t-1 8q0 9 1 12t4 3q54 4 86.5 4.5t34.5 2.5q4 2 5 22q0 24 0.5 72t0 110.5t-0.5 134.5t-0.5 143.5t-1 138t-1 118t-1 83t-0.5 33.5q-2 8 -16 10q-5 1 -16.5 2t-24.5 1.5l-26 1t-21 0.5q-17 0 -21 1.5t-4 12.5t3 12.5t8 1.5
q6 0 19.5 -0.5t29 -1t29.5 -1t19 -0.5t17 0.5t26 1t26 1t17 0.5q8 0 8 -10q0 -6 -0.5 -43t-1.5 -85.5t-1.5 -98.5t-0.5 -82v-104t0.5 -131t1 -133t0.5 -110q0 -8 0.5 -26t1 -38.5t1 -38t0.5 -24.5t-2 -8.5t-6 -1.5q-12 0 -31 2.5t-61 2.5z" />
    <glyph glyph-name="asciicircum" unicode="^" horiz-adv-x="475" 
d="M462 271l-191 293l-196 -293h-99l264 394h6l253 -394h-37z" />
    <glyph glyph-name="underscore" unicode="_" horiz-adv-x="500" 
d="M500 -75v-50h-500v50h500z" />
    <glyph glyph-name="grave" unicode="`" horiz-adv-x="500" 
d="M189 651q9 0 15 -6t25 -31q3 -3 14.5 -18t24 -31.5t22.5 -30t11 -14.5q2 -2 8.5 -10.5t6.5 -10.5q0 -3 -6.5 -4t-7.5 -1q-2 0 -6.5 2.5t-15 10t-29.5 22t-50 37.5q-14 11 -32.5 24.5t-31.5 24.5q-4 3 -7 6.5t-3 8.5q0 3 2 7t13 6q14 4 28.5 6t18.5 2z" />
    <glyph glyph-name="a" unicode="a" horiz-adv-x="463" 
d="M40 87q0 23 4 37.5t12 24t20.5 15.5t30.5 13q19 8 42.5 14t47.5 10.5t48 8t44 5.5v100q0 11 -3.5 22t-12 20t-23.5 15t-39 6q-12 0 -31 -2.5t-36 -10.5q-6 -2 -7.5 -5t-1.5 -7q0 -5 1 -12t1 -15q0 -7 -4 -9.5t-14 -5.5t-25.5 -7t-24.5 -4q-13 0 -13 12q0 16 17.5 36.5
t45 39t62.5 31t70 12.5q64 0 88 -32t24 -81q0 -23 -1 -54.5t-1.5 -62.5t-1.5 -56t-1 -36q0 -35 10 -48.5t29 -13.5q17 0 37.5 9t35.5 18l4 -2v-15q0 -10 -2 -15t-10 -10q-46 -25 -80.5 -33.5t-46.5 -8.5q-17 0 -27 6t-14.5 14t-6 16t-1.5 12q-37 -17 -78 -32.5t-80 -15.5
q-29 0 -46.5 10t-26.5 25t-12 32t-3 30zM288 160q0 11 -6 18t-25 7q-25 0 -50 -8.5t-39 -14.5q-18 -7 -27.5 -14t-14 -13t-5.5 -12t-1 -12q0 -45 18.5 -57.5t46.5 -12.5q8 0 27 2.5t47 13.5q9 4 14.5 8t8.5 11.5t4.5 19.5t1.5 31v33z" />
    <glyph glyph-name="b" unicode="b" horiz-adv-x="537" 
d="M494 241q0 -40 -14.5 -84t-48 -80.5t-88.5 -60.5t-135 -24q-13 0 -23.5 0.5t-22.5 1.5t-27.5 3t-38.5 6q-11 2 -18 2t-7 8q0 10 2 21.5t4 40.5q2 20 3 69t2.5 109.5t2 122.5t0.5 107q0 42 -0.5 67.5t-1.5 40.5t-3 22t-4 13q-7 18 -21.5 21.5t-30.5 4.5q-9 0 -9 7t2.5 9
t12.5 5q9 3 27.5 8.5t39.5 11t39.5 9.5t26.5 4q2 0 5.5 -1t3.5 -6q0 -8 -3.5 -32t-5.5 -42q-2 -30 -4 -65.5t-3 -69.5t-1.5 -62.5t-0.5 -42.5q29 14 70.5 30t96.5 16q38 0 69.5 -13.5t54.5 -38t36 -59.5t13 -79zM423 203q0 30 -9 62.5t-28.5 59.5t-50 45t-74.5 18
q-30 0 -54.5 -7.5t-53.5 -19.5q0 -10 -0.5 -20t-1 -22.5t-0.5 -30.5v-45v-65t1.5 -46t4 -32t6.5 -22q11 -24 36.5 -33.5t61.5 -9.5q32 0 62 8.5t53 31.5q25 24 36 59t11 69z" />
    <glyph glyph-name="c" unicode="c" horiz-adv-x="426" 
d="M42 186q0 51 20 96t53.5 78t78.5 52t96 19q22 0 43 -3t37.5 -9.5t26.5 -16t10 -22.5q0 -8 -5.5 -15.5t-13.5 -13t-15.5 -9t-12.5 -3.5q-4 0 -11 4t-15 9q-24 14 -52 20.5t-51 6.5q-10 0 -23.5 -2t-27 -10t-26 -23t-21.5 -41q-8 -22 -10 -42.5t-2 -36.5q0 -43 11.5 -77
t31 -57.5t46.5 -36t58 -12.5q29 0 62 10t59 30h6q2 -3 5.5 -7t3.5 -7t-13.5 -15t-37 -26t-56 -25t-70.5 -11q-43 0 -77.5 15t-58.5 41.5t-36.5 62t-12.5 77.5z" />
    <glyph glyph-name="d" unicode="d" horiz-adv-x="556" 
d="M289 431q33 0 56 -5t43 -10v42.5t-0.5 57.5t-3 56t-7.5 38q-6 14 -17.5 16.5t-25.5 3.5q-6 0 -7 2.5t-1 7.5q0 6 1.5 8t12.5 7q17 9 36 19t36 18t28.5 13t13.5 5q5 0 9 -1t4 -6q0 -3 -1 -11.5t-2 -19t-2 -20t-1 -13.5q-2 -25 -3.5 -64.5t-2.5 -84.5t-1.5 -91.5t-1 -86.5
t-0.5 -69v-39v-35.5t0.5 -41.5t1.5 -40t3 -30q2 -17 8.5 -24.5t20.5 -7.5q11 0 25 3.5t31 11.5h9v-13q0 -11 -7.5 -15t-20.5 -8q-16 -5 -34.5 -10t-35 -9.5t-30 -7.5t-20.5 -3q-15 0 -18 18q-1 7 -2 22t-1 31q-48 -24 -86 -38.5t-76 -14.5q-36 0 -68 15t-56.5 41.5
t-38.5 63.5t-14 81q0 50 18 93.5t50.5 75.5t77.5 50.5t100 18.5zM381 70q0 11 0.5 39.5t1 61t1 62t0.5 41.5q0 35 -7 52.5t-18 28.5t-25 18t-28.5 10.5t-27 4.5t-20.5 1q-45 0 -73 -15t-43.5 -38t-21.5 -49t-6 -49q0 -43 13.5 -79t36 -61.5t52 -39.5t62.5 -14q54 0 103 26z
" />
    <glyph glyph-name="e" unicode="e" horiz-adv-x="426" 
d="M394 89v-15q0 -8 -1 -11t-8 -8q-34 -29 -79.5 -47t-90.5 -18q-54 0 -87.5 20.5t-52.5 51t-25.5 65t-6.5 62.5q0 59 18 104t46 76t62.5 46.5t68.5 15.5q8 0 26.5 -2.5t41 -13.5t43.5 -34.5t33 -65.5q2 -7 4.5 -8t5.5 -1q6 0 7 -4t1 -12q0 -13 -1.5 -16.5t-12.5 -5.5
q-26 -4 -61 -10.5t-71.5 -13.5t-72.5 -14t-63 -13q1 -37 9 -69.5t24.5 -56t41.5 -37t60 -13.5q37 0 71.5 12.5t63.5 35.5h6zM118 246q13 2 25 4.5t28 6t38.5 9t56.5 13.5q23 6 30 11.5t7 13.5q0 14 -7.5 30.5t-20.5 30.5t-30 24t-36 10q-28 0 -45.5 -17.5t-27.5 -41.5
t-13.5 -50t-4.5 -44z" />
    <glyph glyph-name="f" unicode="f" horiz-adv-x="333" 
d="M101 420q1 35 2.5 60t5.5 45t12 37.5t22 37.5q13 18 32 37t44 34.5t54.5 25t62.5 9.5q29 0 51 -6.5t36.5 -16.5t22 -21t7.5 -20q0 -7 -6.5 -13.5t-15 -12t-16.5 -8.5t-11 -3q-4 0 -10 7t-18.5 15t-32.5 15t-53 7q-42 0 -65.5 -13t-35 -40.5t-14.5 -71t-3 -103.5h142
q6 0 7 -4t1 -21q0 -12 -1.5 -16.5t-11.5 -4.5h-137v-75.5t0.5 -80t1 -74t1.5 -57.5q1 -19 5 -31.5t13.5 -19.5t26.5 -9.5t43 -2.5q8 -1 10 -3.5t2 -8.5q0 -9 -2 -12t-16 -3q-5 0 -19 0.5t-32 0.5t-37.5 0.5t-36.5 0.5q-25 0 -50.5 -1t-41.5 -1q-4 0 -4 13q0 7 2.5 8.5
t13.5 3.5q29 5 37 18t10 48q1 26 1.5 64t0.5 78v78v65h-53q-4 1 -4 8q0 8 0.5 10t4.5 4z" />
    <glyph glyph-name="g" unicode="g" horiz-adv-x="500" 
d="M483 -81q0 -38 -24.5 -72t-65 -59.5t-92 -40.5t-105.5 -15q-21 0 -46 4t-47.5 12t-38.5 20t-21 29q-4 12 -4.5 26.5t-0.5 26.5q0 20 3.5 33.5t25.5 27.5q11 8 40 24t80 37q-45 5 -65 23t-20 43q0 14 3 20.5t8 10.5q4 3 8.5 5l13.5 6t25 11t43 18q-17 2 -39.5 7t-45.5 22
q-22 15 -40.5 44t-18.5 75q0 39 16 71.5t42.5 55t60.5 35t70 12.5q51 0 94 -21q8 1 23.5 3t34 3.5t38 3t34.5 1.5q17 0 20 -5t3 -19q0 -20 -2.5 -26.5t-12.5 -6.5h-23t-26 -0.5t-24.5 -0.5h-18.5q9 -10 20.5 -29t11.5 -57q0 -60 -45.5 -104t-126.5 -71q-24 -8 -39.5 -13
t-24.5 -8.5t-12 -6.5t-3 -8q0 -15 7.5 -23t23.5 -12.5t41.5 -6t62.5 -3.5q23 -1 53.5 -4t58.5 -12.5t47.5 -29.5t19.5 -56zM212 397q-33 0 -60 -24.5t-27 -76.5q0 -34 12 -61t33 -46.5t49 -32t59 -18.5q9 5 22 12.5t24.5 20t19.5 32t8 47.5q0 29 -10 56t-28 47t-44 32
t-58 12zM222 -34q-17 -6 -34.5 -14.5t-40.5 -23.5q-34 -23 -40 -41t-6 -28q0 -23 13.5 -38.5t33.5 -24.5t44.5 -13t46.5 -4q88 0 135.5 33.5t47.5 81.5q0 19 -11 33.5t-36 22.5q-12 3 -24 5t-28.5 3.5t-40.5 3.5t-60 4z" />
    <glyph glyph-name="h" unicode="h" horiz-adv-x="574" 
d="M363 426q30 0 52 -10.5t36.5 -28.5t21.5 -41t7 -48q0 -98 1 -155t1 -74q0 -15 4 -23.5t11 -13t17 -5.5t22 -3q6 -1 9 -3t3 -10q0 -5 -1.5 -8.5t-9.5 -3.5h-17t-24 0.5t-26.5 0.5h-24.5q-23 0 -52 -0.5t-46 -0.5q-8 0 -8 10q0 8 2.5 9.5t14.5 3.5q29 5 38.5 20.5
t10.5 38.5q1 15 2 36t1.5 42t1 39t0.5 27q0 24 -2 50t-12.5 48.5t-32.5 37t-62 14.5q-18 0 -37 -3.5t-36 -8.5t-31.5 -10.5t-22.5 -8.5q0 -87 0.5 -139t1 -81.5t1.5 -41.5t2 -20q2 -12 6 -18.5t10.5 -10.5t17.5 -6t28 -4q5 -1 7 -2.5t2 -9.5q0 -7 -2 -9.5t-10 -2.5
q-20 0 -52 1t-57 1q-24 0 -51 -1t-35 -1t-9.5 3t-1.5 10t4.5 8.5t12.5 3.5q19 4 29.5 11.5t15.5 28.5t6.5 60.5t2.5 107.5q0 18 0.5 51t0.5 73v82t-0.5 78t-1.5 62.5t-3 34.5q-5 23 -16.5 28t-38.5 9q-8 1 -7 9t3 10q3 2 21.5 8t40.5 13t41 12t24 5q17 0 17 -6
q0 -5 -0.5 -11.5t-2.5 -18.5q-5 -54 -6 -134t-1 -170q47 23 94.5 41t94.5 18z" />
    <glyph glyph-name="i" unicode="i" horiz-adv-x="278" 
d="M39 364q0 7 4.5 9.5t8.5 4.5q2 1 15.5 8t30 16t32 17t20.5 10q14 7 21 7t8 -2.5t1 -5.5t-0.5 -11.5t-1 -18.5t-1.5 -19t-1 -13q-1 -19 -1.5 -54.5t-0.5 -83.5v-36.5t0.5 -50.5t1.5 -49t2 -32q4 -23 19 -29t46 -8q10 0 12 -2t2 -10q0 -12 -10 -12q-9 0 -40.5 1t-64.5 1
q-6 0 -21.5 -0.5t-32 -0.5t-31 -0.5t-20.5 -0.5q-9 0 -9 9q0 8 2.5 10t12.5 4q27 5 37.5 13.5t15.5 22.5q3 8 4.5 30.5t2.5 48.5t1 50v36q0 41 -0.5 65t-5 37.5t-14 18.5t-26.5 7q-14 2 -16.5 3.5t-2.5 9.5zM103 627q0 17 15.5 32.5t31.5 15.5q15 0 30 -15t15 -31t-15 -31.5
t-33 -15.5q-16 0 -30 15t-14 30z" />
    <glyph glyph-name="j" unicode="j" horiz-adv-x="259" 
d="M-44 -239q0 13 12.5 27t25.5 14q11 0 21 -6.5t33 -6.5q13 0 22.5 4t17 15t12 32t6.5 54q1 16 1.5 44.5t1 60t0.5 62v50.5v42.5t-0.5 64t-1 62t-2.5 35.5q-4 15 -14 19.5t-25 4.5q-19 0 -23.5 1t-4.5 7q0 8 4 10.5t15 10.5q7 5 25.5 16t38 23t36 21t20.5 9q11 0 11 -10
q0 -3 -0.5 -9.5t-1.5 -23t-2 -46t-3 -79.5q-2 -54 -1.5 -113.5t0.5 -137.5q0 -37 -1 -69t-8.5 -61t-23.5 -56t-45 -54q-6 -5 -16 -13.5t-22.5 -16t-27.5 -13t-31 -5.5q-6 0 -14.5 1.5t-16 5t-13 9.5t-5.5 15zM113 630q0 14 14.5 30t31.5 16t31.5 -15.5t14.5 -31.5
q0 -14 -14 -30t-32 -16q-17 0 -31.5 15t-14.5 32z" />
    <glyph glyph-name="k" unicode="k" horiz-adv-x="537" 
d="M174 199v-60.5t0.5 -38.5t1.5 -24.5t2 -18.5q4 -20 16 -26.5t35 -8.5q12 -2 14.5 -3t2.5 -9t-2.5 -9.5t-5.5 -1.5q-5 0 -11.5 0.5t-17.5 0.5t-28 0.5t-43 0.5q-29 0 -55.5 -1t-41.5 -1q-8 0 -9.5 2.5t-1.5 12.5q0 6 3 7.5t17 4.5q30 6 38.5 23t10.5 49q2 25 2.5 60.5
t1.5 73t1 74v63.5v55t-1 83.5t-2 80t-4 44.5q-5 14 -16.5 17t-28.5 4q-8 0 -9.5 2.5t-1.5 10.5q0 3 1 5.5t5.5 4.5t15 5t29.5 9q8 2 19.5 5.5t23.5 6.5t22.5 5t16.5 2q15 0 15 -7q0 -8 -3.5 -33.5t-5.5 -73.5q-4 -174 -5 -263.5t-1 -106.5q11 9 23 18.5t27.5 22t35 29.5
t45.5 40q19 17 29 27.5t10 18.5q0 11 -11.5 12.5t-32.5 2.5q-12 1 -14 3.5t-2 7.5q0 9 1 12.5t7 3.5q14 0 36.5 -1t51.5 -1q7 0 23 0.5t32.5 0.5t31 0.5t18.5 0.5q5 0 8 -1.5t3 -10.5q0 -6 -1 -7.5t-9 -3.5q-25 -5 -41 -13t-36 -22q-18 -12 -56 -39t-89 -67
q22 -24 46.5 -49.5t48.5 -50.5t46 -47.5t39 -39.5q15 -15 25 -24t18.5 -14.5t15.5 -8t16 -4.5q5 -1 6 -2.5t1 -7.5q0 -8 -2 -10t-7 -2h-43t-47 0.5t-41.5 0.5h-26.5q-13 0 -16.5 1.5t-3.5 10.5q0 7 1.5 8t11.5 2q7 1 15.5 2.5t8.5 8.5q0 3 -2 5.5t-4 4.5q-31 33 -53 55.5
t-40 41.5t-34.5 38t-38.5 43z" />
    <glyph glyph-name="l" unicode="l" horiz-adv-x="278" 
d="M104 394v74t-0.5 54.5t-1.5 40.5t-2 32q-2 34 -16.5 42.5t-43.5 8.5q-7 0 -8.5 1.5t-1.5 7.5q0 8 3.5 10.5t20.5 7.5q10 3 27 9t35.5 11.5t35 9.5t25.5 4q4 0 6 -1t2 -6t-1.5 -21t-3.5 -36t-3.5 -41.5t-1.5 -37.5v-32.5t-0.5 -43t-0.5 -61.5v-88v-61t1 -86.5t2.5 -82.5
t4.5 -50q4 -17 17 -24t48 -11q12 -2 15 -3t3 -8q0 -11 -4.5 -13t-18.5 -2q-10 0 -39.5 1.5t-61.5 1.5q-14 0 -30 -0.5t-31 -1t-26.5 -1t-17.5 -0.5q-7 0 -9 2t-2 10t3 10t11 3q35 5 46 20.5t13 44.5t3.5 68.5t2 81.5t0.5 83.5v72.5z" />
    <glyph glyph-name="m" unicode="m" horiz-adv-x="852" 
d="M757 132q0 -38 1.5 -59t7.5 -31t18.5 -13t33.5 -5q13 -1 15 -2t2 -9q0 -7 -1.5 -10.5t-10.5 -3.5h-19t-32.5 0.5t-34 0.5h-25.5h-26t-26 -0.5t-21 -0.5h-12q-6 0 -7.5 3t-1.5 9q0 7 4 9t18 5q27 6 34 23t9 37q2 18 2.5 45t0.5 82q0 27 -1.5 55t-11.5 51t-30.5 37.5
t-59.5 14.5q-21 0 -41 -5t-36 -12t-26 -14.5t-11 -11.5t-1.5 -22.5t-1 -41t-0.5 -43v-28.5v-69t1 -39.5t2 -21t3 -14.5q5 -15 15.5 -18.5t44.5 -7.5q6 0 8.5 -1.5t2.5 -8.5q0 -9 -2.5 -11t-9.5 -2q-5 0 -18 0.5t-27 0.5t-26.5 0.5t-17.5 0.5q-6 0 -20 -0.5t-29 -0.5
t-28.5 -0.5t-19.5 -0.5q-10 0 -14 1.5t-4 9.5t2 9.5t15 4.5q23 5 32 13t13 28q3 15 4.5 54t1.5 81q0 38 -2 69t-10.5 53.5t-26.5 35t-50 12.5q-20 0 -40 -5.5t-36.5 -12.5t-28.5 -14t-15 -9q-8 -5 -9.5 -11t-1.5 -27v-184q0 -26 1.5 -41.5t7.5 -24.5t17.5 -12.5t32.5 -4.5
q11 -1 14.5 -2.5t3.5 -8.5q0 -8 -2.5 -11t-10.5 -3q-21 0 -43 0.5t-58 0.5q-33 0 -59 -0.5t-34 -0.5q-5 0 -5.5 3.5t-0.5 7.5q0 5 1.5 8t9.5 5q24 5 36.5 14t14.5 38q1 14 1.5 38.5t1 52t0.5 53.5v42q0 31 -1.5 48t-6 25.5t-12 10t-19.5 1.5q-17 0 -21 1t-4 8q0 6 1.5 8
t9.5 7q7 4 24.5 14.5t36.5 22t35 20t19 8.5q8 0 12 -1t4 -7q0 -3 -1.5 -13.5t-2.5 -21.5q-2 -14 -2 -23v-21q53 35 94 56.5t87 21.5q14 0 32 -4.5t35 -17.5q16 -13 23 -26t12 -25q16 11 37 23.5t44.5 23.5t48.5 18.5t49 7.5q11 0 25.5 -2t29.5 -9.5t29.5 -20.5t23.5 -36
q5 -10 7 -21t3 -29t1 -45.5v-71.5v-59z" />
    <glyph glyph-name="n" unicode="n" horiz-adv-x="574" 
d="M369 426q42 0 64.5 -17t33 -41t12 -50t1.5 -43q0 -14 -0.5 -36t-0.5 -45t-0.5 -42t-0.5 -27q0 -36 1.5 -56t7 -29.5t17 -12t32.5 -4.5q15 -1 18.5 -2t3.5 -8q0 -11 -3 -12.5t-11 -1.5q-24 0 -50.5 1t-52.5 1q-32 0 -58.5 -1t-37.5 -1q-6 0 -7.5 2t-1.5 8t1.5 8.5
t11.5 3.5q26 3 36.5 12t13.5 21q3 11 4.5 31t2.5 42t1 43v34q0 52 -2.5 83.5t-16.5 51.5q-13 17 -34.5 24.5t-43.5 7.5t-45 -5t-41.5 -11.5t-31 -13t-14.5 -8.5q-1 -2 -2 -27.5t-2 -56.5t-1 -59v-36q0 -42 1 -66.5t7 -37.5t17.5 -18t32.5 -7q15 -2 18.5 -3t3.5 -7
q0 -10 -1.5 -13t-11.5 -3q-19 0 -45 1t-45 1q-6 0 -21.5 -0.5t-32 -0.5t-31 -0.5t-20.5 -0.5q-7 0 -9 1.5t-2 8.5q0 10 1.5 12t11.5 4q19 2 33 11.5t17 32.5q2 11 3.5 32t2 45l1 48t0.5 42v21.5t-0.5 32.5t-1.5 31t-3 18q-6 11 -17 13t-40 2q-3 0 -4.5 1.5t-1.5 9.5
q0 4 1.5 6.5t7.5 6t17.5 9t31.5 14.5q23 11 36 17.5t20.5 10t10.5 5t5 1.5q14 0 14 -4q0 -5 -0.5 -14.5t-1.5 -20t-1.5 -19.5t-0.5 -13q61 27 110.5 44.5t82.5 17.5z" />
    <glyph glyph-name="o" unicode="o" horiz-adv-x="537" 
d="M43 204q0 60 21.5 102.5t56 70.5t77 41t84.5 13q54 0 94 -18.5t66.5 -48.5t39.5 -68.5t13 -77.5q0 -49 -18.5 -91t-50.5 -72.5t-76 -47.5t-95 -17q-50 0 -89.5 17t-66.5 46t-41.5 68t-14.5 83zM121 239q0 -53 15.5 -93.5t39.5 -67.5t53.5 -40.5t56.5 -13.5q30 0 54 12
t41 34t26 51.5t9 64.5q0 43 -13 81.5t-35.5 67t-52.5 45.5t-63 17q-27 0 -50.5 -11t-41.5 -31.5t-28.5 -49.5t-10.5 -66z" />
    <glyph glyph-name="p" unicode="p" horiz-adv-x="556" 
d="M336 431q33 0 65 -13.5t57 -39t40 -63t15 -84.5q0 -60 -22.5 -105t-58.5 -74.5t-81 -44.5t-89 -15q-29 0 -50.5 4.5t-36.5 9.5v-86.5t3 -104.5q2 -36 16 -46.5t54 -12.5q9 -1 11 -3t2 -11q0 -12 -11 -12q-20 0 -49.5 1.5t-64.5 1.5q-6 0 -19 -0.5t-28 -1t-28.5 -1
t-19.5 -0.5q-5 0 -6.5 1.5t-1.5 9.5t2 9.5t12 3.5q16 3 25.5 9t14.5 12.5t7 13.5t3 13q2 13 3 40.5t2 66.5t1 87.5v103.5l1 106v43.5v29.5t-0.5 20t-1.5 16q-2 25 -16.5 29t-31.5 4q-9 0 -12 1t-3 8t2 9.5t12 9.5l34 22t31.5 20t24.5 15.5t12 7.5q9 5 18 5q6 0 7.5 -1.5
t1.5 -3.5q0 -5 -1 -10.5t-1 -10.5l-2 -29q35 14 76 27t82 13zM174 67q20 -8 52 -19t80 -11q29 0 51 7t39 24q29 28 37.5 63.5t8.5 59.5q0 35 -11 69.5t-32.5 62t-54 44.5t-74.5 17q-8 0 -31.5 -2t-61.5 -14q-1 -11 -1 -22t-1 -25q0 -21 -0.5 -56t-0.5 -72.5v-71.5v-54z" />
    <glyph glyph-name="q" unicode="q" horiz-adv-x="537" 
d="M298 431q35 0 66.5 -9t46.5 -14l9 6q5 4 14 9.5t20 5.5q5 0 5.5 -2.5t0.5 -7.5q0 -3 -0.5 -6.5t-1 -10t-1.5 -18.5t-2 -32q-1 -22 -1.5 -54t-1 -68.5t-0.5 -75.5v-75v-32.5t0.5 -53.5t0.5 -63t0.5 -62t1.5 -50t2 -26q3 -19 14 -24.5t32 -9.5q10 -1 10 -11q0 -9 -2.5 -12
t-10.5 -3q-27 0 -45 1t-39 1q-27 0 -58.5 -1t-48.5 -1q-7 0 -9 1.5t-2 7.5q0 8 2.5 9.5t12.5 3.5q24 3 37 9t19 17.5t8 31t3 50.5q0 11 0.5 37t1 55.5t1 55t0.5 35.5q-38 -22 -74.5 -37.5t-83.5 -15.5q-40 0 -73.5 15t-58 41.5t-38 62.5t-13.5 78q0 60 24.5 105t62.5 75.5
t83 46t86 15.5zM383 71q0 9 1 36t1.5 57t1 55.5t0.5 31.5q0 45 -6.5 64.5t-18.5 33.5q-17 20 -44 28.5t-53 8.5q-34 0 -61 -13t-45.5 -35.5t-28 -53t-9.5 -65.5q0 -30 8 -62t27 -58.5t49 -43.5t73 -17q35 0 58.5 9.5t46.5 23.5z" />
    <glyph glyph-name="r" unicode="r" horiz-adv-x="370" 
d="M323 432q7 0 15 -5.5t14.5 -13t11 -16.5t4.5 -16q0 -9 -5.5 -19t-12.5 -18.5t-13.5 -14t-9.5 -5.5q-2 0 -6.5 4.5l-7.5 7.5q-5 6 -15 14t-28 8q-13 0 -28.5 -4.5t-29 -11.5t-23 -14.5t-12.5 -12.5q-1 -3 -2 -15.5t-1.5 -28t-0.5 -32v-28.5q0 -66 2 -107t8 -55
q3 -6 6.5 -10t11.5 -6t22 -4t38 -5q6 -1 9 -2t3 -9q0 -10 -2.5 -12t-9.5 -2q-28 0 -54.5 1t-71.5 1q-20 0 -45.5 -1t-34.5 -1q-8 0 -9.5 2.5t-1.5 7.5q0 10 3.5 12t17.5 6q21 5 26 17.5t7 32.5q5 31 5.5 64.5t0.5 65.5v29t-1 39t-3 38t-5 25q-5 12 -20 14t-20 2
q-10 0 -10 10q0 8 2 10t11 7q6 4 17 10t23.5 13.5t24.5 15t21 13.5q11 7 13.5 8.5t7.5 1.5t10 -1t5 -8l-2 -30q-2 -23 -2 -36v-23q12 8 33 23t43.5 29t42 24.5t28.5 10.5z" />
    <glyph glyph-name="s" unicode="s" horiz-adv-x="389" 
d="M219 431q27 0 52 -4t32 -4q2 0 5.5 1t6.5 1q5 0 6 -2.5t2 -11.5q2 -23 4 -46.5t2 -36.5q0 -7 -2.5 -9t-12.5 -2q-5 0 -6.5 2t-4.5 10q-1 2 -6.5 13.5t-17.5 24.5t-31.5 23t-47.5 10q-23 0 -37.5 -7t-22.5 -17t-10.5 -21t-2.5 -19q0 -17 6 -29t20 -23t36.5 -22.5
t54.5 -26.5q16 -8 34.5 -18.5t35 -25.5t27.5 -35t11 -48q0 -44 -24 -68t-54.5 -35t-59 -13t-37.5 -2q-42 0 -73 6t-42 6q-10 0 -13.5 1t-3.5 9q0 5 1 20.5t1 23.5q0 4 -0.5 13.5t-1.5 20t-1.5 19.5t-0.5 11q0 4 3 6t12 2q4 0 5.5 -2.5t3.5 -13.5q6 -24 19 -41t30.5 -28
t37.5 -16.5t39 -5.5q23 0 39 6.5t26 16.5t14 23t4 25q0 35 -26 55t-67 39q-24 11 -46 23t-39 26.5t-27 34t-10 45.5q0 18 7 38t25 37.5t48.5 29t77.5 11.5z" />
    <glyph glyph-name="t" unicode="t" horiz-adv-x="352" 
d="M332 420q8 0 9 -3.5t1 -14.5q0 -17 -1.5 -22t-11.5 -5h-162q-2 -69 -4 -120t-2 -96q0 -23 1.5 -44t9 -36.5t25 -25t48.5 -9.5q30 0 50.5 7.5t32.5 13.5h8v-14q0 -8 -2.5 -10.5t-13.5 -8.5q-52 -28 -84 -34t-49 -6q-38 0 -58.5 13t-30 31.5t-11 38t-1.5 31.5l1 64l6 205
h-47q-4 0 -4 6t3 9t15 12q22 16 43 36t44 46q8 9 11 11.5t8 2.5q7 0 7 -5q0 -2 -0.5 -12t-1.5 -22t-1.5 -23t-0.5 -16h163z" />
    <glyph glyph-name="u" unicode="u" horiz-adv-x="574" 
d="M95 235v33t-0.5 34.5t-2 30.5t-3.5 21q-5 14 -16.5 17t-29.5 5q-6 0 -7.5 2t-1.5 7q0 8 2.5 10.5t13.5 5.5q5 1 22.5 6t38 10t37.5 9.5t21 4.5q5 0 6 -2t1 -4q0 -5 -1.5 -22.5t-3.5 -45.5q-2 -42 -3 -72.5t-1 -61.5q0 -33 1.5 -65t10.5 -56.5t29 -40t56 -15.5q22 0 45 5
t42.5 11.5t32 13.5t13.5 10q2 4 3 26t1.5 51t1 61t0.5 56q0 39 -1 61t-7 33t-19 14.5t-37 5.5q-14 1 -16.5 2.5t-2.5 7.5q0 9 3 11t18 2q6 0 18 0.5t25 1.5t24.5 2t17.5 2q4 0 10.5 1t13.5 2t13 2t7 1q8 0 8 -10t-1.5 -34t-1.5 -71q0 -13 -1 -38.5t-1.5 -53t-1.5 -53
t-1 -38.5q0 -52 5.5 -68.5t29.5 -16.5q8 0 20 1.5t29 3.5q7 1 7 -9q1 -5 -0.5 -8.5t-9.5 -5.5q-8 -3 -28 -9t-42.5 -12t-43 -10.5t-30.5 -4.5q-5 0 -9.5 2t-4.5 12q0 11 1.5 28t2.5 23q-62 -31 -104 -48t-82 -17q-26 0 -51.5 11t-42.5 33q-16 21 -19.5 41.5t-3.5 50.5z" />
    <glyph glyph-name="v" unicode="v" horiz-adv-x="444" 
d="M237 79q14 30 25.5 54.5t21.5 46t19.5 42t19.5 43.5q4 9 10 23.5t12 29.5t10 28.5t4 20.5q0 19 -12.5 23.5t-37.5 7.5q-6 1 -7.5 2.5t-1.5 9.5q0 6 1.5 8.5t7.5 2.5q11 0 32 -0.5t41 -0.5q23 0 40 0.5t30 0.5q4 0 4 -12q0 -4 -5.5 -8t-9.5 -6q-6 -3 -19.5 -24.5
t-31.5 -54t-38 -71.5t-39 -76t-34.5 -68.5t-24.5 -49.5q-11 -21 -14.5 -31t-5.5 -15t-4.5 -5.5t-11.5 -2.5q-5 -1 -12 -2.5t-12 -1.5q-4 0 -7 14q-4 13 -21 57.5t-50 120.5q-15 35 -29.5 67.5t-27.5 59.5t-23 46.5t-16 27.5q-4 5 -8 7.5t-10 6.5q-3 2 -4.5 4t-1.5 8
q0 10 10 10q20 0 37 -1t44 -1q24 0 47.5 1t35.5 1q7 0 8.5 -3.5t1.5 -10.5q0 -5 -2 -7.5t-10 -4.5q-25 -3 -34.5 -7t-9.5 -21q0 -8 3.5 -20.5t8 -26t9.5 -27t9 -22.5q7 -17 17 -40t21 -49t23 -53t22 -51z" />
    <glyph glyph-name="w" unicode="w" horiz-adv-x="685" 
d="M341 291q-5 12 -10.5 26t-11.5 27.5t-11 24.5t-8 16q-7 9 -13.5 11.5t-23.5 4.5q-7 1 -7 9q0 6 1.5 9.5t7.5 3.5q28 0 53 -0.5t42 -0.5h24t27 0.5t23 0.5h13q7 0 8 -2.5t1 -7.5q0 -8 -1 -10t-9 -4q-28 -3 -39 -7t-11 -22q0 -7 11 -44t26 -82.5t29.5 -89l21.5 -64.5
q10 21 22.5 47t25 52.5t23.5 51.5t19 44q3 7 7.5 18t9 23t7.5 24t3 21q0 19 -15.5 25t-35.5 6q-8 0 -10 1.5t-2 7.5q0 5 0.5 8.5t5.5 3.5q6 0 31 -0.5t56 -0.5h14.5t19 0.5t18 0.5h12.5q3 0 3.5 -3t0.5 -6q0 -7 -2 -9t-11 -7q-10 -5 -24 -25.5t-29 -46t-28.5 -52
t-22.5 -43.5q-6 -12 -20.5 -42t-30.5 -64t-30 -64t-18 -41q-5 -12 -7.5 -16t-7.5 -4q-5 -1 -11 -2t-14 -1q-3 0 -5.5 2.5t-6.5 16.5q-3 11 -9.5 33t-16.5 52.5t-22.5 68.5t-27.5 80q-28 -55 -45 -88.5t-29 -57.5t-21.5 -45.5t-23.5 -51.5q-2 -5 -3.5 -6t-4.5 -2
q-6 0 -14.5 -1.5t-14.5 -1.5q-2 0 -4 4t-7 19q-8 24 -21.5 59.5t-29 75.5t-32 80.5t-31.5 74.5t-27 57.5t-19 28.5q-3 2 -7.5 4.5t-6.5 4.5q-1 1 -1 4v6q0 9 10 9q20 0 38 -0.5t32 -0.5q28 0 51 0.5t46 0.5q2 0 3 -4t1 -7q0 -7 -1.5 -9t-8.5 -3q-21 -3 -33 -8t-12 -23
q0 -8 4 -22.5t9.5 -30.5t11 -31.5t9.5 -25.5q6 -16 12.5 -32.5t14.5 -36t18 -44.5l24 -60q5 9 18.5 36.5t29 60t30 63t21.5 45.5z" />
    <glyph glyph-name="x" unicode="x" horiz-adv-x="463" 
d="M198 205q-47 69 -74 107t-43 56.5t-25.5 23.5t-21.5 9q-5 1 -5 10q0 5 1 8t9 3q3 0 13 -0.5t21.5 -0.5t22 -0.5t14.5 -0.5q32 0 60.5 1t34.5 1q9 0 9 -9q0 -6 -1 -8.5t-8 -3.5q-17 -3 -25.5 -7t-8.5 -16q0 -6 4 -15t18 -31q16 -24 29.5 -44.5t24.5 -37.5q26 29 48.5 55
t33.5 41q9 12 12 18t3 13q0 12 -8.5 15t-30.5 6q-8 1 -8 10q0 6 1 10t9 4q4 0 14 -0.5t20.5 -0.5t20 -0.5t13.5 -0.5t14 0.5t21.5 0.5t21 0.5t13.5 0.5q8 0 8 -11q0 -6 -3 -8.5t-13 -7.5q-8 -4 -20 -13.5t-23.5 -20t-22 -20.5t-15.5 -15q-23 -25 -50 -53t-43 -46
q7 -10 26.5 -39.5t43 -62.5t45.5 -60.5t34 -33.5q5 -3 12 -4t24 -3q6 -1 7 -3.5t1 -7.5q0 -9 -2 -11.5t-12 -2.5q-17 0 -46.5 1t-51.5 1q-11 0 -24.5 -0.5t-26.5 -0.5t-22.5 -0.5t-12.5 -0.5q-5 0 -6 3.5t-1 6.5q0 8 2 9.5t8 2.5q21 2 30.5 4.5t9.5 13.5q0 6 -11 25.5
t-26 42.5t-29.5 44t-20.5 30q-24 -27 -40 -47t-26 -32q-12 -15 -22 -30t-10 -28q0 -12 8.5 -16.5t32.5 -5.5q11 -1 11 -11q0 -9 -3 -10.5t-11 -1.5q-20 0 -40.5 1t-40.5 1q-17 0 -33 -1t-33 -1q-7 0 -9 1.5t-2 7.5q0 10 2 12.5t13 4.5q6 1 10.5 2.5t10 5.5t13.5 11.5
t20 20.5q37 37 68 70.5t65 69.5z" />
    <glyph glyph-name="y" unicode="y" horiz-adv-x="444" 
d="M231 81q31 65 49.5 103t29.5 61t16.5 35t10.5 24q6 14 13.5 32t7.5 32q0 18 -9 22t-37 8q-8 1 -8 11q0 8 1.5 10.5t8.5 2.5q10 0 26 -1t46 -1q12 0 30.5 1t26.5 1t11.5 -1t3.5 -7q0 -5 -1 -8.5t-7 -7.5q-7 -4 -16.5 -14.5t-18.5 -24.5t-17.5 -29t-15.5 -27
q-24 -42 -53.5 -96.5t-61 -116t-63.5 -128t-60 -132.5q-14 -33 -23 -53t-19.5 -30.5t-24.5 -13.5t-38 -3q-16 0 -22.5 3t-6.5 16q0 14 4 18t17 10q26 13 43.5 34t30.5 38q10 15 23.5 37t25.5 43.5t20 38t8 19.5q-31 96 -59 176q-17 49 -28 79t-22.5 58t-22.5 50.5t-19 33.5
q-5 6 -8.5 9t-14.5 8q-3 2 -3 8t1 9.5t7 3.5q5 0 18 -0.5t27 -0.5t26.5 -0.5t17.5 -0.5t16 0.5t24 0.5t24 0.5t15 0.5q7 -1 9.5 -2.5t2.5 -9.5q0 -7 -1.5 -9.5t-9.5 -3.5q-17 -2 -30.5 -6.5t-13.5 -21.5q0 -12 8.5 -43t22 -72t30 -86.5t32.5 -86.5z" />
    <glyph glyph-name="z" unicode="z" horiz-adv-x="444" 
d="M63 360q5 23 6.5 37.5t3.5 25.5q0 6 7 6q4 0 8.5 -1.5t14.5 -3.5t26.5 -4t45.5 -2h83t63 1t56 2t33 1t12 -1.5t5 -9.5q0 -3 -5.5 -9t-18.5 -20.5t-35.5 -41t-56.5 -70.5q-26 -33 -47 -60.5t-41 -55.5t-41.5 -58.5t-47.5 -68.5q78 3 124 6t73.5 12t42 27.5t28.5 51.5
q4 8 9 8q3 0 10 -2t7 -8q0 -8 -4.5 -24.5t-10.5 -34t-11.5 -33t-7.5 -20.5q-5 -14 -10 -14q-2 0 -10.5 2t-11.5 3q-15 1 -32 1.5t-49 0.5q-35 0 -70 -0.5t-70 -1.5q-6 0 -22 -0.5t-33.5 -1t-32.5 -1t-19 -0.5q-6 0 -9 1t-3 6q0 6 1.5 9t12.5 15q15 17 30.5 35t34 40.5
t41.5 51t52 67.5q32 43 63.5 85t61.5 86q-77 -3 -118 -5.5t-64 -8.5q-25 -8 -37.5 -28t-24.5 -46q-5 -11 -9 -11q-3 0 -10 2t-6 6z" />
    <glyph glyph-name="braceleft" unicode="{" horiz-adv-x="315" 
d="M204 418q0 -33 -4 -61.5t-16.5 -51.5t-35.5 -40t-61 -27q68 -19 93 -59.5t25 -114.5q0 -9 -0.5 -29t-1 -42t-1 -42t-0.5 -27q0 -35 3 -59.5t12 -40.5t26 -24t45 -11q9 -1 11 -2.5t2 -9.5t-1.5 -9.5t-6.5 -1.5q-13 0 -30 1.5t-34 6t-33 12.5t-28 20q-19 20 -26.5 52
t-7.5 75q0 8 0.5 26.5t0.5 39.5t0.5 39t0.5 25q0 35 -2.5 63t-14 48.5t-34.5 33.5t-64 17q-6 1 -7 3.5t-1 10.5q0 10 3.5 11.5t18.5 2.5q5 0 16 2t24.5 7t26.5 15.5t21 27.5q9 17 11 42.5t2 58.5q0 9 -0.5 30t-0.5 44.5t-0.5 44.5t-0.5 29q0 28 4 56t20 50.5t48 36.5t87 14
q4 0 5.5 -2t1.5 -10q0 -6 -1.5 -7t-8.5 -2q-33 -4 -50.5 -13.5t-25.5 -26t-9.5 -40.5t-1.5 -57z" />
    <glyph glyph-name="bar" unicode="|" horiz-adv-x="475" 
d="M265 750v-1000h-54v1000h54z" />
    <glyph glyph-name="braceright" unicode="}" horiz-adv-x="315" 
d="M227 238q-37 10 -60 27t-36 40t-17 51.5t-4 61.5q0 11 0.5 37t0.5 55.5v55v35.5q-1 14 -3 28.5t-10.5 27t-25.5 21.5t-47 12q-7 1 -8.5 2t-1.5 7q0 8 1 10t5 2q56 0 87.5 -14t47.5 -36.5t20 -50.5t4 -56q0 -9 -0.5 -29.5t-0.5 -44t-0.5 -44t-0.5 -28.5q0 -27 1.5 -52.5
t9.5 -46t26.5 -35t51.5 -20.5q4 -1 17.5 -1.5t15.5 -3.5q1 -2 1 -5v-5q0 -8 -1 -10.5t-6 -3.5q-40 -4 -63.5 -16.5t-35 -33t-14.5 -48.5t-3 -63q0 -8 0.5 -27t1 -40t1 -40t0.5 -26q0 -30 -4 -59.5t-20 -53t-48 -38t-87 -14.5q-5 0 -7 1.5t-2 9.5t2.5 9.5t11.5 2.5
q26 3 42.5 10.5t26 22.5t13 38.5t3.5 58.5q0 9 -0.5 29.5t-0.5 43.5t-0.5 43.5t-0.5 28.5q0 36 5.5 64t19 49t36 36t56.5 25z" />
    <glyph glyph-name="asciitilde" unicode="~" horiz-adv-x="634" 
d="M516 688q-9 -16 -23 -32.5t-30.5 -29.5t-36 -21.5t-39.5 -8.5q-6 0 -12.5 1t-17 4t-28.5 8.5t-48 15.5q-17 5 -32.5 8t-31.5 3q-29 0 -46.5 -14.5t-38.5 -39.5l-14 9q10 17 23.5 33.5t30 30t36 21.5t41.5 8q19 0 40.5 -6.5t44.5 -14.5q22 -8 40 -12.5t35 -4.5q29 0 52 14
t41 37z" />
    <glyph glyph-name="exclamdown" unicode="&#xa1;" horiz-adv-x="333" 
d="M116 -177q0 18 1 34t3 37.5t5.5 53.5t9.5 81q2 17 5 44t6 58t5 62.5t2 57.5q0 6 2 8t10 4q10 2 13.5 1t4.5 -6q3 -92 6.5 -143.5t7.5 -83.5q6 -65 9.5 -100.5t5 -55t2 -28t0.5 -19.5q0 -29 -4 -39t-18 -14t-23 -5.5t-22 -1.5q-11 0 -17.5 5t-9.5 13.5t-3.5 18t-0.5 18.5z
M221 376q0 -20 -17.5 -37.5t-36.5 -17.5q-20 0 -37.5 18t-17.5 36q0 9 5 19t12.5 18t17.5 13.5t20 5.5q9 0 18.5 -5t17.5 -13t13 -17.5t5 -19.5z" />
    <glyph glyph-name="cent" unicode="&#xa2;" 
d="M94 297q0 51 17 91.5t43.5 70.5t58.5 49t62 27v18v25t-0.5 24.5t-0.5 17.5q0 4 2 4.5t10 0.5q14 0 17 -0.5t3 -4.5t-0.5 -16t-0.5 -24.5v-24v-15.5q5 0 12 0.5t17 0.5q20 0 40.5 -3t37 -9t27 -15.5t10.5 -22.5q0 -9 -5.5 -16.5t-13 -13t-15 -8.5t-11.5 -3t-12 4.5t-20 11
t-28.5 12.5t-39.5 9q0 -35 -0.5 -63t-0.5 -62.5t0.5 -83t1.5 -126.5q39 -2 72.5 10t53.5 29h6q6 -7 7.5 -9t1.5 -4q0 -3 -11 -14t-30 -23t-44.5 -23t-55.5 -16q0 -6 0.5 -19.5t0.5 -29t0.5 -29t0.5 -18.5q0 -4 -2 -4.5t-12 -0.5h-14q-5 0 -5 4q0 6 0.5 19.5t0.5 28.5
t0.5 28.5t0.5 18.5q-44 0 -78 15t-57 42t-35 63t-12 77zM276 157q0 23 0.5 43.5t0.5 54t-0.5 88.5t-0.5 146q-12 -1 -29 -4t-34 -20q-22 -23 -31.5 -58t-9.5 -73q0 -26 5 -53.5t17 -52t32 -43.5t50 -28z" />
    <glyph glyph-name="sterling" unicode="&#xa3;" 
d="M44 269q-2 0 -2 10.5v19.5q0 10 5 10h86q-8 23 -15.5 54t-7.5 67q0 47 20.5 87t52 69.5t71 46t76.5 16.5q24 0 46 -6.5t38.5 -18t26.5 -28t10 -37.5q0 -17 -9 -31t-38 -14q-20 0 -25 9.5t-9 29.5q-3 13 -20 26t-55 13q-51 0 -80.5 -29.5t-29.5 -86.5q0 -23 6.5 -64.5
t26.5 -103.5q23 1 55 1h55q7 0 7 -4v-20q0 -11 -0.5 -14t-3.5 -3l-103 1q5 -14 10 -32.5t5 -44.5q0 -39 -13 -63.5t-25 -39.5q12 -2 20.5 -3.5t19 -4.5t26 -8t40.5 -14q41 -14 61.5 -17.5t33.5 -3.5q15 0 25 4.5t15.5 10.5t7.5 12.5t2 11.5q0 10 -4 16t-8.5 10.5t-8.5 9
t-4 11.5q0 13 11.5 23.5t25.5 10.5t25.5 -13.5t11.5 -37.5q0 -18 -9 -41t-28 -42.5t-47 -33t-67 -13.5q-29 0 -54 6t-51 15q-5 1 -17 5.5t-25.5 9.5t-25 9.5t-16.5 5.5q-29 -32 -61 -32q-23 0 -27.5 11.5t-4.5 19.5q0 23 23 43.5t71 20.5q5 11 9 24t4 32q0 27 -10.5 60
t-21.5 62h-103z" />
    <glyph glyph-name="currency" unicode="&#xa4;" 
d="M276 398q3 5 9.5 20t14 30.5t13.5 28.5t7 14q2 5 5 11t4 6t6 -2t11 -5t10.5 -5.5t4.5 -3.5l-6.5 -14t-14.5 -31.5t-15 -32t-8 -16.5h143q2 -1 2 -4.5v-17.5v-17.5t-2 -3.5h-163q-2 -4 -7 -15t-10.5 -23t-10.5 -22.5t-7 -14.5h198q2 0 2 -4v-18v-17.5t-2 -3.5h-218
q-1 -3 -7.5 -17.5t-14.5 -31.5t-15.5 -32.5t-9.5 -20.5l-3.5 -7t-1.5 -1t-6 2t-11 4.5t-10.5 5.5t-4.5 4l43 94h-142q-2 0 -2.5 11.5t-0.5 20.5q1 8 1.5 9.5t3.5 1.5h161q2 5 7 15.5t10 22.5t10 22.5t7 14.5h-36.5h-67h-64.5h-29q-2 0 -2.5 11t-0.5 21q1 8 1.5 9.5t3.5 1.5
h215z" />
    <glyph glyph-name="yen" unicode="&#xa5;" 
d="M454 397q5 0 5 -8v-20q0 -8 -6 -8h-116q-10 -18 -16 -29.5t-10.5 -19t-7.5 -13.5t-8 -14h158q6 0 6 -8v-21q0 -7 -5 -7h-163q0 -69 0.5 -118.5t4.5 -66.5q3 -14 14.5 -25t52.5 -16q11 -1 14 -2.5t3 -7.5q0 -11 -2.5 -13t-7.5 -2q-3 0 -10 0.5t-21.5 1t-39.5 1t-66 0.5
q-38 0 -60.5 -1.5t-31.5 -1.5q-7 0 -9 2.5t-2 12.5q0 6 2.5 8t13.5 3q25 2 38.5 9t20.5 16.5t8.5 19t1.5 15.5q1 16 2 39t1.5 46.5t0.5 45v34.5h-167q-5 0 -5 11v18q0 5 2 6t7 1h151q-3 4 -8.5 15t-12 23t-12 23l-7.5 15h-115q-5 0 -5 11v20q0 5 14 5h89q-36 67 -57.5 107
t-36.5 62.5t-26.5 32t-26.5 15.5l-3.5 3.5t-1.5 8.5q0 5 1.5 7t7.5 2q30 0 60.5 -0.5t60.5 -0.5q20 0 40 0.5t40 0.5q7 -1 7 -9t-2 -11t-13 -3q-6 0 -15 -0.5t-16.5 -2.5t-13 -7t-5.5 -14t11.5 -38.5t30 -68.5t41.5 -82.5t45 -80.5q11 20 23 44l24 48t22 45t16 35
q8 18 16.5 42.5t8.5 41.5q0 20 -17.5 29t-43.5 10q-11 1 -13.5 3t-2.5 7q0 8 1.5 10t9.5 2q29 0 59 -0.5t59 -0.5q19 0 37 0.5t37 0.5q8 0 10 -1.5t2 -7.5q0 -7 -1.5 -8.5t-11.5 -5.5q-18 -7 -33.5 -22t-33.5 -41t-39.5 -63.5t-50.5 -88.5h98z" />
    <glyph glyph-name="brokenbar" unicode="&#xa6;" horiz-adv-x="475" 
d="M265 675v-350h-54v350h54zM265 175v-350h-54v350h54z" />
    <glyph glyph-name="section" unicode="&#xa7;" 
d="M370 46q23 -20 36 -48t13 -59q0 -34 -16 -69t-46 -63.5t-71.5 -46.5t-92.5 -18q-23 0 -44 4.5t-37 12.5t-25.5 18.5t-9.5 22.5q0 8 4.5 16t10.5 14t12.5 9.5t10.5 3.5q6 0 16.5 -6.5t26 -14t36.5 -14t48 -6.5q55 0 85.5 26.5t30.5 68.5q0 26 -9.5 45t-27 35t-41.5 31
t-54 31q-28 15 -55 31.5t-48 36t-33.5 44.5t-12.5 57q0 27 10.5 49t24 39.5t28 29.5t21.5 18l-13.5 13.5t-16.5 21.5t-14 30t-6 39q0 33 14 68t40 63.5t64 47t87 18.5q24 0 45 -5t37 -13.5t25 -19.5t9 -23q0 -14 -16 -28t-30 -14q-6 0 -11.5 6.5t-16 14.5t-28.5 14.5
t-48 6.5q-16 0 -36.5 -3t-38 -12t-29.5 -26t-12 -45q0 -22 7.5 -40t25.5 -35.5t47.5 -36.5t73.5 -45q23 -13 46.5 -27.5t42.5 -33.5t31 -42.5t12 -55.5q0 -44 -22 -77t-60 -59zM185 326q-17 -15 -29 -33.5t-12 -47.5q0 -21 7 -37t17.5 -29t23 -22.5t24.5 -17.5
q7 -4 25.5 -15t39.5 -23t40 -22.5t26 -15.5q26 23 32.5 47t6.5 35q0 25 -13 49.5t-47 50.5q-7 5 -27 16.5t-42.5 24t-43 24t-28.5 16.5z" />
    <glyph glyph-name="dieresis" unicode="&#xa8;" horiz-adv-x="500" 
d="M202 547q0 -19 -15 -31t-29 -12t-29 12t-15 31t15 31t29 12q15 0 29.5 -12.5t14.5 -30.5zM386 547q0 -19 -15 -31t-29 -12t-29 12t-15 31t15 31t29 12q15 0 29.5 -12.5t14.5 -30.5z" />
    <glyph glyph-name="copyright" unicode="&#xa9;" horiz-adv-x="759" 
d="M380 -6q-67 0 -126 25t-103 68t-69.5 102t-25.5 126q0 68 26 126.5t70.5 102t103 68t124.5 24.5t125 -25t103.5 -68.5t70 -102t25.5 -125.5q0 -66 -25.5 -124.5t-69 -102t-102.5 -69t-127 -25.5zM380 29q61 0 113 23t89.5 62t58.5 91t21 110t-22.5 110t-61 91t-89.5 62
t-109 23t-109 -23t-89.5 -62t-61 -91t-22.5 -110t21 -110t58.5 -91t89.5 -62t113 -23zM401 513q43 0 70.5 -4.5t35.5 -4.5q5 0 9 1t10 1t4.5 -10t-5.5 -36q-2 -12 -3 -24.5t-1 -20.5t-18 -8q-9 0 -13.5 3t-4.5 14q0 9 -2.5 19.5t-11.5 19.5t-27 15t-49 6q-28 0 -52.5 -8
t-43 -26.5t-29 -49.5t-10.5 -76q0 -82 35 -124.5t103 -42.5q27 0 55 7.5t38 24.5q11 19 26 19q14 0 14 -7q0 -6 -6.5 -22.5t-10.5 -27.5q-2 -5 -6 -8.5t-24 -8.5q-21 -4 -43.5 -5t-43.5 -1q-115 0 -166 50.5t-51 137.5q0 29 9 63.5t33.5 64t67.5 49.5t111 20z" />
    <glyph glyph-name="ordfeminine" unicode="&#xaa;" 
d="M439 393v-14q0 -12 -4.5 -16.5t-23.5 -13.5q-17 -8 -37 -14.5t-37 -6.5q-25 0 -32 12.5t-9 19.5q-25 -11 -55 -21.5t-59 -10.5q-5 0 -13.5 1t-17.5 4.5t-17.5 10t-14.5 16.5q-8 16 -8 40q0 35 13 46t40 21q31 11 67 17t66 10q1 29 1 49t-5 33t-16 18.5t-32 5.5
q-4 0 -12.5 -1t-17.5 -2.5t-16 -4.5t-7 -7q0 -2 0.5 -10.5t-0.5 -10.5q-1 -4 -9.5 -8t-18 -6t-18 -3.5t-9.5 -1.5q-2 0 -8 2t-6 10q0 12 13.5 27.5t35 29t49.5 22.5t56 9q33 0 51.5 -10.5t26.5 -25t9.5 -30t1.5 -25.5q0 -8 -0.5 -28t-1.5 -42t-1.5 -41.5t-0.5 -26.5
q0 -17 4 -28t18 -11q13 0 26.5 7t20.5 12zM296 451q0 6 -2.5 10t-14.5 4q-16 0 -33 -5t-31 -11q-24 -10 -28 -17t-4 -15q0 -30 12 -37.5t31 -7.5q6 0 19.5 1.5t33.5 9.5q6 3 9.5 5.5t5 9.5t2 19t0.5 34z" />
    <glyph glyph-name="guillemotleft" unicode="&#xab;" horiz-adv-x="463" 
d="M211 215q0 5 11 15q41 37 63.5 58t39 37t32 31.5l40.5 40.5q3 3 4 3q2 0 9.5 -4t7.5 -7q0 -2 -10 -17.5t-24.5 -36t-30.5 -42t-28 -36.5q-8 -10 -18 -23.5t-10 -15.5t6 -10.5t11 -14.5q15 -18 32.5 -42t32.5 -46t25 -37.5t10 -17.5q0 -4 -8.5 -8t-9.5 -4t-12.5 11t-26 25
t-28.5 27.5t-19 18.5q-24 22 -38 35t-22 20.5t-12.5 11.5t-9.5 8l-12 12t-5 8zM59 197q-11 10 -13 12t-2 6t3 7t9 8q36 33 57.5 53t38 36t32 31t37.5 38l10 10t4 2q1 0 9 -4t8 -7q0 -2 -10 -17.5t-24.5 -35.5t-30.5 -42t-28 -37q-8 -10 -18.5 -23.5t-10.5 -15.5t5.5 -9.5
t13 -17t14 -18t9.5 -11.5q8 -11 21 -29.5t25 -36.5t20.5 -31t8.5 -15q0 -3 -8 -7.5t-9 -4.5t-13 11t-26.5 25t-28.5 27.5t-19 18.5z" />
    <glyph glyph-name="logicalnot" unicode="&#xac;" 
d="M370 359h-315v40h408v-253h-93v213z" />
    <glyph glyph-name="registered" unicode="&#xae;" horiz-adv-x="759" 
d="M380 -6q-67 0 -126 25t-103 68t-69.5 102t-25.5 126q0 68 26 126.5t70.5 102t103 68t124.5 24.5t125 -25t103.5 -68.5t70 -102t25.5 -125.5q0 -66 -25.5 -124.5t-69 -102t-102.5 -69t-127 -25.5zM380 29q61 0 113 23t89.5 62t58.5 91t21 110t-22.5 110t-61 91t-89.5 62
t-109 23t-109 -23t-89.5 -62t-61 -91t-22.5 -110t21 -110t58.5 -91t89.5 -62t113 -23zM227 468q0 11 -7 17t-15 6q-3 0 -3.5 2t-0.5 4q0 5 1 6.5t7 1.5q7 0 32 1t75 1q30 0 61.5 -0.5t58 -9.5t44 -30t19.5 -61q1 -28 -19 -54t-60 -42q3 -6 13.5 -26.5t26.5 -45t35.5 -47.5
t40.5 -33q8 -4 17 -4h14t5.5 -4t0.5 -9q0 -4 -5 -7t-25 -3q-34 0 -60 12.5t-47 34.5t-39.5 52.5t-37.5 66.5q-10 -1 -26 -2t-39 0v-24.5t0.5 -37t1 -37t1.5 -23.5q2 -11 9 -13.5t33 -5.5q5 -1 8.5 -2.5t3.5 -10.5q0 -7 -5 -7q-17 0 -39.5 0.5t-36.5 0.5t-33 -0.5t-27 -0.5
q-6 -1 -10 0t-4 7q0 5 1 8.5t7 5.5q14 4 18.5 11t4.5 34v268zM296 330q7 -2 14.5 -3.5t21.5 -1.5q47 0 69 19.5t22 54.5t-16 58t-66 23q-32 0 -38.5 -10.5t-6.5 -23.5v-116z" />
    <glyph glyph-name="macron" unicode="&#xaf;" horiz-adv-x="500" 
d="M381 574q7 0 8.5 -0.5t1.5 -5.5v-36q1 -5 -0.5 -5.5t-9.5 -0.5h-253q-14 0 -17 0.5t-3 5.5v33.5t1 7.5l20 0.5t45 0.5h47.5h28.5h131z" />
    <glyph glyph-name="degree" unicode="&#xb0;" 
d="M259 389q-28 0 -52 10t-41.5 27t-27 40t-9.5 50t10 50.5t27 40.5t41 27t52 10q29 0 53 -10t41.5 -27.5t27 -40.5t9.5 -50q0 -26 -9.5 -49t-26.5 -40.5t-41.5 -27.5t-53.5 -10zM259 429q32 0 56.5 23.5t24.5 63.5q0 39 -24 63.5t-57 24.5q-32 0 -56 -24.5t-24 -63.5
t24 -63t56 -24z" />
    <glyph glyph-name="plusminus" unicode="&#xb1;" 
d="M238 340v175q0 5 12 5h27q6 0 6 -5v-175h175q3 0 4 -2.5t1 -11.5v-17v-9.5t-5 -4.5h-175v-176q0 -4 -6.5 -4.5t-32.5 -0.5q-6 0 -6 11v170h-177q-4 0 -4 21q0 14 1 19t4 5h176zM450 63q3 0 7 -0.5t4 -5.5q0 -28 -0.5 -34t-4.5 -6h-398q-3 1 -3 32q0 10 2 12t5 2h388z" />
    <glyph glyph-name="twosuperior" unicode="&#xb2;" horiz-adv-x="333" 
d="M135 255q-6 0 -21.5 -0.5t-33 -0.5t-32.5 -0.5t-21 -0.5q-8 1 -9 4t-1 10q0 2 2.5 4.5t10.5 11.5q3 3 14.5 14t28 28t35.5 38.5t38 44.5q24 29 36.5 50t18.5 35.5t7 24t1 15.5q0 31 -18.5 47.5t-50.5 16.5q-18 0 -39.5 -9.5t-29.5 -28.5q-3 -6 -5.5 -12t-8.5 -6
q-3 0 -10 4t-7 9q0 4 8 18t24.5 29t41 27t57.5 12q48 0 78 -28.5t30 -70.5q0 -26 -10 -49t-32.5 -49t-58 -59t-87.5 -78q10 0 35.5 -0.5t54 0t52.5 2.5t30 7t10.5 16.5t10.5 28.5q2 6 4.5 7t4.5 1q3 0 8 -1.5t5 -6.5q0 -2 -3 -13.5t-6.5 -25.5t-7 -26.5t-4.5 -16.5
q-5 -17 -8 -20.5t-17 -3.5z" />
    <glyph glyph-name="threesuperior" unicode="&#xb3;" horiz-adv-x="333" 
d="M189 483q51 4 80.5 -25.5t29.5 -71.5q0 -32 -16 -57.5t-41 -43.5t-56.5 -27.5t-62.5 -9.5q-30 0 -48.5 7t-29 16t-14.5 18.5t-4 14.5q0 14 12.5 20.5t19.5 6.5q9 0 13 -4.5t8 -12.5q6 -12 15.5 -19.5t19 -11t18.5 -4.5t15 -1q23 0 38.5 9.5t25 23.5t13.5 29.5t4 28.5
q0 35 -20.5 57t-55.5 22q-23 0 -35.5 -7.5t-17.5 -7.5q-6 0 -8.5 6.5t-2.5 8.5q0 4 3.5 6t18.5 9q52 24 69.5 42.5t17.5 42.5t-15 37t-38 13q-25 0 -45 -11t-24 -19q-2 -5 -4 -8.5t-7 -3.5q-4 0 -10.5 3.5t-6.5 8.5q0 3 9 14.5t26 24.5t41 23t53 10q45 0 67 -22.5t22 -48.5
q0 -22 -18.5 -46.5t-58.5 -39.5z" />
    <glyph glyph-name="acute" unicode="&#xb4;" horiz-adv-x="500" 
d="M311 651q6 0 20.5 -2.5t26.5 -5.5q10 -2 12.5 -5.5t2.5 -6.5q0 -7 -4.5 -11.5t-23.5 -18.5q-13 -10 -30 -23t-34.5 -26.5t-34 -26t-30.5 -22.5q-13 -9 -18 -9q-1 0 -7.5 1t-6.5 4l7.5 10l16.5 22t17.5 23.5t10.5 14.5q11 14 18 23.5t13 17t11 14.5t12 15q6 8 10 10t11 2z
" />
    <glyph glyph-name="mu" unicode="&#xb5;" horiz-adv-x="574" 
d="M556 52q3 0 4 -2.5t1 -13.5q0 -3 -2.5 -4.5t-13.5 -5.5q-6 -2 -24.5 -7.5t-40.5 -11.5t-42.5 -10.5t-30.5 -4.5q-5 0 -9.5 2t-4.5 12q0 2 0.5 9t1 15t1.5 16t1 11q-54 -27 -99 -46t-84 -19q-37 0 -52 11t-26 27q4 -26 7.5 -61t6.5 -70t5 -64t2 -43q0 -32 -3.5 -41.5
t-14.5 -14.5q-8 -3 -16.5 -4.5t-13.5 -1.5q-17 0 -20.5 15.5t-3.5 37.5q0 16 1.5 56.5t3.5 84.5t3.5 83t1.5 54v48.5v73v72v46.5q-1 20 -2 34t-5.5 22.5t-14 13t-26.5 4.5q-9 1 -11 2.5t-2 7.5q0 8 2.5 10.5t13.5 5.5q5 1 22.5 6t38 10t37.5 9.5t21 4.5q5 0 6 -2t1 -4
t-0.5 -11.5t-1.5 -20.5t-2 -21.5t-1 -14.5q-2 -42 -3 -72.5t-1 -61.5q0 -33 1.5 -65t10.5 -56.5t29 -40t56 -15.5q22 0 45 5t42.5 11.5t32 13.5t13.5 10q2 4 3 32t1.5 61t1 63t0.5 38q0 39 -1 61t-7 33t-19 14.5t-37 5.5q-14 1 -16.5 2.5t-2.5 7.5q0 9 4 11t17 2
q3 0 12.5 0.5t22 1t27 2t27.5 2.5q2 0 8 1t12.5 2t12.5 2t7 1q8 0 8 -13q0 -17 -1.5 -39.5t-1.5 -62.5q0 -11 -1 -36.5t-1.5 -53.5t-1.5 -54t-1 -39q0 -52 5.5 -68.5t29.5 -16.5q8 0 18.5 1t20.5 3z" />
    <glyph glyph-name="paragraph" unicode="&#xb6;" horiz-adv-x="685" 
d="M544 687q0 -9 -0.5 -17t-1 -19.5t-1 -29.5t-0.5 -48q38 0 58.5 1.5t29.5 6t10.5 11.5t1.5 19q0 9 5.5 19t20.5 10q10 0 22 -6.5t12 -23.5q0 -22 -11 -33.5t-31.5 -17.5t-50 -7t-67.5 -2q0 -28 -0.5 -48t-0.5 -43.5v-56.5v-87q0 -33 0.5 -74.5t1 -84.5t1 -85t0.5 -75
q0 -42 -1 -69t-3 -44.5t-4 -28t-4 -17.5q-10 -35 -33.5 -58t-58.5 -23q-27 0 -45 14.5t-18 37.5q0 19 13.5 32t30.5 13q14 0 23.5 -7t23.5 -7q13 0 20.5 6t12 15t6 18.5t2.5 16.5q2 24 3 61.5t1 92.5q-24 -1 -47.5 -2t-43 -1.5t-33 -1t-18.5 -0.5q-71 0 -128.5 19.5t-98 55
t-62.5 86.5t-22 114q0 54 17 101.5t52 82.5t88.5 55.5t127.5 20.5q18 0 39.5 -0.5t44.5 -1.5t44.5 -2t39.5 -2q0 26 -1 57t-3 57h36zM511 72q0 60 -0.5 103t-0.5 78v65v63.5t0.5 73.5t0.5 95q-22 1 -43.5 1t-35.5 -1t-32.5 -4.5t-23.5 -21.5q-2 -6 -3 -35.5t-1.5 -64.5
t-0.5 -67.5v-45.5v-45.5v-49.5t0.5 -44.5t0.5 -31.5q2 -26 5 -41t18 -20q8 -3 23 -4.5t32.5 -2t34 -0.5h26.5z" />
    <glyph glyph-name="periodcentered" unicode="&#xb7;" horiz-adv-x="222" 
d="M57 210q0 20 17.5 37t35.5 17q21 0 38 -17.5t17 -35.5q0 -8 -4.5 -17.5t-12 -17.5t-17 -13.5t-20.5 -5.5q-19 0 -36.5 17t-17.5 36z" />
    <glyph glyph-name="cedilla" unicode="&#xb8;" horiz-adv-x="500" 
d="M317 12q-23 -34 -30 -45t-7 -16q0 -9 17 -18q22 -13 34.5 -27.5t12.5 -34.5q0 -12 -7 -27t-20 -27.5t-30.5 -21.5t-38.5 -9q-22 0 -37.5 9t-15.5 23q0 8 6 15.5t14 7.5q5 0 9.5 -2t20.5 -10q8 -5 14.5 -5.5t11.5 -0.5q11 0 17 3.5t9 8t3.5 8.5t0.5 5q0 17 -14 28.5
t-26 17.5q-21 11 -26.5 15t-5.5 10q0 5 2 8.5t12 15.5q3 4 11 14t16.5 21t16.5 20.5t11 13.5h19z" />
    <glyph glyph-name="onesuperior" unicode="&#xb9;" horiz-adv-x="333" 
d="M147 451v31.5v32t-0.5 27.5t-1.5 18q0 7 -2 11.5t-10 4.5q-3 0 -11 -2t-16.5 -4t-15.5 -4t-8 -2q-5 0 -5.5 2t-0.5 8q0 8 3.5 10t19.5 9q20 8 35 16.5t30 17.5q18 11 25.5 13.5t15.5 -0.5q9 -4 9 -8q0 -8 -1.5 -18t-1.5 -18q-1 -16 -1.5 -37l-1 -42t-0.5 -40.5v-33.5v-32
t0.5 -46t2 -44t3.5 -26q4 -11 16 -14t43 -5q8 -1 9.5 -2t1.5 -9t-2.5 -9.5t-8.5 -1.5h-14.5t-24 0.5t-29 0.5h-29.5h-24.5t-30.5 -0.5t-27.5 -0.5h-15.5q-8 0 -8 8q0 9 4.5 10.5t21.5 3.5q32 3 39 14t9 33q1 11 1.5 29.5t1 37.5t0.5 36v25z" />
    <glyph glyph-name="ordmasculine" unicode="&#xba;" 
d="M84 482q0 42 16.5 73t43 51t60 29.5t66.5 9.5q43 0 74 -14t51 -35.5t29.5 -49t9.5 -54.5q0 -34 -13.5 -64t-38 -52t-58.5 -35t-75 -13q-40 0 -71 12.5t-52 34t-31.5 49.5t-10.5 58zM158 506q0 -37 11 -64.5t28 -45.5t37 -27t38 -9q41 0 65 31t24 79q0 30 -10 56.5
t-26 45.5t-36.5 30t-41.5 11q-16 0 -32 -6.5t-28.5 -20t-20.5 -33.5t-8 -47z" />
    <glyph glyph-name="guillemotright" unicode="&#xbb;" horiz-adv-x="463" 
d="M418 224q0 -4 -2 -7t-13 -12q-40 -37 -63.5 -58.5t-36 -33.5t-19 -18.5t-12.5 -13.5l-9 -9l-14.5 -14.5t-13.5 -13t-7 -5.5t-9 3.5t-8 7.5q0 2 9.5 16.5t24 34.5t30.5 42t29 38q2 2 6.5 8t9.5 13t9 12t4 6q0 2 -5 9.5t-12 16t-13.5 16.5t-8.5 11q-8 11 -21.5 30t-26 37.5
t-22 32.5t-9.5 16q0 3 8.5 7t9.5 4t13 -11t26.5 -25t28.5 -27t19 -18q23 -22 37 -35t22.5 -20.5t13 -11.5t8.5 -8l11 -11t6 -9zM233 245q8 -8 13.5 -13t5.5 -8q0 -5 -11 -16q-35 -32 -57 -52t-38 -35t-31 -30t-36 -37q-3 -3 -9.5 -9t-8.5 -6q-1 0 -8.5 3.5t-7.5 7.5
q0 2 10 17t24.5 35.5t30.5 42t28 36.5q8 11 18 24.5t10 15.5t-5 9t-12 15.5t-13.5 16.5t-8.5 11q-9 12 -22.5 31t-25.5 37.5t-21 32t-9 15.5q0 3 8 7t10 4q1 0 12.5 -11t26 -25t28.5 -27t19 -18z" />
    <glyph glyph-name="onequarter" unicode="&#xbc;" horiz-adv-x="759" 
d="M431 107q-9 0 -10.5 2t-1.5 10q0 12 1 16t8 12q53 60 105 119t103 120q2 0 7 -0.5t11 -1.5q11 -2 11 -5v-234h28.5t25.5 1q6 0 6 -4q0 -13 -2 -23.5t-4 -10.5q-5 0 -22 -0.5t-32 -0.5q0 -18 1 -39.5t1 -59.5q0 -9 -5 -9h-52q-5 0 -5.5 2.5t-0.5 9.5q0 41 1 63.5t1 32.5
h-175zM606 145v169q-34 -44 -69 -85.5t-70 -83.5h139zM141 451v31.5v32t-0.5 27.5t-1.5 18q0 7 -2 11.5t-10 4.5q-3 0 -11 -2t-16.5 -4t-15.5 -4t-8 -2q-5 0 -5.5 2t-0.5 8q0 8 3.5 10t19.5 9q20 8 35 16.5t30 17.5q18 11 25.5 13.5t15.5 -0.5q9 -4 9 -8q0 -8 -1.5 -18
t-1.5 -18q-1 -16 -1.5 -37l-1 -42t-0.5 -40.5v-33.5v-32t0.5 -46t2 -44t3.5 -26q4 -11 16 -14t43 -5q8 -1 9.5 -2t1.5 -9t-2.5 -9.5t-8.5 -1.5h-14.5t-24 0.5t-29 0.5h-29.5h-24.5t-30.5 -0.5t-27.5 -0.5h-15.5q-8 0 -8 8q0 9 4.5 10.5t21.5 3.5q32 3 39 14t9 33
q1 11 1.5 29.5t1 37.5t0.5 36v25zM211 0q8 13 31.5 60.5t55.5 112t68.5 138.5t68 140.5t55 116t29.5 66.5h46q-9 -15 -27 -50.5t-41.5 -82.5t-49 -100t-50 -103t-45 -93.5t-33.5 -69.5q-17 -34 -27 -55t-16.5 -35t-10 -24t-7.5 -21h-47z" />
    <glyph glyph-name="onehalf" unicode="&#xbd;" horiz-adv-x="759" 
d="M135 451v31.5v32t-0.5 27.5t-1.5 18q0 7 -2 11.5t-10 4.5q-3 0 -11 -2t-16.5 -4t-15.5 -4t-8 -2q-5 0 -5.5 2t-0.5 8q0 8 3.5 10t19.5 9q20 8 35 16.5t30 17.5q18 11 25.5 13.5t15.5 -0.5q9 -4 9 -8q0 -8 -1.5 -18t-1.5 -18q-1 -16 -1.5 -37l-1 -42t-0.5 -40.5v-33.5v-32
t0.5 -46t2 -44t3.5 -26q4 -11 16 -14t43 -5q8 -1 9.5 -2t1.5 -9t-2.5 -9.5t-8.5 -1.5h-14.5t-24 0.5t-29 0.5h-29.5h-24.5t-30.5 -0.5t-27.5 -0.5h-15.5q-8 0 -8 8q0 9 4.5 10.5t21.5 3.5q32 3 39 14t9 33q1 11 1.5 29.5t1 37.5t0.5 36v25zM200 0q8 15 32 62.5t55.5 111.5
t66.5 136t66 136.5t53.5 112t28.5 62.5q1 1 2.5 6t2.5 7h47q-15 -25 -35.5 -65.5t-37.5 -75.5l-174 -358q-17 -34 -27 -55t-16 -35t-9.5 -24t-7.5 -21h-47zM449 0q-6 0 -6 8t4 12q6 5 30.5 29.5t53.5 57t56.5 68t39.5 63.5q19 45 0 75t-59 30q-21 0 -42 -10t-30 -30
q-5 -11 -6.5 -13.5t-5.5 -2.5t-11 3.5t-7 9.5q0 4 8 18t24 29t41 27t58 12q48 0 78 -28.5t30 -70.5q0 -26 -10 -48.5t-32.5 -49t-58 -59t-87.5 -78.5q7 0 32 -1t54 -0.5t54.5 3t31.5 7.5t10.5 16.5t10.5 28.5q2 6 5 7t6 1t7 -2.5t4 -5.5t-3 -14.5t-6.5 -25t-7 -25.5
t-4.5 -17q-5 -17 -8 -21t-12 -4h-30.5t-53.5 0.5t-55.5 0.5h-35.5h-67z" />
    <glyph glyph-name="threequarters" unicode="&#xbe;" horiz-adv-x="759" 
d="M614 145v169q-34 -44 -69 -85.5t-70 -83.5h139zM234 0q8 15 32 62.5t55.5 111.5t66.5 136t66 136.5t53.5 112t28.5 62.5q0 1 2 6t3 7h46q-14 -25 -34.5 -65.5t-37.5 -75.5q-19 -39 -42.5 -86.5t-47 -96t-45.5 -94t-39 -81.5q-17 -34 -27 -55t-16 -35t-10 -24t-8 -21h-46z
M439 108q-9 0 -10.5 2t-1.5 10q0 12 1 16t8 12q53 60 105 119t103 120q2 0 7 -0.5t11 -1.5q11 -2 11 -5v-234h28.5t25.5 1q6 0 6 -4q0 -13 -2 -23.5t-4 -10.5q-5 0 -22 -0.5t-32 -0.5q0 -18 1 -39.5t1 -59.5q0 -9 -5 -9h-52q-5 0 -5.5 2.5t-0.5 9.5q0 41 1 63.5t1 32.5h-175
zM203 483q51 4 80.5 -25.5t29.5 -71.5q0 -32 -16 -57.5t-41 -43.5t-56.5 -27.5t-62.5 -9.5q-30 0 -48.5 7t-29 16t-14.5 18.5t-4 14.5q0 14 12.5 20.5t19.5 6.5q9 0 13 -4.5t8 -12.5q6 -12 15.5 -19.5t19 -11t18.5 -4.5t15 -1q23 0 38.5 9.5t25 23.5t13.5 29.5t4 28.5
q0 35 -20.5 57t-55.5 22q-23 0 -35.5 -7.5t-17.5 -7.5q-6 0 -8.5 6.5t-2.5 8.5q0 4 3.5 6t18.5 9q52 24 69.5 42.5t17.5 42.5t-15 37t-38 13q-25 0 -45 -11t-24 -19q-2 -5 -4 -8.5t-7 -3.5q-4 0 -10.5 3.5t-6.5 8.5q0 3 9 14.5t26 24.5t41 23t53 10q45 0 67 -22.5t22 -48.5
q0 -22 -18.5 -46.5t-58.5 -39.5z" />
    <glyph glyph-name="questiondown" unicode="&#xbf;" horiz-adv-x="389" 
d="M28 1q0 30 12 51t32.5 37t46.5 28.5t53 24.5q32 14 44 21t19 12q9 7 12 13t3 16q0 4 -0.5 14t-1 21t-1 20.5t-0.5 13.5q0 3 2 4.5t15 1.5q3 0 4 -2t3 -10q8 -36 14 -69.5t6 -47.5q0 -13 -5 -23t-17 -19t-31.5 -18.5t-47.5 -22.5q-18 -9 -36 -18.5t-32.5 -22.5
t-23.5 -30.5t-9 -41.5q0 -5 3 -22.5t16.5 -36.5t41 -34t76.5 -15q32 0 50 7.5t30 7.5q17 0 22.5 -14.5t5.5 -28.5q0 -7 -2 -14.5t-9.5 -13.5t-23 -9.5t-42.5 -3.5q-44 0 -85 17t-83 69q-10 13 -21 30.5t-20 35.5t-14.5 36.5t-5.5 35.5zM303 377q0 -10 -5 -19.5t-13 -17
t-17.5 -12.5t-18.5 -5q-20 0 -37.5 17.5t-17.5 35.5q0 9 5 18.5t12.5 18t17 13.5t19.5 5q19 0 37 -17t18 -37z" />
    <glyph glyph-name="Agrave" unicode="&#xc0;" horiz-adv-x="630" 
d="M208 855q5 0 10.5 -2.5t21.5 -18.5q30 -31 59.5 -58.5t58.5 -55.5q6 -5 8.5 -8t-1.5 -5q-8 -4 -13 -4q-3 0 -27 13t-53 29.5t-56.5 32t-38.5 20.5q-9 5 -19.5 12t-10.5 15q0 6 8.5 11t19 9.5t20.5 7t13 2.5zM176 230q-24 -60 -39 -102.5t-15 -64.5t18.5 -30t38.5 -9
q14 -1 17.5 -2.5t3.5 -12.5q0 -5 -1 -8t-8 -3q-17 0 -38.5 1.5t-50.5 1.5q-6 0 -19.5 -0.5t-29 -1t-29.5 -1t-19 -0.5q-6 0 -7.5 2.5t-1.5 6.5q0 10 1.5 11.5t8.5 3.5q12 2 22.5 11.5t19.5 23t17 30t15 32.5q3 7 17.5 38.5t34.5 76t43.5 96.5t44.5 100t37.5 87t23.5 57
q5 12 8.5 24t7.5 25q2 11 22 11q12 0 20.5 2t14.5 2q5 0 7 -4.5t6 -22.5q2 -10 16 -50.5t34 -96.5t44.5 -120.5t47 -123t41.5 -103.5t28 -62q12 -23 22 -28t26 -7q5 -1 5 -9q0 -10 -1.5 -12t-6.5 -2q-24 0 -48.5 1t-48.5 1q-29 0 -56.5 -0.5t-56.5 -1.5q-6 1 -7.5 4t-1.5 8
q0 9 3 10.5t15 2.5q8 1 17.5 2t17.5 4.5t13.5 10t5.5 16.5q0 8 -7 32t-16.5 51.5t-18.5 53.5t-14 38h-244zM410 263q-6 15 -20.5 54.5t-31 83.5t-32 84.5t-21.5 56.5q-20 -47 -33 -77t-24.5 -57.5t-24.5 -60t-34 -84.5h221z" />
    <glyph glyph-name="Aacute" unicode="&#xc1;" horiz-adv-x="630" 
d="M422 855q4 0 13.5 -2.5t20 -6.5t18.5 -9.5t8 -10.5q0 -4 -1.5 -7t-6.5 -7t-15.5 -10t-27.5 -16q-8 -4 -28.5 -15.5t-43 -24.5t-41 -23.5t-23.5 -12.5q-3 -2 -9 -4.5t-8 -2.5q-1 0 -8 2t-7 5q0 2 9.5 11t12.5 12q17 15 28.5 25.5t22 21l23 23l31.5 31.5q16 16 21.5 18.5
t10.5 2.5zM176 230q-24 -60 -39 -102.5t-15 -64.5t18.5 -30t38.5 -9q14 -1 17.5 -2.5t3.5 -12.5q0 -5 -1 -8t-8 -3q-17 0 -38.5 1.5t-50.5 1.5q-6 0 -19.5 -0.5t-29 -1t-29.5 -1t-19 -0.5q-6 0 -7.5 2.5t-1.5 6.5q0 10 1.5 11.5t8.5 3.5q12 2 22.5 11.5t19.5 23t17 30
t15 32.5q3 7 17.5 38.5t34.5 76t43.5 96.5t44.5 100t37.5 87t23.5 57q5 12 8.5 24t7.5 25q2 11 22 11q12 0 20.5 2t14.5 2q5 0 7 -4.5t6 -22.5q2 -10 16 -50.5t34 -96.5t44.5 -120.5t47 -123t41.5 -103.5t28 -62q12 -23 22 -28t26 -7q5 -1 5 -9q0 -10 -1.5 -12t-6.5 -2
q-24 0 -48.5 1t-48.5 1q-29 0 -56.5 -0.5t-56.5 -1.5q-6 1 -7.5 4t-1.5 8q0 9 3 10.5t15 2.5q8 1 17.5 2t17.5 4.5t13.5 10t5.5 16.5q0 8 -7 32t-16.5 51.5t-18.5 53.5t-14 38h-244zM410 263q-6 15 -20.5 54.5t-31 83.5t-32 84.5t-21.5 56.5q-20 -47 -33 -77t-24.5 -57.5
t-24.5 -60t-34 -84.5h221z" />
    <glyph glyph-name="Acircumflex" unicode="&#xc2;" horiz-adv-x="630" 
d="M324 869q9 0 14 -4.5t17 -18.5q14 -17 25 -30t23 -26t26 -27.5t34 -35.5q10 -10 12 -12.5t2 -4.5t-4 -7.5t-8 -5.5q-3 0 -24.5 15.5t-46.5 33.5t-46.5 33.5t-24.5 15.5q-2 0 -24.5 -15.5t-48.5 -33.5t-48.5 -33.5t-24.5 -15.5q-3 0 -8.5 5t-5.5 7q0 1 3 4l7 7l7.5 7.5
l4.5 4.5q30 29 59 60t56 63q7 8 11 11t13 3zM176 230q-24 -60 -39 -102.5t-15 -64.5t18.5 -30t38.5 -9q14 -1 17.5 -2.5t3.5 -12.5q0 -5 -1 -8t-8 -3q-17 0 -38.5 1.5t-50.5 1.5q-6 0 -19.5 -0.5t-29 -1t-29.5 -1t-19 -0.5q-6 0 -7.5 2.5t-1.5 6.5q0 10 1.5 11.5t8.5 3.5
q12 2 22.5 11.5t19.5 23t17 30t15 32.5q3 7 17.5 38.5t34.5 76t43.5 96.5t44.5 100t37.5 87t23.5 57q5 12 8.5 24t7.5 25q2 11 22 11q12 0 20.5 2t14.5 2q5 0 7 -4.5t6 -22.5q2 -10 16 -50.5t34 -96.5t44.5 -120.5t47 -123t41.5 -103.5t28 -62q12 -23 22 -28t26 -7
q5 -1 5 -9q0 -10 -1.5 -12t-6.5 -2q-24 0 -48.5 1t-48.5 1q-29 0 -56.5 -0.5t-56.5 -1.5q-6 1 -7.5 4t-1.5 8q0 9 3 10.5t15 2.5q8 1 17.5 2t17.5 4.5t13.5 10t5.5 16.5q0 8 -7 32t-16.5 51.5t-18.5 53.5t-14 38h-244zM410 263q-6 15 -20.5 54.5t-31 83.5t-32 84.5
t-21.5 56.5q-20 -47 -33 -77t-24.5 -57.5t-24.5 -60t-34 -84.5h221z" />
    <glyph glyph-name="Atilde" unicode="&#xc3;" horiz-adv-x="630" 
d="M260 826q9 0 16 -1t16 -4t22.5 -9t36.5 -17q17 -8 29.5 -12t30.5 -4q29 0 43.5 9.5t19.5 15.5q3 2 10.5 12t9.5 10q1 0 7.5 -3.5t6.5 -5.5t-5 -10t-7 -12q-18 -29 -42.5 -51.5t-56.5 -22.5q-14 0 -31 5t-47 19q-16 7 -26.5 11.5t-18.5 7.5t-16 4t-18 1q-20 0 -36.5 -7
t-34.5 -28l-8.5 -8.5t-2.5 -1.5t-7.5 3.5t-6.5 5.5t5.5 10t7.5 11q21 31 44.5 51.5t58.5 20.5zM176 230q-24 -60 -39 -102.5t-15 -64.5t18.5 -30t38.5 -9q14 -1 17.5 -2.5t3.5 -12.5q0 -5 -1 -8t-8 -3q-17 0 -38.5 1.5t-50.5 1.5q-6 0 -19.5 -0.5t-29 -1t-29.5 -1t-19 -0.5
q-6 0 -7.5 2.5t-1.5 6.5q0 10 1.5 11.5t8.5 3.5q12 2 22.5 11.5t19.5 23t17 30t15 32.5q3 7 17.5 38.5t34.5 76t43.5 96.5t44.5 100t37.5 87t23.5 57q5 12 8.5 24t7.5 25q2 11 22 11q12 0 20.5 2t14.5 2q5 0 7 -4.5t6 -22.5q2 -10 16 -50.5t34 -96.5t44.5 -120.5t47 -123
t41.5 -103.5t28 -62q12 -23 22 -28t26 -7q5 -1 5 -9q0 -10 -1.5 -12t-6.5 -2q-24 0 -48.5 1t-48.5 1q-29 0 -56.5 -0.5t-56.5 -1.5q-6 1 -7.5 4t-1.5 8q0 9 3 10.5t15 2.5q8 1 17.5 2t17.5 4.5t13.5 10t5.5 16.5q0 8 -7 32t-16.5 51.5t-18.5 53.5t-14 38h-244zM410 263
q-6 15 -20.5 54.5t-31 83.5t-32 84.5t-21.5 56.5q-20 -47 -33 -77t-24.5 -57.5t-24.5 -60t-34 -84.5h221z" />
    <glyph glyph-name="Adieresis" unicode="&#xc4;" horiz-adv-x="630" 
d="M176 230q-24 -60 -39 -102.5t-15 -64.5t18.5 -30t38.5 -9q14 -1 17.5 -2.5t3.5 -12.5q0 -5 -1 -8t-8 -3q-17 0 -38.5 1.5t-50.5 1.5q-6 0 -19.5 -0.5t-29 -1t-29.5 -1t-19 -0.5q-6 0 -7.5 2.5t-1.5 6.5q0 10 1.5 11.5t8.5 3.5q12 2 22.5 11.5t19.5 23t17 30t15 32.5
q3 7 17.5 38.5t34.5 76t43.5 96.5t44.5 100t37.5 87t23.5 57q5 12 8.5 24t7.5 25q2 11 22 11q12 0 20.5 2t14.5 2q5 0 7 -4.5t6 -22.5q2 -10 16 -50.5t34 -96.5t44.5 -120.5t47 -123t41.5 -103.5t28 -62q12 -23 22 -28t26 -7q5 -1 5 -9q0 -10 -1.5 -12t-6.5 -2
q-24 0 -48.5 1t-48.5 1q-29 0 -56.5 -0.5t-56.5 -1.5q-6 1 -7.5 4t-1.5 8q0 9 3 10.5t15 2.5q8 1 17.5 2t17.5 4.5t13.5 10t5.5 16.5q0 8 -7 32t-16.5 51.5t-18.5 53.5t-14 38h-244zM410 263q-6 15 -20.5 54.5t-31 83.5t-32 84.5t-21.5 56.5q-20 -47 -33 -77t-24.5 -57.5
t-24.5 -60t-34 -84.5h221zM423 821q18 0 33 -14.5t15 -32.5t-15 -32.5t-32 -14.5t-33 13.5t-16 33.5t16 33.5t32 13.5zM223 821q20 0 34 -15t14 -32q0 -18 -14.5 -32.5t-32.5 -14.5q-17 0 -33 13.5t-16 33.5t15.5 33.5t32.5 13.5z" />
    <glyph glyph-name="Aring" unicode="&#xc5;" horiz-adv-x="630" 
d="M326 685q-20 0 -38.5 6t-33 17.5t-23 28t-8.5 37.5q0 42 30.5 66t72.5 24q41 0 72 -23.5t31 -66.5q0 -21 -9 -38t-23 -28t-32.5 -17t-38.5 -6zM326 709q14 0 24 6t16 16t9 21.5t3 21.5q0 23 -12.5 44.5t-39.5 21.5q-14 0 -24 -6t-16 -16t-9 -21.5t-3 -22.5q0 -10 2.5 -21
t8.5 -21t16 -16.5t25 -6.5zM176 230q-24 -60 -39 -102.5t-15 -64.5t18.5 -30t38.5 -9q14 -1 17.5 -2.5t3.5 -12.5q0 -5 -1 -8t-8 -3q-17 0 -38.5 1.5t-50.5 1.5q-6 0 -19.5 -0.5t-29 -1t-29.5 -1t-19 -0.5q-6 0 -7.5 2.5t-1.5 6.5q0 10 1.5 11.5t8.5 3.5q12 2 22.5 11.5
t19.5 23t17 30t15 32.5q3 7 17.5 38.5t34.5 76t43.5 96.5t44.5 100t37.5 87t23.5 57q5 12 8.5 24t7.5 25q2 11 22 11q12 0 20.5 2t14.5 2q5 0 7 -4.5t6 -22.5q2 -10 16 -50.5t34 -96.5t44.5 -120.5t47 -123t41.5 -103.5t28 -62q12 -23 22 -28t26 -7q5 -1 5 -9
q0 -10 -1.5 -12t-6.5 -2q-24 0 -48.5 1t-48.5 1q-29 0 -56.5 -0.5t-56.5 -1.5q-6 1 -7.5 4t-1.5 8q0 9 3 10.5t15 2.5q8 1 17.5 2t17.5 4.5t13.5 10t5.5 16.5q0 8 -7 32t-16.5 51.5t-18.5 53.5t-14 38h-244zM410 263q-6 15 -20.5 54.5t-31 83.5t-32 84.5t-21.5 56.5
q-20 -47 -33 -77t-24.5 -57.5t-24.5 -60t-34 -84.5h221z" />
    <glyph glyph-name="AE" unicode="&#xc6;" horiz-adv-x="944" 
d="M249 255q-34 -53 -55.5 -87.5t-34.5 -56t-18 -34t-5 -20.5q0 -10 9 -19.5t49 -11.5q15 -1 18 -2.5t3 -11.5q0 -6 -0.5 -9.5t-5.5 -3.5q-6 0 -19.5 0.5t-30 0.5t-35 0.5t-34.5 0.5q-40 0 -57.5 -1t-26.5 -1q-6 0 -9 1t-3 9t2.5 10t11.5 6q7 2 13 5.5t16 13t25.5 28
t40.5 52.5t62.5 85.5t90.5 125.5q24 33 48.5 68t45 65t35.5 51.5t19 27.5q13 18 19.5 29t6.5 19q0 11 -9.5 13.5t-28.5 3.5q-11 0 -14.5 1.5t-3.5 9.5q0 10 2.5 11.5t11.5 1.5q15 0 30.5 -0.5t38 -1t56 -1t82.5 -0.5q81 0 133 0.5t83 1t44 1t17 0.5q8 0 12.5 -1t4.5 -9
q0 -5 -3 -23t-4 -29q-3 -29 -3.5 -47t-1.5 -38q0 -9 -13 -9q-10 0 -12 3.5t-3 18.5q-2 28 -6.5 46t-21 29t-51 15.5t-96.5 4.5h-22.5t-37 -1t-36.5 -3t-20 -5t-3.5 -13.5t-0.5 -23.5v-201h100.5t56 0.5t27.5 1t15 1.5q32 5 42 21t12 44q1 9 3 12t10 3t9.5 -2.5t1.5 -6.5
q0 -10 -2 -28t-2 -60q0 -40 2 -60.5t2 -30.5v-9q0 -9 -13 -9q-8 0 -10 2.5t-3 13.5q-3 40 -22 52.5t-45 15.5q-10 2 -35 2.5t-53.5 1.5t-55 1h-40.5q0 -94 0.5 -145.5t1.5 -76.5t3 -31.5t6 -11.5q3 -4 9 -6.5t17 -4t29 -2t46 -0.5q53 0 87.5 4t57 14t36.5 27t26 42
q5 10 9.5 25.5t9.5 15.5q20 0 20 -10q0 -7 -6 -38.5t-23 -98.5q-3 -10 -6 -16t-10 -6q-78 0 -156 2t-156 2q-38 0 -76.5 -2t-77.5 -2q-10 0 -12.5 2t-2.5 10t2.5 10t14.5 4q26 5 38 12t18 22q5 12 7.5 38.5t4 57t2 59t0.5 43.5h-224zM473 288q0 30 0.5 61t0.5 66.5t-0.5 78
t-0.5 94.5q-13 -18 -37 -52.5t-52.5 -77t-58.5 -87.5t-55 -83q49 0 102 -0.5t101 0.5z" />
    <glyph glyph-name="Ccedilla" unicode="&#xc7;" horiz-adv-x="667" 
d="M407 -11q-2 -3 -6.5 -9.5t-8.5 -13t-7 -12.5t-3 -9q0 -8 18 -18q23 -14 36.5 -29t13.5 -37q0 -13 -7.5 -29t-21 -29.5t-32.5 -23t-41 -9.5q-24 0 -40.5 10t-16.5 24q0 8 6.5 16.5t15.5 8.5q6 0 10.5 -2t21.5 -11q14 -7 27 -7q12 0 18.5 4t9.5 8.5t3.5 9t0.5 5.5
q0 16 -13 27.5t-30 21.5q-23 12 -28.5 16t-5.5 10q0 4 7 15t16.5 23t19 23.5t13.5 16.5q-55 3 -108.5 14t-101.5 46q-40 29 -64 64.5t-37 71.5t-17 69.5t-4 56.5q0 29 5 63t18 68t34.5 67t54.5 60q91 76 248 76q17 0 30.5 -0.5t28 -1.5t32 -3.5t43.5 -5.5q2 0 9.5 -1
t15.5 -2t15 -2t8 -1q4 0 8.5 0.5t6.5 2.5q3 2 5 2q3 0 8.5 -0.5t5.5 -4.5q0 -1 -1.5 -10.5t-4 -22t-4.5 -24t-3 -15.5q-3 -23 -5 -47.5t-2 -30.5q0 -8 -1 -11t-9 -3q-13 0 -15.5 4.5t-4.5 23.5q-1 5 -2.5 16t-5 24.5t-10 26t-17.5 20.5q-14 11 -34.5 17.5t-41.5 10t-39 5
t-27 1.5q-47 0 -92.5 -16.5t-81 -51.5t-57.5 -90t-22 -132q0 -69 19 -125t53 -95.5t81.5 -60.5t104.5 -21q23 0 48 4t48.5 12t44.5 21.5t37 32.5q2 2 5 6.5t7 10t7.5 9.5t5.5 4q3 0 10 -1.5t7 -6.5q0 -1 -4 -12t-9 -25.5t-9.5 -28t-6.5 -18.5q-4 -13 -7.5 -16.5t-20.5 -8.5
q-18 -5 -42 -8t-47 -4.5t-42.5 -2t-29.5 -0.5z" />
    <glyph glyph-name="Egrave" unicode="&#xc8;" horiz-adv-x="593" 
d="M201 855q5 0 10.5 -2.5t21.5 -18.5q30 -31 59.5 -58.5t58.5 -55.5q6 -5 8.5 -8t-1.5 -5q-8 -4 -13 -4q-3 0 -27 13t-53 29.5t-56.5 32t-38.5 20.5q-9 5 -19.5 12t-10.5 15q0 6 8.5 11t19 9.5t20.5 7t13 2.5zM208 350h97.5t54.5 0.5t26.5 1t14.5 1.5q33 5 42.5 21.5
t11.5 43.5q2 9 3.5 12t9.5 3t9.5 -4t1.5 -12q0 -16 -1.5 -44.5t-1.5 -48.5q0 -16 0.5 -39t2.5 -40v-9q0 -6 -3 -7.5t-9 -1.5q-8 0 -10.5 2.5t-3.5 13.5q-2 42 -26.5 55t-62.5 15q-11 1 -23 1.5t-29.5 0.5t-42 0.5t-61.5 0.5q0 -98 0.5 -151t2 -78.5t5 -31.5t9.5 -9
q10 -5 28 -6.5t63 -1.5q51 0 85 4.5t56.5 14t36.5 25.5t26 40q2 5 5 12t5.5 14.5t5 12.5t4.5 5q6 0 13 -1.5t7 -8.5q0 -6 -3.5 -25.5t-8.5 -42t-10 -42.5t-8 -29q-3 -10 -5 -15t-9 -5q-10 0 -45 1t-80 2t-93.5 2t-84.5 1q-16 0 -40 -1t-47.5 -2t-43 -2t-27.5 -1
q-10 0 -12.5 2t-2.5 10q0 9 2.5 10.5t11.5 2.5q18 2 30 4t20 8t12.5 17t6.5 31q2 16 2.5 49t1 70t0.5 72v56v55.5t-0.5 79.5t-2 75t-3.5 43q-4 18 -17.5 22.5t-41.5 6.5q-6 0 -9 1.5t-3 10.5q0 8 3 10t7 2q8 0 28 -0.5t42.5 -1t42 -1t26.5 -0.5h24t48 0.5t60.5 0.5t61.5 0.5
t50.5 1t28.5 0.5l38 1q15 0 21 -0.5t6 -8.5q0 -3 -1 -10t-2 -14.5t-2.5 -14t-1.5 -9.5q-2 -26 -3 -46t-1 -43q0 -9 -13 -9q-11 0 -12.5 3.5t-3.5 17.5q-2 28 -6 46.5t-20.5 30t-50 16t-94.5 4.5h-23.5t-36.5 -1t-35 -3t-19 -6q-3 -3 -3.5 -11.5t-0.5 -13.5v-214z" />
    <glyph glyph-name="Eacute" unicode="&#xc9;" horiz-adv-x="593" 
d="M403 855q4 0 14 -2.5t20.5 -7t18.5 -9.5t8 -11q0 -4 -1.5 -7t-6.5 -6.5t-15 -9.5t-27 -15q-8 -4 -28.5 -15.5t-43 -24.5t-41.5 -23.5t-25 -13.5q-3 -2 -8.5 -4.5t-8.5 -2.5q-4 1 -7 2q-7 3 -7 5q0 1 12 12.5t27 26t29.5 28.5t19.5 19l28.5 28.5t16.5 16t8.5 8t5.5 3.5
q5 3 11 3zM208 350h97.5t54.5 0.5t26.5 1t14.5 1.5q33 5 42.5 21.5t11.5 43.5q2 9 3.5 12t9.5 3t9.5 -4t1.5 -12q0 -16 -1.5 -44.5t-1.5 -48.5q0 -16 0.5 -39t2.5 -40v-9q0 -6 -3 -7.5t-9 -1.5q-8 0 -10.5 2.5t-3.5 13.5q-2 42 -26.5 55t-62.5 15q-11 1 -23 1.5t-29.5 0.5
t-42 0.5t-61.5 0.5q0 -98 0.5 -151t2 -78.5t5 -31.5t9.5 -9q10 -5 28 -6.5t63 -1.5q51 0 85 4.5t56.5 14t36.5 25.5t26 40q2 5 5 12t5.5 14.5t5 12.5t4.5 5q6 0 13 -1.5t7 -8.5q0 -6 -3.5 -25.5t-8.5 -42t-10 -42.5t-8 -29q-3 -10 -5 -15t-9 -5q-10 0 -45 1t-80 2t-93.5 2
t-84.5 1q-16 0 -40 -1t-47.5 -2t-43 -2t-27.5 -1q-10 0 -12.5 2t-2.5 10q0 9 2.5 10.5t11.5 2.5q18 2 30 4t20 8t12.5 17t6.5 31q2 16 2.5 49t1 70t0.5 72v56v55.5t-0.5 79.5t-2 75t-3.5 43q-4 18 -17.5 22.5t-41.5 6.5q-6 0 -9 1.5t-3 10.5q0 8 3 10t7 2q8 0 28 -0.5
t42.5 -1t42 -1t26.5 -0.5h24t48 0.5t60.5 0.5t61.5 0.5t50.5 1t28.5 0.5l38 1q15 0 21 -0.5t6 -8.5q0 -3 -1 -10t-2 -14.5t-2.5 -14t-1.5 -9.5q-2 -26 -3 -46t-1 -43q0 -9 -13 -9q-11 0 -12.5 3.5t-3.5 17.5q-2 28 -6 46.5t-20.5 30t-50 16t-94.5 4.5h-23.5t-36.5 -1t-35 -3
t-19 -6q-3 -3 -3.5 -11.5t-0.5 -13.5v-214z" />
    <glyph glyph-name="Ecircumflex" unicode="&#xca;" horiz-adv-x="593" 
d="M311 869q10 0 15 -4.5t16 -18.5q26 -33 50.5 -58.5t58.5 -60.5q9 -10 11 -12.5t2 -4.5t-4 -7.5t-8 -5.5q-3 0 -24.5 15.5t-46.5 33.5t-46.5 33.5t-24.5 15.5q-2 0 -24.5 -15.5t-48.5 -33.5t-48.5 -33.5t-24.5 -15.5q-3 0 -8 5t-5 7q0 1 3 4t6.5 7t7 7.5l4.5 4.5
q31 29 59.5 60t55.5 63q8 8 11.5 11t12.5 3zM208 350h97.5t54.5 0.5t26.5 1t14.5 1.5q33 5 42.5 21.5t11.5 43.5q2 9 3.5 12t9.5 3t9.5 -4t1.5 -12q0 -16 -1.5 -44.5t-1.5 -48.5q0 -16 0.5 -39t2.5 -40v-9q0 -6 -3 -7.5t-9 -1.5q-8 0 -10.5 2.5t-3.5 13.5q-2 42 -26.5 55
t-62.5 15q-11 1 -23 1.5t-29.5 0.5t-42 0.5t-61.5 0.5q0 -98 0.5 -151t2 -78.5t5 -31.5t9.5 -9q10 -5 28 -6.5t63 -1.5q51 0 85 4.5t56.5 14t36.5 25.5t26 40q2 5 5 12t5.5 14.5t5 12.5t4.5 5q6 0 13 -1.5t7 -8.5q0 -6 -3.5 -25.5t-8.5 -42t-10 -42.5t-8 -29q-3 -10 -5 -15
t-9 -5q-10 0 -45 1t-80 2t-93.5 2t-84.5 1q-16 0 -40 -1t-47.5 -2t-43 -2t-27.5 -1q-10 0 -12.5 2t-2.5 10q0 9 2.5 10.5t11.5 2.5q18 2 30 4t20 8t12.5 17t6.5 31q2 16 2.5 49t1 70t0.5 72v56v55.5t-0.5 79.5t-2 75t-3.5 43q-4 18 -17.5 22.5t-41.5 6.5q-6 0 -9 1.5
t-3 10.5q0 8 3 10t7 2q8 0 28 -0.5t42.5 -1t42 -1t26.5 -0.5h24t48 0.5t60.5 0.5t61.5 0.5t50.5 1t28.5 0.5l38 1q15 0 21 -0.5t6 -8.5q0 -3 -1 -10t-2 -14.5t-2.5 -14t-1.5 -9.5q-2 -26 -3 -46t-1 -43q0 -9 -13 -9q-11 0 -12.5 3.5t-3.5 17.5q-2 28 -6 46.5t-20.5 30
t-50 16t-94.5 4.5h-23.5t-36.5 -1t-35 -3t-19 -6q-3 -3 -3.5 -11.5t-0.5 -13.5v-214z" />
    <glyph glyph-name="Edieresis" unicode="&#xcb;" horiz-adv-x="593" 
d="M419 821q19 0 33 -15t14 -32q0 -18 -14.5 -32.5t-32.5 -14.5q-17 0 -32.5 13.5t-15.5 33.5t15.5 33.5t32.5 13.5zM202 821q19 0 33.5 -15t14.5 -32q0 -18 -15 -32.5t-33 -14.5q-17 0 -32.5 13.5t-15.5 33.5t15.5 33.5t32.5 13.5zM208 350h97.5t54.5 0.5t26.5 1t14.5 1.5
q33 5 42.5 21.5t11.5 43.5q2 9 3.5 12t9.5 3t9.5 -4t1.5 -12q0 -16 -1.5 -44.5t-1.5 -48.5q0 -16 0.5 -39t2.5 -40v-9q0 -6 -3 -7.5t-9 -1.5q-8 0 -10.5 2.5t-3.5 13.5q-2 42 -26.5 55t-62.5 15q-11 1 -23 1.5t-29.5 0.5t-42 0.5t-61.5 0.5q0 -98 0.5 -151t2 -78.5t5 -31.5
t9.5 -9q10 -5 28 -6.5t63 -1.5q51 0 85 4.5t56.5 14t36.5 25.5t26 40q2 5 5 12t5.5 14.5t5 12.5t4.5 5q6 0 13 -1.5t7 -8.5q0 -6 -3.5 -25.5t-8.5 -42t-10 -42.5t-8 -29q-3 -10 -5 -15t-9 -5q-10 0 -45 1t-80 2t-93.5 2t-84.5 1q-16 0 -40 -1t-47.5 -2t-43 -2t-27.5 -1
q-10 0 -12.5 2t-2.5 10q0 9 2.5 10.5t11.5 2.5q18 2 30 4t20 8t12.5 17t6.5 31q2 16 2.5 49t1 70t0.5 72v56v55.5t-0.5 79.5t-2 75t-3.5 43q-4 18 -17.5 22.5t-41.5 6.5q-6 0 -9 1.5t-3 10.5q0 8 3 10t7 2q8 0 28 -0.5t42.5 -1t42 -1t26.5 -0.5h24t48 0.5t60.5 0.5t61.5 0.5
t50.5 1t28.5 0.5l38 1q15 0 21 -0.5t6 -8.5q0 -3 -1 -10t-2 -14.5t-2.5 -14t-1.5 -9.5q-2 -26 -3 -46t-1 -43q0 -9 -13 -9q-11 0 -12.5 3.5t-3.5 17.5q-2 28 -6 46.5t-20.5 30t-50 16t-94.5 4.5h-23.5t-36.5 -1t-35 -3t-19 -6q-3 -3 -3.5 -11.5t-0.5 -13.5v-214z" />
    <glyph glyph-name="Igrave" unicode="&#xcc;" horiz-adv-x="333" 
d="M85 855q5 0 10.5 -2.5t21.5 -18.5q30 -31 59.5 -58.5t58.5 -55.5q6 -5 8.5 -8t-1.5 -5q-8 -4 -13 -4q-3 0 -27 13t-53 29.5t-56.5 32t-38.5 20.5q-9 5 -19.5 12t-10.5 15q0 6 8.5 11t19 9.5t20.5 7t13 2.5zM206 378v-61v-78.5t1 -77.5t3 -58q2 -24 4.5 -39.5t11 -24.5
t25.5 -13t46 -4q10 -1 11.5 -3.5t1.5 -10.5q0 -5 -2 -7t-10 -2q-33 0 -66.5 1t-66.5 1q-8 0 -26.5 -0.5t-39.5 -0.5t-39.5 -0.5t-25.5 -0.5q-6 0 -8.5 1.5t-2.5 9.5q0 10 3.5 11.5t17.5 2.5q26 2 41 9t22.5 19.5t10.5 29.5t4 38q2 24 3 65t1.5 89t0.5 98v92q0 46 -1.5 75
t-8.5 45t-21 21.5t-38 5.5q-20 0 -25 2.5t-5 10.5q0 11 9 11q8 0 27 -0.5t40 -0.5t39.5 -0.5t25.5 -0.5q8 0 27 0.5t40 1t39.5 0.5h25.5q9 0 9 -11q0 -10 -3 -12t-17 -2q-29 0 -46 -6.5t-25 -29.5t-10.5 -69.5t-2.5 -126.5z" />
    <glyph glyph-name="Iacute" unicode="&#xcd;" horiz-adv-x="333" 
d="M136 710q-4 -2 -9.5 -4.5t-8.5 -2.5q-4 1 -7 2q-7 3 -7 5q0 1 12 12.5t27.5 26t30 28.5t19.5 19q18 18 28 28.5t16 16t8.5 7.5t5.5 4q6 3 11 3q4 0 14 -2.5t20.5 -6.5t18.5 -9.5t8 -10.5q0 -4 -1.5 -7t-6.5 -7t-15.5 -10t-27.5 -15zM206 378v-61v-78.5t1 -77.5t3 -58
q2 -24 4.5 -39.5t11 -24.5t25.5 -13t46 -4q10 -1 11.5 -3.5t1.5 -10.5q0 -5 -2 -7t-10 -2q-33 0 -66.5 1t-66.5 1q-8 0 -26.5 -0.5t-39.5 -0.5t-39.5 -0.5t-25.5 -0.5q-6 0 -8.5 1.5t-2.5 9.5q0 10 3.5 11.5t17.5 2.5q26 2 41 9t22.5 19.5t10.5 29.5t4 38q2 24 3 65t1.5 89
t0.5 98v92q0 46 -1.5 75t-8.5 45t-21 21.5t-38 5.5q-20 0 -25 2.5t-5 10.5q0 11 9 11q8 0 27 -0.5t40 -0.5t39.5 -0.5t25.5 -0.5q8 0 27 0.5t40 1t39.5 0.5h25.5q9 0 9 -11q0 -10 -3 -12t-17 -2q-29 0 -46 -6.5t-25 -29.5t-10.5 -69.5t-2.5 -126.5z" />
    <glyph glyph-name="Icircumflex" unicode="&#xce;" horiz-adv-x="333" 
d="M170 869q8 0 12 -3.5t15 -19.5q13 -18 23 -31.5t20.5 -26.5t22.5 -27t29 -34l10 -12.5t2 -4.5t-4 -7.5t-9 -5.5q-3 0 -21.5 15.5t-39.5 33.5t-39.5 33.5t-21.5 15.5q-2 0 -21 -15.5t-42 -33.5t-42 -33.5t-21 -15.5q-3 0 -8.5 4.5t-5.5 8.5q0 1 8.5 10.5t10.5 11.5
q6 6 35.5 40t66.5 84q5 8 8.5 10.5t11.5 2.5zM206 378v-61v-78.5t1 -77.5t3 -58q2 -24 4.5 -39.5t11 -24.5t25.5 -13t46 -4q10 -1 11.5 -3.5t1.5 -10.5q0 -5 -2 -7t-10 -2q-33 0 -66.5 1t-66.5 1q-8 0 -26.5 -0.5t-39.5 -0.5t-39.5 -0.5t-25.5 -0.5q-6 0 -8.5 1.5t-2.5 9.5
q0 10 3.5 11.5t17.5 2.5q26 2 41 9t22.5 19.5t10.5 29.5t4 38q2 24 3 65t1.5 89t0.5 98v92q0 46 -1.5 75t-8.5 45t-21 21.5t-38 5.5q-20 0 -25 2.5t-5 10.5q0 11 9 11q8 0 27 -0.5t40 -0.5t39.5 -0.5t25.5 -0.5q8 0 27 0.5t40 1t39.5 0.5h25.5q9 0 9 -11q0 -10 -3 -12
t-17 -2q-29 0 -46 -6.5t-25 -29.5t-10.5 -69.5t-2.5 -126.5z" />
    <glyph glyph-name="Idieresis" unicode="&#xcf;" horiz-adv-x="333" 
d="M258 821q18 0 33 -14.5t15 -32.5t-15 -32.5t-32 -14.5t-33 13.5t-16 33.5t16 33.5t32 13.5zM75 821q19 0 33.5 -15t14.5 -32q0 -18 -15 -32.5t-33 -14.5q-16 0 -32 13.5t-16 33.5t16 33.5t32 13.5zM206 378v-61v-78.5t1 -77.5t3 -58q2 -24 4.5 -39.5t11 -24.5t25.5 -13
t46 -4q10 -1 11.5 -3.5t1.5 -10.5q0 -5 -2 -7t-10 -2q-33 0 -66.5 1t-66.5 1q-8 0 -26.5 -0.5t-39.5 -0.5t-39.5 -0.5t-25.5 -0.5q-6 0 -8.5 1.5t-2.5 9.5q0 10 3.5 11.5t17.5 2.5q26 2 41 9t22.5 19.5t10.5 29.5t4 38q2 24 3 65t1.5 89t0.5 98v92q0 46 -1.5 75t-8.5 45
t-21 21.5t-38 5.5q-20 0 -25 2.5t-5 10.5q0 11 9 11q8 0 27 -0.5t40 -0.5t39.5 -0.5t25.5 -0.5q8 0 27 0.5t40 1t39.5 0.5h25.5q9 0 9 -11q0 -10 -3 -12t-17 -2q-29 0 -46 -6.5t-25 -29.5t-10.5 -69.5t-2.5 -126.5z" />
    <glyph glyph-name="Eth" unicode="&#xd0;" horiz-adv-x="778" 
d="M127 370q0 60 -0.5 100.5t-2 66.5t-5 39.5t-9.5 19.5q-7 8 -23 10.5t-26 2.5q-9 0 -13.5 2t-2.5 10q-2 9 3.5 11t16.5 2q36 0 81.5 1t89 2.5t78.5 2.5t49 1q74 0 144.5 -17.5t124.5 -68.5q48 -45 71.5 -104.5t23.5 -120.5q0 -16 -4 -47t-17.5 -68t-39 -76t-69.5 -70.5
t-109 -51.5t-157 -20q-21 0 -42 0.5t-42 1.5q-22 1 -43 1.5t-42 0.5q-6 0 -21.5 -0.5t-32.5 -0.5t-31.5 -0.5t-20.5 -0.5q-7 0 -11 1.5t-4 10.5q0 8 3 10t17 4q35 5 48 23.5t15 55.5q1 18 1.5 42.5t1 51.5t0.5 55v53h-36q-11 -1 -21.5 -1.5t-24.5 0.5q-5 0 -5 20v15t5 4
q8 0 19.5 -0.5t23.5 -0.5t23 -0.5t16 -0.5v28zM366 306q-14 0 -35.5 0.5t-44.5 0.5h-44h-34v-100.5t0.5 -59t1 -32.5t1.5 -22q2 -17 7 -29t18.5 -20t36 -11.5t58.5 -3.5q63 0 118 19t96 56t65 91.5t24 125.5q0 20 -3.5 48.5t-14 60t-30 63.5t-51.5 59q-31 25 -76 41t-119 16
q-46 0 -71.5 -4t-37.5 -12t-15 -20t-5 -29q-1 -10 -1.5 -25t-1 -38.5t-0.5 -57.5v-82h34h48t53 0.5t49 0.5h8q12 0 12 -3v-30q0 -4 -4 -4.5t-18 0.5z" />
    <glyph glyph-name="Ntilde" unicode="&#xd1;" horiz-adv-x="778" 
d="M334 826q10 0 17.5 -1.5t16.5 -4.5t20.5 -8t28.5 -13q26 -12 38.5 -16t29.5 -4q29 0 43 9.5t20 15.5q2 2 10 12t9 10q2 0 8 -3.5t6 -5.5t-4 -9.5t-8 -12.5q-26 -41 -50 -57.5t-49 -16.5q-14 0 -31.5 5t-46.5 19q-15 7 -25.5 11.5t-18.5 7.5t-16 4t-18 1q-20 0 -36.5 -7
t-35.5 -28q-6 -7 -7.5 -8.5t-3.5 -1.5q-1 0 -7 3.5t-6 5.5t5.5 10t7.5 11q21 30 44 51t59 21zM131 441q0 37 -1.5 67t-9 51.5t-24 34t-47.5 15.5q-17 2 -20.5 3.5t-3.5 8.5q0 8 2 10.5t10 2.5h10t19 -0.5t22.5 -0.5h20.5q18 0 32 0.5t24 0.5h7q6 0 9.5 -4t8.5 -10
q15 -20 48.5 -58t75.5 -84.5t89 -97t89 -96t75 -81.5t48 -53v128.5t-0.5 111t-1 84.5t-1.5 49q-2 24 -5.5 40.5t-13.5 26.5t-28.5 15t-49.5 7q-9 0 -11 2t-2 9q0 8 2 10t9 2q26 0 58 -0.5t59 -0.5q26 0 59 0.5t68 0.5q10 0 10 -10t-3.5 -12t-17.5 -5q-24 -5 -38 -11.5
t-22 -18.5t-12 -31t-7 -48q-5 -58 -7.5 -135.5t-2.5 -188.5q0 -44 1.5 -81.5t3.5 -57.5q1 -7 4 -19t3 -16q0 -5 -10 -10t-14 -5t-9 6.5t-12 17.5q-22 32 -45.5 61t-60.5 70t-93 101t-144 153q-19 20 -33 35.5t-25.5 28.5t-22 25.5t-23.5 27.5v-40.5v-74.5t0.5 -91.5t1 -92
t1.5 -76t3 -42.5q2 -12 5.5 -24.5t12.5 -22t26.5 -16t47.5 -8.5q15 -1 18.5 -3t3.5 -10t-2.5 -10.5t-8.5 -2.5q-10 0 -33.5 0.5t-49.5 0.5t-49 0.5t-32 0.5q-5 0 -18 -0.5t-27.5 -0.5t-26.5 -0.5t-16 -0.5q-6 0 -9 2t-3 12q0 8 3.5 10t17.5 4q22 4 36 10.5t22.5 17.5
t13 28.5t6.5 42.5q3 34 5 76t3 85.5t1.5 84t0.5 70.5z" />
    <glyph glyph-name="Ograve" unicode="&#xd2;" horiz-adv-x="778" 
d="M282 855q5 0 10.5 -2.5t21.5 -18.5q30 -31 59.5 -58.5t58.5 -55.5q6 -5 8.5 -8t-1.5 -5q-8 -4 -13 -4q-3 0 -27 13t-53 29.5t-56.5 32t-38.5 20.5q-9 5 -19.5 12t-10.5 15q0 6 8.5 11t19 9.5t20.5 7t13 2.5zM51 306q0 90 32 154t82.5 105t112 60.5t119.5 19.5
q76 0 137 -25.5t104 -69.5t66 -103.5t23 -127.5q0 -77 -28.5 -138.5t-76.5 -104t-110.5 -65t-130.5 -22.5q-78 0 -139.5 27t-103.5 71.5t-64.5 101.5t-22.5 117zM144 337q0 -75 22 -132.5t58.5 -97t83.5 -60t98 -20.5q25 0 63.5 8.5t75 36t63 80.5t26.5 141q0 80 -23 139
t-60.5 98t-85 58t-97.5 19q-58 0 -100.5 -22t-70 -59.5t-40.5 -86t-13 -102.5z" />
    <glyph glyph-name="Oacute" unicode="&#xd3;" horiz-adv-x="778" 
d="M496 855q4 0 13.5 -2.5t20 -6.5t18.5 -9.5t8 -10.5q0 -4 -1.5 -7t-6.5 -7t-15.5 -10t-27.5 -16q-8 -4 -28.5 -15.5t-43 -24.5t-41 -23.5t-23.5 -12.5q-3 -2 -9 -4.5t-8 -2.5q-1 0 -8 1.5t-7 5.5q0 2 9.5 11t13.5 12q17 16 28 26.5t21.5 20.5t23 22.5l31.5 31.5
q16 16 21.5 18.5t10.5 2.5zM51 306q0 90 32 154t82.5 105t112 60.5t119.5 19.5q76 0 137 -25.5t104 -69.5t66 -103.5t23 -127.5q0 -77 -28.5 -138.5t-76.5 -104t-110.5 -65t-130.5 -22.5q-78 0 -139.5 27t-103.5 71.5t-64.5 101.5t-22.5 117zM144 337q0 -75 22 -132.5
t58.5 -97t83.5 -60t98 -20.5q25 0 63.5 8.5t75 36t63 80.5t26.5 141q0 80 -23 139t-60.5 98t-85 58t-97.5 19q-58 0 -100.5 -22t-70 -59.5t-40.5 -86t-13 -102.5z" />
    <glyph glyph-name="Ocircumflex" unicode="&#xd4;" horiz-adv-x="778" 
d="M392 869q10 0 15 -4.5t16 -18.5q26 -33 50.5 -58.5t58.5 -60.5q9 -10 11.5 -12.5t2.5 -4.5t-4 -7.5t-9 -5.5q-3 0 -24.5 15.5t-46.5 33.5t-46.5 33.5t-24.5 15.5q-2 0 -24 -15.5t-48.5 -33.5t-48.5 -33.5t-24 -15.5q-4 0 -9 5t-5 7q0 1 3 4t6.5 7t7 7.5l4.5 4.5
q31 29 59.5 60t55.5 63q8 8 12 11t12 3zM51 306q0 90 32 154t82.5 105t112 60.5t119.5 19.5q76 0 137 -25.5t104 -69.5t66 -103.5t23 -127.5q0 -77 -28.5 -138.5t-76.5 -104t-110.5 -65t-130.5 -22.5q-78 0 -139.5 27t-103.5 71.5t-64.5 101.5t-22.5 117zM144 337
q0 -75 22 -132.5t58.5 -97t83.5 -60t98 -20.5q25 0 63.5 8.5t75 36t63 80.5t26.5 141q0 80 -23 139t-60.5 98t-85 58t-97.5 19q-58 0 -100.5 -22t-70 -59.5t-40.5 -86t-13 -102.5z" />
    <glyph glyph-name="Otilde" unicode="&#xd5;" horiz-adv-x="778" 
d="M323 826q10 0 17.5 -1.5t16.5 -4.5t20.5 -8t28.5 -13q26 -12 38.5 -16t29.5 -4q29 0 43 9.5t20 15.5q2 2 10 12t10 10q1 0 7.5 -3.5t6.5 -5.5t-4.5 -9.5l-7.5 -12.5q-26 -41 -50.5 -57.5t-48.5 -16.5q-15 0 -32 5t-46 19q-16 7 -26.5 11.5t-18.5 7.5t-16 4t-18 1
q-20 0 -36.5 -7t-35.5 -28q-6 -7 -7.5 -8.5t-2.5 -1.5q-2 0 -8 3.5t-6 5.5t5.5 10t7.5 11q21 30 44 51t59 21zM51 306q0 90 32 154t82.5 105t112 60.5t119.5 19.5q76 0 137 -25.5t104 -69.5t66 -103.5t23 -127.5q0 -77 -28.5 -138.5t-76.5 -104t-110.5 -65t-130.5 -22.5
q-78 0 -139.5 27t-103.5 71.5t-64.5 101.5t-22.5 117zM144 337q0 -75 22 -132.5t58.5 -97t83.5 -60t98 -20.5q25 0 63.5 8.5t75 36t63 80.5t26.5 141q0 80 -23 139t-60.5 98t-85 58t-97.5 19q-58 0 -100.5 -22t-70 -59.5t-40.5 -86t-13 -102.5z" />
    <glyph glyph-name="Odieresis" unicode="&#xd6;" horiz-adv-x="778" 
d="M51 306q0 90 32 154t82.5 105t112 60.5t119.5 19.5q76 0 137 -25.5t104 -69.5t66 -103.5t23 -127.5q0 -77 -28.5 -138.5t-76.5 -104t-110.5 -65t-130.5 -22.5q-78 0 -139.5 27t-103.5 71.5t-64.5 101.5t-22.5 117zM144 337q0 -75 22 -132.5t58.5 -97t83.5 -60t98 -20.5
q25 0 63.5 8.5t75 36t63 80.5t26.5 141q0 80 -23 139t-60.5 98t-85 58t-97.5 19q-58 0 -100.5 -22t-70 -59.5t-40.5 -86t-13 -102.5zM497 821q19 0 33.5 -14.5t14.5 -32.5t-15 -32.5t-32 -14.5t-33 13.5t-16 33.5t16 33.5t32 13.5zM281 821q19 0 33 -15t14 -32
q0 -18 -14.5 -32.5t-32.5 -14.5q-17 0 -32.5 13.5t-15.5 33.5t15.5 33.5t32.5 13.5z" />
    <glyph glyph-name="multiply" unicode="&#xd7;" 
d="M94 450q-4 5 -9 9.5t-5 6.5q0 1 4.5 6t10 10.5t10.5 10t6 4.5q2 0 6.5 -5t8.5 -9l70.5 -70.5t62.5 -63.5l41.5 41.5t44.5 45t36.5 36.5t16.5 17l6.5 6.5t2.5 1.5t6 -4.5t11 -10.5t10.5 -11t4.5 -6l-14 -15q-10 -10 -28 -27.5t-37.5 -37l-38 -38l-30.5 -30.5
q8 -8 29.5 -29t44 -43.5l40.5 -40.5l20 -20l9 -9t5 -6t-4.5 -6t-10.5 -10.5t-11 -10t-6 -4.5l-6 5.5t-13.5 13t-14 14.5t-8.5 9q-6 6 -21.5 21t-32.5 32l-31.5 31.5l-20.5 20.5q-14 -14 -31 -31.5t-35 -35.5t-35.5 -35t-31.5 -31l-9 -9t-6 -5t-6 4.5t-10.5 10t-10 10.5
t-4.5 6t5 6l9 9l133 133z" />
    <glyph glyph-name="Oslash" unicode="&#xd8;" horiz-adv-x="778" 
d="M396 645q51 0 100.5 -13t92.5 -41q8 10 27 35t38 48q2 2 7.5 3t23.5 1q17 0 21 -1t1 -6q-3 -3 -15.5 -17.5t-27.5 -32t-28 -33t-17 -20.5q53 -48 80.5 -112.5t27.5 -136.5q0 -77 -28.5 -138.5t-76.5 -104t-110.5 -65t-130.5 -22.5q-51 0 -99.5 13t-91.5 42
q-4 -6 -13.5 -19t-20.5 -27.5t-20.5 -27.5t-13.5 -18q-2 -2 -9 -2.5t-25 -0.5h-16q-2 0 2.5 6t15.5 20q20 24 31.5 39t19 24.5t12 15.5t8.5 11q-37 32 -59 67.5t-33 69t-14.5 63.5t-3.5 50q0 74 28 135t75 104.5t109.5 67t132.5 23.5zM261 180q35 44 79.5 100.5t86.5 109.5
t74.5 94t42.5 54q-36 33 -81.5 51t-94.5 18q-58 0 -100.5 -22t-70.5 -59t-41 -85.5t-13 -101.5q0 -60 16 -116t53 -102zM568 511q-12 -15 -37.5 -47t-58 -72.5t-69 -85.5t-69.5 -86.5t-59.5 -74.5t-39.5 -49q35 -33 79.5 -51t92.5 -18q24 0 62.5 8t75 36t63.5 80.5t27 141.5
q0 52 -13.5 109t-53.5 109z" />
    <glyph glyph-name="Ugrave" unicode="&#xd9;" horiz-adv-x="722" 
d="M162 633q7 0 23.5 0.5t35 1t34.5 1t22 0.5q7 0 9.5 -1.5t2.5 -8.5q0 -11 -4.5 -12.5t-21.5 -3.5q-21 -2 -34 -4.5t-21.5 -11.5t-12.5 -26t-6 -48q-2 -26 -3 -57t-2 -63t-1 -63.5v-59.5q0 -39 3 -81t21 -76.5t56.5 -57t109.5 -22.5q59 0 96 16t59 38t31 45t11 37
q3 18 5 50.5t2.5 72t0 82t-2.5 80.5t-5 67t-7 41q-9 26 -31.5 32.5t-51.5 10.5q-5 1 -8.5 3t-2.5 10q1 7 2 9t9 2q7 0 24 -0.5t36 -0.5t35.5 -0.5t22.5 -0.5t20 0.5t29.5 0.5t29.5 0.5t19 0.5q8 0 9.5 -2t1.5 -7q0 -10 -3 -12t-17 -4q-22 -4 -35 -13t-19 -35.5t-8 -77
t-3 -137.5q0 -64 -1.5 -109t-8.5 -78.5t-21.5 -59t-40.5 -49.5q-42 -38 -91.5 -52t-104.5 -14q-93 0 -144 27t-74.5 64.5t-27.5 78.5t-4 68v44.5v66v65v42.5q-1 57 -2 89.5t-6 49.5t-15 22.5t-29 7.5t-23 4t-4 8q0 10 2 11.5t6 1.5q3 0 9.5 -0.5t13.5 -0.5t13.5 -0.5
t9.5 -0.5q16 0 26 -0.5t18.5 -0.5h17h21.5zM255 855q5 0 10.5 -2.5t21.5 -18.5q30 -31 59.5 -58.5t58.5 -55.5q6 -5 8.5 -8t-1.5 -5q-8 -4 -13 -4q-3 0 -27 13t-53 29.5t-56.5 32t-38.5 20.5q-9 5 -19.5 12t-10.5 15q0 6 8.5 11t19 9.5t20.5 7t13 2.5z" />
    <glyph glyph-name="Uacute" unicode="&#xda;" horiz-adv-x="722" 
d="M474 855q4 0 13.5 -2.5t20 -6.5t18.5 -9.5t8 -10.5q0 -4 -1.5 -7t-6.5 -7t-15 -10t-27 -15q-8 -4 -28.5 -15.5t-42.5 -24.5t-41 -23.5t-25 -13.5q-3 -2 -9 -4.5t-8 -2.5q-1 0 -8 1.5t-7 5.5q0 2 9.5 11t12.5 12q17 16 28.5 26.5t22 20.5t23 22.5l31.5 31.5
q16 16 21.5 18.5t10.5 2.5zM373 40q59 0 96 16t59 38t31 45t11 37q3 18 5 50.5t2.5 72t0 82t-2.5 80.5t-5 67t-7 41q-9 26 -31.5 32.5t-51.5 10.5q-5 1 -8.5 3t-2.5 10q1 7 2 9t9 2q7 0 24 -0.5t36 -0.5t35.5 -0.5t22.5 -0.5t20 0.5t29.5 0.5t29.5 0.5t19 0.5q8 0 9.5 -2
t1.5 -7q0 -10 -3 -12t-17 -4q-22 -4 -35 -13t-19 -35.5t-8 -77t-3 -137.5q0 -64 -1.5 -109t-8.5 -78.5t-21.5 -59t-40.5 -49.5q-42 -38 -91.5 -52t-104.5 -14q-93 0 -144 27t-74.5 64.5t-27.5 78.5t-4 68v44.5v66v65v42.5q-1 57 -2 89.5t-6 49.5t-15 22.5t-29 7.5t-23 4
t-4 8q0 10 2 11.5t6 1.5q32 0 64.5 -1.5t64.5 -1.5q7 0 23.5 0.5t35 1t34.5 1t22 0.5q7 0 9.5 -1.5t2.5 -8.5q0 -11 -4.5 -12.5t-21.5 -3.5q-21 -2 -34 -4.5t-21.5 -11.5t-12.5 -26t-6 -48q-2 -26 -3 -57t-2 -63t-1 -63.5v-59.5q0 -39 3 -81t21 -76.5t56.5 -57t109.5 -22.5z
" />
    <glyph glyph-name="Ucircumflex" unicode="&#xdb;" horiz-adv-x="722" 
d="M378 869q10 0 15 -4.5t16 -18.5q26 -31 49.5 -56.5t59.5 -62.5q10 -10 12 -12.5t2 -4.5t-4 -7.5t-9 -5.5q-3 0 -24.5 15.5t-46.5 33.5t-46 33.5t-24 15.5q-2 0 -24.5 -15.5t-48.5 -33.5t-48.5 -33.5t-24.5 -15.5q-3 0 -8.5 5t-5.5 7q0 1 3 4l7 7l7.5 7.5l4.5 4.5
q30 29 58.5 60t56.5 63q7 8 11 11t12 3zM373 40q59 0 96 16t59 38t31 45t11 37q3 18 5 50.5t2.5 72t0 82t-2.5 80.5t-5 67t-7 41q-9 26 -31.5 32.5t-51.5 10.5q-5 1 -8.5 3t-2.5 10q1 7 2 9t9 2q7 0 24 -0.5t36 -0.5t35.5 -0.5t22.5 -0.5t20 0.5t29.5 0.5t29.5 0.5t19 0.5
q8 0 9.5 -2t1.5 -7q0 -10 -3 -12t-17 -4q-22 -4 -35 -13t-19 -35.5t-8 -77t-3 -137.5q0 -64 -1.5 -109t-8.5 -78.5t-21.5 -59t-40.5 -49.5q-42 -38 -91.5 -52t-104.5 -14q-93 0 -144 27t-74.5 64.5t-27.5 78.5t-4 68v44.5v66v65v42.5q-1 57 -2 89.5t-6 49.5t-15 22.5
t-29 7.5t-23 4t-4 8q0 10 2 11.5t6 1.5q32 0 64.5 -1.5t64.5 -1.5q7 0 23.5 0.5t35 1t34.5 1t22 0.5q7 0 9.5 -1.5t2.5 -8.5q0 -11 -4.5 -12.5t-21.5 -3.5q-21 -2 -34 -4.5t-21.5 -11.5t-12.5 -26t-6 -48q-2 -26 -3 -57t-2 -63t-1 -63.5v-59.5q0 -39 3 -81t21 -76.5
t56.5 -57t109.5 -22.5z" />
    <glyph glyph-name="Udieresis" unicode="&#xdc;" horiz-adv-x="722" 
d="M484 821q18 0 32.5 -14.5t14.5 -32.5t-15 -32.5t-32 -14.5t-32.5 13.5t-15.5 33.5t15.5 33.5t32.5 13.5zM267 821q18 0 33 -14.5t15 -32.5t-15.5 -32.5t-32.5 -14.5t-32.5 13.5t-15.5 33.5t16 33.5t32 13.5zM373 40q59 0 96 16t59 38t31 45t11 37q3 18 5 50.5t2.5 72
t0 82t-2.5 80.5t-5 67t-7 41q-9 26 -31.5 32.5t-51.5 10.5q-5 1 -8.5 3t-2.5 10q1 7 2 9t9 2q7 0 24 -0.5t36 -0.5t35.5 -0.5t22.5 -0.5t20 0.5t29.5 0.5t29.5 0.5t19 0.5q8 0 9.5 -2t1.5 -7q0 -10 -3 -12t-17 -4q-22 -4 -35 -13t-19 -35.5t-8 -77t-3 -137.5
q0 -64 -1.5 -109t-8.5 -78.5t-21.5 -59t-40.5 -49.5q-42 -38 -91.5 -52t-104.5 -14q-93 0 -144 27t-74.5 64.5t-27.5 78.5t-4 68v44.5v66v65v42.5q-1 57 -2 89.5t-6 49.5t-15 22.5t-29 7.5t-23 4t-4 8q0 10 2 11.5t6 1.5q32 0 64.5 -1.5t64.5 -1.5q7 0 23.5 0.5t35 1t34.5 1
t22 0.5q7 0 9.5 -1.5t2.5 -8.5q0 -11 -4.5 -12.5t-21.5 -3.5q-21 -2 -34 -4.5t-21.5 -11.5t-12.5 -26t-6 -48q-2 -26 -3 -57t-2 -63t-1 -63.5v-59.5q0 -39 3 -81t21 -76.5t56.5 -57t109.5 -22.5z" />
    <glyph glyph-name="Yacute" unicode="&#xdd;" horiz-adv-x="574" 
d="M267 710q-3 -2 -9 -4.5t-8 -2.5q-1 0 -8 2t-7 5q0 1 12 12.5t27.5 26t30 28.5t19.5 19l28.5 28.5l16 16t8.5 7.5l6 4q5 3 11 3q4 0 13.5 -2.5t20 -6.5t18.5 -9.5t8 -10.5q0 -4 -1.5 -7t-6.5 -7t-14.5 -10t-26.5 -15zM305 318q14 20 37.5 56t47 75t40.5 73.5t17 50.5
q0 20 -15.5 28t-53.5 13q-5 1 -6.5 3t-1.5 10q0 6 4 7t9 1q23 0 51 -0.5t52 -0.5q15 0 38.5 0.5t45.5 0.5q9 0 12.5 -1t3.5 -8t-2 -8.5t-12 -5.5q-12 -4 -27 -15.5t-40 -42t-63.5 -86t-96.5 -148.5q-9 -15 -17 -27t-8 -16v-42v-50.5t0.5 -48.5t1.5 -36q1 -22 4 -35
t10.5 -20.5t21.5 -11.5t37 -8q14 -2 17.5 -4t3.5 -9q0 -10 -3 -12t-9 -2q-10 0 -45.5 1.5t-102.5 1.5q-12 0 -27 -0.5t-28.5 -1t-24.5 -1t-16 -0.5q-7 0 -9.5 2t-2.5 13q0 6 2.5 8t13.5 3q38 5 53 16.5t19 28.5q2 10 3 38.5t2 59.5t1 57.5v32.5q0 8 -3 13.5t-8 13.5
q-47 78 -80.5 132t-57 89.5t-39 56t-25.5 31t-17 14.5t-14 7q-3 2 -4 3.5t-1 8.5q0 6 2 7.5t7 1.5q26 0 55 -0.5t49 -0.5h25.5t28.5 0.5t26 0.5h19t8 -3t1 -8q0 -6 -2 -9t-14 -3q-4 0 -12.5 -0.5t-17 -3t-15 -7t-6.5 -13.5q0 -8 9.5 -28t24.5 -46.5t33.5 -56t36 -57
t32 -49.5t22.5 -33z" />
    <glyph glyph-name="Thorn" unicode="&#xde;" horiz-adv-x="556" 
d="M534 349q0 -48 -22 -84t-59 -61t-86 -37.5t-103 -12.5q-15 0 -30 0.5t-28 1.5q1 -46 4.5 -72t11 -39t19.5 -16.5t31 -4.5q23 -2 28 -3t5 -9q0 -9 -2.5 -11.5t-8.5 -2.5q-10 0 -46.5 1.5t-78.5 1.5q-15 0 -34 -0.5t-37 -1t-32 -1t-20 -0.5t-9 1.5t-3 7.5q0 10 3 11.5
t16 3.5q22 3 35 10.5t19.5 18.5t9.5 24.5t4 29.5q2 22 3 61t2 85.5t1 94.5v88v33t-0.5 46t-1 44t-2.5 27q-2 10 -13 17.5t-51 10.5q-11 1 -13 2.5t-2 9.5q0 10 4.5 11.5t14.5 1.5q20 0 48.5 -1.5t54.5 -1.5q33 0 70 1.5t63 1.5q10 0 10 -9q0 -11 -2.5 -13t-16.5 -2
q-25 0 -41 -5t-24.5 -15.5t-11.5 -27t-3 -39.5q17 2 35.5 3t44.5 1q66 0 104.5 -11.5t67.5 -32.5q10 -7 22.5 -18.5t23.5 -28.5t18.5 -39t7.5 -51zM205 185q9 -1 21 -2t28 -1q47 0 82 12t58 33.5t35 50.5t12 62q0 31 -9.5 60t-29.5 51.5t-52 36.5t-77 14h-15t-20.5 -1.5
t-18.5 -4t-9 -7.5q-2 -7 -3 -45.5t-1.5 -87t-0.5 -96.5v-75z" />
    <glyph glyph-name="germandbls" unicode="&#xdf;" horiz-adv-x="574" 
d="M53 375q-6 0 -7 1.5t-1 9.5q0 5 1.5 7t7.5 5q3 2 10.5 5.5t15.5 7t15 7.5t10 5q-1 20 -0.5 43.5t5.5 49t16.5 52t33.5 52.5q18 21 41 37.5t48 28t50.5 17t47.5 5.5q23 0 47 -6.5t43.5 -20.5t32 -37.5t12.5 -58.5q0 -29 -13 -56.5t-54 -60.5q-29 -24 -46.5 -38.5
t-27 -25.5t-12.5 -20.5t-3 -21.5q0 -30 26.5 -51t83.5 -55q25 -15 43.5 -27t31 -25.5t19 -30.5t6.5 -42q0 -60 -44 -99.5t-126 -39.5q-6 0 -23.5 0.5t-36 5t-33 13.5t-14.5 25q0 10 9.5 24t20.5 14q7 0 12 -4t13 -12q2 -2 8 -7.5t16 -11t22.5 -10t27.5 -4.5q13 0 26.5 4
t24 13t17 23.5t6.5 36.5q0 42 -23 63.5t-67 44.5q-62 32 -87.5 59.5t-25.5 64.5q0 35 18 57.5t50 45.5q17 13 33.5 25.5t29 27t20 32t7.5 38.5q0 30 -11.5 48t-28 28.5t-34.5 14t-30 3.5q-52 0 -80 -17t-41 -45.5t-15 -66t-2 -79.5v-120.5t1 -119t2 -96t3 -50.5
q5 -21 16 -26.5t27 -8.5q7 -1 8 -3.5t1 -10.5q0 -7 -1 -9.5t-6 -2.5q-24 0 -47.5 1t-47.5 1q-22 0 -49.5 -1t-38.5 -1q-3 0 -5 2t-2 10t2.5 9.5t12.5 3.5q23 3 35 10t16 37q1 6 1 27.5t0.5 51.5t0.5 64.5v66.5v57.5v37.5z" />
    <glyph glyph-name="agrave" unicode="&#xe0;" horiz-adv-x="463" 
d="M126 609q-10 7 -13.5 12t-3.5 10q0 3 2 6.5t13 5.5q14 4 28 6t19 2q9 0 15 -6t25 -31q2 -3 13.5 -18t24.5 -31.5t23 -30.5l10 -14q2 -2 9 -10.5t7 -10.5q0 -3 -6.5 -4t-8.5 -1q-1 0 -3.5 1.5t-9 6t-18.5 13.5t-33 24zM40 87q0 23 4 37.5t12 24t20.5 15.5t30.5 13
q19 8 42.5 14t47.5 10.5t47.5 8t43.5 5.5v100q0 11 -3.5 22t-12 20t-23.5 15t-38 6q-12 0 -31 -2.5t-36 -10.5q-6 -2 -7.5 -5t-1.5 -7q0 -5 1 -12t1 -15q0 -7 -4 -9.5t-14 -5.5t-25.5 -7t-24.5 -4q-13 0 -13 12q0 16 17.5 36.5t45 39t62.5 31t70 12.5q64 0 88.5 -32
t24.5 -81q0 -23 -1 -54.5t-1.5 -62.5t-1.5 -56t-1 -36q0 -35 9.5 -48.5t28.5 -13.5q17 0 37.5 9t35.5 18l4 -2v-15q0 -10 -2 -15t-10 -10q-46 -25 -80.5 -33.5t-46.5 -8.5q-17 0 -27 6t-14.5 14t-6 16t-1.5 12q-37 -17 -78 -32.5t-80 -15.5q-29 0 -46.5 10t-26.5 25t-12 32
t-3 30zM287 160q0 11 -6 18t-24 7q-25 0 -50 -8.5t-39 -14.5q-18 -7 -27.5 -14t-14 -13t-5.5 -12t-1 -12q0 -45 18.5 -57.5t46.5 -12.5q8 0 27 2.5t47 13.5q9 4 14.5 8t8.5 11.5t4 19.5t1 31v33z" />
    <glyph glyph-name="aacute" unicode="&#xe1;" horiz-adv-x="463" 
d="M271 639q6 8 10.5 10t10.5 2t20.5 -2.5t26.5 -5.5q10 -2 12.5 -5.5t2.5 -6.5q0 -7 -4.5 -11.5t-23.5 -18.5q-13 -10 -30 -23t-34 -26.5t-34 -26t-31 -22.5q-11 -9 -18 -9q-1 0 -7.5 1t-6.5 4l7.5 10t17 22t18 23.5t10.5 14.5zM40 87q0 23 4 37.5t12 24t20.5 15.5t30.5 13
q19 8 42.5 14t47.5 10.5t47.5 8t43.5 5.5v100q0 11 -3.5 22t-12 20t-23.5 15t-38 6q-12 0 -31 -2.5t-36 -10.5q-6 -2 -7.5 -5t-1.5 -7q0 -5 1 -12t1 -15q0 -7 -4 -9.5t-14 -5.5t-25.5 -7t-24.5 -4q-13 0 -13 12q0 16 17.5 36.5t45 39t62.5 31t70 12.5q64 0 88.5 -32
t24.5 -81q0 -23 -1 -54.5t-1.5 -62.5t-1.5 -56t-1 -36q0 -35 9.5 -48.5t28.5 -13.5q17 0 37.5 9t35.5 18l4 -2v-15q0 -10 -2 -15t-10 -10q-46 -25 -80.5 -33.5t-46.5 -8.5q-17 0 -27 6t-14.5 14t-6 16t-1.5 12q-37 -17 -78 -32.5t-80 -15.5q-29 0 -46.5 10t-26.5 25t-12 32
t-3 30zM287 160q0 11 -6 18t-24 7q-25 0 -50 -8.5t-39 -14.5q-18 -7 -27.5 -14t-14 -13t-5.5 -12t-1 -12q0 -45 18.5 -57.5t46.5 -12.5q8 0 27 2.5t47 13.5q9 4 14.5 8t8.5 11.5t4 19.5t1 31v33z" />
    <glyph glyph-name="acircumflex" unicode="&#xe2;" horiz-adv-x="463" 
d="M231 650q8 0 13 -5.5t24 -31.5q5 -6 13 -17.5t17.5 -24.5t20 -27t19.5 -25q3 -5 8.5 -12t5.5 -10q0 -5 -4.5 -7.5t-6.5 -2.5q-3 0 -19.5 13t-36 28.5t-36.5 28.5t-20 13q-4 0 -20 -13t-35 -28t-35.5 -28t-20.5 -13q-3 0 -8 4.5t-5 7.5q0 2 8 12t15 17q12 15 21.5 27
t18.5 24t18 25t21 30q7 9 12 12t12 3zM40 87q0 23 4 37.5t12 24t20.5 15.5t30.5 13q19 8 42.5 14t47.5 10.5t47.5 8t43.5 5.5v100q0 11 -3.5 22t-12 20t-23.5 15t-38 6q-12 0 -31 -2.5t-36 -10.5q-6 -2 -7.5 -5t-1.5 -7q0 -5 1 -12t1 -15q0 -7 -4 -9.5t-14 -5.5t-25.5 -7
t-24.5 -4q-13 0 -13 12q0 16 17.5 36.5t45 39t62.5 31t70 12.5q64 0 88.5 -32t24.5 -81q0 -23 -1 -54.5t-1.5 -62.5t-1.5 -56t-1 -36q0 -35 9.5 -48.5t28.5 -13.5q17 0 37.5 9t35.5 18l4 -2v-15q0 -10 -2 -15t-10 -10q-46 -25 -80.5 -33.5t-46.5 -8.5q-17 0 -27 6t-14.5 14
t-6 16t-1.5 12q-37 -17 -78 -32.5t-80 -15.5q-29 0 -46.5 10t-26.5 25t-12 32t-3 30zM287 160q0 11 -6 18t-24 7q-25 0 -50 -8.5t-39 -14.5q-18 -7 -27.5 -14t-14 -13t-5.5 -12t-1 -12q0 -45 18.5 -57.5t46.5 -12.5q8 0 27 2.5t47 13.5q9 4 14.5 8t8.5 11.5t4 19.5t1 31v33z
" />
    <glyph glyph-name="atilde" unicode="&#xe3;" horiz-adv-x="463" 
d="M171 621q8 0 14 -1t14 -5t20 -11.5t31 -19.5q12 -8 22.5 -13t24.5 -5q24 0 37.5 13t26.5 30q6 8 7 9.5t2 1.5t8 -5t7 -7t-5.5 -12t-10.5 -17q-15 -23 -36.5 -44.5t-47.5 -21.5q-19 0 -37 9.5t-32 19.5q-20 13 -32 19.5t-25 6.5q-12 0 -22 -5t-18 -12t-13.5 -14t-8.5 -11
q-2 -2 -5 -6t-5 -4q-1 0 -8 3t-7 6q0 2 7.5 15t13.5 22q16 26 34 42.5t44 16.5zM40 87q0 23 4 37.5t12 24t20.5 15.5t30.5 13q19 8 42.5 14t47.5 10.5t47.5 8t43.5 5.5v100q0 11 -3.5 22t-12 20t-23.5 15t-38 6q-12 0 -31 -2.5t-36 -10.5q-6 -2 -7.5 -5t-1.5 -7q0 -5 1 -12
t1 -15q0 -7 -4 -9.5t-14 -5.5t-25.5 -7t-24.5 -4q-13 0 -13 12q0 16 17.5 36.5t45 39t62.5 31t70 12.5q64 0 88.5 -32t24.5 -81q0 -23 -1 -54.5t-1.5 -62.5t-1.5 -56t-1 -36q0 -35 9.5 -48.5t28.5 -13.5q17 0 37.5 9t35.5 18l4 -2v-15q0 -10 -2 -15t-10 -10
q-46 -25 -80.5 -33.5t-46.5 -8.5q-17 0 -27 6t-14.5 14t-6 16t-1.5 12q-37 -17 -78 -32.5t-80 -15.5q-29 0 -46.5 10t-26.5 25t-12 32t-3 30zM287 160q0 11 -6 18t-24 7q-25 0 -50 -8.5t-39 -14.5q-18 -7 -27.5 -14t-14 -13t-5.5 -12t-1 -12q0 -45 18.5 -57.5t46.5 -12.5
q8 0 27 2.5t47 13.5q9 4 14.5 8t8.5 11.5t4 19.5t1 31v33z" />
    <glyph glyph-name="adieresis" unicode="&#xe4;" horiz-adv-x="463" 
d="M40 87q0 23 4 37.5t12 24t20.5 15.5t30.5 13q19 8 42.5 14t47.5 10.5t47.5 8t43.5 5.5v100q0 11 -3.5 22t-12 20t-23.5 15t-38 6q-12 0 -31 -2.5t-36 -10.5q-6 -2 -7.5 -5t-1.5 -7q0 -5 1 -12t1 -15q0 -7 -4 -9.5t-14 -5.5t-25.5 -7t-24.5 -4q-13 0 -13 12
q0 16 17.5 36.5t45 39t62.5 31t70 12.5q64 0 88.5 -32t24.5 -81q0 -23 -1 -54.5t-1.5 -62.5t-1.5 -56t-1 -36q0 -35 9.5 -48.5t28.5 -13.5q17 0 37.5 9t35.5 18l4 -2v-15q0 -10 -2 -15t-10 -10q-46 -25 -80.5 -33.5t-46.5 -8.5q-17 0 -27 6t-14.5 14t-6 16t-1.5 12
q-37 -17 -78 -32.5t-80 -15.5q-29 0 -46.5 10t-26.5 25t-12 32t-3 30zM287 160q0 11 -6 18t-24 7q-25 0 -50 -8.5t-39 -14.5q-18 -7 -27.5 -14t-14 -13t-5.5 -12t-1 -12q0 -45 18.5 -57.5t46.5 -12.5q8 0 27 2.5t47 13.5q9 4 14.5 8t8.5 11.5t4 19.5t1 31v33zM183 547
q0 -17 -14 -30t-30 -13q-14 0 -29 12t-15 31t15 31t29 12q16 0 30 -13t14 -30zM368 547q0 -19 -15 -31t-29 -12q-15 0 -30 12t-15 31t15 31t30 12q14 0 29 -12.5t15 -30.5z" />
    <glyph glyph-name="aring" unicode="&#xe5;" horiz-adv-x="463" 
d="M237 483q-38 0 -66 21.5t-28 59.5q0 37 28 59t66 22t66 -22t28 -59q0 -38 -28 -59.5t-66 -21.5zM237 507q22 0 32.5 18t10.5 39q0 20 -10 38.5t-33 18.5t-33 -19t-10 -38q0 -20 10 -38.5t33 -18.5zM40 87q0 23 4 37.5t12 24t20.5 15.5t30.5 13q19 8 42.5 14t47.5 10.5
t47.5 8t43.5 5.5v100q0 11 -3.5 22t-12 20t-23.5 15t-38 6q-12 0 -31 -2.5t-36 -10.5q-6 -2 -7.5 -5t-1.5 -7q0 -5 1 -12t1 -15q0 -7 -4 -9.5t-14 -5.5t-25.5 -7t-24.5 -4q-13 0 -13 12q0 16 17.5 36.5t45 39t62.5 31t70 12.5q64 0 88.5 -32t24.5 -81q0 -23 -1 -54.5
t-1.5 -62.5t-1.5 -56t-1 -36q0 -35 9.5 -48.5t28.5 -13.5q17 0 37.5 9t35.5 18l4 -2v-15q0 -10 -2 -15t-10 -10q-46 -25 -80.5 -33.5t-46.5 -8.5q-17 0 -27 6t-14.5 14t-6 16t-1.5 12q-37 -17 -78 -32.5t-80 -15.5q-29 0 -46.5 10t-26.5 25t-12 32t-3 30zM287 160
q0 11 -6 18t-24 7q-25 0 -50 -8.5t-39 -14.5q-18 -7 -27.5 -14t-14 -13t-5.5 -12t-1 -12q0 -45 18.5 -57.5t46.5 -12.5q8 0 27 2.5t47 13.5q9 4 14.5 8t8.5 11.5t4 19.5t1 31v33z" />
    <glyph glyph-name="ae" unicode="&#xe6;" horiz-adv-x="667" 
d="M41 94q0 16 2 29t9.5 24t22 21t40.5 20q26 9 51.5 16t49 12.5t43 8.5t31.5 5v54q0 16 -1.5 33.5t-9 32t-24 24t-46.5 9.5q-6 0 -20.5 -1.5t-31.5 -7.5q-7 -2 -10 -6t-3 -12q0 -6 1 -14t1 -15q0 -6 -6 -9.5t-14 -5.5q-3 -1 -10 -2.5t-15 -3.5t-15.5 -3.5t-11.5 -1.5
q-12 0 -12 12q0 14 15.5 34t42 38.5t60.5 32t71 13.5q32 0 63 -12t44 -42q25 24 56 39t66 15q50 0 90 -31.5t53 -85.5q2 -5 3 -7t7 -2t7 -5t1 -19q0 -9 -5 -11.5t-26 -5.5q-23 -3 -54 -9t-65.5 -13.5t-68.5 -15.5t-63 -14q0 -23 4 -52.5t17.5 -56t40 -44.5t72.5 -18
q27 0 48.5 5.5t38.5 13t29 15t19 12.5h7v-15q0 -9 -3.5 -13t-23.5 -18q-27 -18 -50.5 -28.5t-43 -15.5t-34.5 -6t-25 -1q-51 0 -82.5 17.5t-57.5 45.5q-44 -25 -96.5 -43t-94.5 -18q-50 0 -66.5 27t-16.5 75zM290 125q0 40 -3.5 56.5t-26.5 16.5q-8 0 -38 -4.5t-65 -24.5
q-21 -11 -28.5 -24t-7.5 -36q0 -25 5.5 -39.5t14 -22t18 -9t17.5 -1.5q11 0 34.5 3t48.5 15q23 11 27 25t4 45zM544 303q0 13 -7.5 29.5t-20 31.5t-29.5 25t-37 10q-42 0 -65 -41.5t-26 -117.5q25 6 44 10.5t36 8.5t33.5 8.5t34.5 9.5q25 7 31 12.5t6 13.5z" />
    <glyph glyph-name="ccedilla" unicode="&#xe7;" horiz-adv-x="426" 
d="M395 81q9 -10 9 -14q0 -3 -10 -13t-28.5 -21.5t-43.5 -22.5t-55 -17l-6 -9t-8 -12.5t-7 -12t-3 -8.5q0 -9 17 -18q22 -13 34.5 -27.5t12.5 -34.5q0 -12 -7 -27t-20 -27.5t-30.5 -21.5t-38.5 -9q-22 0 -37.5 9t-15.5 23q0 8 6 15.5t14 7.5q5 0 9.5 -2t20.5 -10
q8 -4 14.5 -5t11.5 -1q11 0 17 3.5t9 8t3.5 8.5t0.5 5q0 16 -13 27t-28 19q-21 11 -26 15t-5 10q0 5 2 8.5t12 15.5l18 24t19 23q-51 -3 -88.5 12.5t-62.5 43t-37.5 64t-12.5 76.5q0 51 20 96t53.5 78t78.5 52t96 19q22 0 43 -3t37.5 -9.5t26.5 -16t10 -22.5
q0 -8 -5.5 -15.5t-13.5 -13t-15.5 -9t-12.5 -3.5q-4 0 -11 4t-15 9q-24 14 -52 20.5t-51 6.5q-10 0 -23.5 -2t-27 -10t-26 -23t-21.5 -41q-8 -22 -10 -42.5t-2 -36.5q0 -43 11.5 -77t31 -57.5t46.5 -36t58 -12.5q29 0 62 10t59 30h6z" />
    <glyph glyph-name="egrave" unicode="&#xe8;" horiz-adv-x="426" 
d="M394 89v-15q0 -8 -1 -11t-8 -8q-34 -29 -79.5 -47t-90.5 -18q-54 0 -87.5 20.5t-52.5 51t-25.5 65t-6.5 62.5q0 59 18 104t46 76t62.5 46.5t68.5 15.5q8 0 26.5 -2.5t41 -13.5t43.5 -34.5t33 -65.5q2 -7 3.5 -8t6.5 -1q6 0 7 -4t1 -12q0 -14 -1.5 -17t-12.5 -5
q-26 -4 -61 -10.5t-71.5 -13.5t-72.5 -14t-63 -13q1 -37 9 -69.5t24.5 -56t41.5 -37t60 -13.5q37 0 71.5 12.5t63.5 35.5h6zM118 246q13 2 25 4.5t28 6t38.5 9t56.5 13.5q23 6 30 11.5t7 13.5q0 14 -7.5 30.5t-20.5 30.5t-30 24t-36 10q-28 0 -45.5 -17.5t-27.5 -41.5
t-13.5 -50t-4.5 -44zM152 651q9 0 15 -6t25 -31q3 -3 14.5 -18t24 -31.5t22.5 -30t11 -14.5q2 -2 8.5 -10.5t6.5 -10.5q0 -3 -6.5 -4t-7.5 -1q-2 0 -6.5 2.5t-15 10t-29.5 22t-50 37.5q-14 11 -32.5 24.5t-31.5 24.5q-4 3 -7 6.5t-3 8.5q0 3 2 7t13 6q14 4 28.5 6t18.5 2z
" />
    <glyph glyph-name="eacute" unicode="&#xe9;" horiz-adv-x="426" 
d="M274 651q5 0 19 -2.5t28 -5.5q9 -2 12 -5.5t3 -6.5q0 -7 -5 -12t-25 -20q-28 -21 -46.5 -35t-30.5 -23t-20.5 -15.5t-16.5 -12.5q-5 -4 -15.5 -11.5t-15.5 -7.5q-1 0 -8 1t-7 4l7.5 10t17 22.5t18 23.5t10.5 14q15 19 23.5 30.5t14 18.5t9 11.5t7.5 9.5q6 8 10 10t11 2z
M394 89v-15q0 -8 -1 -11t-8 -8q-34 -29 -79.5 -47t-90.5 -18q-54 0 -87.5 20.5t-52.5 51t-25.5 65t-6.5 62.5q0 59 18 104t46 76t62.5 46.5t68.5 15.5q8 0 26.5 -2.5t41 -13.5t43.5 -34.5t33 -65.5q2 -7 4.5 -8t5.5 -1q6 0 7 -4t1 -12q0 -13 -1.5 -16.5t-12.5 -5.5
q-26 -4 -61 -10.5t-71.5 -13.5t-72.5 -14t-63 -13q1 -37 9 -69.5t24.5 -56t41.5 -37t60 -13.5q37 0 71.5 12.5t63.5 35.5h6zM118 246q13 2 25 4.5t28 6t38.5 9t56.5 13.5q23 6 30 11.5t7 13.5q0 14 -7.5 30.5t-20.5 30.5t-30 24t-36 10q-28 0 -45.5 -17.5t-27.5 -41.5
t-13.5 -50t-4.5 -44z" />
    <glyph glyph-name="ecircumflex" unicode="&#xea;" horiz-adv-x="426" 
d="M221 650q8 0 13 -5.5t24 -31.5q17 -23 33.5 -46t33.5 -45q5 -5 11 -13.5t6 -11.5q0 -5 -4.5 -7.5t-6.5 -2.5q-3 0 -20 13t-36.5 28.5t-36 28.5t-19.5 13q-4 0 -20 -13t-35 -28t-35.5 -28t-20.5 -13t-8.5 4.5t-4.5 7.5q0 2 8 12t15 17q12 15 21.5 27t18.5 24t18 25t21 30
q7 9 12 12t12 3zM394 89v-15q0 -8 -1 -11t-8 -8q-34 -29 -79.5 -47t-90.5 -18q-54 0 -87.5 20.5t-52.5 51t-25.5 65t-6.5 62.5q0 59 18 104t46 76t62.5 46.5t68.5 15.5q8 0 26.5 -2.5t41 -13.5t43.5 -34.5t33 -65.5q2 -7 4.5 -8t5.5 -1q6 0 7 -4t1 -12q0 -13 -1.5 -16.5
t-12.5 -5.5q-26 -4 -61 -10.5t-71.5 -13.5t-72.5 -14t-63 -13q1 -37 9 -69.5t24.5 -56t41.5 -37t60 -13.5q37 0 71.5 12.5t63.5 35.5h6zM118 246q13 2 25 4.5t28 6t38.5 9t56.5 13.5q23 6 30 11.5t7 13.5q0 14 -7.5 30.5t-20.5 30.5t-30 24t-36 10q-28 0 -45.5 -17.5
t-27.5 -41.5t-13.5 -50t-4.5 -44z" />
    <glyph glyph-name="edieresis" unicode="&#xeb;" horiz-adv-x="426" 
d="M394 89v-15q0 -8 -1 -11t-8 -8q-34 -29 -79.5 -47t-90.5 -18q-54 0 -87.5 20.5t-52.5 51t-25.5 65t-6.5 62.5q0 59 18 104t46 76t62.5 46.5t68.5 15.5q8 0 26.5 -2.5t41 -13.5t43.5 -34.5t33 -65.5q2 -7 4.5 -8t5.5 -1q6 0 7 -4t1 -12q0 -13 -1.5 -16.5t-12.5 -5.5
q-26 -4 -61 -10.5t-71.5 -13.5t-72.5 -14t-63 -13q1 -37 9 -69.5t24.5 -56t41.5 -37t60 -13.5q37 0 71.5 12.5t63.5 35.5h6zM118 246q13 2 25 4.5t28 6t38.5 9t56.5 13.5q23 6 30 11.5t7 13.5q0 14 -7.5 30.5t-20.5 30.5t-30 24t-36 10q-28 0 -45.5 -17.5t-27.5 -41.5
t-13.5 -50t-4.5 -44zM173 547q0 -19 -14.5 -31t-29.5 -12q-14 0 -29 12t-15 31q0 18 15 30.5t29 12.5q15 0 29.5 -12.5t14.5 -30.5zM357 547q0 -19 -14.5 -31t-29.5 -12q-14 0 -29 12t-15 31q0 18 15 30.5t29 12.5q15 0 29.5 -12.5t14.5 -30.5z" />
    <glyph glyph-name="igrave" unicode="&#xec;" horiz-adv-x="278" 
d="M78 651q9 0 15 -6t25 -31q3 -3 14 -18t24 -31.5t23 -30t11 -13.5q2 -2 8.5 -11t6.5 -11t-11 -5q-2 0 -6.5 1.5t-15.5 9t-30.5 22t-51.5 39.5q-14 11 -32.5 24.5t-31.5 24.5q-4 3 -7 6.5t-3 8.5q0 3 2 7t13 6q14 4 28.5 6t18.5 2zM104 223q0 41 -0.5 65t-5 37.5t-14 18.5
t-26.5 7q-14 2 -16.5 3.5t-2.5 9.5q0 7 4.5 9.5t8.5 4.5q2 1 15.5 8t30 16t32 17t20.5 10q14 7 21 7t8 -2.5t1 -5.5t-0.5 -11.5t-1 -18.5t-1.5 -19t-1 -13q-1 -19 -1.5 -54.5t-0.5 -83.5v-36.5t0.5 -50.5t1.5 -49t2 -32q4 -23 19 -29t46 -8q10 0 12 -2t2 -10q0 -12 -10 -12
q-9 0 -40.5 1t-64.5 1q-6 0 -21.5 -0.5t-32 -0.5t-31 -0.5t-20.5 -0.5q-9 0 -9 9q0 8 2.5 10t12.5 4q27 5 37.5 13.5t15.5 22.5q3 8 4.5 30.5t2.5 48.5t1 50v36z" />
    <glyph glyph-name="iacute" unicode="&#xed;" horiz-adv-x="278" 
d="M199 651q6 0 20 -2.5t28 -5.5q9 -2 11.5 -5.5t2.5 -6.5q0 -7 -4 -11.5t-24 -18.5q-13 -10 -30 -23t-34 -26.5t-33.5 -26t-30.5 -22.5q-13 -9 -18 -9q-2 0 -8.5 1t-6.5 4l7.5 10t17 22t18 23.5t10.5 14.5q22 29 33.5 44t20.5 26q6 8 10 10t10 2zM104 223q0 41 -0.5 65
t-5 37.5t-14 18.5t-26.5 7q-14 2 -16.5 3.5t-2.5 9.5q0 7 4.5 9.5t8.5 4.5q2 1 15.5 8t30 16t32 17t20.5 10q14 7 21 7t8 -2.5t1 -5.5t-0.5 -11.5t-1 -18.5t-1.5 -19t-1 -13q-1 -19 -1.5 -54.5t-0.5 -83.5v-36.5t0.5 -50.5t1.5 -49t2 -32q4 -23 19 -29t46 -8q10 0 12 -2
t2 -10q0 -12 -10 -12q-9 0 -40.5 1t-64.5 1q-6 0 -21.5 -0.5t-32 -0.5t-31 -0.5t-20.5 -0.5q-9 0 -9 9q0 8 2.5 10t12.5 4q27 5 37.5 13.5t15.5 22.5q3 8 4.5 30.5t2.5 48.5t1 50v36z" />
    <glyph glyph-name="icircumflex" unicode="&#xee;" horiz-adv-x="278" 
d="M130 650q6 0 10.5 -5.5t21.5 -31.5q12 -19 20 -32t14.5 -23.5t12.5 -19t13 -18.5q5 -8 9 -14t4 -9q0 -5 -4.5 -7.5t-6.5 -2.5q-3 0 -17 13t-31 28.5t-31 28.5t-17 13t-17 -13t-30 -28t-30 -28t-18 -13q-2 0 -7 4.5t-5 7.5q0 2 7 12t13 17q20 28 35.5 52.5t33.5 53.5
q5 10 10 12.5t10 2.5zM104 223q0 41 -0.5 65t-5 37.5t-14 18.5t-26.5 7q-14 2 -16.5 3.5t-2.5 9.5q0 7 4.5 9.5t8.5 4.5q2 1 15.5 8t30 16t32 17t20.5 10q14 7 21 7t8 -2.5t1 -5.5t-0.5 -11.5t-1 -18.5t-1.5 -19t-1 -13q-1 -19 -1.5 -54.5t-0.5 -83.5v-36.5t0.5 -50.5
t1.5 -49t2 -32q4 -23 19 -29t46 -8q10 0 12 -2t2 -10q0 -12 -10 -12q-9 0 -40.5 1t-64.5 1q-6 0 -21.5 -0.5t-32 -0.5t-31 -0.5t-20.5 -0.5q-9 0 -9 9q0 8 2.5 10t12.5 4q27 5 37.5 13.5t15.5 22.5q3 8 4.5 30.5t2.5 48.5t1 50v36z" />
    <glyph glyph-name="idieresis" unicode="&#xef;" horiz-adv-x="278" 
d="M108 547q0 -19 -15 -31t-29 -12t-29 12t-15 31t14.5 31t29.5 12q14 0 29 -12.5t15 -30.5zM252 547q0 -19 -14.5 -31t-29.5 -12q-14 0 -29 12t-15 31q0 18 15 30.5t29 12.5q15 0 29.5 -12.5t14.5 -30.5zM104 223q0 41 -0.5 65t-5 37.5t-14 18.5t-26.5 7q-14 2 -16.5 3.5
t-2.5 9.5q0 7 4.5 9.5t8.5 4.5q2 1 15.5 8t30 16t32 17t20.5 10q14 7 21 7t8 -2.5t1 -5.5t-0.5 -11.5t-1 -18.5t-1.5 -19t-1 -13q-1 -19 -1.5 -54.5t-0.5 -83.5v-36.5t0.5 -50.5t1.5 -49t2 -32q4 -23 19 -29t46 -8q10 0 12 -2t2 -10q0 -12 -10 -12q-9 0 -40.5 1t-64.5 1
q-6 0 -21.5 -0.5t-32 -0.5t-31 -0.5t-20.5 -0.5q-9 0 -9 9q0 8 2.5 10t12.5 4q27 5 37.5 13.5t15.5 22.5q3 8 4.5 30.5t2.5 48.5t1 50v36z" />
    <glyph glyph-name="eth" unicode="&#xf0;" horiz-adv-x="537" 
d="M148 510q24 21 47 40.5t49 43.5q-9 10 -14.5 16l-11 12t-12 12.5l-17.5 17.5q-4 5 -10 11t-11.5 12t-9 10l-3.5 4q0 4 10 8.5t14 4.5q6 0 19.5 -10.5t28.5 -24t28.5 -26.5t19.5 -19q10 9 23 21l26 24t24 22.5t18 16.5l23 -26q-25 -20 -46.5 -40.5t-45.5 -40.5
q18 -19 51.5 -57t66 -88t56.5 -109t24 -121q0 -54 -19 -97t-52 -73.5t-76.5 -47t-92.5 -16.5t-88.5 16.5t-67 46t-42 69t-14.5 84.5q0 63 24 106t59 69.5t74 38t68 11.5q25 0 44.5 -5t34.5 -12t24.5 -14.5t15.5 -12.5q-11 22 -22 41t-25 39.5t-32 45t-44 56.5
q-23 -21 -46 -42.5t-46 -43.5zM121 239q0 -53 15.5 -93t39.5 -67t53 -41t57 -14q30 0 54.5 12t42 33.5t27 51.5t9.5 65q0 44 -13.5 82t-37 67t-53.5 45.5t-63 16.5q-27 0 -51 -11t-42 -32t-28 -50t-10 -65z" />
    <glyph glyph-name="ntilde" unicode="&#xf1;" horiz-adv-x="574" 
d="M442 620q5 -2 10 -6t5 -6t-5.5 -12t-10.5 -17q-14 -23 -35.5 -44.5t-47.5 -21.5q-20 0 -37.5 9.5t-31.5 19.5q-20 13 -32 19.5t-26 6.5q-12 0 -22 -5t-18 -12t-13.5 -14t-8.5 -11q-2 -2 -4.5 -6t-4.5 -4q-1 0 -8 3t-7 6q0 2 7.5 15t12.5 22q17 26 34.5 42.5t44.5 16.5
q8 0 14 -1t13.5 -5t19.5 -11.5t31 -19.5q12 -8 22.5 -13t24.5 -5q24 0 38 13t27 30zM369 426q42 0 64.5 -17t33 -41t12 -50t1.5 -43q0 -14 -0.5 -36t-0.5 -45t-0.5 -42t-0.5 -27q0 -36 1.5 -56t7 -29.5t17 -12t32.5 -4.5q15 -1 18.5 -2t3.5 -8q0 -11 -3 -12.5t-11 -1.5
q-24 0 -50.5 1t-52.5 1q-32 0 -58.5 -1t-37.5 -1q-6 0 -7.5 2t-1.5 8t1.5 8.5t11.5 3.5q26 3 36.5 12t13.5 21q3 11 4.5 31t2.5 42t1 43v34q0 52 -2.5 83.5t-16.5 51.5q-13 17 -34.5 24.5t-43.5 7.5t-45 -5t-41.5 -11.5t-31 -13t-14.5 -8.5q-1 -2 -2 -27.5t-2 -56.5t-1 -59
v-36q0 -42 1 -66.5t7 -37.5t17.5 -18t32.5 -7q15 -2 18.5 -3t3.5 -7q0 -10 -1.5 -13t-11.5 -3q-19 0 -45 1t-45 1q-6 0 -21.5 -0.5t-32 -0.5t-31 -0.5t-20.5 -0.5q-7 0 -9 1.5t-2 8.5q0 10 1.5 12t11.5 4q19 2 33 11.5t17 32.5q2 11 3.5 32t2 45l1 48t0.5 42v21.5t-0.5 32.5
t-1.5 31t-3 18q-6 11 -17 13t-40 2q-3 0 -4.5 1.5t-1.5 9.5q0 4 1.5 6.5t7.5 6t17.5 9t31.5 14.5q23 11 36 17.5t20.5 10t10.5 5t5 1.5q14 0 14 -4q0 -5 -0.5 -14.5t-1.5 -20t-1.5 -19.5t-0.5 -13q61 27 110.5 44.5t82.5 17.5z" />
    <glyph glyph-name="ograve" unicode="&#xf2;" horiz-adv-x="537" 
d="M163 609q-10 7 -13.5 12t-3.5 10q0 2 2 6t13 6q14 4 28 6t19 2q9 0 15 -6t25 -31q2 -3 13.5 -18t24.5 -31.5t23 -30.5l10 -14q2 -2 9 -10.5t7 -10.5q0 -3 -6.5 -4t-8.5 -1q-1 0 -3.5 1.5t-9 6t-18.5 13.5t-33 24zM43 204q0 60 21.5 102.5t56 70.5t77 41t84.5 13
q54 0 94 -18.5t66.5 -48.5t39.5 -68.5t13 -77.5q0 -49 -18.5 -91t-50.5 -72.5t-76 -47.5t-95 -17q-50 0 -89.5 17t-66.5 46t-41.5 68t-14.5 83zM121 239q0 -53 15.5 -93.5t39.5 -67.5t53.5 -40.5t56.5 -13.5q30 0 54 12t41 34t26 51.5t9 64.5q0 43 -13 81.5t-35.5 67
t-52.5 45.5t-63 17q-27 0 -50.5 -11t-41.5 -31.5t-28.5 -49.5t-10.5 -66z" />
    <glyph glyph-name="oacute" unicode="&#xf3;" horiz-adv-x="537" 
d="M308 639q6 8 10.5 10t10.5 2t20.5 -2.5t26.5 -5.5q10 -2 12.5 -5.5t2.5 -6.5q0 -7 -4.5 -11.5t-23.5 -18.5q-13 -10 -30 -23t-34 -26.5t-34 -26t-31 -22.5q-11 -9 -18 -9q-1 0 -7.5 1t-6.5 4l7.5 10t17 22t18 23.5t10.5 14.5zM43 204q0 60 21.5 102.5t56 70.5t77 41
t84.5 13q54 0 94 -18.5t66.5 -48.5t39.5 -68.5t13 -77.5q0 -49 -18.5 -91t-50.5 -72.5t-76 -47.5t-95 -17q-50 0 -89.5 17t-66.5 46t-41.5 68t-14.5 83zM121 239q0 -53 15.5 -93.5t39.5 -67.5t53.5 -40.5t56.5 -13.5q30 0 54 12t41 34t26 51.5t9 64.5q0 43 -13 81.5
t-35.5 67t-52.5 45.5t-63 17q-27 0 -50.5 -11t-41.5 -31.5t-28.5 -49.5t-10.5 -66z" />
    <glyph glyph-name="ocircumflex" unicode="&#xf4;" horiz-adv-x="537" 
d="M271 650q8 0 13 -5.5t24 -31.5q27 -38 42.5 -58t26.5 -34q5 -8 10 -14.5t5 -9.5q0 -5 -4.5 -7.5t-6.5 -2.5q-3 0 -20 13t-36.5 28.5t-36 28.5t-19.5 13q-4 0 -20 -13t-35 -28t-35.5 -28t-21.5 -13q-3 0 -7.5 4.5t-4.5 7.5q0 2 8 12t15 17q23 28 43 55.5t36 50.5
q7 10 12.5 12.5t11.5 2.5zM43 204q0 60 21.5 102.5t56 70.5t77 41t84.5 13q54 0 94 -18.5t66.5 -48.5t39.5 -68.5t13 -77.5q0 -49 -18.5 -91t-50.5 -72.5t-76 -47.5t-95 -17q-50 0 -89.5 17t-66.5 46t-41.5 68t-14.5 83zM121 239q0 -53 15.5 -93.5t39.5 -67.5t53.5 -40.5
t56.5 -13.5q30 0 54 12t41 34t26 51.5t9 64.5q0 43 -13 81.5t-35.5 67t-52.5 45.5t-63 17q-27 0 -50.5 -11t-41.5 -31.5t-28.5 -49.5t-10.5 -66z" />
    <glyph glyph-name="otilde" unicode="&#xf5;" horiz-adv-x="537" 
d="M404 620q1 0 8 -5t7 -7t-7 -15t-20 -30q-13 -18 -31.5 -34t-41.5 -16q-19 0 -37.5 10t-31.5 19q-20 14 -32 20t-25 6q-12 0 -22 -5t-18 -12t-13.5 -14t-8.5 -11q-2 -2 -4.5 -6t-4.5 -4t-8.5 3.5t-6.5 5.5t6.5 14t13.5 23q16 24 33.5 41.5t45.5 17.5q8 0 14 -1t13.5 -5
t19.5 -11.5t31 -19.5q12 -8 22.5 -13t24.5 -5q24 0 39 14t26 29zM43 204q0 60 21.5 102.5t56 70.5t77 41t84.5 13q54 0 94 -18.5t66.5 -48.5t39.5 -68.5t13 -77.5q0 -49 -18.5 -91t-50.5 -72.5t-76 -47.5t-95 -17q-50 0 -89.5 17t-66.5 46t-41.5 68t-14.5 83zM121 239
q0 -53 15.5 -93.5t39.5 -67.5t53.5 -40.5t56.5 -13.5q30 0 54 12t41 34t26 51.5t9 64.5q0 43 -13 81.5t-35.5 67t-52.5 45.5t-63 17q-27 0 -50.5 -11t-41.5 -31.5t-28.5 -49.5t-10.5 -66z" />
    <glyph glyph-name="odieresis" unicode="&#xf6;" horiz-adv-x="537" 
d="M43 204q0 60 21.5 102.5t56 70.5t77 41t84.5 13q54 0 94 -18.5t66.5 -48.5t39.5 -68.5t13 -77.5q0 -49 -18.5 -91t-50.5 -72.5t-76 -47.5t-95 -17q-50 0 -89.5 17t-66.5 46t-41.5 68t-14.5 83zM121 239q0 -53 15.5 -93.5t39.5 -67.5t53.5 -40.5t56.5 -13.5q30 0 54 12
t41 34t26 51.5t9 64.5q0 43 -13 81.5t-35.5 67t-52.5 45.5t-63 17q-27 0 -50.5 -11t-41.5 -31.5t-28.5 -49.5t-10.5 -66zM221 547q0 -18 -15 -30.5t-30 -12.5q-14 0 -29 11.5t-15 31.5q0 19 15 31t29 12q16 0 30.5 -13t14.5 -30zM405 547q0 -18 -15 -30.5t-30 -12.5
q-14 0 -29 11.5t-15 31.5q0 19 15 31t29 12q16 0 30.5 -13t14.5 -30z" />
    <glyph glyph-name="divide" unicode="&#xf7;" 
d="M451 340q3 0 7 -0.5t4 -5.5q0 -28 -0.5 -34t-4.5 -6h-398q-3 1 -3 32q0 10 2 12t5 2h388zM217 457q0 15 14 29.5t30 14.5q17 0 30.5 -14.5t13.5 -28.5t-13.5 -29t-29.5 -15q-15 0 -30 14t-15 29zM217 177q0 15 14 29t30 14q17 0 30.5 -14.5t13.5 -28.5t-13.5 -29
t-29.5 -15q-15 0 -30 14t-15 30z" />
    <glyph glyph-name="oslash" unicode="&#xf8;" horiz-adv-x="537" 
d="M43 -47q0 1 9 12t20.5 25l23 28t17.5 22q-7 6 -18.5 18t-23 32t-20 48.5t-8.5 67.5q0 57 21 99t54.5 70t76.5 42t87 14q51 0 80 -12.5t43 -21.5q6 6 13.5 15t14 18t12 16.5t7.5 10.5q3 4 23 4q16 0 19 -1q1 -2 -3 -6.5t-6 -6.5q-3 -4 -11 -14t-17 -21t-17 -20.5
t-11 -13.5q23 -21 36 -44.5t19.5 -45t8.5 -40t2 -30.5q0 -49 -18.5 -91t-50.5 -72.5t-76 -47.5t-95 -17q-48 0 -75.5 11t-42.5 21q-2 -3 -10.5 -14t-18.5 -24t-18 -23t-10 -10h-37v2zM163 94q21 26 41 51.5t42.5 55t49.5 65.5t61 81q-22 23 -48 36.5t-58 13.5q-20 0 -43 -8
t-42.5 -27t-32.5 -50.5t-13 -78.5q0 -56 15 -88.5t28 -50.5zM376 323q-41 -53 -66 -85t-43.5 -57t-37 -49t-46.5 -61q20 -20 44.5 -33.5t58.5 -13.5q30 0 54.5 12.5t41.5 34t26 51.5t9 64q0 75 -41 137z" />
    <glyph glyph-name="ugrave" unicode="&#xf9;" horiz-adv-x="574" 
d="M226 651q5 0 8 -0.5t6.5 -4t9.5 -11t16 -21.5q19 -25 31 -40.5t19.5 -25.5t12.5 -16t9 -12q2 -2 9 -10.5t7 -10.5q0 -3 -6.5 -4t-8.5 -1t-7 3t-16 11t-29.5 22t-48.5 36q-14 11 -31.5 24.5t-25.5 18.5q-10 7 -13.5 12t-3.5 10q0 2 2 6t13 6q14 4 28.5 6t18.5 2zM95 235
v33t-0.5 34.5t-2 30.5t-3.5 21q-5 14 -16.5 17t-29.5 5q-6 0 -7.5 2t-1.5 7q0 8 2.5 10.5t13.5 5.5q5 1 22.5 6t38 10t37.5 9.5t21 4.5q5 0 6 -2t1 -4q0 -5 -1.5 -22.5t-3.5 -45.5q-2 -42 -3 -72.5t-1 -61.5q0 -33 1.5 -65t10.5 -56.5t29 -40t56 -15.5q22 0 45 5t42.5 11.5
t32 13.5t13.5 10q2 4 3 26t1.5 51t1 61t0.5 56q0 39 -1 61t-7 33t-19 14.5t-37 5.5q-14 1 -16.5 2.5t-2.5 7.5q0 9 3 11t18 2q6 0 18 0.5t25 1.5t24.5 2t17.5 2q4 0 10.5 1t13.5 2t13 2t7 1q8 0 8 -10t-1.5 -34t-1.5 -71q0 -13 -1 -38.5t-1.5 -53t-1.5 -53t-1 -38.5
q0 -52 5.5 -68.5t29.5 -16.5q8 0 20 1.5t29 3.5q7 1 7 -9q1 -5 -0.5 -8.5t-9.5 -5.5q-8 -3 -28 -9t-42.5 -12t-43 -10.5t-30.5 -4.5q-5 0 -9.5 2t-4.5 12q0 11 1.5 28t2.5 23q-62 -31 -104 -48t-82 -17q-26 0 -51.5 11t-42.5 33q-16 21 -19.5 41.5t-3.5 50.5z" />
    <glyph glyph-name="uacute" unicode="&#xfa;" horiz-adv-x="574" 
d="M348 651q5 0 19 -2.5t28 -5.5q10 -2 12.5 -5.5t2.5 -6.5q0 -7 -4.5 -11.5t-24.5 -18.5q-13 -10 -29.5 -23t-33.5 -26.5t-34 -26t-31 -22.5q-13 -9 -18 -9q-1 0 -7.5 1t-6.5 4l7.5 10l16.5 22t17.5 23.5t11.5 14.5q14 19 22.5 30.5t14 18.5t9 11.5t7.5 9.5q6 8 10 10t11 2
zM95 235v33t-0.5 34.5t-2 30.5t-3.5 21q-5 14 -16.5 17t-29.5 5q-6 0 -7.5 2t-1.5 7q0 8 2.5 10.5t13.5 5.5q5 1 22.5 6t38 10t37.5 9.5t21 4.5q5 0 6 -2t1 -4q0 -5 -1.5 -22.5t-3.5 -45.5q-2 -42 -3 -72.5t-1 -61.5q0 -33 1.5 -65t10.5 -56.5t29 -40t56 -15.5q22 0 45 5
t42.5 11.5t32 13.5t13.5 10q2 4 3 26t1.5 51t1 61t0.5 56q0 39 -1 61t-7 33t-19 14.5t-37 5.5q-14 1 -16.5 2.5t-2.5 7.5q0 9 3 11t18 2q6 0 18 0.5t25 1.5t24.5 2t17.5 2q4 0 10.5 1t13.5 2t13 2t7 1q8 0 8 -10t-1.5 -34t-1.5 -71q0 -13 -1 -38.5t-1.5 -53t-1.5 -53
t-1 -38.5q0 -52 5.5 -68.5t29.5 -16.5q8 0 20 1.5t29 3.5q7 1 7 -9q1 -5 -0.5 -8.5t-9.5 -5.5q-8 -3 -28 -9t-42.5 -12t-43 -10.5t-30.5 -4.5q-5 0 -9.5 2t-4.5 12q0 11 1.5 28t2.5 23q-62 -31 -104 -48t-82 -17q-26 0 -51.5 11t-42.5 33q-16 21 -19.5 41.5t-3.5 50.5z" />
    <glyph glyph-name="ucircumflex" unicode="&#xfb;" horiz-adv-x="574" 
d="M290 650q7 0 12.5 -5.5t23.5 -31.5q17 -24 34 -46.5t35 -45.5q5 -7 10.5 -14t5.5 -10q0 -5 -4.5 -7.5t-6.5 -2.5q-3 0 -20 13t-36.5 28.5t-36 28.5t-19.5 13q-4 0 -20.5 -13t-35.5 -28t-35.5 -28t-20.5 -13q-3 0 -8 4.5t-5 7.5q0 2 8.5 12t14.5 17q12 15 21.5 27t18.5 24
t18.5 25t21.5 30q6 9 11.5 12t12.5 3zM95 235v33t-0.5 34.5t-2 30.5t-3.5 21q-5 14 -16.5 17t-29.5 5q-6 0 -7.5 2t-1.5 7q0 8 2.5 10.5t13.5 5.5q5 1 22.5 6t38 10t37.5 9.5t21 4.5q5 0 6 -2t1 -4q0 -5 -1.5 -22.5t-3.5 -45.5q-2 -42 -3 -72.5t-1 -61.5q0 -33 1.5 -65
t10.5 -56.5t29 -40t56 -15.5q22 0 45 5t42.5 11.5t32 13.5t13.5 10q2 4 3 26t1.5 51t1 61t0.5 56q0 39 -1 61t-7 33t-19 14.5t-37 5.5q-14 1 -16.5 2.5t-2.5 7.5q0 9 3 11t18 2q6 0 18 0.5t25 1.5t24.5 2t17.5 2q4 0 10.5 1t13.5 2t13 2t7 1q8 0 8 -10t-1.5 -34t-1.5 -71
q0 -13 -1 -38.5t-1.5 -53t-1.5 -53t-1 -38.5q0 -52 5.5 -68.5t29.5 -16.5q8 0 20 1.5t29 3.5q7 1 7 -9q1 -5 -0.5 -8.5t-9.5 -5.5q-8 -3 -28 -9t-42.5 -12t-43 -10.5t-30.5 -4.5q-5 0 -9.5 2t-4.5 12q0 11 1.5 28t2.5 23q-62 -31 -104 -48t-82 -17q-26 0 -51.5 11t-42.5 33
q-16 21 -19.5 41.5t-3.5 50.5z" />
    <glyph glyph-name="udieresis" unicode="&#xfc;" horiz-adv-x="574" 
d="M239 547q0 -18 -14.5 -30.5t-29.5 -12.5q-14 0 -29 11.5t-15 31.5q0 19 15 31t29 12q15 0 29.5 -13t14.5 -30zM423 547q0 -18 -14.5 -30.5t-29.5 -12.5q-14 0 -29 11.5t-15 31.5q0 19 15 31t29 12q15 0 29.5 -13t14.5 -30zM95 235v33t-0.5 34.5t-2 30.5t-3.5 21
q-5 14 -16.5 17t-29.5 5q-6 0 -7.5 2t-1.5 7q0 8 2.5 10.5t13.5 5.5q5 1 22.5 6t38 10t37.5 9.5t21 4.5q5 0 6 -2t1 -4q0 -5 -1.5 -22.5t-3.5 -45.5q-2 -42 -3 -72.5t-1 -61.5q0 -33 1.5 -65t10.5 -56.5t29 -40t56 -15.5q22 0 45 5t42.5 11.5t32 13.5t13.5 10q2 4 3 26
t1.5 51t1 61t0.5 56q0 39 -1 61t-7 33t-19 14.5t-37 5.5q-14 1 -16.5 2.5t-2.5 7.5q0 9 3 11t18 2q6 0 18 0.5t25 1.5t24.5 2t17.5 2q4 0 10.5 1t13.5 2t13 2t7 1q8 0 8 -10t-1.5 -34t-1.5 -71q0 -13 -1 -38.5t-1.5 -53t-1.5 -53t-1 -38.5q0 -52 5.5 -68.5t29.5 -16.5
q8 0 20 1.5t29 3.5q7 1 7 -9q1 -5 -0.5 -8.5t-9.5 -5.5q-8 -3 -28 -9t-42.5 -12t-43 -10.5t-30.5 -4.5q-5 0 -9.5 2t-4.5 12q0 11 1.5 28t2.5 23q-62 -31 -104 -48t-82 -17q-26 0 -51.5 11t-42.5 33q-16 21 -19.5 41.5t-3.5 50.5z" />
    <glyph glyph-name="yacute" unicode="&#xfd;" horiz-adv-x="444" 
d="M325 651q5 0 19 -2.5t28 -5.5q9 -2 12 -5.5t3 -6.5q0 -7 -5 -12t-25 -20q-28 -21 -46.5 -34.5t-30.5 -23t-20 -16t-16 -12.5q-5 -4 -16 -11.5t-16 -7.5q-1 0 -7.5 1t-6.5 4l7.5 10t17 22.5t18 23.5t10.5 14q15 19 23.5 30.5t14 18.5t8.5 11.5t7 9.5q6 8 10.5 10t10.5 2z
M231 81q31 65 49.5 103t29.5 61t16.5 35t10.5 24q6 14 13.5 32t7.5 32q0 18 -9 22t-37 8q-8 1 -8 11q0 8 1.5 10.5t8.5 2.5q10 0 26 -1t46 -1q12 0 30.5 1t26.5 1t11.5 -1t3.5 -7q0 -5 -1 -8.5t-7 -7.5q-7 -4 -16.5 -14.5t-18.5 -24.5t-17.5 -29t-15.5 -27
q-24 -42 -53.5 -96.5t-61 -116t-63.5 -128t-60 -132.5q-14 -33 -23 -53t-19.5 -30.5t-24.5 -13.5t-38 -3q-16 0 -22.5 3t-6.5 16q0 14 4 18t17 10q26 13 43.5 34t30.5 38q10 15 23.5 37t25.5 43.5t20 38t8 19.5q-31 96 -59 176q-17 49 -28 79t-22.5 58t-22.5 50.5t-19 33.5
q-5 6 -8.5 9t-14.5 8q-3 2 -3 8t1 9.5t7 3.5q5 0 18 -0.5t27 -0.5t26.5 -0.5t17.5 -0.5t16 0.5t24 0.5t24 0.5t15 0.5q7 -1 9.5 -2.5t2.5 -9.5q0 -7 -1.5 -9.5t-9.5 -3.5q-17 -2 -30.5 -6.5t-13.5 -21.5q0 -12 8.5 -43t22 -72t30 -86.5t32.5 -86.5z" />
    <glyph glyph-name="thorn" unicode="&#xfe;" horiz-adv-x="556" 
d="M174 390q39 15 80.5 28t81.5 13q33 0 65 -13t56.5 -38.5t40 -63t15.5 -85.5q0 -59 -22 -104t-58 -75t-81 -45t-91 -15q-31 0 -52.5 4.5t-35.5 9.5q-1 -39 -0.5 -86.5t2.5 -104.5q2 -36 16 -46.5t54 -12.5q9 -1 11.5 -3t2.5 -11q0 -12 -11 -12q-7 0 -23 0.5t-34 1.5
q-17 0 -33 0.5t-22 0.5t-16.5 -0.5t-22.5 -0.5q-13 -1 -26.5 -1.5t-27.5 -0.5q-6 0 -8 1.5t-2 9.5t2 9.5t12 3.5q19 3 29 10t15.5 20.5t7 34.5t2.5 52q1 19 1.5 43.5t0.5 51v53.5v52q0 32 0.5 72.5t0.5 82.5t0.5 82.5t0.5 73.5v49t-0.5 70.5t-2 68t-3.5 41.5q-5 19 -15.5 27
t-41.5 8q-8 0 -9.5 1.5t-1.5 7.5q0 8 1.5 9.5t12.5 5.5q9 3 28 9.5t39.5 12.5t37.5 10.5t23 4.5q4 0 7.5 -1t3.5 -6q0 -2 -1 -11t-2 -20t-2 -21.5t-1 -14.5q-1 -12 -1.5 -26t-1 -39.5t-1 -67t-0.5 -110.5zM172 67q32 -12 62 -21t72 -9q29 0 51 7t39 24q28 27 37 62.5t9 60.5
q0 33 -10.5 67t-32 62t-54 46t-76.5 18q-26 0 -50.5 -5.5t-44.5 -10.5q-1 -34 -1.5 -74t-0.5 -80.5v-78.5v-68z" />
    <glyph glyph-name="ydieresis" unicode="&#xff;" horiz-adv-x="444" 
d="M191 547q0 -18 -14.5 -30.5t-29.5 -12.5q-14 0 -29 11.5t-15 31.5q0 19 15 31t29 12q15 0 29.5 -13t14.5 -30zM375 547q0 -18 -14.5 -30.5t-29.5 -12.5q-14 0 -29 11.5t-15 31.5q0 19 15 31t29 12q15 0 29.5 -13t14.5 -30zM231 81q31 65 49.5 103t29.5 61t16.5 35
t10.5 24q6 14 13.5 32t7.5 32q0 18 -9 22t-37 8q-8 1 -8 11q0 8 1.5 10.5t8.5 2.5q10 0 26 -1t46 -1q12 0 30.5 1t26.5 1t11.5 -1t3.5 -7q0 -5 -1 -8.5t-7 -7.5q-7 -4 -16.5 -14.5t-18.5 -24.5t-17.5 -29t-15.5 -27q-24 -42 -53.5 -96.5t-61 -116t-63.5 -128t-60 -132.5
q-14 -33 -23 -53t-19.5 -30.5t-24.5 -13.5t-38 -3q-16 0 -22.5 3t-6.5 16q0 14 4 18t17 10q26 13 43.5 34t30.5 38q10 15 23.5 37t25.5 43.5t20 38t8 19.5q-31 96 -59 176q-17 49 -28 79t-22.5 58t-22.5 50.5t-19 33.5q-5 6 -8.5 9t-14.5 8q-3 2 -3 8t1 9.5t7 3.5
q5 0 18 -0.5t27 -0.5t26.5 -0.5t17.5 -0.5t16 0.5t24 0.5t24 0.5t15 0.5q7 -1 9.5 -2.5t2.5 -9.5q0 -7 -1.5 -9.5t-9.5 -3.5q-17 -2 -30.5 -6.5t-13.5 -21.5q0 -12 8.5 -43t22 -72t30 -86.5t32.5 -86.5z" />
    <glyph glyph-name="dotlessi" unicode="&#x131;" horiz-adv-x="278" 
d="M104 223q0 41 -0.5 65t-5 37.5t-14 18.5t-26.5 7q-14 2 -16.5 3.5t-2.5 9.5q0 7 4.5 9.5t8.5 4.5q2 1 15.5 8t30 16t32 17t20.5 10q14 7 21 7t8 -2.5t1 -5.5t-0.5 -11.5t-1 -18.5t-1.5 -19t-1 -13q-1 -19 -1.5 -54.5t-0.5 -83.5v-36.5t0.5 -50.5t1.5 -49t2 -32
q4 -23 19 -29t46 -8q10 0 12 -2t2 -10q0 -12 -10 -12q-9 0 -40.5 1t-64.5 1q-6 0 -21.5 -0.5t-32 -0.5t-31 -0.5t-20.5 -0.5q-9 0 -9 9q0 8 2.5 10t12.5 4q27 5 37.5 13.5t15.5 22.5q3 8 4.5 30.5t2.5 48.5t1 50v36z" />
    <glyph glyph-name="Lslash" unicode="&#x141;" horiz-adv-x="556" 
d="M127 371v94q0 42 -1.5 68.5t-6 42.5t-13.5 23t-24 10q-25 4 -30.5 5.5t-5.5 6.5q0 11 2 13t8 2q7 0 23.5 -0.5t34.5 -1.5t34 -1.5t22 -0.5q7 0 24.5 0.5t36.5 1.5t36 1.5t23 0.5q10 0 10 -10q0 -9 -2.5 -11t-14.5 -3q-36 -3 -49 -13t-19 -27q-4 -11 -6 -61.5t-4 -148.5
q36 25 57 40t34.5 25t22.5 16.5t20 14.5q22 17 27 19t5 -2q0 -26 -1 -34t-6 -11l-45 -30q-7 -5 -23.5 -16.5t-34.5 -24t-34 -23.5t-22 -16q0 -79 0.5 -140.5t3.5 -90.5q2 -16 5 -25.5t10.5 -14t21 -5.5t36.5 -1q53 0 91.5 1.5t65.5 10.5t45 29t30 57q5 13 7 21t7 8
q12 0 15.5 -2.5t3.5 -7.5t-4.5 -36t-23.5 -100q-3 -13 -5.5 -20t-9.5 -7t-17.5 1t-33.5 2t-63 2t-108 1q-110 0 -164.5 -3t-66.5 -3q-14 0 -14 11q0 10 2.5 11.5t12.5 2.5q22 2 34.5 8.5t19.5 15.5t9.5 19.5t3.5 20.5q2 12 3.5 34.5t2.5 49.5t1 54.5v48.5q-20 -14 -32 -22.5
t-19.5 -14t-12.5 -9t-11 -8.5q-7 -5 -16 -12t-11 -7t-2 9q0 22 0.5 29.5t4.5 9.5q6 4 19.5 13.5t29 20t30 20.5t21.5 15v54z" />
    <glyph glyph-name="lslash" unicode="&#x142;" horiz-adv-x="278" 
d="M174 361v-64t1 -93.5t2.5 -90t4.5 -54.5q5 -19 19 -25.5t50 -10.5q9 -1 11.5 -2t2.5 -9q0 -6 -1.5 -9.5t-8.5 -3.5q-8 0 -28 0.5t-42 0.5t-41.5 0.5t-27.5 0.5q-4 0 -17.5 -0.5t-28 -0.5t-26.5 -0.5t-14 -0.5q-6 0 -6 11q0 8 3 10t12 3q34 5 44 18t13 30q2 12 3 31.5
t2 49t1.5 71t0.5 98.5l-14 -11q-3 -2 -12 -9t-20 -14.5t-20 -14t-12 -7.5q-2 -1 -2 20q0 7 1 13t3 8q15 11 37.5 26t39.5 26v53t-0.5 77.5t-1.5 75.5t-4 47q-5 24 -17.5 28.5t-43.5 6.5q-5 1 -6 2.5t-1 6.5q0 8 3.5 10.5t19.5 7.5q11 3 28 9t35 11.5t34.5 9.5t24.5 4
q3 0 6.5 -1t3.5 -6q0 -7 -1.5 -24t-3.5 -36.5t-3.5 -37.5t-1.5 -28q0 -29 -0.5 -71.5t-0.5 -105.5l13 9q28 20 46.5 33.5t20.5 14.5q3 2 3 -20q0 -7 -0.5 -12t-2.5 -6q-7 -5 -16.5 -11t-16.5 -11z" />
    <glyph glyph-name="OE" unicode="&#x152;" horiz-adv-x="1018" 
d="M630 350h93t56 0.5t31 1t17 1.5q33 5 42.5 21.5t11.5 43.5q2 8 3.5 11.5t9.5 3.5t9 -4t1 -10q0 -5 -0.5 -14.5t-0.5 -21t-0.5 -22t-0.5 -16.5q0 -17 1 -44.5t1 -55.5v-9q0 -6 -2.5 -7.5t-10.5 -1.5t-9.5 4t-2.5 12q-3 37 -20 50.5t-47 17.5q-10 2 -34.5 2.5t-53 1t-55 1
t-39.5 0.5v-50.5t0.5 -78.5t1 -75.5t1.5 -42.5q2 -11 7 -17.5t16.5 -9.5t31 -3.5t49.5 -0.5q50 0 85 3.5t60 14t42 30.5t30 54q5 15 7.5 20.5t6.5 5.5q5 0 11.5 -2t6.5 -9q0 -6 -3.5 -23.5t-8 -37.5t-9 -39.5t-7.5 -30.5t-6.5 -19.5t-11.5 -8.5q-14 0 -31.5 1.5t-46.5 1.5
q-9 0 -27 0.5t-40 0.5t-46 0.5t-44 0.5q-74 0 -119.5 -2t-76.5 -4t-56 -4t-58 -2q-69 0 -120 14t-95 44q-55 39 -92 105.5t-37 159.5q0 56 18.5 114.5t61.5 107.5t112 80t169 31q47 0 96.5 -6.5t87.5 -6.5q17 0 59.5 0.5t90 1t90.5 1t62 0.5l55 1q2 0 6 -1t4 -8
q-2 -18 -4 -34q-2 -14 -3.5 -26t-1.5 -17q-1 -15 -1.5 -30t-0.5 -23q0 -5 -1.5 -10.5t-6.5 -5.5q-14 0 -16.5 3t-4.5 17q-2 29 -6 48t-20.5 30t-50.5 15t-97 4h-24t-37 -1t-35 -3t-19 -5q-4 -4 -4 -63v-176zM144 336q0 -68 14.5 -117.5t38 -84t52.5 -56.5t58.5 -34t56.5 -16
t46 -4q26 0 49.5 2.5t41.5 9.5t29 19.5t13 31.5q2 18 3 52.5t1.5 78t1 90.5t0.5 89v74v46q0 48 -41 70.5t-114 22.5q-77 0 -126 -29t-76.5 -71.5t-37.5 -90t-10 -83.5z" />
    <glyph glyph-name="oe" unicode="&#x153;" horiz-adv-x="796" 
d="M43 206q0 56 20.5 98t54 70.5t76.5 42.5t88 14q36 0 64.5 -8.5t49 -20.5t33.5 -24.5t19 -20.5q5 7 15 19.5t27.5 24.5t44.5 21t65 9q39 0 65.5 -11t43.5 -28t27 -37.5t16 -40.5q2 -6 4 -7t6 -1q7 0 8 -4t1 -21q0 -8 -5 -10.5t-26 -5.5q-4 0 -28.5 -4.5t-60.5 -11
t-78.5 -15t-83.5 -17.5q1 -25 6.5 -55.5t20 -57.5t40 -45t67.5 -18q6 0 20 1t32 5.5t39.5 14t42.5 26.5h6v-15q0 -7 -3 -12t-17 -15q-30 -21 -55 -32.5t-45.5 -16.5t-35 -6t-22.5 -1q-40 0 -66 9.5t-42.5 23t-25 27.5t-12.5 23q-33 -45 -83.5 -64t-104.5 -19q-44 0 -82 15.5
t-66 44t-44 68t-16 88.5zM121 239q0 -53 15.5 -93.5t39.5 -67.5t53.5 -40.5t56.5 -13.5q24 0 47.5 9t42 29t30.5 51t12 75q0 50 -12.5 88.5t-34.5 65.5t-52 41t-64 14q-33 0 -58.5 -13t-42 -35t-25 -50.5t-8.5 -59.5zM674 304q0 12 -7 28.5t-20 31t-30 25t-38 10.5
q-26 0 -43 -14t-27 -36t-14.5 -49.5t-5.5 -54.5q11 2 22.5 4.5t28.5 6t40.5 9t56.5 14.5q23 5 30 11t7 14z" />
    <glyph glyph-name="Scaron" unicode="&#x160;" horiz-adv-x="537" 
d="M272 708q-9 0 -13.5 3.5t-18.5 19.5q-28 34 -58 65t-62 61q-5 6 -6.5 7t-1.5 3q0 3 5 8t8 5q2 0 24.5 -15.5t48.5 -33.5t48.5 -33.5t24.5 -15.5q3 0 24.5 15.5t46.5 33.5t46.5 33.5t24.5 15.5q4 0 8.5 -5t4.5 -8q0 -1 -4 -5.5t-9 -9.5t-9.5 -10t-6.5 -7
q-21 -21 -35.5 -37t-26 -28.5t-20.5 -23.5t-18 -23q-7 -8 -11.5 -11.5t-13.5 -3.5zM269 27q27 0 51 8.5t42 24t28.5 38t10.5 49.5q0 26 -8 45t-26 34.5t-46 30t-68 32.5q-37 17 -59 27.5t-36 18t-22.5 14.5t-19.5 17q-16 15 -24.5 30.5t-13 29.5t-5.5 25.5t-1 19.5
q0 41 15 73t43 54.5t66.5 34.5t86.5 12q19 0 42.5 -1.5t44.5 -3.5t36 -4t17 -2q5 0 8 3q2 1 4 1.5t6 0.5q5 0 6 -3t1 -8q0 -8 -1.5 -36t3.5 -62q2 -14 3 -22t1 -13t-6.5 -7t-11.5 -2t-7 4t-7 20q-4 12 -12.5 30t-25 34t-43.5 27.5t-70 11.5q-22 0 -44 -7t-38.5 -21
t-27 -35.5t-10.5 -50.5q0 -28 9 -47.5t29 -35.5t54 -32t83 -38q26 -11 54.5 -25.5t52.5 -35.5t40 -51t16 -72q0 -45 -19 -77.5t-42 -49.5t-63.5 -31.5t-113.5 -14.5q-62 0 -103.5 7.5t-55.5 7.5q-8 0 -10.5 -4.5t-10.5 -4.5t-9.5 3.5t-3.5 18.5q-1 9 -3.5 27t-4.5 39.5
l-4 43t-2 36.5q0 8 6 12t14 4q7 0 9 -10q3 -24 14.5 -49t34.5 -45.5t59 -34t88 -13.5z" />
    <glyph glyph-name="scaron" unicode="&#x161;" horiz-adv-x="389" 
d="M219 431q27 0 52 -4t32 -4q2 0 5.5 1t6.5 1q5 0 6 -2.5t2 -11.5q2 -23 4 -46.5t2 -36.5q0 -7 -2.5 -9t-12.5 -2q-5 0 -6.5 2t-4.5 10q-1 2 -6.5 13.5t-17.5 24.5t-31.5 23t-47.5 10q-23 0 -37.5 -7t-22.5 -17t-10.5 -21t-2.5 -19q0 -17 6 -29t20 -23t36.5 -22.5
t54.5 -26.5q16 -8 34.5 -18.5t35 -25.5t27.5 -35t11 -48q0 -44 -24 -68t-54.5 -35t-59 -13t-37.5 -2q-42 0 -73 6t-42 6q-10 0 -13.5 1t-3.5 9q0 5 1 20.5t1 23.5q0 4 -0.5 13.5t-1.5 20t-1.5 19.5t-0.5 11q0 4 3 6t12 2q4 0 5.5 -2.5t3.5 -13.5q6 -24 19 -41t30.5 -28
t37.5 -16.5t39 -5.5q23 0 39 6.5t26 16.5t14 23t4 25q0 35 -26 55t-67 39q-24 11 -46 23t-39 26.5t-27 34t-10 45.5q0 18 7 38t25 37.5t48.5 29t77.5 11.5zM197 498q-5 0 -8.5 0.5t-7 4.5t-9.5 11.5t-16 21.5t-26.5 36.5t-36.5 45.5q-6 8 -14.5 17.5t-8.5 11.5q0 3 5 8t8 5
q4 0 20.5 -13t35.5 -28.5t35.5 -28.5t19.5 -13t20 13t36.5 29t36.5 29t20 13q1 0 6 -2.5t5 -8.5q0 -3 -4.5 -9t-12.5 -15q-18 -23 -34.5 -45.5t-33.5 -45.5q-18 -26 -23.5 -31.5t-12.5 -5.5z" />
    <glyph glyph-name="Ydieresis" unicode="&#x178;" horiz-adv-x="574" 
d="M395 821q20 0 34 -15t14 -32q0 -18 -14.5 -32.5t-32.5 -14.5q-17 0 -33 13.5t-16 33.5t15.5 33.5t32.5 13.5zM179 821q19 0 33 -15t14 -32q0 -18 -14.5 -32.5t-32.5 -14.5q-17 0 -32.5 13.5t-15.5 33.5t15.5 33.5t32.5 13.5zM305 318q14 20 37.5 56t47 75t40.5 73.5
t17 50.5q0 20 -15.5 28t-53.5 13q-5 1 -6.5 3t-1.5 10q0 6 4 7t9 1q23 0 51 -0.5t52 -0.5q15 0 38.5 0.5t45.5 0.5q9 0 12.5 -1t3.5 -8t-2 -8.5t-12 -5.5q-12 -4 -27 -15.5t-40 -42t-63.5 -86t-96.5 -148.5q-9 -15 -17 -27t-8 -16v-42v-50.5t0.5 -48.5t1.5 -36q1 -22 4 -35
t10.5 -20.5t21.5 -11.5t37 -8q14 -2 17.5 -4t3.5 -9q0 -10 -3 -12t-9 -2q-10 0 -45.5 1.5t-102.5 1.5q-12 0 -27 -0.5t-28.5 -1t-24.5 -1t-16 -0.5q-7 0 -9.5 2t-2.5 13q0 6 2.5 8t13.5 3q38 5 53 16.5t19 28.5q2 10 3 38.5t2 59.5t1 57.5v32.5q0 8 -3 13.5t-8 13.5
q-47 78 -80.5 132t-57 89.5t-39 56t-25.5 31t-17 14.5t-14 7q-3 2 -4 3.5t-1 8.5q0 6 2 7.5t7 1.5q26 0 55 -0.5t49 -0.5h25.5t28.5 0.5t26 0.5h19t8 -3t1 -8q0 -6 -2 -9t-14 -3q-4 0 -12.5 -0.5t-17 -3t-15 -7t-6.5 -13.5q0 -8 9.5 -28t24.5 -46.5t33.5 -56t36 -57
t32 -49.5t22.5 -33z" />
    <glyph glyph-name="Zcaron" unicode="&#x17d;" horiz-adv-x="611" 
d="M326 708q-10 0 -14 3.5t-18 19.5q-4 5 -35 40t-85 87q-6 5 -7.5 6t-1.5 3q0 3 5 8t9 5q2 0 24 -15.5t48.5 -33.5t48.5 -33.5t25 -15.5t24.5 15.5t46.5 33.5t46.5 33.5t24.5 15.5q4 0 8 -5.5t4 -7.5q0 -1 -3.5 -5.5t-8.5 -9.5t-9.5 -10t-6.5 -7q-20 -20 -34 -35t-25 -27
t-20.5 -23.5t-20.5 -25.5q-7 -8 -11.5 -12t-13.5 -4zM459 598q-111 -1 -175 -3t-100 -11t-52 -26.5t-30 -49.5q-5 -12 -9 -22.5t-6 -14.5q-3 -4 -10 -4q-10 0 -12.5 2.5t-2.5 6.5q0 8 7.5 47.5t25.5 101.5q4 11 5 13.5t5 2.5q5 0 7.5 -1t6.5 -3q5 -2 27.5 -3.5t49.5 -2
t52.5 -0.5h35.5q74 0 147.5 1.5t147.5 1.5q8 0 8 -7q0 -5 -4.5 -11.5t-21.5 -29.5q-46 -59 -86.5 -110.5t-78 -101t-74.5 -99t-77 -105.5l-95 -134q36 0 83 1t92.5 3.5t83 7t55.5 10.5q21 8 36 22t26 30t18.5 33t13.5 30q2 5 6 5.5t9 0.5t8.5 -1t3.5 -8q0 -12 -3.5 -29.5
t-9.5 -37.5t-12.5 -41.5t-12.5 -39.5q-5 -15 -8 -20.5t-8 -5.5t-9.5 2t-9.5 2q-19 1 -43 1.5t-49 0.5h-48.5h-40.5q-88 0 -140.5 -0.5t-82.5 -1.5t-44 -1.5t-25 -0.5q-10 0 -11.5 3t-1.5 11q0 7 3 11l9 12q6 9 16.5 22t34.5 43t65.5 83.5t109.5 143.5q21 28 36.5 49t35 48
t48 67.5t75.5 106.5z" />
    <glyph glyph-name="zcaron" unicode="&#x17e;" horiz-adv-x="444" 
d="M253 498q-5 0 -8.5 0.5t-7 4.5t-9.5 11.5t-16 21.5q-14 20 -29.5 41t-41.5 51q-10 11 -12 14t-2 5q0 3 4.5 8t7.5 5q4 0 21 -13t36 -28.5t35.5 -28.5t19.5 -13q2 0 7 3.5t11 8.5t11.5 10t8.5 7q4 3 15.5 11.5t24 18.5t23 17.5t11.5 7.5q2 0 6.5 -3t4.5 -8q0 -3 -6 -11
t-11 -13q-17 -23 -34 -45.5t-34 -45.5q-18 -25 -23 -31t-13 -6zM63 360q5 23 6.5 37.5t3.5 25.5q0 6 7 6q4 0 8.5 -1.5t14.5 -3.5t26.5 -4t45.5 -2h83t63 1t56 2t33 1t12 -1.5t5 -9.5q0 -3 -5.5 -9t-18.5 -20.5t-35.5 -41t-56.5 -70.5q-26 -33 -47 -60.5t-41 -55.5
t-41.5 -58.5t-47.5 -68.5q78 3 124 6t73.5 12t42 27.5t28.5 51.5q4 8 9 8q3 0 10 -2t7 -8q0 -8 -4.5 -24.5t-10.5 -34t-11.5 -33t-7.5 -20.5q-5 -14 -10 -14q-2 0 -10.5 2t-11.5 3q-15 1 -32 1.5t-49 0.5q-35 0 -70 -0.5t-70 -1.5q-6 0 -22 -0.5t-33.5 -1t-32.5 -1t-19 -0.5
q-6 0 -9 1t-3 6q0 6 1.5 9t12.5 15q15 17 30.5 35t34 40.5t41.5 51t52 67.5q32 43 63.5 85t61.5 86q-77 -3 -118 -5.5t-64 -8.5q-25 -8 -37.5 -28t-24.5 -46q-5 -11 -9 -11q-3 0 -10 2t-6 6z" />
    <glyph glyph-name="florin" unicode="&#x192;" 
d="M105 309q-2 0 -2 5.5t2 11.5q2 8 2.5 11.5t4.5 3.5h71q16 81 39 139t69 100q30 28 66.5 46.5t77.5 18.5q25 0 42.5 -6t29 -15.5t16.5 -20t5 -19.5q0 -14 -10.5 -25t-33.5 -11q-13 0 -17.5 6t-10.5 18q-3 6 -13 17.5t-35 11.5q-31 0 -63.5 -27t-49.5 -84
q-10 -32 -18.5 -70.5t-15.5 -78.5h97q3 0 3 -3.5t-2 -17.5q-1 -5 -1.5 -8t-4.5 -3l-97 -1q-16 -97 -27.5 -160.5t-22 -105t-21 -67.5t-25.5 -48q-29 -43 -68 -68t-76 -25q-30 0 -42.5 14t-12.5 22t11 22.5t23 14.5q9 0 15 -4.5t12 -10t13.5 -10t19.5 -4.5q11 0 20.5 5.5
t18 19.5t16.5 38.5t15 62.5q2 12 6.5 37.5t10 58t11.5 68t11 65.5l8.5 51t4.5 25h-72z" />
    <glyph glyph-name="circumflex" unicode="&#x2c6;" horiz-adv-x="500" 
d="M253 650q7 0 12 -5.5t24 -31.5q17 -23 33.5 -46t34.5 -45q8 -10 12.5 -16t4.5 -9q0 -5 -4.5 -7.5t-6.5 -2.5q-3 0 -20 13t-36.5 28.5t-36.5 28.5t-20 13t-19.5 -13t-35.5 -28t-35.5 -28t-20.5 -13q-3 0 -8 4.5t-5 7.5q0 2 8.5 12t14.5 17q23 26 41 51t39 55q7 10 12 12.5
t12 2.5z" />
    <glyph glyph-name="caron" unicode="&#x2c7;" horiz-adv-x="500" 
d="M253 498q-5 0 -8.5 0.5t-7 4.5t-9.5 11.5t-16 21.5t-26.5 36.5t-36.5 45.5q-6 8 -14.5 17.5t-8.5 11.5q0 3 5 8t8 5q4 0 20.5 -13t35.5 -28.5t35.5 -28.5t19.5 -13t20 13t36.5 29t36.5 29t20 13q1 0 6 -2.5t5 -8.5q0 -3 -4.5 -9t-12.5 -15q-18 -23 -34.5 -45.5
t-33.5 -45.5q-18 -26 -23.5 -31.5t-12.5 -5.5z" />
    <glyph glyph-name="breve" unicode="&#x2d8;" horiz-adv-x="500" 
d="M251 545q39 0 65 21.5t33 51.5q2 12 6 12h8.5t8.5 -1q4 0 4 -4q0 -24 -7.5 -47.5t-23.5 -42t-40 -30.5t-57 -12q-39 0 -63.5 16t-38 37.5t-18 43t-4.5 32.5q0 5 1.5 5.5t9.5 0.5q10 0 12.5 -0.5t3.5 -5.5q5 -30 29.5 -53.5t70.5 -23.5z" />
    <glyph glyph-name="dotaccent" unicode="&#x2d9;" horiz-adv-x="500" 
d="M299 547q0 -20 -16 -34t-33 -14q-16 0 -32.5 13.5t-16.5 34.5t17 34t32 13q16 0 32.5 -13.5t16.5 -33.5z" />
    <glyph glyph-name="ring" unicode="&#x2da;" horiz-adv-x="500" 
d="M251 483q-38 0 -66 21.5t-28 59.5q0 37 27.5 59t66.5 22q38 0 65.5 -22t27.5 -59q0 -38 -27.5 -59.5t-65.5 -21.5zM251 507q22 0 32.5 18t10.5 39q0 20 -10 38.5t-33 18.5q-24 0 -34 -19t-10 -38q0 -20 10.5 -38.5t33.5 -18.5z" />
    <glyph glyph-name="ogonek" unicode="&#x2db;" horiz-adv-x="500" 
d="M339 7q-29 -19 -46.5 -43t-17.5 -57q0 -27 13.5 -40.5t35.5 -13.5q14 0 23.5 4t15.5 8h6q0 -14 -2 -17q-2 -4 -22 -14t-49 -10q-36 0 -56.5 19t-20.5 45q0 35 25 62.5t72 56.5h23z" />
    <glyph glyph-name="tilde" unicode="&#x2dc;" horiz-adv-x="500" 
d="M391 620q5 -2 10 -6t5 -6t-5.5 -12t-10.5 -17q-23 -35 -43.5 -50.5t-40.5 -15.5q-19 0 -35 9t-44 27q-12 8 -23.5 13.5t-23.5 5.5t-22 -5t-18 -12t-13.5 -14t-8.5 -11q-2 -2 -4.5 -6t-4.5 -4q-1 0 -8 3t-7 6q0 2 7.5 15t12.5 22q15 23 33 41t45 18q17 0 31 -7t34 -21
q23 -15 35 -21t26 -6q24 0 38 13t27 30z" />
    <glyph glyph-name="hungarumlaut" unicode="&#x2dd;" horiz-adv-x="500" 
d="M201 566l43 69q5 8 8.5 10t8.5 2q1 0 9.5 -1t18 -3t17 -6t7.5 -9q0 -9 -14 -22q-12 -10 -26.5 -23.5t-30 -28t-30.5 -27.5t-27 -24q-10 -9 -14 -9q-1 0 -7 0.5t-6 4.5zM314 513q-4 -4 -12.5 -11.5t-12.5 -7.5q-3 0 -6 1q-6 2 -6 4l4 6.5t8.5 14t9.5 14.5t6 9
q3 5 11.5 18.5t17.5 28t17.5 27.5t11.5 18q5 8 8.5 10t8.5 2q1 0 9 -1t17.5 -3t17.5 -6t8 -9q0 -7 -5 -12.5t-18 -16.5z" />
    <glyph glyph-name="endash" unicode="&#x2013;" horiz-adv-x="463" 
d="M42 205v39h379v-39h-379z" />
    <glyph glyph-name="emdash" unicode="&#x2014;" horiz-adv-x="722" 
d="M36 205v39h651v-39h-651z" />
    <glyph glyph-name="quoteleft" unicode="&#x2018;" horiz-adv-x="222" 
d="M196 657q-30 -10 -50.5 -26t-32.5 -32.5t-17.5 -32.5t-5.5 -27q0 -23 13.5 -34.5t36.5 -25.5q5 -4 13 -10.5t8 -17.5q0 -17 -14 -29t-28 -12q-9 0 -22 6t-26 19t-22 32t-9 46q0 40 19.5 69.5t44.5 49t48 29t29 9.5q3 0 5.5 -1.5t10.5 -6.5z" />
    <glyph glyph-name="quoteright" unicode="&#x2019;" horiz-adv-x="222" 
d="M25 420q24 8 44 21.5t34 30t21.5 34t7.5 32.5q0 23 -13.5 35t-36.5 26q-6 3 -13.5 9.5t-7.5 18.5q0 17 14 28.5t28 11.5q9 0 22 -6t26 -18.5t22 -32t9 -46.5q0 -40 -20 -69.5t-44.5 -49t-47.5 -29t-29 -9.5q-3 0 -16 9v4z" />
    <glyph glyph-name="quotesinglbase" unicode="&#x201a;" horiz-adv-x="204" 
d="M16 -156q24 8 44 21.5t34 30t21.5 34t7.5 32.5q0 23 -13.5 35t-36.5 26q-6 3 -13.5 9.5t-7.5 18.5q0 17 14 28.5t28 11.5q9 0 22 -6t26 -18.5t22 -32t9 -46.5q0 -40 -20 -69.5t-44.5 -49t-47.5 -29t-29 -9.5q-3 0 -16 9v4z" />
    <glyph glyph-name="quotedblleft" unicode="&#x201c;" horiz-adv-x="407" 
d="M382 657q-30 -10 -50.5 -26t-33 -32.5t-17.5 -32.5t-5 -27q0 -23 13 -34.5t36 -25.5q6 -4 13.5 -10.5t7.5 -17.5q0 -17 -13.5 -29t-28.5 -12q-9 0 -22 6t-26 19t-22 32t-9 46q0 40 19.5 69.5t44.5 49t48 29t29 9.5q3 0 5.5 -1.5t10.5 -6.5v-5zM196 657q-30 -10 -50.5 -26
t-32.5 -32.5t-17.5 -32.5t-5.5 -27q0 -23 13.5 -34.5t36.5 -25.5q5 -4 13 -10.5t8 -17.5q0 -17 -14 -29t-28 -12q-9 0 -22 6t-26 19t-22 32t-9 46q0 40 19.5 69.5t44.5 49t48 29t29 9.5q3 0 5.5 -1.5t10.5 -6.5z" />
    <glyph glyph-name="quotedblright" unicode="&#x201d;" horiz-adv-x="407" 
d="M26 420q24 8 43.5 21.5t33.5 30t21.5 34t7.5 32.5q0 23 -13.5 35t-36.5 26q-6 3 -13.5 9.5t-7.5 18.5q0 17 14 28.5t28 11.5q9 0 22 -6t26 -18.5t22 -32t9 -46.5q0 -40 -20 -69.5t-44.5 -49t-47.5 -29t-29 -9.5q-3 0 -16 9zM211 420q25 8 44.5 22t33 30.5t21 34t7.5 31.5
q0 23 -13.5 35t-36.5 26q-5 3 -13 9.5t-8 18.5q0 17 14 28.5t28 11.5q9 0 22 -6t26 -18.5t22 -32t9 -46.5q0 -40 -20 -69.5t-44.5 -49t-47.5 -29t-29 -9.5q-4 0 -15 9v4z" />
    <glyph glyph-name="quotedblbase" unicode="&#x201e;" horiz-adv-x="407" 
d="M26 -156q24 8 43.5 21.5t33.5 30t21.5 34t7.5 32.5q0 23 -13.5 35t-36.5 26q-6 3 -13.5 9.5t-7.5 18.5q0 17 14 28.5t28 11.5q9 0 22 -6t26 -18.5t22 -32t9 -46.5q0 -40 -20 -69.5t-44.5 -49t-47.5 -29t-29 -9.5q-3 0 -16 9zM211 -156q25 8 44.5 22t33 30.5t21 34
t7.5 31.5q0 23 -13.5 35t-36.5 26q-5 3 -13 9.5t-8 18.5q0 17 14 28.5t28 11.5q9 0 22 -6t26 -18.5t22 -32t9 -46.5q0 -40 -20 -69.5t-44.5 -49t-47.5 -29t-29 -9.5q-4 0 -15 9v4z" />
    <glyph glyph-name="dagger" unicode="&#x2020;" 
d="M274 369q34 0 62 5t47 11q3 1 10 3.5t15.5 5.5t15.5 5.5t10 2.5q5 0 13.5 -4t17 -11t15 -14.5t6.5 -15.5q0 -9 -6 -18t-14 -16t-16 -11.5t-13 -4.5q-2 0 -10 2.5t-17.5 6t-18 7t-12.5 4.5q-36 12 -63 14t-42 2q0 -4 0.5 -17.5t2 -32.5t6 -41t11.5 -43q2 -5 8 -18.5
t6 -17.5q0 -3 -2.5 -12.5t-3.5 -12.5q-6 -28 -10.5 -59.5t-6.5 -60.5t-3.5 -53t-1.5 -38q-1 -17 -1.5 -40t-1 -44.5t-1 -40t-0.5 -26.5q0 -32 -2.5 -40t-16.5 -8t-16.5 5t-3.5 27q0 50 -1 101t-3 98t-5.5 88t-8.5 71q0 3 -1.5 9.5t-3 14t-3 13.5t-1.5 7q0 3 2.5 10.5t6 16
t7 15.5t4.5 10q12 36 14 67.5t2 50.5q-33 -1 -66 -5.5t-74 -22.5q-3 -1 -10 -3.5t-13 -2.5t-14.5 5.5t-16.5 13t-14 15t-6 12.5q0 8 6.5 16.5t15 16t17.5 12.5t14 5t9.5 -2t6.5 -3q35 -15 66 -22.5t79 -7.5q-2 54 -6 94t-15 79q-1 3 -3.5 9.5t-5 14.5t-4.5 14.5t-2 9.5
q0 6 5.5 15.5t13 18.5t17 15.5t16.5 6.5q9 0 17.5 -7.5t15.5 -17.5t11.5 -19t4.5 -12q0 -1 -2.5 -8t-5.5 -16t-6 -17t-4 -11q-19 -61 -19 -169z" />
    <glyph glyph-name="daggerdbl" unicode="&#x2021;" 
d="M249 353q-9 0 -24 -1t-32 -3t-34.5 -5.5t-31.5 -8.5q-3 -1 -9 -4t-13.5 -6t-13.5 -5.5t-9 -2.5q-5 0 -13.5 5.5t-16.5 13t-14 15t-6 12.5q0 8 6.5 16.5t15 16t17.5 12t13 4.5q3 0 8.5 -2t11.5 -5t11.5 -5.5t7.5 -3.5q40 -16 74 -19t52 -3q-3 66 -8.5 104.5t-13.5 64.5
q-1 3 -3.5 10t-5.5 15t-5 14.5t-2 9.5q0 6 5.5 15t13 18t16 15t15.5 6q9 0 17.5 -7t15.5 -16t11.5 -18t4.5 -13q0 -1 -3 -10.5t-7 -20.5t-8 -21.5t-5 -14.5q-8 -31 -11.5 -73.5t-4.5 -77.5q24 1 60 5t71 18q4 2 16.5 7.5t16.5 5.5t12.5 -4t17 -10.5t15 -14.5t6.5 -15
q0 -9 -7 -18t-15.5 -16.5t-17 -12t-11.5 -4.5q-1 0 -9 3t-17 7t-18 7.5t-12 4.5q-32 11 -56.5 13.5t-51.5 3.5q2 -20 3 -34t3 -25t4 -20t5 -20q1 -3 4.5 -12.5t7.5 -19.5t7 -18.5t3 -9.5q0 -4 -5.5 -15.5t-7.5 -14.5q-8 -20 -16 -57t-8 -69q10 0 25 1t31.5 3t33.5 5.5
t31 8.5q3 1 9 4t13.5 6t13.5 5.5t9 2.5q5 0 13 -5t16 -12.5t14 -15.5t6 -13q0 -8 -6.5 -16.5t-15 -16t-17 -12t-13.5 -4.5q-2 0 -7.5 2t-11.5 4.5t-11.5 5t-7.5 3.5q-17 7 -48.5 13.5t-77.5 8.5q0 -15 2 -37t4.5 -46.5t6.5 -48t9 -41.5q1 -3 3.5 -10t5 -14.5t4.5 -14.5
t2 -10q0 -7 -5.5 -16.5t-13 -18.5t-16 -15.5t-15.5 -6.5q-8 0 -16.5 7.5t-15.5 17t-11.5 19t-4.5 13.5q0 1 3 10t6.5 20t7 21.5t4.5 14.5q10 38 13.5 77.5t3.5 78.5q-24 -1 -59.5 -4.5t-71.5 -17.5q-4 -2 -16 -7.5t-16 -5.5t-12.5 4t-17.5 11t-15.5 15t-6.5 15q0 8 6 17
t13.5 16.5t16 12t12.5 4.5q3 0 7 -1.5t6 -2.5q57 -27 97 -31t57 -3q0 12 -1.5 29t-4.5 34.5t-7.5 34.5t-10.5 30q-2 4 -7.5 14.5t-5.5 13.5l2.5 7t6 15t6.5 16t4 11q13 38 16 65.5t4 43.5z" />
    <glyph glyph-name="bullet" unicode="&#x2022;" horiz-adv-x="124" 
d="M0 324q0 11 5.5 22t14.5 19.5t20 14t21 5.5q12 0 23.5 -5.5t20 -14.5t14 -19.5t5.5 -20.5t-5.5 -21t-14 -20t-19.5 -15t-23 -6q-10 0 -21 5.5t-20 14t-15 19.5t-6 22z" />
    <glyph glyph-name="ellipsis" unicode="&#x2026;" horiz-adv-x="667" 
d="M57 43q0 20 18 37t35 17q11 0 21 -5t17.5 -13t12.5 -17t5 -18t-5 -18.5t-12.5 -17.5t-17.5 -13.5t-20 -5.5q-9 0 -18.5 5t-17.5 12.5t-13 17t-5 19.5zM279 43q0 19 17 36.5t37 17.5q10 0 19.5 -5t17.5 -12.5t13 -17t5 -18.5t-5 -18.5t-12.5 -18t-17 -13.5t-19.5 -5
q-19 0 -37 17t-18 37zM501 43q0 20 18 37t36 17q21 0 38 -18t17 -35q0 -9 -4.5 -18.5t-12 -17.5t-17.5 -13.5t-20 -5.5q-9 0 -18.5 5t-18 12.5t-13.5 17t-5 19.5z" />
    <glyph glyph-name="perthousand" unicode="&#x2030;" horiz-adv-x="981" 
d="M85 502q0 -41 9 -70t23 -47t30.5 -26.5t31.5 -8.5q21 0 34.5 11t22 27.5t12 37t3.5 39.5q0 29 -6.5 55.5t-18.5 47.5t-29.5 33.5t-39.5 12.5q-35 0 -53.5 -33.5t-18.5 -78.5zM28 477q0 45 14 76.5t35.5 52t48 30t51.5 9.5q33 0 58 -13.5t41 -36t24 -50.5t8 -57
q0 -37 -11.5 -68t-31.5 -53.5t-47.5 -35t-59.5 -12.5q-30 0 -54.5 12.5t-41 33.5t-25.5 50t-9 62zM125 0q8 13 34.5 60t63 111.5t78 138.5t78 140.5t63 116.5t34.5 67h46q-16 -26 -39 -66t-43 -75q-22 -39 -48.5 -87t-53.5 -96.5t-52 -94t-45 -80.5q-19 -34 -30.5 -55
t-18.5 -35.5t-11.5 -24t-9.5 -20.5h-46zM339 152q0 45 14 76.5t35.5 52t48.5 30t52 9.5q34 0 58.5 -14t40.5 -36.5t23.5 -50.5t7.5 -56q0 -36 -11.5 -67t-31.5 -53.5t-47 -35.5t-59 -13q-30 0 -54 12t-41 33t-26.5 50t-9.5 63zM396 177q0 -42 9.5 -71t23.5 -47t30.5 -26
t30.5 -8q21 0 34.5 11t22 27.5t12 37t3.5 39.5q0 29 -6.5 56t-18.5 47.5t-29 33t-39 12.5q-36 0 -54.5 -33.5t-18.5 -78.5zM674 152q0 45 14 76.5t35.5 52t48 30t51.5 9.5q34 0 58.5 -14t40.5 -36.5t24 -50.5t8 -56q0 -37 -11.5 -68t-32 -53.5t-47.5 -35t-59 -12.5
q-30 0 -54 12t-41 33t-26 50t-9 63zM730 177q0 -41 9 -70t23.5 -47t31 -26.5t31.5 -8.5q21 0 34.5 11t22 27.5t12 37t3.5 39.5q0 29 -6.5 56t-18.5 47.5t-29.5 33t-39.5 12.5q-35 0 -54 -33t-19 -79z" />
    <glyph glyph-name="guilsinglleft" unicode="&#x2039;" horiz-adv-x="278" 
d="M50 197q-11 10 -13 12t-2 6t3 7l8 8q36 33 58 53t38.5 36t32 31t37.5 38l10 10t4 2q1 0 9 -4t8 -7q0 -2 -10 -17.5t-24.5 -35.5t-31 -42t-28.5 -37q-8 -10 -18 -23.5t-10 -15.5t5.5 -9.5t12.5 -17t14 -18t9 -11.5q8 -11 21 -29.5t25 -36.5t21 -31t9 -15q0 -3 -8 -7.5
t-10 -4.5q-1 0 -12.5 11t-26 25t-28.5 27.5t-19 18.5z" />
    <glyph glyph-name="guilsinglright" unicode="&#x203a;" horiz-adv-x="278" 
d="M243 224q0 -4 -3 -7l-9 -9q-35 -32 -56.5 -52t-38 -35t-31 -30t-36.5 -37q-2 -3 -8.5 -9t-8.5 -6q-1 0 -9 3.5t-8 7.5q0 2 10 17t24.5 35.5t30.5 42t28 36.5q8 11 18.5 24.5t10.5 15.5t-5 9t-12 15.5t-13.5 16.5t-8.5 11q-9 12 -22.5 31t-26 37.5t-21.5 32t-9 15.5
q0 3 8.5 7t9.5 4t13 -11t26.5 -25t28.5 -27t19 -18q10 -9 22 -20.5t23.5 -22t21 -19t13.5 -12.5q8 -8 13.5 -13t5.5 -8z" />
    <glyph glyph-name="fraction" unicode="&#x2044;" horiz-adv-x="93" 
d="M-131 0q8 15 32 62.5t55.5 111t66 135t65 134t52 108t26.5 56.5t7 18t3 9h47q-15 -25 -35.5 -65.5t-37.5 -75.5l-174 -358q-17 -34 -27 -55t-16 -35t-9.5 -24t-7.5 -21h-47z" />
    <glyph glyph-name="trademark" unicode="&#x2122;" horiz-adv-x="796" 
d="M204 598v-148q0 -39 1 -60.5t4 -32t8 -13.5t13 -4q10 0 12.5 -5.5t2.5 -10.5q0 -10 -7 -10q-11 0 -24 1t-41 1q-4 0 -14.5 -0.5t-22.5 -0.5t-23 -0.5t-17 -0.5q-5 0 -3 11q0 5 1.5 10t12.5 5q10 3 15.5 6t8.5 9t3.5 16.5t0.5 28.5v198q-33 0 -51.5 -1t-27.5 -4
t-11.5 -8.5t-4.5 -14.5q-2 -6 -8.5 -7t-11.5 -1q-6 0 -6 5q0 6 4 26.5t7 34.5q3 11 6 11q2 0 4.5 -1l7.5 -3t11 -3t16 -1q32 1 83 1h136q23 0 30.5 3t9.5 3q5 0 3 -8t-5 -19q-3 -13 -6 -24.5t-5 -15.5q-2 -5 -3 -7t-9 -2q-5 0 -10.5 4t-5.5 11q0 12 -6.5 16t-29.5 5h-48z
M399 582q0 23 -11.5 29t-16.5 6q-7 0 -7 12q0 4 1 5.5t6 1.5t16 -0.5t23 -0.5q10 0 19.5 0.5t18.5 0.5q11 0 16.5 -1t7.5 -8q3 -13 19.5 -48.5t35.5 -73t34.5 -69t15.5 -37.5l8 17q2 4 11.5 24t22.5 48t28 59.5t27 56.5q5 11 7.5 21.5t9.5 10.5q9 0 29 -0.5t31 -0.5
q4 0 12.5 0.5t12.5 0.5q6 0 6 -5v-10t3 -3q-17 -2 -23.5 -9.5t-6.5 -33.5q0 -7 0.5 -40t1 -71.5t2 -71.5t2.5 -41q5 -11 18 -11q4 0 5 -4.5t1 -10.5q0 -8 -2.5 -9.5t-6.5 -1.5q-11 0 -25 0.5t-31 0.5q-30 0 -45 -0.5t-23 -0.5q-4 0 -4 13q0 8 3 10.5t8 2.5q15 0 23 2t12 9.5
t5 22t1 40.5q0 10 -0.5 34t-1 50t-1 49t-0.5 32q-3 -15 -10 -30.5t-25 -50.5q-6 -12 -19 -37t-26 -51t-23.5 -48.5t-12.5 -29.5t-6 -8.5t-10 -2.5l-7 -1q-10 -1 -14 10q-3 9 -6.5 17t-11.5 25t-23 48t-41 85q-13 26 -20.5 39.5t-9.5 33.5l1 -26q-1 -35 -1.5 -74t-0.5 -68
q0 -25 1.5 -38.5t5.5 -20.5t11.5 -8.5t20.5 -2.5q5 0 9.5 -2t4.5 -11q0 -6 -1 -9.5t-6 -3.5q-3 0 -11 0.5t-16.5 0.5t-16.5 0.5t-11 0.5q-4 0 -13 -0.5t-19 -0.5t-18.5 -0.5t-11.5 -0.5q-7 0 -7.5 2.5t-0.5 10.5t4 10t13 3q11 1 13 11.5t4 23.5q2 14 4 46.5t4 66.5t3.5 62
t1.5 32z" />
    <glyph glyph-name="minus" unicode="&#x2212;" 
d="M451 340q3 0 7 -0.5t4 -5.5q0 -28 -0.5 -34t-4.5 -6h-398q-3 1 -3 32q0 10 2 12t5 2h388z" />
    <glyph glyph-name="fi" unicode="&#xfb01;" horiz-adv-x="574" 
d="M48 376q-4 0 -4 7q0 4 0.5 7.5t4.5 5.5q16 8 25.5 12t26.5 12q0 53 4.5 91t29.5 78q19 30 44 52t53.5 36t58.5 21t58 7q54 0 86.5 -21t32.5 -45q0 -10 -5.5 -18.5t-13.5 -14.5t-16 -9t-14 -3q-10 0 -17.5 9.5t-14.5 17.5q-10 13 -29.5 22.5t-55.5 9.5q-32 0 -54 -8.5
t-36 -21.5t-21 -28t-10 -28q-3 -14 -5 -27t-3 -29t-1 -37.5v-52.5h121q54 0 86.5 1t45.5 3q3 0 9 2t13 4t12.5 3.5t7.5 1.5q10 0 10 -8q0 -2 -0.5 -12.5t-1.5 -23.5t-2 -27t-1 -23q-1 -24 -1.5 -55.5t-0.5 -65.5v-35t0.5 -48.5t1.5 -47t2 -30.5q5 -24 20.5 -29.5t44.5 -7.5
q10 -1 12.5 -3t2.5 -10q0 -11 -11 -11q-6 0 -19 0.5t-28.5 0.5t-31 0.5t-26.5 0.5q-26 0 -52.5 -1t-52.5 -1q-8 0 -8 9q0 8 2 10t13 4q19 4 35 12t20 34q2 13 3 37t1.5 50.5t0.5 52v40.5q0 38 -0.5 61t-2.5 36t-6 18.5t-11 8.5q-5 2 -14 3t-30 1.5t-60 0.5h-104v-77.5
t0.5 -81t1 -73.5t1.5 -57q1 -19 5 -31.5t13.5 -19.5t26.5 -9.5t43 -2.5q8 -1 10 -3.5t2 -8.5q0 -8 -1.5 -11t-7.5 -3q-26 0 -53.5 1t-70.5 1q-35 0 -65.5 -1t-36.5 -1q-3 0 -3.5 3t-0.5 13q0 5 2 5.5t13 2.5q29 5 37.5 18t10.5 48q1 26 1.5 64t0.5 78.5v79v65.5h-53z" />
    <glyph glyph-name="fl" unicode="&#xfb02;" horiz-adv-x="574" 
d="M48 376q-4 0 -4 7t0.5 9t4.5 4q16 8 25.5 12t26.5 12q1 35 2.5 60t5.5 45t12 37.5t22 37.5t33.5 39t44 34t53.5 24t61 9q31 0 49 -6t31 -11q11 5 29 11.5t29 6.5q8 0 8 -7l-7 -64q-1 -14 -1.5 -32t-1 -50t-1 -83.5t-0.5 -134.5q0 -19 0.5 -60t1 -85.5t2 -82t4.5 -49.5
q5 -19 19.5 -25.5t50.5 -10.5q8 -1 10.5 -3.5t2.5 -7.5q0 -9 -4 -11t-13 -2q-12 0 -28 0.5t-33 0.5t-32.5 0.5t-26.5 0.5q-10 0 -24 -0.5t-28 -0.5t-25 -0.5t-15 -0.5q-6 0 -8.5 1.5t-2.5 9.5t3 10t11 3q21 3 33 9.5t18 19t8 33t3 51.5q1 26 1.5 68t1 87.5t0.5 88.5v71
q0 57 -0.5 89t-2.5 48.5t-5.5 22t-9.5 11.5q-17 17 -43.5 22t-46.5 5q-42 0 -66 -12.5t-36 -39.5t-15 -70.5t-3 -105.5q29 -1 70.5 -0.5t71.5 0.5q6 0 7 -4t1 -12q0 -19 -1.5 -23.5t-8.5 -4.5h-140v-77.5t0.5 -81t1 -73.5t1.5 -57q1 -19 5 -31.5t13.5 -19.5t26.5 -9.5
t43 -2.5q8 -1 10 -4t2 -8q0 -7 -2 -10.5t-16 -3.5q-11 0 -41 1t-73 1q-39 0 -66.5 -1t-36.5 -1q-4 0 -4 16q0 5 2 5.5t13 2.5q29 5 37.5 18t10.5 48q1 26 1.5 64t0.5 78.5v79v65.5h-53z" />
    </font>
</defs>
</svg>
