<svg width="145px" height="145px" viewBox="0 0 145 145" version="1.1" xmlns="http://www.w3.org/2000/svg" xmlns:xlink="http://www.w3.org/1999/xlink">
    <!-- Generator: Sketch 51.2 (57519) - http://www.bohemiancoding.com/sketch -->
    <desc>Created with Sketch.</desc>
    <defs></defs>
    <g id="Symbols" stroke="none" stroke-width="1" fill="none" fill-rule="evenodd">
        <g id="Media-/-Icon-/-Assettype-/-01" fill-rule="nonzero">
            <g id="SWL_Icon_Sale_Bordeux_Kreis-neg_RGB_Asset-classes">
                <g id="Kreis" fill="#A11C36">
                    <circle id="Oval" cx="72.5" cy="72.5" r="72.5"></circle>
                </g>
                <g id="Icon" transform="translate(24.000000, 25.000000)" fill="#FFFFFF">
                    <g id="Group">
                        <path d="M12.9,28 L34.3,49.4 L13.3,70.4 C8.7,64.2 6.3,56.7 6.3,48.9 C6.3,41.3 8.6,34.1 12.9,28 Z M8.2,24.3 C3.3,31.2 0.3,39.7 0.3,48.9 C0.3,60 4.6,70.1 11.6,77.7 C12.4,78.5 13.7,78.6 14.5,77.8 L42.8,49.5 L15.8,22.5 L14,20.6 C13.2,19.8 11.8,19.8 11.1,20.7 C10.1,21.8 8.9,23.3 8.2,24.3 Z" id="Shape"></path>
                        <path d="M39.7,6.8 L39.7,28.9 L24.2,13.3 C28.8,9.9 34.1,7.7 39.7,6.8 Z M42.2,0.4 C32.5,1.2 23.7,5.3 16.9,11.5 C16.1,12.3 16,13.6 16.8,14.4 L45.7,43.3 L45.7,3.8 L45.7,2.3 C45.7,1.2 44.8,0.3 43.6,0.3 C43.1,0.4 42.6,0.4 42.2,0.4 Z" id="Shape"></path>
                        <path d="M57.6,12.4 C75.6,15.4 89.3,31.7 88,50.9 C86.8,69.1 72,83.7 53.8,84.8 C45.4,85.3 37.4,83 30.7,78.3 L55.8,53.2 L57,52 C57.4,51.6 57.6,51.1 57.6,50.6 L57.6,48.9 L57.6,12.4 Z M51.6,10.9 L51.6,48.9 L23.3,77.2 C22.5,78 22.5,79.4 23.4,80.1 C31.1,86.9 41.2,91 52.4,90.8 C74.7,90.4 93.2,72.4 94,50.1 C94.9,28.4 79.5,10.2 59,6.6 C58.1,6.4 55.6,6.2 53.7,6.1 C52.5,6 51.6,6.9 51.6,8.1 L51.6,10.9 Z" id="Shape"></path>
                    </g>
                </g>
            </g>
        </g>
    </g>
</svg>