<svg xmlns="http://www.w3.org/2000/svg" viewBox="0 0 145 145"><defs><style>.cls-1{fill:#a11c36;}.cls-2{fill:#fff;}</style></defs><title>SWL_Icon_ClientReports_Bordeux_Kreis-neg_RGB</title><g id="Kreis"><circle class="cls-1" cx="72.5" cy="72.5" r="72.5"/></g><g id="Icon"><path class="cls-2" d="M49.21,52.79h2a2,2,0,0,0,2-2V47.57a19.31,19.31,0,0,1,20-19.27c10.44.39,18.54,9.3,18.54,19.75v2.75a2,2,0,0,0,2,2h2a2,2,0,0,0,2-2V48.14C97.79,34,86.21,22,72.07,22.29A25.32,25.32,0,0,0,47.21,47.57v3.22A2,2,0,0,0,49.21,52.79Z"/><path class="cls-2" d="M104.9,56.8H40.1a6,6,0,0,0-6,6v47.92a6,6,0,0,0,6,6h64.8a6,6,0,0,0,6-6V62.8A6,6,0,0,0,104.9,56.8ZM40.1,110.72V62.8h64.8v47.92Z"/><rect class="cls-2" x="78.94" y="87.19" width="4" height="18.73" rx="1.3" ry="1.3"/><rect class="cls-2" x="73.93" y="93.47" width="4" height="12.45" rx="1.3" ry="1.3"/><rect class="cls-2" x="68.91" y="92.71" width="4" height="13.21" rx="1.3" ry="1.3"/><rect class="cls-2" x="63.9" y="91.65" width="4" height="14.27" rx="1.3" ry="1.3"/><rect class="cls-2" x="83.95" y="81.27" width="4" height="24.65" rx="1.3" ry="1.3"/><rect class="cls-2" x="58.89" y="96.45" width="4" height="9.47" rx="1.3" ry="1.3"/><path class="cls-2" d="M89.73,67.88h-7.2a1.3,1.3,0,0,0-1.3,1.3v1.4a1.3,1.3,0,0,0,1.3,1.3H85L73.73,84.4l-4.48-3.73a2,2,0,0,0-2.69.12L54.78,92.53a1.3,1.3,0,0,0,0,1.84l1,1a1.3,1.3,0,0,0,1.84,0L68.09,84.91l4.56,3.79a2,2,0,0,0,2.77-.2L87.73,74.82v1.88A1.3,1.3,0,0,0,89,78h1.4a1.3,1.3,0,0,0,1.3-1.3V69.88A2,2,0,0,0,89.73,67.88Z"/></g></svg>