<svg id="Layer_1" data-name="Layer 1" xmlns="http://www.w3.org/2000/svg" viewBox="0 0 85.04 85.04"><defs><style>.cls-1{fill:#a11c36;}.cls-2{fill:#fff;}.cls-3{fill:none;stroke:#fff;stroke-linecap:round;stroke-linejoin:round;stroke-width:1.5px;}</style></defs><title>Fixed Income_Swiss Bonds</title><path class="cls-1" d="M85,42.52A42.52,42.52,0,1,1,42.52,0,42.52,42.52,0,0,1,85,42.52" transform="translate(0 0)"/><path class="cls-2" d="M12.32,39.67a32.48,32.48,0,0,1,3.45-1.32c.4,0,5.58,1.32,5.58,1.32V41.4l-2,.93.4,2.79-.67,2,5.05,6.37s5.44-1.73,5.83-1.73S33,51.22,33,51.22l3.72,1.6,4.38-5.18-1.07-3.45,3.45-2.79.8-1.46,2.39-.4-.8,4.12L50,48l3,.66-1.38,1.21,2.66,4.5L56.52,53l-1.33-3,4.25-5.32V38.35l2.26,1.06,1.72,2.65,2.66,1.33,4.24-2.26.93,1.2.67,2.52,2.26-.66-1.33-2.53.66-.92-1.46-.93-.4-2.39,2.53-2.26,1,2.26H78L79,36l-1.85-.8L76.7,33,79,28.66,76.56,26.4l-3.84,3.32-4-1.46V26.4l-6.24-.79-.26-3.85,2.92-4.12-1.86-2.52H61.43l-5-3.85-4.25.93L50,11.27V9.41H45.64l-.8,1.07.8,1.85,2.79.27-.57,1.88-4.08-.42-1.59-1.2-2.53,1.59H36.75l-.93-.92-1.73,1.19-2.25-.66-1.33,1.86-1.46,1.59L25.2,17l.53-2.26-3.45,1.06L21.35,19H23.6l-6.5,8-3.18,1.33-.4,4.51L8.21,37v1.46l-.8,1.46V41l1.33,1.2-.4,2-2.25.93v2.12l2.52.26,2.92-3.18-.73-1.67,1.52-3" transform="translate(0 0)"/><rect class="cls-1" x="23.47" y="41.52" width="10.09" height="32.22"/><rect class="cls-3" x="23.47" y="41.52" width="10.09" height="32.22"/><rect class="cls-1" x="37.47" y="23.57" width="10.09" height="50.17"/><rect class="cls-3" x="37.47" y="23.57" width="10.09" height="50.17"/><rect class="cls-1" x="51.47" y="31.91" width="10.09" height="41.83"/><rect class="cls-3" x="51.47" y="31.91" width="10.09" height="41.83"/></svg>