<svg id="Layer_1" data-name="Layer 1" xmlns="http://www.w3.org/2000/svg" viewBox="0 0 85.04 85.04"><defs><style>.cls-1{fill:#a11c36;}.cls-2,.cls-3,.cls-4,.cls-5,.cls-7{fill:none;}.cls-2,.cls-3,.cls-4,.cls-5,.cls-6,.cls-7,.cls-8{stroke:#fff;}.cls-2,.cls-3,.cls-5,.cls-6,.cls-7,.cls-8{stroke-linejoin:round;}.cls-2{stroke-width:2px;}.cls-3{stroke-width:1.5px;}.cls-4{stroke-miterlimit:10;}.cls-5{stroke-width:1.51px;}.cls-6,.cls-8{fill:#fff;}.cls-6{stroke-width:0.5px;}.cls-7{stroke-linecap:round;}.cls-8{stroke-width:0.92px;}</style></defs><title>Infrastruktur_funds of funds</title><path class="cls-1" d="M85,42.52A42.52,42.52,0,1,1,42.52,0,42.52,42.52,0,0,1,85,42.52" transform="translate(0 0)"/><rect class="cls-1" x="23.47" y="41.52" width="10.09" height="32.22"/><rect class="cls-1" x="51.47" y="31.91" width="10.09" height="41.83"/><path class="cls-1" d="M20.83,32.76" transform="translate(0 0)"/><path class="cls-2" d="M20.83,32.76" transform="translate(0 0)"/><polyline class="cls-3" points="41.32 14.11 22.28 17.78 22.28 19.82 47.16 19.82"/><polyline class="cls-3" points="46.72 14.11 65.76 17.78 65.76 19.82 47.07 19.82"/><line class="cls-4" x1="47.09" y1="20.11" x2="40.9" y2="26.31"/><line class="cls-4" x1="40.82" y1="26.68" x2="47.74" y2="33.59"/><line class="cls-4" x1="47.8" y1="33.84" x2="39.83" y2="41.81"/><line class="cls-4" x1="39.68" y1="42.32" x2="49.75" y2="52.4"/><line class="cls-4" x1="49.91" y1="52.07" x2="35.47" y2="66.51"/><path class="cls-5" d="M54.92,71.41C48,63.31,46.74,9.59,46.74,9.59H41.37s-1.25,53.72-8.18,61.82" transform="translate(0 0)"/><polygon class="cls-6" points="28.94 20.21 30.88 23.48 27 23.48 28.94 20.21"/><polygon class="cls-6" points="28.94 22.65 30.88 25.92 27 25.92 28.94 22.65"/><polygon class="cls-6" points="28.94 25.09 30.88 28.36 27 28.36 28.94 25.09"/><polygon class="cls-6" points="59.15 20.21 61.09 23.48 57.2 23.48 59.15 20.21"/><polygon class="cls-6" points="59.15 22.65 61.09 25.92 57.2 25.92 59.15 22.65"/><polygon class="cls-6" points="59.15 25.09 61.09 28.36 57.2 28.36 59.15 25.09"/><path class="cls-7" d="M28.9,27.94S28,40.66,6.09,40.66" transform="translate(0 0)"/><path class="cls-7" d="M59.23,27.94a9.74,9.74,0,0,1-5.75,7.56" transform="translate(0 0)"/><path class="cls-7" d="M59.09,28.07A20.26,20.26,0,0,0,79,41.78" transform="translate(0 0)"/><path class="cls-7" d="M28.78,28S40.5,41.91,57.28,41.91" transform="translate(0 0)"/><polygon class="cls-8" points="65.28 75.45 23.28 75.45 26.11 68.61 62.45 68.61 65.28 75.45"/></svg>