<svg id="Layer_1" data-name="Layer 1" xmlns="http://www.w3.org/2000/svg" viewBox="0 0 85.04 85.04"><defs><style>.cls-1{fill:#a11c36;}.cls-2{fill:none;stroke-width:2px;}.cls-2,.cls-3,.cls-4,.cls-5{stroke:#fff;}.cls-2,.cls-3,.cls-4{stroke-linejoin:round;}.cls-3,.cls-5{fill:#9d0030;}.cls-3{stroke-width:1.2px;}.cls-4{fill:#fff;stroke-linecap:round;stroke-width:0.97px;}.cls-5{stroke-miterlimit:10;stroke-width:0.81px;}</style></defs><title>Infrastruktur_direct core</title><path class="cls-1" d="M85,42.52A42.52,42.52,0,1,1,42.52,0,42.52,42.52,0,0,1,85,42.52" transform="translate(0 0)"/><path class="cls-1" d="M21.69,34.82" transform="translate(0 0)"/><path class="cls-2" d="M21.69,34.82" transform="translate(0 0)"/><polygon class="cls-3" points="45.38 80.59 39.72 80.59 41.73 43.89 43.92 43.89 45.38 80.59"/><polygon class="cls-4" points="45.42 4.62 43.37 4.45 36.46 30.23 42.83 41.08 45.42 4.62"/><polygon class="cls-4" points="73.38 61.12 74.53 59.4 55.4 40.8 42.82 41.07 73.38 61.12"/><polygon class="cls-4" points="10.5 57.95 11.44 59.78 37 52.08 42.87 40.95 10.5 57.95"/><path class="cls-5" d="M45.69,42.2a3.07,3.07,0,1,1-1.73-4A3.06,3.06,0,0,1,45.69,42.2Z" transform="translate(0 0)"/></svg>