<?xml version="1.0" encoding="utf-8"?>
<!-- Generator: Adobe Illustrator 21.1.0, SVG Export Plug-In . SVG Version: 6.00 Build 0)  -->
<svg version="1.1" xmlns="http://www.w3.org/2000/svg" xmlns:xlink="http://www.w3.org/1999/xlink" x="0px" y="0px"
	 viewBox="0 0 605 605" style="enable-background:new 0 0 605 605;" xml:space="preserve">
<style type="text/css">
	.st0{fill:#A11C36;}
	.st1{fill:#FFFFFF;}
	.st2{font-family:'MyriadPro-Bold';}
	.st3{font-size:53.5862px;}
</style>
<g id="Kreis">
	<circle class="st0" cx="302.5" cy="302.5" r="277.5"/>
</g>
<g id="Icon">
	<path class="st1" d="M432.7,441.4H172.4V292.1c0-4.2-3.4-7.7-7.7-7.7h-7.7c-4.2,0-7.7,3.4-7.7,7.7v160.8c0,6.3,5.1,11.5,11.5,11.5
		h283.2c6.3,0,11.5-5.1,11.5-11.5V292.1c0-4.2-3.4-7.7-7.7-7.7h-7.7c-4.2,0-7.7,3.4-7.7,7.7V441.4z"/>
	<path class="st1" d="M352.3,410.8V338c0-6.3-5.2-11.5-11.5-11.5h-76.5c-6.3,0-11.5,5.1-11.5,11.5v72.7c0,4.2,3.4,7.7,7.7,7.7h7.6
		c4.2,0,7.7-3.4,7.7-7.7v-61.2h53.6v61.2c0,4.2,3.4,7.7,7.7,7.7h7.7C348.8,418.4,352.3,415,352.3,410.8"/>
	<path class="st1" d="M309.7,114.9c-4.2-3.3-10.1-3.3-14.3,0L132.9,244.1c-3.3,2.6-3.9,7.4-1.2,10.8l4.8,6c2.6,3.3,7.4,3.9,10.8,1.2
		l155.3-123.5l155.3,123.5c3.3,2.6,8.1,2.1,10.8-1.2l4.8-6c2.6-3.3,2.1-8.1-1.2-10.8L309.7,114.9z"/>
	<text transform="matrix(1 0 0 1 136.6938 273.4398)" class="st1 st2 st3">           </text>
</g>
</svg>
