<?xml version="1.0" encoding="utf-8"?>
<!-- Generator: Adobe Illustrator 21.1.0, SVG Export Plug-In . SVG Version: 6.00 Build 0)  -->
<svg version="1.1" xmlns="http://www.w3.org/2000/svg" xmlns:xlink="http://www.w3.org/1999/xlink" x="0px" y="0px"
	 viewBox="0 0 605 605" style="enable-background:new 0 0 605 605;" xml:space="preserve">
<style type="text/css">
	.st0{fill:#A11C36;}
	.st1{fill:#FFFFFF;}
</style>
<g id="Kreis">
	<circle class="st0" cx="302.5" cy="302.5" r="277.5"/>
</g>
<g id="Icon">
	<g>
		<path class="st1" d="M431.7,421h-7.7c-4.2,0-7.7-3.4-7.7-7.7V144.9h-229v268.4c0,4.2-3.4,7.7-7.7,7.7h-7.7c-4.2,0-7.7-3.4-7.7-7.7
			V133.5c0-6.3,5.1-11.5,11.5-11.5h252c6.3,0,11.5,5.1,11.5,11.5v279.9C439.4,417.6,436,421,431.7,421z"/>
	</g>
	<g>
		<path class="st1" d="M465.8,472.7H144.3c-4.2,0-7.7-3.4-7.7-7.7v-7.7c0-4.2,3.4-7.7,7.7-7.7h321.5c4.2,0,7.7,3.4,7.7,7.7v7.7
			C473.5,469.3,470,472.7,465.8,472.7z"/>
	</g>
	<g>
		<path class="st1" d="M389.2,228.9v-60.2c0-2.7-1.7-4.9-3.8-4.9H370c-2.1,0-3.8,2.2-3.8,4.9v60.2c0,2.7,1.7,4.9,3.8,4.9h15.3
			C387.4,233.8,389.2,231.6,389.2,228.9z"/>
		<path class="st1" d="M389.2,318.9v-60.2c0-2.7-1.7-4.9-3.8-4.9H370c-2.1,0-3.8,2.2-3.8,4.9v60.2c0,2.7,1.7,4.9,3.8,4.9h15.3
			C387.4,323.8,389.2,321.6,389.2,318.9z"/>
		<path class="st1" d="M389.2,413.8v-60.2c0-2.7-1.7-4.9-3.8-4.9H370c-2.1,0-3.8,2.2-3.8,4.9v60.2c0,2.7,1.7,4.9,3.8,4.9h15.3
			C387.4,418.7,389.2,416.5,389.2,413.8z"/>
	</g>
	<path class="st1" d="M338.6,228.9v-60.2c0-2.7-1.7-4.9-3.8-4.9h-15.3c-2.1,0-3.8,2.2-3.8,4.9v60.2c0,2.7,1.7,4.9,3.8,4.9h15.3
		C336.9,233.8,338.6,231.6,338.6,228.9z"/>
	<path class="st1" d="M338.6,318.9v-60.2c0-2.7-1.7-4.9-3.8-4.9h-15.3c-2.1,0-3.8,2.2-3.8,4.9v60.2c0,2.7,1.7,4.9,3.8,4.9h15.3
		C336.9,323.8,338.6,321.6,338.6,318.9z"/>
	<path class="st1" d="M338.6,413.8v-60.2c0-2.7-1.7-4.9-3.8-4.9h-15.3c-2.1,0-3.8,2.2-3.8,4.9v60.2c0,2.7,1.7,4.9,3.8,4.9h15.3
		C336.9,418.7,338.6,416.5,338.6,413.8z"/>
	<path class="st1" d="M288.1,228.9v-60.2c0-2.7-1.7-4.9-3.8-4.9H269c-2.1,0-3.8,2.2-3.8,4.9v60.2c0,2.7,1.7,4.9,3.8,4.9h15.3
		C286.4,233.8,288.1,231.6,288.1,228.9z"/>
	<path class="st1" d="M265.2,258.7v60.2c0,2.7,1.7,4.9,3.8,4.9h15.3c2.1,0,3.8-2.2,3.8-4.9v-60.2c0-2.7-1.7-4.9-3.8-4.9H269
		C266.9,253.8,265.2,256,265.2,258.7z"/>
	<path class="st1" d="M288.1,413.8v-60.2c0-2.7-1.7-4.9-3.8-4.9H269c-2.1,0-3.8,2.2-3.8,4.9v60.2c0,2.7,1.7,4.9,3.8,4.9h15.3
		C286.4,418.7,288.1,416.5,288.1,413.8z"/>
	<g>
		<path class="st1" d="M214.6,168.7v60.2c0,2.7,1.7,4.9,3.8,4.9h15.3c2.1,0,3.8-2.2,3.8-4.9v-60.2c0-2.7-1.7-4.9-3.8-4.9h-15.3
			C216.4,163.8,214.6,166,214.6,168.7z"/>
		<path class="st1" d="M214.6,258.7v60.2c0,2.7,1.7,4.9,3.8,4.9h15.3c2.1,0,3.8-2.2,3.8-4.9v-60.2c0-2.7-1.7-4.9-3.8-4.9h-15.3
			C216.4,253.8,214.6,256,214.6,258.7z"/>
		<path class="st1" d="M214.6,353.6v60.2c0,2.7,1.7,4.9,3.8,4.9h15.3c2.1,0,3.8-2.2,3.8-4.9v-60.2c0-2.7-1.7-4.9-3.8-4.9h-15.3
			C216.4,348.7,214.6,350.9,214.6,353.6z"/>
	</g>
</g>
</svg>
