<?xml version="1.0" encoding="utf-8"?>
<!-- Generator: Adobe Illustrator 21.1.0, SVG Export Plug-In . SVG Version: 6.00 Build 0)  -->
<svg version="1.1" xmlns="http://www.w3.org/2000/svg" xmlns:xlink="http://www.w3.org/1999/xlink" x="0px" y="0px"
	 viewBox="0 0 605 605" style="enable-background:new 0 0 605 605;" xml:space="preserve">
<style type="text/css">
	.st0{fill:#A11C36;}
	.st1{fill:#FFFFFF;}
</style>
<g id="Kreis">
	<circle class="st0" cx="302.5" cy="302.5" r="277.5"/>
</g>
<g id="Icon">
	<g>
		<path class="st1" d="M234.2,306.9H194c-4.2,0-7.7-3.4-7.7-7.7v0c0-4.2,3.4-7.7,7.7-7.7h40.2c4.2,0,7.7,3.4,7.7,7.7v0
			C241.8,303.5,238.4,306.9,234.2,306.9z"/>
	</g>
	<g>
		<path class="st1" d="M234.2,345.8H194c-4.2,0-7.7-3.4-7.7-7.7l0,0c0-4.2,3.4-7.7,7.7-7.7h40.2c4.2,0,7.7,3.4,7.7,7.7l0,0
			C241.8,342.4,238.4,345.8,234.2,345.8z"/>
	</g>
	<g>
		<path class="st1" d="M234.2,384.7H194c-4.2,0-7.7-3.4-7.7-7.7v0c0-4.2,3.4-7.7,7.7-7.7h40.2c4.2,0,7.7,3.4,7.7,7.7v0
			C241.8,381.3,238.4,384.7,234.2,384.7z"/>
	</g>
	<g>
		<path class="st1" d="M234.2,268H194c-4.2,0-7.7-3.4-7.7-7.7l0,0c0-4.2,3.4-7.7,7.7-7.7h40.2c4.2,0,7.7,3.4,7.7,7.7l0,0
			C241.8,264.6,238.4,268,234.2,268z"/>
	</g>
	<g>
		<path class="st1" d="M298,221.4h-40.2c-4.2,0-7.7-3.4-7.7-7.7v0c0-4.2,3.4-7.7,7.7-7.7H298c4.2,0,7.7,3.4,7.7,7.7v0
			C305.6,218,302.2,221.4,298,221.4z"/>
	</g>
	<g>
		<path class="st1" d="M298,260.3h-17.2c-4.2,0-7.7-3.4-7.7-7.7v0c0-4.2,3.4-7.7,7.7-7.7H298c4.2,0,7.7,3.4,7.7,7.7v0
			C305.6,256.9,302.2,260.3,298,260.3z"/>
	</g>
	<g>
		<path class="st1" d="M298,299.3h-17.2c-4.2,0-7.7-3.4-7.7-7.7l0,0c0-4.2,3.4-7.7,7.7-7.7H298c4.2,0,7.7,3.4,7.7,7.7l0,0
			C305.6,295.8,302.2,299.3,298,299.3z"/>
	</g>
	<g>
		<path class="st1" d="M298,182.5h-40.2c-4.2,0-7.7-3.4-7.7-7.7v0c0-4.2,3.4-7.7,7.7-7.7H298c4.2,0,7.7,3.4,7.7,7.7v0
			C305.6,179.1,302.2,182.5,298,182.5z"/>
	</g>
	<g>
		<path class="st1" d="M359.2,221.4H319c-4.2,0-7.7-3.4-7.7-7.7v0c0-4.2,3.4-7.7,7.7-7.7h40.2c4.2,0,7.7,3.4,7.7,7.7v0
			C366.9,218,363.4,221.4,359.2,221.4z"/>
	</g>
	<g>
		<path class="st1" d="M359.2,260.3H319c-4.2,0-7.7-3.4-7.7-7.7v0c0-4.2,3.4-7.7,7.7-7.7h40.2c4.2,0,7.7,3.4,7.7,7.7v0
			C366.9,256.9,363.4,260.3,359.2,260.3z"/>
	</g>
	<g>
		<path class="st1" d="M359.2,299.3H319c-4.2,0-7.7-3.4-7.7-7.7l0,0c0-4.2,3.4-7.7,7.7-7.7h40.2c4.2,0,7.7,3.4,7.7,7.7l0,0
			C366.9,295.8,363.4,299.3,359.2,299.3z"/>
	</g>
	<g>
		<path class="st1" d="M359.2,182.5H319c-4.2,0-7.7-3.4-7.7-7.7v0c0-4.2,3.4-7.7,7.7-7.7h40.2c4.2,0,7.7,3.4,7.7,7.7v0
			C366.9,179.1,363.4,182.5,359.2,182.5z"/>
	</g>
	<g>
		<path class="st1" d="M412.2,383.5H372c-4.2,0-7.7-3.4-7.7-7.7l0,0c0-4.2,3.4-7.7,7.7-7.7h40.2c4.2,0,7.7,3.4,7.7,7.7l0,0
			C419.8,380.1,416.4,383.5,412.2,383.5z"/>
	</g>
	<g>
		<path class="st1" d="M412.2,422.4H372c-4.2,0-7.7-3.4-7.7-7.7v0c0-4.2,3.4-7.7,7.7-7.7h40.2c4.2,0,7.7,3.4,7.7,7.7v0
			C419.8,419,416.4,422.4,412.2,422.4z"/>
	</g>
	<path class="st1" d="M469.1,340.3l-74.4-43.2V131.3c0-6.3-5.1-11.5-11.5-11.5H230.1c-6.3,0-11.5,5.1-11.5,11.5v76.6h-59.3
		c-6.3,0-11.5,5.1-11.5,11.5v231.6c0,4.2,3.4,7.7,7.7,7.7h7.7c4.2,0,7.7-3.4,7.7-7.7V230.8h91.9v220.1c0,4.2,3.4,7.7,7.7,7.7h7.7
		c4.2,0,7.7-3.4,7.7-7.7V219.3c0-6.3-5.1-11.5-11.5-11.5h-32.5v-65.1h130.1v164.8l-58.8,33c-3.4,1.9-4.6,6.2-2.6,9.6l4.1,7
		c1.9,3.3,6.1,4.4,9.4,2.5l0,0v91.2c0,4.2,3.4,7.7,7.7,7.7h7.7c4.2,0,7.7-3.4,7.7-7.7V348.9l44.2-26l43.8,23.7v104.3
		c0,4.2,3.4,7.7,7.7,7.7h7.7c4.2,0,7.7-3.4,7.7-7.7v-91.2l0,0c3.3,1.9,7.5,0.8,9.4-2.5l4.3-7.3C473.5,346.5,472.4,342.3,469.1,340.3
		z"/>
</g>
</svg>
