<svg xmlns="http://www.w3.org/2000/svg" viewBox="0 0 145 145"><defs><style>.cls-1{fill:#a11c36;}.cls-2{fill:#fff;}</style></defs><title>SWL_Icon_ClientReports_Bordeux_Kreis-neg_RGB</title><g id="Kreis"><circle class="cls-1" cx="72.5" cy="72.5" r="72.5"/></g><g id="Icon"><rect class="cls-2" x="49.16" y="44.35" width="31.36" height="6" rx="2" ry="2"/><rect class="cls-2" x="49.16" y="64.16" width="29.71" height="6" rx="2" ry="2"/><rect class="cls-2" x="49.16" y="54.19" width="26.4" height="6" rx="2" ry="2"/><path class="cls-2" d="M63.72,99.78H43V34.6l47.05-.17V70.3a2,2,0,0,0,2,2h2a2,2,0,0,0,2-2V31.43a3,3,0,0,0-3-3L40,28.61a3,3,0,0,0-3,3v71.17a3,3,0,0,0,3,3h23.7a2,2,0,0,0,2-2v-2A2,2,0,0,0,63.72,99.78Z"/><path class="cls-2" d="M95.69,108.53l11.55,11.55a1.7,1.7,0,0,0,2.4,0l1.85-1.85a1.7,1.7,0,0,0,0-2.4L99.93,104.28a1.7,1.7,0,0,0-2.4,0l-1.85,1.85A1.7,1.7,0,0,0,95.69,108.53Z"/><path class="cls-2" d="M96.07,82.19a16.16,16.16,0,0,0-6-6.34,16.07,16.07,0,1,0,6,6.34Zm-6,13.2a10,10,0,1,1,1.83-5.78A10.06,10.06,0,0,1,90.07,95.4Z"/></g></svg>